<svg xmlns="http://www.w3.org/2000/svg" width="24" height="24"><g stroke-width="1.2" stroke="#001026"><g style="opacity:.5;stroke-width:4;stroke-miterlimit:10;stroke-dasharray:none"><path style="mix-blend-mode:normal;fill:none;fill-rule:evenodd;stroke-width:4;stroke-miterlimit:10;stroke-dasharray:none;stroke-dashoffset:0" fill="#bfbfbf" d="M68.45 32.457c.3-.2.8-.1.9.3l2.6 10.7s6.4 4.7 8.3 8c3.2 5.5 3.3 10 3.3 10s7.1 2.1 8.3 7.8c1.2 5.7-3.2 16.5-22 20.2-18.8 3.7-33.9-1.4-41-12.8-7.1-11.4 4.1-25 3.5-24.2l-2.1-17.9c-.1-.4.4-.7.8-.5l12.1 7.9s4.5-1.7 9.2-1.9c2.8-.2 5.2 0 7.5.4z" transform="matrix(.2329 0 0 .2329 -4.652 -4.65)"/><path style="mix-blend-mode:normal;fill:none;fill-rule:evenodd;stroke-width:4;stroke-miterlimit:10;stroke-dasharray:none;stroke-dashoffset:0" stroke-linejoin="round" stroke-linecap="round" fill="none" d="M101.65 62.957c-4.7 3.8-11.9 3.9-11.9 3.9M100.35 74.157c-6.3.5-10.2-1.4-10.2-1.4M21.35 62.657s8.6 2.8 12.1 5.9M33.75 72.057c-4.3 1.7-11.7.6-11.7.6" transform="matrix(.2329 0 0 .2329 -4.652 -4.65)"/></g><g style="opacity:.75;stroke-width:4;stroke-miterlimit:10;stroke-dasharray:none"><path style="mix-blend-mode:normal;fill:none;fill-rule:evenodd;stroke-width:4;stroke-miterlimit:10;stroke-dasharray:none;stroke-dashoffset:0" fill="#bfbfbf" d="M68.45 32.457c.3-.2.8-.1.9.3l2.6 10.7s6.4 4.7 8.3 8c3.2 5.5 3.3 10 3.3 10s7.1 2.1 8.3 7.8c1.2 5.7-3.2 16.5-22 20.2-18.8 3.7-33.9-1.4-41-12.8-7.1-11.4 4.1-25 3.5-24.2l-2.1-17.9c-.1-.4.4-.7.8-.5l12.1 7.9s4.5-1.7 9.2-1.9c2.8-.2 5.2 0 7.5.4z" transform="matrix(.2329 0 0 .2329 -2.323 -2.321)"/><path style="mix-blend-mode:normal;fill:none;fill-rule:evenodd;stroke-width:4;stroke-miterlimit:10;stroke-dasharray:none;stroke-dashoffset:0" stroke-linejoin="round" stroke-linecap="round" fill="none" d="M101.65 62.957c-4.7 3.8-11.9 3.9-11.9 3.9M100.35 74.157c-6.3.5-10.2-1.4-10.2-1.4M21.35 62.657s8.6 2.8 12.1 5.9M33.75 72.057c-4.3 1.7-11.7.6-11.7.6" transform="matrix(.2329 0 0 .2329 -2.323 -2.321)"/></g><g style="stroke-width:4;stroke-miterlimit:10;stroke-dasharray:none"><path style="mix-blend-mode:normal;fill:#fff;fill-opacity:1;fill-rule:evenodd;stroke-width:4;stroke-miterlimit:10;stroke-dasharray:none;stroke-dashoffset:0" fill="#bfbfbf" d="M73.45 37.457c.3-.2.8-.1.9.3l2.6 10.7s6.4 4.7 8.3 8c3.2 5.5 3.3 10 3.3 10s7.1 2.1 8.3 7.8c1.2 5.7-3.2 16.5-22 20.2-18.8 3.7-33.9-1.4-41-12.8-7.1-11.4 4.1-25 3.5-24.2l-2.1-17.9c-.1-.4.4-.7.8-.5l12.1 7.9s4.5-1.7 9.2-1.9c2.8-.2 5.2 0 7.5.4z" transform="matrix(.2329 0 0 .2329 -1.159 -1.157)"/><path style="mix-blend-mode:normal;fill:none;fill-rule:evenodd;stroke-width:4;stroke-miterlimit:10;stroke-dasharray:none;stroke-dashoffset:0" stroke-linejoin="round" stroke-linecap="round" fill="none" d="M106.65 67.957c-4.7 3.8-11.9 3.9-11.9 3.9M105.35 79.157c-6.3.5-10.2-1.4-10.2-1.4M26.35 67.657s8.6 2.8 12.1 5.9M38.75 77.057c-4.3 1.7-11.7.6-11.7.6" transform="matrix(.2329 0 0 .2329 -1.159 -1.157)"/></g></g></svg>