<svg width="32" height="32" viewBox="0 0 32 32" fill="none" xmlns="http://www.w3.org/2000/svg">
<path d="M6.91438 26.6889H29.3611C29.6563 26.6889 29.8956 26.4496 29.8956 26.1545V10.1211C29.8956 9.82594 29.6563 9.58662 29.3611 9.58662H6.91438C6.61926 9.58662 6.37994 9.82594 6.37994 10.1211V26.1544C6.37994 26.4496 6.61926 26.6889 6.91438 26.6889Z" fill="#E4EAF8"/>
<path d="M6.91438 9.58663C6.61926 9.58663 6.37994 9.82594 6.37994 10.1211V25.62H26.6889C27.8696 25.62 28.8268 24.6629 28.8268 23.4822V9.58656H6.91438V9.58663Z" fill="#C7CFE2"/>
<path d="M26.1545 24.0167H1.56991C0.979538 24.0167 0.501038 23.5382 0.501038 22.9478V4.77662C0.501038 4.18625 0.979538 3.70775 1.56991 3.70775H26.1545C26.7448 3.70775 27.2234 4.18625 27.2234 4.77662V22.9478C27.2234 23.5382 26.7448 24.0167 26.1545 24.0167Z" fill="#E4EAF8"/>
<path d="M25.054 22.3799H2.67044C2.37632 22.3799 2.13782 22.1414 2.13782 21.8473V5.87712C2.13782 5.583 2.37632 5.3445 2.67044 5.3445H25.054C25.3481 5.3445 25.5866 5.583 25.5866 5.87712V21.8473C25.5866 22.1414 25.3481 22.3799 25.054 22.3799Z" fill="#4DD5FF"/>
<path d="M6.37992 13.3278C8.44609 13.3278 10.121 11.6528 10.121 9.58663C10.121 7.52046 8.44609 5.8455 6.37992 5.8455C4.31375 5.8455 2.63879 7.52046 2.63879 9.58663C2.63879 11.6528 4.31375 13.3278 6.37992 13.3278Z" fill="#8BE4FF"/>
<path d="M6.37994 11.7244C7.56062 11.7244 8.51775 10.7673 8.51775 9.58662C8.51775 8.40594 7.56062 7.44881 6.37994 7.44881C5.19926 7.44881 4.24213 8.40594 4.24213 9.58662C4.24213 10.7673 5.19926 11.7244 6.37994 11.7244Z" fill="white"/>
<path d="M14.0691 11.9447C13.6531 11.5287 12.9787 11.5287 12.5627 11.9447L2.28772 22.2198C2.38409 22.3161 2.51728 22.3758 2.66428 22.3758H17.5766V15.4522L14.0691 11.9447Z" fill="#81DEB6"/>
<path d="M25.5763 21.8469V12.7853L22.8654 10.0744C22.4491 9.65807 21.7741 9.65807 21.3577 10.0744L9.05219 22.3799H25.0432C25.3376 22.3799 25.5763 22.1413 25.5763 21.8469Z" fill="#B4E66E"/>
<path d="M27.7576 7.48224H27.7244V4.77662C27.7244 3.91093 27.0202 3.20668 26.1545 3.20668H1.56994C0.70425 3.20668 0 3.91093 0 4.77662V22.9478C0 23.8135 0.70425 24.5177 1.56994 24.5177H4.27556V24.5511C4.27556 24.8278 4.49988 25.0522 4.77663 25.0522C5.05338 25.0522 5.27769 24.8279 5.27769 24.5511V24.5177H26.1545C27.0202 24.5177 27.7244 23.8135 27.7244 22.9478V8.4843H27.7576C28.0343 8.4843 28.2587 8.25999 28.2587 7.98324C28.2587 7.70656 28.0343 7.48224 27.7576 7.48224ZM26.1545 23.5157H1.56994C1.25681 23.5157 1.00206 23.2609 1.00206 22.9478V4.77662C1.00206 4.46349 1.25681 4.20874 1.56994 4.20874H26.1545C26.4676 4.20874 26.7224 4.46349 26.7224 4.77662V22.9478C26.7223 23.2609 26.4676 23.5157 26.1545 23.5157Z" fill="black"/>
<path d="M23.8141 27.7913H22.7513C22.4746 27.7913 22.2502 28.0156 22.2502 28.2923C22.2502 28.569 22.4746 28.7934 22.7513 28.7934H23.8141C24.0907 28.7934 24.3151 28.5691 24.3151 28.2923C24.3151 28.0156 24.0908 27.7913 23.8141 27.7913Z" fill="black"/>
<path d="M27.0022 27.7913H25.9395C25.6628 27.7913 25.4384 28.0156 25.4384 28.2923C25.4384 28.569 25.6627 28.7934 25.9395 28.7934H27.0022C27.2789 28.7934 27.5033 28.5691 27.5033 28.2923C27.5033 28.0156 27.2789 27.7913 27.0022 27.7913Z" fill="black"/>
<path d="M5.2777 27.2234V26.6799C5.2777 26.4032 5.05339 26.1789 4.77664 26.1789C4.49989 26.1789 4.27557 26.4032 4.27557 26.6799V27.2236C4.27557 27.4786 4.33839 27.7322 4.45701 27.9566C4.54689 28.1266 4.72064 28.2236 4.90039 28.2236C4.97932 28.2236 5.05945 28.2049 5.13414 28.1654C5.37876 28.0361 5.47226 27.7329 5.34289 27.4882C5.29964 27.4062 5.2777 27.3172 5.2777 27.2234Z" fill="black"/>
<path d="M20.6259 27.7913H19.5631C19.2864 27.7913 19.0621 28.0156 19.0621 28.2923C19.0621 28.569 19.2864 28.7934 19.5631 28.7934H20.6259C20.9026 28.7934 21.1269 28.5691 21.1269 28.2923C21.1269 28.0156 20.9026 27.7913 20.6259 27.7913Z" fill="black"/>
<path d="M31.4989 9.51262C31.2222 9.51262 30.9979 9.73693 30.9979 10.0137V11.0764C30.9979 11.3531 31.2222 11.5775 31.4989 11.5775C31.7756 11.5775 32 11.3532 32 11.0764V10.0137C32 9.73693 31.7757 9.51262 31.4989 9.51262Z" fill="black"/>
<path d="M11.0614 27.7913H9.99862C9.72193 27.7913 9.49756 28.0156 9.49756 28.2923C9.49756 28.569 9.72187 28.7934 9.99862 28.7934H11.0614C11.3381 28.7934 11.5624 28.5691 11.5624 28.2923C11.5624 28.0156 11.3381 27.7913 11.0614 27.7913Z" fill="black"/>
<path d="M14.2495 27.7913H13.1868C12.9101 27.7913 12.6857 28.0156 12.6857 28.2923C12.6857 28.569 12.91 28.7934 13.1868 28.7934H14.2495C14.5262 28.7934 14.7506 28.5691 14.7506 28.2923C14.7506 28.0156 14.5262 27.7913 14.2495 27.7913Z" fill="black"/>
<path d="M17.4378 27.7913H16.375C16.0983 27.7913 15.874 28.0156 15.874 28.2923C15.874 28.569 16.0983 28.7934 16.375 28.7934H17.4378C17.7145 28.7934 17.9388 28.5691 17.9388 28.2923C17.9388 28.0156 17.7145 27.7913 17.4378 27.7913Z" fill="black"/>
<path d="M31.4989 19.0771C31.2222 19.0771 30.9979 19.3014 30.9979 19.5782V20.6409C30.9979 20.9176 31.2222 21.142 31.4989 21.142C31.7756 21.142 32 20.9177 32 20.6409V19.5782C32 19.3015 31.7757 19.0771 31.4989 19.0771Z" fill="black"/>
<path d="M31.4989 25.4535C31.2222 25.4535 30.9979 25.6778 30.9979 25.9546V27.0173C30.9979 27.294 31.2222 27.5184 31.4989 27.5184C31.7756 27.5184 32 27.2941 32 27.0173V25.9546C32 25.6778 31.7757 25.4535 31.4989 25.4535Z" fill="black"/>
<path d="M31.4989 22.2653C31.2222 22.2653 30.9979 22.4896 30.9979 22.7664V23.8291C30.9979 24.1058 31.2222 24.3302 31.4989 24.3302C31.7756 24.3302 32 24.1059 32 23.8291V22.7664C32 22.4896 31.7757 22.2653 31.4989 22.2653Z" fill="black"/>
<path d="M7.8732 27.7913H6.81045C6.53376 27.7913 6.30939 28.0156 6.30939 28.2923C6.30939 28.569 6.5337 28.7934 6.81045 28.7934H7.8732C8.14989 28.7934 8.37426 28.5691 8.37426 28.2923C8.37426 28.0156 8.14995 27.7913 7.8732 27.7913Z" fill="black"/>
<path d="M31.3696 8.33776C31.4982 8.09269 31.4037 7.78982 31.1586 7.66126C30.9353 7.54413 30.6834 7.48219 30.4301 7.48219H29.8831C29.6064 7.48219 29.382 7.70651 29.382 7.98326C29.382 8.25994 29.6063 8.48432 29.8831 8.48432H30.4301C30.5232 8.48432 30.6117 8.50594 30.6931 8.54869C30.7675 8.58763 30.847 8.60613 30.9255 8.60613C31.1058 8.60613 31.2801 8.50851 31.3696 8.33776Z" fill="black"/>
<path d="M30.1905 27.7913H29.1277C28.851 27.7913 28.6266 28.0156 28.6266 28.2923C28.6266 28.569 28.851 28.7934 29.1277 28.7934H30.1905C30.4671 28.7934 30.6915 28.5691 30.6915 28.2923C30.6915 28.0156 30.4671 27.7913 30.1905 27.7913Z" fill="black"/>
<path d="M31.4989 12.7008C31.2222 12.7008 30.9979 12.9251 30.9979 13.2019V14.2646C30.9979 14.5412 31.2222 14.7656 31.4989 14.7656C31.7756 14.7656 32 14.5413 32 14.2646V13.2019C32 12.9251 31.7757 12.7008 31.4989 12.7008Z" fill="black"/>
<path d="M31.4989 15.8889C31.2222 15.8889 30.9979 16.1132 30.9979 16.39V17.4527C30.9979 17.7294 31.2222 17.9538 31.4989 17.9538C31.7756 17.9538 32 17.7295 32 17.4527V16.39C32 16.1133 31.7757 15.8889 31.4989 15.8889Z" fill="black"/>
<path d="M23.2562 9.72094C22.9597 9.42444 22.5655 9.26112 22.1461 9.26112C21.7267 9.26112 21.3325 9.42444 21.036 9.72094L11.3701 19.3869C11.1744 19.5826 11.1744 19.8997 11.3701 20.0954C11.5658 20.2911 11.883 20.2911 12.0787 20.0954L21.7446 10.4296C21.8519 10.3223 21.9945 10.2632 22.1461 10.2632C22.2977 10.2632 22.4404 10.3222 22.5476 10.4296L24.5845 12.4665V21.3779H3.84842L12.9262 12.3001C13.0335 12.1928 13.1761 12.1337 13.3277 12.1337C13.4794 12.1337 13.622 12.1927 13.7292 12.3001L15.1112 13.682C15.3069 13.8777 15.6242 13.8777 15.8198 13.682C16.0155 13.4863 16.0155 13.1691 15.8198 12.9734L14.4378 11.5915C14.1413 11.295 13.7471 11.1317 13.3277 11.1317C12.9082 11.1317 12.514 11.295 12.2175 11.5915L2.28454 21.5246C2.14123 21.6679 2.09835 21.8834 2.17592 22.0706C2.25348 22.2578 2.43617 22.3799 2.63879 22.3799H25.0856C25.3623 22.3799 25.5867 22.1556 25.5867 21.8789V12.2589C25.5867 12.126 25.5339 11.9986 25.4399 11.9046L23.2562 9.72094Z" fill="black"/>
<path d="M6.37996 12.2255C7.83502 12.2255 9.01877 11.0417 9.01877 9.58669C9.01877 8.13169 7.83496 6.94788 6.37996 6.94788C4.92496 6.94788 3.74115 8.13169 3.74115 9.58669C3.74115 11.0417 4.92496 12.2255 6.37996 12.2255ZM6.37996 7.94988C7.28246 7.94988 8.01671 8.68413 8.01671 9.58663C8.01671 10.4891 7.28246 11.2234 6.37996 11.2234C5.47746 11.2234 4.74321 10.4891 4.74321 9.58663C4.74321 8.68419 5.47752 7.94988 6.37996 7.94988Z" fill="black"/>
</svg>
