<svg xmlns="http://www.w3.org/2000/svg" xmlns:xlink="http://www.w3.org/1999/xlink" width="168" height="172" viewBox="0 0 168 172"><defs><style>.cls-1{opacity:0.3;}.cls-10,.cls-2{opacity:0.1;}.cls-3{opacity:0.15;}.cls-10,.cls-4{fill:#231f20;}.cls-5{fill:#0fbd8c;stroke:#0b8e69;}.cls-5,.cls-8{stroke-miterlimit:10;}.cls-6{fill:#fff;}.cls-18,.cls-6,.cls-8{stroke:#7c87a5;}.cls-13,.cls-17,.cls-18,.cls-6{stroke-linecap:round;stroke-linejoin:round;}.cls-7{fill:url(#linear-gradient);}.cls-8{fill:#ffab19;}.cls-9{fill:url(#linear-gradient-2);}.cls-11{fill:url(#linear-gradient-3);}.cls-12{fill:url(#linear-gradient-4);}.cls-13,.cls-15{fill:#ff8c1a;}.cls-13{stroke:#ff8c1a;}.cls-14{opacity:0.5;}.cls-16,.cls-18{fill:#e6e7e8;}.cls-17{fill:none;stroke:#231f20;stroke-width:2px;}</style><linearGradient id="linear-gradient" x1="84" y1="163.95" x2="84" y2="11.95" gradientUnits="userSpaceOnUse"><stop offset="0" stop-color="#231f20"/><stop offset="0.33" stop-color="#231f20" stop-opacity="0.88"/><stop offset="0.68" stop-color="#231f20" stop-opacity="0.51"/><stop offset="1" stop-color="#231f20" stop-opacity="0"/></linearGradient><linearGradient id="linear-gradient-2" x1="84" y1="54.95" x2="84" y2="120.95" xlink:href="#linear-gradient"/><linearGradient id="linear-gradient-3" x1="2764.05" y1="-632" x2="2796.05" y2="-632" gradientTransform="translate(716 2868) rotate(-90)" gradientUnits="userSpaceOnUse"><stop offset="0" stop-color="#ffab19"/><stop offset="1" stop-color="#ffab19" stop-opacity="0"/></linearGradient><linearGradient id="linear-gradient-4" x1="84" y1="59.95" x2="84" y2="115.95" gradientUnits="userSpaceOnUse"><stop offset="0" stop-color="#231f20"/><stop offset="0.21" stop-color="#231f20" stop-opacity="0.88"/><stop offset="0.43" stop-color="#231f20" stop-opacity="0.51"/><stop offset="0.63" stop-color="#231f20" stop-opacity="0"/></linearGradient></defs><title>SB</title><g id="Bit"><g class="cls-3"><path d="M84,166a78,78,0,0,1-30-150,7,7,0,0,1,4.79-6c1.49-.49,2.87-.89,4.23-1.24a4.39,4.39,0,0,1,1.13-.15A3.79,3.79,0,0,1,66,9,4.11,4.11,0,0,1,68.54,7.4c1.44-.28,2.84-.49,3.55-.59A4.27,4.27,0,0,1,75,7.46,4,4,0,0,1,77.72,6.2c1.07-.09,2.2-.15,3.46-.2h.15A4.27,4.27,0,0,1,84,7a4.27,4.27,0,0,1,2.67-1h.16c1.25,0,2.38.11,3.46.2A4.08,4.08,0,0,1,93,7.47a4.05,4.05,0,0,1,2.31-.7,3.9,3.9,0,0,1,.59,0c1.28.19,2.43.38,3.55.6A4.07,4.07,0,0,1,102,9a1.91,1.91,0,0,1,1.44-.62,2.05,2.05,0,0,1,.49.06c1.75.44,3.52.94,5.25,1.51a7,7,0,0,1,4.79,6A78,78,0,0,1,84,166Z"/><path class="cls-4" d="M86.67,8h.08c1.13,0,2.26.1,3.38.19a2.14,2.14,0,0,1,1.42.63A2,2,0,0,0,93,9.46a2,2,0,0,0,1.13-.35,2.17,2.17,0,0,1,1.19-.34l.32,0c1.16.17,2.3.36,3.44.58a2.09,2.09,0,0,1,1.3.77A2,2,0,0,0,102,11a2,2,0,0,0,1.44-.62h0q2.6.64,5.11,1.47A5,5,0,0,1,112,16.56v.72a76,76,0,1,1-56,0v-.72a5,5,0,0,1,3.44-4.76c1.35-.44,2.72-.85,4.11-1.21a2.72,2.72,0,0,1,.63-.08,1.88,1.88,0,0,1,.87.2A2,2,0,0,0,66,11a2,2,0,0,0,1.62-.83,2.07,2.07,0,0,1,1.31-.76c1.28-.25,2.58-.45,3.44-.57a1.94,1.94,0,0,1,.34,0,2.07,2.07,0,0,1,1.16.34A2,2,0,0,0,75,9.45a2,2,0,0,0,1.47-.64,2.13,2.13,0,0,1,1.42-.62C79,8.1,80.12,8,81.25,8h.08a2.27,2.27,0,0,1,1.41.5,2,2,0,0,0,2.52,0A2.27,2.27,0,0,1,86.67,8m0-4A6.28,6.28,0,0,0,84,4.6,6.35,6.35,0,0,0,81.33,4H81.1c-1.27,0-2.44.11-3.55.2a6.16,6.16,0,0,0-2.82.89,6.2,6.2,0,0,0-2-.33,7.22,7.22,0,0,0-.92.06c-.72.11-2.15.32-3.63.61a6.24,6.24,0,0,0-2.69,1.21,6.14,6.14,0,0,0-1.29-.14,6.53,6.53,0,0,0-1.64.21c-1.38.36-2.8.78-4.34,1.28a9,9,0,0,0-6,6.51,80,80,0,1,0,63.54,0,9,9,0,0,0-6-6.51c-1.77-.58-3.58-1.1-5.39-1.55a3.83,3.83,0,0,0-1-.12,4.23,4.23,0,0,0-1.13.16,6.45,6.45,0,0,0-2.46-1c-1.17-.23-2.35-.43-3.63-.62a7.41,7.41,0,0,0-.9-.06,6.39,6.39,0,0,0-2,.34,6.43,6.43,0,0,0-2.85-.91c-1.09-.08-2.26-.15-3.54-.2Z"/></g><path class="cls-5" d="M112,16.56v5.16A2.28,2.28,0,0,1,109.72,24H58.28A2.28,2.28,0,0,1,56,21.72V16.56a5,5,0,0,1,3.44-4.76c1.35-.44,2.72-.84,4.11-1.21a2.09,2.09,0,0,1,1.5.12A1.92,1.92,0,0,0,66,11a2,2,0,0,0,1.62-.82,2,2,0,0,1,1.31-.77c1.28-.25,2.58-.45,3.44-.57a2.14,2.14,0,0,1,1.5.32,2,2,0,0,0,2.58-.29,2.14,2.14,0,0,1,1.42-.63C79,8.1,80.12,8,81.25,8a2.24,2.24,0,0,1,1.49.5,2,2,0,0,0,2.52,0A2.24,2.24,0,0,1,86.75,8c1.13,0,2.26.1,3.38.19a2.14,2.14,0,0,1,1.42.63A2,2,0,0,0,93,9.46a2.06,2.06,0,0,0,1.13-.34,2.17,2.17,0,0,1,1.51-.33c1.16.17,2.3.36,3.44.58a2.09,2.09,0,0,1,1.3.77A2,2,0,0,0,102,11a2,2,0,0,0,1.44-.62h0c1.73.43,3.43.93,5.11,1.47A5,5,0,0,1,112,16.56Z"/><circle class="cls-6" cx="84" cy="87.95" r="76"/><g class="cls-2"><path class="cls-7" d="M84,20A68,68,0,1,1,16,88,68.08,68.08,0,0,1,84,20m0-8a76,76,0,1,0,76,76A76,76,0,0,0,84,12Z"/></g><circle class="cls-8" cx="84" cy="87.95" r="28"/><g class="cls-2"><path class="cls-9" d="M84,60A28,28,0,1,1,56,88,28,28,0,0,1,84,60m0-5a33,33,0,1,0,33,33A33,33,0,0,0,84,55Z"/></g><circle class="cls-10" cx="84" cy="87.95" r="20"/><circle class="cls-11" cx="84" cy="87.95" r="16"/><g class="cls-2"><path class="cls-12" d="M84,63A25,25,0,1,1,59,88,25,25,0,0,1,84,63m0-3a28,28,0,1,0,28,28A28,28,0,0,0,84,60Z"/></g><rect class="cls-13" x="20" y="83.95" width="8" height="4" rx="2" ry="2"/><g class="cls-14"><path class="cls-15" d="M26,84a2,2,0,0,1,0,4H22a2,2,0,0,1,0-4h4m0-4H22a6,6,0,0,0,0,12h4a6,6,0,0,0,0-12Z"/></g><path class="cls-16" d="M116,59.76a2,2,0,0,1-1.46-.63q-.42-.45-.84-.87a42,42,0,0,0-59.4,0l-.84.87a2,2,0,0,1-2.92-2.73c.3-.33.62-.66.94-1a46,46,0,0,1,65.05,0c.31.31.63.64.93,1a2,2,0,0,1-.09,2.82A2,2,0,0,1,116,59.76Z"/><g class="cls-2"><path class="cls-17" d="M116,59.76a2,2,0,0,1-1.46-.63q-.42-.45-.84-.87a42,42,0,0,0-59.4,0l-.84.87a2,2,0,0,1-2.92-2.73c.3-.33.62-.66.94-1a46,46,0,0,1,65.05,0c.31.31.63.64.93,1a2,2,0,0,1-.09,2.82A2,2,0,0,1,116,59.76Z"/></g><path class="cls-18" d="M83.44,24.32a.72.72,0,0,1,1.26,0l1.89,3.27,1.89,3.27A.73.73,0,0,1,87.85,32H80.29a.73.73,0,0,1-.63-1.09l1.89-3.27Z"/><g class="cls-2"><path class="cls-4" d="M84.07,24a.71.71,0,0,1,.63.37l1.89,3.27,1.89,3.27A.73.73,0,0,1,87.85,32H80.29a.73.73,0,0,1-.63-1.09l1.89-3.27,1.89-3.27a.72.72,0,0,1,.63-.37m0-2a2.71,2.71,0,0,0-2.36,1.37l-1.89,3.27-1.89,3.27A2.73,2.73,0,0,0,80.29,34h7.56a2.73,2.73,0,0,0,2.36-4.09l-1.89-3.27-1.89-3.27A2.71,2.71,0,0,0,84.07,22Z"/></g><rect class="cls-18" x="140" y="83.95" width="8" height="4" rx="2" ry="2"/><g class="cls-2"><path class="cls-4" d="M146,84a2,2,0,0,1,0,4h-4a2,2,0,0,1,0-4h4m0-2h-4a4,4,0,0,0,0,8h4a4,4,0,0,0,0-8Z"/></g><rect class="cls-18" x="80" y="143.95" width="8" height="4" rx="2" ry="2" transform="translate(229.95 61.95) rotate(90)"/><g class="cls-2"><path class="cls-4" d="M84,142a2,2,0,0,1,2,2v4a2,2,0,0,1-4,0v-4a2,2,0,0,1,2-2m0-2a4,4,0,0,0-4,4v4a4,4,0,0,0,8,0v-4a4,4,0,0,0-4-4Z"/></g></g></svg>