<?xml version="1.0" encoding="UTF-8" standalone="no"?>
<svg width="20px" height="20px" viewBox="0 0 20 20" version="1.1" xmlns="http://www.w3.org/2000/svg" xmlns:xlink="http://www.w3.org/1999/xlink">
    <!-- Generator: Sketch 47.1 (45422) - http://www.bohemiancoding.com/sketch -->
    <title>Small Stage (inactive)</title>
    <desc>Created with Sketch.</desc>
    <defs></defs>
    <g id="Page-1" stroke="none" stroke-width="1" fill="none" fill-rule="evenodd" stroke-linecap="round" stroke-linejoin="round">
        <g id="Small-Stage-(inactive)" stroke="#4C97FF">
            <g id="small-stage-(inactive)" transform="translate(3.000000, 4.000000)">
                <path d="M1,0 L10,0 L10,12 L1,12 L1,12 C0.44771525,12 6.76353751e-17,11.5522847 0,11 L0,1 L0,1 C-6.76353751e-17,0.44771525 0.44771525,1.01453063e-16 1,0 Z" id="Rectangle"></path>
                <path d="M10,0 L13,0 L13,0 C13.5522847,-1.01453063e-16 14,0.44771525 14,1 L14,3 L10,3 L10,0 Z" id="Rectangle" fill="#4C97FF"></path>
                <path d="M10,3 L14,3 L14,11 L14,11 C14,11.5522847 13.5522847,12 13,12 L10,12 L10,3 Z" id="Rectangle-Copy"></path>
            </g>
        </g>
    </g>
</svg>