<?xml version="1.0" standalone="no"?>
<!DOCTYPE svg PUBLIC "-//W3C//DTD SVG 1.1//EN" "http://www.w3.org/Graphics/SVG/1.1/DTD/svg11.dtd"><svg t="1676299999722"
    class="icon" viewBox="0 0 1024 1024" version="1.1" xmlns="http://www.w3.org/2000/svg" p-id="1409"
    xmlns:xlink="http://www.w3.org/1999/xlink" width="20" height="20">
    <path
        d="M792.362667 214.464A153.216 153.216 0 0 0 685.376 170.666667h-1.002667c-39.893333 0-78.912 15.893333-107.008 43.690666l-114.986666 113.216a31.616 31.616 0 0 0-0.106667 45.290667 32.874667 32.874667 0 0 0 45.994667 0l115.2-113.194667A87.104 87.104 0 0 1 684.864 234.666667c23.210667 0 45.013333 8.896 61.397333 25.002666a84.117333 84.117333 0 0 1 25.386667 60.394667 84.117333 84.117333 0 0 1-25.386667 60.394667l-136.405333 134.208a87.104 87.104 0 0 1-61.397333 25.002666 87.104 87.104 0 0 1-61.397334-25.002666 32.341333 32.341333 0 0 0-23.104-9.386667c-17.792 0-32.384 14.293333-32.490666 32 0 8.490667 3.413333 16.576 9.493333 22.592a153.216 153.216 0 0 0 107.008 43.797333h0.896c39.893333 0 78.912-15.893333 107.008-43.712l136.384-134.186666a148.266667 148.266667 0 0 0 44.522667-105.706667 148.352 148.352 0 0 0-44.416-105.6z"
        fill="#FFFFFF" p-id="1413" stroke="#FFFFFF" stroke-width="20"></path>
    <path
        d="M522.773333 624.362667c-8.597333 0-16.896 3.413333-22.997333 9.386666L384.64 747.093333a87.104 87.104 0 0 1-61.397333 25.002667 87.445333 87.445333 0 0 1-61.397334-24.917333 84.629333 84.629333 0 0 1 0-120.789334l136.405334-134.186666a87.104 87.104 0 0 1 61.397333-25.024c23.189333 0 45.013333 8.917333 61.397333 24.917333 6.101333 6.101333 14.293333 9.386667 23.104 9.386667 8.597333 0 16.789333-3.413333 22.890667-9.386667a31.616 31.616 0 0 0 0.106667-45.290667 153.216 153.216 0 0 0-107.008-43.818666h-0.896c-39.893333 0-78.890667 15.893333-107.008 43.712l-136.384 134.293333a147.114667 147.114667 0 0 0-44.501334 105.685333c0 40.021333 15.786667 77.504 44.394667 105.6a153.216 153.216 0 0 0 107.008 43.818667h0.896c39.893333 0 78.890667-15.914667 106.986667-43.712l115.2-113.194667a31.701333 31.701333 0 0 0-0.085334-45.290666 32.554667 32.554667 0 0 0-22.997333-9.514667z"
        fill="#FFFFFF" p-id="1414" stroke="#FFFFFF" stroke-width="20"></path>
</svg>
