<svg t="1676957205075" class="icon" viewBox="0 0 1024 1024" version="1.1" xmlns="http://www.w3.org/2000/svg" p-id="8838"
    width="20" height="20">
    <path
        d="M143.36 184.32h737.28a81.92 81.92 0 0 1 81.92 81.92v327.68c0 135.72096-110.03904 245.76-245.76 245.76H307.2C171.47904 839.68 61.44 729.64096 61.44 593.92V266.24a81.92 81.92 0 0 1 81.92-81.92z m93.92128 254.23872L310.72256 512l-73.44128 73.44128a40.96 40.96 0 0 0 57.91744 57.91744l102.4-102.4a40.96 40.96 0 0 0 0-57.91744l-102.4-102.4a40.96 40.96 0 0 0-57.91744 57.91744zM593.92 573.44h-122.88a40.96 40.96 0 1 0 0 81.92h122.88a40.96 40.96 0 1 0 0-81.92z"
        p-id="8839"
        fill="#FFFFFF"></path>
</svg>
