<svg t="1677044969841" class="icon" viewBox="0 0 1024 1024" version="1.1" xmlns="http://www.w3.org/2000/svg" p-id="11755" width="20" height="20"><path d="M800 832h-256c12.8-12.8 25.6-19.2 32-38.4l64-108.8 128-224s0-6.4 6.4-6.4c0-6.4 6.4-6.4 6.4-12.8v-6.4c0-6.4 0-12.8 6.4-12.8v-12.8-12.8c0-19.2-6.4-32-12.8-44.8 0-6.4-6.4-12.8-6.4-12.8s0-6.4-6.4-6.4c-6.4-6.4-6.4-12.8-12.8-12.8l-6.4-6.4c-6.4-6.4-12.8-12.8-19.2-12.8L556.8 192c-6.4-6.4-12.8-6.4-19.2-12.8h-6.4c-6.4 0-12.8 0-12.8-6.4h-25.6c-19.2 0-32 6.4-44.8 12.8-12.8 6.4-19.2 6.4-25.6 12.8 0 0-6.4 0-6.4 6.4-6.4 0-6.4 6.4-12.8 6.4 0 0-6.4 0-6.4 6.4-6.4 6.4-6.4 12.8-12.8 19.2L192 569.6c-19.2 32-19.2 64-12.8 96 6.4 32 32 57.6 57.6 76.8L396.8 832c-6.4 12.8-12.8 19.2-12.8 32 0 19.2 12.8 32 32 32h384c19.2 0 32-12.8 32-32s-12.8-32-32-32z m-556.8-179.2c-6.4-19.2 0-32 6.4-51.2l64-108.8 275.2 160-64 108.8c-19.2 32-57.6 38.4-89.6 25.6l-166.4-96c-12.8-6.4-25.6-25.6-25.6-38.4z" p-id="11756" fill="#ffffff"></path></svg>
