<?xml version="1.0" standalone="no"?>
<!DOCTYPE svg PUBLIC "-//W3C//DTD SVG 1.1//EN" "http://www.w3.org/Graphics/SVG/1.1/DTD/svg11.dtd"><svg t="1676300004277"
    class="icon" viewBox="0 0 1024 1024" version="1.1" xmlns="http://www.w3.org/2000/svg" p-id="1565"
    xmlns:xlink="http://www.w3.org/1999/xlink" width="20" height="20">
    <path
        d="M744.981333 137.045333a133.930667 133.930667 0 0 0-104.469333 3.285334l-0.832 0.384a141.44 141.44 0 0 0-72.298667 78.250666l-53.333333 140.821334c-2.858667 7.466667-2.730667 15.829333 0.405333 23.125333a28.736 28.736 0 0 0 38.613334 15.018667c7.082667-3.285333 12.693333-9.386667 15.530666-16.853334l53.525334-140.885333a80.426667 80.426667 0 0 1 41.514666-44.842667 76.16 76.16 0 0 1 59.904-2.005333 77.269333 77.269333 0 0 1 43.178667 42.048c8.384 19.541333 8.853333 41.386667 1.237333 61.44L704.64 463.786667a80.426667 80.426667 0 0 1-41.514667 44.842666 76.16 76.16 0 0 1-59.904 2.005334 28.266667 28.266667 0 0 0-22.528 0.768c-14.72 6.784-21.504 24.597333-15.082666 39.808 3.136 7.253333 8.917333 12.906667 16.170666 15.722666a133.930667 133.930667 0 0 0 104.469334-3.285333l0.746666-0.341333a141.44 141.44 0 0 0 72.32-78.250667l63.296-166.976a143.808 143.808 0 0 0-2.133333-107.52c-14.357333-33.706667-41.941333-60.586667-75.498667-73.536z"
        fill="#FFFFFF" p-id="1568" stroke="#FFFFFF" stroke-width="20"></path>
    <path
        d="M445.909333 602.602667c-7.253333 3.050667-13.098667 8.917333-16.256 16.213333l-59.349333 138.112a81.792 81.792 0 0 1-43.434667 43.242667 77.376 77.376 0 0 1-60.010666 0.426666c-39.530667-16.554667-57.536-63.061333-40.106667-103.637333L297.130667 533.333333a81.792 81.792 0 0 1 43.413333-43.242666 77.376 77.376 0 0 1 60.010667-0.426667c7.168 3.050667 15.168 2.986667 22.592-0.149333 7.253333-3.050667 13.013333-8.896 16.170666-16.213334 3.136-7.296 3.370667-15.573333 0.554667-22.869333a28.352 28.352 0 0 0-15.509333-16.021333c-32.917333-13.866667-71.082667-13.76-104.704 0.405333l-0.768 0.32a143.786667 143.786667 0 0 0-75.626667 75.498667l-70.336 163.669333a139.946667 139.946667 0 0 0-2.410667 106.517333 131.712 131.712 0 0 0 72.469334 74.837334c32.917333 13.866667 71.082667 13.76 104.704-0.405334l0.768-0.32a143.786667 143.786667 0 0 0 75.648-75.498666l59.477333-138.026667c6.549333-15.253333-0.32-32.725333-15.146667-38.848a28.8 28.8 0 0 0-22.528 0z"
        fill="#FFFFFF" p-id="1570" stroke="#FFFFFF" stroke-width="20"></path>
</svg>
