<svg width="50" height="50" viewBox="-2 -2 48 48" xmlns="http://www.w3.org/2000/svg"><circle cx="22" cy="22" r="23.5" fill="#4c97ff" opacity=".25"/><circle cx="22" cy="22" r="18" fill="#4c97ff"/><path d="M25.404 20.111a3.66 3.66 0 0 1 .897 3.069c-.193 1.305-1.158 2.551-2.505 3.068h-.008a.901.901 0 0 0-.56 1.051.909.909 0 0 0 1.084.678c2.015-.466 3.775-2.093 4.41-4.196a6.495 6.495 0 0 0 .128-3.272 6.518 6.518 0 0 0-1.236-2.61l.846-.848A.618.618 0 0 0 28.02 16h-4.037c-.34 0-.619.28-.619.619v4.043c0 .551.661.822 1.05.44zm-6.808 3.778a3.662 3.662 0 0 1-.897-3.069c.194-1.305 1.159-2.552 2.505-3.068h.008a.902.902 0 0 0 .559-1.051.908.908 0 0 0-1.083-.678c-2.015.466-3.775 2.093-4.41 4.196a6.48 6.48 0 0 0-.127 3.27 6.51 6.51 0 0 0 1.236 2.611l-.847.848c-.38.39-.11 1.052.44 1.052h4.038c.338 0 .618-.28.618-.62v-4.042a.617.617 0 0 0-1.05-.44z" fill="#fff"/></svg>