<svg xmlns="http://www.w3.org/2000/svg" id="Layer_1" viewBox="0 0 66.1 24.7"><style>.st0{fill:#fff}.st1{fill:#f9a83a}</style><switch><g><g><g><path d="M60.2 24.1c-.8.1-1.3.1-1.5.2-.4.2-1.3.4-2.4.4-1.4 0-2.7-.5-3.8-1.3h-.8c-.3 0-.5 0-.8-.1-1.1.4-2.1.4-2.7.4H48c-1.4.1-2.8-.2-4-.8-.6.2-1.1.3-1.7.3l-3.7.1c-1.7 0-3.2-.6-4.4-1.7-.5 0-1-.1-1.4-.2-.6.7-1.4 1.3-2.4 1.8-1.9.9-4 1-6 .2-.2-.1-.5-.2-.7-.3l-2.3.3h-.7c-.3.1-.5.3-.7.4-1.5.7-2.9.7-3.5.7H16c-1.7 0-3.4-.5-4.7-1.4-.4.1-.9.2-1.3.2-.9.6-2 1-3.2 1.1h-.4c-3.3 0-6-2.5-6.3-5.8v-.1c0-.5-.1-1.6 0-2.8 0-.6.1-1.5.1-1.7 0-.8.2-1.6.5-2.4-.2-.8-.1-1.6 0-2.4v-.3c.1-.7.3-2.1 1-3.5C3 3 5.4 1.5 8.1 1.5 9 1 9.9.8 10.9.8h.3c2 .1 3.8 1.1 4.9 2.7.9-.8 2-1.3 3.2-1.5 2.4-.3 4.4-.4 6.1-.1.9-.8 2.1-1.4 3.3-1.5l2.6-.4h.8c1.5 0 3 .6 4.2 1.6h.2l3.8-.1c1.6 0 3-.1 3.3-.1h.5c1.4 0 2.9.5 4 1.4 1.1-.8 2.4-1.2 3.8-1.2h1.3c1-.6 2.1-1 3.3-1l3.2-.1h.1c3.4 0 6.2 2.8 6.3 6.2 0 1.6-.5 3-1.5 4.2v2.9c.9 1 1.4 2.3 1.5 3.7.2 3.4-2.4 6.3-5.9 6.6z" class="st0"/></g><path d="M60 20.5c-1.3.1-2.1.2-2.3.3l-.1.1c-.3.1-.7.3-1.2.3-.6 0-1.3-.2-1.8-.7-.2-.2-.4-.4-.5-.6h-2.3c-.4 0-.8-.1-1.1-.3-.1.1-.3.1-.4.2-.8.4-1.5.4-2 .4h-.5c-1.5 0-2.7-.5-3.5-1.4-.5.5-1.2.8-1.9.8l-3.7.1c-1.3 0-2.5-1-2.7-2.2-.5.3-1 .5-1.6.5-.6 0-1.2-.2-1.7-.5-.1-.1-.2-.2-.3-.2-.3.2-.7.2-1.1.2H31c-.4 1.2-1.1 2-2.2 2.5-.5.2-1.1.4-1.6.4s-1.1-.1-1.6-.3c-.5-.2-.9-.5-1.2-.8-.2.1-.4.1-.6.2l-2.9.4h-.4c-.3 0-.5 0-.8-.1-.4.4-.9.6-1.3.8-.8.4-1.5.4-2 .4h-.5c-1.8 0-3.2-.8-4-1.9-.8.5-1.8.8-2.7.8h-.6c0 .1-.1.1-.1.2-.5.5-1.2.9-1.9.9h-.2c-1.4 0-2.6-1.1-2.7-2.6v-.1c0-.5-.1-1.4 0-2.4 0-.7.1-1.8.1-1.8 0-.7.3-1.3.7-1.8-.4-.8-.5-1.7-.3-2.7v-.2c.1-.6.2-1.5.6-2.4.7-1.3 2-2 3.5-2H9c.5-.4 1.1-.7 1.8-.7 1.5 0 2.7 1.3 2.7 2.8v1.1c.5-.2 1.1-.3 1.7-.3.3 0 .5 0 .8.1.4-.5 1-.8 1.6-.9.1-.2.2-.3.3-.5.4-.6 1.1-1 1.8-1.1.6-.1 1.8-.2 3.2-.2 1.6 0 2.9.2 3.9.7.3-1.1 1.1-1.9 2.3-2.1l2.6-.4h.4c.8 0 1.5.3 2 .9.2.2.5.6.6.9l.1.3c.5-.3 1-.5 1.6-.5l3.9-.1c1.9 0 3.6-.1 3.6-.2h.2c.7 0 1.5.3 2 .8.4.4.7.9.8 1.5h.2c.3 0 .5 0 .8.1.4-.5 1-.8 1.6-.9.5-.7 1.4-1.3 2.4-1.3h2.6c.5-.6 1.2-1 2.1-1h3.2c1.5 0 2.7 1.2 2.8 2.7 0 1.1-.6 2.1-1.5 2.5v6.1c.8.4 1.4 1.3 1.5 2.3.1 1.5-1.1 2.8-2.6 2.9z" class="st1"/><path d="M32.3 8.5l-.7 3.6 2-.3z" class="st1"/><path d="M8.4 12c-.7-.1-1.1-.6-.9-2v-.2c.2-1.2.3-1.5.9-1.5.2 0 .4.1.6.3.2.2.6.5.8 1.1.2.4.2.7.3 1v.4c0 .2.2.4.5.5.3.1.6-.2.7-.5 0 0 .2-3.8.2-3.9 0-.3-.3-.6-.6-.6s-.6.3-.6.6v1.1c-.5-.5-1.1-1-1.8-1C6.6 7 6.4 8.7 6.3 9.7v.2c-.2 1.9.4 3.1 1.9 3.4 1.6.3 2.7.6 2.7 1.6 0 .4-.2.8-.6 1.1-.4.4-1 .5-1.6.4-.2 0-.3-.1-.5-.1-.2-.1-.8-.4-1-.8-.1-.4-.2-.9-.2-1.2v-.2c0-.3-.3-.6-.6-.6s-.6.3-.6.6c0 0 0 1.2-.1 1.9-.1 1.2 0 2.1 0 2.2 0 .3.3.6.6.6s.6-.3.6-.6v-1.1c.4.3 1 .6 1.7.7.9.2 1.8-.1 2.5-.7.6-.5 1-1.3 1-2 0-2.5-2.5-2.9-3.7-3.1M25.2 10.3c-.1.1-.2.2-.4.3-.1.1-.4.2-.5.2l-.3.1c-.4.2-1 .3-1.6.4V8.5c1.6 0 3 .1 3.3.6v.2c0 .2-.2.6-.5 1m3.5 5.4c-.3-.1-.7.1-.8.4-.2.7-.4.7-.5.8-.1.1-.3 0-.6-.1 0 0-.1-.2-.2-.3-.1-.2-.2-1-.2-1.5 0-1.8-.4-2.8-.9-3.3.3-.2.6-.5.6-.5.7-1 .9-1.8.5-2.5-1-1.7-5.3-1.2-6.7-1-.3 0-.6.4-.5.7 0 .3.4.6.7.5.3 0 .6-.1.9-.1v2.8h-.3c-.3 0-.6.3-.6.6s.3.6.6.6h.3v3.5l-.8.1c-.3 0-.6.4-.5.7 0 .3.4.6.7.5l2.9-.4c.3 0 .6-.4.5-.7 0-.3-.4-.6-.7-.5l-.9.1v-3.5c.6-.1 1.1-.2 1.6-.4h.2c.2 0 .4.1.5.3.2.3.4.9.5 2.4 0 .3.1 1.5.3 2 .1.2.4.7.9.9.4.1.9.3 1.5 0 .5-.3.9-.6 1.1-1.5.4-.2.2-.5-.1-.6M50.5 13.8c-.3 0-.6.3-.6.6v.8c0 .3-.1.7-.2.8-.1.2-.2.3-.4.5-.1.1-.3.2-.5.3-.2.1-.3.1-.7.1h-.4c-1.6.1-1.8-1.2-1.8-1.5v-2.6c.1-1 .3-1.7.7-2 .3-.2.7-.1 1.4.1.8.3 1.3 1.2 1.4 1.2.1.2.4.3.7.3.3-.1.4-.3.4-.6V9.1c0-.3-.3-.6-.6-.6s-.6.3-.6.6v1.1c-.2-.2-.5-.3-.8-.5-.3-.2-1.5-.7-2.4-.1-.7.5-1.2 1.4-1.3 2.9v2.8c.1.9.8 2.7 3 2.7h.3c.4 0 .8 0 1.2-.2.3-.1.6-.3.9-.6.2-.2.3-.4.5-.7.2-.4.3-1.1.4-1.3v-1c0-.2-.3-.4-.6-.4M60.4 17.8c0-.3-.3-.6-.6-.6-.2 0-.5 0-.8.1 0-1 0-3.1-.1-9.9h.9c.3 0 .6-.3.6-.6s-.3-.6-.6-.6l-3.2.1c-.3 0-.6.3-.6.6s.3.6.6.6h1v4.2l-3.6.6V8.5h1c.3 0 .6-.3.6-.6s-.3-.6-.6-.6h-3.2c-.3 0-.6.3-.6.6s.3.6.6.6h1v8.1h-1c-.3 0-.6.3-.6.6s.3.6.6.6l3.3.1c.3 0 .6-.3.6-.6s-.3-.6-.6-.6h-1v-3.1l3.6-.6v4.6c-.8.2-1.4.2-1.7.6-.2.2-.2.6.1.8.2.2.5.1.9 0 .3-.2 1.5-.3 2.9-.4.3-.2.5-.5.5-.8" class="st0"/><path d="M31.6 12.1l.7-3.6 1.3 3.3-2 .3zm5.3 1c-.2.1-.5.2-1.1.5l-.8-1.9-2.3-5.5c0-.1-.1-.3-.2-.3-.1-.1-.3-.2-.5-.2l-2.6.3c-.3 0-.6.3-.5.7 0 .3.3.6.7.5 0 0 1-.1 1.8-.2-.2 1.1-1.1 5.6-1.4 7l-1.8-.1c-.3 0-.6.2-.6.6 0 .3.2.6.6.6l3 .1c.3 0 .6-.2.6-.6 0-.3-.2-.6-.6-.6l.1-.9 2.8-.5.6 1.5c-.5.3-.7.4-1 .7-.2.3-.1.6.1.8.3.2.7.1.9-.1.3-.4 1.4-.9 2.5-1.3.3-.1.5-.5.4-.8-.1-.2-.4-.4-.7-.3" class="st0"/><path d="M44.1 7s-1.8.1-3.8.2l-3.9.1c-.2 0-.3.1-.5.2-.1.1-.2.3-.1.5l.5 3c0 .3.4.6.7.5.3 0 .5-.3.5-.6 0 0-.2-1.6-.4-2.4h2.6v7.9h-1.3c-.3 0-.6.3-.6.6s.3.6.6.6l3.7-.1c.3 0 .6-.3.6-.6s-.3-.6-.6-.6h-1.2V8.4c1 0 1.9-.1 2.5-.1v1.2c0 .6.1.8.1.9.2.3.5.4.8.2.2-.1.3-.4.3-.6 0 0 0-1.4.1-2.2 0-.2 0-.3-.2-.5 0-.2-.2-.3-.4-.3M18.6 14.4c-.3 0-.6.3-.6.6V15.9c0 .2-.1.6-.2.8-.1.2-.2.3-.4.5-.1.1-.3.2-.5.3-.2.1-.3.1-.7.1h-.4c-1.6 0-1.8-1.2-1.8-1.5v-2.6c.1-1 .3-1.7.7-2 .3-.2.7-.1 1.4.1.8.3 1.4 1.2 1.4 1.2.1.2.4.3.7.3.3-.1.4-.3.4-.6V9.8c0-.3-.3-.6-.6-.6s-.6.3-.6.6v1.1c-.2-.2-.5-.4-.8-.5-.4-.2-1.5-.6-2.5-.1-.7.5-1.2 1.4-1.3 2.9V16c.1.9.8 2.7 3.1 2.7h.3c.4 0 .8 0 1.2-.2.3-.1.6-.3.9-.6.2-.2.3-.4.5-.7.2-.4.3-1.1.4-1.3v-1c0-.2-.3-.5-.6-.5" class="st0"/></g></g></switch></svg>
