<?xml version="1.0" encoding="UTF-8"?>
<svg width="20px" height="20px" viewBox="0 0 20 20" version="1.1" xmlns="http://www.w3.org/2000/svg" xmlns:xlink="http://www.w3.org/1999/xlink">
    <!-- Generator: Sketch 59.1 (86144) - https://sketch.com -->
    <title>Paint/Center Anchor/Artwork Center Expanded</title>
    <desc>Created with Sketch.</desc>
    <g id="Paint/Center-Anchor/Artwork-Center-Expanded" stroke="none" stroke-width="1" fill="none" fill-rule="evenodd" opacity="0.65">
        <g id="anchor" transform="translate(3.000000, 3.000000)" fill-rule="nonzero">
            <path d="M7,0 C7.55228475,0 8,0.44771525 8,1 L8,1 L8,5.999 L13,6 C13.5128358,6 13.9355072,6.38604019 13.9932723,6.88337887 L14,7 C14,7.55228475 13.5522847,8 13,8 L13,8 L8,7.999 L8,13 C8,13.5128358 7.61395981,13.9355072 7.11662113,13.9932723 L7,14 C6.44771525,14 6,13.5522847 6,13 L6,13 L6,7.999 L1,8 C0.487164161,8 0.0644928393,7.61395981 0.00672773133,7.11662113 L1.77635684e-15,7 C1.77635684e-15,6.44771525 0.44771525,6 1,6 L1,6 L6,5.999 L6,1 C6,0.487164161 6.38604019,0.0644928393 6.88337887,0.00672773133 Z" id="White-Outline" fill="#FFFFFF"></path>
            <path d="M7,0.5 C7.27614237,0.5 7.5,0.723857625 7.5,1 L7.5,1 L7.5,6.499 L13,6.5 C13.2454599,6.5 13.4496084,6.67687516 13.4919443,6.91012437 L13.5,7 C13.5,7.27614237 13.2761424,7.5 13,7.5 L13,7.5 L7.5,7.499 L7.5,13 C7.5,13.2454599 7.32312484,13.4496084 7.08987563,13.4919443 L7,13.5 C6.72385763,13.5 6.5,13.2761424 6.5,13 L6.5,13 L6.5,7.499 L1,7.5 C0.754540111,7.5 0.55039163,7.32312484 0.508055669,7.08987563 L0.5,7 C0.5,6.72385763 0.723857625,6.5 1,6.5 L1,6.5 L6.5,6.499 L6.5,1 C6.5,0.754540111 6.67687516,0.55039163 6.91012437,0.508055669 Z" id="Black-Outline" fill="#000000"></path>
        </g>
    </g>
</svg>