<?xml version="1.0" encoding="UTF-8"?>
<svg width="20px" height="20px" viewBox="0 0 20 20" version="1.1" xmlns="http://www.w3.org/2000/svg" xmlns:xlink="http://www.w3.org/1999/xlink">
    <!-- Generator: Sketch 50.2 (55047) - http://www.bohemiancoding.com/sketch -->
    <title>cancel</title>
    <desc>Created with Sketch.</desc>
    <defs></defs>
    <g id="cancel" stroke="none" stroke-width="1" fill="none" fill-rule="evenodd">
        <path d="M15.464935,15.467297 C14.7644059,16.1777705 13.6185877,16.1777705 12.9081142,15.467297 L9.99881899,12.5580018 L7.08841885,15.467297 C6.38236506,16.1733508 5.23765187,16.1733508 4.53159807,15.467297 C4.17912364,15.1148226 4.00012409,14.6485398 4.00012409,14.1888866 C4.00012409,13.7281285 4.17912364,13.2629506 4.53159807,12.9104762 L7.44089328,10.001181 L4.52717833,7.08636112 C4.17359897,6.73278176 3.99459941,6.26760391 4.00012409,5.80242606 C4.00012409,5.34166795 4.17359897,4.88201477 4.52717833,4.52954034 C5.23212719,3.82348655 6.37684038,3.82348655 7.08399911,4.52954034 L9.99881899,7.44325529 L12.9125339,4.52954034 C13.6185877,3.82348655 14.7644059,3.82348655 15.4704597,4.52954034 C16.1765134,5.2344892 16.1765134,6.38030733 15.4704597,7.08636112 L12.5545348,10.001181 L15.4704597,12.914896 C16.1765134,13.6209497 16.1765134,14.7557185 15.464935,15.467297" id="close" fill="#FFFFFF"></path>
    </g>
</svg>