<?xml version="1.0" encoding="UTF-8"?>
<svg width="32px" height="32px" viewBox="0 0 32 32" version="1.1" xmlns="http://www.w3.org/2000/svg" xmlns:xlink="http://www.w3.org/1999/xlink">
    <!-- Generator: Sketch 52.6 (67491) - http://www.bohemiancoding.com/sketch -->
    <title>Scratch Link</title>
    <desc>Created with Sketch.</desc>
    <g id="52x52-for-the-dialog" stroke="none" stroke-width="1" fill="none" fill-rule="evenodd">
        <g id="Group">
            <path d="M27.7333333,0 C30.0897333,0 32,1.91026667 32,4.26666667 L32,27.7333333 C32,30.0897333 30.0897333,32 27.7333333,32 L4.26666667,32 C1.91026667,32 0,30.0897333 0,27.7333333 L0,4.26666667 C0,1.91026667 1.91026667,0 4.26666667,0 L27.7333333,0 Z" id="bg" fill="#0FBD8C"></path>
            <path d="M18.10134,18.2373106 C18.1261502,20.3168323 17.228667,22.3185468 15.640812,23.7246729 C14.3771082,24.8559551 12.782781,25.5058406 11.1248102,25.5690939 C10.3583898,26.1932303 9.42908472,26.5643535 8.43397863,26.6298459 C8.32772611,26.6371228 8.22147359,26.6416009 8.11522106,26.6416009 C5.57325086,26.6416009 3.43417727,24.5811112 3.23947088,21.9502224 C3.23731347,21.9199951 3.23515605,21.8774531 3.23299864,21.823156 C3.23030188,21.8046839 3.22814447,21.7856519 3.22814447,21.7649406 C3.178524,20.6571685 3.20333423,19.7419551 3.23515605,19.1592412 C3.26428111,18.6218682 3.28261911,17.6551565 3.28477652,17.4301315 L3.28477652,17.4161374 C3.29826034,16.6296696 3.48595515,15.8622337 3.82736553,15.1742843 C3.73028201,14.4046094 3.73243942,13.5811972 3.83653453,12.717482 L3.85001836,12.5831387 C3.85271512,12.5669056 3.85271512,12.5478736 3.85433318,12.5316404 C3.85702994,12.5176464 3.85918736,12.5014132 3.86134477,12.4851801 C3.94710188,11.7502105 4.09650263,10.546159 4.72970293,9.31188035 C5.78359849,7.24187465 7.78297968,6.0070362 10.0757688,6.0070362 L10.1728524,6.0070362 C10.8945065,5.58945257 11.7062327,5.36666667 12.5406116,5.36666667 L12.6290655,5.36666667 C15.2837604,5.41592586 17.4433294,7.69248433 17.4433294,10.4431625 C17.4433294,10.4733898 17.3527181,13.7731961 17.2507804,14.9022392 C17.800381,15.8997379 18.0900135,17.0310201 18.10134,18.2373106" id="scratch-outline-2" fill="#FFFFFF"></path>
            <path d="M15.8448484,18.2498552 C15.8631864,19.6274334 15.2526389,20.9747843 14.169079,21.9347788 C13.2489429,22.7587508 12.0731536,23.2138386 10.8633851,23.2138386 C10.6551949,23.2115996 10.4448472,23.1998445 10.2388144,23.1712966 C10.1913514,23.2373487 10.1417309,23.300602 10.089953,23.3616162 C9.62395212,23.9085052 8.98158282,24.2326083 8.28042405,24.2745906 C8.22648876,24.2790687 8.17417153,24.2813078 8.12023624,24.2813078 C6.75189794,24.2813078 5.60091886,23.1690575 5.49898116,21.7517362 C5.49682375,21.723748 5.49466634,21.6952 5.49466634,21.6649728 L5.49250893,21.6437018 C5.44720328,20.6344481 5.4698561,19.8037589 5.49682375,19.2848581 C5.53080298,18.6842318 5.54914098,17.663223 5.55129839,17.4426761 C5.5626248,16.7524877 5.81773872,16.1261122 6.23196175,15.6491937 C6.02592894,14.9103057 5.96012789,14.0230805 6.08687582,12.9740835 L6.10305641,12.8212681 C6.10521382,12.809513 6.10521382,12.797758 6.10737123,12.786003 C6.17964452,12.1713825 6.28805445,11.2628863 6.73355994,10.394693 C7.39858206,9.08988406 8.61967702,8.3409204 10.080784,8.3409204 C10.1622263,8.3409204 10.2479834,8.34315945 10.3364373,8.34819732 C10.4901529,8.3577133 10.6460259,8.3761855 10.797584,8.40473344 C11.2722146,7.96084093 11.9032575,7.68599701 12.5952472,7.70055086 C14.0245324,7.72629999 15.1868379,8.95106269 15.1868379,10.4299581 C15.1868379,10.4624244 15.06009,14.4126759 14.9991431,14.7552512 C14.9630064,14.9690809 14.9020596,15.1728348 14.8227747,15.3653935 C15.4807852,16.1541004 15.8356794,17.137605 15.8448484,18.2498552" id="scratch-outline-1" fill="#F9A83A"></path>
            <path d="M10.1391736,15.4309767 C9.46120699,15.3212631 9.0993012,14.8505019 9.27890571,13.3939971 L9.29994047,13.2182313 C9.45095928,11.9526059 9.57770722,11.6710448 10.1645232,11.7040708 C10.3360374,11.7152661 10.5339799,11.8277786 10.7313831,11.9962674 C10.914763,12.2162545 11.3219745,12.5011742 11.5511995,13.0654158 C11.7157021,13.4796409 11.7723342,13.7500067 11.7960657,14.040524 L11.8322023,14.3970934 L11.8322023,14.3954141 C11.8807441,14.639471 12.060888,14.8398664 12.310069,14.8835279 C12.630984,14.9445422 12.9405725,14.7228758 12.9966652,14.3898165 C13.0042162,14.3500733 13.1493021,10.5140135 13.1493021,10.4513199 C13.1493021,10.1132227 12.8882553,9.83893859 12.5603287,9.83334096 C12.2334809,9.83166167 11.9681193,10.1076251 11.9681193,10.4446028 C11.9681193,10.4518797 11.9665012,10.9814161 11.9557141,11.5154305 C11.4897132,10.9892527 10.8931889,10.5179318 10.22547,10.4770691 C8.43805454,10.3779909 8.2428088,12.0835905 8.12522986,13.0665354 L8.10743122,13.2406218 C7.86634047,15.1830015 8.49091113,16.4083239 9.95741165,16.6462234 C11.5511995,16.9059537 12.6153427,17.2860332 12.6250511,18.3036834 C12.630984,18.6994362 12.4303447,19.1052648 12.0803047,19.4176129 C11.6585307,19.7898557 11.0943676,19.957225 10.5625656,19.8665433 C10.3975236,19.8402344 10.2427293,19.7932143 10.0944073,19.7422758 C9.88567772,19.6213669 9.35980864,19.2894271 9.09282896,18.905989 C8.8679188,18.5824457 8.78971263,18.0741803 8.76544175,17.7517565 C8.76813852,17.6073375 8.76867787,17.5116179 8.76867787,17.5009824 C8.77461075,17.1612059 8.51194589,16.8846827 8.18833415,16.876846 C7.85986824,16.8690093 7.59019179,17.1432935 7.58425891,17.4825102 C7.58425891,17.4937055 7.56969638,18.6955179 7.5270875,19.4192922 C7.46614062,20.5852797 7.5270875,21.5727027 7.5270875,21.6158045 C7.55135838,21.9544614 7.83182189,22.2097136 8.15866974,22.1873231 C8.48443889,22.1694107 8.73254123,21.8760945 8.7098884,21.5368778 C8.7098884,21.5312802 8.68076335,21.0526823 8.68453882,20.3916015 C9.11817855,20.6787603 9.68773521,20.9580823 10.3657018,21.0778717 C11.2502405,21.2318067 12.1547354,20.9664787 12.8456464,20.350179 C13.4642842,19.801051 13.818639,19.050408 13.8089307,18.2908088 C13.7878959,16.0232066 11.3219745,15.6246549 10.1391736,15.4309767" id="scratch-fill" fill="#FFFFFF"></path>
            <path d="M24.9021187,24.3333333 C24.7540883,24.3333333 24.6109296,24.2744162 24.5030514,24.16541 C24.2821066,23.940541 24.2831004,23.5755181 24.5054773,23.3524364 C26.4610648,21.3867501 27.5377185,18.7757256 27.5377185,16.0002704 C27.5377185,13.2245479 26.461246,10.613963 24.5056157,8.64771766 C24.2830589,8.42445532 24.2820638,8.05923374 24.5030532,7.83512886 C24.7228659,7.61141779 25.0785324,7.61042844 25.2992873,7.83268559 C27.4703124,10.0151412 28.6666667,12.9164209 28.6666667,16.0002704 C28.6666667,19.0836642 27.4702631,21.9849235 25.2991419,24.1674755 C25.1918547,24.2751027 25.0494526,24.3333333 24.9021187,24.3333333 Z M22.870116,21.7464968 C22.7215666,21.7464968 22.5783371,21.6877617 22.4710487,21.5785734 C22.2501039,21.3537044 22.2510977,20.9892072 22.473444,20.7661563 C23.7415297,19.4909611 24.4391979,17.7992385 24.4391979,16.0003229 C24.4391979,14.2009485 23.7415768,12.5092065 22.473613,11.2341337 C22.2510977,11.010913 22.2501039,10.6464157 22.4710487,10.4215467 C22.6903404,10.1983601 23.0465278,10.1973693 23.2667702,10.4191075 C24.7499898,11.9102606 25.5676258,13.8931569 25.5676258,16.0003229 C25.5676258,18.1071107 24.7498849,20.0899787 23.2671216,21.5801328 C23.1602696,21.6881002 23.0176711,21.7464968 22.870116,21.7464968 Z M20.8307777,19.1527212 C20.6827473,19.1527212 20.5395886,19.093804 20.4317104,18.9847978 C20.2107656,18.7599288 20.2117594,18.3954316 20.4340668,18.1724198 C21.0123483,17.5905711 21.3302202,16.819818 21.3302202,16.0002704 C21.3302202,15.1802111 21.0123609,14.4094883 20.4340228,13.8280766 C20.2118003,13.604342 20.2108078,13.2400433 20.4317104,13.0152172 C20.6511659,12.7918639 21.007545,12.7911204 21.2273512,13.0132225 C22.0209481,13.8101404 22.4586482,14.8719344 22.4586482,16.0002704 C22.4586482,17.1281531 22.0208971,18.1899258 21.2277833,18.9863572 C21.1209314,19.0943246 20.9783328,19.1527212 20.8307777,19.1527212 Z" id="signal" fill="#FFFFFF" fill-rule="nonzero"></path>
        </g>
    </g>
</svg>
