<svg width="14" height="12" fill="none" xmlns="http://www.w3.org/2000/svg"><path fill-rule="evenodd" clip-rule="evenodd" d="M10.404 4.111a3.66 3.66 0 0 1 .897 3.069c-.194 1.305-1.158 2.551-2.505 3.068h-.008a.901.901 0 0 0-.56 1.051c.111.483.602.789 1.084.678 2.015-.466 3.775-2.093 4.41-4.196a6.495 6.495 0 0 0 .128-3.272 6.517 6.517 0 0 0-1.236-2.61l.846-.848A.618.618 0 0 0 13.02 0H8.983c-.34 0-.619.28-.619.619v4.043c0 .551.661.822 1.05.44l.99-.99zM3.596 7.89a3.663 3.663 0 0 1-.898-3.069c.195-1.305 1.16-2.552 2.506-3.068h.008A.902.902 0 0 0 5.771.7.908.908 0 0 0 4.688.023C2.673.489.913 2.116.278 4.219a6.481 6.481 0 0 0-.127 3.27c.203.942.635 1.84 1.236 2.611l-.847.848C.16 11.338.43 12 .98 12h4.038c.338 0 .617-.28.617-.62V7.338a.617.617 0 0 0-1.049-.44l-.99.99z" fill="#fff"/></svg>