<?xml version="1.0" encoding="UTF-8" standalone="no"?>
<svg
   width="50"
   height="50"
   viewBox="-2 -2 48 48"
   version="1.1"
   xmlns="http://www.w3.org/2000/svg"
   xmlns:svg="http://www.w3.org/2000/svg">
    <circle
        cx="22" cy="22"
        r="23.5"
        fill="#4c97ff"
        opacity="0.25"
    />
    <circle
        cx="22" cy="22"
        r="18"
        fill="#4c97ff"
    />
    <path
        d="m 25.4042,20.1111 c 0.7194,0.7798 1.0918,1.9233 0.8972,3.0685 -0.1939,1.3054 -1.1588,2.5514 -2.5054,3.0685 h -0.0084 c -0.4148,0.161 -0.6687,0.6018 -0.5587,1.0511 0.1101,0.4831 0.601,0.7883 1.0834,0.6781 2.0145,-0.4662 3.775,-2.0937 4.4098,-4.1959 0.3216,-1.0434 0.3639,-2.1784 0.1278,-3.2719 -0.2032,-0.9409 -0.6348,-1.8394 -1.2358,-2.6108 l 0.8464,-0.8476 C 28.8406,16.6612 28.5706,16 28.0196,16 h -4.0365 c -0.3394,0 -0.6187,0.2797 -0.6187,0.6188 v 4.0433 c 0,0.5509 0.661,0.8222 1.0503,0.4407 z m -6.8085,3.7778 c -0.7195,-0.7798 -1.091,-1.9242 -0.8972,-3.0685 0.1946,-1.3054 1.1595,-2.5523 2.5053,-3.0685 h 0.0085 c 0.4147,-0.1619 0.6686,-0.6018 0.5586,-1.0511 -0.11,-0.484 -0.6009,-0.7883 -1.0834,-0.6781 -2.0144,0.4662 -3.7749,2.0937 -4.4097,4.1959 -0.3217,1.0426 -0.364,2.1776 -0.127,3.2711 0.2031,0.9417 0.6348,1.8394 1.2358,2.6107 l -0.8464,0.8477 C 15.1593,27.338 15.4301,28 15.9803,28 h 4.0373 c 0.3386,0 0.6179,-0.2797 0.6179,-0.6196 v -4.0425 c 0,-0.5518 -0.6602,-0.8222 -1.0496,-0.4407 z"
        fill="#ffffff"
    />
</svg>
