<svg width="44" height="44" fill="none" xmlns="http://www.w3.org/2000/svg"><g filter="url(#filter0_d_2828_26434)"><rect x="4" y="4" width="36" height="36" rx="18" fill="#FF8C1A"/><circle cx="22" cy="22" r="10" fill="#FF8C1A"/><path fill-rule="evenodd" clip-rule="evenodd" d="M22 23.424a1.44 1.44 0 0 0-1.452 1.43c0 .791.65 1.431 1.452 1.431a1.44 1.44 0 0 0 1.452-1.43c0-.79-.65-1.43-1.452-1.43zm.834-1.303c-.37.815-1.298.815-1.668 0l-1.18-2.586c-.368-.81.094-1.821.835-1.821h2.358c.74 0 1.203 1.011.834 1.82l-1.18 2.587z" fill="#fff"/></g><defs><filter id="filter0_d_2828_26434" x="0" y="0" width="44" height="44" filterUnits="userSpaceOnUse" color-interpolation-filters="sRGB"><feFlood flood-opacity="0" result="BackgroundImageFix"/><feColorMatrix in="SourceAlpha" values="0 0 0 0 0 0 0 0 0 0 0 0 0 0 0 0 0 0 127 0" result="hardAlpha"/><feMorphology radius="4" operator="dilate" in="SourceAlpha" result="effect1_dropShadow_2828_26434"/><feOffset/><feComposite in2="hardAlpha" operator="out"/><feColorMatrix values="0 0 0 0 1 0 0 0 0 0.54902 0 0 0 0 0.101961 0 0 0 0.15 0"/><feBlend in2="BackgroundImageFix" result="effect1_dropShadow_2828_26434"/><feBlend in="SourceGraphic" in2="effect1_dropShadow_2828_26434" result="shape"/></filter></defs></svg>