<?xml version="1.0" encoding="UTF-8"?>
<svg width="20px" height="20px" viewBox="0 0 20 20" version="1.1" xmlns="http://www.w3.org/2000/svg" xmlns:xlink="http://www.w3.org/1999/xlink">
    <!-- Generator: Sketch 48.2 (47327) - http://www.bohemiancoding.com/sketch -->
    <title>camera</title>
    <desc>Created with Sketch.</desc>
    <defs></defs>
    <g id="Page-1" stroke="none" stroke-width="1" fill="none" fill-rule="evenodd">
        <g id="camera" fill="#FFFFFF">
            <path d="M10,14.5 C8.3485,14.5 7,13.1515 7,11.5 C7,9.8365 8.3485,8.5 10,8.5 C11.6635,8.5 13,9.8365 13,11.5 C13,13.1515 11.6635,14.5 10,14.5 M16,6.25 L14.95,6.25 C14.6635,6.25 14.425,6.1 14.2885,5.86 L13.2835,4.0315 C13.015,3.55 12.52,3.25 11.965,3.25 L8.05,3.25 C7.495,3.25 7,3.55 6.7285,4.0315 L5.71,5.86 C5.575,6.1 5.335,6.25 5.065,6.25 L4,6.25 C3.175,6.25 2.5,6.925 2.5,7.75 L2.5,15.25 C2.5,16.0765 3.175,16.75 4,16.75 L16,16.75 C16.825,16.75 17.5,16.0765 17.5,15.25 L17.5,7.75 C17.5,6.925 16.825,6.25 16,6.25" id="camera-icon"></path>
        </g>
    </g>
</svg>