<svg version="1.1" width="135" height="74" xmlns="http://www.w3.org/2000/svg" xmlns:xlink="http://www.w3.org/1999/xlink">
  <!-- Exported by Scratch - http://scratch.mit.edu/ -->
  <path id="Back_Leg2" fill="#E29339" stroke="#000000" stroke-width="2" stroke-linejoin="round" d="M 270.537 382.918 C 273.450 374.244 279.955 357.151 288.096 361.667 C 296.236 366.182 277.694 387.656 276.026 392.932 C 276.026 392.932 281.182 399.505 276.292 400.175 C 271.402 400.846 271.941 394.378 271.941 394.378 C 271.941 394.378 271.734 401.788 266.999 399.398 C 262.264 397.008 265.843 393.633 267.301 392.756 C 267.301 392.756 262.762 395.417 261.381 392.017 C 260.001 388.616 264.548 386.476 267.388 389.006 C 267.388 389.006 269.118 387.144 270.537 382.918 L 270.537 382.918 L 270.537 382.918 L 270.537 382.918 L 270.537 382.918 L 270.537 382.918 Z " transform="matrix(0.028780533000826836, -0.7636146545410156, 0.7636146545410156, 0.028780533000826836, -242.75, 259.25)"/>
  <path id="Back_Leg1" fill="#E29339" stroke="#000000" stroke-width="2" stroke-linejoin="round" d="M 330.802 381.109 C 326.104 373.528 320.970 356.917 313.254 362.123 C 305.539 367.329 324.083 386.452 326.205 391.562 C 326.205 391.562 321.641 398.559 326.571 398.800 C 331.501 399.042 330.400 392.647 330.400 392.647 C 330.400 392.647 331.249 400.012 335.759 397.217 C 340.269 394.425 336.409 391.374 334.881 390.628 C 334.881 390.628 339.634 392.884 340.713 389.376 C 341.792 385.868 337.077 384.131 334.468 386.900 C 334.469 386.899 332.755 384.258 330.802 381.109 L 330.802 381.109 L 330.802 381.109 L 330.802 381.109 L 330.802 381.109 L 330.802 381.109 Z " transform="matrix(0.028780533000826836, -0.7636146545410156, 0.7636146545410156, 0.028780533000826836, -242.75, 259.25)"/>
  <path id="Front_Leg2" fill="#E29339" stroke="#000000" stroke-width="2" stroke-linejoin="round" d="M 343.584 437.381 C 338.886 429.800 333.752 413.188 326.036 418.395 C 318.320 423.601 336.865 442.723 338.987 447.834 C 338.987 447.834 334.423 454.830 339.353 455.071 C 344.283 455.313 343.182 448.918 343.182 448.918 C 343.182 448.918 344.031 456.283 348.541 453.488 C 353.051 450.696 349.191 447.644 347.663 446.898 C 347.663 446.898 352.416 449.154 353.495 445.646 C 354.574 442.138 349.859 440.402 347.250 443.170 C 347.251 443.171 345.537 440.529 343.584 437.381 L 343.584 437.381 L 343.584 437.381 L 343.584 437.381 L 343.584 437.381 L 343.584 437.381 Z " transform="matrix(0.028780533000826836, -0.7636146545410156, 0.7636146545410156, 0.028780533000826836, -242.75, 259.25)"/>
  <path id="Front_Leg1" fill="#E29339" stroke="#000000" stroke-width="2" stroke-linejoin="round" d="M 278.284 445.667 C 281.514 437.354 291.698 423.261 282.898 420.229 C 274.098 417.196 269.975 443.513 267.169 448.283 C 267.169 448.283 258.834 448.844 261.607 452.929 C 264.378 457.013 268.826 452.286 268.826 452.286 C 268.826 452.286 263.452 457.394 268.398 459.317 C 273.341 461.240 273.458 456.321 273.134 454.652 C 273.134 454.652 274.191 459.805 277.642 458.558 C 281.094 457.310 279.645 452.498 275.864 452.079 C 275.863 452.079 276.943 449.121 278.284 445.667 L 278.284 445.667 L 278.284 445.667 L 278.284 445.667 L 278.284 445.667 L 278.284 445.667 Z " transform="matrix(0.028780533000826836, -0.7636146545410156, 0.7636146545410156, 0.028780533000826836, -242.75, 259.25)"/>
  <path id="Body" fill="#E29339" stroke="#000000" stroke-width="2" d="M 327.877 440.227 C 333.237 431.761 325.669 414.815 324.340 404.167 C 323.644 398.588 329.484 389.473 328.336 379.445 C 326.645 364.656 318.479 349.646 300.966 350.423 C 283.454 351.200 273.512 365.377 273.281 384.250 C 273.140 395.711 280.347 399.776 281.052 406.181 C 281.969 414.514 278.543 426.696 284.661 437.500 C 287.560 442.620 298.782 448.874 308.122 448.462 C 316.927 448.462 325.436 444.082 327.877 440.227 L 327.877 440.227 L 327.877 440.227 L 327.877 440.227 L 327.877 440.227 L 327.877 440.227 Z " transform="matrix(0.028780533000826836, -0.7636146545410156, 0.7636146545410156, 0.028780533000826836, -242.75, 259.25)"/>
  <path id="Whisker6" fill="none" stroke="#000000" stroke-width="2" stroke-linecap="round" d="M 333.720 462.907 L 344.393 466.738 " transform="matrix(0.028780533000826836, -0.7636146545410156, 0.7636146545410156, 0.028780533000826836, -242.75, 259.25)"/>
  <path id="Whisker5" fill="none" stroke="#000000" stroke-width="2" stroke-linecap="round" d="M 331.706 467.285 L 340.350 473.682 " transform="matrix(0.028780533000826836, -0.7636146545410156, 0.7636146545410156, 0.028780533000826836, -242.75, 259.25)"/>
  <path id="Whisker4" fill="none" stroke="#000000" stroke-width="2" stroke-linecap="round" d="M 328.800 471.834 L 331.452 479.822 " transform="matrix(0.028780533000826836, -0.7636146545410156, 0.7636146545410156, 0.028780533000826836, -242.75, 259.25)"/>
  <path id="Whisker3" fill="none" stroke="#000000" stroke-width="2" stroke-linecap="round" d="M 284.271 466.731 L 276.439 472.118 " transform="matrix(0.028780533000826836, -0.7636146545410156, 0.7636146545410156, 0.028780533000826836, -242.75, 259.25)"/>
  <path id="Whisker2" fill="none" stroke="#000000" stroke-width="2" stroke-linecap="round" d="M 287.264 470.763 L 280.351 478.999 " transform="matrix(0.028780533000826836, -0.7636146545410156, 0.7636146545410156, 0.028780533000826836, -242.75, 259.25)"/>
  <path id="Whisker1" fill="none" stroke="#000000" stroke-width="2" stroke-linecap="round" d="M 290.150 473.508 L 289.436 481.895 " transform="matrix(0.028780533000826836, -0.7636146545410156, 0.7636146545410156, 0.028780533000826836, -242.75, 259.25)"/>
  <path id="Head" fill="#E29339" stroke="#000000" stroke-width="2" stroke-linejoin="round" d="M 287.739 434.062 C 287.739 434.062 264.359 457.982 284.271 466.731 C 284.271 466.731 284.897 476.210 308.375 475.861 C 328.500 475.562 329.375 471.361 332.143 465.352 C 332.166 465.301 332.220 465.203 332.220 465.203 C 332.220 465.203 352.250 458.500 328.305 431.174 " transform="matrix(0.028780533000826836, -0.7636146545410156, 0.7636146545410156, 0.028780533000826836, -242.75, 259.25)"/>
  <g id="L_Eye">
    <path id="White" fill="#FFFFFF" stroke="#000000" d="M 295.376 465.391 C 296.316 465.391 297.167 465.773 297.784 466.389 C 298.400 467.006 298.782 467.857 298.782 468.797 C 298.782 469.737 298.400 470.588 297.784 471.205 C 297.167 471.821 296.316 472.203 295.376 472.203 C 294.436 472.203 293.585 471.821 292.968 471.205 C 292.352 470.588 291.970 469.737 291.970 468.797 C 291.970 467.857 292.352 467.006 292.968 466.389 C 293.585 465.773 294.436 465.391 295.376 465.391 L 295.376 465.391 L 295.376 465.391 L 295.376 465.391 L 295.376 465.391 Z " transform="matrix(0.028780533000826836, -0.7636146545410156, 0.7636146545410156, 0.028780533000826836, -242.75, 259.25)"/>
    <path id="Pupil" d="M 296.137 467.327 C 296.723 467.327 297.254 467.565 297.638 467.950 C 298.023 468.334 298.261 468.865 298.261 469.451 C 298.261 470.037 298.023 470.568 297.638 470.952 C 297.254 471.337 296.723 471.575 296.137 471.575 C 295.551 471.575 295.020 471.337 294.636 470.952 C 294.251 470.568 294.013 470.037 294.013 469.451 C 294.013 468.865 294.251 468.334 294.636 467.950 C 295.020 467.565 295.551 467.327 296.137 467.327 L 296.137 467.327 L 296.137 467.327 L 296.137 467.327 L 296.137 467.327 Z " transform="matrix(0.028780533000826836, -0.7636146545410156, 0.7636146545410156, 0.028780533000826836, -242.75, 259.25)"/>
  </g>
  <g id="R_Eye">
    <path id="White_1_" fill="#FFFFFF" stroke="#000000" d="M 322.263 465.549 C 323.203 465.549 324.054 465.931 324.671 466.547 C 325.287 467.164 325.669 468.015 325.669 468.955 C 325.669 469.895 325.287 470.746 324.671 471.363 C 324.054 471.979 323.203 472.361 322.263 472.361 C 321.323 472.361 320.472 471.979 319.855 471.363 C 319.239 470.746 318.857 469.895 318.857 468.955 C 318.857 468.015 319.239 467.164 319.855 466.547 C 320.472 465.931 321.323 465.549 322.263 465.549 L 322.263 465.549 L 322.263 465.549 L 322.263 465.549 L 322.263 465.549 Z " transform="matrix(0.028780533000826836, -0.7636146545410156, 0.7636146545410156, 0.028780533000826836, -242.75, 259.25)"/>
    <path id="Pupil_1_" d="M 323.024 467.485 C 323.610 467.485 324.141 467.723 324.525 468.108 C 324.910 468.492 325.148 469.023 325.148 469.609 C 325.148 470.195 324.910 470.726 324.525 471.110 C 324.141 471.495 323.610 471.733 323.024 471.733 C 322.438 471.733 321.907 471.495 321.523 471.110 C 321.138 470.726 320.900 470.195 320.900 469.609 C 320.900 469.023 321.138 468.492 321.523 468.108 C 321.907 467.723 322.438 467.485 323.024 467.485 L 323.024 467.485 L 323.024 467.485 L 323.024 467.485 L 323.024 467.485 Z " transform="matrix(0.028780533000826836, -0.7636146545410156, 0.7636146545410156, 0.028780533000826836, -242.75, 259.25)"/>
  </g>
  <path id="Nose" fill="#EC008C" stroke="#000000" stroke-width="2" d="M 308.973 472.729 C 310.304 472.729 311.509 473.080 312.382 473.647 C 313.256 474.214 313.796 474.998 313.796 475.862 C 313.796 476.726 313.256 477.510 312.382 478.077 C 311.509 478.644 310.304 478.995 308.973 478.995 C 307.642 478.995 306.437 478.644 305.564 478.077 C 304.690 477.510 304.150 476.726 304.150 475.862 C 304.150 474.998 304.690 474.214 305.564 473.647 C 306.437 473.080 307.642 472.729 308.973 472.729 L 308.973 472.729 L 308.973 472.729 L 308.973 472.729 L 308.973 472.729 Z " transform="matrix(0.028780533000826836, -0.7636146545410156, 0.522960364818573, 0.019710304215550423, -127.6, 264)"/>
  <g id="L_Ear">
    <path id="Outer_Ear" fill="#E29339" stroke="#000000" stroke-width="2" stroke-linecap="round" stroke-linejoin="round" d="M 299.062 439.188 C 299.062 439.188 289.138 434.818 285.733 432.776 C 282.327 430.734 281.269 428.754 279.978 429.790 C 278.688 430.825 282.449 443.046 281.936 446.813 " transform="matrix(0.028780533000826836, -0.7636146545410156, 0.7636146545410156, 0.028780533000826836, -242.75, 259.25)"/>
    <path id="Inner_Ear" fill="#58595B" d="M 282.808 434.062 C 282.808 434.062 285.205 442.522 284.812 444.965 C 284.814 444.963 284.750 445.687 284.750 445.687 C 286.812 444.625 291.534 442.280 294.375 441.437 C 289.621 439.357 282.808 434.062 282.808 434.062 L 282.808 434.062 L 282.808 434.062 L 282.808 434.062 L 282.808 434.062 L 282.808 434.062 Z " transform="matrix(0.028780533000826836, -0.7636146545410156, 0.7636146545410156, 0.028780533000826836, -242.75, 259.25)"/>
  </g>
  <g id="R_Ear">
    <path id="Outer_Ear_1_" fill="#E29339" stroke="#000000" stroke-width="2" stroke-linecap="round" stroke-linejoin="round" d="M 332.650 444.894 C 332.138 441.126 335.898 428.906 334.609 427.871 C 333.318 426.835 332.259 428.815 328.853 430.857 C 325.449 432.899 315.525 437.269 315.525 437.269 " transform="matrix(0.028780533000826836, -0.7636146545410156, 0.7636146545410156, 0.028780533000826836, -242.75, 259.25)"/>
    <path id="Inner_Ear_1_" fill="#58595B" d="M 331.780 432.144 C 331.780 432.144 329.383 440.604 329.776 443.047 C 329.773 443.045 329.838 443.769 329.838 443.769 C 327.776 442.707 323.055 440.362 320.213 439.519 C 324.967 437.438 331.780 432.144 331.780 432.144 L 331.780 432.144 L 331.780 432.144 L 331.780 432.144 L 331.780 432.144 L 331.780 432.144 Z " transform="matrix(0.028780533000826836, -0.7636146545410156, 0.7636146545410156, 0.028780533000826836, -242.75, 259.25)"/>
  </g>
  <path id="Tail" fill="#E29339" stroke="#000000" stroke-width="2" d="M 298.242 356.101 C 295.419 355.565 293.558 352.846 294.083 350.018 C 295.853 340.461 294.593 333.148 290.336 328.282 C 283.261 320.194 269.629 320.635 269.495 320.642 C 266.609 320.786 264.162 318.567 264.017 315.684 C 263.872 312.803 266.093 310.351 268.974 310.207 C 269.736 310.169 287.715 309.418 298.201 321.403 C 304.667 328.795 306.738 339.064 304.355 351.921 C 303.830 354.757 301.103 356.631 298.267 356.106 C 298.259 356.104 298.251 356.103 298.242 356.101 L 298.242 356.101 L 298.242 356.101 L 298.242 356.101 L 298.242 356.101 L 298.242 356.101 L 298.242 356.101 Z " transform="matrix(0.028780533000826836, -0.7636146545410156, 0.7636146545410156, 0.028780533000826836, -242.75, 259.25)"/>
</svg>