<svg width="159" height="178" xmlns="http://www.w3.org/2000/svg">
 <style type="text/css">.st0{fill:#26452A;}
	.st1{fill:#0C6C3C;}
	.st2{fill:#ADD3B2;}
	.st3{fill:#006939;}
	.st4{fill:#A8CDAD;}
	.st5{fill:#C8DED0;}
	.st6{fill:#231815;}
	.st7{fill:#FFFFFF;}
	.st8{fill:#0D3561;}
	.st9{fill:none;}
	.st10{fill:#221714;}
	.st11{fill:#0C6F3E;}
	.st12{fill:#3D221B;}
	.st13{fill:#006637;}
	.st14{fill-rule:evenodd;clip-rule:evenodd;fill:#006939;}</style>

 <g>
  <title>background</title>
  <rect fill="none" id="canvas_background" height="402" width="582" y="-1" x="-1"/>
 </g>
 <g>
  <title>Layer 1</title>
  <g id="svg_1">
   <path id="svg_2" d="m88.5,113.7c0,0 10.9,-0.2 17,6.9c6.2,7.1 13.3,15.8 19.3,18.6c6.1,2.8 27.1,4.5 33.7,14.1c0,0 -0.3,13.6 -3.6,17.5c0,0 -4.2,-10.3 -11.1,-12.9c-3.7,-1.4 -7.4,1.8 -11.2,6.5c-4.9,6.2 -14.8,0.6 -18.1,2.4c-2.2,1.1 -2.2,2.3 -4.2,3.9c-3.2,2.6 -6.6,2.5 -6.6,2.5s-6.8,-20.9 -14.1,-31.4c-7.4,-10.7 -28.5,-32.2 -28.5,-32.2l11.2,-6.8l13.5,7.5l2.7,3.4z" class="st0"/>
   <path id="svg_3" d="m158.7,153.3c-6.6,-9.6 -27.7,-11.3 -33.7,-14.1c-6.1,-2.8 -13.2,-11.5 -19.3,-18.6c-6.2,-7.1 -17,-6.9 -17,-6.9l-2.6,-3.5l-7.5,-4.1c-1.9,9.5 10.8,8.3 10.8,8.3s11,4.1 19,17.9c5.8,9.9 12.1,14.9 17.8,18.1c8.1,4.4 10.4,3.2 15.6,5.8c8.9,4.4 13,15.4 13,15.4c5.5,-5.1 3.9,-18.3 3.9,-18.3z" class="st1"/>
  </g>
  <g id="svg_4">
   <path id="svg_5" d="m46.6,114.3c0,0 -18.5,11.3 -16.1,21.8c1.8,7.8 6.8,14.8 9.9,15.9c5.5,1.9 16.4,-23.6 16.4,-23.6l2.7,-8.8l-6.8,-7.5l-6.1,2.2z" class="st2"/>
   <path id="svg_6" d="m40.9,153.1c-0.3,0 -0.6,0 -0.9,-0.1c-3.4,-1.2 -8.6,-8.3 -10.6,-16.6c-2.6,-11.1 15.8,-22.4 16.6,-22.9l0.2,-0.1l6.7,-2.5l7.7,8.5l-2.9,9.5c-2.5,5.8 -10.9,24.2 -16.8,24.2zm6.1,-37.8c-1.3,0.8 -17.7,11.3 -15.5,20.6c1.8,7.8 6.7,14.3 9.2,15.1c2.8,1 10,-11.2 15.1,-23l2.5,-8.2l-5.9,-6.5l-5.4,2z" class="st3"/>
  </g>
  <g id="svg_7">
   <path id="svg_8" d="m84.8,113.6c0,0 10,14.6 13.2,36.1c3.1,21.5 1.9,24.7 1.5,25.1c-0.4,0.4 -0.5,1 -2.5,1c-2,0 -19.3,0 -19.9,0c-0.6,0 -1,0.1 -1.8,-1.8c-0.5,-1.3 -2,-5.2 -2.9,-7.7c-0.5,-1.2 -1.6,-2.1 -2.2,-2.1c-1.2,0 -2.5,0.1 -2.5,0.1s-2.9,7.8 -3.7,9.7c-0.8,1.9 -1.1,1.8 -1.8,1.8c-0.6,0 -17.9,0 -19.9,0c-2,0 -2.1,-0.6 -2.5,-1c-0.4,-0.4 -1.6,-3.6 1.5,-25.1c3.1,-21.5 13.2,-36.1 13.2,-36.1s13.8,-3.6 30.3,0z" class="st2"/>
   <path id="svg_9" d="m62.3,176.8c0,0 0,0 0,0l-20.1,0c-2,0 -2.7,-0.6 -3.1,-1.1c0,0 -0.1,-0.1 -0.1,-0.1c-1.9,-1.8 -0.4,-15.1 1.2,-26c3.1,-21.5 13.2,-36.4 13.3,-36.5c0.1,-0.2 0.4,-0.4 0.6,-0.4c0.6,-0.2 14.3,-3.7 30.9,0c0.3,0.1 0.5,0.2 0.6,0.4c0.1,0.1 10.2,15 13.3,36.5c1.6,10.9 3.1,24.2 1.2,26c0,0 -0.1,0.1 -0.1,0.1c-0.5,0.6 -1.1,1.1 -3.1,1.1l-19.8,0c-1.4,0 -2,-0.6 -2.7,-2.5c-0.5,-1.3 -2,-5.2 -2.9,-7.7c-0.3,-0.8 -1,-1.4 -1.2,-1.4c-0.6,0 -1.3,0 -1.8,0c-0.7,1.9 -2.8,7.5 -3.5,9.1c-0.8,1.9 -1.4,2.5 -2.7,2.5zm-21.8,-2.7c0.1,0.1 0.1,0.1 0.2,0.2c0.2,0.2 0.3,0.4 1.5,0.4l20.1,0c0,0 0.1,0 0.1,0c0.1,-0.1 0.3,-0.4 0.6,-1.1c0.7,-1.9 3.7,-9.6 3.7,-9.7c0.2,-0.4 0.5,-0.7 1,-0.7c0,0 1.4,-0.1 2.6,-0.1c0,0 0,0 0,0c1.2,0 2.6,1.2 3.2,2.8c0.9,2.5 2.4,6.4 2.9,7.7c0.3,0.7 0.5,1 0.6,1.1c0,0 0.1,0 0.1,0l0.1,0l19.8,0c1.2,0 1.4,-0.2 1.5,-0.4c0.1,-0.1 0.1,-0.1 0.2,-0.2c0.2,-0.5 1.2,-4 -1.7,-24.2c-2.8,-19.2 -11.3,-32.9 -12.8,-35.3c-14.4,-3.1 -26.8,-0.5 -29.1,0c-1.5,2.3 -10,16.1 -12.8,35.3c-3,20.1 -2,23.7 -1.8,24.2zm58.3,-0.1c0,0 0,0 0,0c0,0 0,0 0,0z" class="st3"/>
  </g>
  <path id="svg_10" d="m97.3,145.5c-3.7,-19.2 -12.5,-31.8 -12.5,-31.8c-16.6,-3.7 -30.4,0 -30.4,0s-8.8,12.7 -12.5,32c0.2,-0.2 13.3,-9.3 22.4,-8.6l2.9,2.4l2.9,-2.4l2.5,2.5l2.5,-2.6c0.1,0 11.8,-0.8 22.2,8.5z" class="st3"/>
  <g id="svg_11">
   <g id="svg_12">
    <polygon id="svg_13" points="64.9,126 67.6,124.5 64.9,122.9   " class="st0"/>
    <polygon id="svg_14" points="64.9,126.4 64.9,131 67.7,132.6 67.7,124.8   " class="st0"/>
    <polygon id="svg_15" points="65.1,122.6 67.9,124.3 70.1,123 70.1,119.7   " class="st0"/>
    <polygon id="svg_16" points="70.5,128.4 73.3,126.8 73.3,121.6 70.5,123.2   " class="st0"/>
    <polygon id="svg_17" points="70.5,129 70.5,134.2 73.3,135.8 73.3,130.7   " class="st0"/>
    <polygon id="svg_18" points="70.5,122.8 73.1,121.3 70.4,119.7   " class="st0"/>
   </g>
   <g id="svg_19">
    <polygon id="svg_20" points="64.7,125.8 67.4,124.3 64.7,122.7   " class="st4"/>
    <polygon id="svg_21" points="64.7,126.2 64.7,130.8 67.6,132.4 67.5,124.6   " class="st4"/>
    <polygon id="svg_22" points="64.9,122.4 67.7,124 69.9,122.8 69.9,119.5   " class="st4"/>
    <polygon id="svg_23" points="70.3,128.2 73.1,126.5 73.1,121.4 70.3,123   " class="st4"/>
    <polygon id="svg_24" points="70.3,128.8 70.3,134 73.1,135.6 73.1,130.4   " class="st4"/>
    <polygon id="svg_25" points="70.3,122.6 72.9,121 70.3,119.5   " class="st4"/>
   </g>
  </g>
  <g id="svg_26">
   <path id="svg_27" d="m50.3,149.8l0,-5.7l2.7,0c0.9,0 1.5,0.1 1.8,0.4c0.4,0.3 0.5,0.7 0.5,1.3c0,0.3 -0.1,0.6 -0.2,0.9c-0.1,0.2 -0.4,0.4 -0.7,0.5c0.3,0.1 0.5,0.2 0.7,0.4c0.1,0.2 0.2,0.5 0.2,0.9l0,0.8c0,0 0,0 0,0c0,0.2 0.1,0.3 0.2,0.4l0,0.2l-1.8,0c0,-0.1 -0.1,-0.3 -0.1,-0.4c0,-0.1 0,-0.2 0,-0.2l0,-0.6c0,-0.3 -0.1,-0.5 -0.2,-0.6c-0.1,-0.1 -0.3,-0.2 -0.6,-0.2l-0.8,0l0,2l-1.7,0l0,-0.1zm1.8,-3.2l0.8,0c0.3,0 0.5,0 0.6,-0.1c0.1,-0.1 0.2,-0.2 0.2,-0.4c0,-0.2 -0.1,-0.3 -0.2,-0.4c-0.1,-0.1 -0.3,-0.1 -0.6,-0.1l-0.8,0l0,1z" class="st1"/>
   <path id="svg_28" d="m56,147.7c0,-0.7 0.2,-1.2 0.6,-1.6c0.4,-0.4 1,-0.6 1.7,-0.6s1.3,0.2 1.7,0.6c0.4,0.4 0.6,0.9 0.6,1.6c0,0.7 -0.2,1.2 -0.6,1.7c-0.4,0.4 -1,0.6 -1.7,0.6c-0.7,0 -1.3,-0.2 -1.7,-0.6c-0.4,-0.4 -0.6,-1 -0.6,-1.7zm1.7,0c0,0.4 0.1,0.7 0.2,0.8c0.1,0.2 0.3,0.3 0.5,0.3c0.2,0 0.4,-0.1 0.5,-0.3c0.1,-0.2 0.2,-0.4 0.2,-0.8c0,-0.4 -0.1,-0.7 -0.2,-0.8c-0.1,-0.2 -0.3,-0.3 -0.5,-0.3c-0.2,0 -0.4,0.1 -0.5,0.3c-0.2,0.2 -0.2,0.4 -0.2,0.8z" class="st1"/>
   <path id="svg_29" d="m61.4,149.8l0,-5.7l1.6,0l0,1.9c0.2,-0.2 0.3,-0.3 0.5,-0.4c0.2,-0.1 0.4,-0.1 0.6,-0.1c0.5,0 1,0.2 1.3,0.6c0.3,0.4 0.5,0.9 0.5,1.6c0,0.7 -0.2,1.2 -0.5,1.6c-0.3,0.4 -0.8,0.6 -1.3,0.6c-0.3,0 -0.5,-0.1 -0.8,-0.2c-0.2,-0.1 -0.4,-0.3 -0.6,-0.5l0,0.5l-1.3,0l0,0.1zm1.6,-2c0,0.3 0.1,0.5 0.2,0.7s0.3,0.3 0.5,0.3c0.2,0 0.4,-0.1 0.5,-0.3c0.1,-0.2 0.2,-0.4 0.2,-0.7c0,-0.3 -0.1,-0.6 -0.2,-0.7c-0.1,-0.2 -0.3,-0.2 -0.5,-0.2c-0.2,0 -0.4,0.1 -0.5,0.2c-0.1,0.1 -0.2,0.3 -0.2,0.7z" class="st1"/>
   <path id="svg_30" d="m66.5,147.7c0,-0.7 0.2,-1.2 0.6,-1.6c0.4,-0.4 1,-0.6 1.7,-0.6c0.7,0 1.3,0.2 1.7,0.6c0.4,0.4 0.6,0.9 0.6,1.6c0,0.7 -0.2,1.2 -0.6,1.7c-0.4,0.4 -1,0.6 -1.7,0.6s-1.3,-0.2 -1.7,-0.6c-0.4,-0.4 -0.6,-1 -0.6,-1.7zm1.7,0c0,0.4 0.1,0.7 0.2,0.8c0.1,0.2 0.3,0.3 0.5,0.3c0.2,0 0.4,-0.1 0.5,-0.3c0.1,-0.2 0.2,-0.4 0.2,-0.8c0,-0.4 -0.1,-0.7 -0.2,-0.8c-0.1,-0.2 -0.3,-0.3 -0.5,-0.3c-0.2,0 -0.4,0.1 -0.5,0.3c-0.2,0.2 -0.2,0.4 -0.2,0.8z" class="st1"/>
   <path id="svg_31" d="m71.9,149.8l0,-5.7l1.6,0l0,1.9c0.2,-0.2 0.3,-0.3 0.5,-0.4s0.4,-0.1 0.6,-0.1c0.5,0 1,0.2 1.3,0.6c0.3,0.4 0.5,0.9 0.5,1.6c0,0.7 -0.2,1.2 -0.5,1.6c-0.3,0.4 -0.8,0.6 -1.3,0.6c-0.3,0 -0.5,-0.1 -0.8,-0.2s-0.4,-0.3 -0.6,-0.5l0,0.5l-1.3,0l0,0.1zm1.6,-2c0,0.3 0.1,0.5 0.2,0.7s0.3,0.3 0.5,0.3c0.2,0 0.4,-0.1 0.5,-0.3c0.1,-0.2 0.2,-0.4 0.2,-0.7c0,-0.3 -0.1,-0.6 -0.2,-0.7s-0.3,-0.2 -0.5,-0.2c-0.2,0 -0.4,0.1 -0.5,0.2c-0.1,0.1 -0.2,0.3 -0.2,0.7z" class="st1"/>
   <path id="svg_32" d="m77.3,149.8l0,-5.7l1.7,0l0,5.7l-1.7,0z" class="st1"/>
   <path id="svg_33" d="m79.7,147.7c0,-0.7 0.2,-1.2 0.6,-1.6c0.4,-0.4 1,-0.6 1.7,-0.6c0.7,0 1.3,0.2 1.7,0.6c0.4,0.4 0.6,0.9 0.6,1.6c0,0.7 -0.2,1.2 -0.6,1.7c-0.4,0.4 -1,0.6 -1.7,0.6s-1.3,-0.2 -1.7,-0.6c-0.4,-0.4 -0.6,-1 -0.6,-1.7zm1.7,0c0,0.4 0.1,0.7 0.2,0.8c0.1,0.2 0.3,0.3 0.5,0.3s0.4,-0.1 0.5,-0.3c0.1,-0.2 0.2,-0.4 0.2,-0.8c0,-0.4 -0.1,-0.7 -0.2,-0.8c-0.1,-0.2 -0.3,-0.3 -0.5,-0.3s-0.4,0.1 -0.5,0.3c-0.1,0.2 -0.2,0.4 -0.2,0.8z" class="st1"/>
   <path id="svg_34" d="m89.6,145.6l0,5.9l-1.6,0l0,-2.1c-0.2,0.2 -0.3,0.3 -0.5,0.4c-0.2,0.1 -0.4,0.1 -0.7,0.1c-0.5,0 -1,-0.2 -1.3,-0.6c-0.3,-0.4 -0.5,-0.9 -0.5,-1.6c0,-0.7 0.2,-1.2 0.5,-1.6c0.3,-0.4 0.8,-0.6 1.3,-0.6c0.3,0 0.5,0.1 0.7,0.2c0.2,0.1 0.4,0.3 0.6,0.5l0,-0.5l1.5,0l0,-0.1zm-1.6,2.1c0,-0.3 -0.1,-0.5 -0.2,-0.7s-0.3,-0.3 -0.5,-0.3c-0.2,0 -0.4,0.1 -0.5,0.2s-0.2,0.4 -0.2,0.7c0,0.3 0.1,0.6 0.2,0.7c0.1,0.2 0.3,0.2 0.5,0.2c0.2,0 0.4,-0.1 0.5,-0.2c0.1,0 0.2,-0.2 0.2,-0.6z" class="st1"/>
  </g>
  <g id="svg_35">
   <g id="svg_36">
    <path id="svg_37" d="m124,57.9c0,0 0,0 0,-0.1l-0.5,-2.9c-2,-10.1 -11,-42.1 -44.5,-40.6c-0.4,0 -0.7,0.1 -1.1,0.1l-40.9,5.5c-0.4,0 -0.7,0.1 -1.1,0.2c-32.7,7.3 -32.8,40.8 -32.1,50.9l0.3,2.7c0,0.1 0,0.2 0,0.2l0,0l1.4,14c2.6,19.2 22.3,32.5 43.8,29.7l42.7,-5.7c21.5,-2.9 37,-20.9 34.4,-40.1l-2.4,-13.9l0,0z" class="st2"/>
    <path id="svg_38" d="m43.4,119.1c-8.5,0 -16.8,-2.5 -23.7,-7.1c-8.5,-5.8 -14,-14.3 -15.2,-23.9l-1.4,-14c0,0 0,-0.1 0,-0.1l0,-0.1l-0.3,-2.7c-0.8,-10.4 -0.6,-44.7 33,-52.2l0.4,-0.1c0.2,0 0.5,-0.1 0.7,-0.1l40.9,-5.5c0.3,0 0.5,-0.1 0.8,-0.1l0.3,0c34.4,-1.5 43.6,31.4 45.6,41.5l0.5,3c0,0 0,0 0,0.1l2.4,13.9c2.7,19.9 -13.2,38.4 -35.3,41.4l-42.7,5.7c-2,0.2 -4,0.3 -6,0.3zm-38.2,-45.1l1.4,13.9c1.2,8.9 6.3,16.9 14.3,22.3c8.1,5.5 18.1,7.7 28.2,6.4l42.7,-5.7c21,-2.8 36,-20.3 33.5,-38.9l-2.3,-13.8c0,-0.1 0,-0.1 0,-0.2l0,-0.1l-0.5,-2.9c-1.9,-9.7 -10.7,-41.2 -43.4,-39.7l-0.3,0c-0.2,0 -0.5,0 -0.7,0.1l-40.9,5.5c-0.2,0 -0.4,0.1 -0.7,0.1l-0.3,0c-31.9,7.2 -32,40.1 -31.3,50l0.3,2.8c0,0.1 0,0.1 0,0.2z" class="st3"/>
   </g>
   <path id="svg_39" d="m123,57.4c0,0 0,0 0,-0.1l-0.5,-2.7c-1.9,-9.4 -10.5,-38.9 -43.4,-37.2c-0.3,0 -0.7,0.1 -1,0.1l-40.2,5.4c-0.3,0 -0.7,0.1 -1,0.2c-32.5,7.1 -32.8,38.1 -32.2,47.4l0.2,2.5c0,0.1 0,0.2 0,0.2l0,0l1.2,12.9c2.4,17.7 21.6,29.9 42.8,27.1l42,-5.6c21.2,-2.8 36.5,-19.7 34.2,-37.4l-2.1,-12.8l0,0z" class="st5"/>
   <path id="svg_40" d="m99.6,30.1c-14.4,9.6 -32.6,12.8 -37.7,13.5l0,0c0,0 -0.2,0 -0.5,0.1c-0.1,0 -0.1,0 -0.2,0c-0.1,0 -0.1,0 -0.2,0c-0.3,0 -0.5,0.1 -0.5,0.1l0,0c-5.1,0.6 -23.5,2.3 -39.9,-3.1c-18,-6 -11.8,36.4 -9.2,42c2.4,5 5.9,12.8 19.9,11.3c7.9,-1 13.3,-2.7 22.7,-10.8c5.2,-4.5 6.2,-6.5 11.5,-7.4c5.4,-0.5 6.9,1.1 13.1,4.1c11.2,5.4 16.8,5.6 24.7,4.4c13.9,-2.2 15.2,-10.7 16.2,-16.1c1.1,-6.1 -4.1,-48.7 -19.9,-38.1z" class="st6"/>
   <path id="svg_41" d="m62.8,84.8c-0.2,0 -0.3,0 -0.5,-0.1c-0.4,-0.3 -0.6,-0.8 -0.3,-1.3c0.1,-0.1 1.6,-2.5 4.2,-2.9c1.6,-0.3 3.1,0.2 4.7,1.4c0.4,0.3 0.5,0.9 0.2,1.3c-0.3,0.4 -0.9,0.5 -1.3,0.1c-1.1,-0.9 -2.2,-1.2 -3.2,-1.1c-1.8,0.3 -2.9,2 -2.9,2.1c-0.3,0.4 -0.6,0.5 -0.9,0.5z" class="st1"/>
   <g id="svg_42">
    <g id="svg_43">
     <path id="svg_44" d="m96.5,73.6c4.6,-0.6 8.9,-0.6 12.5,-0.1c1.9,-2.4 3.4,-5.3 4.1,-8.6c2.3,-10.5 -3.6,-20.7 -13.2,-22.8c-9.6,-2.1 -19.3,4.7 -21.6,15.2c-1.7,7.6 1,15.1 6.3,19.5c3.3,-1.5 7.4,-2.6 11.9,-3.2z" class="st7"/>
     <path id="svg_45" d="m109.1,74.1c-0.1,0 -0.1,0 -0.2,0c-3.6,-0.5 -7.9,-0.4 -12.3,0.1c-4.3,0.6 -8.4,1.6 -11.7,3c-0.2,0.1 -0.5,0.1 -0.7,-0.1c-5.7,-4.6 -8.3,-12.5 -6.6,-20.2c2.4,-10.7 12.4,-17.8 22.4,-15.6c10,2.2 16.2,12.8 13.8,23.6c-0.7,3.3 -2.2,6.4 -4.3,8.9c-0.1,0.2 -0.2,0.3 -0.4,0.3zm-12.7,-1.2c4.4,-0.6 8.6,-0.7 12.2,-0.2c1.8,-2.3 3.1,-5.1 3.7,-8c2.2,-10.1 -3.5,-19.9 -12.7,-21.9c-9.2,-2 -18.5,4.5 -20.7,14.6c-1.5,7 0.7,14.2 5.8,18.5c3.4,-1.4 7.4,-2.5 11.7,-3z" class="st1"/>
     <path id="svg_46" d="m89.5,75c2.2,-0.6 4.5,-1.1 7,-1.4c1.8,-0.2 3.5,-0.4 5.1,-0.4c2.1,-1.7 3.7,-4.1 4.3,-7c1.5,-6.6 -2.7,-13.2 -9.3,-14.6c-6.6,-1.4 -13.1,2.8 -14.6,9.4c-1.2,5.9 2.1,11.8 7.5,14z" class="st8"/>
     <ellipse id="svg_47" ry="8.9" rx="8.9" cy="63.1" cx="94.4" class="st9" transform="matrix(0.9911,-0.1329,0.1329,0.9911,-7.5422,13.1026) "/>
     <ellipse id="svg_48" ry="8.9" rx="8.9" cy="63.1" cx="94.4" class="st10" transform="matrix(0.9911,-0.1329,0.1329,0.9911,-7.5422,13.1026) "/>
     <ellipse id="svg_49" ry="3.1" rx="3.1" cy="58.1" cx="98.7" class="st7" transform="matrix(0.9911,-0.1329,0.1329,0.9911,-6.8466,13.6233) "/>
     <path id="svg_50" d="m112.6,76.9c0.7,0.2 1.1,-0.1 1.1,-0.8c0,-1.6 -1,-2.2 -1,-2.2c-4.5,-1.2 -10.7,-1.4 -17.4,-0.4c-6.4,1 -12,3 -15.9,5.4c0,0 19.3,-6.9 33.2,-2z" class="st11"/>
    </g>
    <ellipse id="svg_51" ry="1.5" rx="1.5" cy="64.7" cx="92.6" class="st7" transform="matrix(0.9911,-0.1329,0.1329,0.9911,-7.7743,12.8754) "/>
   </g>
   <g id="svg_52">
    <g id="svg_53">
     <path id="svg_54" d="m35.1,81.8c-4.6,0.6 -8.8,1.7 -12.1,3.1c-2.5,-1.8 -4.7,-4.3 -6.2,-7.2c-5,-9.5 -1.9,-20.9 6.8,-25.5s19.8,-0.5 24.8,9c3.6,6.9 3,14.9 -1,20.4c-3.5,-0.4 -7.8,-0.4 -12.3,0.2z" class="st7"/>
     <path id="svg_55" d="m22.6,85.5c-2.6,-1.9 -4.9,-4.5 -6.4,-7.5c-5.2,-9.8 -2,-21.7 7.1,-26.4c9.1,-4.7 20.6,-0.6 25.8,9.3c3.6,6.9 3.2,15.2 -1,21.2c-0.2,0.2 -0.4,0.3 -0.7,0.3c-3.6,-0.5 -7.8,-0.4 -12.1,0.2c-4.4,0.6 -8.5,1.7 -11.9,3.1c-0.1,0 -0.1,0 -0.2,0.1c-0.2,-0.1 -0.4,-0.2 -0.6,-0.3zm24.4,-4.6c3.7,-5.5 4,-13 0.7,-19.4c-4.8,-9.1 -15.5,-13 -23.8,-8.7c-8.4,4.4 -11.3,15.4 -6.5,24.5c1.4,2.7 3.4,5 5.7,6.8c3.4,-1.4 7.5,-2.4 11.9,-3c4.3,-0.6 8.4,-0.7 12,-0.2z" class="st1"/>
     <path id="svg_56" d="m42.2,81.3c-2.2,0 -4.6,0.2 -7.1,0.5c-1.8,0.2 -3.5,0.5 -5.1,0.9c-2.5,-1.1 -4.6,-3 -6,-5.6c-3.2,-6 -0.9,-13.5 5.1,-16.6c6,-3.1 13.4,-0.8 16.5,5.3c2.9,5.4 1.3,12 -3.4,15.5z" class="st8"/>
     <ellipse id="svg_57" ry="8.9" rx="8.9" cy="71.1" cx="34.4" class="st9" transform="matrix(0.9911,-0.1329,0.1329,0.9911,-9.143,5.2001) "/>
     <ellipse id="svg_58" ry="8.9" rx="8.9" cy="71.1" cx="34.4" class="st10" transform="matrix(0.9911,-0.1329,0.1329,0.9911,-9.143,5.2001) "/>
     <ellipse id="svg_59" ry="3.1" rx="3.1" cy="67.5" cx="29" class="st7" transform="matrix(0.9911,-0.1329,0.1329,0.9911,-8.7063,4.4496) "/>
     <path id="svg_60" d="m20.5,89.2c-0.6,0.4 -1.1,0.2 -1.3,-0.5c-0.4,-1.5 0.4,-2.3 0.4,-2.3c4,-2.3 9.9,-4.2 16.6,-4.9c6.4,-0.7 12.4,-0.3 16.7,1c0.1,0 -20.3,-1.6 -32.4,6.7z" class="st11"/>
    </g>
    <ellipse id="svg_61" ry="1.5" rx="1.5" cy="72.2" cx="36.6" class="st7" transform="matrix(0.9911,-0.1329,0.1329,0.9911,-9.2686,5.5005) "/>
   </g>
   <path id="svg_62" d="m30,23.6c0,0 8.4,-1.8 13.7,-1.2c11.5,1.2 13.9,5.9 25.6,4.3c15,-2 -4.1,-9.4 9.8,-9.6c9.4,-0.1 -6.8,-20.4 -44,-14.1c-17.4,2.9 23.4,6.3 -5.1,20.6z" class="st12"/>
   <g id="svg_63">
    <g id="svg_64">
     <g id="svg_65">
      <path id="svg_66" d="m89,90.1c-0.1,-0.6 -0.2,-1.2 -0.5,-1.7c-0.2,-0.5 -0.6,-1 -1,-1.3c-0.5,-0.3 -1,-0.4 -1.6,-0.4c-0.6,0 -1.2,0.1 -1.8,0.2c0.5,-0.3 1.1,-0.6 1.7,-0.7c0.6,-0.1 1.3,-0.1 1.9,0.3c0.6,0.4 1,1 1.1,1.6c0.3,0.8 0.4,1.4 0.2,2z" class="st3"/>
     </g>
    </g>
    <g id="svg_67">
     <g id="svg_68">
      <path id="svg_69" d="m46.9,100.4c-0.5,-0.5 -0.8,-1 -1.1,-1.6c-0.1,-0.3 -0.2,-0.7 -0.2,-1c0,-0.4 0.2,-0.8 0.5,-1c0.6,-0.5 1.3,-0.6 2,-0.5c0.7,0 1.3,0.2 1.9,0.4c-0.7,0 -1.3,0 -1.9,0.1c-0.6,0.1 -1.2,0.2 -1.6,0.5c-0.4,0.3 -0.4,0.9 -0.3,1.5c0.2,0.4 0.4,1 0.7,1.6z" class="st3"/>
     </g>
    </g>
    <g id="svg_70">
     <path id="svg_71" d="m50.3,96.5c0,0 -4.3,3.1 9.8,4.9c0,0 -11.6,-2 -7.1,0.2c4.5,2.2 18.2,8.5 31,-7c0,0 1.7,-4.1 -7.7,3.6c0,0 13.9,-11.9 8,-11.2c0,0 4.8,-2.4 4.9,3.1c0,0 -2,-2.8 -3.1,2.7c-0.5,2.8 -3.7,9.2 -13.1,12.2c-8,2.6 -18.5,2.9 -26.1,-6.3c0,0 -0.8,-0.6 0,1.5c0.2,0 -3.9,-4.9 3.4,-3.7z" class="st0"/>
     <g id="svg_72">
      <path id="svg_73" d="m48.1,98.9c0,0 18.2,4.3 37.8,-9.8c0,0 1.5,12.2 -17.5,16.1c-5.5,1.1 -15.9,0.4 -20.3,-6.3z" class="st2"/>
      <g id="svg_74">
       <path id="svg_75" d="m63.8,106.1c-5.6,0 -12.6,-1.7 -16.1,-7l-0.6,-1l1.1,0.3c0.2,0 18.3,4.1 37.4,-9.7l0.6,-0.5l0.1,0.8c0,0.1 1.3,12.7 -17.8,16.6c-1.3,0.3 -3,0.5 -4.7,0.5zm-14.7,-6.6c4.6,5.7 14,6.3 19.2,5.2c15.7,-3.2 17.1,-12 17.1,-14.8c-16.4,11.6 -32,10.3 -36.3,9.6z" class="st3"/>
       <path id="svg_76" d="m86.3,88.3l0.1,0.8c0,0.1 1.3,12.7 -17.8,16.6c-1.4,0.3 -3,0.4 -4.8,0.4c-5.6,0 -12.6,-1.7 -16.1,-7l-0.6,-1l1.1,0.3c0.1,0 2.6,0.6 6.8,0.6c7,0 18.6,-1.6 30.6,-10.3l0.7,-0.4m-0.8,1.7c-12,8.4 -23.4,10 -30.5,10c-2.7,0 -4.7,-0.2 -5.9,-0.4c3.4,4.3 9.5,5.7 14.6,5.7c1.7,0 3.3,-0.2 4.6,-0.4c15.7,-3.3 17.1,-12.2 17.2,-14.9m1,-2.2l-0.3,0.2l-0.6,0.5c-11.9,8.5 -23.2,10.3 -30.6,10.3c-4.2,0 -6.7,-0.6 -6.7,-0.6l-1.1,-0.3l-0.6,-0.1l0.3,0.5l0.6,1c4.3,6.6 13.5,7.1 16.3,7.1c1.7,0 3.4,-0.2 4.8,-0.4c19.4,-4 18,-16.8 18,-16.9l-0.1,-0.8l0,-0.5l0,0zm-31.5,12.4c7.4,0 18.5,-1.7 30.2,-9.7c-0.2,3.1 -2.3,11.1 -16.9,14c-1.4,0.3 -3,0.4 -4.6,0.4c-2.9,0 -9.9,-0.5 -14,-5.1c1.3,0.2 3.1,0.4 5.3,0.4l0,0z" class="st13"/>
      </g>
     </g>
     <path id="svg_77" d="m57.1,104.9c0,0 10,-4.8 23.1,-4.4c0,0 -3.1,3 -11.1,4.8c-8,1.8 -12,-0.4 -12,-0.4z" class="st14"/>
    </g>
   </g>
  </g>
  <g id="svg_78">
   <g id="svg_79">
    <path id="svg_80" d="m113.4,86.7c0.2,2.8 -6.4,6.3 -8.6,16c-1,4.5 -10.5,9.8 -19.5,10.8c0,0 1.8,8.1 5.4,8.2c5.3,0.2 13.3,0.4 21.8,-0.7c8.1,-1.1 12.8,-3.1 14.7,-4.9c4.7,-4.4 5.1,-8.6 3.6,-19c-1,-6.5 -5.1,-6.6 -5.1,-6.6s2.1,-12.6 -5.5,-12.6c-7.2,0 -6.9,7.8 -6.8,8.8z" class="st2"/>
    <path id="svg_81" d="m97.9,123c-2.8,0 -5.3,-0.1 -7.3,-0.2c-4.2,-0.2 -6.1,-8.1 -6.4,-9c-0.1,-0.3 0,-0.6 0.2,-0.9c0.2,-0.2 0.4,-0.4 0.8,-0.4c9,-1 17.8,-6.3 18.6,-9.9c1.4,-6.1 4.5,-9.9 6.5,-12.5c1.1,-1.4 2.1,-2.6 2,-3.3c0,0 0,0 0,0c0,-0.5 -0.3,-4.9 2.3,-7.8c1.4,-1.5 3.3,-2.2 5.6,-2.2c1.9,0 3.5,0.7 4.6,2c2.5,3 2.3,8.5 2,10.8c1.6,0.5 4.2,2.1 5,7.3c1.5,10.6 1.2,15.2 -3.9,20c-2.4,2.3 -8,4.2 -15.3,5.2c-5.2,0.7 -10.3,0.9 -14.7,0.9zm-11.3,-8.5c0.7,2.5 2.3,6.2 4.1,6.3c5.3,0.2 13.3,0.4 21.7,-0.7c10,-1.3 13.3,-3.9 14.1,-4.6c4.2,-3.9 4.8,-7.5 3.2,-18.1c-0.8,-5.5 -3.9,-5.7 -4.1,-5.7c-0.3,0 -0.6,-0.2 -0.8,-0.4c-0.2,-0.2 -0.3,-0.5 -0.2,-0.8c0.3,-2 0.7,-7.6 -1.4,-10.1c-0.7,-0.9 -1.7,-1.3 -3,-1.3c-1.8,0 -3.1,0.5 -4,1.6c-2,2.2 -1.7,6.1 -1.7,6.1c0.1,1.5 -1,2.9 -2.5,4.8c-2,2.5 -4.8,6 -6.1,11.6c-1.2,4.6 -10.1,9.9 -19.3,11.3z" class="st3"/>
   </g>
   <g id="svg_82">
    <path id="svg_83" d="m113.9,106.2c-2,-6.9 0.1,-16.7 11.7,-15.7" class="st2"/>
    <path id="svg_84" d="m113.9,107.3c-0.5,0 -0.9,-0.3 -1,-0.8c-1.1,-3.9 -1.2,-9.4 2,-13.3c1.7,-2 4.9,-4.3 10.9,-3.8c0.6,0 1,0.6 1,1.1c0,0.6 -0.6,1 -1.1,1c-4.1,-0.3 -7.1,0.7 -9,3c-2.6,3.2 -2.5,8.1 -1.6,11.3c0.2,0.6 -0.2,1.2 -0.7,1.3c-0.3,0.2 -0.4,0.2 -0.5,0.2z" class="st3"/>
   </g>
  </g>
  <path id="svg_85" d="m68.7,163c-4.3,0 -8.3,-0.8 -11.6,-2.1c3,2.1 7.1,3.3 11.6,3.3s8.6,-1.3 11.6,-3.3c-3.3,1.3 -7.3,2.1 -11.6,2.1z" class="st1"/>
 </g>
</svg>