<svg xmlns="http://www.w3.org/2000/svg" xmlns:xlink="http://www.w3.org/1999/xlink" width="91.90780944824219" height="105.20907897949219" viewBox="0.592194938659668 0.3000000357627869 91.90780944824219 105.20907897949219" version="1.1" xml:space="preserve">
  <!-- Generator: Sketch 52.5 (67469) - http://www.bohemiancoding.com/sketch -->
  <g>
    <title>costume2.1</title>
    <desc>Created with Sketch.</desc>
    <g id="Page-1" stroke="none" fill-rule="evenodd">
      <g id="cotsume2">
        <g id="costume2.1">
          <g id="tail">
            <path d="M 12.25 67.3 C 9.15 59.5 10.85 52.5 6.55 52.9 C 2.15 53.3 -2.95 65 6.65 73.6 C 15.55 81.5 24.65 78.6 28.25 76.5 C 31.75 74.3 29.05 73.1 28.45 72.3 C 27.85 71.5 16.65 78.6 12.25 67.3 Z " stroke="#001026" stroke-width="1.2" fill="#FFAB19" stroke-linecap="round" stroke-linejoin="round"/>
            <path d="M 7.05 53.4 C 4.55 53 2.35 56.6 1.85 60.1 C 1.65 63.7 2.25 65.8 2.95 67.5 C 3.05 66.8 3.95 64.4 6.85 63.9 C 9.25 63.5 10.85 65.5 10.85 65.5 C 10.85 65.5 9.85 62.5 9.35 58.1 C 8.95 55.4 9.05 53.8 7.05 53.4 Z " id="detail" fill="#FFFFFF" stroke-width="1"/>
          </g>
          <path d="M 33.15 82.7 C 32.45 83.6 30.45 87.1 25.65 90.1 C 22.35 92.2 13.85 88.7 13.85 88.7 C 14.75 97.9 7.25 97.7 5.85 94.7 C 4.75 92.3 4.95 82 7.15 81.2 C 10.55 80 15.15 82 19.25 82 C 20.45 82 21.75 79.4 24.55 76.6 C 26.55 74.6 29.15 70.9 33.35 73.5 C 36.95 75.8 35.05 80 33.15 82.7 Z " id="leg" stroke="#001026" stroke-width="1.2" fill="#FFAB19" stroke-linecap="round" stroke-linejoin="round"/>
          <path d="M 50.35 61.5 C 50.65 63.7 50.85 72.1 53.25 73.4 C 55.55 74.6 62.55 72.6 62.95 77.5 C 63.35 82.3 56.85 82.4 51.45 80.9 C 44.45 79 41.25 68.3 45.25 61.7 C 46.75 59.4 50.05 59.2 50.35 61.5 Z " id="arm" stroke="#001026" stroke-width="1.2" fill="#FFAB19" stroke-linecap="round" stroke-linejoin="round"/>
          <g id="body-and-leg">
            <path d="M 42.45 77.8 C 43.65 76.9 45.45 74.5 47.05 72.1 C 48.35 70.2 49.75 66.5 49.75 66.5 C 50.65 64 51.25 59.2 47.95 59.3 C 45.75 59.4 43.75 59.1 40.35 58.6 C 34.35 57.4 33.15 56.2 30.75 60.7 C 26.25 69 20.25 74.9 28.45 79.7 C 30.45 80.9 33.65 82.9 36.45 84.9 C 38.45 86.8 35.45 90.9 33.35 93.3 C 32.45 94.4 32.45 96 33.55 97.1 C 40.85 104.2 43.05 106.7 45.85 103.6 C 49.65 99.4 43.65 95.3 43.65 95.3 C 43.65 95.3 48.45 87.8 47.85 84.5 C 47.15 81.3 42.45 77.8 42.45 77.8 Z " id="body" stroke="#001026" stroke-width="1.2" fill="#FFAB19" stroke-linecap="round" stroke-linejoin="round"/>
            <path d="M 46.9784 71.1029 C 46.9784 71.1029 48.8784 68.6029 44.5784 65.9029 C 40.0784 63.0029 38.3784 66.2029 36.5784 68.6029 C 34.5784 71.7029 36.5784 73.2029 38.5784 75.0029 C 40.1784 76.5029 41.6784 77.7029 41.6784 77.7029 C 41.6784 77.7029 44.7784 75.6029 46.9784 71.1029 Z " id="tummy" fill="#FFFFFF" stroke-width="1"/>
          </g>
          <path d="M 32.55 64.7 C 30.35 65.7 26.25 63.9 25.15 64.1 C 24.85 64.2 23.05 69.4 21.95 72.5 C 20.45 76.9 13.65 75.6 13.25 71 C 12.95 66.7 16.85 58.4 18.15 56.9 C 21.05 53.4 30.9092 56.2083 37.4963 57.9565 " id="arm" stroke="#001026" stroke-width="1.2" fill="#FFAB19" stroke-linecap="round" stroke-linejoin="round"/>
          <g id="head">
            <path d="M 50.1 9 C 47.8 8.6 45.4 8.4 42.6 8.6 C 37.9 8.8 33.4 10.5 33.4 10.5 L 21.3 2.6 C 20.9 2.4 20.4 2.7 20.5 3.1 L 22.6 21 C 23.2 20.2 12 33.8 19.1 45.2 C 26.2 56.6 41.3 61.7 60.1 58 C 78.9 54.3 83.3 43.5 82.1 37.8 C 80.9 32.1 73.8 30 73.8 30 C 73.8 30 73.7 25.5 70.5 20 C 68.6 16.7 62.2 12 62.2 12 L 59.6 1.3 C 59.5 0.9 59 0.8 58.7 1 L 50.1 9 Z " stroke="#001026" stroke-width="1.2" fill="#FFAB19"/>
            <path d="M 73.5 30.4 C 73.5 30.4 80.4 32.2 81.6 37.9 C 82.8 43.6 78 53.9 59.4 57.5 C 35.2 62.5 23.7 48.1 30.4 37.5 C 37.1 26.8 48.6 35.9 57 35.3 C 64.2 34.8 65 28.5 73.5 30.4 Z " id="face" fill="#FFFFFF" stroke-width="1"/>
            <path d="M 42 41.1 C 42 40.7 42.4 40.4 42.8 40.5 C 44.7 41.2 50.1 42.8 56.1 43.2 C 61.5 43.5 64.7 43.2 66.2 42.9 C 66.7 42.8 67.1 43.3 66.9 43.8 C 66 46.5 62.2 54 51.7 53.4 C 42.6 52.4 41.7 46 42 41.1 Z " id="mouth" stroke="#001026" stroke-width="1.2" fill="#FFFFFF" stroke-linecap="round" stroke-linejoin="round"/>
            <path d="M 80 35.4 C 80 35.4 87.2 35.3 91.9 31.5 " id="whisker" stroke="#001026" stroke-width="1.2" stroke-linecap="round" stroke-linejoin="round" fill="none"/>
            <path d="M 80.4 41.3 C 80.4 41.3 84.3 43.2 90.6 42.7 " id="whisker" stroke="#001026" stroke-width="1.2" stroke-linecap="round" stroke-linejoin="round" fill="none"/>
            <path d="M 56.6 32.7 C 58.7 32.7 60.9 32.9 61 33.6 C 61.1 35 59.6 37.8 58 37.9 C 56.2 38.1 52 35.6 52 34 C 51.9 32.8 54.6 32.7 56.6 32.7 Z " id="nose" stroke="#001026" stroke-width="1.2" fill="#001026" stroke-linecap="round" stroke-linejoin="round"/>
            <path d="M 11.6 31.2 C 11.6 31.2 20.2 34 23.7 37.1 " id="whisker" stroke="#001026" stroke-width="1.2" stroke-linecap="round" stroke-linejoin="round" fill="none"/>
            <path d="M 12.3 41.2 C 12.3 41.2 19.7 42.3 24 40.6 " id="whisker" stroke="#001026" stroke-width="1.2" stroke-linecap="round" stroke-linejoin="round" fill="none"/>
            <g id="eye">
              <path d="M 68.4 21 C 71.3 25.5 71.4 30.6 68.6 32.4 C 65.8 34.2 61.2 32.1 58.2 27.6 C 55.3 23.1 55.2 18 58 16.2 C 60.8 14.3 65.5 16.5 68.4 21 Z " id="pupil" stroke="#001026" stroke-width="1.2" fill="#FFFFFF" stroke-linecap="round" stroke-linejoin="round"/>
              <path d="M 68 26.7 C 68 27.8 67.2 28.7 66.2 28.7 C 65.2 28.7 64.4 27.8 64.4 26.7 C 64.4 25.6 65.2 24.7 66.2 24.7 C 67.2 24.7 68 25.6 68 26.7 " id="pupil" fill="#001026" stroke-width="1"/>
            </g>
            <g id="eye">
              <path d="M 43.6 23.8 C 46.6 28.2 46.4 33.6 43.7 35.5 C 40.4 37.4 36 36 33 31.6 C 29.9 27.2 29.7 21.5 32.8 19.3 C 35.9 17 40.6 19.4 43.6 23.8 Z " stroke="#001026" stroke-width="1.2" fill="#FFFFFF" stroke-linecap="round" stroke-linejoin="round"/>
              <path d="M 43 29.6 C 43 30.7 42.2 31.6 41.2 31.6 C 40.2 31.6 39.4 30.7 39.4 29.6 C 39.4 28.5 40.2 27.6 41.2 27.6 C 42.2 27.7 43 28.5 43 29.6 " id="pupil" fill="#001026" stroke-width="1"/>
            </g>
          </g>
        </g>
      </g>
    </g>
  </g>
</svg>