<svg width="234" height="159" xmlns="http://www.w3.org/2000/svg">
 <style type="text/css">.st0{fill:#26452A;}
	.st1{fill:#0C6C3C;}
	.st2{fill:#ADD3B2;}
	.st3{fill:#006939;}
	.st4{fill:#91B397;}
	.st5{fill:#C8DED0;}
	.st6{fill:#75BE72;}
	.st7{fill:#A8CDAD;}
	.st8{fill:#231815;}
	.st9{fill:#2B2F2E;}
	.st10{fill-rule:evenodd;clip-rule:evenodd;fill:#231815;}
	.st11{fill-rule:evenodd;clip-rule:evenodd;fill:#0C6C3C;}
	.st12{fill-rule:evenodd;clip-rule:evenodd;fill:#FFFFFF;}
	.st13{fill:#3D221B;}
	.st14{fill:#482922;}</style>

 <g>
  <title>background</title>
  <rect fill="none" id="canvas_background" height="402" width="582" y="-1" x="-1"/>
 </g>
 <g>
  <title>Layer 1</title>
  <g id="svg_1">
   <g id="svg_2">
    <path id="svg_3" d="m131.7,99.6c0,0 15,-2.2 23.1,4c8.2,6.2 17.6,14 25.8,15.7c8.3,1.7 37.1,-0.4 45.9,8.3c0,0 -1,14.2 -5.7,18.9c0,0 -5.3,-10 -14.7,-11.3c-5,-0.7 -10.3,3.2 -15.7,8.9c-7.1,7.4 -20.3,3.4 -25.1,5.9c-3,1.6 -3.1,2.8 -5.9,4.9c-4.5,3.3 -9.1,3.8 -9.1,3.8s-8.5,-20.5 -18.1,-30c-9.8,-9.7 -37.9,-28.1 -37.9,-28.1l15.7,-9.2l18.3,5.2l3.4,3z" class="st0"/>
    <path id="svg_4" d="m226.5,127.5c-8.7,-8.7 -37.6,-6.6 -45.9,-8.3c-8.3,-1.7 -17.7,-9.5 -25.8,-15.7c-8.2,-6.2 -23.1,-4 -23.1,-4l-3.4,-3.1l-10.1,-2.9c-3,10.2 14.6,6.6 14.6,6.6s14.9,2.2 25.4,15c7.5,9.2 16,13.3 23.7,15.4c11,3.1 14.2,1.3 21.2,3.1c12,2.9 17.2,13.6 17.2,13.6c7.9,-6.3 6.2,-19.7 6.2,-19.7z" class="st1"/>
   </g>
   <g id="svg_5">
    <path id="svg_6" d="m139.9,101.4c0,0 10.3,15 10.3,27.4c0,12.4 -2.9,21.7 -18.1,28.9c0,0 -13,-3.3 -7.3,-11.2c4.4,-6.2 3.6,-8.4 3.6,-8.4s0.9,4.9 -5.5,4.3c-2.5,-0.2 -2.9,-0.7 -2.9,-0.7s-0.9,2.8 -3.4,4.4c-2.6,1.6 -6.8,1.9 -9.3,-0.2c-4.9,-4.1 -11.7,-13.7 -2.7,-20.7c0,0 -2.3,-7.5 5.9,-18.5l4.7,-3.3l18.8,-1.9l5.9,0" class="st2"/>
    <path id="svg_7" d="m132.1,158.6c-0.1,0 -0.1,0 -0.2,0c-0.3,-0.1 -7.4,-1.9 -9.1,-6.4c-0.7,-1.9 -0.3,-4 1.2,-6.2c0.8,-1.1 1.4,-2.1 1.9,-2.9c-0.9,0.2 -1.9,0.3 -3.2,0.2c-1.1,-0.1 -1.8,-0.2 -2.4,-0.4c-0.5,1.1 -1.6,2.8 -3.4,4c-2.8,1.8 -7.5,2.1 -10.4,-0.3c-3.7,-3.1 -7.6,-8.3 -7.4,-13.5c0.1,-3.1 1.5,-5.9 4.3,-8.2c-0.4,-2.1 -0.9,-9.1 6.2,-18.7c0.1,-0.1 0.1,-0.1 0.2,-0.2l4.7,-3.3c0.1,-0.1 0.3,-0.1 0.4,-0.2l18.8,-1.9c0,0 0.1,0 0.1,0l6.1,0c0.3,0 0.6,0.1 0.7,0.4c0.4,0.6 10.4,15.4 10.4,27.9c0,12.9 -3.1,22.3 -18.6,29.7c-0.1,0 -0.2,0 -0.3,0zm-3.1,-18.3c-0.4,1.5 -1.4,3.6 -3.5,6.7c-1.2,1.7 -1.5,3.2 -1,4.6c1,2.8 5.5,4.6 7.5,5.2c14.4,-6.9 17.3,-15.8 17.3,-27.9c0,-10.9 -8.3,-24.1 -9.9,-26.5l-5.6,0l-18.5,1.9l-4.4,3.1c-7.6,10.4 -5.7,17.5 -5.6,17.6c0.1,0.4 0,0.7 -0.3,1c-2.6,2 -4,4.4 -4.1,7.2c-0.1,4.6 3.6,9.4 6.8,12.1c2.2,1.9 6,1.5 8.2,0.1c2.2,-1.3 3,-3.9 3,-3.9c0.1,-0.3 0.3,-0.5 0.6,-0.6c0.3,-0.1 0.5,0 0.8,0.1c0.1,0 0.7,0.3 2.5,0.5c1.9,0.2 3.3,-0.1 4,-0.9c0.2,-0.2 0.4,-0.5 0.4,-0.8c0.1,-0.4 0.1,-0.6 0.2,-0.9c0,-0.4 0,-0.6 0,-0.7c-0.1,-0.5 0.2,-0.9 0.6,-1c0.5,-0.1 0.9,0.1 1.1,0.6c0.1,0.2 0.1,0.5 0.1,1.2c0,0.4 0,0.8 -0.2,1.3zm-9.2,1.4l0,0l0,0z" class="st3"/>
   </g>
   <path id="svg_8" d="m115,103.3l-1.9,1.4l-2.8,2c-0.3,0.4 -0.5,0.8 -0.8,1.1c-0.1,0.2 -0.3,0.4 -0.4,0.6c-0.1,0.1 -0.2,0.3 -0.3,0.4c-5.2,8.1 -4.8,13.9 -4.5,15.7c6.7,-5.2 12.8,-6.1 15,-6.6l3,1.8l2.7,-2l2.4,1.9l2.9,-2c0,0 13.3,6 19.8,14.1c0,-1 0.1,-1.9 0.1,-3c0,-5 -1.7,-10.4 -3.6,-15.1c-1.2,-2.8 -2.4,-5.3 -3.5,-7.3c0,0 0,0 0,-0.1c-0.1,-0.2 -0.2,-0.4 -0.4,-0.6c-0.1,-0.1 -0.2,-0.3 -0.2,-0.4c0,-0.1 -0.1,-0.1 -0.1,-0.2c-1.4,-2.4 -2.3,-3.8 -2.3,-3.8l-6.1,0l-3.2,0.3l-15.8,1.8z" class="st3"/>
   <g id="svg_9">
    <path id="svg_10" d="m111.4,107c0,0 -0.1,0.2 -0.2,0.5c-0.9,2 -4.3,9.2 -9.8,13.7c-7.8,6.4 -11.7,4.6 -15.3,1.8c-3.4,-2.6 -7.6,-13.9 1.5,-16.2c8.8,-2.2 14,-0.6 14,-0.6" class="st2"/>
    <path id="svg_11" d="m92.1,126.4c-2.7,0 -4.7,-1.3 -6.5,-2.7c-2.3,-1.8 -5.1,-7.3 -4.2,-11.9c0.4,-2.1 1.8,-4.8 6,-5.9c8.9,-2.3 14.3,-0.7 14.5,-0.6c0.5,0.1 0.7,0.6 0.6,1.1c-0.1,0.5 -0.6,0.7 -1.1,0.6c0,0 -5.2,-1.5 -13.6,0.7c-2.6,0.7 -4.2,2.2 -4.7,4.5c-0.8,3.8 1.6,8.6 3.5,10.1c3.3,2.6 6.7,4.2 14.1,-1.8c5.4,-4.4 8.7,-11.3 9.6,-13.3c0.1,-0.3 0.2,-0.5 0.2,-0.5c0.2,-0.5 0.7,-0.7 1.2,-0.5c0.5,0.2 0.7,0.7 0.5,1.2c0,0 -0.1,0.2 -0.2,0.5c-0.9,2.1 -4.4,9.4 -10.1,14c-4.1,3.3 -7.3,4.5 -9.8,4.5z" class="st3"/>
   </g>
   <path id="svg_12" d="m89.7,113c1.3,2.3 3.4,3.8 5.8,2.4c1.1,-0.6 2,-1.2 2.3,-2.5c0.7,-2.4 0.6,-4.3 2.6,-6.1c-0.4,0.3 -1,0.4 -1.4,0.8c-1.4,1.2 -1.9,2.7 -2.3,4.4c-0.3,1.4 -0.4,2.7 -1.6,3.6c0.3,-0.2 0.6,-0.3 0.9,-0.5c-0.1,0.1 -0.3,0.2 -0.4,0.2c0.2,-0.1 0.3,-0.2 0.5,-0.3c-2.2,0.9 -4.1,-0.9 -5.1,-2.8c0.1,0 -1.3,0.8 -1.3,0.8l0,0z" class="st1"/>
   <path id="svg_13" d="m127.5,146c0,0 6.5,-2.3 7.4,3.8c0.5,3.4 -2.9,6.9 -2.9,6.9s5,-3.8 3.7,-8.1c-1.7,-5.5 -8.2,-2.6 -8.2,-2.6z" class="st3"/>
   <g id="svg_14">
    <path id="svg_15" d="m65.3,68.9c4.6,22.2 22.9,45.4 61.3,34.9c42.6,-11.6 41.1,-46.1 36.2,-59.7c-5.1,-14.3 -21.3,-39.7 -61.8,-29.3c-24.9,6.2 -41,28.4 -35.7,54.1z" class="st4"/>
    <path id="svg_16" d="m108.5,107.2c-8.7,0 -16.4,-2.1 -23.1,-6.2c-14.3,-8.7 -19.2,-23.8 -20.9,-32l0,0c-5.2,-25.2 10,-48.4 36.3,-55.1c18,-4.6 33.1,-2.7 44.9,5.5c10.7,7.5 15.8,18.4 17.9,24.3c3.1,8.5 4.3,23 -2.4,36c-6.2,11.9 -17.7,20.3 -34.3,24.8c-6.6,1.8 -12.7,2.7 -18.4,2.7zm-42.5,-38.5c1.6,7.9 6.4,22.5 20.2,30.9c10.7,6.6 24.2,7.7 40.2,3.4c16.1,-4.4 27.3,-12.5 33.3,-24c6.5,-12.5 5.3,-26.5 2.4,-34.7c-4.4,-12.2 -19.2,-39.5 -60.9,-28.8c-25.4,6.4 -40.2,28.8 -35.2,53.2l0,0z" class="st3"/>
   </g>
   <path id="svg_17" d="m72.3,70.3c7.2,26.8 21.2,43.7 57,33.5c39.6,-11.2 38,-45.6 33.4,-58.6c-5.3,-14.9 -19.8,-37.9 -57.2,-27c-27.4,8 -40.4,25.7 -33.2,52.1z" class="st5"/>
   <path id="svg_18" d="m125.2,99.8c9.2,-1.3 10.9,-6.3 10.3,-10.6l-0.3,-4.2c0,0 -3.8,4 -11,4.8c-7.2,0.8 -10.9,-0.9 -10.9,-0.9s-2.6,12.9 11.9,10.9z" class="st1"/>
   <path id="svg_19" d="m124.2,89.9c-4.5,0.5 -7.6,0 -9.3,-0.4c0,1.3 0.2,2.5 0.2,2.5s5.2,1.6 11.5,0.7c5.2,-0.8 7.7,-2.4 8.8,-4.4c0,0 0,0 0,-0.1l-0.3,-3.1c0.1,0 -3.7,4 -10.9,4.8z" class="st6"/>
   <g id="svg_20">
    <g id="svg_21">
     <polygon id="svg_22" points="121.6,110.4 122.9,109.5 121.5,108.8    " class="st0"/>
     <polygon id="svg_23" points="121.6,110.6 121.8,113 123.3,113.8 123.1,109.6    " class="st0"/>
     <polygon id="svg_24" points="121.6,108.6 123.1,109.3 124.2,108.6 124.1,106.9    " class="st0"/>
     <polygon id="svg_25" points="124.6,111.4 126.1,110.5 125.9,107.7 124.4,108.7    " class="st0"/>
     <polygon id="svg_26" points="124.6,111.8 124.8,114.5 126.4,115.2 126.2,112.5    " class="st0"/>
     <polygon id="svg_27" points="124.4,108.5 125.7,107.6 124.3,106.9    " class="st0"/>
    </g>
    <g id="svg_28">
     <polygon id="svg_29" points="121.5,110.3 122.8,109.4 121.4,108.7    " class="st7"/>
     <polygon id="svg_30" points="121.5,110.5 121.7,112.9 123.2,113.7 122.9,109.5    " class="st7"/>
     <polygon id="svg_31" points="121.5,108.5 123,109.2 124.1,108.5 124,106.8    " class="st7"/>
     <polygon id="svg_32" points="124.5,111.3 125.9,110.4 125.7,107.6 124.3,108.6    " class="st7"/>
     <polygon id="svg_33" points="124.5,111.7 124.7,114.4 126.3,115.1 126.1,112.4    " class="st7"/>
     <polygon id="svg_34" points="124.3,108.4 125.6,107.5 124.2,106.8    " class="st7"/>
    </g>
   </g>
   <path id="svg_35" d="m145.6,36.7c-12.2,10.7 -27.6,15.6 -31.9,16.9l0,0c0,0 -0.1,0 -0.4,0.1c-0.1,0 -0.1,0 -0.2,0c-0.1,0 -0.1,0 -0.2,0c-0.3,0.1 -0.4,0.1 -0.4,0.1l0,0c-4.3,1.1 -20.1,4.8 -36,1.9c-18.7,-3.4 -0.8,30.2 2.6,33.7c2.9,3 7.2,7.4 17.3,4.9c5.7,-1.5 9.5,-3.1 15.5,-9.5c3.4,-3.6 4,-5.1 8,-6.4c4.1,-1 5.3,0 10.2,1.3c8.5,2.4 12.5,1.9 18.2,0.2c10,-3 11.4,-9 12.3,-13.1c1.3,-4.6 -0.7,-42.6 -15,-30.1z" class="st8"/>
   <path id="svg_36" d="m117.8,84.3c-0.3,0 -0.6,0 -0.8,-0.2c-0.6,-0.4 -0.7,-1.1 -0.4,-1.6c0.1,-0.1 1.7,-2.1 4.7,-2.6c1.8,-0.3 3.7,-0.4 5.4,1c0.5,0.4 0.6,1.2 0.2,1.7c-0.4,0.5 -1.2,0.6 -1.7,0.2c-1.2,-0.9 -2.4,-1.3 -3.4,-1.2c-1.9,0.3 -3.1,2.2 -3.1,2.2c-0.2,0.2 -0.5,0.4 -0.9,0.5z" class="st1"/>
   <path id="svg_37" d="m125.2,99.8c2.8,-0.4 4.9,-1.1 6.5,-2.1c0,-0.1 -0.1,-0.1 -0.1,-0.1c0,-2.6 -2.6,-3.9 -5.1,-3.1c-4.3,1.4 -4.8,5.4 -4.8,5.4s-0.1,0 -0.1,0.1c1.1,0 2.3,0 3.6,-0.2z" class="st9"/>
   <g id="svg_38">
    <g id="svg_39">
     <path id="svg_40" d="m95.6,86.7c-2.8,0 -5.4,-1.2 -7.5,-3.6c-3.2,-3.5 -4.3,-8.7 -3,-13.3c0.9,-3.8 4.9,-5.5 8.4,-5.8c4.1,-0.4 9.2,0.9 11.1,4.9c1.8,4.3 1.8,9.1 -0.1,12.6c-1.5,2.7 -4,4.5 -7.2,5c-0.6,0.2 -1.2,0.2 -1.7,0.2zm-0.7,-22.3c-0.5,0 -1,0 -1.4,0.1c-3.3,0.3 -7.1,2 -8,5.5l0,0c-1.3,4.4 -0.1,9.4 2.9,12.9c2.4,2.7 5.5,3.8 8.7,3.3c3.1,-0.5 5.4,-2.2 6.8,-4.8c1.8,-3.4 1.9,-8.1 0.1,-12.2c-1.5,-3.4 -5.4,-4.8 -9.1,-4.8z" class="st8"/>
     <path id="svg_41" d="m85.3,69.9c1.7,-7.1 15.7,-7.9 19,-0.9c3,7 1,15.9 -7.1,17.3c-8.3,1.5 -14.3,-8.3 -11.9,-16.4z" class="st10"/>
    </g>
    <path id="svg_42" d="m95.1,65.2c8,-0.1 10.8,3 16,12.8c-2,-11.6 -9.7,-16.5 -18,-15.5c-7.4,0.9 -13,6.9 -12.8,15c-2.7,1.1 -4.9,0.7 -6.6,-1.4c0.9,3.5 5.6,6.5 9.2,6.3c-1.7,-10.7 3.9,-17.1 12.2,-17.2z" class="st11"/>
    <g id="svg_43">
     <path id="svg_44" d="m89.4,76.8c-1.4,0 -2.7,-1.1 -3,-2.6c-0.2,-0.9 0,-1.8 0.5,-2.5c0.4,-0.6 1.1,-1 1.8,-1.2c1.6,-0.3 3.1,0.9 3.5,2.7c0.1,0.8 0,1.7 -0.4,2.3c-0.4,0.7 -1.1,1.1 -1.8,1.3c-0.3,0 -0.5,0 -0.6,0zm-0.3,-5.9c-0.1,0 -0.3,0 -0.4,0c-0.6,0.1 -1.1,0.5 -1.5,1c-0.4,0.6 -0.6,1.4 -0.4,2.2c0.3,1.5 1.6,2.5 2.9,2.2l0,0c0.6,-0.1 1.2,-0.5 1.5,-1.1c0.4,-0.6 0.5,-1.3 0.4,-2c-0.2,-1.3 -1.3,-2.3 -2.5,-2.3z" class="st8"/>
     <path id="svg_45" d="m89.8,76.5c1.4,-0.3 2.4,-1.7 2.1,-3.3c-0.3,-1.6 -1.7,-2.7 -3.2,-2.5c-1.5,0.3 -2.4,1.8 -2.1,3.4c0.3,1.6 1.8,2.7 3.2,2.4z" class="st12"/>
    </g>
    <path id="svg_46" d="m82.8,82.4c2.5,5.6 9.2,8.7 15.4,7.7c4.2,-0.6 8.4,-3.1 10.9,-8.1c1.4,-2.8 1.2,-5.1 0.5,-6.4c-3.3,-6.1 -3.3,-5.1 -5.1,-6.7c3,7 0.7,16.1 -7.4,17.4c-8.3,1.4 -14.3,-8.3 -11.9,-16.4c0,0 0,-0.1 0,-0.1c-2.1,3 -3.1,7.3 -2.4,12.6c0.1,0 0.1,0 0,0z" class="st12"/>
   </g>
   <g id="svg_47">
    <path id="svg_48" d="m130.2,67.8c0.7,-3.2 -0.1,-4.7 -2.3,-3.2c3.2,-9.1 15.7,-17.1 25,-12.4c2.5,1.5 3.1,5 1.2,10.3c-0.6,3 3.7,0.9 4.7,-3.2c0.2,8.1 -6.7,9.2 -8.3,6c-0.9,-1.9 1.3,-5.4 1.4,-8.6c0.1,-2.6 -2.4,-3.6 -4.6,-1c-3,3.4 1.7,8.5 -5.3,14.7c-4.4,3.2 -13,3.7 -11.8,-2.6z" class="st10"/>
    <path id="svg_49" d="m128,64.6c-2,5.5 -0.3,9.4 5.3,11.3c7.9,2.3 13.8,-1.9 17.2,-10.7c-0.9,-1.9 1.4,-5.4 1.5,-8.6c0.1,-2.6 -2.4,-3.6 -4.6,-1c-3,3.4 1.7,8.5 -5.3,14.7c-4.4,3.4 -13,3.9 -11.8,-2.4c0.6,-3.3 -0.2,-4.8 -2.3,-3.3z" class="st12"/>
    <path id="svg_50" d="m158.8,59.2c-1,4.2 -5.3,6.2 -4.7,3.2c1.9,-5.2 1.3,-8.8 -1.2,-10.3c-9.3,-4.8 -21.8,3.3 -25,12.4c0,0 0.1,-0.1 0.1,-0.1c1.5,-3.4 4.7,-8 11.2,-10.9c8.9,-4 13.3,-0.4 13.8,0.5c1.4,2.7 -1.5,5.4 -2.5,8.9c-0.2,0.6 -0.3,1.2 -0.2,1.9c0,0.1 0.1,0.2 0.1,0.3c1.7,3.3 8.6,2.2 8.4,-5.9z" class="st11"/>
    <path id="svg_51" d="m133.5,63.3c1.6,0.2 3,-0.9 3.2,-2.5s-0.9,-3 -2.5,-3.2c-1.6,-0.2 -3,0.9 -3.2,2.5c-0.2,1.6 0.9,3 2.5,3.2z" class="st12"/>
   </g>
   <path id="svg_52" d="m114.7,30.7l0,0c0.5,-0.5 1,-1.1 1.6,-1.6c1.5,-1.7 3.1,-3.4 4.5,-4.8c2.9,-3 4.3,-5.9 5.1,-7.9c-0.4,-2.3 -3,-3.1 -4.5,-3.5c-2.5,-0.6 -9,-1.6 -12.1,-4.1c-4.3,-3.3 -10.6,-8.6 -15.1,-7.2c-4.5,1.4 -6.7,6.5 -8.4,13.7c-1.2,5.1 -5.5,8.7 -7.3,10.6c-1.1,1.1 -2.9,3.5 -1.5,5.8c1.8,1.2 4.8,2.9 9.3,3.6c3.2,0.5 7.2,1.2 10.6,2.1c2.4,0.2 5.3,-0.1 8.3,-1.1c4.2,-1.2 7.7,-3.4 9.5,-5.6z" class="st13"/>
   <path id="svg_53" d="m95.1,22.9c-1.4,-3.5 -2.7,-8.8 -2.6,-12.5c0.2,-3.4 1.6,-6.8 2.7,-9c-0.3,0 -0.6,0.1 -0.9,0.2c-4.5,1.4 -6.7,6.5 -8.4,13.7c-1.2,5.1 -5.5,8.7 -7.3,10.6c-0.4,0.5 -1,1.1 -1.4,1.9c3.8,1.7 8,1.7 11.6,1.1c4.7,-0.7 7,-4.2 6.3,-6z" class="st14"/>
   <g id="svg_54">
    <g id="svg_55">
     <path id="svg_56" d="m144.4,108.5c4.7,-1.2 34.1,-8.9 37,-19.3c1,-3.6 -0.1,-6.9 -1.3,-10c-2.3,-6 -7.4,-10.2 -14.6,-5.1c-4.2,2.9 -7.9,10.7 -10,12.9c-3.7,3.8 -9.6,12.4 -20.5,15.2c0,0 2.4,-0.1 5.7,2.1c3.3,2.2 3.5,4.2 3.7,4.2z" class="st2"/>
     <path id="svg_57" d="m144.3,109.4c-0.4,0 -0.7,-0.3 -1,-0.8c-0.2,-0.5 -0.9,-2 -3.3,-3.6c-2.9,-1.9 -5.1,-1.9 -5.1,-1.9c-0.5,0 -0.9,-0.3 -0.9,-0.8c-0.1,-0.5 0.2,-0.9 0.7,-1c8.9,-2.3 14.4,-8.6 18.1,-12.8c0.7,-0.8 1.4,-1.6 2,-2.2c0.7,-0.7 1.6,-2.2 2.7,-3.9c2,-3.2 4.6,-7.1 7.4,-9.1c3.2,-2.2 6.2,-2.9 9,-2.1c3,0.9 5.4,3.6 7,7.6c1.3,3.2 2.4,6.7 1.3,10.6c-3,10.7 -31.9,18.5 -37.6,19.9c-0.1,0.1 -0.2,0.1 -0.3,0.1zm-6,-7.3c0.8,0.3 1.8,0.8 2.8,1.5c2.4,1.6 3.4,3.1 3.8,3.9c5.6,-1.4 33,-9 35.7,-18.5c0.9,-3.3 -0.1,-6.5 -1.3,-9.5c-1.4,-3.5 -3.4,-5.8 -5.9,-6.5c-2.2,-0.7 -4.7,-0.1 -7.4,1.8c-2.6,1.8 -5,5.6 -7,8.6c-1.1,1.8 -2.1,3.3 -2.9,4.2c-0.6,0.6 -1.2,1.3 -1.9,2.1c-3.5,3.9 -8.3,9.4 -15.9,12.4z" class="st3"/>
    </g>
    <g id="svg_58">
     <path id="svg_59" d="m171.5,74.3c1,1.3 1.6,2.8 1.3,4.5c-0.6,3 -3.8,4.4 -6.5,5.2c-0.2,0.1 -0.4,0.3 -0.7,0.4c2.6,-0.8 5.9,-1.8 7.3,-4.1c1,-1.6 1,-4.2 -0.7,-6.4c-0.1,0 -0.7,0.4 -0.7,0.4l0,0z" class="st2"/>
     <path id="svg_60" d="m165.6,84.8c-0.2,0 -0.3,-0.1 -0.4,-0.3c-0.1,-0.2 0,-0.4 0.3,-0.5l0,0c0.1,0 0.1,-0.1 0.2,-0.1c0.1,-0.1 0.3,-0.2 0.4,-0.3c2.7,-0.9 5.6,-2.2 6.2,-4.9c0.4,-1.7 -0.5,-3.2 -1.2,-4.1c-0.1,-0.2 -0.1,-0.4 0.1,-0.5c0,0 0.1,-0.1 0.1,-0.1c0,0 0.1,-0.1 0.2,-0.1c0.4,-0.2 0.7,-0.4 0.9,-0.1c1.9,2.5 1.8,5.2 0.8,6.9c-1.4,2.3 -4.7,3.3 -7.3,4.2l-0.2,0.1l0,0c0,-0.2 -0.1,-0.2 -0.1,-0.2z" class="st3"/>
    </g>
   </g>
   <g id="svg_61">
    <path id="svg_62" d="m113.4,126.6l-0.4,-4.2l2,-0.2c0.6,-0.1 1.1,0 1.4,0.1c0.3,0.2 0.5,0.5 0.5,0.9c0,0.3 0,0.5 -0.1,0.7c-0.1,0.2 -0.2,0.3 -0.5,0.5c0.2,0 0.4,0.1 0.5,0.2s0.2,0.3 0.2,0.6l0.1,0.6c0,0 0,0 0,0c0,0.2 0.1,0.2 0.1,0.2l0,0.2l-1.4,0.1c0,-0.1 -0.1,-0.2 -0.1,-0.3c0,-0.1 0,-0.1 0,-0.2l0,-0.4c0,-0.2 -0.1,-0.4 -0.2,-0.4s-0.2,-0.1 -0.5,-0.1l-0.6,0.1l0.1,1.4l-1.1,0.2zm1.1,-2.6l0.6,-0.1c0.2,0 0.4,-0.1 0.4,-0.1c0.1,-0.1 0.1,-0.2 0.1,-0.3c0,-0.1 -0.1,-0.2 -0.2,-0.3c-0.1,0 -0.3,-0.1 -0.5,0l-0.6,0.1l0.2,0.7z" class="st1"/>
    <path id="svg_63" d="m117.4,124.6c0,-0.5 0.1,-0.9 0.4,-1.2c0.3,-0.3 0.7,-0.5 1.3,-0.5c0.5,0 1,0.1 1.3,0.4c0.3,0.3 0.5,0.7 0.5,1.2c0,0.5 -0.1,0.9 -0.4,1.2c-0.3,0.3 -0.7,0.5 -1.3,0.5c-0.5,0 -1,-0.1 -1.3,-0.4c-0.3,-0.3 -0.5,-0.7 -0.5,-1.2zm1.2,-0.1c0,0.3 0.1,0.5 0.1,0.6c0.1,0.1 0.2,0.2 0.4,0.2c0.2,0 0.3,-0.1 0.4,-0.2c0.1,-0.1 0.1,-0.3 0.1,-0.6c0,-0.3 -0.1,-0.5 -0.2,-0.6c-0.1,-0.1 -0.2,-0.2 -0.4,-0.2c-0.2,0 -0.3,0.1 -0.4,0.2c0,0.2 0,0.4 0,0.6z" class="st1"/>
    <path id="svg_64" d="m121.2,126l0.1,-4.2l1.2,0l0,1.4c0.1,-0.1 0.3,-0.2 0.4,-0.3c0.2,-0.1 0.3,-0.1 0.5,-0.1c0.4,0 0.7,0.2 1,0.5s0.4,0.7 0.3,1.2c0,0.5 -0.1,0.9 -0.4,1.2c-0.3,0.3 -0.6,0.4 -1,0.4c-0.2,0 -0.4,-0.1 -0.6,-0.1c-0.2,-0.1 -0.3,-0.2 -0.4,-0.4l0,0.4l-1.1,0zm1.3,-1.5c0,0.2 0,0.4 0.1,0.5c0.1,0.1 0.2,0.2 0.4,0.2c0.2,0 0.3,-0.1 0.4,-0.2c0.1,-0.1 0.1,-0.3 0.1,-0.5c0,-0.2 0,-0.4 -0.1,-0.5c-0.1,-0.1 -0.2,-0.2 -0.4,-0.2c-0.2,0 -0.3,0.1 -0.4,0.2s-0.1,0.3 -0.1,0.5z" class="st1"/>
    <path id="svg_65" d="m125,124.5c0.1,-0.5 0.3,-0.9 0.7,-1.1c0.4,-0.2 0.8,-0.3 1.3,-0.2c0.5,0.1 0.9,0.3 1.2,0.6c0.3,0.3 0.4,0.8 0.3,1.3c-0.1,0.5 -0.3,0.9 -0.7,1.1c-0.4,0.2 -0.8,0.3 -1.3,0.2c-0.5,-0.1 -0.9,-0.3 -1.2,-0.6c-0.3,-0.3 -0.4,-0.8 -0.3,-1.3zm1.2,0.2c0,0.3 0,0.5 0,0.6c0.1,0.1 0.2,0.2 0.4,0.2c0.2,0 0.3,0 0.4,-0.1c0.1,-0.1 0.2,-0.3 0.2,-0.6c0,-0.3 0,-0.5 0,-0.6s-0.2,-0.2 -0.4,-0.2c-0.2,0 -0.3,0 -0.4,0.1c0,0.1 -0.1,0.3 -0.2,0.6z" class="st1"/>
    <path id="svg_66" d="m128.5,126.7l1.1,-4.1l1.2,0.3l-0.4,1.4c0.2,-0.1 0.3,-0.2 0.5,-0.2c0.2,0 0.3,0 0.5,0c0.4,0.1 0.7,0.3 0.8,0.7c0.2,0.4 0.2,0.8 0.1,1.3c-0.1,0.5 -0.3,0.8 -0.7,1.1c-0.3,0.2 -0.7,0.3 -1.1,0.2c-0.2,-0.1 -0.4,-0.1 -0.5,-0.3c-0.1,-0.1 -0.3,-0.3 -0.3,-0.5l-0.1,0.4l-1.1,-0.3zm1.5,-1.2c-0.1,0.2 -0.1,0.4 0,0.5c0.1,0.1 0.2,0.2 0.3,0.3c0.2,0 0.3,0 0.4,-0.1c0.1,-0.1 0.2,-0.3 0.3,-0.5c0.1,-0.2 0.1,-0.4 0,-0.6c-0.1,-0.1 -0.2,-0.2 -0.3,-0.3c-0.2,0 -0.3,0 -0.4,0.1c-0.1,0.2 -0.2,0.4 -0.3,0.6z" class="st1"/>
    <path id="svg_67" d="m132.1,127.7l1.4,-4l1.2,0.4l-1.4,4l-1.2,-0.4z" class="st1"/>
    <path id="svg_68" d="m134.3,126.7c0.2,-0.5 0.5,-0.8 0.9,-0.9c0.4,-0.1 0.9,-0.1 1.4,0.2c0.5,0.2 0.8,0.6 1,1c0.2,0.4 0.1,0.8 -0.1,1.3c-0.2,0.5 -0.5,0.8 -0.9,0.9c-0.4,0.1 -0.9,0.1 -1.4,-0.2c-0.5,-0.2 -0.8,-0.6 -1,-1c-0.2,-0.4 -0.2,-0.8 0.1,-1.3zm1.1,0.6c-0.1,0.3 -0.2,0.5 -0.2,0.6c0,0.1 0.1,0.3 0.3,0.3c0.2,0.1 0.3,0.1 0.4,0c0.1,-0.1 0.3,-0.2 0.4,-0.5c0.1,-0.3 0.2,-0.5 0.2,-0.6c0,-0.1 -0.1,-0.3 -0.3,-0.3c-0.2,-0.1 -0.3,-0.1 -0.4,0c-0.2,0 -0.3,0.2 -0.4,0.5z" class="st1"/>
    <path id="svg_69" d="m141.4,129.4l-2.8,3.4l-0.9,-0.8l1,-1.2c-0.2,0 -0.3,0 -0.5,0c-0.2,0 -0.3,-0.1 -0.5,-0.2c-0.3,-0.3 -0.5,-0.6 -0.5,-1c0,-0.4 0.2,-0.8 0.5,-1.2c0.3,-0.4 0.7,-0.6 1,-0.7c0.4,-0.1 0.7,0 1.1,0.3c0.2,0.1 0.3,0.3 0.4,0.4c0.1,0.2 0.1,0.4 0.1,0.6l0.3,-0.3l0.8,0.7zm-1.9,0.4c0.1,-0.2 0.2,-0.3 0.2,-0.5c0,-0.2 0,-0.3 -0.2,-0.4c-0.1,-0.1 -0.3,-0.1 -0.4,-0.1c-0.1,0 -0.3,0.2 -0.4,0.3c-0.2,0.2 -0.2,0.4 -0.2,0.5c0,0.1 0.1,0.3 0.2,0.4c0.1,0.1 0.3,0.1 0.4,0.1c0.1,0 0.3,-0.1 0.4,-0.3z" class="st1"/>
   </g>
   <g id="svg_70">
    <path id="svg_71" d="m115.8,125.2c-3.7,-2.3 -9.9,-1.1 -13.1,1.5c-6.4,6.8 -0.2,15.3 4.4,19.2c2.5,2.1 6.7,1.8 9.3,0.2c2.5,-1.5 3.4,-4.4 3.4,-4.4s0,0 0,0c1.5,-7.3 -0.8,-14.5 -4,-16.5z" class="st3"/>
    <path id="svg_72" d="m115.4,126c-3.6,-2.2 -9.7,-1 -12.8,1.5c-6.2,6.5 -0.2,14.7 4.3,18.4c2.4,2 6.5,1.8 9.1,0.2c2.4,-1.5 3.3,-4.2 3.3,-4.2s0,0 0,0c1.4,-7 -0.7,-13.9 -3.9,-15.9z" class="st2"/>
   </g>
  </g>
 </g>
</svg>