<svg xmlns="http://www.w3.org/2000/svg" xmlns:xlink="http://www.w3.org/1999/xlink" version="1.1" width="133.22123052864362" height="72.44370367317487" viewBox="1.105124105070589 1.2271251569733599 133.22123052864362 72.44370367317487">
  <!-- Exported by Scratch - http://scratch.mit.edu/ -->
  <path id="Back_Leg2" fill="#E29339" stroke="#000000" stroke-width="1.5283136585264248" stroke-linejoin="round" d="M 57.438 63.6846 C 50.8982 61.2105 38.033 55.7513 41.7158 49.6646 C 45.3978 43.5788 61.262 58.3557 65.2428 59.7813 C 65.2428 59.7813 70.4104 56.0333 70.7813 59.7866 C 71.153 63.54 66.2294 62.9423 66.2294 62.9423 C 66.2294 62.9423 71.8819 63.3136 69.9205 66.8605 C 67.9592 70.4075 65.485 67.5774 64.8573 66.4388 C 64.8573 66.4388 66.7586 69.9814 64.1226 70.9381 C 61.4858 71.894 59.9826 68.3603 61.9963 66.2644 C 61.9963 66.2644 60.6242 64.8898 57.438 63.6846 L 57.438 63.6846 L 57.438 63.6846 L 57.438 63.6846 L 57.438 63.6846 L 57.438 63.6846 Z "/>
  <path id="Back_Leg1" fill="#E29339" stroke="#000000" stroke-width="1.5283136585264248" stroke-linejoin="round" d="M 57.7911 17.6133 C 51.8669 20.9825 39.0347 24.4249 42.788 30.4667 C 46.5414 36.5079 61.6777 22.8978 65.6408 21.4244 C 65.6408 21.4244 70.8525 25.111 71.1784 21.3533 C 71.5051 17.5956 66.5901 18.2523 66.5901 18.2523 C 66.5901 18.2523 72.2385 17.816 70.234 14.2916 C 68.2318 10.7674 65.791 13.6271 65.1773 14.7724 C 65.1773 14.7724 67.0368 11.2079 64.3891 10.283 C 61.7414 9.3581 60.2793 12.9086 62.3187 14.9805 C 62.3179 14.9797 60.2519 16.2126 57.7911 17.6133 L 57.7911 17.6133 L 57.7911 17.6133 L 57.7911 17.6133 L 57.7911 17.6133 L 57.7911 17.6133 Z "/>
  <path id="Front_Leg2" fill="#E29339" stroke="#000000" stroke-width="1.5283136585264248" stroke-linejoin="round" d="M 101.1291 9.4723 C 95.2049 12.8416 82.372 16.2839 86.126 22.3258 C 89.8794 28.3676 105.0149 14.7568 108.9788 13.2835 C 108.9788 13.2835 114.1897 16.9699 114.5156 13.2123 C 114.8423 9.4546 109.9273 10.1113 109.9273 10.1113 C 109.9273 10.1113 115.5758 9.675 113.5713 6.1506 C 111.5691 2.6264 109.1274 5.4861 108.5138 6.6314 C 108.5138 6.6314 110.3733 3.0669 107.7256 2.142 C 105.0779 1.2171 103.6165 4.7675 105.6551 6.8395 C 105.6559 6.8387 103.5891 8.0715 101.1291 9.4723 L 101.1291 9.4723 L 101.1291 9.4723 L 101.1291 9.4723 L 101.1291 9.4723 L 101.1291 9.4723 Z "/>
  <path id="Front_Leg1" fill="#E29339" stroke="#000000" stroke-width="1.5283136585264248" stroke-linejoin="round" d="M 105.577 59.5748 C 99.322 56.8691 88.8535 48.6868 86.285 55.3194 C 83.7157 61.9519 103.6931 65.8577 107.2547 68.1377 C 107.2547 68.1377 107.4432 74.5185 110.6424 72.5186 C 113.8408 70.5202 110.3592 66.9876 110.3592 66.9876 C 110.3592 66.9876 114.1051 71.2382 115.7158 67.5167 C 117.3265 63.7975 113.5737 63.5666 112.2899 63.766 C 112.2899 63.766 116.2552 63.1072 115.4023 60.436 C 114.5487 57.7641 110.8324 58.7321 110.4037 61.6073 C 110.4036 61.608 108.1759 60.6982 105.577 59.5748 L 105.577 59.5748 L 105.577 59.5748 L 105.577 59.5748 L 105.577 59.5748 L 105.577 59.5748 Z "/>
  <path id="Body" fill="#E29339" stroke="#000000" stroke-width="1.5283136585264248" d="M 102.8503 21.5483 C 96.5398 17.2117 83.3817 22.503 75.2125 23.2114 C 70.9323 23.5823 64.14 18.8604 56.4494 19.4484 C 45.1077 20.3141 33.4108 26.1178 33.5001 39.5133 C 33.5894 52.9081 44.1291 60.908 58.5341 61.6275 C 67.2818 62.0651 70.5933 56.6787 75.5046 56.3247 C 81.8942 55.8643 91.0979 58.831 99.5241 54.4702 C 103.5172 52.4038 108.6159 44.0145 108.5701 36.8705 C 108.8235 30.1469 105.7237 23.5232 102.8503 21.5483 L 102.8503 21.5483 L 102.8503 21.5483 L 102.8503 21.5483 L 102.8503 21.5483 L 102.8503 21.5483 Z "/>
  <path id="Whisker6" fill="none" stroke="#000000" stroke-width="1.5283136585264248" stroke-linecap="round" d="M 120.3372 17.7392 L 123.5698 9.6994 "/>
  <path id="Whisker5" fill="none" stroke="#000000" stroke-width="1.5283136585264248" stroke-linecap="round" d="M 123.6223 19.4031 L 128.756 12.9866 "/>
  <path id="Whisker4" fill="none" stroke="#000000" stroke-width="1.5283136585264248" stroke-linecap="round" d="M 127.0124 21.7531 L 133.1885 19.9579 "/>
  <path id="Whisker3" fill="none" stroke="#000000" stroke-width="1.5283136585264248" stroke-linecap="round" d="M 121.8341 55.6093 L 125.7223 61.7449 "/>
  <path id="Whisker2" fill="none" stroke="#000000" stroke-width="1.5283136585264248" stroke-linecap="round" d="M 124.9991 53.4398 L 131.0893 58.9557 "/>
  <path id="Whisker1" fill="none" stroke="#000000" stroke-width="1.5283136585264248" stroke-linecap="round" d="M 127.1783 51.315 L 133.5622 52.1016 "/>
  <path id="Head" fill="#E29339" stroke="#000000" stroke-width="1.5283136585264248" stroke-linejoin="round" d="M 96.9874 52.0208 C 96.9874 52.0208 114.5802 70.5626 121.8341 55.6093 C 121.8341 55.6093 129.0904 55.4041 129.4996 37.4659 C 129.8505 22.0895 126.6678 21.3004 122.1589 19.0138 C 122.1206 18.9948 122.0473 18.9507 122.0473 18.9507 C 122.0473 18.9507 117.5053 3.4626 95.9496 20.9609 "/>
  <g id="L_Eye">
    <path id="White" fill="#FFFFFF" stroke="#000000" d="M 121.1305 47.0908 C 121.1575 46.373 121.4737 45.7341 121.9619 45.2807 C 122.4507 44.8281 123.1116 44.5609 123.8294 44.5879 C 124.5472 44.615 125.186 44.9312 125.6394 45.4193 C 126.0921 45.9082 126.3593 46.569 126.3322 47.2868 C 126.3052 48.0046 125.989 48.6435 125.5008 49.0969 C 125.0119 49.5495 124.3511 49.8167 123.6333 49.7897 C 122.9155 49.7626 122.2767 49.4464 121.8233 48.9583 C 121.3706 48.4694 121.1034 47.8086 121.1305 47.0908 L 121.1305 47.0908 L 121.1305 47.0908 L 121.1305 47.0908 L 121.1305 47.0908 Z " stroke-width="0.7641568292632124"/>
    <path id="Pupil" d="M 122.6307 46.5654 C 122.6476 46.1179 122.8446 45.7193 123.1497 45.4371 C 123.454 45.1542 123.8663 44.9877 124.3138 45.0046 C 124.7613 45.0214 125.1599 45.2185 125.442 45.5235 C 125.725 45.8278 125.8914 46.2401 125.8746 46.6876 C 125.8577 47.1351 125.6607 47.5337 125.3556 47.8159 C 125.0513 48.0988 124.639 48.2653 124.1915 48.2484 C 123.744 48.2315 123.3454 48.0345 123.0633 47.7295 C 122.7803 47.4252 122.6139 47.0128 122.6307 46.5654 L 122.6307 46.5654 L 122.6307 46.5654 L 122.6307 46.5654 L 122.6307 46.5654 Z " stroke-width="0.7641568292632124" fill="undefined"/>
  </g>
  <g id="R_Eye">
    <path id="White_1_" fill="#FFFFFF" stroke="#000000" d="M 122.0249 26.564 C 122.052 25.8462 122.3682 25.2074 122.8563 24.7539 C 123.3452 24.3013 124.006 24.0341 124.7238 24.0612 C 125.4416 24.0882 126.0805 24.4044 126.5339 24.8925 C 126.9865 25.3814 127.2537 26.0423 127.2267 26.7601 C 127.1996 27.4778 126.8834 28.1167 126.3953 28.5701 C 125.9064 29.0227 125.2456 29.29 124.5278 29.2629 C 123.81 29.2358 123.1711 28.9197 122.7177 28.4315 C 122.2651 27.9426 121.9979 27.2818 122.0249 26.564 L 122.0249 26.564 L 122.0249 26.564 L 122.0249 26.564 L 122.0249 26.564 Z " stroke-width="0.7641568292632124"/>
    <path id="Pupil_1_" d="M 123.5252 26.0386 C 123.5421 25.5911 123.7391 25.1925 124.0441 24.9104 C 124.3484 24.6274 124.7608 24.461 125.2082 24.4778 C 125.6557 24.4947 126.0544 24.6917 126.3365 24.9968 C 126.6194 25.3011 126.7859 25.7134 126.769 26.1609 C 126.7522 26.6083 126.5551 27.007 126.2501 27.2891 C 125.9458 27.5721 125.5335 27.7385 125.086 27.7217 C 124.6385 27.7048 124.2399 27.5078 123.9577 27.2027 C 123.6748 26.8984 123.5083 26.4861 123.5252 26.0386 L 123.5252 26.0386 L 123.5252 26.0386 L 123.5252 26.0386 L 123.5252 26.0386 Z " stroke-width="0.7641568292632124" fill="undefined"/>
  </g>
  <path id="Nose" fill="#EC008C" stroke="#000000" stroke-width="1.3098180781872348" d="M 128.5109 37.3813 C 128.5492 36.365 128.7675 35.4517 129.0891 34.7963 C 129.4108 34.14 129.8363 33.7431 130.2882 33.7602 C 130.74 33.7772 131.1345 34.205 131.4058 34.8836 C 131.6772 35.5614 131.8261 36.4885 131.7878 37.5048 C 131.7495 38.5212 131.5313 39.4344 131.2096 40.0899 C 130.8879 40.7461 130.4624 41.143 130.0106 41.126 C 129.5587 41.109 129.1643 40.6812 128.8929 40.0026 C 128.6215 39.3248 128.4726 38.3977 128.5109 37.3813 L 128.5109 37.3813 L 128.5109 37.3813 L 128.5109 37.3813 L 128.5109 37.3813 Z "/>
  <g id="L_Ear">
    <path id="Outer_Ear" fill="#E29339" stroke="#000000" stroke-width="1.5283136585264248" stroke-linecap="round" stroke-linejoin="round" d="M 101.2276 43.5219 C 101.2276 43.5219 97.6049 50.9743 95.9476 53.5156 C 94.2903 56.0577 92.7479 56.8086 93.5019 57.8243 C 94.2551 58.8391 103.6955 56.3189 106.5572 56.8191 "/>
    <path id="Inner_Ear" fill="#58595B" d="M 96.8455 55.7862 C 96.8455 55.7862 103.3746 54.1993 105.2288 54.5697 C 105.2274 54.5681 105.7784 54.6378 105.7784 54.6378 C 105.0268 53.0327 103.372 49.3594 102.81 47.1657 C 101.0849 50.7361 96.8455 55.7862 96.8455 55.7862 L 96.8455 55.7862 L 96.8455 55.7862 L 96.8455 55.7862 L 96.8455 55.7862 L 96.8455 55.7862 Z " stroke-width="0.7641568292632124"/>
  </g>
  <g id="R_Ear">
    <path id="Outer_Ear_1_" fill="#E29339" stroke="#000000" stroke-width="1.5283136585264248" stroke-linecap="round" stroke-linejoin="round" d="M 106.5514 18.0379 C 103.6594 18.3204 94.4362 15.0975 93.6088 16.052 C 92.7805 17.008 94.262 17.8737 95.7233 20.5333 C 97.1846 23.1914 100.236 30.8953 100.236 30.8953 "/>
    <path id="Inner_Ear_1_" fill="#58595B" d="M 96.7903 18.3353 C 96.7903 18.3353 103.1815 20.4091 105.0583 20.1793 C 105.0567 20.1816 105.6114 20.1528 105.6114 20.1528 C 104.7411 21.6968 102.8146 25.2343 102.0891 27.3803 C 100.6368 23.6901 96.7903 18.3353 96.7903 18.3353 L 96.7903 18.3353 L 96.7903 18.3353 L 96.7903 18.3353 L 96.7903 18.3353 L 96.7903 18.3353 Z " stroke-width="0.7641568292632124"/>
  </g>
  <path id="Tail" fill="#E29339" stroke="#000000" stroke-width="1.5283136585264248" d="M 37.7575 41.7568 C 37.267 43.8971 35.1371 45.2399 32.9927 44.7576 C 25.7458 43.131 20.1252 43.8826 16.287 46.9933 C 9.9072 52.1631 9.8517 62.5854 9.8531 62.6879 C 9.88 64.8959 8.1152 66.7006 5.9095 66.7283 C 3.7053 66.7561 1.8969 64.9896 1.8698 62.7854 C 1.8627 62.2025 1.8067 48.4518 11.2604 40.7895 C 17.0912 36.0647 24.9923 34.7788 34.7415 36.9685 C 36.892 37.4511 38.2446 39.5874 37.762 41.7379 C 37.7603 41.7439 37.7593 41.75 37.7575 41.7568 L 37.7575 41.7568 L 37.7575 41.7568 L 37.7575 41.7568 L 37.7575 41.7568 L 37.7575 41.7568 L 37.7575 41.7568 Z "/>
</svg>