<?xml version="1.0" encoding="UTF-8" standalone="no"?>
<svg
   xmlns:dc="http://purl.org/dc/elements/1.1/"
   xmlns:cc="http://creativecommons.org/ns#"
   xmlns:rdf="http://www.w3.org/1999/02/22-rdf-syntax-ns#"
   xmlns:svg="http://www.w3.org/2000/svg"
   xmlns="http://www.w3.org/2000/svg"
   xmlns:sodipodi="http://sodipodi.sourceforge.net/DTD/sodipodi-0.dtd"
   xmlns:inkscape="http://www.inkscape.org/namespaces/inkscape"
   version="1.1"
   width="198.95975"
   height="300"
   viewBox="0 0 198.95976 299.99999"
   id="svg2"
   inkscape:version="0.91 r13725"
   sodipodi:docname="41aa480edf681966a1df723e4fb431bb.svg">
  <metadata
     id="metadata36">
    <rdf:RDF>
      <cc:Work
         rdf:about="">
        <dc:format>image/svg+xml</dc:format>
        <dc:type
           rdf:resource="http://purl.org/dc/dcmitype/StillImage" />
        <dc:title></dc:title>
      </cc:Work>
    </rdf:RDF>
  </metadata>
  <defs
     id="defs34" />
  <sodipodi:namedview
     pagecolor="#ffffff"
     bordercolor="#666666"
     borderopacity="1"
     objecttolerance="10"
     gridtolerance="10"
     guidetolerance="10"
     inkscape:pageopacity="0"
     inkscape:pageshadow="2"
     inkscape:window-width="1855"
     inkscape:window-height="1056"
     id="namedview32"
     showgrid="false"
     inkscape:zoom="1.1388122"
     inkscape:cx="118.41437"
     inkscape:cy="164.86342"
     inkscape:window-x="65"
     inkscape:window-y="24"
     inkscape:window-maximized="1"
     inkscape:current-layer="svg2"
     fit-margin-top="0"
     fit-margin-left="0"
     fit-margin-right="0"
     fit-margin-bottom="0" />
  <g
     transform="matrix(0.7238213,0,0,0.7238213,-140.42133,-91.926373)"
     id="g4">
    <g
       data-paper-data="{&quot;isPaintingLayer&quot;:true}"
       fill-rule="none"
       stroke-miterlimit="10"
       font-weight="none"
       font-size="none"
       text-anchor="none"
       style="font-family:none;mix-blend-mode:normal;fill:none;stroke:none;stroke-width:1;stroke-linecap:butt;stroke-linejoin:miter;stroke-miterlimit:10;stroke-dasharray:none;stroke-dashoffset:0"
       id="g6">
      <path
         d="m 463.88,396.21 c -1.23,4.85 -3.6,8.8 -16,8 -12.4,-0.8 -23,-8 -23,-8 0,0 11.79,41.25 12,59 0.21,17.75 -7,27 -7,27 l -29,44 -47,-2 -98,-62 12,-46 c 0,0 -38.39,8.75 -48,7 -9.61,-1.75 -23.86,-5.85 -23,-14 0.86,-8.15 19,-9 19,-9 0,0 17.53,-13 29,-24 11.47,-11 17,-33 17,-33 0,0 -21.23,-22 -15,-65 6.23,-43 49,-61 49,-61 l 52,-8 c 0,0 22.93,4.14 35.79,10.22 21.65,10.23 22.21,24.78 22.21,24.78 l 12,86 c 0,0 4.39,3.67 5,9 0.61,5.33 -3,11 -3,11 0,0 7.76,15.29 18,26 11.67,12.2 27.23,15.15 26,20 z"
         data-paper-data="{&quot;origPos&quot;:null}"
         id="path8"
         inkscape:connector-curvature="0"
         style="fill:#ff5e3d;fill-rule:evenodd" />
      <path
         d="m 413.88,334.21 -81,8 c 0,0 -26.84,-8.22 -30,-30 -3,-20.67 -4.33,-76.33 57,-85 40,-1 46,18 46,18 0,0 14,13.67 18,45 4,31.33 -10,44 -10,44 z"
         id="path10"
         inkscape:connector-curvature="0"
         style="fill:#f5c38e;fill-rule:evenodd" />
      <path
         d="m 347.88,463.21 c 6.16,29.46 -26.74,65.37 -51,64 -19.37,-1.09 -38.23,-20 -42,-44 -4.08,0.93 -21.23,1.32 -21,-2 2.32,-33.64 29.94,-48.64 31,-41 8.34,-11.06 19.65,-14.84 30,-15 28.75,-0.45 49.35,20.53 53,38 z m 99,17 -10,-11 2,-25 c 0,0 6.05,7.21 8,16 2,9.2 0,20 0,20 z"
         id="path12"
         inkscape:connector-curvature="0"
         style="fill:#f5c38e;fill-rule:evenodd" />
      <path
         d="m 363.88,492.21 c 1.93,12.56 -5,26 -5,26 0,0 -5.79,16.08 -16,19 -10.21,2.92 -7.85,0.35 -21,3 -19.84,4 -37,-15 -37,-15 0,0 26.76,6 41.46,-10.26 16.31,-18.04 24.54,-48.74 24.54,-48.74 0,0 10.94,12.59 13,26 z m 84,20 -5,5 c 0,0 -3.93,14.59 -17,16 -8.64929,0.77605 -17.35071,0.77605 -26,0 l -12,-6 10,-7 -27,-1.95 c 0.1,-2.24 -2.26,-14.19 5,-23.05 12.51,-15.26 47,-14 47,-14 l 6,2 8,-14 c 0,0 9.64,7.9 13,19 3.14,10.37 -2,24 -2,24 z"
         id="path14"
         inkscape:connector-curvature="0"
         style="fill:#392217;fill-rule:evenodd" />
      <path
         d="m 260.88,525.21 c -10.44,0.21 -19.84,-10.24 -16,-24 2.32,-8.32 11,-11 11,-11 0,0 4.19,8.39 8,15 2.25892,3.90049 4.79547,7.63346 7.59,11.17 4.7,1.4 -0.15,8.62 -10.59,8.83 z"
         id="path16"
         inkscape:connector-curvature="0"
         style="fill:#392217;fill-rule:evenodd" />
      <path
         d="m 351.88,202.21 c -1.1,14.33 -15.33,17.6 -23,19 -7.3,1.33 -21.2,5.61 -28,-2 -20.7,-23.15 -35.07,-78.25 -2,-89 32.33,-10.51 55.34,41.49 53,72 z"
         id="path18"
         inkscape:connector-curvature="0"
         style="fill:#313131;fill-rule:evenodd" />
      <path
         d="m 359.88,295.26 c -22.92,7.08 -36.53,-28.91 -7.71,-38.05 19.18,-6.13 30.63,30.97 7.71,38.05 z m 51,-10.05 c -6,3.29 -24.29,-29.26 -15,-32 14,-4.13 23.18,23.55 15,32 z"
         id="path20"
         inkscape:connector-curvature="0"
         style="fill:#ffffff;fill-rule:evenodd" />
      <path
         d="m 367.88,263.21 c 0,0 -10.65,-6.14 -21,1 -8.67,6 -11,17 -11,17 0,0 -4.41,-18.56 7,-25 15.6,-8.81 25,7 25,7 z m 43,0 c 0,-0.03 -4.31,-4.67 -9.31,-6.1 -4.33,-1.24 -8.69,2.1 -8.69,2.1 0,0 -0.83,-12.17 7,-9 7.83,3.17 11,13.03 11,13 z"
         id="path22"
         inkscape:connector-curvature="0"
         style="fill:#a3cee0;fill-rule:evenodd" />
      <path
         d="m 393.88,289.21 c -8.38,2.81 -10.3,-10.35 -4,-13 6.3,-2.65 12.38,10.19 4,13 z"
         id="path24"
         inkscape:connector-curvature="0"
         style="fill:#b2783b;fill-rule:evenodd" />
      <path
         d="m 360.88,256.21 c 0,0 -11.72,0.4 -17,5 -6.15,5.35 -9,15 -9,15 0,0 -4.11,-11.89 4,-19 11.76,-10.3 22,-1 22,-1 z m 46,1 c -2.27471,-1.1316 -4.6118,-2.13321 -7,-3 -3.05,-1 -7,1 -7,1 0,0 -1.83,-8.55 5,-6 7.54,2.81 9,8 9,8 z"
         id="path26"
         inkscape:connector-curvature="0"
         style="fill:#b2783b;fill-rule:evenodd" />
      <path
         d="m 299.88,142.71 c 0,-3.03757 2.23858,-5.5 5,-5.5 2.76142,0 5,2.46243 5,5.5 0,3.03757 -2.23858,5.5 -5,5.5 -2.76142,0 -5,-2.46243 -5,-5.5 z"
         id="path28"
         inkscape:connector-curvature="0"
         style="fill:#d2d2d2;fill-rule:nonzero" />
      <path
         d="m 368.88,289.21 c -0.11,0.43 9.05,-23.77 -9,-31 -3.03,-1.07 -9.08,0.13 -13.31,2.56 -6.87,3.94 -10.63,13.67 -8.63,22.11 1.88,7.77 7.04,11.41 20.94,12.33 -0.9,1.62 -3.32,1 -5,1 -9.82,0 -17.38,-4.94 -21,-14 -3.4,-8.53 -0.7,-20.57 5.41,-26.31 6.06269,-5.37135 14.87907,-6.26909 21.9,-2.23 18.26,11.19 12.27,34.54 8.69,35.54 z m -12,-34 c -19.51,-5.83 -23.29,12 -22,18 2.43,-8.29 8.88,-17.29 22,-18 z m 108.1,145.94 c -3.2,2.21 -15.34,7.21 -35.2,-1 3.68,13.06 6.73,24.95 9.08,37 0.31,1.57 1.31,2.64 2.1,3.9 6.48,10.41 13.22,27.91 8,39.13 6.52,9 5.87,33 -5,39 -6.25,10.35 -12.13,16.85 -23.94,16.11 -3.66302,-0.23123 -7.33698,-0.23123 -11,0 -7.04143,0.59036 -14.05121,-1.4552 -19.67,-5.74 -1.66951,-1.3547 -3.72341,-2.14897 -5.87,-2.27 -7.3,-0.35 -14.62,-0.41 -21.91,-0.87 -3.53,-0.22 -5.74,0.82 -7.74,3.91 -3.49,5.37 -8.45,8.17 -15,9.65 -7.81,1.77 -15.48,1.11 -23.23,1.49 -10.10109,0.21969 -19.81801,-3.87146 -26.72,-11.25 -5.13,-3.63 -11.57,-8.29 -14,-10 -28.93,21.47 -41.52,-16.88 -24.37,-30.65 1.04775,-0.61957 2.18428,-1.07485 3.37,-1.35 0,0 0.64,-2 -0.21,-2.94 -2.77,-0.42 -6.36,2.59 -18.19,-1.16 -2.74,-0.87 -4.36,-2.12 -3.92,-5.28 3.52,-25.23 17.76,-35.4 30.32,-42.62 1.2,-5.16 1.84,-13 5,-19 -12.58,2 -26.33,7.39 -46.45,5.95 -22.24,-1.81 -26.1,-15.33 -26.43,-18.13 9.46,-8.73 13.07,-7.28 22.92,-9.28 9.85,-2 33.64,-23.33 42.05,-46.25 1.46,-6.1 1.11,-7.49 -1.09,-11.29 -38.68,-66.86 5.13,-110.56 36,-122 -7.65,-15.42 -13.59,-27.78 -17,-57 -1,-8.84 3.51,-24.79 15.52,-29.22 57.48,-21.15 63.48,76.88 60.48,77.22 6.83,1.6 30.86,7.34 41.6,15.6 9.51,7.32 10.5,10.7 11.4,14.4 6,11.28 23.92,35.78 19.71,73.64 -2.61,13.67 -4.23,18.7 -1.07,25.2 1.88,3.85 0.49,9.48 -0.65,15.16 0.63,3.67 13.77,22.66 30,32.32 4.85,2.89 12.09,6.98 14.09,8.49 2.16,1.64 0.22,6.92 -2.98,9.13 z M 380.45,229.44 c -21.71,-4.31 -41.49,-0.64 -57.8,15.16 -14.07,13.62 -18.29,31.21 -18.61,50.11 0,1.5 0,3 0,4.5 0.05,18 7.84,30.91 24.77,37.82 0.77,0.28 1.52,0.64 2.27,1 2.40712,1.11273 5.08577,1.50185 7.71,1.12 23.8,-2.6 47.62,-5.04 71.43,-7.5 3.07,-0.32 5.01,-1.85 6.6,-4.55 4.66,-7.95 5.41,-16.8 5.66,-25.58 0.57,-19.32 -5.19,-36.99 -15,-53.5 -6.2,-10.44 -15.35,-16.3 -27.03,-18.58 z m -30.57,-33.23 c 0,0 -22.81,12.54 -54.99,9.47 3.09,9.14 7.46,12.46 16.09,12.28 19.8,-0.41 36.19,-6.18 37.9,-9.75 1.71,-3.57 1,-12 1,-12 z m -51.42,-47.46 c 12.33,18.62 37.61,9.81 33.56,-3.09 -2.77,-8.81 -11.45,-13.1 -21.14,-13.74 -14,-0.94 -15.62,11.96 -12.42,16.83 z m -7.05,42.6 c 18.53,0.64 36.35,-3 53.77,-9 1.57,-0.55 2.07,-1.42 1.67,-3 -2.17,-8.67 -4.4,-17.31 -9.09,-25.76 -1.3,7.61 -38.68,22.67 -46.43,-15.26 l -0.4,-0.47 c -6.11,3.22 -7.94,9.1 -8.81,15.22 -1.8,12.36 1.29,24.12 5,35.77 0.76,2.36 2.4,2.42 4.29,2.5 z m 3.47,10.86 c 13,2.76 38.24,-2.7 51,-8 3.93,-1.63 2.43,-5.76 2,-9 -17.55,6.31 -38.84,11.16 -58.38,10 1.49,2.54 1.86,6.25 5.38,7 z m -32,238 c -1.06,0.16 -6.7,3.91 -7.06,4.16 -11.57,7.75 -18.19,18.68 -20.57,32.29 -0.19,1.09 -0.48,2.54 0.89,3.09 4.31,1.71 14.03,3.75 17.74,1.46 -0.29,-13.29 1.15,-26.95 9,-41 z m -17,64 c -0.47,3.71 14.49,3.78 14,1 -2,-3.67 -4,-14 -4,-14 0,0 -8.93,4.54 -10,13 z m 25,14 c 0,0 -6.86,-5.43 -9,-10 -4.14,2.14 -12.6,2.08 -16,0 0.16,8.11 3.16,14.54 14,15 7.75,0.29 11,-5 11,-5 z m 20,6 c 49.66,2 55.87,-60.31 52.71,-66.73 -6.97,-14.13 -23.7,-36.23 -58.7,-27.86 -11.38,5.1 -21.63,12.74 -24.73,25.74 -2.68,11.26 -3.71,22.65 -0.55,34.43 5.27,19.57 14.93,29.88 31.27,34.42 z m 63.19,-5.63 c -3.65067,1.24296 -7.62941,1.1114 -11.19,-0.37 -1.74,6.37 -6.62,13.54 -11,17 9.74,2.82 19.67,-4.16 22.19,-16.63 z m 4.81,-26.37 c -2.32,-10.55 -10,-20 -10,-20 0,0 -5.76,59.61 -57,56 7.66,9.2 35.86,19.92 48,-14 3.30657,0.56141 6.64773,0.89552 10,1 2.77748,-0.0978 5.50325,-0.77927 8,-2 0,0 3.18,-11.06 1,-21 z m 65,24 c -4.67,-1.69 -5,4.49 -12,5 -7,0.51 -12,1 -12,1 0,0 -5.39,3 -7,4.58 8.71,10.17 31.81,5.26 31,-10.58 z m -47.86,0.7 c 27.79,-0.19 36.95,1.06 43.89,-4.7 5,-4.2 15.05,-12.77 10,-21 -3.37,-5.5 -3.57,-9.44 -13,-9 -9.94,0.46 -21.55,3.86 -30.69,8 -9.32,4.21 -13.85,12.2 -13.32,22.41 0.15,2.29 0.75,4.29 3.15,4.29 z m 63.86,2.3 c -2.76,1.49 -9.09,1.47 -13,0 -2.52,7.79 -3.6,10.28 -10,13 13.43,0.85 19,-6.25 23,-13 z m -2,-52 c 3.44392,2.90532 6.47225,6.27013 9,10 1.34,-7.69 -1.32,-23.83 -8,-31 0.34,4.42 -0.26,14.45 -1,21 z m -1,4 c -0.25,0.9 -3.48,8.73 -6,11 7.68,12.88 3.31,18.7 -0.74,23.31 -2,2.29 -2.92,7.28 -3.26,9.69 5.93,2.32 12.81,0.72 18,-1 12.14,-26.51 -7.32,-42.54 -8,-43 0.06,-0.09 0.05,-0.1 0,0 z m -5.15,3.11 c 10.52,-26.48 -0.02,-53.39 -13.06,-93.25 -4.05,-12.29 -2.72,-23.79 1.63,-37.39 1.56,-2.73 0.79,-6.2 -0.34,-9.25 -0.33,-0.89 -0.47,-2.08 -1.92,-1.67 -1.6,0.45 -0.86,1.35 -0.48,2.3 0.38,0.95 0.56,1.96 -0.38,2.66 -0.45915,0.13374 -0.95481,0.0202 -1.31,-0.3 -2.41,-3.41 -4.58,-3.49 -6.78,0.24 -0.32,0.55 -1.09,0.06 -1.69,-0.34 -4.05,-2.73 -6.45,-2.11 -8.11,2 -2.96,-2.39 -8.31,-3.03 -12.31,-1.54 -0.76,0.29 -1.28,0.36 -1.52,1.47 -0.69,3.2 -1,3.3 -3.07,0.84 -0.74245,-1.09353 -2.0855,-1.61162 -3.37,-1.3 -2.42,0.4 -5.01,0.72 -7.42,0.93 -2.41,0.21 -4.74,0.33 -3.74,3.85 0.10725,0.41325 0.0393,0.85244 -0.18783,1.21395 -0.22713,0.36151 -0.59331,0.61333 -1.01217,0.69605 -0.44,0.1 -1.14,-0.52 -1.49,-1 -3.38,-4.65 -11.14,-4.42 -14.07,0.58 -1.11,1.86 -1.88,1.14 -2.88,-0.09 -1.87,-2.2 -19.27,-1.75 -19.27,-1.75 0,0 -3.35,3.82 -5,3 -1.32,-0.66 0,-6 0,-6 -3.89225,-2.34183 -7.57286,-5.01864 -11,-8 -1.71,-1.52 -3.44,1 -3.44,1 -4.77,1.81 -0.25,-3.1 -0.56,-4 -1.24,-3.61 -4.21,-7.62 -6,-11 -1.43,-0.27 -4.37,0.72 -5,-0.53 -0.4,-0.74 2.55,-2.52 3,-3.47 -0.21,-2.43 -2,-8.75 -2,-12 0,-3.25 -3.41,-0.76 -5,-1.44 -0.91,-0.39 -2.14,-0.43 -2.19,-1.63 -0.06,-1.72 1.42,-1.51 2.53,-1.72 1.38,-0.23 4.14,0.31 3.88,-1 -0.75,-3.68 3.46,-8.14 -1.75,-11.14 -1.31,-0.74 -1.05,-1.92 0.17,-2.8 4.53,-3.28 5.28,-8.18 2,-13 -1,-1.44 -0.67,-3.19 1,-2.63 3.53,1.2 3.95,-1.07 4.53,-3.27 0.84,-3.24 5.17,-6.24 0.66,-9.94 -0.71,-0.54 0.28,-1.97 1,-1.64 5.29,2.44 5.57,-2.9 7.86,-5 1.34,-1.28 3.16,-2.91 0,-4.48 -0.39199,-0.1575 -0.6919,-0.48358 -0.81614,-0.88734 -0.12424,-0.40377 -0.0595,-0.84204 0.17614,-1.19266 0.46916,-0.42995 1.12637,-0.58858 1.74,-0.42 3.94,2.59 6.45,-0.23 8.45,-2.68 2.49,-3.16 5.68,-4.43 9.11,-6 5.06,-2.34 9.75,-5 15.47,-6 8.28,-1.44 16.33,-2.22 24.72,-0.8 7.96508,1.29985 15.78743,3.35924 23.36,6.15 0.22993,-1.04876 -0.25865,-2.12364 -1.2,-2.64 -16.98,-12.9 -27.9,-13.69 -42.82,-15.83 -10.19,9.08 -34.19,12.51 -50.19,10.08 -4.24,-0.64 -8.28,-0.59 -12.55,1.46 -8.02,3.85 -36.36,21.92 -39.15,56.59 -2.25,22.67 4.36,43.03 16.52,61.87 0.45,0.69 0.92,1.05 0.32,2.05 -4.69,8.01 -7.4,17.1 -13,24.61 -12.2,16.35 -25.51,31.21 -47.42,34.08 -2.33,0.31 -4.94,1.18 -5.62,3.61 -0.68,2.43 1.39,4.4 3.05,5.93 5.19,4.78 11.91,6.24 18.48,6.51 27.93,1.11 53.31,-7.11 76.64,-22.21 1.38,-0.9 2.6,-2.58 4.83,-1.83 -2.03,4.14 -6.59,9.81 -12.9,12.25 -5.27,2 -16.2,7.8 -20,9 -3,3.2 -4.88,15.23 -5,21 38.59,-30.57 73.52,-1.78 90,30 11.25,21.68 10.19,41.92 5.57,51 -1.5,2.99 -0.5,4.05 2.39,3.89 6.17,-0.39 12.29,0.27 18.42,0.61 2.73908,-0.004 5.47494,-0.188 8.19,-0.55 0,-0.46 0,-0.97 0,-1.46 -5.87,0 -10.65,-0.51 -16.53,-0.51 -3.18,0 -4,-1.79 -5.78,-4.28 1.21,-7.73 0.89,-19.73 13.75,-27.73 7.86,-4.91 20.03,-9.53 42.94,-9.53 3.97,0.41 5.5,-0.82 6.91,-4.36 z m 23.15,-85.28 c -13.81,-8.42 -26.95,-21.16 -34,-33.83 -1,2.09 -3.2,25.64 7,39 8.17,3.67 12.65,7.81 25,6.14 3.22,-0.43 9.27,-0.79 10,-5.14 0.7,-4.2 -5.18,-4.46 -8,-6.17 z M 354.31,283.18 c -4.62,-1.66 -6.8,-9.47 -4.62,-15.94 1.49,-4.41 4.33,-6.65 9.14,-6.65 0.37,0 5.94,1.07 8.05,7.62 -0.24,-0.73 4.68,18.58 -12.57,14.97 z m 3.57,-14.97 c -0.0175,-1.25526 -0.8148,-2.36686 -1.99816,-2.78597 -1.18336,-0.41911 -2.50253,-0.0571 -3.30621,0.90733 -0.80368,0.96441 -0.92188,2.32725 -0.29625,3.41563 0.62563,1.08838 1.86278,1.67212 3.10062,1.46302 1.51365,-0.14782 2.62756,-1.48451 2.5,-3 z m 25.79,14.61 c -0.084,-2.07886 0.678,-4.10303 2.11197,-5.6105 1.43397,-1.50746 3.41757,-2.36955 5.49803,-2.3895 3.85,-0.06 7.7,3.8 7.85,7.94 0.15,4.14 -3.52,8.33 -7.33,8.33 -4.51263,-0.0764 -8.13065,-3.75672 -8.13,-8.27 z m 8.09,-5.69 c -2.53484,0.52295 -4.2363,2.91372 -3.9,5.48 0.24,2.89 2,4.52 5,4.34 2.63,-0.16 4.1,-1.81 3.74,-4.29 -0.37,-2.64 -1.42,-5.18 -4.8,-5.57 z m 10.12,2.08 c -5.46,-5.37 -10.52,-18.89 -10.61,-25.82 -0.13,-9.68 9.93,-6.38 16.61,2.82 6.68,9.2 10.39,27 4,29 -3.27,1 -7,-2 -7,-2 l -0.39,-1.93 c 0,0 16.61,11.43 4.39,-20.07 -6.1,-8.47 -15.65,-8.42 -15,-3 0.09,2.51 3.17,13 5,16 1.83,3 3.61,5.6 3,5 z m -9,-25 c 3.6,-2.8 6.13,-2.27 11,0 -1.42,-2.25 -10.94,-9.29 -11,0 z m 27,245 c -15.08,-0.55 -33.59,6.49 -33.59,6.49 0,0 0.71,-2.7 1.82,-3.52 4.94,-3.62 10.75,-5 16.64,-6 4.07,-0.67 8.22,-0.86 12.41,-1.27 2.95,1.45 4.72,3.58 2.72,4.3 z M 402.75,275.16 c -2.96,-2.31 -9.32,-14.45 -4.87,-16.95 4,-2.24 12.46,11.3 8,17 -0.87,1.11 -2.15,0.71 -3.13,-0.05 z m -1.95,-12.35 c -0.32,-1.06 -1.2,-1.75 -2,-1.53 -0.8814,0.40474 -1.28713,1.43228 -0.92,2.33 0.32,1.06 1.2,1.75 2,1.53 0.8814,-0.40474 1.28713,-1.43228 0.92,-2.33 z"
         data-paper-data="{&quot;origPos&quot;:null}"
         id="path30"
         inkscape:connector-curvature="0"
         style="fill:#000000;fill-rule:evenodd" />
    </g>
  </g>
</svg>
