<?xml version="1.0" encoding="UTF-8" standalone="no"?>
<!-- Created with Inkscape (http://www.inkscape.org/) -->

<svg
   xmlns:dc="http://purl.org/dc/elements/1.1/"
   xmlns:cc="http://creativecommons.org/ns#"
   xmlns:rdf="http://www.w3.org/1999/02/22-rdf-syntax-ns#"
   xmlns:svg="http://www.w3.org/2000/svg"
   xmlns="http://www.w3.org/2000/svg"
   xmlns:xlink="http://www.w3.org/1999/xlink"
   xmlns:sodipodi="http://sodipodi.sourceforge.net/DTD/sodipodi-0.dtd"
   xmlns:inkscape="http://www.inkscape.org/namespaces/inkscape"
   width="143.87126"
   height="184.45589"
   viewBox="0 0 143.87126 184.45589"
   id="svg2"
   version="1.1"
   inkscape:version="0.91 r13725"
   sodipodi:docname="64e740178b6402b9a6fbd45e6b0337af.svg">
  <defs
     id="defs4">
    <g
       id="arm_r_0_Layer1_0_FILL">
      <path
         id="path4141"
         d="m 287.4,215.45 q 0.0645,-0.4209 0.1,-0.85 -2.07598,-0.2377 -2.2,-0.3 -2.3375,-1.47754 2,1.45 0.0711,-0.15215 0.1,-0.3 m 0.95,-10.05 0.25,0.25 q 0.0471,-0.14355 0.05,-0.3 -0.12656,0.0312 -0.3,0.05 m -183.8,-8.75 q -9,-4.25 -14.45,-4.35 -17.8,8.4 -35.5,21.3 -35.35,25.8 -37.05,48.35 -2.15,28.7 15.3,50.8 15.8,20.1 44.9,31.45 27.65,10.75 59.8,10.95 32.55,0.2 59.75,-10.6 3.5,14 3.05,35.1 -0.5,22.35 -5.35,47.4 -11.35,58.15 -40.4,106.45 -0.7,1.15 -1.4,2.3 Q 120,589.85 56.7,634.85 36.9,648.9 16.45,660.4 L 0,669.05 l 5.45,34.6 q 6.4,40.2 11.2,68 6.75,38.75 9.4,47.6 33.15,-13.6 69.8,-37.4 35.25,-22.9 69.5,-52.35 34,-29.2 62.2,-60.8 28.95,-32.35 47.85,-62.75 20.05,-32.3 33.85,-71.85 0.1,-0.3 0.2,-0.6 13.75,-39.6 19.85,-82.65 0.0535,-0.37891 0.1,-0.75 -0.7709,0.74473 -1.7,1.2 -0.77461,3.59375 -1.8,7.4 -1.81367,6.77734 -6.3,20.4 0.24531,7.98496 -0.65,12.65 -0.5,2.5 -1.55,5.7 -0.65,1.9 -2,5.55 -0.85,2.45 -3.3,10.3 -2,6.35 -3.5,10.1 -1.75,4.6 -6.05,13.2 -4.3,8.6 -6.55,12.4 -1.40781,2.44023 -3.55,5.8 -0.0258,0.88906 -0.15,1.8 -1.5,10.15 -7.25,21.4 -3.9,7.65 -11.95,19.6 -21.25,31.5 -43.7,59.35 -11.47051,14.38145 -20.55,23.65 -0.67871,0.99082 -1.6,1.95 -1.1,1.2 -3.2,3 -2.55,2.15 -3.35,2.9 -1.35,1.35 -4,4.25 -1.3,1.4 -3.35,3.15 -1.15,1.05 -3.55,3 -3,2.55 -10.8,10.25 -1.49102,1.51973 -2.7,2.8 -0.42695,0.52031 -0.95,1 -2.27109,2.52148 -3.35,4.05 l -2.1,2.8 q -1.25,1.5 -2.55,2.15 -1.25,0.7 -2.8,0.7 -0.31914,0 -0.65,-0.05 -20.38594,16.76016 -42.3,32.65 -21.1,15.2 -57.3,39.2 -11.723828,7.73262 -19.1,6.4 -0.639258,1.38242 -2,2.3 -0.35,0.25 -1.1,0.65 -0.65,0.4 -1,0.8 -0.3,0.25 -0.6,0.8 -0.15,0.3 -0.5,0.95 -0.95,1.55 -2.75,2.3 -1.75,0.75 -3.6,0.5 -3.6,-0.35 -6.15,-3.6 -1,-1.2 -1.3,-2.1 -0.3,-1 -0.25,-2.95 0.05,-2.1 -0.15,-2.95 -0.1,-0.75 -0.5,-1.9 -0.5,-1.4 -0.6,-1.8 -0.55,-1.7 -0.4,-3.65 0.05,-0.95 0.05,-1.45 0.05,-0.9 -0.05,-1.45 -0.7,-1.75 -1.05,-2.65 -0.4,-1.05 -0.5,-2.5 -0.05,-0.45 -0.05,-2.5 -0.2,-3.8 0.5,-5.8 0.5,-1.4 1.55,-2.35 1.2,-1.05 2.6,-1.05 1.25,0 1.45,-0.35 L 28.7,770 q 1.366016,0.0744 2.9,0.95 0.953125,-0.73984 2.3,-1.85 2.55,-2.05 8.4,-5.9 1.203125,-0.76621 2.25,-1.45 0.151367,-0.19746 0.3,-0.4 0.95,-1.3 2.55,-2.45 0.85,-0.6 3,-1.9 32.43418,-19.22148 63.65,-40.8 0.16348,-0.82148 0.5,-1.65 0.9,-2.15 4,-5.15 4.5,-4.3 7.65,-6.45 5.2,-3.3 7.7,-5.05 2.9,-2 7,-5.8 5.55,-5.1 6.75,-6.1 2.85,-2.35 6.85,-5.05 0.85,-0.6 7.1,-4.75 0.72187,-0.46836 1.4,-0.95 24.30312,-20.31348 46.2,-43.1 4.65,-4.9 7.4,-8.2 3.85,-4.65 6.35,-9 1.8,-3.25 2.8,-4.35 2.25,-2.25 4.65,-1.9 l 0.05,0 q 0.61387,-0.14023 1.2,-0.1 1.94746,-1.97305 4.75,-5.1 1.38848,-1.5918 2.5,-2.9 0.002,-1.20508 0.5,-2.6 0.5,-1.25 1.85,-3.55 32.7,-51.55 46.95,-127.5 1.6,-8.35 4.6,-26.95 2.6,-17.15 3.25,-24.8 0.8,-9.35 0.75,-20.95 0,-6.24414 -0.35,-16.85 -0.47852,0.44238 -1.05,0.75 -1.8,0.95 -4.1,0.25 -2.1,-0.65 -3.65,-2.35 -1.25,-1.45 -2.15,-3.7 -0.55,-1.35 -1.3,-4.15 -1.55,-6.1 -2,-9.5 -0.35,-2.75 -0.3,-6.7 0.1,-4.5 0.1,-6.75 0,-4.75 -0.75,-16.65 l -2.75,-42.5 q -0.49141,-0.0244 -0.9,-0.05 -5.75,-0.3 -13.45,1.35 -8.9,2.2 -13.35,3.2 -7.7,1.85 -17.5,3.15 -5.85,0.8 -17.7,2 -13.85,1.45 -21.25,1.3 -11.85,-0.25 -20.55,-3.85 -5.15,-2.1 -14.1,-8.05 -9.2,-6.1 -14.05,-8.2 -3.8,-1.5 -5.65,-2.35 -3.15,-1.45 -5.05,-3.2 -0.2,-0.15 -3.25,-3.45 -1.9,-2.05 -3.65,-2.7 -1.1,-0.4 -3.15,-0.45 -2.35,-0.1 -3.15,-0.25 -3.2,-0.6 -6.05,-3.45 -1.85,-1.8 -4.45,-5.7 -7.85,-11.6 -11.3,-17.85 -5.7,-10.3 -7.95,-19.35 -1.497461,-5.24453 -1.65,-11.05 -0.108008,-5.8166 1.5,-7.65 1.610547,-1.82793 1.5,-3.55 l 4.25,7.45 q 3.8,0.6 7,3.05 0.16133,0.12344 0.3,0.25 1.92148,0.28613 4.05,1.25 1.8,0.85 4.65,2.65 4.15,2.6 7,4.6 1.85,1.3 6.3,4.65 4.05,3 6.45,4.6 1.75,1.2 5.3,3.45 3.1,2.05 5,3.85 0.55,0.5 2,1.95 1.3,1.25 2.1,1.9 0.9,0.75 2.65,1.9 2,1.25 2.8,1.85 1.5,1.2 3.5,3.25 1.07832,1.12734 3.2,3.35 3.14707,1.73008 5.7,3.05 1.10469,-0.4293 2.3,-0.3 l 0,-0.4 q 2.3,-0.25 5.1,0.7 1.1,0.35 4.9,2 8.15,3.75 15.1,4.6 2.11895,0.26484 5.05,0.35 -3.08379,-0.30449 -8.9,-1.65 -13.55,-3.1 -33.85,-19.4 -22.65,-19.65 -33.35,-27.7 -8.5,-6.4 -17.4,-10.55 m 61.75,501.25 0.1,0.1 q -0.7,0.6 -4.1,3.9 1.25,-0.35 2.8,-1.9 2.05,-2.05 2.5,-2.4 -0.7,-0.3 -1.3,0.3 m 42.3,-47.95 q -1.3623,1.30645 -2.85,2.75 -0.55234,0.52383 -1.1,1.05 2.00312,-1.8625 3.95,-3.8 M 49.2,786.3 q 0.25,0.5 0.85,0.3 0.1,0 0.95,-0.3 0.8,-0.35 1.7,-0.5 0.6,-0.1 0.8,-0.4 0.25,-0.1 0.45,-0.45 l 0.35,-0.55 q -0.2,-0.5 -0.95,-0.8 -0.85,-0.3 -2.25,0.3 l 0,0.1 q -0.4,0.2 -2,1.1 0.1,0.4 0.1,1.2 M 292.7,316.85 q 0.22383,3.11543 0.35,5.4 0.8,15.05 0.85,26.95 0,4.2 0.15,6.25 0.3,3.5 1.15,6.15 0.16328,0.49004 0.85,2.1 -0.28672,-9.32246 -0.65,-18.7 -0.55,-15.5 -1.75,-23.3 -0.39883,-2.49961 -0.95,-4.85 m 17.6,-23.65 0.05,0 0,-0.05 -0.05,0.05 m 28.45,-150.8 q 0.0928,1.57852 -0.15,2.95 0.0775,1.5873 0.1,3.25 0.22891,0.38711 0.4,0.8 1.2,2.85 1.2,8.25 0.15,14.65 -1.75,29.55 -0.65,4.75 -1.55,8.8 -1.25,5.65 -5.4,16.85 l -6.1,16.1 q -0.49121,1.30996 -0.95,2.45 -1.64785,8.5584 -2.8,13.2 -0.34023,1.37148 -0.65,2.55 -0.67871,4.37559 -1.45,8.5 -0.18398,1.7875 -0.25,2.15 -0.16152,0.775 -0.4,1.45 -0.1498,0.77676 -0.3,1.55 -0.78828,4.2043 -2.9,14.75 1.57246,2.06914 3.05,5.85 2.6,6.7 3.7,10.35 1.4,4.6 2.35,10.45 0.65,4 1.4,10.65 l 1.3,10.25 q 1.1,10.95 1.25,13.3 0.0223,0.39043 0.05,0.8 2.35469,10.55957 3.7,21.8 0.55059,4.1498 1,8.3 -2.05938,-49.0125 -15.15,-95.85 19.95,-48.1 23.05,-92.15 3.7,-51.6 -16,-95.15 Q 304.7,38.1 270.2,15.25 254,4.5 237.4,1.3 220.5,-2 205.3,3.05 179,11.85 158.6,31.8 q -24.05,23.45 -22.4,48.35 1.2,18.2 19.35,33.7 2.2,1.85 15.95,12.35 9.75,7.45 14.8,13.05 23.9,26.35 34.85,51.2 14.6,33.15 -0.8,51.95 -4.45,5.45 -6,7.1 -3.55,3.75 -6.45,5.1 -2.55996,1.2127 -5.75,1.45 0.23203,0 0.45,0 l 4.75,0 q 0.87109,-0.6125 1.9,-0.85 0.95,-0.2 2.2,-0.15 0.2,0 2.15,0.2 3.35,0.45 9,0.35 12.2,-0.3 24.25,-3.2 7.30957,-1.77793 16,-5 0.1916,-0.0598 0.35,-0.15 2.8,-1.55 8.2,-5.05 5.15,-3.2 9.7,-6.4 0.66953,-0.47168 4.15,-12.8 -4.37344,-0.62539 -5.65,1.2 -0.75,1 -3.05,3.3 -0.61719,0.57852 -1.15,1.1 -0.80684,1.49883 -1.45,2.35 -1.71094,2.35547 -2.05,1.1 -1.96016,2.09687 -2.8,2.75 -1.05,0.85 -2.65,1.75 -1.9,1 -2.85,1.5 -2.6,1.35 -7.15,4.35 -3,1.95 -4.45,2.6 -1,0.5 -5.05,1.7 -2.74102,0.6416 -4.8,0.75 -0.55059,0.2502 -1.35,0.55 -2.35,0.8 -3.4,0.95 -2.09766,0.45488 -6.35,1.3 -4.25723,0.83477 -13.15,3.6 -8.84297,2.76504 0.25,-4.95 9.09746,-7.70508 10.7,-9.4 0.69414,-0.80977 1.8,-1.45 0.0404,-0.0951 0.05,-0.2 0.15,-1.65 1.1,-2.9 0.51875,-0.64219 1.45,-1.3 -1.7,-1.2 -2.45,-3.65 -0.5,-1.75 -0.65,-4.75 l -0.95,-18.4 q -0.2,-3.4 -0.4,-4.8 -0.35,-2.65 -1.2,-4.65 -0.65,-1.55 -2.05,-3.45 -1.65,-2.15 -2.45,-3.25 -4.55,-6.1 -10.8,-18.8 -6.65,-13.45 -10.5,-19.05 -7.4,-10.9 -24.8,-25.15 -20.3,-16.7 -26.6,-23.8 -4.35,-4.85 -4.65,-8.65 -0.0887,-2.263477 1.25,-4.15 -0.23008,-0.27832 -0.45,-0.6 -0.67207,0.129688 -1.35,0.05 -2.55,-0.2 -5,-2.55 -1.1,-1.1 -1.6,-2.1 -0.7,-1.55 -0.7,-4.5 l 0,-7.25 q 0,-2.8 0.5,-4.15 0.35,-1.05 1.35,-2.5 l 2.85,-4.3 q 0.13105,-0.187891 0.25,-0.4 1.2125,-3.529687 1.75,-4.8 0.95,-1.85 2.85,-4.55 2.65,-3.7 3.1,-4.45 0.55,-0.8 1.5,-2.4 0.9,-1.35 1.7,-2.2 0.7832,-0.826758 2.1,-1.8 0.82344,-1.445312 1.65,-2.2 0.2,-0.15 1.3,-0.9 0.85,-0.6 1.25,-1.05 0.65,-0.8 1.45,-2.8 1,-2.1 4.1,-5.1 3.65,-3.65 5.5,-4.9 0.45,-0.35 2.1,-1.5 1.35,-0.9 2.05,-1.55 0.5,-0.4 2,-1.95 1.25,-1.3 2.15,-1.85 1.7,-1.15 5.15,-1.95 l 1.05,-0.3 q 1.2666,-0.03613 2.4,0.5 0.31738,-0.08242 0.6,-0.1 0.35,-0.05 1.05,-0.1 0.13613,-0.01133 0.25,-0.05 0.35098,-0.878516 0.8,-1.45 0.75,-1.1 1.95,-1.65 1.3,-0.55 2.45,-0.2 l 0.1,-0.25 q 2.25,-0.2 4.05,1.85 1.65,1.9 1.95,4.5 0.2,1.6 -0.05,4.85 -0.25,3.2 -0.05,4.8 0.3,2.95 2.9,8.25 2.45,4.9 4.4,6.7 1.45,1.4 3.9,2.65 1.4,0.75 4.3,2.1 5.70156,2.900391 10.1,7.35 4.44512,4.448633 9.7,10.55 5.25469,6.151172 10.5,12.3 5.24824,6.149414 10.9,9.15 4.45,2.2 4.6,2.3 2.6,1.4 4,3.05 0.575,0.676367 0.95,1.45 2.05039,0.870703 4.15,4.3 3.35,5.85 4.55,8.15 2.45,4.6 3.95,8.45 l 5.1,15.5 q 1.55,4.95 1.9,6.8 0.65,3.05 0.9,7.3 3.47109,8.07793 5.35,15.8 2.17148,-7.62949 2.9,-14.1 -8.85371,-20.00781 -13.75,-41.45 -0.99961,-4.38652 -2.45,-8.6 -0.78066,-1.002539 -1.75,-2.05 -4.10938,-4.434766 -12.6,-10.15 -8.49082,-5.66543 -14.1,-13.8 -5.55313,-8.144922 -10,-11.65 -6.90313,-5.393945 -18.3,-9.05 -11.34102,-3.618555 -13.95,-12 -2.60898,-8.369141 -4.45,-11.85 -1.84707,-3.44375 -3,-7.2 -1.35,-4.3 0.25,-8.65 1.7,-4.55 5.75,-5.9 L 208,5.2 q 2.05,-1.15 5,0.7 0.0869,0.055273 0.15,0.1 0.18945,-0.092969 0.35,-0.2 0.8,-0.55 1.55,-1.25 0.6,-0.1 1.15,-0.35 l 0,-0.1 q 2.00449,-0.085937 4,-0.15 0.35449,-1.1535156 0.75,-2.55 0.16465,1.4853516 0.5,2.5 0.88809,-0.025391 1.75,-0.05 0.6,0.15 1.2,0.4 0.6,0.25 1.2,0.55 0.3,0.3 0.6,0.6 0.0588,0.058789 0.1,0.1 l 0.9,-0.25 q 14.8,-1.15 24.45,3.7 1.6,0.85 4.2,2.5 3.05,1.95 4.15,2.55 1.1,0.6 5.4,2.8 3.35,1.7 5.3,3 2.65,1.85 5.7,4.95 0.35039,0.350391 0.75,0.75 5.6793,3.928516 11.15,9.05 9.25,8.6 16.45,19.15 7.2,10.55 11.8,22.3 1.025,2.562305 1.7,4.85 2.09395,3.98125 4,8.1 0.34473,0.516992 0.7,1.05 4.3,6.55 6.25,10.95 1.95,4.5 3.9,12 2.05,7.3 3.2,12.85 0.9,4.5 1.45,8.6 0.22402,1.84746 0.4,3.85 0.50879,2.55293 0.6,4.15 z"
         inkscape:connector-curvature="0"
         style="fill:#ffff00;stroke:none" />
      <path
         id="path4143"
         d="m 267.35,95.1 q -0.375,-0.773633 -0.95,-1.45 -1.4,-1.65 -4,-3.05 -0.15,-0.1 -4.6,-2.3 -5.65176,-3.000586 -10.9,-9.15 -5.24531,-6.148828 -10.5,-12.3 -5.25488,-6.101367 -9.7,-10.55 -4.39844,-4.449609 -10.1,-7.35 -2.9,-1.35 -4.3,-2.1 -2.45,-1.25 -3.9,-2.65 -1.95,-1.8 -4.4,-6.7 -2.6,-5.3 -2.9,-8.25 -0.2,-1.6 0.05,-4.8 0.25,-3.25 0.05,-4.85 -0.3,-2.6 -1.95,-4.5 -1.8,-2.05 -4.05,-1.85 l -0.1,0.25 q -1.15,-0.35 -2.45,0.2 -1.2,0.55 -1.95,1.65 -0.44902,0.571484 -0.8,1.45 -0.11387,0.03867 -0.25,0.05 -0.7,0.05 -1.05,0.1 -0.28262,0.01758 -0.6,0.1 -1.1334,-0.536133 -2.4,-0.5 l -1.05,0.3 q -3.45,0.8 -5.15,1.95 -0.9,0.55 -2.15,1.85 -1.5,1.55 -2,1.95 -0.7,0.65 -2.05,1.55 -1.65,1.15 -2.1,1.5 -1.85,1.25 -5.5,4.9 -3.1,3 -4.1,5.1 -0.8,2 -1.45,2.8 -0.4,0.45 -1.25,1.05 -1.1,0.75 -1.3,0.9 -0.82656,0.754688 -1.65,2.2 -1.3168,0.973242 -2.1,1.8 -0.8,0.85 -1.7,2.2 -0.95,1.6 -1.5,2.4 -0.45,0.75 -3.1,4.45 -1.9,2.7 -2.85,4.55 -0.5375,1.270313 -1.75,4.8 -0.11895,0.212109 -0.25,0.4 l -2.85,4.3 q -1,1.45 -1.35,2.5 -0.5,1.35 -0.5,4.15 l 0,7.25 q 0,2.95 0.7,4.5 0.5,1 1.6,2.1 2.45,2.35 5,2.55 0.67793,0.07969 1.35,-0.05 0.21992,0.32168 0.45,0.6 -1.33867,1.886523 -1.25,4.15 0.3,3.8 4.65,8.65 6.3,7.1 26.6,23.8 17.4,14.25 24.8,25.15 3.85,5.6 10.5,19.05 6.25,12.7 10.8,18.8 0.8,1.1 2.45,3.25 1.4,1.9 2.05,3.45 0.85,2 1.2,4.65 0.2,1.4 0.4,4.8 l 0.95,18.4 q 0.15,3 0.65,4.75 0.75,2.45 2.45,3.65 -0.93125,0.65781 -1.45,1.3 -0.95,1.25 -1.1,2.9 -0.01,0.10488 -0.05,0.2 -1.10586,0.64023 -1.8,1.45 -1.60254,1.69492 -10.7,9.4 -9.09297,7.71504 -0.25,4.95 8.89277,-2.76523 13.15,-3.6 4.25234,-0.84512 6.35,-1.3 1.05,-0.15 3.4,-0.95 0.79941,-0.2998 1.35,-0.55 2.05898,-0.1084 4.8,-0.75 4.05,-1.2 5.05,-1.7 1.45,-0.65 4.45,-2.6 4.55,-3 7.15,-4.35 0.95,-0.5 2.85,-1.5 1.6,-0.9 2.65,-1.75 0.83984,-0.65313 2.8,-2.75 0.33906,1.25547 2.05,-1.1 0.64316,-0.85117 1.45,-2.35 0.53281,-0.52148 1.15,-1.1 2.3,-2.3 3.05,-3.3 1.27656,-1.82539 5.65,-1.2 0.10352,0.0389 0.15,0.05 0.73711,0.11191 1.45,0.2 0.19512,-3.72285 0.55,-7.45 -0.0418,-0.0275 -0.1,-0.05 -4.3375,-2.92754 -2,-1.45 0.12402,0.0623 2.2,0.3 0.44844,-4.47227 1.1,-8.95 l -0.25,-0.25 q 0.17344,-0.0188 0.3,-0.05 0.64805,-4.02051 1.45,-8.05 1.96602,-9.76289 4.1,-19.55 -0.0184,-0.003 -0.05,-0.05 -0.12129,-0.0471 -0.25,-0.15 0.27852,-0.73359 0.5,-1.5 l 0.05,0 q 0.0736,-0.0115 0.15,-0.05 0.30781,-1.35703 0.6,-2.75 0.01,-0.0947 0,-0.2 -0.0303,-0.44434 -0.1,-0.9 -0.52012,-5.27539 -1.85,-10.75 -1.87891,-7.72207 -5.35,-15.8 -0.25,-4.25 -0.9,-7.3 -0.35,-1.85 -1.9,-6.8 L 280,116 q -1.5,-3.85 -3.95,-8.45 -1.2,-2.3 -4.55,-8.15 -2.09961,-3.429297 -4.15,-4.3 z"
         inkscape:connector-curvature="0"
         style="fill:#ff9900;stroke:none" />
      <path
         id="path4145"
         d="m 338.6,145.35 q 0.24277,-1.37148 0.15,-2.95 -0.0912,-1.59707 -0.6,-4.15 -0.17598,-2.00254 -0.4,-3.85 -0.55,-4.1 -1.45,-8.6 -1.15,-5.55 -3.2,-12.85 -1.95,-7.5 -3.9,-12 -1.95,-4.4 -6.25,-10.95 -0.35527,-0.533008 -0.7,-1.05 -1.90605,-4.11875 -4,-8.1 -0.675,-2.287695 -1.7,-4.85 -4.6,-11.75 -11.8,-22.3 -7.2,-10.55 -16.45,-19.15 -5.4707,-5.121484 -11.15,-9.05 -0.39961,-0.399609 -0.75,-0.75 -3.05,-3.1 -5.7,-4.95 -1.95,-1.3 -5.3,-3 -4.3,-2.2 -5.4,-2.8 -1.1,-0.6 -4.15,-2.55 -2.6,-1.65 -4.2,-2.5 Q 242,4.1 227.2,5.25 L 226.3,5.5 Q 226.2588,5.458789 226.2,5.4 225.9,5.1 225.6,4.8 225,4.5 224.4,4.25 223.8,4 223.2,3.85 q -0.86191,0.024609 -1.75,0.05 -0.33535,-1.0146484 -0.5,-2.5 -0.39551,1.3964844 -0.75,2.55 -1.99551,0.064062 -4,0.15 l 0,0.1 Q 215.65,4.45 215.05,4.55 214.3,5.25 213.5,5.8 213.33945,5.9070312 213.15,6 213.0869,5.955273 213,5.9 210.05,4.05 208,5.2 l -0.2,-0.25 q -4.05,1.35 -5.75,5.9 -1.6,4.35 -0.25,8.65 1.15293,3.75625 3,7.2 1.84102,3.480859 4.45,11.85 2.60898,8.381445 13.95,12 11.39687,3.656055 18.3,9.05 4.44687,3.505078 10,11.65 5.60918,8.13457 14.1,13.8 8.49062,5.715234 12.6,10.15 0.96934,1.047461 1.75,2.05 1.45039,4.21348 2.45,8.6 4.89629,21.44219 13.75,41.45 -0.72852,6.47051 -2.9,14.1 1.32988,5.47461 1.85,10.75 0.0697,0.45566 0.1,0.9 0.01,0.10527 0,0.2 -0.29219,1.39297 -0.6,2.75 -0.0764,0.0385 -0.15,0.05 l -0.05,0 q -0.22148,0.76641 -0.5,1.5 0.12871,0.10293 0.25,0.15 0.0316,0.0475 0.05,0.05 -2.13398,9.78711 -4.1,19.55 -0.80195,4.02949 -1.45,8.05 -0.003,0.15645 -0.05,0.3 -0.65156,4.47773 -1.1,8.95 -0.0356,0.4291 -0.1,0.85 -0.0289,0.14785 -0.1,0.3 0.0582,0.0225 0.1,0.05 -0.35488,3.72715 -0.55,7.45 -0.71289,-0.0881 -1.45,-0.2 -0.0465,-0.0111 -0.15,-0.05 -3.48047,12.32832 -4.15,12.8 -4.55,3.2 -9.7,6.4 -5.4,3.5 -8.2,5.05 -0.1584,0.0902 -0.35,0.15 -8.69043,3.22207 -16,5 -12.05,2.9 -24.25,3.2 -5.65,0.1 -9,-0.35 -1.95,-0.2 -2.15,-0.2 -1.25,-0.05 -2.2,0.15 -1.02891,0.2375 -1.9,0.85 l -4.75,0 q -0.21797,0 -0.45,0 -2.2002,-0.007 -4.1,-0.1 -2.93105,-0.0852 -5.05,-0.35 -6.95,-0.85 -15.1,-4.6 -3.8,-1.65 -4.9,-2 -2.8,-0.95 -5.1,-0.7 l 0,0.4 q -1.19531,-0.1293 -2.3,0.3 -2.55293,-1.31992 -5.7,-3.05 -2.12168,-2.22266 -3.2,-3.35 -2,-2.05 -3.5,-3.25 -0.8,-0.6 -2.8,-1.85 -1.75,-1.15 -2.65,-1.9 -0.8,-0.65 -2.1,-1.9 -1.45,-1.45 -2,-1.95 -1.9,-1.8 -5,-3.85 -3.55,-2.25 -5.3,-3.45 -2.4,-1.6 -6.45,-4.6 -4.45,-3.35 -6.3,-4.65 -2.85,-2 -7,-4.6 -2.85,-1.8 -4.65,-2.65 -2.12852,-0.96387 -4.05,-1.25 -0.13867,-0.12656 -0.3,-0.25 -3.2,-2.45 -7,-3.05 l -4.25,-7.45 q 0.110547,1.72207 -1.5,3.55 -1.608008,1.8334 -1.5,7.65 0.152539,5.80547 1.65,11.05 2.25,9.05 7.95,19.35 3.45,6.25 11.3,17.85 2.6,3.9 4.45,5.7 2.85,2.85 6.05,3.45 0.8,0.15 3.15,0.25 2.05,0.05 3.15,0.45 1.75,0.65 3.65,2.7 3.05,3.3 3.25,3.45 1.9,1.75 5.05,3.2 1.85,0.85 5.65,2.35 4.85,2.1 14.05,8.2 8.95,5.95 14.1,8.05 8.7,3.6 20.55,3.85 7.4,0.15 21.25,-1.3 11.85,-1.2 17.7,-2 9.8,-1.3 17.5,-3.15 4.45,-1 13.35,-3.2 7.7,-1.65 13.45,-1.35 0.40859,0.0256 0.9,0.05 l 2.75,42.5 q 0.75,11.9 0.75,16.65 0,2.25 -0.1,6.75 -0.05,3.95 0.3,6.7 0.45,3.4 2,9.5 0.75,2.8 1.3,4.15 0.9,2.25 2.15,3.7 1.55,1.7 3.65,2.35 2.3,0.7 4.1,-0.25 0.57148,-0.30762 1.05,-0.75 0.35,10.60586 0.35,16.85 0.05,11.6 -0.75,20.95 -0.65,7.65 -3.25,24.8 -3,18.6 -4.6,26.95 -14.25,75.95 -46.95,127.5 -1.35,2.3 -1.85,3.55 -0.49824,1.39492 -0.5,2.6 -1.11152,1.3082 -2.5,2.9 -2.80254,3.12695 -4.75,5.1 -0.58613,-0.0402 -1.2,0.1 l -0.05,0 q -2.4,-0.35 -4.65,1.9 -1,1.1 -2.8,4.35 -2.5,4.35 -6.35,9 -2.75,3.3 -7.4,8.2 -21.89688,22.78652 -46.2,43.1 -0.67813,0.48164 -1.4,0.95 -6.25,4.15 -7.1,4.75 -4,2.7 -6.85,5.05 -1.2,1 -6.75,6.1 -4.1,3.8 -7,5.8 -2.5,1.75 -7.7,5.05 -3.15,2.15 -7.65,6.45 -3.1,3 -4,5.15 -0.33652,0.82852 -0.5,1.65 -31.21582,21.57852 -63.65,40.8 -2.15,1.3 -3,1.9 -1.6,1.15 -2.55,2.45 -0.148633,0.20254 -0.3,0.4 -1.046875,0.68379 -2.25,1.45 -5.85,3.85 -8.4,5.9 -1.346875,1.11016 -2.3,1.85 -1.533984,-0.87559 -2.9,-0.95 l 0.1,0.05 q -0.2,0.35 -1.45,0.35 -1.4,0 -2.6,1.05 -1.05,0.95 -1.55,2.35 -0.7,2 -0.5,5.8 0,2.05 0.05,2.5 0.1,1.45 0.5,2.5 0.35,0.9 1.05,2.65 0.1,0.55 0.05,1.45 0,0.5 -0.05,1.45 -0.15,1.95 0.4,3.65 0.1,0.4 0.6,1.8 0.4,1.15 0.5,1.9 0.2,0.85 0.15,2.95 -0.05,1.95 0.25,2.95 0.3,0.9 1.3,2.1 2.55,3.25 6.15,3.6 1.85,0.25 3.6,-0.5 1.8,-0.75 2.75,-2.3 0.35,-0.65 0.5,-0.95 0.3,-0.55 0.6,-0.8 0.35,-0.4 1,-0.8 0.75,-0.4 1.1,-0.65 1.360742,-0.91758 2,-2.3 7.376172,1.33262 19.1,-6.4 36.2,-24 57.3,-39.2 21.91406,-15.88984 42.3,-32.65 0.33086,0.05 0.65,0.05 1.55,0 2.8,-0.7 1.3,-0.65 2.55,-2.15 l 2.1,-2.8 q 1.07891,-1.52852 3.35,-4.05 0.52305,-0.47969 0.95,-1 1.20898,-1.28027 2.7,-2.8 7.8,-7.7 10.8,-10.25 2.4,-1.95 3.55,-3 2.05,-1.75 3.35,-3.15 2.65,-2.9 4,-4.25 0.8,-0.75 3.35,-2.9 2.1,-1.8 3.2,-3 0.92129,-0.95918 1.6,-1.95 9.07949,-9.26855 20.55,-23.65 22.45,-27.85 43.7,-59.35 8.05,-11.95 11.95,-19.6 5.75,-11.25 7.25,-21.4 0.12422,-0.91094 0.15,-1.8 2.14219,-3.35977 3.55,-5.8 2.25,-3.8 6.55,-12.4 4.3,-8.6 6.05,-13.2 1.5,-3.75 3.5,-10.1 2.45,-7.85 3.3,-10.3 1.35,-3.65 2,-5.55 1.05,-3.2 1.55,-5.7 0.89531,-4.66504 0.65,-12.65 4.48633,-13.62266 6.3,-20.4 1.02539,-3.80625 1.8,-7.4 0.9291,-0.45527 1.7,-1.2 0.0535,-0.0535 0.1,-0.1 1.9,-1.9 2.85,-5.05 0.7,-2.25 1.05,-5.95 2.15,-19.35 2,-38.05 0,-16.74941 -1.8,-33.65 -0.44941,-4.1502 -1,-8.3 -1.34531,-11.24043 -3.7,-21.8 -0.0277,-0.40957 -0.05,-0.8 -0.15,-2.35 -1.25,-13.3 l -1.3,-10.25 q -0.75,-6.65 -1.4,-10.65 -0.95,-5.85 -2.35,-10.45 -1.1,-3.65 -3.7,-10.35 -1.47754,-3.78086 -3.05,-5.85 2.11172,-10.5457 2.9,-14.75 0.1502,-0.77324 0.3,-1.55 0.23848,-0.675 0.4,-1.45 0.066,-0.3625 0.25,-2.15 0.77129,-4.12441 1.45,-8.5 0.30977,-1.17852 0.65,-2.55 1.15215,-4.6416 2.8,-13.2 0.45879,-1.14004 0.95,-2.45 l 6.1,-16.1 q 4.15,-11.2 5.4,-16.85 0.9,-4.05 1.55,-8.8 1.9,-14.9 1.75,-29.55 0,-5.4 -1.2,-8.25 -0.17109,-0.41289 -0.4,-0.8 -0.0225,-1.6627 -0.1,-3.25 m -28.25,147.85 -0.05,0 0.05,-0.05 0,0.05 m -17.3,29.05 q -0.12617,-2.28457 -0.35,-5.4 0.55117,2.35039 0.95,4.85 1.2,7.8 1.75,23.3 0.36328,9.37754 0.65,18.7 -0.68672,-1.60996 -0.85,-2.1 -0.85,-2.65 -1.15,-6.15 -0.15,-2.05 -0.15,-6.25 -0.05,-11.9 -0.85,-26.95 m -243,464.35 q -0.6,0.2 -0.85,-0.3 0,-0.8 -0.1,-1.2 1.6,-0.9 2,-1.1 l 0,-0.1 q 1.4,-0.6 2.25,-0.3 0.75,0.3 0.95,0.8 l -0.35,0.55 q -0.2,0.35 -0.45,0.45 -0.2,0.3 -0.8,0.4 -0.9,0.15 -1.7,0.5 -0.85,0.3 -0.95,0.3 m 155.7,-133.9 q 1.4877,-1.44355 2.85,-2.75 -1.94688,1.9375 -3.95,3.8 0.54766,-0.52617 1.1,-1.05 m -39.35,45.3 -0.1,-0.1 q 0.6,-0.6 1.3,-0.3 -0.45,0.35 -2.5,2.4 -1.55,1.55 -2.8,1.9 3.4,-3.3 4.1,-3.9 z"
         inkscape:connector-curvature="0"
         style="fill:#ffcc00;stroke:none" />
    </g>
    <g
       id="leg_l_0_Layer11_0_FILL">
      <path
         id="path4148"
         d="m 205.55,738.7 q -1.65,-3.05 -0.85,-7.7 0.4,-2.5 2.45,-8.65 1.85,-5.5 2.1,-8.35 0.4,-4.3 -1.95,-6.95 -3.6,-4.1 -61.2,-71.45 Q 98.85,580.3 62.1,540 -52.75,413.9 -142.2,347.05 q -106.9,9.15 -215.95,19.65 -218.05,21.05 -228.7,27.9 -10.65,6.9 -7.95,25 1.35,9.05 4.8,16.7 l 347.7,391.65 447.85,-89.25 m -447.9,82.2 q 11.35059,-19.0248 2.05,-41.05 9.30059,22.0252 -2.05,41.05 z"
         inkscape:connector-curvature="0"
         style="fill:#005fc0;stroke:none" />
    </g>
    <g
       id="leg_l_0_Layer10_0_FILL">
      <path
         id="path4151"
         d="M -142.2,299.05 -590,388.3 -242.3,779.95 205.55,690.7 -142.2,299.05 Z"
         inkscape:connector-curvature="0"
         style="fill:#0099ff;stroke:none" />
    </g>
    <g
       id="leg_l_0_Layer9_0_FILL">
      <path
         id="path4154"
         d="m 126.35,72.65 q -47.1,-19.4 -124.5,33.55 -77.4,52.95 -139.7,147.35 -62.35,94.35 -73.1,174.8 -10.7,80.45 36.4,99.85 47.1,19.4 124.45,-33.55 77.4,-52.95 139.75,-147.3 62.3,-94.4 73.05,-174.85 10.75,-80.45 -36.35,-99.85 z"
         inkscape:connector-curvature="0"
         style="fill:#005fc0;stroke:none" />
    </g>
    <g
       id="leg_l_0_Layer8_0_FILL">
      <path
         id="path4157"
         d="m -131.65,165.85 q 17.13535,-30.79785 27.65,-51.95 28.735156,-57.673242 23.05,-72.65 -43.32715,-5.741406 -81.35,12.15 -38.74043,18.233594 -70.9,60.55 -22.88945,30.15742 -42.35,65.6 -16.15293,29.48594 -22.05,47.1 -3.25742,9.80547 -12.5,35.8 -7.99414,25.50879 -10.35,49.05 -2.45977,24.94531 2.1,47.75 3.33926,16.23262 10.1,30.8 10.39414,22.16953 26.5,28.6 49.7209,-74.60313 121.4,-201.9 18.8707,-33.26074 28.7,-50.9 z"
         inkscape:connector-curvature="0"
         style="fill:#005fc0;stroke:none" />
    </g>
    <g
       id="leg_l_0_Layer7_0_FILL">
      <path
         id="path4160"
         d="m -141.3,81.7 q -0.25,0.2 -0.5,0.55 -69.53066,73.61895 -114.15,169.55 -30.25273,68.28262 -46.85,147.85 l 91.05,97.8 26.3,4.95 1.4,1.25 L -5.1,154.1 -141.3,81.7 Z"
         inkscape:connector-curvature="0"
         style="fill:#ffcc00;stroke:none" />
    </g>
    <g
       id="leg_l_0_Layer6_0_FILL">
      <path
         id="path4163"
         d="m -217.65,493.35 -0.2,-0.25 -109.95,-136.25 -7.25,116.6 114.3,135.5 3,-111.75 0.1,-3.85 z"
         inkscape:connector-curvature="0"
         style="fill:#005fc0;stroke:none" />
      <path
         id="path4165"
         d="m -32.95,574.5 5.3,-126.45 -191.05,36 1.05,1.3 -0.2,7.75 0.2,0.25 -0.1,3.85 0.1,0.15 -2.9,112.5 187.6,-35.35 z"
         inkscape:connector-curvature="0"
         style="fill:#0099ff;stroke:none" />
    </g>
    <g
       id="leg_l_0_Layer5_0_FILL">
      <path
         id="path4168"
         d="m -68.2,-58.45 9.75,188.7 L 199.5,88.1 189.75,-100.6 -68.2,-58.45 m 6.7,99.4 254.4,-44.8 -254.4,44.8 z"
         inkscape:connector-curvature="0"
         style="fill:#0099ff;stroke:none" />
      <path
         id="path4170"
         d="m -77.65,-63.85 -97.55,-34.3 12.4,191.75 97.5,34.3 -12.35,-191.75 z"
         inkscape:connector-curvature="0"
         style="fill:#005fc0;stroke:none" />
    </g>
    <g
       id="leg_l_0_Layer4_0_FILL">
      <path
         id="path4173"
         d="m -95.3,-335 q -24.65,-48.1 -53.7,-42.3 -29.1,5.75 -45.5,62 -16.4,56.25 -10.55,130 5.8,73.75 30.45,121.8 24.65,48.1 53.75,42.35 29.05,-5.8 45.45,-62.05 16.45,-56.15 10.65,-129.9 -5.85,-73.75 -30.55,-121.9 m -46.2,305.55 6.4,-344 -6.4,344 z"
         inkscape:connector-curvature="0"
         style="fill:#005fc0;stroke:none" />
    </g>
    <g
       id="leg_l_0_Layer3_0_FILL">
      <path
         id="path4176"
         d="m 190.65,-104.7 q 56.6,-171 -10.5,-308.6 l -274.45,48.15 q 40.65,149.6 20.1,303.85 l 264.85,-43.4 z"
         inkscape:connector-curvature="0"
         style="fill:#ffff00;stroke:none" />
    </g>
    <g
       id="leg_l_0_Layer2_0_FILL">
      <path
         id="path4179"
         d="m 213.15,-300.6 q -0.15,-64.85 -52.1,-131.1 l -284.25,42.4 q 47.55,66.1 52.15,131.15 l 284.2,-42.45 z"
         inkscape:connector-curvature="0"
         style="fill:#005fc0;stroke:none" />
    </g>
    <g
       id="leg_l_0_Layer1_0_FILL">
      <path
         id="path4182"
         d="m 105.1,-161.05 q -9.35,-18.9 -22.6,-14.05 -13.25,4.8 -22.65,30.55 -9.35,25.65 -9.35,57.2 0,31.5 9.35,50.4 9.4,18.8 22.65,14 13.25,-4.85 22.6,-30.5 9.4,-25.7 9.4,-57.2 0,-31.55 -9.4,-50.4 z"
         inkscape:connector-curvature="0"
         style="fill:#999999;stroke:none" />
    </g>
    <g
       id="leg_l_0_Layer0_0_FILL">
      <path
         id="path4185"
         d="m 27.4,168 q 35,-66.8 30.95,-84.15 -42.7,-6.65 -82.65,14.1 -40.75,21.1 -77.5,70.15 -26.2,34.9 -49.5,75.95 -19.4,34.15 -27.2,54.55 -4.35,11.35 -16.4,41.45 -10.8,29.55 -15.7,56.85 -5.2,28.85 -3.1,55.25 1.55,18.8 6.75,35.7 7.95,25.65 23.35,33.1 57.85,-86.4 143.4,-233.8 Q -17.7,248.6 -5.95,228.2 14.55,192.5 27.4,168 M 200.9,89.35 q 1.85,-21.8 -6.55,-35.3 Q 186.2,40.95 168.85,36.5 159.1,41.4 141,67.35 126.15,88.65 102.05,129.5 93.5,144.1 56.4,208.75 26.65,260.6 8.1,291.05 -63.7,409 -124.35,507.5 q 14.35,4.45 31.25,0.7 12.8,-2.85 33.9,-12.5 37.2,-17.05 96.15,-79.9 23.95,-25.55 45.5,-52.5 20.5,-25.6 31.8,-43.75 Q 152.55,258.45 175,198 196.6,139.75 200.9,89.35 Z"
         inkscape:connector-curvature="0"
         style="fill:#0099ff;stroke:none" />
    </g>
    <g
       id="Head_0_Layer7_0_FILL">
      <path
         id="path4188"
         d="M 153.85,342.6 6.9,274.5 q -10.25,-4.85 -13.2,2.55 -4.717188,10.7625 2.55,30.7 l 163.6,540.85 q 4.8,15.7 15.55,32.65 10.5,16.85 21.15,25.1 l 150.8,117.7 q 5.85,4.5 15.6,9 8.8,4.05 14.45,5.35 -0.85,-6.8 -2.55,-16.9 -3.4,-20.3 -7.75,-37 -0.7,-2.75 -8.8,-40.3 -9.05,-42.15 -18.45,-81.3 -11.3,-46.9 -31.05,-147.15 -20.95,-106 -33.35,-159.5 -16.35,-70.6 -24.4,-125.45 -5.5,-37.6 -5.45,-52.55 0.05,-7.15 -19.75,-12.95 -24.85,-5.9 -34.95,-9.35 -30.3,-10.3 -37.05,-13.35 z"
         inkscape:connector-curvature="0"
         style="fill:#005fc0;stroke:none" />
    </g>
    <g
       id="Head_0_Layer6_0_FILL">
      <path
         id="path4191"
         d="m 1162.75,120.05 q -2.6,-9.6 -6.25,-13.85 -2.2,-2.65 -8.5,-6.25 -9.45,-5.4 -20.05,-3.75 -3.3,0.55 -6.35,1.7 l -2.4,1.05 q -5.8,0.8 -109.75,32.9 -133.05,41.1 -330.75,104.3 -227.7,72.8 -454.8,145.75 13.35254,8.79434 13.95,8.75 -13.42793,8.09141 -16.4,14 -8.4,16.45 -4.4,34.65 l 127.85,572.95 q 2.2,9.85 4.1,13.55 2.85,5.6 8.85,8.15 2.6,1.1 0.75,5 -1.85,3.9 0.05,4.85 6.65,3.2 20.05,1.2 6.7,-0.95 12.1,-2.6 l 841.25,-241.05 q 17.1,-4.75 27.35,-20.9 10.25,-16.05 7.7,-33.95 -25.05,-152.8 -50.6,-307.55 -51.1,-309.4 -53.75,-318.9 z"
         inkscape:connector-curvature="0"
         style="fill:#0099ff;stroke:none" />
    </g>
    <g
       id="Head_0_Layer4_0_FILL">
      <path
         id="path4194"
         d="m 1151.65,109.15 q 9.55,-13.2 -8.65,-22.4 L 993.2,11.15 Q 974.9,1.9 939.1,1.8 903.05,1.5 870.25,10.6 L 52.6,235.15 q -19.662891,6.24492 -31.95,12.1 -12.2935547,5.85586 -19.95,14.95 -7.5984375,9.15098 4.4,24.05 l 165.2,84.35 q 20.1,10.15 61.9,9.45 41.6,-0.9 80.2,-12.3 L 1109.95,131.8 q 31.95,-9.55 41.7,-22.65 z"
         inkscape:connector-curvature="0"
         style="fill:#46b5ff;stroke:none" />
    </g>
    <g
       id="Head_0_Layer3_0_FILL">
      <path
         id="path4197"
         d="m 1169.75,351.55 q 0,-91.9 -64.95,-156.85 -65.05,-64.95 -156.85,-64.95 -91.85,0 -156.8,64.95 -65,64.95 -65,156.85 0,91.85 65,156.8 64.95,64.9 156.8,64.9 91.8,0 156.85,-64.9 64.95,-64.95 64.95,-156.8 M 854.4,346.4 q 0,-15.9 11.25,-27.15 Q 876.9,308 892.8,308 q 15.9,0 27.15,11.25 11.25,11.25 11.25,27.15 0,2.05 -0.15,4 0.15,1.95 0.15,4 0,15.9 -11.25,27.15 -11.25,11.25 -27.15,11.25 -15.9,0 -27.15,-11.25 -11.25,-11.25 -11.25,-27.15 0,-2.05 0.2,-4 -0.2,-1.95 -0.2,-4 z"
         inkscape:connector-curvature="0"
         style="fill:#ffffff;stroke:none" />
      <path
         id="path4199"
         d="m 865.65,319.25 q -11.25,11.25 -11.25,27.15 0,2.05 0.2,4 1.25,13.35 11.05,23.15 11.25,11.25 27.15,11.25 15.9,0 27.15,-11.25 9.8,-9.8 11.1,-23.15 0.15,-1.95 0.15,-4 0,-15.9 -11.25,-27.15 Q 908.7,308 892.8,308 q -15.9,0 -27.15,11.25 z"
         inkscape:connector-curvature="0"
         style="fill:#000000;stroke:none" />
    </g>
    <g
       id="Head_0_Layer2_0_FILL">
      <path
         id="path4202"
         d="m 684.35,654 q 73.6,-59.15 83.8,-153 10.2,-93.9 -48.9,-167.45 -59.25,-73.7 -153.05,-83.9 -93.9,-10.25 -167.45,49 -73.65,59.1 -83.85,153 -10.2,93.85 48.95,167.45 59.15,73.55 153.05,83.8 93.8,10.2 167.45,-48.9 M 486.1,439.4 q 1.75,0.2 3.45,0.5 13.45,2.6 22.3,13.6 9.95,12.45 8.25,28.25 -1.7,15.8 -14.15,25.75 -7.9,6.4 -17.25,8 -5.25,0.85 -10.9,0.25 -15.85,-1.75 -25.8,-14.1 -9.95,-12.4 -8.25,-28.2 1.7,-15.8 14.15,-25.8 12.35,-10 28.2,-8.25 z"
         inkscape:connector-curvature="0"
         style="fill:#ffffff;stroke:none" />
      <path
         id="path4204"
         d="m 489.55,439.9 q -1.7,-0.3 -3.45,-0.5 -15.85,-1.75 -28.2,8.25 -12.45,10 -14.15,25.8 -1.7,15.8 8.25,28.2 9.95,12.35 25.8,14.1 5.65,0.6 10.9,-0.25 9.35,-1.6 17.25,-8 12.45,-9.95 14.15,-25.75 1.7,-15.8 -8.25,-28.25 -8.85,-11 -22.3,-13.6 z"
         inkscape:connector-curvature="0"
         style="fill:#000000;stroke:none" />
    </g>
    <g
       id="Head_0_Layer1_0_FILL">
      <path
         id="path4207"
         d="m 730.5,761.6 q 13.6,14.45 32.35,22.45 20.35,8.7 43.7,8.4 25.75,-0.3 52.65,-11.65 25.25,-10.65 38.6,-32.5 11.4,-18.7 13.4,-44.1 1.7,-21.4 -3.4,-43.75 -4.45,-19.6 -11.8,-31.65 -14.9,18.2 -29.65,31.4 -23,20.55 -55.15,39 -19.3,11.05 -49.4,20.55 -28.45,8.95 -49.8,11.45 5.55,16.65 18.5,30.4 z"
         inkscape:connector-curvature="0"
         style="fill:#ffffff;stroke:none" />
    </g>
    <g
       id="arm_l_0_Layer1_0_FILL">
      <path
         id="path4210"
         d="m 426.4,614.95 q 2.1,1 3.1,1.35 1.85,0.6 3.35,0.5 1.8,-0.1 3.15,-1.25 1.45,-1.25 1.4,-2.95 -0.0478,-2.7793 -4.6,-4.8 -0.15098,1.02598 -0.65,1.85 -1.7,2.75 -5.95,2.75 -1.35,0 -3.3,-0.35 -1.53437,-0.31387 -2.55,-0.5 -0.20469,0.10801 -0.45,0.2 3.0627,1.50918 6.5,3.2 m 76.2,-85 q -3.2,-1.75 -8.55,-5.8 L 477.2,511.2 q -7.5,-5.7 -11.1,-9.45 -2.00801,-2.07969 -3.6,-4.2 4.41855,8.07695 7.15,12.15 4.6,6.85 9.55,11.15 6.95,6 16.4,8.95 5.94434,1.84941 12.25,2.3 -2.56016,-0.71191 -5.25,-2.15 m -180.7,-43 q -0.2166,-0.34336 -0.4,-0.7 -1.86445,18.75332 -0.3,38.7 0.75,9.5 2.7,14.8 2.35,6.35 9.1,14.8 1.64082,2.04746 3.3,4.05 -0.0596,-0.20254 -0.15,-0.4 -2.85,-5.7 -3.75,-8.3 -1.35,-3.6 -0.6,-6.15 0.21211,-0.69395 0.6,-1.3 -0.99141,-2.31973 -1.6,-4.45 -1.05,-3.8 -2,-12.4 l -0.15,-1.35 q -1.24648,-0.96641 -1.7,-2.1 -0.4,-1.25 -0.25,-2.4 l 0,-0.05 q -0.97422,-2.96367 -1.35,-6.55 -0.4,-3.75 -0.15,-9.65 0.1084,-2.6752 0.55,-9.75 l -0.35,-3.8 q -0.22246,-0.0805 -0.45,-0.2 -1.85,-1 -3.05,-2.8 M 205.55,344.7 q 0.0588,-0.065 0.1,-0.15 -6.28301,1.34336 -12.25,2.35 5.96992,0.27871 12.15,-2.2 m 297,14.95 q -0.58906,0.0693 -1.9,0.1 23.34688,2.98086 45.95,10.55 4.25,1.35 5.6,3.5 0.0496,0.0779 0.1,0.15 1.94785,0.47461 4,1.2 2.61504,0.94141 6.5,2.75 1.93359,-0.10352 3.2,0.05 2.45,0.25 4,1.45 0.85,0.7 1.7,2 0.43145,0.6041 1.2,1.8 0.19746,0.10391 0.35,0.2 3.6,2.25 6.1,4.65 3.25,3.1 5.45,7.35 0.9377,1.79727 1.4,3.65 0.8332,1.28203 1.95,3 3.7,5.95 5.35,10.35 0.8,1.9 2.1,5.9 1.35,4.55 1.8,6.25 0.45,1.8 1.3,6.05 1.4,7.45 1.85,10.25 0.55,3 0.95,6.75 l 0.9,6.55 q 0.6,5.75 0.45,11.45 -0.05,2.5 -0.4,4 -0.55,2.2 -1.85,3.5 -1.35,1.4 -3.45,1.55 -0.14707,0.0106 -0.3,0 -0.33652,2.1959 -0.8,4.05 -0.95,3.6 -2.9,7.75 -1.25,2.75 -3.8,7.35 -2.8,5.3 -4.95,8.15 -1.54512,2.05215 -3.2,3.6 -1.98164,2.98789 -4.15,5.85 -8.95,11.8 -20.35,20.5 -4.4,3.35 -7.85,5.05 -2.10488,1.02949 -4.15,1.6 12.10605,-2.3916 19.85,-9.1 9.4,-8.15 16.7,-17.2 7.7,-9.65 14.45,-22 7,-12.85 8.45,-29.8 1.25,-15.3 -2.1,-31.65 -2.4,-11.5 -6.55,-21.45 -1.35,-3.2 -2.9,-6.25 -2.55,-5.05 -5.05,-8.85 -1.15,-1.75 -6.75,-9.6 -0.3,-0.4 -8.75,-3.7 -8.13711,-3.19258 -16.85,-6.05 0.0652,-0.0504 0.1,-0.1 0.20508,-0.29375 0.35,-0.6 -0.50332,-0.035 -1.05,-0.15 -1.6,-0.35 -3.45,-1.3 -0.29785,-0.14102 -0.75,-0.4 -0.11387,-0.007 -0.25,-0.05 -1.58535,-0.49824 -2.7,-1.6 -6.97188,-4.27559 -12.6,-6.75 -7.3,-3.25 -14,-4.3 -2.7,-0.45 -6.25,-0.6 -1.54668,-0.0937 -5.75,-0.2 -0.25313,0.34473 -0.6,0.65 -1.15,1 -2.65,1.5 -1.3,0.5 -3.05,0.65 m -110.5,-60.45 0,-0.25 q -0.89688,0.0432 -1.8,0.1 1.40605,0.54512 2.25,1.55 3.91719,-0.40215 7.4,-0.6 l 0,-0.5 27.45,0.15 q 4.73184,0 7,1.5 1.07754,-0.93301 2.45,-1 1.4,0 1.65,-0.55 l -0.15,-0.1 q 1.65,0.3 3.6,1.35 1.15,0.6 3.35,1.95 0.46836,0.22695 0.95,0.45 0.82969,-0.20449 1.7,-0.15 l 0.1,-0.5 q 15.55313,5.32871 29,11.4 2.36016,0.84785 5,1.8 5.35,2.05 8.6,3.6 4.16152,1.99023 7.3,4.15 8.24277,1.19063 15.6,4.6 3.9,1.7 7.1,4.05 2.2,1.6 7.05,5.8 l 2.85,2.35 q 0.53594,0.25723 0.9,0.5 0.6,0.45 1.55,1.35 1,0.95 1.45,1.3 0.6,0.5 1.8,1.2 1.35,0.8 1.85,1.2 0.55,0.4 1.75,1.5 1.05,1 1.7,1.45 0.45,0.3 2,1.15 1.2,0.65 1.85,1.25 0.15,0.1 0.95,1.1 0.6,0.65 1.1,0.9 0.45,0.3 1.25,0.5 0.45,0.1 1.35,0.25 0.47773,0.0434 0.9,0.1 -3.13984,-4.64316 -5.1,-7.2 -3.7,-4.8 -7.4,-7.95 -6.15,-5.2 -16.7,-9.4 -12.3,-4.3 -18.3,-6.7 -5.9,-2.35 -21.95,-10.3 -13.65,-6.75 -22.25,-9.55 -14.4,-4.55 -33.2,-5.05 -11.65,-0.3 -33.95,1.25 M 419.2,48.8 q 0.0824,0.04785 0.15,0.1 2.05,0.453125 3.55,2 0.30977,0.319336 0.55,0.65 1.13418,0.843945 1.8,1.55 3.05,3.2 2.75,6.8 -0.1,0.95 -0.65,2.5 -0.6,1.8 -0.75,2.45 -0.15,0.7 -0.25,2.35 -0.1,1.5 -0.3,2.3 -0.45,2.1 -2.05,4.3 -0.85,1.15 -3.2,3.6 -5.4,5.45 -8.1,8.2 -6.3,6.6 -11.05,10.6 -3.05,2.7 -9.45,7.5 -6.5,4.9 -9.5,7.5 -3.30332,3.09844 -5.85,5.3 -0.42461,1.01074 -1.15,2 -1.05,1.45 -3.4,3.7 -113.1,108.75 -213.9,231 -5.05,6.15 -7.4,9.35 -3.95,5.3 -6.4,10 -1.4,2.6 -3.6,7.85 -2.3,5.3 -3.6,7.8 -2.45,4.9 -7.35,12.25 l -3.4,5.15 q 0.31777,0.50898 0.6,1.05 0.4,0.85 1.85,4.2 2.3,5.05 7.2,13.35 2.50332,4.29883 8.35,3.75 5.83984,-0.54727 7.95,0.9 2.15879,1.4498 3.6,-1.9 1.44961,-3.35586 4,1.05 2.54434,4.4627 10.5,5.35 0.91309,-0.44297 2.3,-1.15 24.15,-10.9 53.3,-19.5 24.25,-7.1 55.2,-13.5 l 0,-0.4 q 0.99785,0.0809 1.9,0.4 21.13086,-5.55078 60.2,-14.4 l 33.2,-7.45 q 12.20996,-2.81563 22.05,-4.95 l -20.45,0 q -4.05,0 -6.35,-0.8 -0.18301,-0.0709 -0.35,-0.15 -1.06152,0.0779 -2.1,0.15 -15.75,1.15 -20.05,1.65 -11.25,1.45 -19.35,4.65 -2.35,0.95 -3.4,1.3 -1.95,0.65 -3.55,0.8 -1.22031,0.032 -2.35,-0.3 -9.52891,1.94316 -19.05,4.05 -5.88535,1.83164 -13.45,4.25 -0.0838,0.20391 -0.2,0.4 -0.65,1.2 -2.1,2.2 -1,0.7 -2.85,1.6 -6.7,3.05 -13.6,5.05 -9.55,3 -22,5.6 -6.65,1.4 -22.25,4.25 l -16,2.95 q -7.7,1.45 -11.4,2.4 -6.3,1.6 -11,3.85 -2.9,1.4 -3.95,1.7 -2.35,0.75 -4.1,0.3 -0.82324,-0.20586 -1.55,-0.65 l -1.9,0.65 q -3,1.15 -4.1,2 -0.55,0.45 -1.6,1.75 -1,1.2 -1.65,1.7 -1.9,1.45 -4.45,1.05 -2.55,-0.4 -3.95,-2.35 -0.63652,-0.88281 -0.95,-1.9 l 0,0 q -8.95,0.1 -13.4,-4.35 -3.15,-3.15 -4,-8.7 -0.35,-3.7 -0.05,-6.25 0.35,-4.35 2,-9.05 2.8,-7.3 10.25,-16 l 4.85,-5.25 q 1.75,-1.95 5.45,-5.75 3.25,-3.4 5.5,-4.75 1.5291,-0.78086 -0.4,-6.6 -1.11367,-0.93887 -2.5,-2.05 1.24551,0.80762 2.35,1.5 1.80078,1.14258 6.8,-3.9 -2.04316,0.23105 -4.05,0.4 -1.64805,0.15195 -2.95,0.3 -0.48184,0.10137 -0.95,0.15 -0.0494,0.0371 -0.15,0.05 0.0787,-0.0656 0.1,-0.15 0.28672,-0.28906 0.55,-0.6 0.0246,-0.0291 0.05,-0.05 34.28789,-40.54043 87.05,-96.8 108.35,-115.55 180.8,-184.05 0.85,0 -13.05,-35 L 311.1,9 Q 290.325,13.662109 237.75,69.15 185.23125,124.64082 132.15,178.5 79.05625,232.35293 40.2,289.2 4.45,341.6 0.45,377.1 q -1.5,13.5 2.05,25.4 0.7,2.4 1.7,4.85 3.2,8.25 9.1,16.75 12,17.35 35.85,28.55 11.75,5.45 31.65,10.5 24,6.1 42.85,6.6 l 0.05,0 q 0.1,0 6.5,0.4 7.2,0.3 11.45,0.1 22.9,-1.3 86.75,-16.15 35.91484,-8.3623 109.4,-27.15 -0.65,1.35 -2.7,5.85 -5.29023,11.93223 -8.75,25.55 1.7709,-3.84414 2.9,-6.3 2.25,-4.95 3.35,-8 2,-5.35 3.7,-7.5 1.55,-1.85 4.15,-3.45 1.6,-0.95 4.9,-2.5 3.85,-1.85 6.05,-2.65 1.76152,-0.69941 3.4,-1.15 0.47871,-0.19492 1,-0.4 1.2,-0.5 3.65,-1.65 2.15,-1 3.75,-1.5 0.95,-0.3 3.5,-0.9 2.25,-0.5 3.5,-0.95 1.4,-0.45 3.95,-1.6 2.65,-1.15 3.9,-1.6 1.65,-0.5 5.4,-1.2 3.55,-0.6 5.4,-1.25 1.2,-0.4 3.5,-1.35 2.05,-0.8 3.65,-0.9 0.7,0 0.85,-0.3 l -0.15,0 q 1.65,-0.2 3.25,0.35 0.39316,0.11914 0.75,0.25 l 2.5,-0.45 -0.1,-0.15 q 0.2666,0 0.75,-0.05 0.58184,-0.4541 1.3,-0.8 1.35,-0.65 2.75,-0.45 0,-0.25 0.1,-0.3 1.08066,0.0941 3.05,-0.05 0.36602,-0.0174 0.7,-0.05 1.57441,-0.0412 2.4,0 0.68965,0 1.3,0.05 1.45488,-0.30449 3,0.6 0.7166,0.42266 1.25,0.95 0.16719,0.13301 0.3,0.25 1,0.9 1.5,2.2 0.5,1.35 0.3,2.65 -0.0738,0.85645 -0.35,1.55 -0.21953,1.82383 -0.85,4 -1.65,6.3 -5.5,18.7 -3.2,11.15 -4.3,18.95 -0.6,4 -1.25,12.05 -0.65,8 -1.25,11.95 -0.3,2.15 -1.05,6.4 -0.6,3.7 -0.65,6.35 -0.05,3.4 0.85,8.8 1.1,7.05 1.25,8.8 0.3,3.3 0.25,8.2 -0.05,2.75 -0.15,8.25 0,17.85 5.4,35.2 5.35,17.3 15.45,32.1 3.54121,5.02617 3.15,8.25 0.33574,-0.057 0.65,-0.15 1.84141,-0.55 3.2,-1.45 2.14238,2.70801 4.45,5.25 6.35,4.85 15.15,6.05 8.15,1.15 15.2,-1.1 7.25,-2.35 9.85,-7.15 2.85,-5.25 -1.15,-11.8 -12.4,-20.1 -20.35,-52.4 -8.05,-32.85 -7.9,-63.7 l 0,-0.05 q 0.1,-9.4 0.85,-17.15 0.71875,-7.36309 1.8,-13.9 -1.12266,9.3709 -1.25,14.85 -0.15,10.15 2.3,17.9 0.92129,2.78926 2.6,6.35 -0.91699,-3.05039 -1.6,-7.65 -1,-6.45 -1.35,-9.55 -0.65,-5.3 -0.65,-9.65 0,-20.45 12.75,-42.85 2.5,-4.45 4.7,-6.95 3.05,-3.45 6.65,-4.65 1.75,-0.6 4.45,-0.85 1.5,-0.15 4.5,-0.45 5.1,-0.75 9.75,-3.35 l 0.2,0.3 q 14.4,-1.3 27.9,2.5 6.55,1.85 10.65,4.25 4.65,2.65 10.8,8.4 5.35,4.85 7.45,8.3 1.45,2.45 2.55,5.8 0.7,2.3 1.6,6.3 1,4.55 1.3,6.55 0.5,3.75 0.15,6.65 -0.4,2.85 -2.65,8.6 -3.15,7.75 -5.6,12.6 -3.4,6.7 -7.2,11.6 -1.85,2.35 -6.65,7.55 -4.4,4.75 -6.55,7.65 -7.85,10.15 -10.1,23.1 -0.45,2.8 -0.7,3.7 -0.6,2.05 -1.7,3.25 -1.02051,1.08711 -2.45,1.65 4.65742,-0.27168 8.45,-1.6 0.16973,0.49395 0.35,1 1.7,4.75 4.6,8.25 l 3.5,0.05 q 3.27207,-0.0377 6.55,-0.45 -4.68691,0.14102 -8.65,-2.55 -4.25,-2.85 -4.9,-7.3 -0.55,-3.9 2.05,-8.3 1.6,-2.7 5.65,-7.2 23.55,-26.5 31.4,-56.35 2.35,-8.75 1.55,-14.85 -0.4,-2.95 -2.5,-9 -1.45,-4.15 -2.45,-6.4 -1.55,-3.5 -3.45,-6 -2.8,-3.65 -8.3,-7.15 -6.5,-3.85 -9.65,-5.85 -4.55,-3.2 -6.85,-4.8 -4.05,-2.75 -7.2,-4.1 -6.4,-2.65 -15,-2.4 -5.55,0.15 -15.5,1.9 -5.7,1 -8.4,1.7 -4.65,1.2 -8,3.05 -3.2,1.95 -4.8,2.9 -2.9,1.65 -5.1,2.15 -0.63203,0.13926 -1.25,0.15 -1.87598,1.66465 -2.85,2.55 -3.7,3.65 -7.25,9.6 -10.4,18 -12.35,43.9 -0.7,10.25 -0.05,22.95 0.45,8.3 1.9,22.9 0.85,9.65 2.25,19.15 1.5,9.05 4.35,20 1.8,6.9 5.55,19.75 3.1,10.2 5.7,15.05 0.9,1.55 5.2,7.75 3.25,4.7 4.55,8.05 1.2,3.05 1.05,5.9 -0.2,3.3 -2.15,5.3 -2.35,2.35 -7.2,2.65 -5.6,0.3 -11.2,-1.8 -5.3,-2 -9.85,-5.8 -7.5,-6.05 -14,-17.9 -10.5,-19.35 -14.65,-45.45 -3.2,-19.95 -3.1,-48.4 0,-10.95 0.6,-18.3 0.8,-10 2.9,-18 0.95,-3.35 1.35,-5.05 0.7,-2.85 0.8,-5.05 0.05,-1 0,-3.85 0,-2.4 0.15,-3.85 0.35,-2.7 1.95,-6.55 2.35,-5.75 2.55,-6.4 1.3,-3.85 1.95,-9.75 0.6,-6.65 1,-10 0.27012,-2.20664 0.8,-5.25 -4.70391,1.45098 -7.1,2.05 -4,0.95 -9.7,1.6 -6.5,0.7 -9.75,1.05 -21.55,2.3 -53.3,11.6 -17.55,5.25 -26.3,7.85 -15.65,4.7 -26.5,7.35 -14.25,3.45 -32.65,6.6 -9.65,1.65 -33,5.15 -4.57813,0.6541 -7,-0.45 -1.92617,0.77559 -4.45,1.85 -5.35,2.35 -7.85,3.15 -4.5,1.55 -14.9,3.25 -9.8,1.55 -14.75,3.55 -3.25,1.45 -4.85,2.15 -2.85,1.25 -4.95,1.6 -0.95,0.15 -3.6,0.4 -2.3,0.2 -3.6,0.5 -2.05,0.55 -4.95,2.25 -4.15,2.4 -4.8,2.7 -3.4,1.6 -8.15,2.25 -3.05,0.4 -8.55,0.55 -5.95,0.15 -8.95,-0.25 -4.95,-0.6 -8.25,-2.8 -2.45,-1.6 -5.3,-5.15 -4.35,-5.5 -4.8,-5.95 -4.4,-3.9 -6.45,-5.9 -3.6,-3.55 -4.25,-7.05 -0.25,-1.35 -0.15,-4.4 0.1,-2.9 -0.25,-4.4 -0.3,-1.1 -1.1,-2.75 -1.05,-1.95 -1.3,-2.6 -1.25,-3.5 -0.8,-9.15 0.45,-5.85 1.95,-12.9 0.95,-4.6 3,-12.75 2.59316,-10.68555 8,-12.65 0.90371,-2.37773 2.15,-4.85 2.15,-4.25 6.4,-10.5 13.45,-19.65 32.75,-42.2 11.85,-13.9 35.75,-39.8 56.1,-61.1 113.05,-122.8 13.55,-14.8 21.5,-23.1 12.05,-12.5 22.55,-21.95 12.64883,-11.43887 26.5,-21.65 3.24961,-3.816602 7.05,-7.95 4.35,-4.7 12.7,-13.2 3.65,-3.65 5,-4.9 2.85,-2.65 5.4,-4.4 0.85,-0.55 2.55,-1.65 1.45,-0.95 2.35,-1.95 1,-1 2.4,-3.25 1.5,-2.35 2.4,-3.3 1.65,-1.75 4.4,-3.05 0.89883,-0.423047 2.25,-0.95 l 0.05,0 q 1.20859,-0.846094 2.3,-0.8 0.23867,-0.06543 3.15,-11.25 l -2.65,11 0.05,0 0.05,-0.05 M 159.65,359.7 q 0.069,-0.0322 0.1,-0.1 0.0418,0.0471 0.05,0.1 -0.0578,0.009 -0.15,0 m 187.9,64.75 q 0.31465,-0.074 0.6,-0.15 -0.23789,0.21289 -0.5,0.4 -0.0215,-0.11738 -0.1,-0.25 z"
         inkscape:connector-curvature="0"
         style="fill:#ffff00;stroke:none" />
      <path
         id="path4212"
         d="m 558.55,439.2 q -0.9,-4 -1.6,-6.3 -1.1,-3.35 -2.55,-5.8 -2.1,-3.45 -7.45,-8.3 -6.15,-5.75 -10.8,-8.4 -4.1,-2.4 -10.65,-4.25 -13.5,-3.8 -27.9,-2.5 l -0.2,-0.3 q -4.65,2.6 -9.75,3.35 -3,0.3 -4.5,0.45 -2.7,0.25 -4.45,0.85 -3.6,1.2 -6.65,4.65 -2.2,2.5 -4.7,6.95 -12.75,22.4 -12.75,42.85 0,4.35 0.65,9.65 0.35,3.1 1.35,9.55 0.68301,4.59961 1.6,7.65 0.10625,0.31465 0.2,0.6 1.34707,3.88066 4.1,7.65 1.59199,2.12031 3.6,4.2 3.6,3.75 11.1,9.45 l 16.85,12.95 q 5.35,4.05 8.55,5.8 2.68984,1.43809 5.25,2.15 2.22344,0.62988 4.35,0.7 2.41992,0.0557 4.2,-0.7 1.42949,-0.56289 2.45,-1.65 1.1,-1.2 1.7,-3.25 0.25,-0.9 0.7,-3.7 2.25,-12.95 10.1,-23.1 2.15,-2.9 6.55,-7.65 4.8,-5.2 6.65,-7.55 3.8,-4.9 7.2,-11.6 2.45,-4.85 5.6,-12.6 2.25,-5.75 2.65,-8.6 0.35,-2.9 -0.15,-6.65 -0.3,-2 -1.3,-6.55 z"
         inkscape:connector-curvature="0"
         style="fill:#ff8400;stroke:none" />
      <path
         id="path4214"
         d="m 323.2,465.15 q -3.1,7.65 -3.2,13.8 -0.13418,4.24805 1.5,7.3 0.1834,0.35664 0.4,0.7 1.2,1.8 3.05,2.8 0.22754,0.11953 0.45,0.2 l 0.35,3.8 q -0.4416,7.0748 -0.55,9.75 -0.25,5.9 0.15,9.65 0.37578,3.58633 1.35,6.55 l 0,0.05 q -0.15,1.15 0.25,2.4 0.45352,1.13359 1.7,2.1 l 0.15,1.35 q 0.95,8.6 2,12.4 0.60859,2.13027 1.6,4.45 -0.38789,0.60605 -0.6,1.3 -0.75,2.55 0.6,6.15 0.9,2.6 3.75,8.3 0.0904,0.19746 0.15,0.4 1.5877,3.34258 3.1,5.8 1.5,2.4 5.3,7.1 3.95,4.8 6.15,6.7 2.05,1.75 2.75,2.6 0.6,0.7 1.75,2.2 0.8,0.9 2.1,1.8 0.75,0.5 2.3,1.5 0.75,0.55 2.1,1.6 1.2,0.9 2.2,1.35 0.2543,0.11563 0.5,0.2 2.42598,1.8373 5.45,3.7 3.85,2.35 11.65,7 3.25,2.25 5.2,2.4 1.6,0.2 3.1,-0.65 0.30293,-0.17168 0.55,-0.4 0.76289,0.38945 1.4,0.65 2.75,1.15 2.9,1.25 0.15,0.1 1.4,1 0.85,0.6 1.45,0.85 0.60078,0.31621 1.35,0.5 1.89277,1.225 2.6,1.5 0.8,0.4 2.85,1.05 1.85,0.55 2.75,1.1 0.3,0.2 1.4,1.1 0.85,0.7 1.45,1 0.95,0.5 2.35,0.7 0.45,0.1 2.45,0.2 1.95,0 2.9,-0.1 1.2248,-0.15312 2.15,-0.55 0.24531,-0.092 0.45,-0.2 1.01563,0.18613 2.55,0.5 1.95,0.35 3.3,0.35 4.25,0 5.95,-2.75 0.49902,-0.82402 0.65,-1.85 l 0,-0.05 q 0.39121,-3.22383 -3.15,-8.25 -10.1,-14.8 -15.45,-32.1 -5.4,-17.35 -5.4,-35.2 0.1,-5.5 0.15,-8.25 0.05,-4.9 -0.25,-8.2 -0.15,-1.75 -1.25,-8.8 -0.9,-5.4 -0.85,-8.8 0.05,-2.65 0.65,-6.35 0.75,-4.25 1.05,-6.4 0.6,-3.95 1.25,-11.95 0.65,-8.05 1.25,-12.05 1.1,-7.8 4.3,-18.95 3.85,-12.4 5.5,-18.7 0.63047,-2.17617 0.85,-4 0.27617,-0.69355 0.35,-1.55 0.2,-1.3 -0.3,-2.65 -0.5,-1.3 -1.5,-2.2 -0.13281,-0.11699 -0.3,-0.25 -0.5334,-0.52734 -1.25,-0.95 -1.54512,-0.90449 -3,-0.6 -0.61035,-0.05 -1.3,-0.05 -0.82559,-0.0412 -2.4,0 -0.33398,0.0326 -0.7,0.05 -1.96934,0.14414 -3.05,0.05 -0.1,0.05 -0.1,0.3 -1.4,-0.2 -2.75,0.45 -0.71816,0.3459 -1.3,0.8 -0.4834,0.05 -0.75,0.05 l 0.1,0.15 -2.5,0.45 q -0.35684,-0.13086 -0.75,-0.25 -1.6,-0.55 -3.25,-0.35 l 0.15,0 q -0.15,0.3 -0.85,0.3 -1.6,0.1 -3.65,0.9 -2.3,0.95 -3.5,1.35 -1.85,0.65 -5.4,1.25 -3.75,0.7 -5.4,1.2 -1.25,0.45 -3.9,1.6 -2.55,1.15 -3.95,1.6 -1.25,0.45 -3.5,0.95 -2.55,0.6 -3.5,0.9 -1.6,0.5 -3.75,1.5 -2.45,1.15 -3.65,1.65 -0.52129,0.20508 -1,0.4 -1.63848,0.45059 -3.4,1.15 -2.2,0.8 -6.05,2.65 -3.3,1.55 -4.9,2.5 -2.6,1.6 -4.15,3.45 -1.7,2.15 -3.7,7.5 -1.1,3.05 -3.35,8 -1.1291,2.45586 -2.9,6.3 -1.38652,2.98984 -3.15,6.8 m 67.05,-166.1 q -0.3584,-0.14238 -0.75,-0.25 -1.3,-0.4 -3.75,-0.6 -11.8,-0.6 -24.25,-0.2 l -0.1,-0.65 q -26.3,4.2 -58.25,13.2 -19.95,5.55 -57.15,17.65 -22.9,7.35 -34.2,12 -3.35,1.4 -5.2,3.25 -0.53906,0.53906 -0.95,1.1 -0.0412,0.085 -0.1,0.15 -6.18008,2.47871 -12.15,2.2 -0.62773,0.005 -1.25,-0.05 -6.56074,-0.57773 -8.7,-1.9 -2.10605,-1.32793 -7.45,4.1 -0.15859,0.18789 -0.35,0.35 -4.99922,5.04258 -6.8,3.9 -1.10449,-0.69238 -2.35,-1.5 1.38633,1.11113 2.5,2.05 1.9291,5.81914 0.4,6.6 -2.25,1.35 -5.5,4.75 -3.7,3.8 -5.45,5.75 l -4.85,5.25 q -7.45,8.7 -10.25,16 -1.65,4.7 -2,9.05 -0.3,2.55 0.05,6.25 0.85,5.55 4,8.7 4.45,4.45 13.4,4.35 l 0,0 q 0.31348,1.01719 0.95,1.9 1.4,1.95 3.95,2.35 2.55,0.4 4.45,-1.05 0.65,-0.5 1.65,-1.7 1.05,-1.3 1.6,-1.75 1.1,-0.85 4.1,-2 l 1.9,-0.65 q 0.72676,0.44414 1.55,0.65 1.75,0.45 4.1,-0.3 1.05,-0.3 3.95,-1.7 4.7,-2.25 11,-3.85 3.7,-0.95 11.4,-2.4 l 16,-2.95 q 15.6,-2.85 22.25,-4.25 12.45,-2.6 22,-5.6 6.9,-2 13.6,-5.05 1.85,-0.9 2.85,-1.6 1.45,-1 2.1,-2.2 0.11621,-0.19609 0.2,-0.4 7.56465,-2.41836 13.45,-4.25 9.52109,-2.10684 19.05,-4.05 1.12969,0.33203 2.35,0.3 1.6,-0.15 3.55,-0.8 1.05,-0.35 3.4,-1.3 8.1,-3.2 19.35,-4.65 4.3,-0.5 20.05,-1.65 1.03848,-0.0721 2.1,-0.15 0.16699,0.0791 0.35,0.15 2.3,0.8 6.35,0.8 l 20.45,0 2.1,0 q 12.05,0 18.05,-0.5 8.47676,-0.67813 20.65,-3.3 0.51133,0.17109 1.05,0.25 1.7,0.35 3.9,0 1.25,-0.25 3.85,-0.95 9.0873,-2.64141 14.65,-4.25 17.75781,-3.32031 36.3,-3.85 0.70605,-0.0154 1.25,-0.05 1.31094,-0.0307 1.9,-0.1 1.75,-0.15 3.05,-0.65 1.5,-0.5 2.65,-1.5 0.34687,-0.30527 0.6,-0.65 4.20332,0.10625 5.75,0.2 3.55,0.15 6.25,0.6 6.7,1.05 14,4.3 5.62812,2.47441 12.6,6.75 1.11465,1.10176 2.7,1.6 0.13613,0.0428 0.25,0.05 0.45215,0.25898 0.75,0.4 1.85,0.95 3.45,1.3 0.54668,0.11504 1.05,0.15 1.36797,0.10605 2.65,-0.25 1.95,-0.5 3.1,-1.9 1.45,-1.9 0.95,-4.6 -0.45,-2.55 -2.3,-4.45 -1.47871,-1.47871 -4,-2.7 -0.98535,-1.98027 -1.75,-2.7 -1.28066,-1.11543 -3.4,-1.5 -0.42227,-0.0566 -0.9,-0.1 -0.9,-0.15 -1.35,-0.25 -0.8,-0.2 -1.25,-0.5 -0.5,-0.25 -1.1,-0.9 -0.8,-1 -0.95,-1.1 -0.65,-0.6 -1.85,-1.25 -1.55,-0.85 -2,-1.15 -0.65,-0.45 -1.7,-1.45 -1.2,-1.1 -1.75,-1.5 -0.5,-0.4 -1.85,-1.2 -1.2,-0.7 -1.8,-1.2 -0.45,-0.35 -1.45,-1.3 -0.95,-0.9 -1.55,-1.35 -0.36406,-0.24277 -0.9,-0.5 L 527.65,338 q -4.85,-4.2 -7.05,-5.8 -3.2,-2.35 -7.1,-4.05 -7.35723,-3.40937 -15.6,-4.6 -3.13848,-2.15977 -7.3,-4.15 -3.25,-1.55 -8.6,-3.6 -2.63984,-0.95215 -5,-1.8 -13.44687,-6.07129 -29,-11.4 l -0.1,0.5 q -0.87031,-0.0545 -1.7,0.15 -0.48164,-0.22305 -0.95,-0.45 -2.2,-1.35 -3.35,-1.95 -1.95,-1.05 -3.6,-1.35 l 0.15,0.1 q -0.25,0.55 -1.65,0.55 -1.37246,0.067 -2.45,1 -2.26816,-1.5 -7,-1.5 l -27.45,-0.15 0,0.5 q -3.48281,0.19785 -7.4,0.6 -0.84395,-1.00488 -2.25,-1.55 z"
         inkscape:connector-curvature="0"
         style="fill:#ff9900;stroke:none" />
      <path
         id="path4216"
         d="m 419.35,48.9 q -0.0676,-0.05215 -0.15,-0.1 l -0.05,0.05 -0.05,0 2.65,-11 q -2.91133,11.18457 -3.15,11.25 -1.09141,-0.04609 -2.3,0.8 l -0.05,0 q -1.35117,0.526953 -2.25,0.95 -2.75,1.3 -4.4,3.05 -0.9,0.95 -2.4,3.3 -1.4,2.25 -2.4,3.25 -0.9,1 -2.35,1.95 -1.7,1.1 -2.55,1.65 -2.55,1.75 -5.4,4.4 -1.35,1.25 -5,4.9 -8.35,8.5 -12.7,13.2 -3.80039,4.133398 -7.05,7.95 -13.85117,10.21113 -26.5,21.65 -10.5,9.45 -22.55,21.95 -7.95,8.3 -21.5,23.1 -56.95,61.7 -113.05,122.8 -23.9,25.9 -35.75,39.8 -19.3,22.55 -32.75,42.2 -4.25,6.25 -6.4,10.5 -1.24629,2.47227 -2.15,4.85 -5.40684,1.96445 -8,12.65 -2.05,8.15 -3,12.75 -1.5,7.05 -1.95,12.9 -0.45,5.65 0.8,9.15 0.25,0.65 1.3,2.6 0.8,1.65 1.1,2.75 0.35,1.5 0.25,4.4 -0.1,3.05 0.15,4.4 0.65,3.5 4.25,7.05 2.05,2 6.45,5.9 0.45,0.45 4.8,5.95 2.85,3.55 5.3,5.15 3.3,2.2 8.25,2.8 3,0.4 8.95,0.25 5.5,-0.15 8.55,-0.55 4.75,-0.65 8.15,-2.25 0.65,-0.3 4.8,-2.7 2.9,-1.7 4.95,-2.25 1.3,-0.3 3.6,-0.5 2.65,-0.25 3.6,-0.4 2.1,-0.35 4.95,-1.6 1.6,-0.7 4.85,-2.15 4.95,-2 14.75,-3.55 10.4,-1.7 14.9,-3.25 2.5,-0.8 7.85,-3.15 2.52383,-1.07441 4.45,-1.85 2.42187,1.1041 7,0.45 23.35,-3.5 33,-5.15 18.4,-3.15 32.65,-6.6 10.85,-2.65 26.5,-7.35 8.75,-2.6 26.3,-7.85 31.75,-9.3 53.3,-11.6 3.25,-0.35 9.75,-1.05 5.7,-0.65 9.7,-1.6 2.39609,-0.59902 7.1,-2.05 -0.52988,3.04336 -0.8,5.25 -0.4,3.35 -1,10 -0.65,5.9 -1.95,9.75 -0.2,0.65 -2.55,6.4 -1.6,3.85 -1.95,6.55 -0.15,1.45 -0.15,3.85 0.05,2.85 0,3.85 -0.1,2.2 -0.8,5.05 -0.4,1.7 -1.35,5.05 -2.1,8 -2.9,18 -0.6,7.35 -0.6,18.3 -0.1,28.45 3.1,48.4 4.15,26.1 14.65,45.45 6.5,11.85 14,17.9 4.55,3.8 9.85,5.8 5.6,2.1 11.2,1.8 4.85,-0.3 7.2,-2.65 1.95,-2 2.15,-5.3 0.15,-2.85 -1.05,-5.9 -1.3,-3.35 -4.55,-8.05 -4.3,-6.2 -5.2,-7.75 -2.6,-4.85 -5.7,-15.05 -3.75,-12.85 -5.55,-19.75 -2.85,-10.95 -4.35,-20 -1.4,-9.5 -2.25,-19.15 -1.45,-14.6 -1.9,-22.9 -0.65,-12.7 0.05,-22.95 1.95,-25.9 12.35,-43.9 3.55,-5.95 7.25,-9.6 0.97402,-0.88535 2.85,-2.55 0.61797,-0.0107 1.25,-0.15 2.2,-0.5 5.1,-2.15 1.6,-0.95 4.8,-2.9 3.35,-1.85 8,-3.05 2.7,-0.7 8.4,-1.7 9.95,-1.75 15.5,-1.9 8.6,-0.25 15,2.4 3.15,1.35 7.2,4.1 2.3,1.6 6.85,4.8 3.15,2 9.65,5.85 5.5,3.5 8.3,7.15 1.9,2.5 3.45,6 1,2.25 2.45,6.4 2.1,6.05 2.5,9 0.8,6.1 -1.55,14.85 -7.85,29.85 -31.4,56.35 -4.05,4.5 -5.65,7.2 -2.6,4.4 -2.05,8.3 0.65,4.45 4.9,7.3 3.96309,2.69102 8.65,2.55 0.0969,0.004 0.2,0 2.27812,-0.0815 4.65,-0.8 2.04512,-0.57051 4.15,-1.6 3.45,-1.7 7.85,-5.05 11.4,-8.7 20.35,-20.5 2.16836,-2.86211 4.15,-5.85 1.65488,-1.54785 3.2,-3.6 2.15,-2.85 4.95,-8.15 2.55,-4.6 3.8,-7.35 1.95,-4.15 2.9,-7.75 0.46348,-1.8541 0.8,-4.05 0.15293,0.0106 0.3,0 2.1,-0.15 3.45,-1.55 1.3,-1.3 1.85,-3.5 0.35,-1.5 0.4,-4 0.15,-5.7 -0.45,-11.45 l -0.9,-6.55 q -0.4,-3.75 -0.95,-6.75 -0.45,-2.8 -1.85,-10.25 -0.85,-4.25 -1.3,-6.05 -0.45,-1.7 -1.8,-6.25 -1.3,-4 -2.1,-5.9 -1.65,-4.4 -5.35,-10.35 -1.1168,-1.71797 -1.95,-3 -0.4623,-1.85273 -1.4,-3.65 -2.2,-4.25 -5.45,-7.35 -2.5,-2.4 -6.1,-4.65 -0.15254,-0.0961 -0.35,-0.2 -0.76855,-1.1959 -1.2,-1.8 -0.85,-1.3 -1.7,-2 -1.55,-1.2 -4,-1.45 -1.26641,-0.15352 -3.2,-0.05 -3.88496,-1.80859 -6.5,-2.75 -2.05215,-0.72539 -4,-1.2 -0.0504,-0.0721 -0.1,-0.15 -1.35,-2.15 -5.6,-3.5 -22.60312,-7.56914 -45.95,-10.55 -0.54395,0.0346 -1.25,0.05 -18.54219,0.52969 -36.3,3.85 -5.5627,1.60859 -14.65,4.25 -2.6,0.7 -3.85,0.95 -2.2,0.35 -3.9,0 -0.53867,-0.0789 -1.05,-0.25 -12.17324,2.62187 -20.65,3.3 -6,0.5 -18.05,0.5 l -2.1,0 q -9.84004,2.13437 -22.05,4.95 l -33.2,7.45 q -39.06914,8.84922 -60.2,14.4 -0.90215,-0.31914 -1.9,-0.4 l 0,0.4 q -30.95,6.4 -55.2,13.5 -29.15,8.6 -53.3,19.5 -1.38691,0.70703 -2.3,1.15 -7.95566,-0.8873 -10.5,-5.35 -2.55039,-4.40586 -4,-1.05 -1.44121,3.3498 -3.6,1.9 -2.11016,-1.44727 -7.95,-0.9 -5.84668,0.54883 -8.35,-3.75 -4.9,-8.3 -7.2,-13.35 -1.45,-3.35 -1.85,-4.2 -0.28223,-0.54102 -0.6,-1.05 l 3.4,-5.15 q 4.9,-7.35 7.35,-12.25 1.3,-2.5 3.6,-7.8 2.2,-5.25 3.6,-7.85 2.45,-4.7 6.4,-10 2.35,-3.2 7.4,-9.35 100.8,-122.25 213.9,-231 2.35,-2.25 3.4,-3.7 0.72539,-0.98926 1.15,-2 2.54668,-2.20156 5.85,-5.3 3,-2.6 9.5,-7.5 6.4,-4.8 9.45,-7.5 4.75,-4 11.05,-10.6 2.7,-2.75 8.1,-8.2 2.35,-2.45 3.2,-3.6 1.6,-2.2 2.05,-4.3 0.2,-0.8 0.3,-2.3 0.1,-1.65 0.25,-2.35 0.15,-0.65 0.75,-2.45 0.55,-1.55 0.65,-2.5 0.3,-3.6 -2.75,-6.8 -0.66582,-0.706055 -1.8,-1.55 -0.24023,-0.330664 -0.55,-0.65 -1.5,-1.546875 -3.55,-2 z"
         inkscape:connector-curvature="0"
         style="fill:#ffcc00;stroke:none" />
    </g>
    <path
       d="m 42.2,757.5 -25.55,14.15 q 6.75,38.75 9.4,47.6 33.15,-13.6 69.8,-37.4 35.25,-22.9 69.5,-52.35 34,-29.2 62.2,-60.8 28.95,-32.35 47.85,-62.75 20.05,-32.3 33.85,-71.85 0.1,-0.3 0.2,-0.6 13.75,-39.6 19.85,-82.65 13.2,-93.35 -10.85,-179.4 19.95,-48.1 23.05,-92.15 3.7,-51.6 -16,-95.15 Q 304.7,38.1 270.2,15.25 254,4.5 237.4,1.3 220.5,-2 205.3,3.05 179,11.85 158.6,31.8 q -24.05,23.45 -22.4,48.35 1.2,18.2 19.35,33.7 2.2,1.85 15.95,12.35 9.75,7.45 14.8,13.05 23.9,26.35 34.85,51.2 14.6,33.15 -0.8,51.95 -4.45,5.45 -6,7.1 -3.55,3.75 -6.45,5.1 -3.8,1.8 -8.95,1.45 -3.1,-0.2 -9.8,-1.75 -13.55,-3.1 -33.85,-19.4 -22.65,-19.65 -33.35,-27.7 -8.5,-6.4 -17.4,-10.55 -9,-4.25 -14.45,-4.35 -17.8,8.4 -35.5,21.3 -35.35,25.8 -37.05,48.35 -2.15,28.7 15.3,50.8 15.8,20.1 44.9,31.45 27.65,10.75 59.8,10.95 32.55,0.2 59.75,-10.6 3.5,14 3.05,35.1 -0.5,22.35 -5.35,47.4 -11.35,58.15 -40.4,106.45 -0.7,1.15 -1.4,2.3 Q 120,589.85 56.7,634.85 36.9,648.9 16.45,660.4 L 0,669.05 l 5.45,34.6 q 6.4,40.2 11.2,68"
       id="arm_r_0_Layer0_0_1_STROKES"
       inkscape:connector-curvature="0"
       style="fill:none;stroke:#000000;stroke-width:16;stroke-linecap:round;stroke-linejoin:round" />
    <path
       d="m 90.1,192.3 q -6.25,13.25 -2.2,31.45 3.55,15.95 12.25,26.65 10.85,13.4 31.05,25.5 23.35,14.05 52.05,21.6 28.65,7.55 59.55,1.15 16.2,-3.4 33.6,-10.15 6.55,9.8 10.6,41.05 4.5,34.45 2.8,74.75 -2,47.55 -12.4,89.95 -5.1,20.75 -12.05,39.25 -9.7,25.95 -23,47.4 Q 199.2,650.5 103.6,718.05 73.75,739.1 42.2,757.5 M 203.9,257.9 q 27.9,-3.15 39.65,-6.2 37.55,-9.85 46.9,-38.05 Q 300.95,182 293.2,145.3 285.55,108.9 264.4,88.5 252.6,77.1 223.95,54.95 213.7,47 209.3,42.85 q -5.95,-5.65 -7,-9.45 -3.1,-11.3 0.65,-21.3 1.85,-5 4.35,-7.75"
       id="arm_r_0_Layer0_0_2_STROKES"
       inkscape:connector-curvature="0"
       style="fill:none;stroke:#000000;stroke-width:14;stroke-linecap:round;stroke-linejoin:round" />
    <path
       d="m 206.35,736.8 q 13.7584,-17.09414 0,-42.05 M 205.55,738.7 -242.3,827.95 -590,436.3 m -3.85,-4.95 q -16.90449,-22.39258 1,-42.05"
       id="leg_l_0_Layer11_0_1_STROKES"
       inkscape:connector-curvature="0"
       style="fill:none;stroke:#000000;stroke-width:16;stroke-linecap:round;stroke-linejoin:round" />
    <path
       d="m -242.35,820.9 q 11.35059,-19.0248 2.05,-41.05"
       id="leg_l_0_Layer11_0_2_STROKES"
       inkscape:connector-curvature="0"
       style="fill:none;stroke:#000000;stroke-width:12;stroke-linecap:round;stroke-linejoin:round" />
    <path
       d="M -590,388.3 -142.2,299.05 205.55,690.7"
       id="leg_l_0_Layer10_0_1_STROKES"
       inkscape:connector-curvature="0"
       style="fill:none;stroke:#000000;stroke-width:16;stroke-linecap:round;stroke-linejoin:round" />
    <path
       d="M 205.55,690.7 -242.3,779.95 -590,388.3"
       id="leg_l_0_Layer10_0_2_STROKES"
       inkscape:connector-curvature="0"
       style="fill:none;stroke:#000000;stroke-width:12;stroke-linecap:round;stroke-linejoin:round" />
    <path
       d="m -281.75,418.65 q 49.7209,-74.60313 121.4,-201.875 18.8707,-33.28574 28.7,-50.9 17.13535,-30.82285 27.675,-51.975 28.710156,-57.673242 23.025,-72.65 -43.32715,-5.741406 -81.325,12.175 -38.76543,18.208594 -70.9,60.55 -22.91445,30.13242 -42.35,65.575 -16.17793,29.48594 -22.05,47.1 -3.28242,9.80547 -12.5,35.8 -8.01914,25.50879 -10.35,49.075 -2.48477,24.92031 2.1,47.725 3.31426,16.23262 10.1,30.825 10.36914,22.14453 26.475,28.575 z"
       id="leg_l_0_Layer8_0_1_STROKES"
       inkscape:connector-curvature="0"
       style="fill:none;stroke:#000000;stroke-width:16;stroke-linecap:round;stroke-linejoin:round" />
    <path
       d="m -255.95,251.825 q 42.72246,-96.47402 112.7,-170.375 l 1.45,0.8 m -43.65,420.15 -0.5,1.05 -25.8,-6 -91.05,-97.8 q 16.59727,-79.56738 46.85,-147.825"
       id="leg_l_0_Layer7_0_1_STROKES"
       inkscape:connector-curvature="0"
       style="fill:none;stroke:#000000;stroke-width:16;stroke-linecap:round;stroke-linejoin:round" />
    <path
       d="m -218.7,484.05 191.05,-36 -5.3,126.45 -187.575,35.375 m 2.775,-112.65 -3,111.725 -114.3,-135.5 7.25,-116.6 109.95,136.25 0.2,0.25 -0.1,3.875 z"
       id="leg_l_0_Layer6_0_1_STROKES"
       inkscape:connector-curvature="0"
       style="fill:none;stroke:#000000;stroke-width:16;stroke-linecap:round;stroke-linejoin:round" />
    <path
       d="m -175.2,-98.15 97.55,34.3 12.35,191.75 -97.5,-34.3 -12.4,-191.75 z m 107,39.7 257.95,-42.15 9.75,188.7 -257.95,42.15 -9.75,-188.7 z"
       id="leg_l_0_Layer5_0_1_STROKES"
       inkscape:connector-curvature="0"
       style="fill:none;stroke:#000000;stroke-width:16;stroke-linecap:butt;stroke-linejoin:round" />
    <path
       d="M -61.5,40.95 192.9,-3.85"
       id="leg_l_0_Layer5_0_2_STROKES"
       inkscape:connector-curvature="0"
       style="fill:none;stroke:#000000;stroke-width:9;stroke-linecap:butt;stroke-linejoin:round" />
    <path
       d="m -64.75,-213.1 q 5.8,73.75 -10.65,129.9 -16.4,56.25 -45.45,62.05 -29.1,5.75 -53.75,-42.35 -24.65,-48.05 -30.45,-121.8 -5.85,-73.75 10.55,-130 16.4,-56.25 45.5,-62 29.05,-5.8 53.7,42.3 24.7,48.15 30.55,121.9 z m -76.75,183.65 6.4,-344"
       id="leg_l_0_Layer4_0_1_STROKES"
       inkscape:connector-curvature="0"
       style="fill:none;stroke:#000000;stroke-width:16;stroke-linecap:butt;stroke-linejoin:round" />
    <path
       d="m -94.3,-365.15 274.45,-48.15 q 67.1,137.6 10.5,308.6 L -74.2,-61.3 q 20.55,-154.25 -20.1,-303.85 z"
       id="leg_l_0_Layer3_0_1_STROKES"
       inkscape:connector-curvature="0"
       style="fill:none;stroke:#000000;stroke-width:16;stroke-linecap:butt;stroke-linejoin:round" />
    <path
       d="m -123.2,-389.3 284.25,-42.4 q 51.95,66.25 52.1,131.1 l -284.2,42.45 q -4.6,-65.05 -52.15,-131.15 z"
       id="leg_l_0_Layer2_0_1_STROKES"
       inkscape:connector-curvature="0"
       style="fill:none;stroke:#000000;stroke-width:12;stroke-linecap:round;stroke-linejoin:round" />
    <path
       d="m 114.5,-110.65 q 0,31.5 -9.4,57.2 -9.35,25.65 -22.6,30.5 -13.25,4.8 -22.65,-14 -9.35,-18.9 -9.35,-50.4 0,-31.55 9.35,-57.2 9.4,-25.75 22.65,-30.55 13.25,-4.85 22.6,14.05 9.4,18.85 9.4,50.4 z"
       id="leg_l_0_Layer1_0_1_STROKES"
       inkscape:connector-curvature="0"
       style="fill:none;stroke:#333333;stroke-width:15;stroke-linecap:butt;stroke-linejoin:round" />
    <path
       d="M 168.85,36.5 Q 159.1,41.4 141,67.35 126.15,88.65 102.05,129.5 93.5,144.1 56.4,208.75 26.65,260.6 8.1,291.05 -63.7,409 -124.35,507.5 q 14.35,4.45 31.25,0.7 12.8,-2.85 33.9,-12.5 37.2,-17.05 96.15,-79.9 23.95,-25.55 45.5,-52.5 20.5,-25.6 31.8,-43.75 38.3,-61.1 60.75,-121.55 21.6,-58.25 25.9,-108.65 1.85,-21.8 -6.55,-35.3 -8.15,-13.1 -25.5,-17.55 z M -183.6,520.95 q 57.85,-86.4 143.4,-233.8 22.5,-38.55 34.25,-58.95 20.5,-35.7 33.35,-60.2 35,-66.8 30.95,-84.15 -42.7,-6.65 -82.65,14.1 -40.75,21.1 -77.5,70.15 -26.2,34.9 -49.5,75.95 -19.4,34.15 -27.2,54.55 -4.35,11.35 -16.4,41.45 -10.8,29.55 -15.7,56.85 -5.2,28.85 -3.1,55.25 1.55,18.8 6.75,35.7 7.95,25.65 23.35,33.1 z"
       id="leg_l_0_Layer0_0_1_STROKES"
       inkscape:connector-curvature="0"
       style="fill:none;stroke:#000000;stroke-width:16;stroke-linecap:round;stroke-linejoin:round" />
    <path
       d="m 377.4,1038.4 q -5.65,-1.3 -14.45,-5.35 -9.75,-4.5 -15.6,-9 L 196.55,906.35 Q 185.9,898.1 175.4,881.25 164.65,864.3 159.85,848.6 L -3.75,307.75 q -7.267188,-19.9375 -2.55,-30.7"
       id="Head_0_Layer7_0_1_STROKES"
       inkscape:connector-curvature="0"
       style="fill:none;stroke:#000000;stroke-width:18;stroke-linecap:round;stroke-linejoin:round" />
    <path
       d="M 223.9,381.9 Q 451,308.95 678.7,236.15 q 197.7,-63.2 330.75,-104.3 103.95,-32.1 109.75,-32.9 l 2.4,-1.05 q 3.05,-1.15 6.35,-1.7 10.6,-1.65 20.05,3.75 6.3,3.6 8.5,6.25 3.65,4.25 6.25,13.85 2.65,9.5 53.75,318.9 25.55,154.75 50.6,307.55 2.55,17.9 -7.7,33.95 -10.25,16.15 -27.35,20.9 L 390.8,1042.4 q -5.4,1.65 -12.1,2.6 -13.4,2 -20.05,-1.2"
       id="Head_0_Layer6_0_1_STROKES"
       inkscape:connector-curvature="0"
       style="fill:none;stroke:#000000;stroke-width:18;stroke-linecap:round;stroke-linejoin:round" />
    <path
       d="m 270.1,387 q -23.25,3.95 -28.5,24.75 -4.75,18.75 4.1,57.7 1.9,8.55 61,262.7 57.85,248.7 60.05,259.75 2.9,14.25 4.9,21.2 2.95,10.2 6.95,16.3 9.2,14.25 33.5,5.95"
       id="Head_0_Layer5_0_1_STROKES"
       inkscape:connector-curvature="0"
       style="fill:none;stroke:#000000;stroke-width:10;stroke-linecap:round;stroke-linejoin:round" />
    <path
       d="M 48.281364,239.18121 881.05656,9.6659874 q 33.40576,-9.30231934 70.23127,-8.873835 36.56802,0.2208527 55.35857,9.8459216 l 153.8144,78.666195 q 18.6879,9.573038 9.0739,23.191271 -9.8193,13.51417 -42.3521,23.2846 L 315.05942,377.14956 q -39.30552,11.66162 -81.78715,12.4558 -42.68804,0.58671 -63.32675,-9.97491 L 0.30800323,291.86572 Q -12.106165,276.41991 -4.4166054,267.00814 q 7.6978117,-9.40468 20.1923664,-15.41965 12.48798,-6.01418 32.505603,-12.40728 z"
       id="Head_0_Layer4_0_1_STROKES"
       inkscape:connector-curvature="0"
       style="fill:none;stroke:#000000;stroke-width:18;stroke-linecap:round;stroke-linejoin:round" />
    <path
       d="m 1169.75,351.55 q 0,91.85 -64.95,156.8 -65.05,64.9 -156.85,64.9 -91.85,0 -156.8,-64.9 -65,-64.95 -65,-156.8 0,-91.9 65,-156.85 64.95,-64.95 156.8,-64.95 91.8,0 156.85,64.95 64.95,64.95 64.95,156.85 z M 854.6,350.4 q -0.2,-1.95 -0.2,-4 0,-15.9 11.25,-27.15 Q 876.9,308 892.8,308 q 15.9,0 27.15,11.25 11.25,11.25 11.25,27.15 0,2.05 -0.15,4 m -76.45,0 q 1.25,13.35 11.05,23.15 11.25,11.25 27.15,11.25 15.9,0 27.15,-11.25 9.8,-9.8 11.1,-23.15"
       id="Head_0_Layer3_0_1_STROKES"
       inkscape:connector-curvature="0"
       style="fill:none;stroke:#000000;stroke-width:16;stroke-linecap:round;stroke-linejoin:round" />
    <path
       d="m 768.15,501 q -10.2,93.85 -83.8,153 Q 610.7,713.1 516.9,702.9 423,692.65 363.85,619.1 304.7,545.5 314.9,451.65 q 10.2,-93.9 83.85,-153 73.55,-59.25 167.45,-49 93.8,10.2 153.05,83.9 59.1,73.55 48.9,167.45 z M 520.1,481.75 q -1.7,15.8 -14.15,25.75 -7.9,6.4 -17.25,8 -5.25,0.85 -10.9,0.25 -15.85,-1.75 -25.8,-14.1 -9.95,-12.4 -8.25,-28.2 1.7,-15.8 14.15,-25.8 12.35,-10 28.2,-8.25 1.75,0.2 3.45,0.5 13.45,2.6 22.3,13.6 9.95,12.45 8.25,28.25 z"
       id="Head_0_Layer2_0_1_STROKES"
       inkscape:connector-curvature="0"
       style="fill:none;stroke:#000000;stroke-width:16;stroke-linecap:round;stroke-linejoin:round" />
    <path
       d="m 712,731.2 q 21.35,-2.5 49.8,-11.45 30.1,-9.5 49.4,-20.55 32.15,-18.45 55.15,-39 14.75,-13.2 29.65,-31.4 7.35,12.05 11.8,31.65 5.1,22.35 3.4,43.75 -2,25.4 -13.4,44.1 -13.35,21.85 -38.6,32.5 -26.9,11.35 -52.65,11.65 -23.35,0.3 -43.7,-8.4 -18.75,-8 -32.35,-22.45 -12.95,-13.75 -18.5,-30.4 z"
       id="Head_0_Layer1_0_1_STROKES"
       inkscape:connector-curvature="0"
       style="fill:none;stroke:#000000;stroke-width:16;stroke-linecap:round;stroke-linejoin:round" />
    <path
       d="M 356.1,235.5 Q 468.3,138.95 554.6,44.1 M 815.05,-87.35 q 117.1,59.75 193.7,170.3"
       id="Head_0_Layer0_0_1_STROKES"
       inkscape:connector-curvature="0"
       style="fill:none;stroke:#000000;stroke-width:50;stroke-linecap:butt;stroke-linejoin:round" />
    <path
       d="m 427.1,405.15 q -3.65,0.55 -10.9,2.2 -8.1,1.8 -20.55,4.9 -14.3,3.55 -52.75,13.4 -77.35,19.8 -114.5,28.45 -63.85,14.85 -86.75,16.15 -4.25,0.2 -11.45,-0.1 -6.4,-0.4 -6.5,-0.4 l -0.05,0 Q 104.9,469.25 80.8,463.1 61.2,458.1 49.15,452.65 18.45,438.8 4.75,413.3 -5.6,394 -3.95,374.9 q 1.35,-15.15 13.9,-38.05 9,-16.5 30.25,-47.65 38.858984,-56.85059 78.4,-101.95 39.52539,-45.1 89.35,-95.15 49.82891,-50.048828 101.6,-90.6 l 113.5,32.15 q 13.9,35 13.05,35 -72.45,68.5 -180.8,184.05 -52.8,56.3 -87.1,96.85 -22.4,26.45 -27,34.35 -7.65,13.1 -7.05,23.45 0.25,4 1.75,7.6 1.9,4.55 5.55,7.7 2.85,2.45 5.25,3 10.8,2.4 30,-1.75 8.85,-1.95 56.15,-14.9 2.95,-0.85 5.95,-1.65 72.75,-19.85 132,-32.6 61.60293,-13.30508 100.5,-18.8 38.89102,-5.48516 59.225,1.1 20.33379,6.58496 30.375,11.45 10.04687,4.85488 19.9,14.15 -6.7,-8 -8.9,-10.55 -3.2,-3.65 -9.25,-9.5 -14.9,-14.4 -34.8,-28.7 -23.5,-16.8 -47.65,-26.65 -19.85,-8.05 -44.1,-12.8 -32.85,-6.4 -141.7,20.8 -38.1,9.55 -78,21.35 -32.85,9.7 -45.7,14.45 m 410.1,31.6 q 5.6,7.85 6.75,9.6 2.5,3.8 5.05,8.85 1.55,3.05 2.9,6.25 4.15,9.95 6.55,21.45 3.35,16.35 2.1,31.65 -1.45,16.95 -8.45,29.8 -6.75,12.35 -14.45,22 -7.3,9.05 -16.7,17.2 -8.6,7.45 -22.55,9.6 -4.35,0.7 -8.7,0.75 l -3.5,-0.05 q -4.2,0.2 -11.35,-1.4 -14.2,-3.3 -28.75,-12.5 -13.4,-8.5 -25.15,-23.4 -9.95,-12.65 -12.65,-21.2 l 0,0.05 q -0.15,30.85 7.9,63.7 7.95,32.3 20.35,52.4 4,6.55 1.15,11.8 -2.6,4.8 -9.85,7.15 -7.05,2.25 -15.2,1.1 -8.8,-1.2 -15.15,-6.05 m 88.7,-71.65 q -2.9,-3.5 -4.6,-8.25 -3.4,-9.55 2.55,-15.95 12.5,-13.5 23.7,-34.25 14.1,-26.15 10.8,-40.1 -3.05,-12.95 -13.95,-23.35 -6.6,-6.35 -14.8,-10.5 -4.85,-2.5 -10.3,-4.2 -32.1,-10.15 -49.25,4.2 -2,1.65 -3.8,3.65 -13.7,15.2 -17.4,53.1 -0.75,7.75 -0.85,17.15 m -108.95,-55.1 q -10.85,11.6 -17.35,32.2 -6.4,20.5 -6.4,43.25 0,24.2 7.45,44.05 8.25,22.05 24.3,34.75 46.85,37.05 101.7,37.05"
       id="arm_l_0_Layer0_0_1_STROKES"
       inkscape:connector-curvature="0"
       style="fill:none;stroke:#000000;stroke-width:16;stroke-linecap:round;stroke-linejoin:round" />
    <path
       d="M 123.65,469.75 Q 112.7,467 107.8,463.7 q -5.55,-3.75 -10.45,-12.45 -11.2,-19.75 -6.2,-43.9 0.05,-0.2 0.1,-0.45 3.65,-16.95 15.1,-35.3 12.9,-20.65 37.15,-50.65 35.05,-43.35 86.3,-96.6 50.85,-52.8 107.1,-107.8 28.9,-28.25 86.15,-82.9 M 441.1,611.4 q -20.2,-22.25 -28.4,-57.55 -6.8,-29.35 -4.9,-65.1 1.55,-29.1 8.25,-55.3 4.9,-19.3 9.3,-26.1 0.9,-1.35 1.75,-2.2"
       id="arm_l_0_Layer0_0_2_STROKES"
       inkscape:connector-curvature="0"
       style="fill:none;stroke:#000000;stroke-width:14;stroke-linecap:round;stroke-linejoin:round" />
    <filter
       style="color-interpolation-filters:sRGB"
       inkscape:label="Drop Shadow"
       id="filter5255">
      <feFlood
         flood-opacity="0.65098"
         flood-color="rgb(0,0,0)"
         result="flood"
         id="feFlood5257" />
      <feComposite
         in="flood"
         in2="SourceGraphic"
         operator="in"
         result="composite1"
         id="feComposite5259" />
      <feGaussianBlur
         in="composite1"
         stdDeviation="2"
         result="blur"
         id="feGaussianBlur5261" />
      <feOffset
         dx="0"
         dy="3"
         result="offset"
         id="feOffset5263" />
      <feComposite
         in="SourceGraphic"
         in2="offset"
         operator="over"
         result="composite2"
         id="feComposite5265" />
    </filter>
    <clipPath
       clipPathUnits="userSpaceOnUse"
       id="clipPath276">
      <path
         style="clip-rule:evenodd"
         inkscape:connector-curvature="0"
         d="m 371.7614,267.2126 11.4561,54.2509 13.6444,0 0,-92.3036 -12.3571,0 1.2872,60.4216 -9.2679,-43.7093 -9.5253,0 -9.2679,43.7093 1.2872,-60.4216 -12.3572,0 0,92.3036 13.6444,0 11.4561,-54.2509 z m 47.4795,-38.0527 -12.3572,0 0,76.4912 c 0,10.5417 4.9343,15.8124 14.8029,15.8124 l 9.2679,0 c 9.8686,0 14.8029,-5.2707 14.8029,-15.8124 l 0,-76.4912 -12.3572,0 0,33.8104 -14.1593,0 0,-33.8104 z m 14.1593,44.9948 0,30.725 c 0,3.5996 -1.8021,5.3994 -5.4063,5.3994 l -3.3467,0 c -3.6042,0 -5.4063,-1.7998 -5.4063,-5.3994 l 0,-30.725 14.1593,0 z m 22.379,47.3088 24.1994,0 c 9.4396,0 14.1593,-5.2707 14.1593,-15.8124 l 0,-22.7545 c 0,-8.0563 -2.4457,-13.1557 -7.3371,-15.2983 l 8.6243,-38.4384 -11.7136,0 -8.1094,37.2814 -7.4657,0 0,-37.2814 -12.3572,0 0,92.3036 z m 12.3572,-44.4806 8.1094,0 c 3.69,0 5.5349,2.2283 5.5349,6.685 l 0,19.9263 c 0,4.4566 -1.8449,6.6849 -5.5349,6.6849 l -8.1094,0 0,-33.2962 z m 55.074,33.2962 0,-81.1192 -12.3572,0 0,81.1192 -11.8423,0 0,11.1844 36.0418,0 0,-11.1844 -11.8423,0 z m 41.0435,-81.1192 -12.3572,0 0,33.9389 -15.189,58.3647 12.2284,0 9.2679,-40.1096 0.3862,0 8.3668,40.1096 12.2284,0 -14.9315,-58.3647 0,-33.9389 z"
         id="path278" />
    </clipPath>
    <clipPath
       clipPathUnits="userSpaceOnUse"
       id="clipPath282">
      <path
         inkscape:connector-curvature="0"
         d="M 0,0 620,0 620,430 0,430 0,0 Z"
         id="path284" />
    </clipPath>
  </defs>
  <sodipodi:namedview
     id="base"
     pagecolor="#ffffff"
     bordercolor="#666666"
     borderopacity="1.0"
     inkscape:pageopacity="0"
     inkscape:pageshadow="2"
     inkscape:zoom="1.979899"
     inkscape:cx="56.513736"
     inkscape:cy="13.49767"
     inkscape:document-units="px"
     inkscape:current-layer="layer1"
     showgrid="false"
     fit-margin-top="10"
     fit-margin-left="10"
     fit-margin-right="10"
     fit-margin-bottom="10"
     inkscape:window-width="1855"
     inkscape:window-height="1056"
     inkscape:window-x="65"
     inkscape:window-y="24"
     inkscape:window-maximized="1"
     showborder="true"
     units="px" />
  <metadata
     id="metadata7">
    <rdf:RDF>
      <cc:Work
         rdf:about="">
        <dc:format>image/svg+xml</dc:format>
        <dc:type
           rdf:resource="http://purl.org/dc/dcmitype/StillImage" />
        <dc:title></dc:title>
      </cc:Work>
    </rdf:RDF>
  </metadata>
  <g
     inkscape:label="Layer 1"
     inkscape:groupmode="layer"
     id="layer1"
     transform="translate(-106.37897,-11.569968)">
    <g
       id="g4549"
       transform="matrix(0.05600643,0,0,0.05600643,101.60387,17.202621)">
      <g
         id="g4244"
         transform="matrix(1.2869873,0.04586792,-0.04234314,1.1882019,2031.75,77.25)">
        <g
           id="g4246">
          <use
             id="use4248"
             xlink:href="#arm_r_0_Layer1_0_FILL"
             x="0"
             y="0"
             width="100%"
             height="100%" />
        </g>
        <g
           id="g4250">
          <use
             id="use4252"
             xlink:href="#arm_r_0_Layer0_0_1_STROKES"
             x="0"
             y="0"
             width="100%"
             height="100%" />
          <use
             id="use4254"
             xlink:href="#arm_r_0_Layer0_0_2_STROKES"
             x="0"
             y="0"
             width="100%"
             height="100%" />
        </g>
      </g>
      <g
         id="g4256"
         transform="matrix(1.1092224,0,0,1.1092224,1851.45,1969.55)">
        <g
           id="g4258">
          <use
             id="use4260"
             xlink:href="#leg_l_0_Layer11_0_FILL"
             x="0"
             y="0"
             width="100%"
             height="100%" />
          <use
             id="use4262"
             xlink:href="#leg_l_0_Layer11_0_1_STROKES"
             x="0"
             y="0"
             width="100%"
             height="100%" />
          <use
             id="use4264"
             xlink:href="#leg_l_0_Layer11_0_2_STROKES"
             x="0"
             y="0"
             width="100%"
             height="100%" />
        </g>
        <g
           id="g4266">
          <use
             id="use4268"
             xlink:href="#leg_l_0_Layer10_0_FILL"
             x="0"
             y="0"
             width="100%"
             height="100%" />
          <use
             id="use4270"
             xlink:href="#leg_l_0_Layer10_0_1_STROKES"
             x="0"
             y="0"
             width="100%"
             height="100%" />
          <use
             id="use4272"
             xlink:href="#leg_l_0_Layer10_0_2_STROKES"
             x="0"
             y="0"
             width="100%"
             height="100%" />
        </g>
        <g
           id="g4274">
          <use
             id="use4276"
             xlink:href="#leg_l_0_Layer9_0_FILL"
             x="0"
             y="0"
             width="100%"
             height="100%" />
        </g>
        <g
           id="g4278">
          <use
             id="use4280"
             xlink:href="#leg_l_0_Layer8_0_FILL"
             x="0"
             y="0"
             width="100%"
             height="100%" />
          <use
             id="use4282"
             xlink:href="#leg_l_0_Layer8_0_1_STROKES"
             x="0"
             y="0"
             width="100%"
             height="100%" />
        </g>
        <g
           id="g4284">
          <use
             id="use4286"
             xlink:href="#leg_l_0_Layer7_0_FILL"
             x="0"
             y="0"
             width="100%"
             height="100%" />
          <use
             id="use4288"
             xlink:href="#leg_l_0_Layer7_0_1_STROKES"
             x="0"
             y="0"
             width="100%"
             height="100%" />
        </g>
        <g
           id="g4290">
          <use
             id="use4292"
             xlink:href="#leg_l_0_Layer6_0_FILL"
             x="0"
             y="0"
             width="100%"
             height="100%" />
          <use
             id="use4294"
             xlink:href="#leg_l_0_Layer6_0_1_STROKES"
             x="0"
             y="0"
             width="100%"
             height="100%" />
        </g>
        <g
           id="g4296">
          <use
             id="use4298"
             xlink:href="#leg_l_0_Layer5_0_FILL"
             x="0"
             y="0"
             width="100%"
             height="100%" />
          <use
             id="use4300"
             xlink:href="#leg_l_0_Layer5_0_1_STROKES"
             x="0"
             y="0"
             width="100%"
             height="100%" />
          <use
             id="use4302"
             xlink:href="#leg_l_0_Layer5_0_2_STROKES"
             x="0"
             y="0"
             width="100%"
             height="100%" />
        </g>
        <g
           id="g4304">
          <use
             id="use4306"
             xlink:href="#leg_l_0_Layer4_0_FILL"
             x="0"
             y="0"
             width="100%"
             height="100%" />
          <use
             id="use4308"
             xlink:href="#leg_l_0_Layer4_0_1_STROKES"
             x="0"
             y="0"
             width="100%"
             height="100%" />
        </g>
        <g
           id="g4310">
          <use
             id="use4312"
             xlink:href="#leg_l_0_Layer3_0_FILL"
             x="0"
             y="0"
             width="100%"
             height="100%" />
          <use
             id="use4314"
             xlink:href="#leg_l_0_Layer3_0_1_STROKES"
             x="0"
             y="0"
             width="100%"
             height="100%" />
        </g>
        <g
           id="g4316">
          <use
             id="use4318"
             xlink:href="#leg_l_0_Layer2_0_FILL"
             x="0"
             y="0"
             width="100%"
             height="100%" />
          <use
             id="use4320"
             xlink:href="#leg_l_0_Layer2_0_1_STROKES"
             x="0"
             y="0"
             width="100%"
             height="100%" />
        </g>
        <g
           id="g4322">
          <use
             id="use4324"
             xlink:href="#leg_l_0_Layer1_0_FILL"
             x="0"
             y="0"
             width="100%"
             height="100%" />
          <use
             id="use4326"
             xlink:href="#leg_l_0_Layer1_0_1_STROKES"
             x="0"
             y="0"
             width="100%"
             height="100%" />
        </g>
        <g
           id="g4328">
          <use
             id="use4330"
             xlink:href="#leg_l_0_Layer0_0_FILL"
             x="0"
             y="0"
             width="100%"
             height="100%" />
          <use
             id="use4332"
             xlink:href="#leg_l_0_Layer0_0_1_STROKES"
             x="0"
             y="0"
             width="100%"
             height="100%" />
        </g>
      </g>
      <g
         id="g4334"
         transform="matrix(1.1092224,0,0,1.1092224,1248,2087.1)">
        <g
           id="g4336">
          <use
             id="use4338"
             xlink:href="#leg_l_0_Layer11_0_FILL"
             x="0"
             y="0"
             width="100%"
             height="100%" />
          <use
             id="use4340"
             xlink:href="#leg_l_0_Layer11_0_1_STROKES"
             x="0"
             y="0"
             width="100%"
             height="100%" />
          <use
             id="use4342"
             xlink:href="#leg_l_0_Layer11_0_2_STROKES"
             x="0"
             y="0"
             width="100%"
             height="100%" />
        </g>
        <g
           id="g4344">
          <use
             id="use4346"
             xlink:href="#leg_l_0_Layer10_0_FILL"
             x="0"
             y="0"
             width="100%"
             height="100%" />
          <use
             id="use4348"
             xlink:href="#leg_l_0_Layer10_0_1_STROKES"
             x="0"
             y="0"
             width="100%"
             height="100%" />
          <use
             id="use4350"
             xlink:href="#leg_l_0_Layer10_0_2_STROKES"
             x="0"
             y="0"
             width="100%"
             height="100%" />
        </g>
        <g
           id="g4352">
          <use
             id="use4354"
             xlink:href="#leg_l_0_Layer9_0_FILL"
             x="0"
             y="0"
             width="100%"
             height="100%" />
        </g>
        <g
           id="g4356">
          <use
             id="use4358"
             xlink:href="#leg_l_0_Layer8_0_FILL"
             x="0"
             y="0"
             width="100%"
             height="100%" />
          <use
             id="use4360"
             xlink:href="#leg_l_0_Layer8_0_1_STROKES"
             x="0"
             y="0"
             width="100%"
             height="100%" />
        </g>
        <g
           id="g4362">
          <use
             id="use4364"
             xlink:href="#leg_l_0_Layer7_0_FILL"
             x="0"
             y="0"
             width="100%"
             height="100%" />
          <use
             id="use4366"
             xlink:href="#leg_l_0_Layer7_0_1_STROKES"
             x="0"
             y="0"
             width="100%"
             height="100%" />
        </g>
        <g
           id="g4368">
          <use
             id="use4370"
             xlink:href="#leg_l_0_Layer6_0_FILL"
             x="0"
             y="0"
             width="100%"
             height="100%" />
          <use
             id="use4372"
             xlink:href="#leg_l_0_Layer6_0_1_STROKES"
             x="0"
             y="0"
             width="100%"
             height="100%" />
        </g>
        <g
           id="g4374">
          <use
             id="use4376"
             xlink:href="#leg_l_0_Layer5_0_FILL"
             x="0"
             y="0"
             width="100%"
             height="100%" />
          <use
             id="use4378"
             xlink:href="#leg_l_0_Layer5_0_1_STROKES"
             x="0"
             y="0"
             width="100%"
             height="100%" />
          <use
             id="use4380"
             xlink:href="#leg_l_0_Layer5_0_2_STROKES"
             x="0"
             y="0"
             width="100%"
             height="100%" />
        </g>
        <g
           id="g4382">
          <use
             id="use4384"
             xlink:href="#leg_l_0_Layer4_0_FILL"
             x="0"
             y="0"
             width="100%"
             height="100%" />
          <use
             id="use4386"
             xlink:href="#leg_l_0_Layer4_0_1_STROKES"
             x="0"
             y="0"
             width="100%"
             height="100%" />
        </g>
        <g
           id="g4388">
          <use
             id="use4390"
             xlink:href="#leg_l_0_Layer3_0_FILL"
             x="0"
             y="0"
             width="100%"
             height="100%" />
          <use
             id="use4392"
             xlink:href="#leg_l_0_Layer3_0_1_STROKES"
             x="0"
             y="0"
             width="100%"
             height="100%" />
        </g>
        <g
           id="g4394">
          <use
             id="use4396"
             xlink:href="#leg_l_0_Layer2_0_FILL"
             x="0"
             y="0"
             width="100%"
             height="100%" />
          <use
             id="use4398"
             xlink:href="#leg_l_0_Layer2_0_1_STROKES"
             x="0"
             y="0"
             width="100%"
             height="100%" />
        </g>
        <g
           id="g4400">
          <use
             id="use4402"
             xlink:href="#leg_l_0_Layer1_0_FILL"
             x="0"
             y="0"
             width="100%"
             height="100%" />
          <use
             id="use4404"
             xlink:href="#leg_l_0_Layer1_0_1_STROKES"
             x="0"
             y="0"
             width="100%"
             height="100%" />
        </g>
        <g
           id="g4406">
          <use
             id="use4408"
             xlink:href="#leg_l_0_Layer0_0_FILL"
             x="0"
             y="0"
             width="100%"
             height="100%" />
          <use
             id="use4410"
             xlink:href="#leg_l_0_Layer0_0_1_STROKES"
             x="0"
             y="0"
             width="100%"
             height="100%" />
        </g>
      </g>
      <g
         id="g4412"
         transform="matrix(1.1880493,0.04641724,-0.04641724,1.1880493,666.2,575.5)">
        <g
           id="g4414">
          <use
             id="use4416"
             xlink:href="#Head_0_Layer7_0_FILL"
             x="0"
             y="0"
             width="100%"
             height="100%" />
          <use
             id="use4418"
             xlink:href="#Head_0_Layer7_0_1_STROKES"
             x="0"
             y="0"
             width="100%"
             height="100%" />
        </g>
        <g
           id="g4420"
           transform="translate(22.25,-3.7)">
          <use
             id="use4422"
             xlink:href="#Head_0_Layer6_0_FILL"
             x="0"
             y="0"
             width="100%"
             height="100%" />
          <use
             id="use4424"
             xlink:href="#Head_0_Layer6_0_1_STROKES"
             x="0"
             y="0"
             width="100%"
             height="100%" />
        </g>
        <g
           id="g4426">
          <use
             id="use4428"
             xlink:href="#Head_0_Layer5_0_1_STROKES"
             x="0"
             y="0"
             width="100%"
             height="100%" />
        </g>
        <g
           id="g4430"
           transform="matrix(1.0214233,0.00328064,0.01065063,1.0340576,-7.95,-4.15)">
          <use
             id="use4432"
             xlink:href="#Head_0_Layer4_0_FILL"
             x="0"
             y="0"
             width="100%"
             height="100%" />
          <use
             id="use4434"
             transform="matrix(0.97904968,-0.00309753,-0.0100708,0.96708679,7.75,4)"
             xlink:href="#Head_0_Layer4_0_1_STROKES"
             x="0"
             y="0"
             width="100%"
             height="100%" />
        </g>
        <g
           id="g4436">
          <use
             id="use4438"
             xlink:href="#Head_0_Layer3_0_FILL"
             x="0"
             y="0"
             width="100%"
             height="100%" />
          <use
             id="use4440"
             xlink:href="#Head_0_Layer3_0_1_STROKES"
             x="0"
             y="0"
             width="100%"
             height="100%" />
        </g>
        <g
           id="g4442">
          <use
             id="use4444"
             xlink:href="#Head_0_Layer2_0_FILL"
             x="0"
             y="0"
             width="100%"
             height="100%" />
          <use
             id="use4446"
             xlink:href="#Head_0_Layer2_0_1_STROKES"
             x="0"
             y="0"
             width="100%"
             height="100%" />
        </g>
        <g
           id="g4448">
          <use
             id="use4450"
             xlink:href="#Head_0_Layer1_0_FILL"
             x="0"
             y="0"
             width="100%"
             height="100%" />
          <use
             id="use4452"
             xlink:href="#Head_0_Layer1_0_1_STROKES"
             x="0"
             y="0"
             width="100%"
             height="100%" />
        </g>
        <g
           id="g4454">
          <use
             id="use4456"
             xlink:href="#Head_0_Layer0_0_1_STROKES"
             x="0"
             y="0"
             width="100%"
             height="100%" />
        </g>
      </g>
      <g
         id="g4458"
         transform="matrix(1.1869354,0.39006042,-0.36080933,1.2012329,419.2,1042.35)">
        <g
           id="g4460">
          <use
             id="use4462"
             xlink:href="#arm_l_0_Layer1_0_FILL"
             x="0"
             y="0"
             width="100%"
             height="100%" />
        </g>
        <g
           id="g4464">
          <use
             id="use4466"
             xlink:href="#arm_l_0_Layer0_0_1_STROKES"
             x="0"
             y="0"
             width="100%"
             height="100%" />
          <use
             id="use4468"
             xlink:href="#arm_l_0_Layer0_0_2_STROKES"
             x="0"
             y="0"
             width="100%"
             height="100%" />
        </g>
      </g>
    </g>
  </g>
</svg>
