<svg width="96px" height="101px" viewBox="0 0 96 101" version="1.1" xml:space="preserve" xmlns="http://www.w3.org/2000/svg" xmlns:xlink="http://www.w3.org/1999/xlink">
  <!-- Generator: Sketch 52.5 (67469) - http://www.bohemiancoding.com/sketch -->
  <g>
    <title>costume1.1</title>
    <desc>Created with Sketch.</desc>
    <g id="Page-1" stroke="none" stroke-width="1" fill="none" fill-rule="evenodd">
      <g id="costume1" transform="translate(-13.000000, -10.000000)">
        <g id="costume1.1" transform="translate(13.000000, 10.000000)">
          <g id="tail" transform="translate(0.000000, 59.000000)">
            <path d="M21.9,14.8 C19.5,14.3 16.6,13.5 14.2,11.3 C8.7,6.4 7,-1.7 3.2,0.4 C-0.7,2.5 -0.6,15.6 11.6,19.6 C15.8,21 19.6,21 22.7,20.9 C23.5,20.9 30.4,20.2 32.8,16.8 C35.2,13.4 33.5,12.5 32.7,12.1 C31.8,11.6 25.3,15.4 21.9,14.8 Z" stroke="#001026" stroke-width="1.2" fill="#FFAB19" stroke-linecap="round" stroke-linejoin="round"/>
            <path d="M3.8,0.6 C1.8,1.2 0.8,5.4 1.8,8.9 C2.8,12.4 4.4,14.2 5.7,15.5 C5.5,14.8 5.1,12.6 6.8,11.3 C8.9,9.6 12.6,10.5 12.6,10.5 C12.6,10.5 9.5,6.7 7.9,4 C6.3,1.7 5.8,0.2 3.8,0.6 Z" id="detail" fill="#FFFFFF"/>
          </g>
          <path d="M37.7,81.5 C35.9,82.7 29.7,87.1 21.8,89.6 L21.4,89.7 C21,89.8 20.8,90.3 21,90.7 C22.7,93.1 25.8,97.9 20.3,99.6 C15,101.3 5.1,87.2 9.3,83.5 C11.2,82.1 12.9,82.8 13.8,83.2 C14.3,83.4 14.8,83.4 15.3,83.3 C16.5,82.9 18.7,82.1 20.4,81.2 C24.7,79 25.7,78.1 27.7,76.6 C29.7,75.1 34.3,71.4 38,74.6 C41.2,77.3 39.4,80.3 37.7,81.5 Z" id="leg" stroke="#001026" stroke-width="1.2" fill="#FFAB19" stroke-linecap="round" stroke-linejoin="round"/>
          <path d="M53.6,60.7 C54.1,61.1 60.2,68.3 62.2,66.5 C64.6,64.4 67.9,60.3 71.5,63.6 C75.1,66.9 68.3,72.5 65.4,74 C58.5,77.1 52.9,71.2 51.7,69.6 C50.5,68 48.4,65.3 48.4,62.7 C48.5,59.9 51.9,59.2 53.6,60.7 Z" id="arm" stroke="#001026" stroke-width="1.2" fill="#FFAB19" stroke-linecap="round" stroke-linejoin="round"/>
          <g id="body-and-leg" transform="translate(28.000000, 57.000000)">
            <path d="M18.2,19.7 C19.4,18.8 20.6,17.3 22.2,15 C23.5,13.1 24.9,9.4 24.9,9.4 C25.8,6.9 26.4,2.1 23.1,2.2 C20.9,2.3 18.9,2 15.5,1.5 C9.5,0.3 8.4,-0.5 5.9,3.6 C3.2,8.4 -3.7,11.9 4.8,20.2 C4.8,20.2 9.7,24 15.6,29.8 C19.6,33.7 25.9,39.3 28.1,41.2 C28.6,41.6 29.2,41.8 29.8,41.9 C39.5,42.8 46.7,41.8 46.7,37.5 C46.7,30.3 32.4,32.8 32.4,32.8 C32.4,32.8 27.8,28.9 25.7,27 L18.2,19.7 Z" id="body" stroke="#001026" stroke-width="1.2" fill="#FFAB19" stroke-linecap="round" stroke-linejoin="round"/>
            <path d="M22.6,13 C22.6,13 24.5,10.5 20.2,7.8 C15.7,4.9 14,8.1 12.2,10.5 C10.2,13.6 12.2,15.1 14.2,16.9 C15.8,18.4 17.3,19.6 17.3,19.6 C17.3,19.6 20.4,17.5 22.6,13 Z" id="tummy" fill="#FFFFFF"/>
          </g>
          <path d="M30.2,68.4 C32.4,71.2 35.8,74.7 31.5,77.6 C25.6,80.9 20.7,70.9 19.7,67.4 C18.8,64.3 21.4,62.3 23.6,60.6 C27.9,57.5 31.5,54.7 35.5,56.2 C40.5,58 36.9,62 34.4,63.8 C32.9,64.9 31.4,66.1 30.3,66.8 C30,67.3 29.9,67.9 30.2,68.4 Z" id="arm" stroke="#001026" stroke-width="1.2" fill="#FFAB19" stroke-linecap="round" stroke-linejoin="round"/>
          <g id="head" transform="translate(14.000000, 0.000000)">
            <path d="M39.1,9 C36.8,8.6 34.4,8.4 31.6,8.6 C26.9,8.8 22.4,10.5 22.4,10.5 L10.3,2.6 C9.9,2.4 9.4,2.7 9.5,3.1 L11.6,21 C12.2,20.2 1,33.8 8.1,45.2 C15.2,56.6 30.3,61.7 49.1,58 C67.9,54.3 72.3,43.5 71.1,37.8 C69.9,32.1 62.8,30 62.8,30 C62.8,30 62.7,25.5 59.5,20 C57.6,16.7 51.2,12 51.2,12 L48.6,1.3 C48.5,0.9 48,0.8 47.7,1 L39.1,9 Z" stroke="#001026" stroke-width="1.2" fill="#FFAB19"/>
            <path d="M62.5,30.4 C62.5,30.4 69.4,32.2 70.6,37.9 C71.8,43.6 67,53.9 48.4,57.5 C24.2,62.5 12.7,48.1 19.4,37.5 C26.1,26.8 37.6,35.9 46,35.3 C53.2,34.8 54,28.5 62.5,30.4 Z" id="face" fill="#FFFFFF"/>
            <path d="M31,41.1 C31,40.7 31.4,40.4 31.8,40.5 C33.7,41.2 39.1,42.8 45.1,43.2 C50.5,43.5 53.7,43.2 55.2,42.9 C55.7,42.8 56.1,43.3 55.9,43.8 C55,46.5 51.2,54 40.7,53.4 C31.6,52.4 30.7,46 31,41.1 Z" id="mouth" stroke="#001026" stroke-width="1.2" fill="#FFFFFF" stroke-linecap="round" stroke-linejoin="round"/>
            <path d="M69,35.4 C69,35.4 76.2,35.3 80.9,31.5" id="whisker" stroke="#001026" stroke-width="1.2" stroke-linecap="round" stroke-linejoin="round"/>
            <path d="M69.4,41.3 C69.4,41.3 73.3,43.2 79.6,42.7" id="whisker" stroke="#001026" stroke-width="1.2" stroke-linecap="round" stroke-linejoin="round"/>
            <path d="M45.6,32.7 C47.7,32.7 49.9,32.9 50,33.6 C50.1,35 48.6,37.8 47,37.9 C45.2,38.1 41,35.6 41,34 C40.9,32.8 43.6,32.7 45.6,32.7 Z" id="nose" stroke="#001026" stroke-width="1.2" fill="#001026" stroke-linecap="round" stroke-linejoin="round"/>
            <path d="M0.6,31.2 C0.6,31.2 9.2,34 12.7,37.1" id="whisker" stroke="#001026" stroke-width="1.2" stroke-linecap="round" stroke-linejoin="round"/>
            <path d="M1.3,41.2 C1.3,41.2 8.7,42.3 13,40.6" id="whisker" stroke="#001026" stroke-width="1.2" stroke-linecap="round" stroke-linejoin="round"/>
            <g id="eye" transform="translate(44.000000, 15.000000)">
              <path d="M13.4,6 C16.3,10.5 16.4,15.6 13.6,17.4 C10.8,19.2 6.2,17.1 3.2,12.6 C0.3,8.1 0.2,3 3,1.2 C5.8,-0.7 10.5,1.5 13.4,6 Z" id="pupil" stroke="#001026" stroke-width="1.2" fill="#FFFFFF" stroke-linecap="round" stroke-linejoin="round"/>
              <path d="M13,11.7 C13,12.8 12.2,13.7 11.2,13.7 C10.2,13.7 9.4,12.8 9.4,11.7 C9.4,10.6 10.2,9.7 11.2,9.7 C12.2,9.7 13,10.6 13,11.7" id="pupil" fill="#001026"/>
            </g>
            <g id="eye" transform="translate(19.000000, 18.000000)">
              <path d="M13.6,5.8 C16.6,10.2 16.4,15.6 13.7,17.5 C10.4,19.4 6,18 3,13.6 C-0.1,9.2 -0.3,3.5 2.8,1.3 C5.9,-1 10.6,1.4 13.6,5.8 Z" stroke="#001026" stroke-width="1.2" fill="#FFFFFF" stroke-linecap="round" stroke-linejoin="round"/>
              <path d="M13,11.6 C13,12.7 12.2,13.6 11.2,13.6 C10.2,13.6 9.4,12.7 9.4,11.6 C9.4,10.5 10.2,9.6 11.2,9.6 C12.2,9.7 13,10.5 13,11.6" id="pupil" fill="#001026"/>
            </g>
          </g>
        </g>
      </g>
    </g>
  </g>
</svg>