<?xml version="1.0" encoding="UTF-8" standalone="no"?>
<svg
   xmlns:dc="http://purl.org/dc/elements/1.1/"
   xmlns:cc="http://creativecommons.org/ns#"
   xmlns:rdf="http://www.w3.org/1999/02/22-rdf-syntax-ns#"
   xmlns:svg="http://www.w3.org/2000/svg"
   xmlns="http://www.w3.org/2000/svg"
   xmlns:sodipodi="http://sodipodi.sourceforge.net/DTD/sodipodi-0.dtd"
   xmlns:inkscape="http://www.inkscape.org/namespaces/inkscape"
   version="1.1"
   width="190.84363"
   height="300"
   viewBox="0 0 190.84362 300.00001"
   id="svg2"
   inkscape:version="0.91 r13725"
   sodipodi:docname="cee103594456366e26af32280694ea38.svg">
  <metadata
     id="metadata36">
    <rdf:RDF>
      <cc:Work
         rdf:about="">
        <dc:format>image/svg+xml</dc:format>
        <dc:type
           rdf:resource="http://purl.org/dc/dcmitype/StillImage" />
        <dc:title></dc:title>
      </cc:Work>
    </rdf:RDF>
  </metadata>
  <defs
     id="defs34" />
  <sodipodi:namedview
     pagecolor="#ffffff"
     bordercolor="#666666"
     borderopacity="1"
     objecttolerance="10"
     gridtolerance="10"
     guidetolerance="10"
     inkscape:pageopacity="0"
     inkscape:pageshadow="2"
     inkscape:window-width="1415"
     inkscape:window-height="956"
     id="namedview32"
     showgrid="false"
     fit-margin-top="0"
     fit-margin-left="0"
     fit-margin-right="0"
     fit-margin-bottom="0"
     inkscape:zoom="0.57298955"
     inkscape:cx="131.00616"
     inkscape:cy="205.93745"
     inkscape:window-x="65"
     inkscape:window-y="24"
     inkscape:window-maximized="0"
     inkscape:current-layer="svg2" />
  <g
     transform="matrix(0.72837652,0,0,0.72837652,-139.83673,-94.706487)"
     id="g4">
    <g
       data-paper-data="{&quot;isPaintingLayer&quot;:true}"
       stroke-miterlimit="10"
       font-weight="none"
       font-size="none"
       text-anchor="none"
       style="font-family:none;mix-blend-mode:normal;fill:none;fill-rule:evenodd;stroke:none;stroke-width:1;stroke-linecap:butt;stroke-linejoin:miter;stroke-miterlimit:10;stroke-dasharray:none;stroke-dashoffset:0"
       id="g6">
      <path
         d="m 416.54,370.58 7,26 c 0,0 11.79,41.25 12,59 0.21,17.75 -7,27 -7,27 l -26,34 c 0,0 -16.22,7.44 -30,8 -10.17,0.41 -20,-4 -20,-4 l -98,-58 14,-58 c -12.38926,-4.47664 -24.15217,-10.52614 -35,-18 -17.09,-11.83 -34.66,-30.17 -36.37,-34.63 -3.5,-9.12 -7.41,-23.47 0,-26.92 7.41,-3.45 17.56,11.55 17.56,11.55 6.34995,2.99645 12.98718,5.34177 19.81,7 7.90112,1.67479 15.92973,2.67837 24,3 0,0 -30.23,-12 -24,-55 6.23,-43 44,-69 44,-69 10.73316,-0.0765 21.43965,-1.0802 32,-3 17.67,-3.38 24,-14 24,-14 0,0 51.81,2.26 53,18 16.2,27.59 30,93 30,93 l 6,2 c 3.72812,-0.62744 7.1277,-2.5161 9.63,-5.35 4.61,-5.54 8.22,-10.65 11.37,-10.65 7.16,0 9.63,24 0,41 -8.8,15.56 -28,27 -28,27 z"
         data-paper-data="{&quot;origPos&quot;:null}"
         id="path8"
         inkscape:connector-curvature="0"
         style="fill:#ff5e3d" />
      <path
         d="m 415.08,320.58 -79.25,18.68 c 0,0 -27.71,-4.59 -33.71,-25.76 -5.71,-20.09 -14.41,-75.09 45.24,-91.81 39.53,-6.25 48,11.75 48,11.75 0,0 15.68,11.69 23.8,42.21 8.12,30.53 -4.08,44.93 -4.08,44.93 z"
         id="path10"
         inkscape:connector-curvature="0"
         style="fill:#f5c38e" />
      <path
         d="m 445.54,476.58 -10,-6 1,-33 c 0,0 7.05,10.21 9,19 2,9.2 0,20 0,20 z m -99,-17 c 6.16,29.46 -26.74,65.37 -51,64 -19.37,-1.09 -38.23,-20 -42,-44 -4.08,0.93 -21.23,1.32 -21,-2 2.32,-33.64 26.27,-42 28,-38 8.34,-11.06 22.65,-17.84 33,-18 28.75,-0.45 49.35,20.53 53,38 z"
         id="path12"
         inkscape:connector-curvature="0"
         style="fill:#f5c38e" />
      <path
         d="m 362.54,492.58 c 1.93,12.56 -5,26 -5,26 0,0 -5.79,16.08 -16,19 -10.21,2.92 -7.71,1.16 -21,3 -28.84,4 -37,-19 -37,-19 0,0 26.3,9.27 41,-7 16.31,-18.05 25,-48 25,-48 0,0 10.94,12.59 13,26 z m 84,20 -5,5 c 0,0 -3.93,14.59 -17,16 -12.52,1.35 -18.75,1.75 -26,0 -7.25,-1.75 -14,-9 -14,-9 l 14,-8 -28,-1 c 0.07,-2.24 -2.26,-15.14 5,-24 12.51,-15.26 48,-13 48,-13 l 5,2 7,-11 c 0,0 9.64,7.9 13,19 3.14,10.37 -2,24 -2,24 z"
         id="path14"
         inkscape:connector-curvature="0"
         style="fill:#392217" />
      <path
         d="m 256.54,525.58 c -10.44,0.21 -16.84,-10.24 -13,-24 2.32,-8.32 11,-11 11,-11 0,0 4.19,6.39 8,13 3.69,6.39 7,8 7,8 4.7,1.4 -2.56,13.79 -13,14 z"
         id="path16"
         inkscape:connector-curvature="0"
         style="fill:#392217" />
      <path
         d="m 315.84,219.9 c -7,2.29 -20.25,8.37 -28,1.73 -23.59,-20.25 -45.13,-73 -13.78,-88 30.65,-14.66 60.35,33.79 62.07,64.34 0.81,14.35 -12.85,19.48 -20.29,21.93 z"
         id="path18"
         inkscape:connector-curvature="0"
         style="fill:#313131" />
      <path
         d="m 356.39,287.09 c -21.78,10.06 -40.04,-23.82 -12.69,-36.69 18.2,-8.57 34.47,26.63 12.69,36.69 z m 30.15,-44.4 c 13.3,-5.95 26.06,20.27 19.07,29.73 -5.52,4.06 -27.95,-25.73 -19.11,-29.73 z"
         id="path20"
         inkscape:connector-curvature="0"
         style="fill:#ffffff" />
      <path
         d="m 360.08,254.31 c 0,0 -11.37,-4.67 -20.69,3.78 -7.8,7.07 -8.65,18.31 -8.65,18.31 0,0 -6.82,-17.81 3.63,-25.71 14.29,-10.8 25.71,3.62 25.71,3.62 z m 42.58,-3.69 c 0,-0.04 -4.83,-4.06 -10,-4.82 -4.46,-0.65 -8.33,3.24 -8.33,3.24 0,0 -2.44,-11.95 5.74,-9.85 8.18,2.1 12.59,11.47 12.59,11.43 z"
         id="path22"
         inkscape:connector-curvature="0"
         style="fill:#a3cee0" />
      <path
         d="m 389.29,278.64 c -7.93,3.9 -11.58,-8.89 -5.69,-12.36 5.94,-3.46 13.62,8.46 5.69,12.36 z"
         id="path24"
         inkscape:connector-curvature="0"
         style="fill:#b2783b" />
      <path
         d="m 352.21,250.3 c 0,0 -11.56,1.96 -16.19,7.21 -5.38,6.12 -6.93,16.06 -6.93,16.06 0,0 -5.65,-11.24 1.45,-19.36 10.29,-11.77 21.67,-3.91 21.67,-3.91 z m 45.73,-5.1 c -2.40744,-0.8167 -4.85777,-1.50106 -7.34,-2.05 -3.16,-0.6 -6.8,1.92 -6.8,1.92 0,0 -2.96,-8.23 4.16,-6.61 7.84,1.79 9.98,6.74 9.98,6.74 z"
         id="path26"
         inkscape:connector-curvature="0"
         style="fill:#b2783b" />
      <path
         d="m 284.74882,149.26378 c -1.42318,1.10925 -3.33361,1.36565 -4.9989,0.67089 -1.66529,-0.69475 -2.82706,-2.23287 -3.03992,-4.02467 -0.26711,-1.78452 0.448,-3.57453 1.87118,-4.68378 1.42318,-1.10925 3.33361,-1.36565 4.9989,-0.67089 1.66529,0.69475 2.82706,2.23287 3.03992,4.02467 0.26711,1.78452 -0.448,3.57453 -1.87118,4.68378 z"
         id="path28"
         inkscape:connector-curvature="0"
         style="fill:#d2d2d2" />
      <path
         d="m 418.54,496.58 c -15.08,-0.55 -33.59,6.49 -33.59,6.49 0,0 0.71,-2.7 1.82,-3.52 4.94,-3.62 10.75,-5 16.64,-6 4.07,-0.67 8.22,-0.86 12.41,-1.27 2.95,1.45 4.72,3.58 2.72,4.3 z m 28.03,-19.03 c 6.52,9 6.87,36 -4,42 -6.25,10.35 -12.13,16.85 -23.94,16.11 -3.66302,-0.23123 -7.33698,-0.23123 -11,0 -9.15513,0.53675 -18.04531,-3.18318 -24.09,-10.08 -4.33,0.5 -17.32,2.11 -27,-1 -2.51,3.36 -4.24,10.84 -19.05,15.76 -7.6,2.49 -15.48,1.11 -23.23,1.49 -18.72,0.92 -25.96,-7.48 -31.72,-18.25 -3.4,-2.61 -7.14,-4.46 -10,-7 -1.45,3.53 -3.9,7 -6.14,8 -26.67,12.08 -33.05,-21.94 -17.23,-34.65 1.04775,-0.61957 2.18428,-1.07485 3.37,-1.35 0,0 -0.15,-6.06 -1,-7 -2.78,-0.43 -6.99,1.44 -17.4,-0.1 -2.74,-0.87 -4.36,-2.12 -3.92,-5.28 3.52,-25.23 21.95,-43.41 30.32,-39.62 1.2,-5.16 6.24,-21.09 5,-31 -13.85,-4.29 -53,-28.3 -68.13,-51.45 -11.07,-19.34 -2.12,-30.19 0,-32.05 12.55,2.84 13.4,6.62 20.64,13.62 11.42,3.54 29.96,9.09 33.49,6.88 -42.18,-31 -4.48,-108.38 29.12,-122 -9.72,-14.18 -17.33,-25.59 -24.78,-54 -2.25,-8.66 0.02,-25.09 11.3,-31.11 53.97,-29 73.65,67.23 70.65,68 6.98,0.64 31.59,2.96 43.37,9.64 10.44,5.93 11.89,9.14 13.3,12.68 7.47,10.33 28.67,32.09 29.79,70.17 -0.46296,6.26525 -1.38206,12.48841 -2.75,18.62 0,0 1.85,1.92 4,1 4.15,-1.78 10,-7 10,-7 0,0 7.81,-16.6 16,-3 6.25,10.38 2.05,48.31 -30,67 -2.26,5.32 14.59,53.52 15,55 8.79,13.15 15.48,38.23 10.03,49.97 z m -10.03,-9.97 c 3.67,3.28 4.34,2 7,6 1.34,-7.69 0.68,-24.83 -6,-32 1.26,5.89 1.15,19.27 -1,26 z m -16,-119 c -1.10924,5.94253 -1.77773,11.95892 -2,18 0,0 18.23,-11.74 24.77,-26.41 6.54,-14.67 10.69,-33.44 2.23,-34.59 -2.1,-0.28 -4.38,2.26 -8,6 -3.27,3.37 -7.8,7.9 -11,9 4.43,19.52 -4.15,18 -6,28 z M 368.31,221.6 c -22.13,-1.24 -41.13,5.15 -55.13,23.07 -12.03,15.45 -13.76,33.46 -11.44,52.21 0.21,1.46 0.41,2.97 0.63,4.46 2.56,17.82 12.04,29.56 29.82,34 0.81,0.2 1.6,0.45 2.39,0.71 2.56,0.82 7.35,1.44 10,0.53 23.87,-8.23 52.87,-17.79 67.44,-17.88 3.09,-0.02 4.71,-2.54 5.9,-5.43 3.47,-8.52 3,-17.39 2,-26.12 -2.15,-19.2 -10.33,-35.89 -22.33,-50.89 -7.59,-9.46 -17.47,-14 -29.28,-14.66 z m -92.49,-68.44 c 14.8,16.73 38.61,4.47 32.8,-7.73 -3.97,-8.34 -13.16,-11.38 -22.84,-10.67 -14.07,1.04 -13.83,14.03 -9.96,18.4 z m -1.15,43.16 c 18.45,-1.94 35.58,-8.04 52,-16.4 1.48,-0.75 1.85,-1.68 1.24,-3.19 -3.36,-8.24 -6.77,-16.53 -12.59,-24.24 -0.23,7.71 -35.11,27.84 -48.11,-8.64 l -0.46,-0.41 c -5.6,4.05 -6.6,10.12 -6.6,16.3 0,12.49 4.71,23.72 10,34.72 1.07,2.22 2.72,2.06 4.52,1.86 z m -1.27,4.09 c 1.83,2.32 2.72,5.94 6.3,6.24 13.21,1 37.49,-8 49.39,-15 3.66,-2.19 1.61,-6.04 0.73,-9.19 -16.51,8.66 -36.91,16.43 -56.42,18 z m 6.8,9.63 c 4.34,8.62 9.12,11.29 17.64,9.91 19.55,-3.16 34.97,-11.11 36.17,-14.86 1.2,-3.75 -0.68,-12 -0.68,-12 0,0 -20.84,15.55 -53.13,17 z m -21.66,230.54 c -2.14,0.32 -17.63,3.32 -24.63,33.45 -0.25,1.09 -0.48,2.54 0.89,3.09 4.31,1.71 12.03,0.75 15.74,-1.54 -0.29,-13.29 0.74,-27 8,-35 z m -14,64 c -0.47,3.71 15.49,2.78 15,0 -2,-3.67 -5,-13 -5,-13 0,0 -8.93,4.54 -10,13 z m 21,5 c -6.7,0.25 -17.6,1.08 -21,-1 0.16,8.11 3.16,14.54 14,15 11.89,-0.76 6.83,-14.35 7,-14 z m 36,13 c 20.62,-4.71 36.93,-24.63 41,-43 2.48,-11.2 0.82,-22.87 -1,-27 -4.1,-9.31 -19.55,-29.18 -54,-29 -11.38,5.09 -25.9,14.95 -29,28 -2.68,11.26 -3.43,26.8 -0.27,38.58 5.27,19.57 25.11,30.31 43.27,32.42 z m 52,-4 c -3.75,1.28 -10.72,1.39 -14,0 -1.74,6.37 -6.62,15.54 -11,19 13.7,1.76 23.51,-9.76 25,-19 z m 4,-26 c -2.24,-12 -9,-14 -9,-14 0,0 -16,55.31 -59,48 13.72,15.2 37,23.82 47,-12 5.77,2.34 20,-1 20,-1 2.03169,-6.81528 2.3749,-14.02251 1,-21 z m 31.57,28 c 0,0 3.43,-1.51 3.43,-2 -5.88,0 -14.12,-1 -20,-1 -3.18,0 -4,-1.79 -5.75,-4.44 1.21,-7.73 0.89,-19.73 13.75,-27.73 7.86,-4.91 20.03,-9.53 42.94,-9.53 3.97,0.41 5.5,2.18 6.91,-1.36 10.52,-26.48 -0.02,-53.39 -13.13,-93.25 -2.23,-6.78 -3.84,-20.09 -1.72,-30.86 1.71,-8.77 6.92,-15.05 8,-21.36 1.16,-2.92 -0.08,-6.25 -1.63,-9.12 -0.45,-0.83 -0.61,-2.06 -2.13,-1.39 -1.52,0.67 -0.66,1.45 -0.15,2.35 0.51,0.9 0.84,1.87 0,2.69 -0.43277,0.19439 -0.93505,0.15284 -1.33,-0.11 -2.87,-3.04 -5.03,-2.82 -6.68,1.18 -0.25,0.59 -1.08,0.21 -1.73,-0.1 -4.39,-2.12 -6.68,-2.17 -7.75,2.12 -3.26,-1.95 -8.61,-1.8 -12.4,0.2 -0.72,0.39 -1.22,0.53 -1.3,1.66 -0.24,3.27 -0.53,3.41 -2.93,1.27 -0.88099,-0.98453 -2.284,-1.3123 -3.51,-0.82 -2.38,0.79 -4.79,2.44 -7.22,3 -1.19303,0.19433 -2.312,0.70546 -3.24,1.48 0,0 -1,5.58 -2,6 -1.4,0.56 -3,-4 -3,-4 0,0 -8.78,1.69 -11,7 -0.83,2 -1.61,-2.36 -3.18,-2 -6.91,1.57 -19.33,0.95 -19.33,0.95 0,0 -3.84,6.91 -5.49,6.09 -1.32,-0.66 0.12,-8.37 0.12,-8.37 -4.17757,-1.77833 -8.19268,-3.91637 -12,-6.39 -1.91,-1.27 -3.27,1.47 -3.27,1.47 -4.46,2.46 -0.68,-3.03 -1.11,-3.88 -1.73,-3.4 -5.23,-6.96 -7.47,-10.05 -1.49,-0.06 -4.26,1.33 -5.06,0.18 -0.48,-0.69 2.2,-2.87 2.52,-3.87 -0.55,-2.37 -3.28,-8.37 -3.65,-11.6 -0.37,-3.23 -3.45,-0.28 -5.12,-0.74 -0.95,-0.3 -2.17,-0.12 -2.39,-1.3 -0.3,-1.61 1.2,-1.64 2.26,-2 1.34,-0.46 4.15,-0.31 3.7,-1.57 -1.29,-3.54 2.29,-8.58 -3.29,-10.79 -1.39,-0.55 -1.3,-1.8 -0.22,-2.8 4.03,-3.9 4.09,-8.85 0.17,-13.16 -1.17,-1.29 -1.11,-3.07 0.62,-2.75 3.65,0.69 3.74,-1.61 4,-3.87 0.38,-3.32 4.27,-6.93 -0.73,-9.93 -0.74,-0.45 0.04,-1.99 0.8,-1.77 5.58,1.65 5.08,-3.67 7.08,-6.07 1.2,-1.44 2.77,-3.33 -0.58,-4.44 -0.42003,-0.0965 -0.77155,-0.38231 -0.95165,-0.77384 -0.1801,-0.39153 -0.16841,-0.84445 0.0317,-1.22616 0.39988,-0.4951 1.02933,-0.74537 1.66,-0.66 4.27,2.02 6.41,-1.13 8,-3.83 2.03,-3.44 5.01,-5.18 8.2,-7.18 4.68,-3 8.96,-6.28 14.48,-8.07 8,-2.58 15.86,-4.48 24.37,-4.24 8.07163,0.18025 16.10782,1.12785 24,2.83 0.0797,-1.07254 -0.56085,-2.0681 -1.57,-2.44 -18.6,-10.42 -29.53,-9.71 -44.6,-9.71 -8.84,10.43 -32.13,17.17 -48.29,17 -4.3,-0.05 -8.29,0.57 -12.22,3.19 -7.41,4.93 -41.24,28.71 -38.49,81.85 0.51,12.41 12.06,32.13 20,33 8.44,0.93 15,1 15,1 0,0 0.81,3 -1,3 -1.81,0 -23.09,0.84 -29,0 -5.79786,-1.18295 -11.48491,-2.85562 -17,-5 -5.5,-2.08 -10.12,-1.36 -17,-9 -1.55,-1.7 -7.16,-5.81 -9.55,-5 -2.39,0.81 -2.84,3.63 -3.15,5.87 -1,6.98 1.6,13.35 5.11,18.91 7.47,11.83 27.94,28.77 46.59,39.26 9.44868,5.26017 19.53015,9.29276 30,12 l -2,2 -6,0 c 0.51,8.77 -4.31,23.38 -6,28 2.33,-2.28 18.43,-18.07 27,-17 37.59,4.67 52.34,29.44 63,50 11.25,21.7 11.62,39.92 7,49 -6.37,12.77 27.57,4 27.57,4 z m 39.43,-32 c -3.37,-5.5 -3.57,-9.44 -13,-9 -9.94,0.46 -21.55,3.86 -30.69,8 -9.32,4.21 -13.85,12.2 -13.32,22.41 0.15,2.29 0.75,4.29 3.15,4.29 27.79,-0.19 36.95,1.06 43.86,-4.7 5,-4.2 15.05,-12.77 10,-21 z m -5,22 c -3.93,2.84 -6,8.49 -13,9 -7,0.51 -12,1 -12,1 -3.27493,2.42052 -7.02294,4.12416 -11,5 15.73,13 37.08,7.06 36,-15 z m 15,9 c -2.76,1.49 -5.34,3.08 -11,0 -2.52,7.79 -5.6,10.28 -12,13 13.43,0.85 19,-6.25 23,-13 z m -3,-48 c -1.12,2.86 -3.01,7.23 -5.53,7.66 9.79,13.39 2.01,20.77 -1.21,26.65 -0.77,4.49 -0.92,7.28 -1.26,9.69 5.93,2.32 10.81,0.72 16,-1 11.62,-31.66 -8.27,-43.32 -8,-43 z m -74,-208 c 1.35,4.39 2.31,20.22 -11,16 -5.49,-1.74 -8.29,-8.24 -7,-15 2.73,-14.28 16,-7.5 18,-1 z m -10.25,0.6 c -0.17894,-1.27134 -1.13486,-2.2945 -2.39112,-2.55932 -1.25626,-0.26482 -2.54385,0.28542 -3.22075,1.37635 -0.6769,1.09093 -0.59816,2.48894 0.19695,3.49697 0.79511,1.00802 2.13634,1.4102 3.35492,1.006 1.47629,-0.3609 2.39217,-1.83698 2.06,-3.32 z m 0.25,-17.72 c 19.65,8.53 17,32.45 13.57,34.02 0.31588,-1.91581 0.33275,-3.86902 0.05,-5.79 0.99922,-6.40184 -0.67071,-12.93336 -4.62,-18.07 -6.62,-8.37 -15.85,-5.57 -21.49,-1.2 -6.25,4.86 -8.66,15.03 -5.46,23.1 2.94,7.43 8.56,10.29 22.45,9.29 -0.67,1.69 -3.14,1.46 -4.81,1.69 -9.74,1.34 -17.9,-2.47 -22.74,-10.94 -4.56,-7.97 -3.57,-20.27 1.68,-26.8 5.25574,-6.16575 13.86349,-8.28346 21.38,-5.26 z m -22.33,22.87 c 1.25,-8.54 6.38,-18.36 19.28,-20.85 -20.13,-3.05 -21.39,15.13 -19.28,20.89 z m 53.07,-25.48 c -2.03,-9.47 8.82,-7.77 16.59,0.92 9.56,9.23 13.72,25.96 7.67,28.81 -3.1,1.46 -6,-1 -6,-1 0,0 -13.8,-8 -18.26,-28.73 z m 3.14,4.32 c 1.52,9.41 12.44,22.62 18.12,23.41 4.45,0.62 6.9,-7 -2.72,-22.45 -7.57,-7.18 -16.67,-6.82 -15.4,-0.96 z M 384,244.43 c 3.17,-3.27 5.75,-3.1 10.89,-1.53 -1.72,-2.03 -12.13,-7.67 -10.89,1.53 z m -5.14,29.63 c -0.37509,-2.05054 0.0972,-4.16554 1.30905,-5.8617 1.21181,-1.69615 3.05954,-2.82851 5.12095,-3.1383 3.88,-0.56 8.16,2.69 8.88,6.77 0.72,4.08 -2.33,8.73 -6.1,9.27 -4.4762,0.55782 -8.57373,-2.57427 -9.21,-7.04 z m 7.23,-6.77 c -2.48093,0.84716 -3.86496,3.48779 -3.15,6.01 0.63,2.83 2.54,4.2 5.54,3.6 2.59,-0.53 3.81,-2.36 3.12,-4.76 -0.74,-2.57 -2.14,-4.94 -5.53,-4.85 z m 5.45,-17.71 c 5,-1 15,11.81 10,16 -5.44,4.57 -16.3,-14.78 -10,-16 z m -0.28,5.87 c 0.434,0.78342 1.32075,1.20108 2.20115,1.03673 0.8804,-0.16435 1.55675,-0.8738 1.67888,-1.76104 0.12213,-0.88724 -0.33738,-1.75304 -1.14063,-2.14915 -0.80325,-0.39611 -1.76987,-0.23357 -2.3994,0.40346 -0.75752,0.59885 -0.90755,1.68875 -0.34,2.47 z"
         id="path30"
         inkscape:connector-curvature="0"
         style="fill:#000000" />
    </g>
  </g>
</svg>
