<svg version="1.1" xmlns="http://www.w3.org/2000/svg" xmlns:xlink="http://www.w3.org/1999/xlink" width="87.99945" height="88.00142" viewBox="0,0,87.99945,88.00142"><g transform="translate(-196.00028,-135.99929)"><g data-paper-data="{&quot;isPaintingLayer&quot;:true}" fill-rule="nonzero" stroke="none" stroke-width="1" stroke-linecap="butt" stroke-linejoin="miter" stroke-miterlimit="10" stroke-dasharray="" stroke-dashoffset="0" style="mix-blend-mode: normal"><path d="M280.76164,224.00071c-0.82849,0 -1.65698,-0.31661 -2.29021,-0.94721l-80.84584,-80.84848c-1.26384,-1.26384 -1.26384,-3.31657 0,-4.58041c1.26384,-1.26384 3.31657,-1.26384 4.58041,0l80.84584,80.84584c1.26384,1.26384 1.26384,3.31657 0,4.58041c-0.63324,0.6306 -1.46173,0.94985 -2.29021,0.94985z" fill="#d99e82"/><path d="M231.6304,153.81435c0,9.83892 -7.97614,17.81506 -17.81506,17.81506c-9.83892,0 -17.81506,-7.97614 -17.81506,-17.81506c0,-9.83892 7.97614,-17.81506 17.81506,-17.81506c9.83892,0 17.81506,7.97614 17.81506,17.81506z" fill="#fcb1e3"/><path d="M229.16098,190.59288c-9.57565,-2.26111 -15.50524,-11.85671 -13.24412,-21.43235c2.26111,-9.57565 11.85671,-15.50524 21.43235,-13.24412c9.57565,2.26111 15.50524,11.85671 13.24412,21.43235c-2.26111,9.57565 -11.85671,15.50524 -21.43235,13.24412z" fill="#ffd983"/><path d="M270.50321,192.68453c0,9.83892 -7.97878,17.81769 -17.81769,17.81769c-9.83892,0 -17.81506,-7.97878 -17.81506,-17.81769c0,-9.83892 7.97614,-17.81506 17.81506,-17.81506c9.83892,0 17.81769,7.97878 17.81769,17.81506z" fill="#a6d388"/><path d="M280.76164,224.00071c-0.82849,0 -1.65698,-0.31661 -2.29021,-0.94721l-19.84141,-19.84141c-1.26648,-1.26384 -1.26648,-3.31657 0,-4.58041c1.26648,-1.26384 3.31393,-1.26384 4.58041,0l19.84141,19.84141c1.26384,1.26384 1.26384,3.31657 0,4.58041c-0.63324,0.62796 -1.46173,0.94721 -2.29021,0.94721z" fill="#d99e82"/></g></g></svg>