<svg version="1.1" id="bat1-a" x="0px" y="0px" width="150px" height="150px" viewBox="0 0 150 150" enable-background="new 0 0 150 150" xml:space="preserve" xmlns="http://www.w3.org/2000/svg" xmlns:xlink="http://www.w3.org/1999/xlink">
  <g>
    <g id="R_Wing">
      <path id="Inner_1_" fill="#936C54" d="M101.755,57.69c1.351-2.083,2.913-2.632,4.108-4.772c0.346-0.627-0.441-1.074-0.596-1.778&#xD;&#xA;&#x9;&#x9;c-0.664-2.87,0.08-4.647,0.9-7.438c0.809-2.709,2.32-3.677,3.812-6.049c1.897-2.983,3.619-4.417,6.742-5.859&#xD;&#xA;&#x9;&#x9;c-2.873-3.789-3.41-6.583-4.367-11.2c-0.854-4.142,2.459-7.192,0.263-10.86c-4.042,4.38-4.511,8.161-8.2,12.819&#xD;&#xA;&#x9;&#x9;c-2.268,2.874-4.254,3.943-6.036,7.147c-1.366,2.446-1.917,4.183-4.05,5.992c-2.541,2.162-2.531,5.002-2.352,8.379&#xD;&#xA;&#x9;&#x9;c0.146,2.875-0.197,4.532-0.164,7.444c0.104,6.239-0.825,9.606-1.438,15.821c3.229,0.778,4.517-2.696,7.11-4.911&#xD;&#xA;&#x9;&#x9;C99.627,60.597,100.921,60.437,101.755,57.69z"/>
      <path id="Outer_1_" fill="#CF9F70" d="M113.113,5.639c0.531,4.686-3.155,9.044-5.987,14.383c-2.813,5.257-4.765,8.099-8.713,12.524&#xD;&#xA;&#x9;&#x9;c3.869,0.415,6.795-2.923,10.813-2.644c-3.127,4.064-12.609,5.91-14.164,7.341c-1.028,0.949,5.252,9.436,6.519,13.783&#xD;&#xA;&#x9;&#x9;c-3.379-1.502-4.659-3.917-7.64-6.483c0.007,3.7-0.723,17.416-2.627,23.793c-0.474,1.564-2.961,2.384-3.881,1.13&#xD;&#xA;&#x9;&#x9;c-1.328-1.825,0.64-3.632,1.146-5.917c1.103-4.98,0.974-7.937,1.723-13.002c0.751-5.065,0.784-7.637-0.401-13.084&#xD;&#xA;&#x9;&#x9;c-1.142-5.236,5.949-6.008,8.889-10.332C104.455,18.863,107.193,14.878,113.113,5.639z"/>
      <path id="Outline_3_" d="M118.088,32.495c-9.191,3.004-14.531,14.068-10.965,20.11C107.05,52.963,95.5,67.972,92.084,67.447&#xD;&#xA;&#x9;&#x9;C92.75,66.667,102.917,56,104.963,52.82c-1.665-8.701,2.707-17.665,10.602-21.117c-3.189-5.552-4.424-11.804-3.823-18.228&#xD;&#xA;&#x9;&#x9;c-3.731,6.585-7.229,13.465-12.511,18.884c0,0,12.625-4.823,14.188-3.679c-0.592,1.548-14.071,8.26-18.258,8.815&#xD;&#xA;&#x9;&#x9;c2.464,4.502,7.901,14.378,7.901,14.378c-3.875-0.557-6.802-3.699-8.843-6.96c0.134,5.512,0.345,17.438-2.628,22.269&#xD;&#xA;&#x9;&#x9;c-0.346,0.248-0.749,0.733-1.213,0.442c1.766-6.368,2.936-16.492,2.336-23.074c0.151-0.557,0.081-1.421,0.766-1.589&#xD;&#xA;&#x9;&#x9;c2.721,1.455,4.084,4.708,6.871,6.057c-2.401-3.773-4.973-7.506-6.418-11.818c2.062-1.707,9.178-3.05,12.935-5.694&#xD;&#xA;&#x9;&#x9;c-3.024,0.395-6.923,2.699-10.937,2.504c0.998-1.477,2.069-2.756,3.092-3.902c4.43-4.973,11.86-15.89,13.882-23.144&#xD;&#xA;&#x9;&#x9;c-2.199,3.599-13.11,23.666-22.409,28.551c-0.209,1.212,0.529,2.629,0.732,3.846c0.886,5.368,1.066,26.723-4.027,29.473&#xD;&#xA;&#x9;&#x9;l-0.438-0.412c1.946-7.439,3.785-16.92,3.502-24.677c-0.094-2.593-0.914-5.199-1.008-7.671c-0.072-1.949,3.812-4.494,5.209-5.78&#xD;&#xA;&#x9;&#x9;c4.652-4.287,13.449-15.496,19.669-29.759L114.959,0C117.729,4,108.104,20.024,118.088,32.495z"/>
    </g>
    <g id="Body">
      <g id="Body_1_">
        <path id="Body_Fill" fill="#CF9F70" d="M102.057,79.334c0-2.555,2.45-4.022,2.937-6.493c1.604-8.129,3.534-15.253-2.251-21.287&#xD;&#xA;&#x9;&#x9;&#x9;c-2.651,3.729-8.924,15.084-8.924,15.084s-3.295-0.671-5.272-0.851c-1.396-3.087-4.168-6.521-6.38-10.211&#xD;&#xA;&#x9;&#x9;&#x9;c-2.01-3.352-5.626-7.039-7.073-6.872c-1.647,0.191-2.531,4.317-2.732,7.375c-0.444,6.161,0.078,10.224,0.963,15.756&#xD;&#xA;&#x9;&#x9;&#x9;c-6.028,3.854-9.806,6.452-13.342,12.651c-3.417,5.951-1.447,9.472-1.447,16.345c0,5.403-2.09,12.065-9.806,9.386&#xD;&#xA;&#x9;&#x9;&#x9;c-2.8-0.975-4.14-2.934-7.073-2.851c-1.407,0.042-2.652,0.084-3.375,1.343c-0.804,1.382,1.647,2.514,3.214,2.514&#xD;&#xA;&#x9;&#x9;&#x9;c-1.286,1.508-3.416,3.229-2.089,4.692c1.206,1.341,2.893,0.671,4.501,0c-0.12,1.718,0.482,4.19,2.089,3.856&#xD;&#xA;&#x9;&#x9;&#x9;c3.135-0.672,3.858-4.36,7.073-4.36c4.943,0,8.117-0.837,11.253-6.201c2.742,1.883,5.585,2.075,8.785,2.276l-0.364,1.332&#xD;&#xA;&#x9;&#x9;&#x9;c-1.791,2.977-4.974,3.636-8.118,3.274c-0.745-0.086-1.964,0.179-1.657,1.552c0.308,1.371,5.212-0.688,5.372-0.121&#xD;&#xA;&#x9;&#x9;&#x9;c0.161,0.569-4.249,1.639-3.028,3.576c1.22,1.938,5.31-2.421,6.058-1.729c0.749,0.692-2.857,2.239-1.657,3.458&#xD;&#xA;&#x9;&#x9;&#x9;c1.2,1.215,5.34-3.779,2.857-6.021c0.177-0.494,1.766-3.312,2.865-5.179c4.076,0.202,7-0.196,10.586-2.755&#xD;&#xA;&#x9;&#x9;&#x9;c3.537-2.514,5.666-4.566,7.557-8.548c1.889-3.979,2.169-8.718,6.431-9.218c1.89-0.211,3.493,0,4.66-1.508&#xD;&#xA;&#x9;&#x9;&#x9;c0.966-1.261,0.201-3.021-0.319-4.526C103.464,82.602,102.057,81.975,102.057,79.334z"/>
        <path id="Outline_2_" d="M103.27,78.098c0.267-0.5,0.518-1.007,0.768-1.513c0.345-0.558,1.146-1.935,1.146-2.012&#xD;&#xA;&#x9;&#x9;&#x9;c2.363-6.422,3.227-16.449-0.121-22.545c-0.514-0.936-1.439-2.288-2.627-1.609c-2.91,5.121-5.217,10.638-8.804,15.314&#xD;&#xA;&#x9;&#x9;&#x9;c-1.506-0.673-3.209-0.491-4.801-0.713c-1.36-4.036-9.878-19.893-14.916-17.462c-2.4,4.834-3.189,18.591-0.943,23.429&#xD;&#xA;&#x9;&#x9;&#x9;c-0.656,0.438-1.298,0.89-1.902,1.36l0.004,0.002c-2.938,1.6-8.387,6.461-11.896,12.388c-5.358,9.049,1.507,19.183-4.066,24.495&#xD;&#xA;&#x9;&#x9;&#x9;c-3.174,3.025-7.112-1.541-10.002-2.443c-5.664-1.77-11.572,2.798-4.981,5.312c-3.212,2.334-1.624,6.845,3.209,5.236&#xD;&#xA;&#x9;&#x9;&#x9;c-0.358,0.561-0.808,1.346-0.457,1.906c1.95,3.121,6.933,0.688,8.401-3.338c5.947,1.318,11.199-3.001,12.725-5.975&#xD;&#xA;&#x9;&#x9;&#x9;c0.007,0.006,0.011,0.01,0.018,0.016c0.936,0.642,3.544,1.499,6.561,2.09c-2.566,3.216-6.917-0.328-9.674,3.638&#xD;&#xA;&#x9;&#x9;&#x9;c-0.774,1.113-0.367,4.097,2.567,3.886c-1.045,1.131,0.12,6.242,4.501,3.771c3.696,3.094,6.791-1.383,6.309-6.245&#xD;&#xA;&#x9;&#x9;&#x9;c0.312-1.407,1.898-2.913,3.306-4.384c1.052-0.034,2.039-0.146,2.894-0.368c6.23-1.669,12.574-6.911,14.518-13.587&#xD;&#xA;&#x9;&#x9;&#x9;c0,0,0.901-2.485,0.895-3.854c1.506-0.711,2.922-1.636,4.19-2.819c0.707-0.168,0.261-0.606,3.777-0.933&#xD;&#xA;&#x9;&#x9;&#x9;c1.008-0.26,2.172-0.683,2.567-0.975c-0.216-1.884-1.824-4.282-2.563-6.571C103.859,83.562,102.557,79.441,103.27,78.098z&#xD;&#xA;&#x9;&#x9;&#x9; M72.569,116.809c2.483,2.241-1.657,7.235-2.857,6.021c-1.2-1.218,2.406-2.766,1.657-3.458c-0.748-0.69-4.838,3.668-6.058,1.729&#xD;&#xA;&#x9;&#x9;&#x9;c-1.221-1.938,3.189-3.007,3.028-3.576c-0.16-0.567-5.064,1.492-5.372,0.121c-0.307-1.373,0.912-1.638,1.657-1.552&#xD;&#xA;&#x9;&#x9;&#x9;c3.144,0.36,6.327-0.299,8.118-3.274l0.203-0.392c0.628,0.085,1.259,0.158,1.884,0.207&#xD;&#xA;&#x9;&#x9;&#x9;C73.955,114.038,72.794,116.178,72.569,116.809z M103.801,88.736c-3.062,0.242-6.251,1.543-9.314,0.596&#xD;&#xA;&#x9;&#x9;&#x9;c-5.912-1.829-12.723-2.744-18.004,1.429v1.013c1.871-0.059,3.504-1.438,5.261-2.022c1.95-0.651,4.297-0.627,6.001-0.299&#xD;&#xA;&#x9;&#x9;&#x9;c2.988,0.062,5.457,2.19,8.4,2.442c-5.336,4.521-15.064,2.354-15.375,2.562c-0.084,1.898,2.273,2.046,3.146,2.146&#xD;&#xA;&#x9;&#x9;&#x9;c3.636,0.404,7.435,0.107,10.847-1.221c-0.596,1.2-1.228,2.901-1.357,3.241c-3.543,7.929-9.963,11.7-18.231,12.008&#xD;&#xA;&#x9;&#x9;&#x9;c-3.202,0.12-7.901-1.056-11.146-2.11c-0.29-0.097-0.514,0.009-0.613,0.209c-0.004,0.004-0.009,0.006-0.013,0.011&#xD;&#xA;&#x9;&#x9;&#x9;c-1.849,2.056-4.625,7.55-13.489,5.321c-0.218,3.483-4.437,5.791-4.973,4.17c-0.535-1.617,2.505-3.113,1.944-3.991&#xD;&#xA;&#x9;&#x9;&#x9;s-4.342,1.298-5.372,1.431c-1.031,0.132-1.14-0.594-0.4-1.431c0.739-0.835,4.043-2.851,3.828-3.576&#xD;&#xA;&#x9;&#x9;&#x9;c-0.213-0.724-5.508,0.914-4.8-1.31c0.433-1.36,2.632-1.199,3.786-0.883c3.565,0.985,6.478,6.344,12.275,2.428&#xD;&#xA;&#x9;&#x9;&#x9;c6.792-4.588-0.307-16.532,4.515-25.267c4.009-7.268,11.363-12.237,11.847-12.548c1.762-1.369,10.19-4.391,11.071-6.043&#xD;&#xA;&#x9;&#x9;&#x9;c1.462-2.745-7.66-15.492-7.66-15.492c2.324,4.491,4.523,9.073,6.176,13.883c-1.383,1.163-4.81,2.8-8.081,4.845&#xD;&#xA;&#x9;&#x9;&#x9;c0.14-1.519-0.804-4.302-0.838-4.845c-0.303-4.84,0.435-11.114,2.344-15.552c7.82,4.674,11.128,16.001,13.146,17.281&#xD;&#xA;&#x9;&#x9;&#x9;c1.927-0.191,3.77,0.029,5.601,0.417c0.387-0.258,6.38-10.498,8.688-15.435c3.056,5.968,2.675,11.581,1.886,17.998&#xD;&#xA;&#x9;&#x9;&#x9;c-0.156,1.279-0.354,2.612-0.836,3.794c-0.348,0.851-0.778,1.685-1.168,2.519c-0.168-0.795-0.639-2.209-0.664-2.498&#xD;&#xA;&#x9;&#x9;&#x9;c-0.195-2.208-2.168-4.293-3.653-5.067c2.172-3.159,3.93-9.377,3.827-14.004c-1.541,4.528-2.854,9.176-5.2,13.407&#xD;&#xA;&#x9;&#x9;&#x9;c0,0,1.573,1.355,2.854,3.456c1.096,1.793,1.896,4.217,2.666,5.085c-0.759,1.701-1.256,3.414-0.399,5.291&#xD;&#xA;&#x9;&#x9;&#x9;c0.01,0.021,0.636,1.765,0.68,1.813C103.688,85.568,104.505,87.35,103.801,88.736z"/>
      </g>
      <g id="L_Eye">
        <path id="Outline_1_" d="M88.145,75.865c1.465,1.93,1.643,5.785-1.084,6.732c-2.557,0.891-7.377-0.246-9.029-2.562&#xD;&#xA;&#x9;&#x9;&#x9;C75.388,76.333,81.254,66.781,88.145,75.865z"/>
        <path id="White" fill="#FFFFFF" d="M87.459,78.009c0.95,4.197-9.715,4.058-7.943-1.548C80.641,72.903,86.908,75.568,87.459,78.009&#xD;&#xA;&#x9;&#x9;&#x9;z"/>
        <ellipse id="Pupil" cx="85.378" cy="79.545" rx="1.606" ry="1.676"/>
        <path id="Eyebrow" d="M90.773,76.163c-0.455,0.356-1.258,0-1.771-0.298c-0.629-1.729-4.87-6.545-4.87-6.545&#xD;&#xA;&#x9;&#x9;&#x9;C86.592,70.036,90.318,73.54,90.773,76.163z"/>
      </g>
      <g id="R_Eye">
        <path id="Eyebrow_1_" d="M99.404,73.004c-1.543,1.072-2.057,3.219-3.543,4.053c-0.285,0-0.514-0.061-0.688-0.3&#xD;&#xA;&#x9;&#x9;&#x9;C95.404,74.912,97.033,73.302,99.404,73.004z"/>
        <path id="Dark" d="M96.713,81.053c-0.128-0.635,0.035-1.93,0.916-3.271c1.484-2.264,4.255-4.296,6.577-1.317&#xD;&#xA;&#x9;&#x9;&#x9;c2.106,2.703-1.134,7.228-4.614,6.554C98.613,82.82,97.033,82.646,96.713,81.053z"/>
        <path id="White_1_" fill="#FFFFFF" d="M103.861,78.604c0.172,2.523-4.479,3.998-5.279,2.434&#xD;&#xA;&#x9;&#x9;&#x9;C97.131,78.195,103.617,74.971,103.861,78.604z"/>
        <ellipse id="Pupil_1_" cx="102.154" cy="80.357" rx="1.229" ry="1.28"/>
      </g>
      <g id="L_Tooth">
        <path fill="#FFFFFF" d="M85.473,92.416c-0.933,0-1.377-1.186-1.732-2.139c-0.094-0.246-0.174-0.467-0.249-0.612l-0.246-0.474&#xD;&#xA;&#x9;&#x9;&#x9;l0.487-0.215c0.281-0.125,0.633-0.188,1.041-0.188c0.675,0,1.309,0.173,1.334,0.18l0.466,0.13l-0.111,0.469&#xD;&#xA;&#x9;&#x9;&#x9;c-0.015,0.078,0.011,0.357,0.029,0.562c0.075,0.821,0.188,2.062-0.81,2.267C85.613,92.408,85.542,92.416,85.473,92.416&#xD;&#xA;&#x9;&#x9;&#x9;L85.473,92.416z"/>
        <path d="M84.771,89.288c0.615,0,1.203,0.162,1.203,0.162c-0.113,0.478,0.409,2.288-0.396,2.454&#xD;&#xA;&#x9;&#x9;&#x9;c-0.037,0.008-0.073,0.012-0.108,0.012c-0.785,0-1.211-1.854-1.537-2.482C84.18,89.325,84.479,89.288,84.771,89.288&#xD;&#xA;&#x9;&#x9;&#x9; M84.771,88.288c-0.479,0-0.896,0.078-1.241,0.229l-0.978,0.432l0.493,0.945c0.056,0.106,0.142,0.336,0.224,0.558&#xD;&#xA;&#x9;&#x9;&#x9;c0.391,1.04,0.924,2.464,2.201,2.464c0.105,0,0.211-0.012,0.315-0.033c1.43-0.295,1.274-1.986,1.2-2.801&#xD;&#xA;&#x9;&#x9;&#x9;c-0.014-0.15-0.031-0.354-0.03-0.441l0.213-0.897l-0.93-0.256C86.167,88.466,85.502,88.288,84.771,88.288L84.771,88.288z"/>
      </g>
      <g id="R_Tooth">
        <path fill="#FFFFFF" d="M103.538,93.789c-1.213,0-1.741-1.479-1.968-2.107l-0.063-0.177l-0.233-0.58l0.617-0.1&#xD;&#xA;&#x9;&#x9;&#x9;c0.146-0.024,0.349-0.042,0.574-0.062c0.434-0.037,1.239-0.104,1.459-0.276l1.283-1.009l-0.498,1.555&#xD;&#xA;&#x9;&#x9;&#x9;c-0.037,0.115-0.061,0.372-0.08,0.619c-0.064,0.755-0.146,1.693-0.805,2.07l-0.106,0.061L103.538,93.789z"/>
        <path d="M104.232,90.881c-0.172,0.536-0.027,2.049-0.656,2.407c-0.014,0.001-0.025,0.001-0.038,0.001&#xD;&#xA;&#x9;&#x9;&#x9;c-0.978,0-1.401-1.559-1.567-1.971C102.49,91.234,103.775,91.239,104.232,90.881 M106.002,88.244l-2.367,1.835&#xD;&#xA;&#x9;&#x9;&#x9;c-0.208,0.103-0.908,0.161-1.212,0.187c-0.241,0.021-0.457,0.041-0.61,0.065l-1.235,0.2l0.467,1.16&#xD;&#xA;&#x9;&#x9;&#x9;c0.017,0.039,0.035,0.094,0.058,0.156c0.238,0.668,0.873,2.44,2.438,2.44h0.021l0.06-0.002l0.243-0.011l0.211-0.119&#xD;&#xA;&#x9;&#x9;&#x9;c0.888-0.506,0.984-1.637,1.056-2.463c0.015-0.172,0.037-0.434,0.06-0.514L106.002,88.244L106.002,88.244z"/>
      </g>
    </g>
    <g id="L_Wing">
      <path id="Inner" fill="#936C54" d="M4.683,7.474c3.495,7.333,5.48,11.605,7.555,19.442c2.973,11.229,3.013,18.73-1.125,29.164&#xD;&#xA;&#x9;&#x9;c8.48,0,15.15,6.285,18.969,14.247c1.688,3.519,1.848,3.687,2.732,7.543c0.643,2.849,0,5.321,2.09,7.206&#xD;&#xA;&#x9;&#x9;c1.205,1.09,2.531-0.756,4.018-1.51c7.234-3.771,12.619-4.188,20.415-2.18c3.536,0.924,7.234,5.069,9.164,1.846&#xD;&#xA;&#x9;&#x9;c1.124-1.885,3.375-2.308,3.375-4.524c0-2.599-2.53-3.269-3.697-5.533c-2.974-5.698-5.466-9.092-5.788-15.587&#xD;&#xA;&#x9;&#x9;c-0.602-12.276-2.652-24.554-14.145-27.822c-5.627-1.592-8.922-1.467-14.628-2.682c-6.953-1.508-9.966-5.321-15.593-9.721&#xD;&#xA;&#x9;&#x9;c-2.492-1.928-4.702-1.676-7.395-3.354C8.138,12.46,6.772,9.652,4.683,7.474z"/>
      <path id="Outer" fill="#CF9F70" d="M74.528,75.688c-2.731-2.932-4.581-5.653-6.35-9.888c-3.817-8.967-7.635-31.636-7.072-36.455&#xD;&#xA;&#x9;&#x9;c-11.012,0-17.522-0.88-28.212-3.938C26.585,23.606,7.657,10.574,4.683,7.474c2.661,5.688,18.033,18.521,22.344,20.364&#xD;&#xA;&#x9;&#x9;c8.038,3.436,16.035,6.37,25.479,6.37c-6.551,0.586-11.293,3.812-17.041,7.123c-7.555,4.358-13.261,8.045-18.083,13.241&#xD;&#xA;&#x9;&#x9;c2.169,0.922,3.777-0.502,5.948-1.509C28.273,50.8,47.121,39.57,54.435,37.057c-0.402,2.262-13.664,22.625-16.316,36.622&#xD;&#xA;&#x9;&#x9;c2.331-1.426,13.945-22.668,19.049-33.354c0.321,8.632,4.742,20.784,6.029,25.141c1.406,4.778,3.576,9.554,7.312,12.654&#xD;&#xA;&#x9;&#x9;C72.761,79.963,73.643,78.539,74.528,75.688z"/>
      <path id="Outline" d="M74.601,75.031c-8.282-12.458-12.09-31.109-12.232-46.065c-0.227-0.296-0.6-0.747-0.97-0.835&#xD;&#xA;&#x9;&#x9;c-3.663-0.86-9.67,0.569-14.631-0.297c-6.667-1.164-12.315-2.685-18.519-5.602c-5.81-2.733-12.568-6.407-17.432-10.726&#xD;&#xA;&#x9;&#x9;c-0.94-0.837-5.112-6.027-6.548-5.884C3.977,5.652,3.963,6.445,4.04,6.635c0.455,1.131,1.188,2.379,2.091,3.68&#xD;&#xA;&#x9;&#x9;c8.861,18.023,9.833,37.474,3.829,47.136c10.251-0.542,19.419,10.853,22.232,20.141c0.176,0.576,1.433,9.784,3.308,8.784&#xD;&#xA;&#x9;&#x9;c1.951-0.435,3.182-0.93,3.952-1.455c5.602-3.812,12.858-4.169,19.488-3.036c3.086,0.416,5.716,1.967,8.516,3.037&#xD;&#xA;&#x9;&#x9;c-0.058-0.713-0.57-1.249-1.087-1.729c-7.754-5.719-22.94-5.514-30.726,1.242c-1.319-11.516-10.888-27.553-22.94-28.712&#xD;&#xA;&#x9;&#x9;c1.398-1.835,2.648-4.408,3.029-6.735c1.337-8.164-1.582-23.881-5.601-31.047c-0.298-0.532-1.361-3.054-2.466-5.567&#xD;&#xA;&#x9;&#x9;c4.841,6.031,12.742,12.663,17.383,15.044c6.986,3.584,15.065,6.991,22.918,7.27c-10.63,4.063-20.087,9.497-28.805,17.043&#xD;&#xA;&#x9;&#x9;c-0.786,0.68-1.897,1.968-1.911,3.187l0.987,0.136c0.149,0.031,2.432-0.319,2.581-0.343c6.902-1.124,22.565-12.548,31.768-15.894&#xD;&#xA;&#x9;&#x9;c0,0-14.519,24.062-15.193,36.631c4.336-1.496,16.122-27.542,19.489-33.013c1.405,11.679,4.777,31.09,15.259,37.9l0.115-1.312&#xD;&#xA;&#x9;&#x9;c-6.538-9.32-14.205-24.789-14.288-40.462c-0.514-0.37-1.096,0.087-1.486,0.417c-5.547,11.037-10.387,22.525-17.26,32.775&#xD;&#xA;&#x9;&#x9;c0.665-9.135,16.904-35.448,16.739-36.205c-0.095-0.44-17.442,7.711-32.971,17.315c-1.538,0.572-3.321,0.995-4.284,1.729&#xD;&#xA;&#x9;&#x9;c1.9-1.896,3.825-4.548,5.827-6.139c5.842-4.641,20.269-11.196,27.434-13.468c1.014-0.321,2.144-0.374,2.857-1.311&#xD;&#xA;&#x9;&#x9;c-0.109-0.249-0.399-0.679-0.686-0.715c-1.311-0.164-2.945,0.107-4.312,0.047c-3.529-0.157-7.176-0.696-10.604-1.597&#xD;&#xA;&#x9;&#x9;c-9.345-2.454-18.45-6.919-25.375-14.003c-1.216-1.244-2.606-2.521-3.315-4.171c12.224,9.84,30.561,18.962,49.781,16.864&#xD;&#xA;&#x9;&#x9;C59.701,42.7,64.594,67.802,74.201,76.342C74.652,76.062,74.656,75.504,74.601,75.031z"/>
    </g>
  </g>
</svg>