<svg width="40" height="40" xmlns="http://www.w3.org/2000/svg" xmlns:svg="http://www.w3.org/2000/svg">
 <title>control_repeat</title>
 <g>
  <title>Layer 1</title>
  <path transform="rotate(90 20.325000762939453,19.92499923706055) " id="svg_1" fill="#cf8b17" d="m34.75,23l0,0.1l0,0.25a13.62,13.62 0 0 1 -1,4.69a14.19,14.19 0 0 1 -2.33,3.8a15.36,15.36 0 0 1 -3,2.57l-0.05,0a14.25,14.25 0 0 1 -3,1.4a8.62,8.62 0 0 1 -1.32,0.37a9.2,9.2 0 0 1 -1.22,0.21l-0.26,0c-0.28,0 -0.54,0.07 -0.78,0.08l-1,0a3,3 0 0 1 -0.28,-6s0.18,0 0.5,0l0.27,0l0.24,0a0.59,0.59 0 0 0 0.19,0a1.57,1.57 0 0 1 0.25,0l0.08,0a1.9,1.9 0 0 0 0.44,-0.12l0.06,0a3.28,3.28 0 0 0 0.61,-0.35l0.07,0a7.69,7.69 0 0 0 1.52,-0.86a8.7,8.7 0 0 0 1.46,-1.45a7.69,7.69 0 0 0 1.08,-2a6.34,6.34 0 0 0 0.37,-2.34l0,-0.29l0,-0.48l0,-0.14a0.62,0.62 0 0 1 0,-0.13l-0.13,-0.31a0.15,0.15 0 0 1 0,-0.07c0,-0.13 -0.06,-0.29 -0.12,-0.48l-0.07,-0.22a2.28,2.28 0 0 0 -0.1,-0.31l0,-0.08a6.75,6.75 0 0 0 -3,-3.47a6.24,6.24 0 0 0 -2,-0.7l-0.25,0a5.73,5.73 0 0 0 -0.67,-0.06l-1.31,0c-0.92,0 -1.78,0 -2.53,0l-1,0l0,3a2.06,2.06 0 0 1 -3.47,1.49l-7.1,-7.1a2.05,2.05 0 0 1 0,-2.91l7.1,-7.09a2,2 0 0 1 1.45,-0.62a2.06,2.06 0 0 1 2.06,2.06l0,3l1,0l2.52,0l0.79,0l0.87,0.16a13.63,13.63 0 0 1 2.14,0.4a14.36,14.36 0 0 1 10.24,9.5a8.29,8.29 0 0 1 0.3,1.07l0,0.15a11.73,11.73 0 0 1 0.27,1.28l0.07,0.64c0,0.16 0,0.28 0,0.39l0,1l0.04,-0.03z"/>
  <path transform="rotate(90 20.114887237548828,19.854661941528324) " id="svg_2" fill="#fff" d="m33.64989,22.77966l0,0.29a12.59,12.59 0 0 1 -1,4.34a13.32,13.32 0 0 1 -2.15,3.52a14.17,14.17 0 0 1 -2.78,2.4a12.88,12.88 0 0 1 -2.82,1.31a8.25,8.25 0 0 1 -1.23,0.35a7.56,7.56 0 0 1 -1.11,0.19c-0.34,0 -0.69,0.09 -0.92,0.1l-1,0a2,2 0 0 1 -0.2,-4l0.45,0l0.54,-0.05a5,5 0 0 0 0.53,-0.11a3.21,3.21 0 0 0 0.66,-0.17a5.22,5.22 0 0 0 0.8,-0.29a8.57,8.57 0 0 0 1.76,-1a10.06,10.06 0 0 0 1.72,-1.7a8.42,8.42 0 0 0 1.22,-2.26a7.44,7.44 0 0 0 0.43,-2.71l0,-0.29l0,-0.47a2.62,2.62 0 0 0 0,-0.43l-0.07,-0.29a3.92,3.92 0 0 0 -0.15,-0.62a5.11,5.11 0 0 0 -0.22,-0.66a7.72,7.72 0 0 0 -3.5,-4a7.4,7.4 0 0 0 -2.29,-0.81a7.21,7.21 0 0 0 -1.12,-0.11l-1.3,0c-1.84,0 -3.38,0 -4.47,0l0,4.05a1.05,1.05 0 0 1 -1.8,0.74l-7.13,-7.09a1,1 0 0 1 0,-1.49l7.08,-7.09a1.05,1.05 0 0 1 1.8,0.74l0,4c1.09,0 2.64,0 4.48,0l0.72,0l1,0.06a12.86,12.86 0 0 1 2,0.33a13,13 0 0 1 4,1.68a13.22,13.22 0 0 1 5.56,7.17a9,9 0 0 1 0.31,1.13a10,10 0 0 1 0.21,1.22l0.07,0.63c0,0.21 0,0.33 0,0.49l0,0.83l-0.08,0.07z"/>
 </g>
</svg>
