<svg width="40" height="40" viewBox="0 0 40 40" xmlns="http://www.w3.org/2000/svg" xmlns:xlink="http://www.w3.org/1999/xlink"><title>music-block-icon</title><defs><path d="M32.18 25.874C32.636 28.157 30.512 30 27.433 30c-3.07 0-5.923-1.843-6.372-4.126-.458-2.285 1.665-4.136 4.743-4.136.647 0 1.283.084 1.89.234.338.086.637.18.938.302.87-.02-.104-2.294-1.835-12.23-2.134-12.302 3.06-1.87 8.768-2.752 5.708-.885.076 4.82-3.65 3.844-3.724-.987-4.65-7.153.263 14.738zm-16.998 5.99C15.63 34.148 13.507 36 10.44 36c-3.07 0-5.922-1.852-6.38-4.136-.448-2.284 1.674-4.135 4.75-4.135 1.003 0 1.975.196 2.855.543.822-.055-.15-2.377-1.862-12.228-2.133-12.303 3.06-1.87 8.764-2.753 5.706-.894.076 4.82-3.648 3.834-3.724-.987-4.65-7.152.262 14.738z" id="a"/></defs><g fill="none" fill-rule="evenodd"><use fill="#FFF" xlink:href="#a"/><path stroke-opacity=".1" stroke="#000" d="M28.456 21.675c-.01-.312-.087-.825-.256-1.702-.096-.495-.612-3.022-.753-3.73-.395-1.98-.76-3.92-1.142-6.113-.732-4.223-.693-6.05.344-6.527.5-.23 1.06-.08 1.84.35.414.227 2.182 1.365 2.07 1.296 1.994 1.242 3.464 1.774 4.93 1.548 1.526-.237 2.504-.06 2.876.618.348.635.015 1.416-.73 2.18-1.472 1.516-3.975 2.514-5.848 2.023-.822-.22-1.238-.465-2.38-1.267l-.095-.066c.047.593.264 1.74.717 3.803.294 1.336 2.08 9.187 2.637 11.674l.002.012c.528 2.637-1.873 4.724-5.236 4.724-3.29 0-6.363-1.988-6.862-4.528-.53-2.64 1.873-4.734 5.233-4.734.672 0 1.347.085 2.014.25.227.057.436.118.636.187zm-16.996 5.99c-.01-.318-.09-.838-.266-1.737-.09-.46-.595-2.937-.753-3.727-.39-1.96-.75-3.89-1.13-6.07-.732-4.223-.692-6.05.344-6.526.502-.23 1.06-.082 1.84.35.415.227 2.182 1.364 2.07 1.295 1.993 1.242 3.462 1.774 4.926 1.548 1.525-.24 2.504-.064 2.876.614.348.635.015 1.415-.728 2.18-1.474 1.517-3.977 2.513-5.847 2.017-.82-.22-1.236-.464-2.378-1.267l-.095-.065c.047.593.264 1.74.717 3.802.294 1.337 2.078 9.19 2.636 11.675l.003.013c.517 2.638-1.884 4.732-5.234 4.732-3.287 0-6.36-1.993-6.87-4.54-.52-2.64 1.884-4.73 5.24-4.73.905 0 1.803.15 2.65.436z"/></g></svg>