<?xml version="1.0" encoding="UTF-8" standalone="no"?>
<svg width="28px" height="28px" viewBox="0 0 28 28" version="1.1" xmlns="http://www.w3.org/2000/svg" xmlns:xlink="http://www.w3.org/1999/xlink">
    <!-- Generator: Sketch 43.2 (39069) - http://www.bohemiancoding.com/sketch -->
    <title>add sprite</title>
    <desc>Created with Sketch.</desc>
    <defs></defs>
    <g id="Page-1" stroke="none" stroke-width="1" fill="none" fill-rule="evenodd" stroke-linecap="round" stroke-linejoin="round">
        <g id="add-sprite" stroke="#4C97FF">
            <g transform="translate(5.000000, 6.000000)" id="+" stroke-width="2">
                <g>
                    <path d="M2.41866659,0 L2.41866659,4.83733317" id="Shape"></path>
                    <path d="M4.83733317,2.41866659 L0,2.41866659" id="Shape"></path>
                </g>
            </g>
            <path d="M17.5172226,17.2144537 C16.1470881,18.5731703 15.1375154,19.2704065 14.3442797,19.5385743 C14.1099146,18.8234602 13.7132967,18.1619798 13.1544261,17.6077664 C12.5775274,17.053553 11.9104883,16.6602403 11.1893649,16.4099504 C11.4778142,15.623325 12.1809095,14.6221654 13.5330159,13.2813266 C16.7780711,10.0454357 22.5470581,6.0944307 23.6467713,7.18497958 C24.7464844,8.27552846 20.7622778,13.9964406 17.5172226,17.2144537 Z M11.5351095,23.1670148 C10.9986076,23.6810598 10.306347,23.9463734 9.61408638,23.9795375 L9.61408638,23.9961196 L9.44102123,23.9961196 C4.80287524,24.1619406 2.778013,18.955162 4.37021237,19.5023712 C6.46430067,20.2154014 7.31405055,19.1873114 7.34693293,19.1541472 C8.50646943,18.0597287 10.375573,18.0597287 11.5351095,19.1541472 C12.694646,20.2651477 12.694646,22.0725963 11.5351095,23.1670148 Z" id="bursh-icon" stroke-width="0.5" fill="#4C97FF"></path>
        </g>
    </g>
</svg>