<?xml version="1.0" encoding="UTF-8"?>
<svg width="40px" height="40px" viewBox="0 0 40 40" version="1.1" xmlns="http://www.w3.org/2000/svg" xmlns:xlink="http://www.w3.org/1999/xlink">
    <!-- Generator: Sketch 53.2 (72643) - https://sketchapp.com -->
    <title>boost-block-icon</title>
    <desc>Created with Sketch.</desc>
    <g id="boost-block-icon" stroke="none" stroke-width="1" fill="none" fill-rule="evenodd">
        <g id="Extensions/Hardware/Boost-v2-Block">
            <rect id="Rectangle" stroke="#7C87A5" stroke-width="1" fill="#FFFFFF" fill-rule="evenodd" stroke-linecap="round" stroke-linejoin="round" x="1" y="12" width="38" height="16"></rect>
            <polygon id="Path-8" stroke="#E6E7E8" stroke-width="1" fill="#E6E7E8" fill-rule="evenodd" stroke-linecap="round" stroke-linejoin="round" points="16 12 16 14 17 14 17 13 19 13 19 14 20 14 20 12"></polygon>
            <path d="M14.5,12 L22,12" id="Line" stroke="#7C87A5" stroke-width="1" stroke-linecap="square"></path>
            <polygon id="Rectangle" stroke="#7C87A5" stroke-width="1" fill="#FFFFFF" fill-rule="evenodd" stroke-linecap="round" stroke-linejoin="round" points="1 16 20 16 20 22 24 22 24 26 20 26 20 28 1 28"></polygon>
            <rect id="Rectangle" stroke="#7C87A5" stroke-width="1" fill="#E6E7E8" fill-rule="evenodd" stroke-linecap="round" stroke-linejoin="round" x="1" y="26" width="38" height="2"></rect>
            <polygon id="Path-7" stroke="#7C87A5" stroke-width="1" fill="#E6E7E8" fill-rule="evenodd" stroke-linecap="round" stroke-linejoin="round" points="1 19 10 19 13 22 17 22 17 26 1 26"></polygon>
            <circle id="Oval" fill="#FF661A" fill-rule="evenodd" cx="4.5" cy="22.5" r="1.5"></circle>
            <circle id="Oval" fill="#7C87A5" fill-rule="evenodd" cx="22" cy="24" r="1"></circle>
            <rect id="Rectangle" stroke="#7C87A5" stroke-width="1" fill="#FFFFFF" fill-rule="evenodd" stroke-linecap="round" stroke-linejoin="round" x="29" y="22" width="10" height="4"></rect>
            <circle id="Oval" fill="#7C87A5" fill-rule="evenodd" cx="31" cy="24" r="1"></circle>
            <circle id="Oval" fill="#7C87A5" fill-rule="evenodd" cx="34" cy="24" r="1"></circle>
            <circle id="Oval" fill="#7C87A5" fill-rule="evenodd" cx="37" cy="24" r="1"></circle>
            <g id="pegs" stroke-width="1" fill-rule="evenodd" transform="translate(2.000000, 15.000000)" stroke="#7C87A5" stroke-linecap="round" stroke-linejoin="round">
                <path d="M1,1 L1,0.5" id="Line-3"></path>
                <path d="M3,1 L3,0.5" id="Line-3"></path>
                <path d="M5,1 L5,0.5" id="Line-3"></path>
                <path d="M7,1 L7,0.5" id="Line-3"></path>
                <path d="M9,1 L9,0.5" id="Line-3"></path>
                <path d="M11,1 L11,0.5" id="Line-3"></path>
            </g>
            <g id="pegs" stroke-width="1" fill-rule="evenodd" transform="translate(20.000000, 21.000000)" stroke="#7C87A5" stroke-linecap="round" stroke-linejoin="round">
                <path d="M1,1 L1,0.5" id="Line-3"></path>
                <path d="M3,1 L3,0.5" id="Line-3"></path>
            </g>
            <g id="pegs" stroke-width="1" fill-rule="evenodd" transform="translate(2.000000, 11.000000)" stroke="#7C87A5" stroke-linecap="round" stroke-linejoin="round">
                <path d="M1,1 L1,0.5" id="Line-3"></path>
                <path d="M3,1 L3,0.5" id="Line-3"></path>
                <path d="M5,1 L5,0.5" id="Line-3"></path>
                <path d="M7,1 L7,0.5" id="Line-3"></path>
                <path d="M9,1 L9,0.5" id="Line-3"></path>
                <path d="M11,1 L11,0.5" id="Line-3"></path>
            </g>
            <g id="pegs" stroke-width="1" fill-rule="evenodd" transform="translate(23.000000, 11.000000)" stroke="#7C87A5" stroke-linecap="round" stroke-linejoin="round">
                <path d="M5,1 L5,0.5" id="Line-3"></path>
                <path d="M3,1 L3,0.5" id="Line-3"></path>
                <path d="M1,1 L1,0.5" id="Line-3"></path>
                <path d="M7,1 L7,0.5" id="Line-3"></path>
                <path d="M9,1 L9,0.5" id="Line-3"></path>
                <path d="M11,1 L11,0.5" id="Line-3"></path>
                <path d="M13,1 L13,0.5" id="Line-3"></path>
                <path d="M15,1 L15,0.5" id="Line-3"></path>
            </g>
            <g id="Group" stroke-width="1" fill-rule="evenodd" transform="translate(30.000000, 21.000000)" stroke="#7C87A5" stroke-linecap="round" stroke-linejoin="round">
                <path d="M1,1 L1,0.5" id="Line-3"></path>
                <path d="M3,1 L3,0.5" id="Line-3"></path>
                <path d="M5,1 L5,0.5" id="Line-3"></path>
                <path d="M7,1 L7,0.5" id="Line-3"></path>
            </g>
        </g>
    </g>
</svg>