<?xml version="1.0" standalone="no"?><!DOCTYPE svg PUBLIC "-//W3C//DTD SVG 1.1//EN" "http://www.w3.org/Graphics/SVG/1.1/DTD/svg11.dtd"><svg class="icon" width="20px" height="20.00px" viewBox="0 0 1024 1024" version="1.1" xmlns="http://www.w3.org/2000/svg"><path d="M682.666667 341.333333V170.666667a85.333333 85.333333 0 0 0-85.333334-85.333334h-170.666666a85.333333 85.333333 0 0 0-85.333334 85.333334v170.666666a42.666667 42.666667 0 0 0-42.666666 42.666667v384a42.666667 42.666667 0 0 0 42.666666 42.666667h42.666667v85.333333a42.666667 42.666667 0 0 0 42.666667 42.666667h170.666666a42.666667 42.666667 0 0 0 42.666667-42.666667v-85.333333h42.666667a42.666667 42.666667 0 0 0 42.666666-42.666667V384a42.666667 42.666667 0 0 0-42.666666-42.666667z m-256-170.666666h170.666666v170.666666h-170.666666z" fill="#575E75"/></svg>
