<?xml version="1.0" encoding="UTF-8"?>
<svg width="20px" height="20px" viewBox="0 0 20 20" version="1.1" xmlns="http://www.w3.org/2000/svg" xmlns:xlink="http://www.w3.org/1999/xlink">
    <!-- Generator: Sketch 50.2 (55047) - http://www.bohemiancoding.com/sketch -->
    <title>search-sprite-library</title>
    <desc>Created with Sketch.</desc>
    <defs></defs>
    <g id="search-sprite-library" stroke="none" stroke-width="1" fill="none" fill-rule="evenodd">
        <path d="M9.08920325,5.28249422 C11.1744967,5.28249422 12.8944833,6.9872597 12.8944833,9.0877743 C12.8944833,11.1882889 11.1744967,12.8930544 9.08920325,12.8930544 C6.98868865,12.8930544 5.28392318,11.1882889 5.28392318,9.0877743 C5.28392318,6.9872597 6.98868865,5.28249422 9.08920325,5.28249422 M16.667799,15.0544535 L14.5459749,12.9311072 C14.3009148,12.684525 14.2674284,12.3116076 14.4348607,12.0056631 C15.2872434,10.4272329 15.4957728,8.41347867 14.5794613,6.43777725 C13.8473255,4.85630285 12.3997969,3.64470168 10.7117747,3.20937764 C6.25959699,2.06018306 2.30667205,5.81523343 3.10273664,10.2263141 C3.50457422,12.4485977 5.20325124,14.3192733 7.37530511,14.9342066 C9.05876101,15.4121498 10.6706777,15.1503465 11.9918709,14.4334317 C12.2978154,14.2659994 12.672255,14.2994859 12.9203592,14.5445459 L15.0558824,16.6678922 C15.2689781,16.896209 15.5581794,17.0027569 15.8626018,17.0027569 C16.1518031,17.0027569 16.4410044,16.896209 16.667799,16.6678922 C17.1107337,16.2264797 17.1107337,15.4958659 16.667799,15.0544535" id="search" fill="#FFFFFF"></path>
    </g>
</svg>