<svg version="1.1" xmlns="http://www.w3.org/2000/svg" xmlns:xlink="http://www.w3.org/1999/xlink" width="453.58105" height="339.14542" viewBox="0,0,453.58105,339.14542"><g transform="translate(-3.82096,-1.28768)"><g data-paper-data="{&quot;isPaintingLayer&quot;:true}" fill-rule="nonzero" stroke-linejoin="miter" stroke-miterlimit="10" stroke-dasharray="" stroke-dashoffset="0" style="mix-blend-mode: normal"><path d="M151.40202,81.94226c0,10.17727 -8.25031,18.42759 -18.42759,18.42759c-10.17728,0 -18.42758,-8.25031 -18.42758,-18.42759c0,-10.17727 8.25031,-18.42759 18.42758,-18.42759c10.17728,0 18.42759,8.25031 18.42759,18.42759z" fill="#000000" stroke="#000000" stroke-width="0" stroke-linecap="butt"/><path d="M150.11,80.16574c0,10.45342 -8.47417,18.92759 -18.92759,18.92759c-10.45342,0 -18.92759,-8.47417 -18.92759,-18.92759c0,-10.45342 8.47417,-18.92759 18.92759,-18.92759c10.45342,0 18.92759,8.47417 18.92759,18.92759z" fill="#ac83ff" stroke="#000000" stroke-width="0" stroke-linecap="butt"/><path d="M135.60486,158.54925l14.32795,-7.67569l-3.07028,-21.49192l17.39822,10.74596l7.16397,-11.76938l7.16397,11.76939l14.83966,-7.67568l-0.51172,15.35137l15.86309,5.62884l8.5314,3.45171l-19.72574,7.33393l8.5984,19.21996l-20.99022,-9.35709l-1.01158,14.41497l-8.3455,-14.41497l-14.16208,14.92075l-0.50579,-18.20838l-16.69102,8.09261l7.83972,-15.42655z" fill="#000000" stroke="#f3f08f" stroke-width="0" stroke-linecap="round"/><path d="M130.85777,153.54925l14.32795,-7.67569l-3.07028,-21.49192l17.39822,10.74596l7.16397,-11.76938l7.16397,11.76939l14.83966,-7.67569l-0.51172,15.35137l15.86309,5.62884l8.5314,3.45171l-19.72574,7.33393l8.5984,19.21996l-20.99022,-9.35709l-1.01158,14.41497l-8.3455,-14.41497l-14.16208,14.92075l-0.50579,-18.20838l-16.69102,8.09261l7.83972,-15.42655z" fill="#f3f08f" stroke="#f3f08f" stroke-width="0.5" stroke-linecap="round"/><g fill="#000000" stroke="none" stroke-width="0" stroke-linecap="butt"><path d="M205.68026,240.55048l12.09111,-30.27749l5.16652,2.34355c0,0 -1.25391,2.67795 -2.11553,4.83555c-2.03374,5.0927 -9.97558,25.44194 -9.97558,25.44194z"/><path d="M217.94432,210.15941l24.04307,9.07595l-1.76964,4.10689c0,0 -2.12929,-0.94814 -3.84262,-1.5949c-4.04407,-1.52658 -20.20045,-7.48104 -20.20045,-7.48104z"/><path d="M251.19347,191.96892l-10.65459,31.49393l-5.38944,-2.10355c0,0 1.13023,-2.79564 1.88949,-5.03992c1.79211,-5.29731 8.76511,-26.454 8.76511,-26.454z"/><path d="M275.23943,204.09497l-30.83675,-8.84898l1.78443,-5.28963c0,0 2.74562,0.96329 4.94308,1.59387c5.18677,1.48841 25.89367,7.25511 25.89367,7.25511z"/><path d="M287.72415,174.16786l-12.35728,29.0723l-4.9549,-2.38018c0,0 1.27168,-2.56743 2.15227,-4.63915c2.0785,-4.88999 10.20501,-24.43315 10.20501,-24.43315z"/></g><g fill="#79cae0" stroke="none" stroke-width="0" stroke-linecap="butt"><path d="M204.53741,237.05048l12.09111,-30.27749l5.16652,2.34355c0,0 -1.25391,2.67795 -2.11553,4.83555c-2.03374,5.0927 -9.97558,25.44194 -9.97558,25.44194z"/><path d="M216.80146,206.65941l24.04307,9.07595l-1.76964,4.10689c0,0 -2.12929,-0.94814 -3.84262,-1.5949c-4.04407,-1.52658 -20.20045,-7.48104 -20.20045,-7.48104z"/><path d="M250.05062,188.46892l-10.65459,31.49393l-5.38944,-2.10355c0,0 1.13023,-2.79564 1.88949,-5.03992c1.79211,-5.29731 8.76511,-26.454 8.76511,-26.454z"/><path d="M274.09657,200.59497l-30.83675,-8.84898l1.78444,-5.28963c0,0 2.74562,0.96329 4.94308,1.59387c5.18677,1.48841 25.89367,7.25511 25.89367,7.25511z"/><path d="M286.58128,170.66786l-12.35728,29.0723l-4.9549,-2.38018c0,0 1.27168,-2.56743 2.15227,-4.63915c2.0785,-4.88999 10.20501,-24.43315 10.20501,-24.43315z"/></g><path d="M261.402,102.17879c0,7.8375 -6.35355,14.19106 -14.19106,14.19106c-7.83751,0 -14.19105,-6.35355 -14.19105,-14.19106c0,-7.8375 6.35355,-14.19106 14.19105,-14.19106c7.83751,0 14.19106,6.35355 14.19106,14.19106z" fill="#000000" stroke="#000000" stroke-width="0" stroke-linecap="butt"/><path d="M259.63694,101.19574c0,7.83751 -6.35355,14.19106 -14.19106,14.19106c-7.83751,0 -14.19106,-6.35355 -14.19106,-14.19106c0,-7.83751 6.35355,-14.19106 14.19106,-14.19106c7.83751,0 14.19106,6.35355 14.19106,14.19106z" fill="#79cae0" stroke="#000000" stroke-width="0" stroke-linecap="butt"/><path d="M83.00001,250.50002v-49h50v49z" fill="#000000" stroke="none" stroke-width="0" stroke-linecap="butt"/><path d="M80.00001,247.50002v-49h50v49z" fill="#f79a96" stroke="none" stroke-width="0" stroke-linecap="butt"/><g stroke="none" stroke-width="0" stroke-linecap="round"><path d="M163.94596,39.50782l12.33918,-5.92173l-2.64411,-16.58084l14.98329,8.29042l6.16959,-9.07998l6.16959,9.07999l12.77987,-5.92172l-0.4407,11.84346l13.66125,4.3426l7.34722,2.66297l-16.98775,5.65807l7.40492,14.82804l-18.07671,-7.21891l-0.87117,11.12103l-7.18712,-11.12103l-12.19634,11.51124l-0.43559,-14.04761l-14.37425,6.24338l6.75154,-11.90145z" fill="#000000"/><path d="M159.85777,35.65037l12.33919,-5.92174l-2.64411,-16.58084l14.98329,8.29042l6.16959,-9.07998l6.16959,9.07999l12.77987,-5.92173l-0.4407,11.84346l13.66125,4.3426l7.34721,2.66297l-16.98774,5.65807l7.40491,14.82805l-18.07671,-7.21892l-0.87117,11.12104l-7.18712,-11.12104l-12.19634,11.51124l-0.43559,-14.04762l-14.37426,6.24338l6.75154,-11.90146z" fill="#f79a96"/></g><g stroke="none" stroke-width="0" stroke-linecap="round"><path d="M121.94596,296.00783l12.33919,-5.92174l-2.64411,-16.58084l14.98329,8.29042l6.16959,-9.07998l6.16959,9.07999l12.77987,-5.92172l-0.4407,11.84346l13.66125,4.3426l7.34722,2.66296l-16.98775,5.65807l7.40492,14.82804l-18.07671,-7.21891l-0.87117,11.12103l-7.18712,-11.12103l-12.19634,11.51124l-0.43559,-14.04762l-14.37425,6.24338l6.75154,-11.90145z" fill="#000000"/><path d="M117.85777,292.15037l12.33919,-5.92174l-2.64412,-16.58084l14.98329,8.29042l6.16959,-9.07998l6.16959,9.07999l12.77987,-5.92173l-0.4407,11.84346l13.66125,4.3426l7.34721,2.66296l-16.98774,5.65807l7.40491,14.82804l-18.07671,-7.21892l-0.87117,11.12103l-7.18712,-11.12103l-12.19634,11.51124l-0.43559,-14.04762l-14.37426,6.24338l6.75154,-11.90146z" fill="#9966ff"/></g><g stroke="#000000" stroke-linecap="butt"><path d="M7.28583,115.49879l26.60905,-33.77302l17.20363,-19.95678l27.12076,70.6163z" fill="#000000" stroke-width="0.5"/><path d="M3.82097,111.5222l26.60904,-33.77302l17.20363,-19.95678l27.12076,70.61631z" fill="#f79a96" stroke-width="0"/></g><g stroke="#000000" stroke-linecap="butt"><path d="M232.28583,278.49879l26.60905,-33.77302l17.20363,-19.95678l27.12076,70.6163z" fill="#000000" stroke-width="0.5"/><path d="M228.82097,274.5222l26.60904,-33.77302l17.20363,-19.95678l27.12076,70.61631z" fill="#ac83ff" stroke-width="0"/></g><path d="M365.40202,159.94225c0,10.17727 -8.25031,18.42759 -18.42759,18.42759c-10.17728,0 -18.42758,-8.25031 -18.42758,-18.42759c0,-10.17727 8.25031,-18.42759 18.42758,-18.42759c10.17728,0 18.42759,8.25031 18.42759,18.42759z" fill="#000000" stroke="#000000" stroke-width="0" stroke-linecap="butt"/><path d="M363.11,158.66573c0,10.17728 -8.25031,18.42759 -18.42759,18.42759c-10.17728,0 -18.42759,-8.25031 -18.42759,-18.42759c0,-10.17728 8.25031,-18.42759 18.42759,-18.42759c10.17728,0 18.42759,8.25031 18.42759,18.42759z" fill="#f79a96" stroke="#000000" stroke-width="0" stroke-linecap="butt"/><g stroke="none" stroke-width="0" stroke-linecap="butt"><g fill="#000000"><path d="M256.18026,73.55048l12.09111,-30.27749l5.16652,2.34354c0,0 -1.2539,2.67795 -2.11552,4.83555c-2.03373,5.0927 -9.97558,25.44194 -9.97558,25.44194z"/><path d="M268.44431,43.15941l24.04307,9.07594l-1.76964,4.10689c0,0 -2.1293,-0.94814 -3.84262,-1.5949c-4.04407,-1.52658 -20.20045,-7.48105 -20.20045,-7.48105z"/><path d="M301.69347,24.96893l-10.6546,31.49394l-5.38944,-2.10355c0,0 1.13023,-2.79564 1.88948,-5.03993c1.79211,-5.29731 8.76511,-26.454 8.76511,-26.454z"/><path d="M325.73943,37.09497l-30.83675,-8.84898l1.78443,-5.28963c0,0 2.74562,0.96329 4.94308,1.59388c5.18677,1.48841 25.89367,7.25511 25.89367,7.25511z"/><path d="M338.22415,7.16786l-12.35728,29.0723l-4.9549,-2.38018c0,0 1.27168,-2.56742 2.15227,-4.63914c2.0785,-4.88999 10.20501,-24.43315 10.20501,-24.43315z"/></g><g fill="#f3f08f"><path d="M255.03741,70.05048l12.09111,-30.27749l5.16652,2.34354c0,0 -1.2539,2.67795 -2.11552,4.83555c-2.03373,5.0927 -9.97558,25.44194 -9.97558,25.44194z"/><path d="M267.30145,39.65941l24.04307,9.07594l-1.76964,4.10689c0,0 -2.1293,-0.94814 -3.84262,-1.5949c-4.04407,-1.52658 -20.20045,-7.48105 -20.20045,-7.48105z"/><path d="M300.55062,21.46893l-10.6546,31.49394l-5.38944,-2.10355c0,0 1.13023,-2.79564 1.88948,-5.03993c1.79211,-5.29731 8.76511,-26.454 8.76511,-26.454z"/><path d="M324.59657,33.59497l-30.83675,-8.84898l1.78443,-5.28963c0,0 2.74562,0.96329 4.94308,1.59388c5.18677,1.48841 25.89367,7.25511 25.89367,7.25511z"/><path d="M337.08129,3.66786l-12.35728,29.0723l-4.9549,-2.38018c0,0 1.27168,-2.56742 2.15227,-4.63914c2.0785,-4.88999 10.20501,-24.43315 10.20501,-24.43315z"/></g></g><path d="M226.03774,338.50002v-33.28302h33.96226v33.28302z" fill="#000000" stroke="none" stroke-width="0" stroke-linecap="butt"/><path d="M224,336.46228v-33.28302h33.96226v33.28302z" fill="#79cae0" stroke="none" stroke-width="0" stroke-linecap="butt"/><path d="M50.40202,223.94226c0,10.17727 -8.25031,18.42759 -18.42759,18.42759c-10.17728,0 -18.42758,-8.25031 -18.42758,-18.42759c0,-10.17727 8.25031,-18.42759 18.42758,-18.42759c10.17728,0 18.42759,8.25031 18.42759,18.42759z" fill="#000000" stroke="#000000" stroke-width="0" stroke-linecap="butt"/><path d="M49.11,222.16573c0,10.45342 -8.47417,18.92759 -18.92759,18.92759c-10.45342,0 -18.92759,-8.47417 -18.92759,-18.92759c0,-10.45342 8.47417,-18.92759 18.92759,-18.92759c10.45342,0 18.92759,8.47417 18.92759,18.92759z" fill="#f3f08f" stroke="#000000" stroke-width="0" stroke-linecap="butt"/><g stroke="#000000" stroke-linecap="butt"><path d="M34.87179,340.05827l2.68936,-42.91184l2.8068,-26.19847l62.45865,42.67452z" fill="#000000" stroke-width="0.5"/><path d="M29.76057,338.75676l2.68935,-42.91183l2.8068,-26.19847l62.45866,42.67453z" fill="#79cae0" stroke-width="0"/></g><g stroke="none" stroke-width="0" stroke-linecap="round"><path d="M332.94596,89.00783l12.33919,-5.92174l-2.64411,-16.58084l14.98329,8.29042l6.16958,-9.07998l6.16959,9.07999l12.77987,-5.92173l-0.4407,11.84346l13.66125,4.3426l7.34722,2.66297l-16.98775,5.65807l7.40492,14.82804l-18.07671,-7.21891l-0.87117,11.12103l-7.18712,-11.12103l-12.19634,11.51124l-0.43559,-14.04762l-14.37425,6.24338l6.75154,-11.90145z" fill="#000000"/><path d="M328.85776,85.15037l12.33918,-5.92174l-2.64411,-16.58084l14.98329,8.29042l6.16959,-9.07998l6.16959,9.07999l12.77987,-5.92174l-0.4407,11.84346l13.66125,4.3426l7.34722,2.66297l-16.98775,5.65807l7.40492,14.82804l-18.07672,-7.21892l-0.87116,11.12104l-7.18712,-11.12104l-12.19634,11.51124l-0.43559,-14.04762l-14.37426,6.24339l6.75155,-11.90146z" fill="#ac83ff"/></g><g stroke="none" stroke-width="0" stroke-linecap="butt"><g fill="#000000"><path d="M319.18026,305.55048l12.09111,-30.27749l5.16652,2.34355c0,0 -1.2539,2.67795 -2.11552,4.83555c-2.03373,5.0927 -9.97558,25.44194 -9.97558,25.44194z"/><path d="M331.44431,275.15941l24.04307,9.07594l-1.76964,4.10689c0,0 -2.1293,-0.94814 -3.84262,-1.5949c-4.04407,-1.52658 -20.20045,-7.48104 -20.20045,-7.48104z"/><path d="M364.69347,256.96893l-10.6546,31.49394l-5.38944,-2.10355c0,0 1.13023,-2.79564 1.88948,-5.03992c1.79211,-5.29731 8.76511,-26.454 8.76511,-26.454z"/><path d="M388.73943,269.09497l-30.83675,-8.84898l1.78443,-5.28963c0,0 2.74562,0.96329 4.94308,1.59387c5.18677,1.48841 25.89367,7.25511 25.89367,7.25511z"/><path d="M401.22415,239.16785l-12.35728,29.0723l-4.9549,-2.38018c0,0 1.27168,-2.56743 2.15227,-4.63915c2.0785,-4.88999 10.20501,-24.43315 10.20501,-24.43315z"/></g><g fill="#f3f08f"><path d="M318.0374,302.05048l12.09111,-30.27749l5.16652,2.34355c0,0 -1.2539,2.67795 -2.11552,4.83555c-2.03373,5.0927 -9.97558,25.44194 -9.97558,25.44194z"/><path d="M330.30145,271.65941l24.04307,9.07594l-1.76964,4.10689c0,0 -2.1293,-0.94814 -3.84262,-1.5949c-4.04407,-1.52658 -20.20045,-7.48104 -20.20045,-7.48104z"/><path d="M363.55062,253.46893l-10.6546,31.49394l-5.38944,-2.10355c0,0 1.13023,-2.79564 1.88948,-5.03992c1.79211,-5.29731 8.76511,-26.454 8.76511,-26.454z"/><path d="M387.59657,265.59497l-30.83675,-8.84898l1.78443,-5.28963c0,0 2.74562,0.96329 4.94308,1.59387c5.18677,1.48841 25.89367,7.25511 25.89367,7.25511z"/><path d="M400.08129,235.66785l-12.35728,29.0723l-4.9549,-2.38018c0,0 1.27168,-2.56743 2.15227,-4.63915c2.0785,-4.88999 10.20501,-24.43315 10.20501,-24.43315z"/></g></g><g stroke="#000000" stroke-linecap="butt"><path d="M387.68447,197.52988l4.93645,-34.20929l3.95263,-20.82389l47.58446,37.45984z" fill="#000000" stroke-width="0.5"/><path d="M383.6491,196.21809l4.93645,-34.20929l3.95263,-20.82389l47.58447,37.45984z" fill="#f3f08f" stroke-width="0"/></g><path d="M457.40202,321.94226c0,10.17727 -8.25031,18.42759 -18.42759,18.42759c-10.17728,0 -18.42758,-8.25031 -18.42758,-18.42759c0,-10.17727 8.25031,-18.42759 18.42758,-18.42759c10.17728,0 18.42759,8.25031 18.42759,18.42759z" fill="#000000" stroke="#000000" stroke-width="0" stroke-linecap="butt"/><path d="M455.11,320.66571c0,10.17728 -8.25031,18.42759 -18.42759,18.42759c-10.17728,0 -18.42759,-8.25031 -18.42759,-18.42759c0,-10.17728 8.25031,-18.42759 18.42759,-18.42759c10.17728,0 18.42759,8.25031 18.42759,18.42759z" fill="#9966ff" stroke="#000000" stroke-width="0" stroke-linecap="butt"/></g></g></svg>