<?xml version="1.0" encoding="UTF-8"?>
<svg width="20px" height="20px" viewBox="0 0 20 20" version="1.1" xmlns="http://www.w3.org/2000/svg" xmlns:xlink="http://www.w3.org/1999/xlink">
    <!-- Generator: Sketch 50.2 (55047) - http://www.bohemiancoding.com/sketch -->
    <title>ev3-menu-icon</title>
    <desc>Created with Sketch.</desc>
    <defs></defs>
    <g id="ev3-menu-icon" stroke="none" stroke-width="1" fill="none" fill-rule="evenodd">
        <g id="ev3" transform="translate(2.500000, 1.500000)" fill-rule="nonzero">
            <rect id="Rectangle-path" stroke="#7C87A5" stroke-width="0.5" fill="#FFFFFF" stroke-linecap="round" stroke-linejoin="round" x="0.25862069" y="1.84939394" width="14.4827586" height="13.2960606" rx="0.5"></rect>
            <rect id="Rectangle-path" stroke="#7C87A5" stroke-width="0.5" fill="#E6E7E8" stroke-linecap="round" stroke-linejoin="round" x="1.29310345" y="0.257575758" width="12.4137931" height="16.4848485" rx="0.5"></rect>
            <rect id="Rectangle-path" stroke="#7C87A5" stroke-width="0.5" fill="#FFFFFF" stroke-linecap="round" stroke-linejoin="round" x="1.29310345" y="7.46969697" width="12.4137931" height="6.6969697"></rect>
            <path d="M7.5,5.40909091 L7.5,7.46969697" id="Shape" stroke="#7C87A5" stroke-width="0.5" fill="#E6E7E8" stroke-linecap="round" stroke-linejoin="round"></path>
            <rect id="Rectangle-path" fill="#414757" x="2.32758621" y="1.28787879" width="10.3448276" height="5.15151515" rx="0.5"></rect>
            <rect id="Rectangle-path" fill="#7C87A5" opacity="0.5" x="6.98275862" y="10.37" width="1.03448276" height="1.03030303" rx="0.25"></rect>
            <path d="M4.6862069,10.37 L5.46206897,10.37 C5.60490123,10.37 5.72068966,10.4853206 5.72068966,10.6275758 L5.72068966,11.1427273 C5.72068966,11.2849824 5.60490123,11.400303 5.46206897,11.400303 L4.6862069,11.400303 C4.40054237,11.400303 4.16896552,11.1696618 4.16896552,10.8851515 C4.16896552,10.6006412 4.40054237,10.37 4.6862069,10.37 Z" id="Shape" fill="#7C87A5" opacity="0.5"></path>
            <path d="M9.78103448,10.37 L10.562069,10.37 C10.7049012,10.37 10.8206897,10.4853206 10.8206897,10.6275758 L10.8206897,11.1427273 C10.8206897,11.2849824 10.7049012,11.400303 10.562069,11.400303 L9.7862069,11.400303 C9.50054237,11.400303 9.26896552,11.1696618 9.26896552,10.8851515 C9.26895133,10.6026409 9.49739196,10.3728251 9.78103448,10.37 Z" id="Shape" fill="#7C87A5" opacity="0.5" transform="translate(10.044828, 10.885152) rotate(-180.000000) translate(-10.044828, -10.885152) "></path>
            <path d="M4.25689655,9.01515152 L2.5862069,9.01515152 C2.44337463,9.01515152 2.32758621,8.89983092 2.32758621,8.75757576 L2.32758621,7.46969697 L5.43103448,7.46969697 L4.47413793,8.90181818 C4.42482911,8.97286182 4.3436121,9.01523217 4.25689655,9.01515152 Z" id="Shape" fill="#7C87A5" opacity="0.5"></path>
            <path d="M9.38793103,9.71060606 L9.12931034,9.96818182 C9.07879738,10.016645 9.05070717,10.0837891 9.05172414,10.1536364 L9.05172414,10.3030303 C9.05172414,10.4452855 8.93593571,10.5606061 8.79310345,10.5606061 L8.53448276,10.5606061 C8.3916505,10.5606061 8.27586207,10.4452855 8.27586207,10.3030303 C8.27586207,10.1607751 8.16007364,10.0454545 8.01724138,10.0454545 L6.98275862,10.0454545 C6.83992636,10.0454545 6.72413793,10.1607751 6.72413793,10.3030303 C6.72413793,10.4452855 6.6083495,10.5606061 6.46551724,10.5606061 L6.20689655,10.5606061 C6.06406429,10.5606061 5.94827586,10.4452855 5.94827586,10.3030303 L5.94827586,10.1536364 C5.94929283,10.0837891 5.92120262,10.016645 5.87068966,9.96818182 L5.61206897,9.71060606 C5.51287071,9.60870205 5.51287071,9.4467525 5.61206897,9.34484848 L6.39310345,8.57727273 C6.43980017,8.52723176 6.50554973,8.49916723 6.57413793,8.5 L8.42586207,8.5 C8.49445027,8.49916723 8.56019983,8.52723176 8.60689655,8.57727273 L9.38793103,9.34484848 C9.48712929,9.4467525 9.48712929,9.60870205 9.38793103,9.71060606 Z" id="Shape" fill="#7C87A5" opacity="0.5"></path>
            <path d="M5.61206897,12.080303 L5.87068966,11.8227273 C5.92120262,11.7742641 5.94929283,11.70712 5.94827586,11.6372727 L5.94827586,11.4878788 C5.94827586,11.3456236 6.06406429,11.230303 6.20689655,11.230303 L6.46551724,11.230303 C6.6083495,11.230303 6.72413793,11.3456236 6.72413793,11.4878788 C6.72413793,11.630134 6.83992636,11.7454545 6.98275862,11.7454545 L8.01724138,11.7454545 C8.16007364,11.7454545 8.27586207,11.630134 8.27586207,11.4878788 C8.27586207,11.3456236 8.3916505,11.230303 8.53448276,11.230303 L8.79310345,11.230303 C8.93593571,11.230303 9.05172414,11.3456236 9.05172414,11.4878788 L9.05172414,11.6372727 C9.05070717,11.70712 9.07879738,11.7742641 9.12931034,11.8227273 L9.38793103,12.080303 C9.48650247,12.1804597 9.48650247,12.3407524 9.38793103,12.4409091 L8.60689655,13.2136364 C8.56019983,13.2636773 8.49445027,13.2917419 8.42586207,13.2909091 L6.57413793,13.2909091 C6.50554973,13.2917419 6.43980017,13.2636773 6.39310345,13.2136364 L5.61206897,12.4409091 C5.51349753,12.3407524 5.51349753,12.1804597 5.61206897,12.080303 Z" id="Shape" fill="#7C87A5" opacity="0.5"></path>
            <path d="M11.1206897,14.1666667 L13.7068966,14.1666667 L13.7068966,16.2272727 C13.7068966,16.5117831 13.4753197,16.7424242 13.1896552,16.7424242 L11.1206897,16.7424242 L11.1206897,14.1666667 Z" id="Shape" stroke="#CC4C23" stroke-width="0.5" fill="#F15A29" stroke-linecap="round" stroke-linejoin="round"></path>
        </g>
    </g>
</svg>