<svg width="20" height="20" viewBox="0 0 20 20" fill="none" xmlns="http://www.w3.org/2000/svg">
<path fill-rule="evenodd" clip-rule="evenodd" d="M4.98116 1H15.0196C16.4042 1 17.6158 2.21154 17.6158 3.59615V10.8654H13.635C11.385 10.8654 9.65424 12.7692 9.65424 14.8462V18.8269H4.98116C3.59655 18.8269 2.38501 17.6154 2.38501 16.2308V3.59615C2.38501 2.21154 3.59655 1 4.98116 1ZM6.01963 9.82692H8.78886C9.48116 9.82692 10.0004 9.48077 10.0004 8.78846C10.0004 8.09615 9.48116 7.75 8.96193 7.75H6.01963C5.50039 7.75 4.98116 8.26923 4.98116 8.78846C4.98116 9.30769 5.50039 9.82692 6.01963 9.82692ZM14.1542 5.84615H6.01963C5.32732 5.84615 4.98116 5.32692 4.98116 4.80769C4.98116 4.28846 5.50039 3.76923 6.01963 3.76923H14.1542C14.6735 3.76923 15.1927 4.28846 15.1927 4.80769C15.0196 5.32692 14.6735 5.84615 14.1542 5.84615ZM17.4427 12.25H13.4619C12.0773 12.25 10.8658 13.4615 10.8658 15.0192V19L17.4427 12.25Z" fill="white"/>
</svg>
