<svg width="20" height="20" viewBox="0 0 20 20" fill="none" xmlns="http://www.w3.org/2000/svg">
<path fill-rule="evenodd" clip-rule="evenodd" d="M8.27206 2.68377C8.40818 2.27543 8.79032 2 9.22075 2H10.7792C11.2097 2 11.5918 2.27543 11.7279 2.68377L12.3219 4.4658C12.7914 4.663 13.2304 4.91818 13.6302 5.22238L15.4721 4.84547C15.8938 4.75917 16.3234 4.9524 16.5386 5.32516L17.3178 6.67485C17.533 7.04761 17.4856 7.51627 17.2 7.83832L15.9529 9.24468C15.984 9.49208 16 9.74417 16 10C16 10.2558 15.984 10.5079 15.9529 10.7553L17.2 12.1617C17.4856 12.4837 17.533 12.9524 17.3178 13.3252L16.5386 14.6748C16.3234 15.0476 15.8938 15.2408 15.4721 15.1545L13.6302 14.7776C13.2304 15.0818 12.7914 15.337 12.3219 15.5342L11.7279 17.3162C11.5918 17.7246 11.2097 18 10.7792 18H9.22075C8.79032 18 8.40818 17.7246 8.27206 17.3162L7.67805 15.5342C7.20862 15.337 6.76955 15.0818 6.36982 14.7776L4.52792 15.1545C4.10623 15.2408 3.67663 15.0476 3.46141 14.6748L2.68217 13.3252C2.46696 12.9524 2.51442 12.4837 2.8 12.1617L4.04708 10.7553C4.016 10.5079 3.99999 10.2558 3.99999 10C3.99999 9.74416 4.016 9.49207 4.04707 9.24466L2.8 7.83832C2.51442 7.51627 2.46696 7.04761 2.68217 6.67485L3.46141 5.32516C3.67663 4.9524 4.10623 4.75917 4.52792 4.84547L6.3698 5.22238C6.76954 4.91818 7.20861 4.663 7.67805 4.4658L8.27206 2.68377ZM9.99999 8C8.89542 8 7.99999 8.89543 7.99999 10C7.99999 11.1046 8.89542 12 9.99999 12C11.1046 12 12 11.1046 12 10C12 8.89543 11.1046 8 9.99999 8Z" fill="white"/>
</svg>
