<svg width="21" height="20" viewBox="0 0 21 20" fill="none" xmlns="http://www.w3.org/2000/svg">
<path fill-rule="evenodd" clip-rule="evenodd" d="M9.64469 14.507C9.55861 14.5931 9.46145 14.6484 9.34525 14.7008L7.37873 15.5266C7.30728 15.283 7.13034 14.9734 6.80329 14.6463C6.48721 14.3302 6.18853 14.1643 5.95378 14.0819L6.76975 12.1253C6.81217 11.9991 6.88828 11.9031 6.97347 11.8179C6.9933 11.818 7.01213 11.7992 7.022 11.7893L7.04979 11.7615C7.18251 11.6288 7.36896 11.548 7.58743 11.519C8.14278 11.4502 8.78656 11.7138 9.27215 12.1994C9.75773 12.685 10.0213 13.3288 9.94158 13.8731C9.90955 14.0527 9.85041 14.2375 9.75757 14.3742C9.72988 14.4219 9.69222 14.4595 9.65366 14.4981L9.64469 14.507ZM12.8686 5.94274C13.1752 5.63606 13.6458 5.57036 14.1274 5.71486C14.4066 5.79859 14.5232 6.1447 14.3322 6.3357L9.75179 10.9161C9.64239 11.0255 9.46488 11.0435 9.32122 10.9518C9.17277 10.859 9.01934 10.7791 8.86473 10.7123C8.61252 10.6036 8.52489 10.2864 8.70154 10.1098L12.8686 5.94274ZM15.5288 8.60299L11.3627 12.7691C11.1896 12.9422 10.8712 12.8677 10.7657 12.6223C10.6976 12.4591 10.6127 12.3007 10.5148 12.1472C10.4181 11.9967 10.4422 11.8091 10.556 11.6952L15.1257 7.1256C15.3149 6.93639 15.6609 7.05104 15.7465 7.33036C15.896 7.81701 15.8373 8.29452 15.5288 8.60299ZM17.3497 4.12182C16.1781 2.95023 14.4881 2.73979 13.5762 3.65174L6.22044 11.0075C6.0402 11.1877 5.8809 11.3889 5.78441 11.6349L4.23312 15.3599C4.03804 15.8302 4.18906 16.417 4.6218 16.8497C5.05454 17.2825 5.64137 17.4335 6.11165 17.2384L9.83661 15.6871C10.0817 15.5896 10.2828 15.4303 10.4631 15.2501L17.8188 7.89438C18.7308 6.98243 18.5213 5.29341 17.3497 4.12182Z" fill="white"/>
</svg>
