<svg xmlns="http://www.w3.org/2000/svg" viewBox="0 0 344.64 86.4"><defs><style>.cls-1{fill:#ffffff;}.cls-1,.cls-2{fill-rule:evenodd;}.cls-2{fill:#fc8d74;}</style></defs><title>lovot_logo</title><g id="レイヤー_2" data-name="レイヤー 2"><path class="cls-1" d="M75.11,27.4H333.35a43.2,43.2,0,0,1,0,86.4H75.11a43.2,43.2,0,0,1,0-86.4Z" transform="translate(-31.91 -27.4)"/></g><g id="レイヤー_1" data-name="レイヤー 1"><path class="cls-2" d="M103,73.48H83.78V53.32s-1.34-8.64-11.52-8.64-11.52,8.64-11.52,8.64v43.2H103s9.6-.77,9.6-11.52S103,73.48,103,73.48Zm39.84-28.8a25.44,25.44,0,1,0,25.44,25.44A25.44,25.44,0,0,0,142.82,44.68Zm123.84,0A25.44,25.44,0,1,0,292.1,70.12,25.44,25.44,0,0,0,266.66,44.68Zm-48.82,3.46L204.26,61.71,190,47.46s-7.06-5.16-14.25,2-2,14.26-2,14.26L204.26,94.3l29.87-29.87s6.24-7.33-1.36-14.94S217.84,48.14,217.84,48.14Zm88.66-3.46s-9.6.77-9.6,11.52,9.6,11.52,9.6,11.52h19.2V87.88s1.34,8.64,11.52,8.64,11.52-8.64,11.52-8.64V44.68Z" transform="translate(-31.91 -27.4)"/></g></svg>