<svg id="レイヤー_1" data-name="レイヤー 1" xmlns="http://www.w3.org/2000/svg" viewBox="0 0 344.64 86.4"><defs><style>.cls-1{fill:#fc8d74;}.cls-1,.cls-2{fill-rule:evenodd;}.cls-2{fill:#fff;}</style></defs><title>lovot_logo</title><path class="cls-1" d="M72.91,22.49h254.4a37.44,37.44,0,0,1,0,74.88H72.91a37.44,37.44,0,0,1,0-74.88Z" transform="translate(-27.23 -16.73)"/><path class="cls-2" d="M328.67,16.73H70.43a43.2,43.2,0,0,0,0,86.4H328.67a43.2,43.2,0,0,0,0-86.4ZM99.23,85.85H57V42.65S58.34,34,68.51,34,80,42.65,80,42.65V62.81h19.2s9.6.77,9.6,11.52S99.23,85.85,99.23,85.85Zm39.84-1a25.44,25.44,0,1,1,25.44-25.44A25.44,25.44,0,0,1,139.07,84.89Zm91.31-31.13L200.51,83.63,170,53.08s-5.16-7.06,2-14.25,14.26-2,14.26-2l14.25,14.26,13.58-13.58s7.33-6.25,14.93,1.36S230.38,53.76,230.38,53.76Zm32.53,31.13a25.44,25.44,0,1,1,25.44-25.44A25.44,25.44,0,0,1,262.91,84.89ZM345,77.21s-1.34,8.64-11.52,8.64S322,77.21,322,77.21V57.05h-19.2s-9.6-.77-9.6-11.52S302.75,34,302.75,34H345Z" transform="translate(-27.23 -16.73)"/></svg>