<?xml version="1.0" encoding="UTF-8" standalone="no"?>
<!-- Generator: Gravit.io -->
<svg xmlns="http://www.w3.org/2000/svg" viewBox="0 0 490 120" stroke-width="5" stroke="#fff" stroke-linecap="square">
  <path d=" M 30 30 L 30 90 L 70 90 L 70 70 L 50 70 L 60 70 L 60 50 L 50 50 L 70 50 L 70 30 L 30 30 Z M 80 90 L 80 30 L 120 30 L 120 70 L 100 70 L 100 90 L 80 90 Z M 100 40 L 100 60 M 130 30 L 130 50 L 140 50 L 140 70 L 130 70 L 130 90 L 170 90 L 170 70 L 160 70 L 160 50 L 170 50 L 170 30 L 130 30 Z M 180 30 L 180 90 L 220 90 L 220 70 L 200 70 L 200 50 L 220 50 L 220 30 L 180 30 Z M 230 30 L 230 90 L 240 90 L 260 110 L 260 80 L 260 90 L 270 90 L 270 30 L 230 30 Z M 250 50 L 250 70 M 280 30 L 280 90 L 320 90 L 320 30 L 310 30 L 310 60 L 290 60 L 290 30 L 280 30 Z M 330 30 L 330 90 L 370 90 L 370 70 L 350 70 L 360 70 L 360 50 L 350 50 L 370 50 L 370 30 L 330 30 Z M 390 30 L 390 70 L 400 70 L 380 70 L 380 90 L 420 90 L 420 50 L 410 50 L 430 50 L 430 30 L 390 30 Z M 440 30 L 440 60 L 460 60 L 460 30 L 440 30 Z M 440 70 L 440 90 L 460 90 L 460 70 L 440 70 Z " fill="#5cb1d6"/>
  <path d=" M 84.319 83.751 L 79.66 101.137 L 97.046 105.796 L 101.705 88.409 L 127.785 95.397 L 132.444 78.011 L 115.057 73.352 L 123.751 75.681 L 128.409 58.295 L 119.716 55.965 L 137.103 60.624 L 141.761 43.237 L 124.375 38.579 L 137.727 23.521 L 129.034 21.192 L 115.681 36.249 L 98.295 31.591 L 94.26 11.875 L 85.567 9.545 L 89.601 29.261 L 72.215 24.603 L 67.556 41.989 L 84.943 46.648 L 76.249 44.319 L 71.591 61.705 L 80.284 64.035 L 62.897 59.376 L 58.239 76.763 L 84.319 83.751 Z " fill="#ff6680"/>
</svg>
