<svg version="1.1" xmlns="http://www.w3.org/2000/svg" xmlns:xlink="http://www.w3.org/1999/xlink" viewBox="0 9 105 26"><g transform="translate(-207.00555,-157.00752)"><g data-paper-data="{&quot;isPaintingLayer&quot;:true}" fill-rule="nonzero" stroke-linecap="butt" stroke-linejoin="miter" stroke-miterlimit="10" stroke-dasharray="" stroke-dashoffset="0" style="mix-blend-mode: normal"><path d="M267.15,191.75c-0.8,0.1 -1.3,0.1 -1.5,0.2c-0.4,0.2 -1.3,0.4 -2.4,0.4c-1.4,0 -2.7,-0.5 -3.8,-1.3h-0.8c-0.3,0 -0.5,0 -0.8,-0.1c-1.1,0.4 -2.1,0.4 -2.7,0.4h-0.2c-1.4,0.1 -2.8,-0.2 -4,-0.8c-0.6,0.2 -1.1,0.3 -1.7,0.3l-3.7,0.1c-1.7,0 -3.2,-0.6 -4.4,-1.7c-0.5,0 -1,-0.1 -1.4,-0.2c-0.6,0.7 -1.4,1.3 -2.4,1.8c-1.9,0.9 -4,1 -6,0.2c-0.2,-0.1 -0.5,-0.2 -0.7,-0.3l-2.3,0.3h-0.7c-0.3,0.1 -0.5,0.3 -0.7,0.4c-1.5,0.7 -2.9,0.7 -3.5,0.7h-0.5c-1.7,0 -3.4,-0.5 -4.7,-1.4c-0.4,0.1 -0.9,0.2 -1.3,0.2c-0.9,0.6 -2,1 -3.2,1.1h-0.4c-3.3,0 -6,-2.5 -6.3,-5.8v-0.1c0,-0.5 -0.1,-1.6 0,-2.8c0,-0.6 0.1,-1.5 0.1,-1.7c0,-0.8 0.2,-1.6 0.5,-2.4c-0.2,-0.8 -0.1,-1.6 0,-2.4v-0.3c0.1,-0.7 0.3,-2.1 1,-3.5c1.3,-2.4 3.7,-3.9 6.4,-3.9c0.9,-0.5 1.8,-0.7 2.8,-0.7h0.3c2,0.1 3.8,1.1 4.9,2.7c0.9,-0.8 2,-1.3 3.2,-1.5c2.4,-0.3 4.4,-0.4 6.1,-0.1c0.9,-0.8 2.1,-1.4 3.3,-1.5l2.6,-0.4h0.8c1.5,0 3,0.6 4.2,1.6h0.2l3.8,-0.1c1.6,0 3,-0.1 3.3,-0.1h0.5c1.4,0 2.9,0.5 4,1.4c1.1,-0.8 2.4,-1.2 3.8,-1.2h1.3c1,-0.6 2.1,-1 3.3,-1l3.2,-0.1h0.1c3.4,0 6.2,2.8 6.3,6.2c0,1.6 -0.5,3 -1.5,4.2v2.9c0.9,1 1.4,2.3 1.5,3.7c0.2,3.4 -2.4,6.3 -5.9,6.6z" fill="#ffffff" stroke="none" stroke-width="1"/><path d="M266.95,188.15c-1.3,0.1 -2.1,0.2 -2.3,0.3l-0.1,0.1c-0.3,0.1 -0.7,0.3 -1.2,0.3c-0.6,0 -1.3,-0.2 -1.8,-0.7c-0.2,-0.2 -0.4,-0.4 -0.5,-0.6h-2.3c-0.4,0 -0.8,-0.1 -1.1,-0.3c-0.1,0.1 -0.3,0.1 -0.4,0.2c-0.8,0.4 -1.5,0.4 -2,0.4h-0.5c-1.5,0 -2.7,-0.5 -3.5,-1.4c-0.5,0.5 -1.2,0.8 -1.9,0.8l-3.7,0.1c-1.3,0 -2.5,-1 -2.7,-2.2c-0.5,0.3 -1,0.5 -1.6,0.5c-0.6,0 -1.2,-0.2 -1.7,-0.5c-0.1,-0.1 -0.2,-0.2 -0.3,-0.2c-0.3,0.2 -0.7,0.2 -1.1,0.2h-0.3c-0.4,1.2 -1.1,2 -2.2,2.5c-0.5,0.2 -1.1,0.4 -1.6,0.4c-0.5,0 -1.1,-0.1 -1.6,-0.3c-0.5,-0.2 -0.9,-0.5 -1.2,-0.8c-0.2,0.1 -0.4,0.1 -0.6,0.2l-2.9,0.4h-0.4c-0.3,0 -0.5,0 -0.8,-0.1c-0.4,0.4 -0.9,0.6 -1.3,0.8c-0.8,0.4 -1.5,0.4 -2,0.4h-0.5c-1.8,0 -3.2,-0.8 -4,-1.9c-0.8,0.5 -1.8,0.8 -2.7,0.8h-0.6c0,0.1 -0.1,0.1 -0.1,0.2c-0.5,0.5 -1.2,0.9 -1.9,0.9h-0.2c-1.4,0 -2.6,-1.1 -2.7,-2.6v-0.1c0,-0.5 -0.1,-1.4 0,-2.4c0,-0.7 0.1,-1.8 0.1,-1.8c0,-0.7 0.3,-1.3 0.7,-1.8c-0.4,-0.8 -0.5,-1.7 -0.3,-2.7v-0.2c0.1,-0.6 0.2,-1.5 0.6,-2.4c0.7,-1.3 2,-2 3.5,-2h0.7c0.5,-0.4 1.1,-0.7 1.8,-0.7c1.5,0 2.7,1.3 2.7,2.8v1.1c0.5,-0.2 1.1,-0.3 1.7,-0.3c0.3,0 0.5,0 0.8,0.1c0.4,-0.5 1,-0.8 1.6,-0.9c0.1,-0.2 0.2,-0.3 0.3,-0.5c0.4,-0.6 1.1,-1 1.8,-1.1c0.6,-0.1 1.8,-0.2 3.2,-0.2c1.6,0 2.9,0.2 3.9,0.7c0.3,-1.1 1.1,-1.9 2.3,-2.1l2.6,-0.4h0.4c0.8,0 1.5,0.3 2,0.9c0.2,0.2 0.5,0.6 0.6,0.9l0.1,0.3c0.5,-0.3 1,-0.5 1.6,-0.5l3.9,-0.1c1.9,0 3.6,-0.1 3.6,-0.2h0.2c0.7,0 1.5,0.3 2,0.8c0.4,0.4 0.7,0.9 0.8,1.5h0.2c0.3,0 0.5,0 0.8,0.1c0.4,-0.5 1,-0.8 1.6,-0.9c0.5,-0.7 1.4,-1.3 2.4,-1.3h2.6c0.5,-0.6 1.2,-1 2.1,-1h3.2c1.5,0 2.7,1.2 2.8,2.7c0,1.1 -0.6,2.1 -1.5,2.5v6.1c0.8,0.4 1.4,1.3 1.5,2.3c0.1,1.5 -1.1,2.8 -2.6,2.9z" fill="#00cccd" stroke="none" stroke-width="1"/><path d="M240.55,179.45l-2,0.3l0.7,-3.6z" fill="#00cccd" stroke="none" stroke-width="1"/><path d="M215.35,179.65c1.2,0.2 3.7,0.6 3.7,3.1c0,0.7 -0.4,1.5 -1,2c-0.7,0.6 -1.6,0.9 -2.5,0.7c-0.7,-0.1 -1.3,-0.4 -1.7,-0.7v1.1c0,0.3 -0.3,0.6 -0.6,0.6c-0.3,0 -0.6,-0.3 -0.6,-0.6c0,-0.1 -0.1,-1 0,-2.2c0.1,-0.7 0.1,-1.9 0.1,-1.9c0,-0.3 0.3,-0.6 0.6,-0.6c0.3,0 0.6,0.3 0.6,0.6v0.2c0,0.3 0.1,0.8 0.2,1.2c0.2,0.4 0.8,0.7 1,0.8c0.2,0 0.3,0.1 0.5,0.1c0.6,0.1 1.2,0 1.6,-0.4c0.4,-0.3 0.6,-0.7 0.6,-1.1c0,-1 -1.1,-1.3 -2.7,-1.6c-1.5,-0.3 -2.1,-1.5 -1.9,-3.4v-0.2c0.1,-1 0.3,-2.7 2.2,-2.4c0.7,0 1.3,0.5 1.8,1v-1.1c0,-0.3 0.3,-0.6 0.6,-0.6c0.3,0 0.6,0.3 0.6,0.6c0,0.1 -0.2,3.9 -0.2,3.9c-0.1,0.3 -0.4,0.6 -0.7,0.5c-0.3,-0.1 -0.5,-0.3 -0.5,-0.5v-0.4c-0.1,-0.3 -0.1,-0.6 -0.3,-1c-0.2,-0.6 -0.6,-0.9 -0.8,-1.1c-0.2,-0.2 -0.4,-0.3 -0.6,-0.3c-0.6,0 -0.7,0.3 -0.9,1.5v0.2c-0.2,1.4 0.2,1.9 0.9,2M232.15,177.95c0.3,-0.4 0.5,-0.8 0.5,-1v-0.2c-0.3,-0.5 -1.7,-0.6 -3.3,-0.6v2.8c0.6,-0.1 1.2,-0.2 1.6,-0.4l0.3,-0.1c0.1,0 0.4,-0.1 0.5,-0.2c0.2,-0.1 0.3,-0.2 0.4,-0.3M235.65,183.35c0.3,0.1 0.5,0.4 0.1,0.6c-0.2,0.9 -0.6,1.2 -1.1,1.5c-0.6,0.3 -1.1,0.1 -1.5,0c-0.5,-0.2 -0.8,-0.7 -0.9,-0.9c-0.2,-0.5 -0.3,-1.7 -0.3,-2c-0.1,-1.5 -0.3,-2.1 -0.5,-2.4c-0.1,-0.2 -0.3,-0.3 -0.5,-0.3h-0.2c-0.5,0.2 -1,0.3 -1.6,0.4v3.5l0.9,-0.1c0.3,-0.1 0.7,0.2 0.7,0.5c0.1,0.3 -0.2,0.7 -0.5,0.7l-2.9,0.4c-0.3,0.1 -0.7,-0.2 -0.7,-0.5c-0.1,-0.3 0.2,-0.7 0.5,-0.7l0.8,-0.1v-3.5h-0.3c-0.3,0 -0.6,-0.3 -0.6,-0.6c0,-0.3 0.3,-0.6 0.6,-0.6h0.3v-2.8c-0.3,0 -0.6,0.1 -0.9,0.1c-0.3,0.1 -0.7,-0.2 -0.7,-0.5c-0.1,-0.3 0.2,-0.7 0.5,-0.7c1.4,-0.2 5.7,-0.7 6.7,1c0.4,0.7 0.2,1.5 -0.5,2.5c0,0 -0.3,0.3 -0.6,0.5c0.5,0.5 0.9,1.5 0.9,3.3c0,0.5 0.1,1.3 0.2,1.5c0.1,0.1 0.2,0.3 0.2,0.3c0.3,0.1 0.5,0.2 0.6,0.1c0.1,-0.1 0.3,-0.1 0.5,-0.8c0.1,-0.3 0.5,-0.5 0.8,-0.4M257.45,181.45c0.3,0 0.6,0.2 0.6,0.4v1c-0.1,0.2 -0.2,0.9 -0.4,1.3c-0.2,0.3 -0.3,0.5 -0.5,0.7c-0.3,0.3 -0.6,0.5 -0.9,0.6c-0.4,0.2 -0.8,0.2 -1.2,0.2h-0.3c-2.2,0 -2.9,-1.8 -3,-2.7v-2.8c0.1,-1.5 0.6,-2.4 1.3,-2.9c0.9,-0.6 2.1,-0.1 2.4,0.1c0.3,0.2 0.6,0.3 0.8,0.5v-1.1c0,-0.3 0.3,-0.6 0.6,-0.6c0.3,0 0.6,0.3 0.6,0.6v2.7c0,0.3 -0.1,0.5 -0.4,0.6c-0.3,0 -0.6,-0.1 -0.7,-0.3c-0.1,0 -0.6,-0.9 -1.4,-1.2c-0.7,-0.2 -1.1,-0.3 -1.4,-0.1c-0.4,0.3 -0.6,1 -0.7,2v2.6c0,0.3 0.2,1.6 1.8,1.5h0.4c0.4,0 0.5,0 0.7,-0.1c0.2,-0.1 0.4,-0.2 0.5,-0.3c0.2,-0.2 0.3,-0.3 0.4,-0.5c0.1,-0.1 0.2,-0.5 0.2,-0.8v-0.8c0,-0.3 0.3,-0.6 0.6,-0.6M267.35,185.45c0,0.3 -0.2,0.6 -0.5,0.8c-1.4,0.1 -2.6,0.2 -2.9,0.4c-0.4,0.1 -0.7,0.2 -0.9,0c-0.3,-0.2 -0.3,-0.6 -0.1,-0.8c0.3,-0.4 0.9,-0.4 1.7,-0.6v-4.6l-3.6,0.6v3.1h1c0.3,0 0.6,0.3 0.6,0.6c0,0.3 -0.3,0.6 -0.6,0.6l-3.3,-0.1c-0.3,0 -0.6,-0.3 -0.6,-0.6c0,-0.3 0.3,-0.6 0.6,-0.6h1v-8.1h-1c-0.3,0 -0.6,-0.3 -0.6,-0.6c0,-0.3 0.3,-0.6 0.6,-0.6h3.2c0.3,0 0.6,0.3 0.6,0.6c0,0.3 -0.3,0.6 -0.6,0.6h-1v3.8l3.6,-0.6v-4.2h-1c-0.3,0 -0.6,-0.3 -0.6,-0.6c0,-0.3 0.3,-0.6 0.6,-0.6l3.2,-0.1c0.3,0 0.6,0.3 0.6,0.6c0,0.3 -0.3,0.6 -0.6,0.6h-0.9c0.1,6.8 0.1,8.9 0.1,9.9c0.3,-0.1 0.6,-0.1 0.8,-0.1c0.3,0 0.6,0.3 0.6,0.6" fill="#ffffff" stroke="none" stroke-width="1"/><path d="M240.55,179.45l-1.3,-3.3l-0.7,3.6zM243.85,180.75c0.3,-0.1 0.6,0.1 0.7,0.3c0.1,0.3 -0.1,0.7 -0.4,0.8c-1.1,0.4 -2.2,0.9 -2.5,1.3c-0.2,0.2 -0.6,0.3 -0.9,0.1c-0.2,-0.2 -0.3,-0.5 -0.1,-0.8c0.3,-0.3 0.5,-0.4 1,-0.7l-0.6,-1.5l-2.8,0.5l-0.1,0.9c0.4,0 0.6,0.3 0.6,0.6c0,0.4 -0.3,0.6 -0.6,0.6l-3,-0.1c-0.4,0 -0.6,-0.3 -0.6,-0.6c0,-0.4 0.3,-0.6 0.6,-0.6l1.8,0.1c0.3,-1.4 1.2,-5.9 1.4,-7c-0.8,0.1 -1.8,0.2 -1.8,0.2c-0.4,0.1 -0.7,-0.2 -0.7,-0.5c-0.1,-0.4 0.2,-0.7 0.5,-0.7l2.6,-0.3c0.2,0 0.4,0.1 0.5,0.2c0.1,0 0.2,0.2 0.2,0.3l2.3,5.5l0.8,1.9c0.6,-0.3 0.9,-0.4 1.1,-0.5" fill="#ffffff" stroke="none" stroke-width="1"/><path d="M251.05,174.65c0.2,0 0.4,0.1 0.4,0.3c0.2,0.2 0.2,0.3 0.2,0.5c-0.1,0.8 -0.1,2.2 -0.1,2.2c0,0.2 -0.1,0.5 -0.3,0.6c-0.3,0.2 -0.6,0.1 -0.8,-0.2c0,-0.1 -0.1,-0.3 -0.1,-0.9v-1.2c-0.6,0 -1.5,0.1 -2.5,0.1v7.9h1.2c0.3,0 0.6,0.3 0.6,0.6c0,0.3 -0.3,0.6 -0.6,0.6l-3.7,0.1c-0.3,0 -0.6,-0.3 -0.6,-0.6c0,-0.3 0.3,-0.6 0.6,-0.6h1.3v-7.9h-2.6c0.2,0.8 0.4,2.4 0.4,2.4c0,0.3 -0.2,0.6 -0.5,0.6c-0.3,0.1 -0.7,-0.2 -0.7,-0.5l-0.5,-3c-0.1,-0.2 0,-0.4 0.1,-0.5c0.2,-0.1 0.3,-0.2 0.5,-0.2l3.9,-0.1c2,-0.1 3.8,-0.2 3.8,-0.2M225.55,182.05c0.3,0 0.6,0.3 0.6,0.5v1c-0.1,0.2 -0.2,0.9 -0.4,1.3c-0.2,0.3 -0.3,0.5 -0.5,0.7c-0.3,0.3 -0.6,0.5 -0.9,0.6c-0.4,0.2 -0.8,0.2 -1.2,0.2h-0.3c-2.3,0 -3,-1.8 -3.1,-2.7v-2.8c0.1,-1.5 0.6,-2.4 1.3,-2.9c1,-0.5 2.1,-0.1 2.5,0.1c0.3,0.1 0.6,0.3 0.8,0.5v-1.1c0,-0.3 0.3,-0.6 0.6,-0.6c0.3,0 0.6,0.3 0.6,0.6v2.7c0,0.3 -0.1,0.5 -0.4,0.6c-0.3,0 -0.6,-0.1 -0.7,-0.3c0,0 -0.6,-0.9 -1.4,-1.2c-0.7,-0.2 -1.1,-0.3 -1.4,-0.1c-0.4,0.3 -0.6,1 -0.7,2v2.6c0,0.3 0.2,1.5 1.8,1.5h0.4c0.4,0 0.5,0 0.7,-0.1c0.2,-0.1 0.4,-0.2 0.5,-0.3c0.2,-0.2 0.3,-0.3 0.4,-0.5c0.1,-0.2 0.2,-0.6 0.2,-0.8v-0.9c0,-0.3 0.3,-0.6 0.6,-0.6" fill="#ffffff" stroke="none" stroke-width="1"/><g fill="#ffffff" font-family="Sans Serif" font-weight="normal" font-size="40" text-anchor="start"><text transform="translate(276.34327,181.75752) scale(0.5,0.5)" font-size="40" xml:space="preserve" fill="#ffffff" fill-rule="nonzero" stroke="#ffffff" stroke-width="13" stroke-linecap="butt" stroke-linejoin="miter" stroke-miterlimit="10" stroke-dasharray="" stroke-dashoffset="0" font-family="Sans Serif" font-weight="normal" text-anchor="start" style="mix-blend-mode: normal"><tspan x="0" dy="0">+</tspan></text><text transform="translate(276.33128,181.75752) scale(0.5,0.5)" font-size="40" xml:space="preserve" fill="#ffffff" fill-rule="nonzero" stroke="#00cccd" stroke-width="6" stroke-linecap="butt" stroke-linejoin="miter" stroke-miterlimit="10" stroke-dasharray="" stroke-dashoffset="0" font-family="Sans Serif" font-weight="normal" text-anchor="start" style="mix-blend-mode: normal"><tspan x="0" dy="0">+</tspan></text><text transform="translate(276.33128,181.63356) scale(0.5,0.5)" font-size="40" xml:space="preserve" fill="#ffffff" fill-rule="nonzero" stroke="#00cccd" stroke-width="0" stroke-linecap="butt" stroke-linejoin="miter" stroke-miterlimit="10" stroke-dasharray="" stroke-dashoffset="0" font-family="Sans Serif" font-weight="normal" text-anchor="start" style="mix-blend-mode: normal"><tspan x="0" dy="0">+</tspan></text></g><g fill="#ffffff" font-family="Sans Serif" font-weight="normal" font-size="40" text-anchor="start"><text transform="translate(293.10715,181.75752) scale(0.5,0.5)" font-size="40" xml:space="preserve" fill="#ffffff" fill-rule="nonzero" stroke="#ffffff" stroke-width="13" stroke-linecap="butt" stroke-linejoin="miter" stroke-miterlimit="10" stroke-dasharray="" stroke-dashoffset="0" font-family="Sans Serif" font-weight="normal" text-anchor="start" style="mix-blend-mode: normal"><tspan x="0" dy="0">+</tspan></text><text transform="translate(293.09516,181.75752) scale(0.5,0.5)" font-size="40" xml:space="preserve" fill="#ffffff" fill-rule="nonzero" stroke="#00cccd" stroke-width="6" stroke-linecap="butt" stroke-linejoin="miter" stroke-miterlimit="10" stroke-dasharray="" stroke-dashoffset="0" font-family="Sans Serif" font-weight="normal" text-anchor="start" style="mix-blend-mode: normal"><tspan x="0" dy="0">+</tspan></text><text transform="translate(293.09516,181.63356) scale(0.5,0.5)" font-size="40" xml:space="preserve" fill="#ffffff" fill-rule="nonzero" stroke="#00cccd" stroke-width="0" stroke-linecap="butt" stroke-linejoin="miter" stroke-miterlimit="10" stroke-dasharray="" stroke-dashoffset="0" font-family="Sans Serif" font-weight="normal" text-anchor="start" style="mix-blend-mode: normal"><tspan x="0" dy="0">+</tspan></text></g></g></g></svg>