<svg xmlns="http://www.w3.org/2000/svg" width="14.5" height="14.6" viewBox="0 0 14.5 14.6">
  <path fill="#4C97FF" d="M10.4 9.2l-.8-.1-.2-.2c.5-.5.8-1 1-1.6.2-.6.3-1.2.3-1.9 0-1-.2-1.9-.7-2.7-.4-.9-1.1-1.5-1.9-2C7.3.2 6.3 0 5.4 0c-.9 0-1.9.2-2.7.7-.9.5-1.5 1.2-2 2S0 4.4 0 5.4s.2 1.9.7 2.8c.5.8 1.2 1.4 2 1.9s1.7.7 2.7.7c.7 0 1.3-.1 1.9-.3.6-.3 1.1-.6 1.6-1l.2.3v.6l4.1 4.2 1.3-1.3-4.1-4.1zM8.7 7.3c-.4.6-.8 1.1-1.4 1.4-.6.3-1.2.5-1.9.5-.6 0-1.3-.2-1.8-.5-.6-.4-1.1-.8-1.4-1.4-.3-.6-.5-1.2-.5-1.9s.2-1.4.5-1.9.8-1 1.4-1.3c.5-.4 1.1-.5 1.8-.5s1.3.1 1.9.5c.6.3 1 .8 1.4 1.3.3.6.5 1.2.5 1.9S9 6.7 8.7 7.3z"/>
</svg>
