<?xml version="1.0" encoding="UTF-8" standalone="no"?>
<svg width="20px" height="20px" viewBox="0 0 20 20" version="1.1" xmlns="http://www.w3.org/2000/svg" xmlns:xlink="http://www.w3.org/1999/xlink">
    <!-- Generator: Sketch 43.2 (39069) - http://www.bohemiancoding.com/sketch -->
    <title>eraser</title>
    <desc>Created with Sketch.</desc>
    <defs></defs>
    <g id="Page-1" stroke="none" stroke-width="1" fill="none" fill-rule="evenodd">
        <g id="eraser" fill="#575E75">
            <path d="M13.5370061,14.8291597 L10.9660545,14.8291597 L8.3016138,12.164719 L11.1686144,9.29771842 L15.1263216,13.2554257 L13.5370061,14.8291597 Z M16.7779633,12.6944908 L11.1686144,7.10072343 L8.3016138,4.23372287 C8.00556483,3.92209238 7.50695604,3.92209238 7.19532554,4.23372287 L3.22203673,8.20701169 C2.92598776,8.50306066 2.92598776,9.00166945 3.22203673,9.29771842 L6.10461881,12.164719 L10.0934891,16.1535893 C10.2337229,16.3094046 10.4362827,16.3873122 10.6388425,16.3873122 L13.8642181,16.3873122 C14.066778,16.3873122 14.2693378,16.3094046 14.4095715,16.1535893 L16.7779633,13.8007791 C17.0740122,13.5047301 17.0740122,13.0061213 16.7779633,12.6944908 L16.7779633,12.6944908 Z" id="eraser-icon"></path>
        </g>
    </g>
</svg>