<?xml version="1.0" encoding="utf-8"?>
<!-- Generator: Adobe Illustrator 22.0.1, SVG Export Plug-In . SVG Version: 6.00 Build 0)  -->
<svg version="1.1" id="Layer_1" xmlns="http://www.w3.org/2000/svg" xmlns:xlink="http://www.w3.org/1999/xlink" x="0px" y="0px"
	 viewBox="0 0 27 28" style="enable-background:new 0 0 27 28;" xml:space="preserve">
<style type="text/css">
	.st0{fill:#4C97FF;}
</style>
<title>blocks icon</title>
<desc>Created with Sketch.</desc>
<g id="Page-1">
	<g id="_x31_2-col" transform="translate(-496.000000, -285.000000)">
		<g id="Band---Masthead" transform="translate(0.000000, 52.000000)">
			<g id="buttons-v1" transform="translate(474.000000, 214.000000)">
				<g id="guide-tutorial">
					<g id="blocks-icon" transform="translate(22.000000, 19.000000)">
						<path id="Stroke-1" class="st0" d="M0.9,0.1H3c0.2,0,0.4,0.1,0.6,0.2l1.2,1.2c0.2,0.2,0.4,0.2,0.6,0.2h2.6
							c0.2,0,0.4-0.1,0.6-0.2l1.2-1.2c0.2-0.2,0.4-0.2,0.6-0.2h15.3c0.5,0,0.8,0.4,0.8,0.8v5c0,0.5-0.4,0.8-0.8,0.8H10.2
							c-0.2,0-0.4,0.1-0.6,0.2L8.5,8.3C8.3,8.4,8.1,8.5,7.9,8.5H5.3c-0.2,0-0.4-0.1-0.6-0.2L3.6,7.1C3.4,6.9,3.2,6.8,3,6.8H0.9
							C0.4,6.8,0,6.5,0,6V1C0,0.5,0.4,0.1,0.9,0.1z"/>
						<path id="Stroke-3" class="st0" d="M0.9,9.8H3c0.2,0,0.4,0.1,0.6,0.2l1.2,1.2c0.2,0.2,0.4,0.2,0.6,0.2h2.6
							c0.2,0,0.4-0.1,0.6-0.2L9.6,10c0.2-0.2,0.4-0.2,0.6-0.2h9.5c0.5,0,0.8,0.4,0.8,0.8v5c0,0.5-0.4,0.8-0.8,0.8h-9.5
							c-0.2,0-0.4,0.1-0.6,0.2L8.5,18c-0.2,0.2-0.4,0.2-0.6,0.2H5.3c-0.2,0-0.4-0.1-0.6-0.2l-1.2-1.2c-0.2-0.2-0.4-0.2-0.6-0.2H0.9
							c-0.5,0-0.8-0.4-0.8-0.8v-5C0,10.2,0.4,9.8,0.9,9.8z"/>
						<path id="Stroke-5" class="st0" d="M0.9,19.5H3c0.2,0,0.4,0.1,0.6,0.2l1.2,1.2c0.2,0.2,0.4,0.2,0.6,0.2h2.6
							c0.2,0,0.4-0.1,0.6-0.2l1.2-1.2c0.2-0.2,0.4-0.2,0.6-0.2H23c0.5,0,0.8,0.4,0.8,0.8v5c0,0.5-0.4,0.8-0.8,0.8H10.2
							c-0.2,0-0.4,0.1-0.6,0.2l-1.2,1.2c-0.2,0.2-0.4,0.2-0.6,0.2H5.3c-0.2,0-0.4-0.1-0.6-0.2l-1.2-1.2c-0.2-0.2-0.4-0.2-0.6-0.2
							H0.9c-0.5,0-0.8-0.4-0.8-0.8v-5C0,19.9,0.4,19.5,0.9,19.5z"/>
					</g>
				</g>
			</g>
		</g>
	</g>
</g>
</svg>
