<?xml version="1.0" encoding="UTF-8"?>
<svg width="20px" height="20px" viewBox="0 0 20 20" version="1.1" xmlns="http://www.w3.org/2000/svg" xmlns:xlink="http://www.w3.org/1999/xlink">
    <!-- Generator: Sketch 50.2 (55047) - http://www.bohemiancoding.com/sketch -->
    <title>help</title>
    <desc>Created with Sketch.</desc>
    <defs></defs>
    <g id="help" stroke="none" stroke-width="1" fill="none" fill-rule="evenodd">
        <path d="M9.99905449,18 C5.58160974,18 2,14.4173461 2,10.0009453 C2,5.58265391 5.58160974,2 9.99905449,2 C14.4183903,2 18,5.58265391 18,10.0009453 C18,14.4173461 14.4183903,18 9.99905449,18 Z M9.85325612,12.3615266 C9.26892802,12.3615266 8.80562581,12.8360629 8.80562581,13.4221434 C8.80562581,13.9930994 9.26892802,14.4676356 9.85325612,14.4676356 C10.4394752,14.4676356 10.9141236,13.9930994 10.9141236,13.4221434 C10.9141236,12.8360629 10.4394752,12.3615266 9.85325612,12.3615266 Z M9.46181302,11.6431053 L10.1596029,11.6431053 C10.3487058,11.6431053 10.5245716,11.5239986 10.5699563,11.3406121 C10.6588347,10.9700579 10.9141236,10.7167198 11.2545089,10.4614912 L11.7159201,10.1211863 C12.4458575,9.57291741 12.8978135,8.90554177 12.8978135,7.93000118 C12.8978135,6.71435661 11.9106961,5.53274253 9.93835244,5.53274253 C8.16078478,5.53274253 7.1018083,6.7370436 7.1018083,8.16065225 C7.1018083,8.1984639 7.10369933,8.23627555 7.10369933,8.27597779 C7.11315447,8.49717594 7.28902021,8.67867187 7.51027065,8.6862342 L8.38392625,8.71648352 C8.62408699,8.72593643 8.81886302,8.53309701 8.81886302,8.29299303 L8.81886302,8.28354012 C8.81886302,7.71258419 9.23299846,7.13973768 9.93835244,7.13973768 C10.6701808,7.13973768 11.0219123,7.60103982 11.0219123,8.07557604 C11.0219123,8.3931939 10.9141236,8.6862342 10.5850845,8.93011934 L9.96482685,9.39331206 C9.26892802,9.91511284 9.0363314,10.5352239 9.0363314,11.1080704 C9.0363314,11.1515538 9.03822243,11.1950372 9.03822243,11.2347395 C9.04578655,11.4634999 9.23299846,11.6431053 9.46181302,11.6431053 Z" id="help-icon" fill="#FFFFFF"></path>
    </g>
</svg>