<?xml version="1.0" encoding="utf-8"?>
<!-- Generator: Adobe Illustrator 21.1.0, SVG Export Plug-In . SVG Version: 6.00 Build 0)  -->
<svg version="1.1" id="Layer_1" xmlns="http://www.w3.org/2000/svg" xmlns:xlink="http://www.w3.org/1999/xlink" x="0px" y="0px"
	 viewBox="0 0 14.6 14.6" enable-background="new 0 0 14.6 14.6" xml:space="preserve">
<g enable-background="new    ">
	<path fill="#FFFFFF" d="M10.4,9.2l4.1,4.1l-1.3,1.3l-4.1-4.2V9.8L8.9,9.5c-0.5,0.4-1,0.7-1.6,1c-0.6,0.2-1.2,0.3-1.9,0.3
		c-1,0-1.9-0.2-2.7-0.7C1.9,9.6,1.2,9,0.7,8.2C0.2,7.3,0,6.4,0,5.4c0-1,0.2-1.9,0.7-2.7c0.5-0.8,1.1-1.5,2-2C3.5,0.2,4.5,0,5.4,0
		s1.9,0.2,2.7,0.7c0.8,0.5,1.5,1.1,1.9,2c0.5,0.8,0.7,1.7,0.7,2.7c0,0.7-0.1,1.3-0.3,1.9s-0.5,1.1-1,1.6l0.2,0.2H10.4z M5.4,9.2
		c0.7,0,1.3-0.2,1.9-0.5s1-0.8,1.4-1.4C9,6.7,9.2,6.1,9.2,5.4S9,4.1,8.7,3.5C8.3,3,7.9,2.5,7.3,2.2C6.7,1.8,6.1,1.7,5.4,1.7
		S4.1,1.8,3.6,2.2C3,2.5,2.5,3,2.2,3.5S1.7,4.7,1.7,5.4s0.2,1.3,0.5,1.9s0.8,1,1.4,1.4C4.1,9,4.8,9.2,5.4,9.2z"/>
</g>
</svg>
