<svg xmlns="http://www.w3.org/2000/svg" aria-hidden="true" width="1em" height="1em" style="-ms-transform:rotate(360deg);-webkit-transform:rotate(360deg);transform:rotate(360deg)" viewBox="0 0 24 24"><path d="M12 13a1.49 1.49 0 0 0-1 2.61V17a1 1 0 0 0 2 0v-1.39A1.49 1.49 0 0 0 12 13zm5-4H9V7a3 3 0 0 1 5.12-2.13 3.08 3.08 0 0 1 .78 1.38 1 1 0 1 0 1.94-.5 5.09 5.09 0 0 0-1.31-2.29A5 5 0 0 0 7 7v2a3 3 0 0 0-3 3v7a3 3 0 0 0 3 3h10a3 3 0 0 0 3-3v-7a3 3 0 0 0-3-3zm1 10a1 1 0 0 1-1 1H7a1 1 0 0 1-1-1v-7a1 1 0 0 1 1-1h10a1 1 0 0 1 1 1z" fill="#626262"/></svg>