<?xml version="1.0" encoding="UTF-8"?>
<svg width="20px" height="20px" viewBox="0 0 20 20" version="1.1" xmlns="http://www.w3.org/2000/svg" xmlns:xlink="http://www.w3.org/1999/xlink">
    <!-- Generator: Sketch 50.2 (55047) - http://www.bohemiancoding.com/sketch -->
    <title>microbit-menu-icon</title>
    <desc>Created with Sketch.</desc>
    <defs></defs>
    <g id="microbit-menu-icon" stroke="none" stroke-width="1" fill="none" fill-rule="evenodd">
        <g id="microbit" transform="translate(1.750000, 3.000000)" fill-rule="nonzero">
            <polygon id="Shape" stroke="#7C87A5" stroke-width="0.5" fill="#E6E7E8" stroke-linecap="round" stroke-linejoin="round" points="9.555 0.055 9.555 0.5 6.89 0.5 6.89 0.055 7.11 0.055 7.11 0.165 7.335 0.165 7.335 0.055 9.11 0.055 9.11 0.165 9.335 0.165 9.335 0.055"></polygon>
            <path d="M15.33,0.5 L1.11,0.5 C0.620412592,0.499992274 0.222750491,0.895420318 0.22,1.385 L0.22,12.5 C0.220626826,12.8850472 0.46879418,13.2260251 0.835,13.345 C0.924358254,13.3710672 1.01691844,13.3845305 1.11,13.385 L15.33,13.385 C15.4230816,13.3845305 15.5156417,13.3710672 15.605,13.345 C15.9712058,13.2260251 16.2193732,12.8850472 16.22,12.5 L16.22,1.385 C16.2172495,0.895420318 15.8195874,0.499992274 15.33,0.5 Z M1.555,11.77 C1.35671759,11.77 1.17349708,11.6642176 1.07435587,11.4925 C0.975214665,11.3207824 0.975214665,11.1092176 1.07435587,10.9375 C1.17349708,10.7657824 1.35671759,10.66 1.555,10.66 C1.75328241,10.66 1.93650292,10.7657824 2.03564413,10.9375 C2.13478534,11.1092176 2.13478534,11.3207824 2.03564413,11.4925 C1.93650292,11.6642176 1.75328241,11.77 1.555,11.77 Z M4.69,11.77 C4.46507041,11.7699909 4.26238813,11.6342221 4.17678589,11.4262183 C4.09118366,11.2182145 4.13959074,10.9791119 4.29935802,10.820784 C4.45912531,10.6624561 4.69865613,10.6162147 4.90587674,10.7036958 C5.11309734,10.7911769 5.24702639,10.9950795 5.245,11.22 C5.24225607,11.5245636 4.99457598,11.7700124 4.69,11.77 Z M8.22,11.77 C7.99507041,11.7699909 7.79238813,11.6342221 7.70678589,11.4262183 C7.62118366,11.2182145 7.66959074,10.9791119 7.82935802,10.820784 C7.98912531,10.6624561 8.22865613,10.6162147 8.43587674,10.7036958 C8.64309734,10.7911769 8.77702639,10.9950795 8.775,11.22 C8.77225607,11.5245636 8.52457598,11.7700124 8.22,11.77 Z M11.75,11.77 C11.5517176,11.77 11.3684971,11.6642176 11.2693559,11.4925 C11.1702147,11.3207824 11.1702147,11.1092176 11.2693559,10.9375 C11.3684971,10.7657824 11.5517176,10.66 11.75,10.66 C11.9482824,10.66 12.1315029,10.7657824 12.2306441,10.9375 C12.3297853,11.1092176 12.3297853,11.3207824 12.2306441,11.4925 C12.1315029,11.6642176 11.9482824,11.77 11.75,11.77 Z M14.885,11.77 C14.6600704,11.7699909 14.4573881,11.6342221 14.3717859,11.4262183 C14.2861837,11.2182145 14.3345907,10.9791119 14.494358,10.820784 C14.6541253,10.6624561 14.8936561,10.6162147 15.1008767,10.7036958 C15.3080973,10.7911769 15.4420264,10.9950795 15.44,11.22 C15.4372561,11.5245636 15.189576,11.7700124 14.885,11.77 Z" id="Shape" stroke="#231F20" stroke-width="0.5" fill="#231F20" opacity="0.1"></path>
            <path d="M15.33,0.5 L1.11,0.5 C0.620412592,0.499992274 0.222750491,0.895420318 0.22,1.385 L0.22,12.5 C0.220626826,12.8850472 0.46879418,13.2260251 0.835,13.345 C0.924358254,13.3710672 1.01691844,13.3845305 1.11,13.385 L15.33,13.385 C15.4230816,13.3845305 15.5156417,13.3710672 15.605,13.345 C15.9712058,13.2260251 16.2193732,12.8850472 16.22,12.5 L16.22,1.385 C16.2172495,0.895420318 15.8195874,0.499992274 15.33,0.5 Z M1.555,11.77 C1.35671759,11.77 1.17349708,11.6642176 1.07435587,11.4925 C0.975214665,11.3207824 0.975214665,11.1092176 1.07435587,10.9375 C1.17349708,10.7657824 1.35671759,10.66 1.555,10.66 C1.75328241,10.66 1.93650292,10.7657824 2.03564413,10.9375 C2.13478534,11.1092176 2.13478534,11.3207824 2.03564413,11.4925 C1.93650292,11.6642176 1.75328241,11.77 1.555,11.77 Z M4.69,11.77 C4.46507041,11.7699909 4.26238813,11.6342221 4.17678589,11.4262183 C4.09118366,11.2182145 4.13959074,10.9791119 4.29935802,10.820784 C4.45912531,10.6624561 4.69865613,10.6162147 4.90587674,10.7036958 C5.11309734,10.7911769 5.24702639,10.9950795 5.245,11.22 C5.24225607,11.5245636 4.99457598,11.7700124 4.69,11.77 Z M8.22,11.77 C7.99507041,11.7699909 7.79238813,11.6342221 7.70678589,11.4262183 C7.62118366,11.2182145 7.66959074,10.9791119 7.82935802,10.820784 C7.98912531,10.6624561 8.22865613,10.6162147 8.43587674,10.7036958 C8.64309734,10.7911769 8.77702639,10.9950795 8.775,11.22 C8.77225607,11.5245636 8.52457598,11.7700124 8.22,11.77 Z M11.75,11.77 C11.5517176,11.77 11.3684971,11.6642176 11.2693559,11.4925 C11.1702147,11.3207824 11.1702147,11.1092176 11.2693559,10.9375 C11.3684971,10.7657824 11.5517176,10.66 11.75,10.66 C11.9482824,10.66 12.1315029,10.7657824 12.2306441,10.9375 C12.3297853,11.1092176 12.3297853,11.3207824 12.2306441,11.4925 C12.1315029,11.6642176 11.9482824,11.77 11.75,11.77 Z M14.885,11.77 C14.6600704,11.7699909 14.4573881,11.6342221 14.3717859,11.4262183 C14.2861837,11.2182145 14.3345907,10.9791119 14.494358,10.820784 C14.6541253,10.6624561 14.8936561,10.6162147 15.1008767,10.7036958 C15.3080973,10.7911769 15.4420264,10.9950795 15.44,11.22 C15.4372561,11.5245636 15.189576,11.7700124 14.885,11.77 Z" id="Shape" fill="#414757"></path>
            <path d="M0.22,4.5 L0.22,1.385 C0.222750491,0.895420318 0.620412592,0.499992274 1.11,0.5 L4.22,0.5 L0.22,4.5 Z" id="Shape" fill="#4C97FF"></path>
            <polygon id="Shape" fill="#4C97FF" points="4.22 2.28 4.22 0.5 6 0.5"></polygon>
            <polygon id="Shape" fill="#4C97FF" points="6 1.835 6 0.5 7.335 0.5"></polygon>
            <polygon id="Shape" fill="#4C97FF" stroke-linecap="round" stroke-linejoin="round" points="14.22 4.945 14.22 3.61 15.555 3.61"></polygon>
            <polygon id="Shape" fill="#4C97FF" stroke-linecap="round" stroke-linejoin="round" points="2.225 8.055 2.225 9.39 0.89 9.39"></polygon>
            <rect id="Rectangle-path" fill="#FFFFFF" x="0.445" y="6.28" width="1" height="1" rx="0.22"></rect>
            <rect id="Rectangle-path" fill="#FFFFFF" x="15.555" y="6.28" width="1" height="1" rx="0.22"></rect>
            <path d="M8.78,2.78 C8.86560413,2.77999999 8.93499999,2.71060413 8.93499999,2.625 C8.93499999,2.53939587 8.86560413,2.47000001 8.78,2.47 C8.69439586,2.47 8.625,2.53939586 8.625,2.625 C8.625,2.71060414 8.69439586,2.78 8.78,2.78" id="Shape" fill="#4C97FF"></path>
            <path d="M7.65,2.47 C7.59462383,2.47 7.54345414,2.49954283 7.51576605,2.5475 C7.48807797,2.59545717 7.48807797,2.65454283 7.51576605,2.7025 C7.54345414,2.75045717 7.59462383,2.78 7.65,2.78 C7.73560413,2.77999999 7.80499999,2.71060413 7.80499999,2.625 C7.80499999,2.53939587 7.73560413,2.47000001 7.65,2.47" id="Shape" fill="#4C97FF"></path>
            <path d="M7.65,2.165 C7.475131,2.14669395 7.30512321,2.22967056 7.21197103,2.37879114 C7.11881884,2.52791172 7.11881884,2.71708828 7.21197103,2.86620886 C7.30512321,3.01532944 7.475131,3.09830605 7.65,3.08 L8.79,3.08 C8.964869,3.09830605 9.13487679,3.01532944 9.22802897,2.86620886 C9.32118116,2.71708828 9.32118116,2.52791172 9.22802897,2.37879114 C9.13487679,2.22967056 8.964869,2.14669395 8.79,2.165 L7.65,2.165 M8.79,3.385 L7.65,3.385 C7.35282175,3.4336905 7.05492393,3.30232188 6.89046337,3.05005536 C6.7260028,2.79778884 6.7260028,2.47221116 6.89046337,2.21994464 C7.05492393,1.96767812 7.35282175,1.8363095 7.65,1.885 L8.79,1.885 C9.08717825,1.8363095 9.38507607,1.96767812 9.54953663,2.21994464 C9.7139972,2.47221116 9.7139972,2.79778884 9.54953663,3.05005536 C9.38507607,3.30232188 9.08717825,3.4336905 8.79,3.385" id="Shape" fill="#4C97FF"></path>
            <rect id="Rectangle-path" fill="#E6E7E8" stroke-linecap="round" stroke-linejoin="round" x="1.11" y="5.39" width="2.22" height="2.22" rx="0.22"></rect>
            <circle id="Oval" stroke="#231F20" stroke-width="0.5" fill="#231F20" opacity="0.1" cx="2.22" cy="6.5" r="1"></circle>
            <circle id="Oval" stroke="#414757" stroke-width="0.5" fill="#414757" cx="2.22" cy="6.5" r="1"></circle>
            <rect id="Rectangle-path" opacity="0.25" x="13.11" y="5.39" width="2.22" height="2.22" rx="0.22"></rect>
            <rect id="Rectangle-path" fill="#E6E7E8" stroke-linecap="round" stroke-linejoin="round" x="13.11" y="5.39" width="2.22" height="2.22" rx="0.22"></rect>
            <circle id="Oval" stroke="#231F20" stroke-width="0.5" fill="#231F20" opacity="0.1" cx="14.22" cy="6.5" r="1"></circle>
            <circle id="Oval" stroke="#414757" stroke-width="0.5" fill="#414757" cx="14.22" cy="6.5" r="1"></circle>
            <rect id="Rectangle-path" fill="#E6E7E8" x="5.555" y="4.5" width="1" height="1" rx="0.02"></rect>
            <rect id="Rectangle-path" fill="#E6E7E8" x="6.835" y="4.5" width="1" height="1" rx="0.02"></rect>
            <rect id="Rectangle-path" fill="#E6E7E8" x="8.11" y="4.5" width="1" height="1" rx="0.02"></rect>
            <rect id="Rectangle-path" fill="#E6E7E8" x="9.39" y="4.5" width="1" height="1" rx="0.02"></rect>
            <rect id="Rectangle-path" fill="#E6E7E8" x="10.665" y="4.5" width="1" height="1" rx="0.02"></rect>
            <rect id="Rectangle-path" fill="#E6E7E8" x="5.555" y="5.75" width="1" height="1" rx="0.02"></rect>
            <rect id="Rectangle-path" fill="#E6E7E8" x="6.835" y="5.75" width="1" height="1" rx="0.02"></rect>
            <rect id="Rectangle-path" fill="#E6E7E8" x="8.11" y="5.75" width="1" height="1" rx="0.02"></rect>
            <rect id="Rectangle-path" fill="#E6E7E8" x="9.39" y="5.75" width="1" height="1" rx="0.02"></rect>
            <rect id="Rectangle-path" fill="#E6E7E8" x="10.665" y="5.75" width="1" height="1" rx="0.02"></rect>
            <rect id="Rectangle-path" fill="#E6E7E8" x="5.555" y="7" width="1" height="1" rx="0.02"></rect>
            <rect id="Rectangle-path" fill="#E6E7E8" x="6.835" y="7" width="1" height="1" rx="0.02"></rect>
            <rect id="Rectangle-path" fill="#E6E7E8" x="8.11" y="7" width="1" height="1" rx="0.02"></rect>
            <rect id="Rectangle-path" fill="#E6E7E8" x="9.39" y="7" width="1" height="1" rx="0.02"></rect>
            <rect id="Rectangle-path" fill="#E6E7E8" x="10.665" y="7" width="1" height="1" rx="0.02"></rect>
            <rect id="Rectangle-path" fill="#E6E7E8" x="5.555" y="8.25" width="1" height="1" rx="0.02"></rect>
            <rect id="Rectangle-path" fill="#E6E7E8" x="6.835" y="8.25" width="1" height="1" rx="0.02"></rect>
            <rect id="Rectangle-path" fill="#E6E7E8" x="8.11" y="8.25" width="1" height="1" rx="0.02"></rect>
            <rect id="Rectangle-path" fill="#E6E7E8" x="9.39" y="8.25" width="1" height="1" rx="0.02"></rect>
            <rect id="Rectangle-path" fill="#E6E7E8" x="10.665" y="8.25" width="1" height="1" rx="0.02"></rect>
            <rect id="Rectangle-path" fill="#E6E7E8" x="5.555" y="9.5" width="1" height="1" rx="0.02"></rect>
            <rect id="Rectangle-path" fill="#E6E7E8" x="6.835" y="9.5" width="1" height="1" rx="0.02"></rect>
            <rect id="Rectangle-path" fill="#E6E7E8" x="8.11" y="9.5" width="1" height="1" rx="0.02"></rect>
            <rect id="Rectangle-path" fill="#E6E7E8" x="9.39" y="9.5" width="1" height="1" rx="0.02"></rect>
            <rect id="Rectangle-path" fill="#E6E7E8" x="10.665" y="9.5" width="1" height="1" rx="0.02"></rect>
            <path d="M0.72,11.835 L0.72,13.29 C0.619353645,13.2392677 0.529390139,13.1696733 0.455,13.085 L0.455,11.835 L0.72,11.835 Z" id="Shape" fill="#FFBF00"></path>
            <polygon id="Shape" fill="#FFBF00" points="1.04 13.385 1.1 13.385 1.1 11.835 0.835 11.835 0.835 13.345"></polygon>
            <rect id="Rectangle-path" fill="#FFBF00" x="1.23" y="11.835" width="1" height="1.55"></rect>
            <rect id="Rectangle-path" fill="#FFBF00" x="1.62" y="11.835" width="1" height="1.55"></rect>
            <rect id="Rectangle-path" fill="#FFBF00" x="2.015" y="11.835" width="1" height="1.55"></rect>
            <rect id="Rectangle-path" fill="#FFBF00" x="2.405" y="11.835" width="1" height="1.55"></rect>
            <rect id="Rectangle-path" fill="#FFBF00" x="2.795" y="11.835" width="1" height="1.55"></rect>
            <rect id="Rectangle-path" fill="#FFBF00" x="3.19" y="11.835" width="1" height="1.55"></rect>
            <rect id="Rectangle-path" fill="#FFBF00" x="3.58" y="11.835" width="1" height="1.55"></rect>
            <rect id="Rectangle-path" fill="#FFBF00" x="3.975" y="11.835" width="1" height="1.55"></rect>
            <rect id="Rectangle-path" fill="#FFBF00" x="4.365" y="11.835" width="1" height="1.55"></rect>
            <rect id="Rectangle-path" fill="#FFBF00" x="4.76" y="11.835" width="1" height="1.55"></rect>
            <rect id="Rectangle-path" fill="#FFBF00" x="5.15" y="11.835" width="1" height="1.55"></rect>
            <rect id="Rectangle-path" fill="#FFBF00" x="5.54" y="11.835" width="1" height="1.55"></rect>
            <rect id="Rectangle-path" fill="#FFBF00" x="5.935" y="11.835" width="1" height="1.55"></rect>
            <rect id="Rectangle-path" fill="#FFBF00" x="6.325" y="11.835" width="1" height="1.55"></rect>
            <rect id="Rectangle-path" fill="#FFBF00" x="6.72" y="11.835" width="1" height="1.55"></rect>
            <rect id="Rectangle-path" fill="#FFBF00" x="7.11" y="11.835" width="1" height="1.55"></rect>
            <rect id="Rectangle-path" fill="#FFBF00" x="7.505" y="11.835" width="1" height="1.55"></rect>
            <rect id="Rectangle-path" fill="#FFBF00" x="7.895" y="11.835" width="1" height="1.55"></rect>
            <rect id="Rectangle-path" fill="#FFBF00" x="8.29" y="11.835" width="1" height="1.55"></rect>
            <rect id="Rectangle-path" fill="#FFBF00" x="8.68" y="11.835" width="1" height="1.55"></rect>
            <rect id="Rectangle-path" fill="#FFBF00" x="9.07" y="11.835" width="1" height="1.55"></rect>
            <rect id="Rectangle-path" fill="#FFBF00" x="9.465" y="11.835" width="1" height="1.55"></rect>
            <rect id="Rectangle-path" fill="#FFBF00" x="9.855" y="11.835" width="1" height="1.55"></rect>
            <rect id="Rectangle-path" fill="#FFBF00" x="10.25" y="11.835" width="1" height="1.55"></rect>
            <rect id="Rectangle-path" fill="#FFBF00" x="10.64" y="11.835" width="1" height="1.55"></rect>
            <rect id="Rectangle-path" fill="#FFBF00" x="11.03" y="11.835" width="1" height="1.55"></rect>
            <rect id="Rectangle-path" fill="#FFBF00" x="11.425" y="11.835" width="1" height="1.55"></rect>
            <rect id="Rectangle-path" fill="#FFBF00" x="11.815" y="11.835" width="1" height="1.55"></rect>
            <rect id="Rectangle-path" fill="#FFBF00" x="12.21" y="11.835" width="1" height="1.55"></rect>
            <rect id="Rectangle-path" fill="#FFBF00" x="12.6" y="11.835" width="1" height="1.55"></rect>
            <rect id="Rectangle-path" fill="#FFBF00" x="12.995" y="11.835" width="1" height="1.55"></rect>
            <rect id="Rectangle-path" fill="#FFBF00" x="13.385" y="11.835" width="1" height="1.55"></rect>
            <rect id="Rectangle-path" fill="#FFBF00" x="13.78" y="11.835" width="1" height="1.55"></rect>
            <rect id="Rectangle-path" fill="#FFBF00" x="14.17" y="11.835" width="1" height="1.55"></rect>
            <rect id="Rectangle-path" fill="#FFBF00" x="14.56" y="11.835" width="1" height="1.55"></rect>
            <rect id="Rectangle-path" fill="#FFBF00" x="14.955" y="11.835" width="1" height="1.55"></rect>
            <polygon id="Shape" fill="#FFBF00" points="15.405 13.385 15.345 13.385 15.345 11.835 15.61 11.835 15.61 13.345"></polygon>
            <path d="M16,11.835 L16,13.085 C15.9256099,13.1696733 15.8356464,13.2392677 15.735,13.29 L15.735,11.835 L16,11.835 Z" id="Shape" fill="#FFBF00"></path>
            <path d="M1.555,11.77 C1.35671759,11.77 1.17349708,11.6642176 1.07435587,11.4925 C0.975214665,11.3207824 0.975214665,11.1092176 1.07435587,10.9375 C1.17349708,10.7657824 1.35671759,10.66 1.555,10.66 C1.75328241,10.66 1.93650292,10.7657824 2.03564413,10.9375 C2.13478534,11.1092176 2.13478534,11.3207824 2.03564413,11.4925 C1.93650292,11.6642176 1.75328241,11.77 1.555,11.77 Z M1.11,13.385 L2.27,13.385 L2.27,11.22 C2.23882676,10.846896 1.92690403,10.5599479 1.5525,10.5599479 C1.17809597,10.5599479 0.86617324,10.846896 0.835,11.22 L0.835,13.35 L1.11,13.385 Z" id="Shape" fill="#FFBF00"></path>
            <path d="M5.22,10.72 C5.01534031,10.5145908 4.70743372,10.4519947 4.43881655,10.5611887 C4.17019937,10.6703827 3.99329653,10.9300558 3.99,11.22 L3.99,13.39 L5.43,13.39 L5.43,11.22 C5.42837462,11.0322233 5.35294269,10.8526234 5.22,10.72 Z M4.72,11.78 C4.49365246,11.7922405 4.28260933,11.6656007 4.18691307,11.4601129 C4.09121682,11.254625 4.13010267,11.0115927 4.28513726,10.8462224 C4.44017185,10.6808522 4.68019276,10.626384 4.89142096,10.7086378 C5.10264915,10.7908916 5.24262712,10.9933341 5.245,11.22 C5.24225607,11.5245636 4.99457598,11.7700124 4.69,11.77 L4.72,11.78 Z" id="Shape" fill="#FFBF00"></path>
            <path d="M8.72,10.72 C8.51534031,10.5145908 8.20743372,10.4519947 7.93881655,10.5611887 C7.67019937,10.6703827 7.49329653,10.9300558 7.49,11.22 L7.49,13.39 L8.93,13.39 L8.93,11.22 C8.92837462,11.0322233 8.85294269,10.8526234 8.72,10.72 Z M8.22,11.77 C7.99507041,11.7699909 7.79238813,11.6342221 7.70678589,11.4262183 C7.62118366,11.2182145 7.66959074,10.9791119 7.82935802,10.820784 C7.98912531,10.6624561 8.22865613,10.6162147 8.43587674,10.7036958 C8.64309734,10.7911769 8.77702639,10.9950795 8.775,11.22 C8.77225607,11.5245636 8.52457598,11.7700124 8.22,11.77 Z" id="Shape" fill="#FFBF00"></path>
            <path d="M12.26,10.72 C12.0553403,10.5145908 11.7474337,10.4519947 11.4788165,10.5611887 C11.2101994,10.6703827 11.0332965,10.9300558 11.03,11.22 L11.03,13.39 L12.47,13.39 L12.47,11.22 C12.4683746,11.0322233 12.3929427,10.8526234 12.26,10.72 Z M11.76,11.78 C11.453482,11.78 11.205,11.531518 11.205,11.225 C11.205,10.918482 11.453482,10.67 11.76,10.67 C12.066518,10.67 12.315,10.918482 12.315,11.225 C12.315,11.531518 12.066518,11.78 11.76,11.78 Z" id="Shape" fill="#FFBF00"></path>
            <path d="M15.395,10.72 C15.1899021,10.518086 14.8842632,10.457711 14.6177953,10.5664734 C14.3513273,10.6752358 14.17523,10.9322378 14.17,11.22 L14.17,13.39 L15.33,13.39 L15.605,13.35 L15.605,11.22 C15.6033746,11.0322233 15.5279427,10.8526234 15.395,10.72 Z M14.895,11.78 C14.670115,11.7840432 14.4650254,11.6519577 14.3756844,11.4455411 C14.2863434,11.2391245 14.3304184,10.9991959 14.4872884,10.8380084 C14.6441584,10.6768208 14.8828022,10.6262494 15.0915679,10.7099544 C15.3003335,10.7936594 15.4379373,10.9950881 15.44,11.22 C15.4372561,11.5245636 15.189576,11.7700124 14.885,11.77 L14.895,11.78 Z" id="Shape" fill="#FFBF00"></path>
        </g>
    </g>
</svg>