<?xml version="1.0" encoding="UTF-8"?>
<svg width="600" height="372" version="1.1" viewBox="0 0 600 372" xmlns="http://www.w3.org/2000/svg" xmlns:cc="http://creativecommons.org/ns#" xmlns:dc="http://purl.org/dc/elements/1.1/" xmlns:rdf="http://www.w3.org/1999/02/22-rdf-syntax-ns#">
  <!-- Based on https://github.com/jesseweed/seti-ui/blob/master/icons/json.svg -->
 <rect width="600" height="372" fill="#0fbd8c"/>
 <path d="m194.14 174.17c18.681 0 21.172-9.9635 21.172-18.682 0-7.4726-1.2454-13.7-1.2454-21.172s-1.2454-14.945-1.2454-21.172c0-26.154 16.191-37.363 42.345-37.363h9.9635v23.663h-4.9817c-12.454 0-16.191 7.4726-16.191 19.927 0 4.9817 1.2454 9.9635 1.2454 16.191 0 4.9817 1.2454 11.209 1.2454 18.682 0 21.172-8.718 28.645-23.663 32.381 14.945 3.7363 23.663 11.209 23.663 32.381 0 7.4726-1.2454 13.7-1.2454 18.681 0 4.9817-1.2454 11.209-1.2454 14.945 0 12.454 3.7363 19.927 16.191 19.927h4.9817v23.663h-9.9635c-24.909 0-41.099-9.9635-41.099-37.363 0-7.4726 0-13.7 1.2454-21.172s1.2454-14.945 1.2454-21.172c0-7.4726-2.4909-18.682-21.172-18.682zm211.72 21.172c-18.681 0-21.172 11.209-21.172 18.681 0 7.4726 1.2454 13.7 1.2454 21.172 1.2454 7.4726 1.2454 14.945 1.2454 21.172 0 27.4-17.436 37.363-42.345 37.363h-9.9635v-21.172h4.9817c12.454 0 16.191-7.4726 16.191-19.927 0-4.9817 0-9.9635-1.2454-14.945 0-6.2272-1.2454-12.454-1.2454-18.681 0-21.172 8.718-28.645 23.663-32.381-14.945-3.7363-23.663-11.209-23.663-32.381 0-7.4726 1.2454-13.7 1.2454-18.682 1.2454-6.2272 1.2454-11.209 1.2454-16.191 0-12.454-4.9817-18.682-16.191-19.927h-4.9817v-23.663h9.9635c26.154 0 42.345 11.209 42.345 37.363 0 7.4726-1.2454 13.7-1.2454 21.172-1.2454 7.4726-1.2454 14.945-1.2454 21.172 0 8.718 2.4909 18.682 21.172 18.682z" fill="#fff" stroke-width="12.454"/>
</svg>
