<?xml version="1.0" standalone="no"?><!-- Generator: Gravit.io --><svg xmlns="http://www.w3.org/2000/svg" xmlns:xlink="http://www.w3.org/1999/xlink" style="isolation:isolate" viewBox="0 0 40 40" width="40" height="40"><defs><clipPath id="_clipPath_6dcZLQrhvETumeihnXgOmSBgCSySTYtm"><rect width="40" height="40"/></clipPath></defs><g clip-path="url(#_clipPath_6dcZLQrhvETumeihnXgOmSBgCSySTYtm)"><defs><filter id="sUleBDybuwUmmkz0XFlUxBLVvLQ9dUvl" x="-200%" y="-200%" width="400%" height="400%" filterUnits="objectBoundingBox" color-interpolation-filters="sRGB"><feGaussianBlur xmlns="http://www.w3.org/2000/svg" in="SourceGraphic" stdDeviation="2.146804531419514"/><feOffset xmlns="http://www.w3.org/2000/svg" dx="0" dy="0" result="pf_100_offsetBlur"/><feFlood xmlns="http://www.w3.org/2000/svg" flood-color="#000000" flood-opacity="0.65"/><feComposite xmlns="http://www.w3.org/2000/svg" in2="pf_100_offsetBlur" operator="in" result="pf_100_dropShadow"/><feBlend xmlns="http://www.w3.org/2000/svg" in="SourceGraphic" in2="pf_100_dropShadow" mode="normal"/></filter></defs><g filter="url(#sUleBDybuwUmmkz0XFlUxBLVvLQ9dUvl)"><path d=" M 21.496 23.965 L 17.934 23.965 L 17.934 23.965 Q 17.934 22.017 18.407 20.863 L 18.407 20.863 L 18.407 20.863 Q 18.88 19.708 20.139 18.588 L 20.139 18.588 L 20.139 18.588 Q 21.398 17.468 21.816 16.765 L 21.816 16.765 L 21.816 16.765 Q 22.233 16.062 22.233 15.283 L 22.233 15.283 L 22.233 15.283 Q 22.233 12.932 20.063 12.932 L 20.063 12.932 L 20.063 12.932 Q 19.033 12.932 18.414 13.565 L 18.414 13.565 L 18.414 13.565 Q 17.795 14.198 17.767 15.311 L 17.767 15.311 L 13.732 15.311 L 13.732 15.311 Q 13.76 12.654 15.45 11.151 L 15.45 11.151 L 15.45 11.151 Q 17.141 9.648 20.063 9.648 L 20.063 9.648 L 20.063 9.648 Q 23.012 9.648 24.64 11.074 L 24.64 11.074 L 24.64 11.074 Q 26.268 12.501 26.268 15.102 L 26.268 15.102 L 26.268 15.102 Q 26.268 16.285 25.739 17.336 L 25.739 17.336 L 25.739 17.336 Q 25.211 18.386 23.889 19.666 L 23.889 19.666 L 22.762 20.737 L 22.762 20.737 Q 21.704 21.753 21.551 23.117 L 21.551 23.117 L 21.496 23.965 Z  M 17.53 28.237 L 17.53 28.237 L 17.53 28.237 Q 17.53 27.305 18.163 26.699 L 18.163 26.699 L 18.163 26.699 Q 18.796 26.094 19.784 26.094 L 19.784 26.094 L 19.784 26.094 Q 20.772 26.094 21.405 26.699 L 21.405 26.699 L 21.405 26.699 Q 22.038 27.305 22.038 28.237 L 22.038 28.237 L 22.038 28.237 Q 22.038 29.155 21.419 29.753 L 21.419 29.753 L 21.419 29.753 Q 20.8 30.352 19.784 30.352 L 19.784 30.352 L 19.784 30.352 Q 18.769 30.352 18.149 29.753 L 18.149 29.753 L 18.149 29.753 Q 17.53 29.155 17.53 28.237 Z " fill="rgb(255,255,255)"/></g></g></svg>