<?xml version="1.0" encoding="UTF-8"?>
<svg width="20px" height="20px" viewBox="0 0 20 20" version="1.1" xmlns="http://www.w3.org/2000/svg" xmlns:xlink="http://www.w3.org/1999/xlink">
    <!-- Generator: Sketch 51.1 (57501) - http://www.bohemiancoding.com/sketch -->
    <title>all-around-active</title>
    <desc>Created with Sketch.</desc>
    <defs></defs>
    <g id="all-around-active" stroke="none" stroke-width="1" fill="none" fill-rule="evenodd">
        <path d="M16.8786199,10.6231329 L14.6209769,14.1433441 C14.3320842,14.6034325 13.6687009,14.6034325 13.3691085,14.1433441 L11.1221651,10.6231329 C10.8011732,10.1309454 11.1542643,9.47826182 11.7427495,9.47826182 L13.0267171,9.47826182 C12.7806233,7.4453131 11.0579667,5.87245277 8.9704494,5.87245277 C6.71387632,5.87245277 4.87245277,7.71280635 4.87245277,9.9704494 C4.87245277,12.2280925 6.71387632,14.068446 8.9704494,14.068446 C9.48510642,14.068446 9.90132592,14.4846655 9.90132592,14.9993226 C9.90132592,15.5236093 9.48510642,15.9408988 8.9704494,15.9408988 C5.67493253,15.9408988 3,13.2659663 3,9.9704494 C3,6.68563226 5.67493253,4 8.9704494,4 C12.0947706,4 14.6637758,6.41813901 14.9098696,9.47826182 L16.2580356,9.47826182 C16.8465207,9.47826182 17.1996118,10.1309454 16.8786199,10.6231329" id="Rotate" fill="#4C97FF"></path>
    </g>
</svg>