<?xml version="1.0" encoding="UTF-8"?>
<svg width="40px" height="40px" viewBox="0 0 40 40" version="1.1" xmlns="http://www.w3.org/2000/svg" xmlns:xlink="http://www.w3.org/1999/xlink">
    <!-- Generator: Sketch 52.2 (67145) - http://www.bohemiancoding.com/sketch -->
    <title>Extensions/Software/Text-to-Speech-Block</title>
    <desc>Created with Sketch.</desc>
    <g id="Extensions/Software/Text-to-Speech-Block" stroke="none" stroke-width="1" fill="none" fill-rule="evenodd" stroke-opacity="0.15">
        <g id="text2speech" transform="translate(4.000000, 4.000000)" fill-rule="nonzero" stroke="#000000">
            <path d="M11.5,17.6693435 C11.5,16.6539269 10.0060145,16.0844274 9.11256024,16.8883 L6.41256024,19.050714 C5.39346755,19.8668994 4.07497351,20.3317575 2.7,20.3317575 L2.3,20.3317575 C1.26519233,20.3317575 0.5,21.0212003 0.5,21.904071 L0.5,26.1387986 C0.5,27.0216693 1.26519233,27.711112 2.3,27.711112 L2.7,27.711112 C4.15755682,27.711112 5.45372322,28.1335271 6.51972098,28.998 L9.11840293,31.1593216 C10.0261855,31.9090793 11.5,31.3472689 11.5,30.2834255 L11.5,17.6693435 Z" id="speaker" fill="#4D4D4D"></path>
            <path d="M21.6436066,16.5 C19.9770099,18.4370234 17.1050275,19.9285714 15.6666667,19.9285714 C15.5126397,19.9285714 15.3166292,19.895903 15.1097265,19.7924517 C14.7376039,19.6063904 14.5,19.2499846 14.5,18.7619048 C14.5,18.6568041 14.5170555,18.5545076 14.5494467,18.4540844 C14.6257545,18.2175063 15.1735721,17.467531 15.2772071,17.2809881 C15.5463526,16.7965261 15.739025,16.2063561 15.8432891,15.4160034 C13.1897005,13.9268369 11.5,11.1139668 11.5,8 C11.5,3.30557963 15.3055796,-0.5 20,-0.5 L24,-0.5 C28.6944204,-0.5 32.5,3.30557963 32.5,8 C32.5,12.6944204 28.6944204,16.5 24,16.5 L21.6436066,16.5 Z" id="speech" fill="#FFFFFF"></path>
        </g>
    </g>
</svg>