<svg xmlns="http://www.w3.org/2000/svg" xmlns:xlink="http://www.w3.org/1999/xlink" version="1.1" x="0px" y="0px" viewBox="40 40 462 462" style="enable-background:new 0 0 512 512;" xml:space="preserve"><g><path fill="#CF63CF" d="M281.9,393.2c-1.5,0-3.1-0.6-4.2-1.8c-2.3-2.3-2.3-6.1,0-8.5c33.9-33.9,52.6-79,52.6-127.1c0-48.1-18.7-93.2-52.6-127.1   c-2.3-2.3-2.3-6.1,0-8.5c2.3-2.3,6.1-2.3,8.5,0c36.2,36.2,56.1,84.3,56.1,135.6s-19.9,99.4-56.1,135.6   C284.9,392.6,283.4,393.2,281.9,393.2z"/></g><g><path fill="#CF63CF" d="M255.3,366.7c-1.5,0-3.1-0.6-4.2-1.8c-2.3-2.3-2.3-6.1,0-8.5c26.8-26.8,41.6-62.5,41.6-100.6c0-38-14.8-73.7-41.6-100.6   c-2.3-2.3-2.3-6.1,0-8.5c2.3-2.3,6.1-2.3,8.5,0c29.1,29.1,45.1,67.8,45.1,109s-16,80-45.1,109C258.4,366.1,256.9,366.7,255.3,366.7   z"/></g><g><path fill="#CF63CF" d="M228.8,340.1c-1.5,0-3.1-0.6-4.2-1.8c-2.3-2.3-2.3-6.1,0-8.5c40.8-40.8,40.8-107.2,0-148c-2.3-2.3-2.3-6.1,0-8.5   c2.3-2.3,6.1-2.3,8.5,0c45.5,45.5,45.5,119.5,0,165C231.9,339.5,230.3,340.1,228.8,340.1z"/></g><g><path fill="#CF63CF" d="M202.3,313.6c-1.5,0-3.1-0.6-4.2-1.8c-2.3-2.3-2.3-6.1,0-8.5c26.2-26.2,26.2-68.8,0-95c-2.3-2.3-2.3-6.1,0-8.5   c2.3-2.3,6.1-2.3,8.5,0c30.9,30.9,30.9,81.1,0,112C205.3,313,203.8,313.6,202.3,313.6z"/></g><g><path fill="#CF63CF" d="M175.7,287.1c-1.5,0-3.1-0.6-4.2-1.8c-2.3-2.3-2.3-6.1,0-8.5c5.6-5.6,8.7-13,8.7-21c0-7.9-3.1-15.4-8.7-21   c-2.3-2.3-2.3-6.1,0-8.5c2.3-2.3,6.1-2.3,8.5,0c7.9,7.9,12.2,18.3,12.2,29.4c0,11.1-4.3,21.6-12.2,29.4   C178.8,286.5,177.3,287.1,175.7,287.1z"/></g></svg>
