<?xml version="1.0" encoding="utf-8"?>
<!-- Generator: Adobe Illustrator 22.0.0, SVG Export Plug-In . SVG Version: 6.00 Build 0)  -->
<svg version="1.1" id="图层_1" xmlns="http://www.w3.org/2000/svg" xmlns:xlink="http://www.w3.org/1999/xlink" x="0px" y="0px"
	 viewBox="0 0 40 40" style="enable-background:new 0 0 40 40;" xml:space="preserve">
<style type="text/css">
	.st0{fill:#F7B52C;stroke:#231815;stroke-width:0.4596;stroke-miterlimit:10;}
	.st1{opacity:0.36;fill:#FFFFFF;enable-background:new    ;}
	.st2{fill:#EB6631;}
	.st3{fill:#231815;}
	.st4{opacity:0.35;fill:#FFFFFF;enable-background:new    ;}
	.st5{fill:#EB6930;}
	.st6{fill:#FFFFFF;}
	.st7{fill:#260F06;}
	.st8{fill:#77401F;}
	.st9{fill:none;stroke:#231815;stroke-width:0.4596;stroke-miterlimit:10;}
	.st10{fill:#F3B23B;}
	.st11{opacity:0.6;fill:#F4E949;enable-background:new    ;}
	.st12{fill:#0F96AE;}
	.st13{opacity:0.8;fill:#F4E949;enable-background:new    ;}
	.st14{fill:none;stroke:#231815;stroke-width:0.7482;stroke-linecap:round;stroke-linejoin:round;stroke-miterlimit:10;}
</style>
<title>music-block-icon</title>
<g>
	<ellipse transform="matrix(0.5 -0.866 0.866 0.5 -2.0232 13.5716)" class="st0" cx="10.7" cy="8.5" rx="4.5" ry="5.5"/>
	<path class="st1" d="M13.1,4.7c-2.3-1.4-5-1-6.4,0.5c1.5-0.7,3.9-1.3,5.7-0.2c2.6,1.6,3.4,5,2.1,7.2c-0.1,0.3-0.3,0.5-0.5,0.7
		c0.6-0.3,1.3-0.8,1.7-1.6C16.7,9.4,15.7,6.3,13.1,4.7z"/>
	<ellipse transform="matrix(0.5508 -0.8346 0.8346 0.5508 -2.6336 12.6061)" class="st2" cx="10.4" cy="8.7" rx="2.9" ry="4.1"/>
	<path class="st3" d="M13,7.3c0.8,0.8,1.3,1.8,1.2,2.7C14.3,9,13.9,7.8,13,6.8c-1.6-1.6-3.9-2.1-5.4-1.2C7,6.1,6.7,6.8,6.5,7.6
		c0.1-0.5,0.4-1,0.9-1.4C9.1,5.2,11.5,5.7,13,7.3z"/>
	<ellipse transform="matrix(0.866 -0.5001 0.5001 0.866 -0.2528 16.2871)" class="st0" cx="30.3" cy="8.6" rx="5.5" ry="4.5"/>
	<path class="st1" d="M28,4.8c2.3-1.4,5-1,6.4,0.5c-1.5-0.7-3.9-1.3-5.7-0.2c-2.6,1.6-3.4,5-2.1,7.2c0.1,0.3,0.3,0.5,0.5,0.7
		c-0.6-0.3-1.3-0.8-1.7-1.6C24.3,9.5,25.3,6.4,28,4.8z"/>
	<ellipse transform="matrix(0.8346 -0.5509 0.5509 0.8346 0.1845 18.2942)" class="st2" cx="30.6" cy="8.8" rx="4.1" ry="2.9"/>
	<path class="st3" d="M28.1,7.4c-0.8,0.8-1.3,1.8-1.2,2.7c-0.2-0.9,0.2-2.2,1.2-3.1c1.6-1.6,3.9-2.1,5.4-1.2c0.6,0.4,0.9,1.2,1,1.9
		c-0.1-0.5-0.4-1-0.9-1.4C32,5.3,29.5,5.8,28.1,7.4z"/>
	<ellipse class="st0" cx="20.6" cy="14.1" rx="10.7" ry="9.1"/>
	<path class="st4" d="M20.7,6.6c5.8,0,10.5,3,10.7,8c0-0.1,0-0.2,0-0.2c0-5-4.8-9.1-10.7-9.1S10,9.4,10,14.4c0,0.1,0,0.2,0,0.2
		C10.1,9.7,14.8,6.6,20.7,6.6z"/>
	<path class="st2" d="M11.8,18.9c1.9,2.4,5.1,4,8.8,4s6.9-1.6,8.8-4c-2.3,1.6-5.5,2.5-8.8,2.5C17.3,21.4,14.1,20.5,11.8,18.9z"/>
	<ellipse class="st5" cx="16" cy="17.7" rx="1.3" ry="0.4"/>
	<ellipse class="st5" cx="25.6" cy="17.7" rx="1.3" ry="0.4"/>
	<g>
		<path class="st0" d="M20.9,15.6c0.9,0,1.2,1,1.2,2.5s-0.9,2.6-1.4,2.6c-0.3,0-1.2-1.2-1.2-2.5C19.6,16.8,19.9,15.6,20.9,15.6z"/>
		<path class="st2" d="M20.7,19.8c-0.2,0-0.9-0.9-1-2.2c0,0.1,0,0.6,0,0.8c0,1,0.7,2.2,1,2.2c0.4,0,1.2-1,1.2-2.4c0-0.2,0-0.5,0-0.7
			C21.8,18.7,21.1,19.8,20.7,19.8z"/>
		<ellipse class="st1" cx="20.9" cy="16.6" rx="0.2" ry="0.5"/>
	</g>
	<g>
		<g>
			<ellipse class="st6" cx="16.3" cy="13.9" rx="2.6" ry="2.5"/>
			<path class="st7" d="M16.3,11.8c1.4,0,2.5,1,2.6,2.3c0-0.1,0-0.1,0-0.2c0-1.4-1.2-2.5-2.6-2.5c-1.5,0-2.6,1.2-2.6,2.5
				c0,0.1,0,0.1,0,0.2C13.8,12.8,14.9,11.8,16.3,11.8z"/>
			<circle class="st8" cx="16.3" cy="14.3" r="2"/>
			<ellipse transform="matrix(0.9212 -0.3891 0.3891 0.9212 -3.9052 7.0534)" class="st6" cx="15.5" cy="13.2" rx="0.5" ry="0.6"/>
		</g>
		
			<ellipse transform="matrix(0.9971 -7.629886e-02 7.629886e-02 0.9971 -1.0595 1.2873)" class="st7" cx="16.3" cy="14.5" rx="1" ry="1.2"/>
	</g>
	<ellipse class="st9" cx="20.7" cy="13.9" rx="10.7" ry="9.1"/>
	<path class="st0" d="M20.3,5c-0.3,0-0.5,0-0.9,0c-0.6,0-1.3,0.5-1,1.8c0.1,0.3,0,0.4,0.5,1.6c0,0,0.7-0.1,1.2-1.3
		c0,0-0.2,1.8,0.7,2.5c0,0,1.7-0.7,1.5-2.6c0-0.1,0.4,0.8,0.8,1.2c0,0,1.7-2-1.3-3.1c-0.1-0.1-0.3-0.1-0.4-0.1L20.3,5z"/>
	<path class="st2" d="M21.1,8.2c-0.2,0.1-0.4,0.1-0.5-0.1C20.1,7.5,20,6.7,20,6.7c-0.2,0.2-0.3,0.2-0.5,0.3s-0.5,0-0.5-0.2
		c-0.3-0.7-0.4-1.2-0.4-1.3c-0.4,0.5,0,0.8,0.1,1.3c0,0.2,0,0.1,0.4,1c0,0,0.8-0.1,1.2-0.7c0,0-0.1,1.5,0.6,2.1c0,0,1.3-0.5,1.2-2
		C21.7,7.7,21.4,8,21.1,8.2z"/>
	<path class="st2" d="M23.1,6c0,1.7-0.9,0.5-0.9,0.7c0,0.1,0.1,0.1,0.1,0.2c0.1,0.1,0.2,0.3,0.3,0.4c0.3,0.6,0.4,0.1,0.5,0
		c0.1-0.2,0.2-0.5,0.1-0.8L23.1,6z"/>
	<ellipse class="st9" cx="20.7" cy="14.1" rx="10.7" ry="9.1"/>
	<path class="st2" d="M13.9,33c-0.6,0.5-2.4,1.2-2.4,1.2c0.5-1.2,0.1-1.5,0.2-5c0.1-3.6,2.2-4.5,2.2-4.5l3,3.4L13.9,33"/>
	<path class="st10" d="M16.5,27.9l-2.4-2.6c-0.6,0.5-1.7,1.7-1.8,4.2c-0.1,2.6,0.1,3.5,0.1,4.2c0.4-0.2,0.8-0.4,1.2-0.6L16.5,27.9z"
		/>
	<ellipse transform="matrix(0.981 -0.1938 0.1938 0.981 -4.7375 3.0796)" class="st11" cx="13.4" cy="25.8" rx="0.8" ry="0.7"/>
	<ellipse transform="matrix(0.9809 -0.1945 0.1945 0.9809 -5.4192 2.995)" class="st11" cx="12.5" cy="29.1" rx="0.8" ry="0.7"/>
	<ellipse class="st11" cx="12.1" cy="32.1" rx="0.5" ry="0.5"/>
	<path class="st9" d="M13.9,33c-0.6,0.5-2.4,1.2-2.4,1.2c0.5-1.2,0.1-1.5,0.2-5c0.1-3.6,2.2-4.5,2.2-4.5l3,3.4L13.9,33"/>
	<path class="st10" d="M27.1,32.7c0,0,2.4,1.4,2.9,1.4c0,0-0.5-0.9-0.4-2.8c0.2-2,0.6-5-1.9-6.5l-1.4-0.4l-0.6,3.9L27.1,32.7z"/>
	<path class="st2" d="M28.6,31.6c-0.1,0.8,0,1.5,0.1,2c0.6,0.3,1.5,0.7,1.7,0.6c0,0-0.5-0.9-0.4-2.8c0.1-1.9,0.6-5-1.9-6.5l-1.4-0.5
		L26.6,25h0.1C29.2,26.5,28.8,29.6,28.6,31.6z"/>
	<ellipse class="st11" cx="28.6" cy="26" rx="0.8" ry="0.7"/>
	<ellipse class="st11" cx="29.5" cy="29.1" rx="0.7" ry="0.6"/>
	<circle class="st11" cx="29.4" cy="32.7" r="0.5"/>
	<path class="st9" d="M27.4,32.9c0,0,2.4,1.4,2.9,1.4c0,0-0.5-0.9-0.4-2.8c0.2-2,0.6-5-1.9-6.5l-1.4-0.5l-0.6,3.9L27.4,32.9z"/>
	<path class="st12" d="M27.2,28.7c-0.5-1-1.2-1.7-1.2-1.7l-4.9-2.2C21,25.4,21,26,21,26.5C22.4,27.5,24.6,28.7,27.2,28.7z"/>
	<path class="st10" d="M25.9,26.4c0,0,4.6,4.6-0.2,10.8c0,0-0.5-2.5-2.3-4c-1.7-1.4-2.9-4.1-2.4-9L25.9,26.4z"/>
	<path class="st2" d="M24.7,34.4c0.5,0.7,1.2,2.4,1.2,2.4c0.5-0.6,0.5-0.9,0.8-1.6c-0.7-1.6-1.5-1.4-3-3.8c-1.2-1.7-1.5-5.7-1.5-5.7
		l-1-0.5C20.4,31.4,23.7,33.1,24.7,34.4z"/>
	<path class="st2" d="M20.6,24.6c0.5,3.6,0.3,6.3-2.3,8.7s-2.5,4.1-2.5,4.1c-4.5-6-0.7-10.6-0.7-10.6L20.6,24.6z"/>
	<path class="st10" d="M16.4,33.3c2.6-2.4,3.5-2.7,2.9-6.3l-2.3,1c-0.4,0.2-0.8,0.3-1.3,0.4L14,28.9c-0.5,1.6-0.6,3.9,0.7,6.5
		C15.1,34.9,15.6,34.1,16.4,33.3z"/>
	<ellipse class="st11" cx="15.2" cy="28.5" rx="0.9" ry="0.8"/>
	<ellipse class="st11" cx="26.2" cy="28.4" rx="0.9" ry="0.8"/>
	<ellipse class="st11" cx="26.9" cy="31.3" rx="0.9" ry="0.8"/>
	<ellipse class="st11" cx="26.6" cy="34.5" rx="0.7" ry="0.7"/>
	<ellipse transform="matrix(0.9809 -0.1946 0.1946 0.9809 -5.7568 3.3827)" class="st11" cx="14.3" cy="31" rx="0.8" ry="0.7"/>
	<ellipse class="st11" cx="14.6" cy="34.1" rx="0.6" ry="0.6"/>
	<path class="st9" d="M18.1,22.2c0,0-4.5-2.8-4.1,2.5c0.4,5.1,7.2,0.1,10.8-1.6c0.6-0.3-1.6-1.7-3.5-1.9
		C19.4,21.2,18.1,22.2,18.1,22.2z"/>
	<path class="st9" d="M20.7,24.7c0.5,3.6,0.3,6.3-2.3,8.7c-2.6,2.4-2.5,4.1-2.5,4.1c-4.5-6-0.7-10.6-0.7-10.6L20.7,24.7z"/>
	<path class="st9" d="M25.9,26.5c0,0,4.6,4.6-0.2,10.8c0,0-0.5-2.5-2.3-4c-1.7-1.4-2.9-4.1-2.4-9L25.9,26.5z"/>
	<path class="st10" d="M20.7,24.7c0,0,5.8,4,6.9,1c1.2-2.9-0.9-5.2-4.5-3.4"/>
	<path class="st9" d="M20.6,24.7c0,0,5.8,4,6.9,1c1.2-2.9-0.9-5.2-4.5-3.4"/>
	<path class="st2" d="M27,24.9c0.3-0.8,0.4-1.6,0.2-2.2c-0.7-0.9-2.3-1.3-4.3-0.2l-1.8,1.9C22.8,25.3,26.2,27,27,24.9z"/>
	<circle class="st13" cx="24.2" cy="24" r="0.6"/>
	<ellipse class="st13" cx="26.5" cy="23.2" rx="0.6" ry="0.6"/>
	<path class="st2" d="M18.1,22.2c0,0-4.5-2.8-4.1,2.5c0.4,5.1,7.2,0.1,10.8-1.6c0.6-0.3-1.6-1.7-3.5-1.9
		C19.5,21.2,18.1,22.2,18.1,22.2z"/>
	<path class="st10" d="M14.4,22.9c-0.1,0.4-0.1,0.8-0.1,1.6c0.1,2.9,2.1,3.1,7,0.4C16.3,25.6,15.1,24.2,14.4,22.9z"/>
	<ellipse class="st11" cx="18.7" cy="22.6" rx="0.9" ry="0.8"/>
	<ellipse class="st11" cx="15.2" cy="22.7" rx="0.9" ry="0.8"/>
	<ellipse class="st11" cx="22.3" cy="22.3" rx="0.9" ry="0.8"/>
	<path class="st9" d="M18.1,22.2c0,0-4.5-2.8-4.1,2.5c0.4,5.1,7.2,0.1,10.8-1.6c0.6-0.3-1.6-1.7-3.5-1.9
		C19.4,21.2,18.1,22.2,18.1,22.2z"/>
	<path class="st1" d="M18.4,5.5c0,0,1.5-0.3,4.2,0c0,0-0.2-0.1-0.7-0.2c-0.7-0.1-1.6-0.2-3.1,0.1L18.4,5.5z"/>
	<path class="st9" d="M20.3,4.8c-0.3,0-0.6,0-0.9,0.1c-0.6,0.1-1.3,0.6-1,1.8c0.1,0.3,0,0.4,0.5,1.6c0,0,0.7-0.1,1.2-1.3
		c0,0-0.2,1.8,0.7,2.5c0,0,1.7-0.7,1.5-2.6c0-0.1,0.4,0.8,0.8,1.2c0,0,1.7-2-1.3-3.1c-0.1-0.1-0.3-0.1-0.4-0.1H20.3z"/>
	<polyline class="st14" points="26.2,12.6 23.7,13.7 26,15.1 	"/>
</g>
</svg>
