<?xml version="1.0" encoding="utf-8"?>
<!-- Generator: Adobe Illustrator 16.0.0, SVG Export Plug-In . SVG Version: 6.00 Build 0)  -->
<!DOCTYPE svg PUBLIC "-//W3C//DTD SVG 1.1//EN" "http://www.w3.org/Graphics/SVG/1.1/DTD/svg11.dtd">
<svg version="1.1" id="图层_1" xmlns="http://www.w3.org/2000/svg" xmlns:xlink="http://www.w3.org/1999/xlink" x="0px" y="0px"
	 width="108px" height="48px" viewBox="0 0 108 48" enable-background="new 0 0 108 48" xml:space="preserve">
<linearGradient id="SVGID_1_" gradientUnits="userSpaceOnUse" x1="53.9995" y1="0" x2="53.9995" y2="48.0005">
	<stop  offset="0" style="stop-color:#C6FF94"/>
	<stop  offset="1" style="stop-color:#296100"/>
</linearGradient>
<rect fill="url(#SVGID_1_)" width="108" height="48"/>
<g>
	
		<ellipse transform="matrix(-0.866 -0.5 0.5 -0.866 139.3745 73.1715)" fill="#F7B52C" stroke="#231815" stroke-width="0.4378" stroke-miterlimit="10" cx="79.49" cy="17.914" rx="5.2" ry="4.3"/>
	<path opacity="0.36" fill="#FFFFFF" enable-background="new    " d="M81.7,14.3c-2.2-1.3-4.8-1-6.101,0.5c1.4-0.7,3.7-1.2,5.4-0.2
		c2.5,1.5,3.2,4.8,2,6.9c-0.1,0.3-0.3,0.5-0.5,0.7c0.6-0.3,1.2-0.8,1.6-1.5C85.2,18.7,84.2,15.8,81.7,14.3z"/>
	
		<ellipse transform="matrix(-0.8346 -0.5508 0.5508 -0.8346 135.2515 76.8335)" fill="#EB6631" cx="79.159" cy="18.114" rx="3.9" ry="2.8"/>
	<path fill="#231815" d="M81.6,16.7c0.801,0.8,1.2,1.7,1.101,2.6c0.2-0.9-0.2-2.1-1.101-3c-1.5-1.5-3.699-2-5.1-1.1
		c-0.6,0.4-0.9,1.1-1,1.8c0.1-0.5,0.4-1,0.9-1.3C77.9,14.7,80.2,15.2,81.6,16.7z"/>
	
		<ellipse transform="matrix(-0.5001 -0.866 0.866 -0.5001 131.5568 111.9241)" fill="#F7B52C" stroke="#231815" stroke-width="0.4378" stroke-miterlimit="10" cx="98.084" cy="17.99" rx="4.3" ry="5.2"/>
	<path opacity="0.36" fill="#FFFFFF" enable-background="new    " d="M95.9,14.4c2.199-1.3,4.8-1,6.1,0.5c-1.4-0.7-3.7-1.2-5.4-0.2
		c-2.5,1.5-3.199,4.8-2,6.9c0.101,0.3,0.301,0.5,0.5,0.7c-0.6-0.3-1.199-0.8-1.6-1.5C92.4,18.8,93.4,15.9,95.9,14.4z"/>
	
		<ellipse transform="matrix(-0.5509 -0.8346 0.8346 -0.5509 137.3643 110.3259)" fill="#EB6631" cx="98.368" cy="18.202" rx="2.8" ry="3.9"/>
	<path fill="#231815" d="M96,16.8c-0.8,0.8-1.2,1.7-1.1,2.6c-0.2-0.9,0.199-2.1,1.1-3c1.5-1.5,3.7-2,5.1-1.1
		c0.601,0.4,0.9,1.1,1,1.8c-0.1-0.5-0.399-1-0.899-1.3C99.7,14.8,97.4,15.3,96,16.8z"/>
	
		<ellipse fill="#F7B52C" stroke="#231815" stroke-width="0.4378" stroke-miterlimit="10" cx="88.9" cy="23.2" rx="10.199" ry="8.7"/>
	<path opacity="0.35" fill="#FFFFFF" enable-background="new    " d="M89,16.1c5.5,0,10,2.9,10.2,7.6c0-0.101,0-0.2,0-0.2
		c0-4.8-4.601-8.7-10.2-8.7s-10.2,3.9-10.2,8.7c0,0.1,0,0.2,0,0.2C78.9,19,83.4,16.1,89,16.1z"/>
	<path fill="#EB6631" d="M80.5,27.8c1.8,2.3,4.9,3.8,8.4,3.8s6.6-1.5,8.399-3.8c-2.2,1.5-5.2,2.4-8.399,2.4
		C85.7,30.2,82.7,29.3,80.5,27.8z"/>
	<ellipse fill="#EB6930" cx="84.5" cy="26.6" rx="1.2" ry="0.4"/>
	<ellipse fill="#EB6930" cx="93.6" cy="26.6" rx="1.2" ry="0.4"/>
	<g>
		<path fill="#F7B52C" stroke="#231815" stroke-width="0.4378" stroke-miterlimit="10" d="M89.2,24.6c0.899,0,1.1,1,1.1,2.4
			S89.4,29.5,89,29.5c-0.3,0-1.1-1.1-1.1-2.4C87.9,25.8,88.2,24.6,89.2,24.6z"/>
		<path fill="#EB6631" d="M89,28.6c-0.2,0-0.9-0.899-1-2.1c0,0.1,0,0.6,0,0.8c0,1,0.7,2.101,1,2.101c0.4,0,1.1-1,1.1-2.301
			c0-0.199,0-0.5,0-0.699C90,27.6,89.4,28.6,89,28.6z"/>
		<ellipse opacity="0.36" fill="#FFFFFF" enable-background="new    " cx="89.2" cy="25.6" rx="0.2" ry="0.5"/>
	</g>
	<g>
		<g>
			<ellipse fill="#FFFFFF" cx="84.8" cy="23" rx="2.5" ry="2.4"/>
			<path fill="#260F06" d="M84.8,21c1.3,0,2.4,1,2.5,2.2c0-0.1,0-0.1,0-0.2c0-1.3-1.1-2.4-2.5-2.4c-1.399,0-2.5,1.1-2.5,2.4
				c0,0.1,0,0.1,0,0.2C82.4,22,83.5,21,84.8,21z"/>
			<circle fill="#77401F" cx="84.8" cy="23.4" r="1.9"/>
			
				<ellipse transform="matrix(-0.3891 -0.9212 0.9212 -0.3891 96.1016 108.3741)" fill="#FFFFFF" cx="83.983" cy="22.323" rx="0.6" ry="0.499"/>
		</g>
		
			<ellipse transform="matrix(-0.0763 -0.9971 0.9971 -0.0763 67.7411 109.9574)" fill="#260F06" cx="84.801" cy="23.602" rx="1.1" ry="1"/>
	</g>
	<ellipse fill="none" stroke="#231815" stroke-width="0.4378" stroke-miterlimit="10" cx="89" cy="23" rx="10.2" ry="8.7"/>
	<path fill="#F7B52C" stroke="#231815" stroke-width="0.4378" stroke-miterlimit="10" d="M88.6,14.5c-0.3,0-0.5,0-0.899,0
		c-0.601,0-1.2,0.5-1,1.7c0.1,0.3,0,0.4,0.5,1.5c0,0,0.7-0.1,1.1-1.2c0,0-0.2,1.7,0.7,2.4c0,0,1.6-0.7,1.4-2.5
		c0-0.1,0.399,0.8,0.8,1.1c0,0,1.6-1.9-1.2-3c-0.1-0.1-0.3-0.1-0.4-0.1L88.6,14.5z"/>
	<path fill="#EB6631" d="M89.4,17.6c-0.2,0.1-0.4,0.1-0.5-0.1c-0.5-0.6-0.601-1.3-0.601-1.3c-0.2,0.2-0.3,0.2-0.5,0.3
		s-0.5,0-0.5-0.2C87,15.6,86.9,15.2,86.9,15.1c-0.4,0.5,0,0.8,0.1,1.2c0,0.2,0,0.1,0.4,1c0,0,0.8-0.1,1.1-0.7c0,0-0.1,1.4,0.6,2
		c0,0,1.2-0.5,1.101-1.9C89.9,17.1,89.6,17.4,89.4,17.6z"/>
	<path fill="#EB6631" d="M91.3,15.5c0,1.6-0.899,0.5-0.899,0.7c0,0.1,0.1,0.1,0.1,0.2c0.1,0.1,0.2,0.3,0.3,0.4
		c0.3,0.6,0.4,0.1,0.5,0c0.101-0.2,0.2-0.5,0.101-0.8L91.3,15.5z"/>
	<ellipse fill="none" stroke="#231815" stroke-width="0.4378" stroke-miterlimit="10" cx="89" cy="23.2" rx="10.2" ry="8.7"/>
	<path fill="#EB6631" d="M82.5,41.2c-0.6,0.5-2.3,1.1-2.3,1.1c0.5-1.1,0.1-1.399,0.2-4.8c0.1-3.4,2.1-4.3,2.1-4.3l2.9,3.2L82.5,41.2
		"/>
	<path fill="#F3B23B" d="M85,36.4l-2.3-2.5c-0.601,0.5-1.601,1.6-1.7,4c-0.1,2.5,0.1,3.3,0.1,4c0.4-0.2,0.801-0.4,1.101-0.601
		L85,36.4z"/>
	
		<ellipse transform="matrix(-0.1938 -0.981 0.981 -0.1938 64.2332 121.3959)" opacity="0.6" fill="#F4E949" enable-background="new    " cx="81.995" cy="34.306" rx="0.7" ry="0.799"/>
	
		<ellipse transform="matrix(-0.1945 -0.9809 0.9809 -0.1945 60.2252 124.4409)" opacity="0.6" fill="#F4E949" enable-background="new    " cx="81.207" cy="37.493" rx="0.7" ry="0.801"/>
	<ellipse opacity="0.6" fill="#F4E949" enable-background="new    " cx="80.81" cy="40.404" rx="0.5" ry="0.5"/>
	<path fill="none" stroke="#231815" stroke-width="0.4378" stroke-miterlimit="10" d="M82.5,41.2c-0.6,0.5-2.3,1.1-2.3,1.1
		c0.5-1.1,0.1-1.399,0.2-4.8c0.1-3.4,2.1-4.3,2.1-4.3l2.9,3.2L82.5,41.2"/>
	<path fill="#F3B23B" d="M95.1,40.9c0,0,2.301,1.3,2.801,1.3c0,0-0.5-0.9-0.4-2.7c0.2-1.9,0.6-4.8-1.8-6.2L94.4,32.9L93.8,36.6
		L95.1,40.9z"/>
	<path fill="#EB6631" d="M96.5,39.9c-0.1,0.8,0,1.399,0.1,1.899C97.2,42.1,98,42.5,98.2,42.4c0,0-0.5-0.9-0.4-2.7
		c0.101-1.8,0.601-4.8-1.8-6.2L94.7,33L94.6,33.6H94.7C97.1,35,96.7,38,96.5,39.9z"/>
	<ellipse opacity="0.6" fill="#F4E949" enable-background="new    " cx="96.5" cy="34.5" rx="0.8" ry="0.7"/>
	<ellipse opacity="0.6" fill="#F4E949" enable-background="new    " cx="97.4" cy="37.5" rx="0.699" ry="0.6"/>
	<circle opacity="0.6" fill="#F4E949" enable-background="new    " cx="97.3" cy="40.9" r="0.5"/>
	<path fill="none" stroke="#231815" stroke-width="0.4378" stroke-miterlimit="10" d="M95.4,41.1c0,0,2.3,1.301,2.8,1.301
		c0,0-0.5-0.9-0.4-2.7c0.2-1.9,0.601-4.8-1.8-6.2L94.7,33L94.1,36.7L95.4,41.1z"/>
	<path fill="#0F96AE" d="M95.2,37.1c-0.5-1-1.101-1.6-1.101-1.6L89.4,33.4C89.3,34,89.3,34.5,89.3,35C90.6,36,92.7,37.1,95.2,37.1z"
		/>
	<path fill="#F3B23B" d="M93.9,34.9c0,0,4.399,4.399-0.2,10.3c0,0-0.5-2.4-2.2-3.8c-1.6-1.301-2.8-3.9-2.3-8.601L93.9,34.9z"/>
	<path fill="#EB6631" d="M92.8,42.5c0.5,0.7,1.101,2.3,1.101,2.3c0.5-0.6,0.5-0.899,0.8-1.5c-0.7-1.5-1.4-1.3-2.9-3.6
		C90.7,38.1,90.4,34.3,90.4,34.3l-1-0.5C88.7,39.7,91.8,41.3,92.8,42.5z"/>
	<path fill="#EB6631" d="M88.9,33.2c0.5,3.399,0.3,6-2.2,8.3s-2.4,3.9-2.4,3.9C80,39.7,83.6,35.3,83.6,35.3L88.9,33.2z"/>
	<path fill="#F3B23B" d="M84.9,41.5c2.5-2.3,3.3-2.6,2.8-6l-2.2,1c-0.4,0.2-0.8,0.3-1.2,0.4L82.6,37.3c-0.5,1.5-0.6,3.7,0.7,6.2
		C83.6,43,84.1,42.3,84.9,41.5z"/>
	<ellipse opacity="0.6" fill="#F4E949" enable-background="new    " cx="83.7" cy="36.9" rx="0.899" ry="0.8"/>
	<ellipse opacity="0.6" fill="#F4E949" enable-background="new    " cx="94.2" cy="36.8" rx="0.899" ry="0.8"/>
	<ellipse opacity="0.6" fill="#F4E949" enable-background="new    " cx="94.9" cy="39.6" rx="0.899" ry="0.8"/>
	<ellipse opacity="0.6" fill="#F4E949" enable-background="new    " cx="94.6" cy="42.6" rx="0.7" ry="0.7"/>
	
		<ellipse transform="matrix(-0.1946 -0.9809 0.9809 -0.1946 60.503 128.2802)" opacity="0.6" fill="#F4E949" enable-background="new    " cx="82.915" cy="39.302" rx="0.7" ry="0.8"/>
	<ellipse opacity="0.6" fill="#F4E949" enable-background="new    " cx="83.18" cy="42.278" rx="0.6" ry="0.6"/>
	<path fill="none" stroke="#231815" stroke-width="0.4378" stroke-miterlimit="10" d="M86.5,30.9c0,0-4.3-2.7-3.9,2.399
		C83,38.2,89.5,33.4,92.9,31.8c0.6-0.3-1.5-1.6-3.301-1.8C87.7,30,86.5,30.9,86.5,30.9z"/>
	<path fill="none" stroke="#231815" stroke-width="0.4378" stroke-miterlimit="10" d="M89,33.3c0.5,3.4,0.3,6-2.2,8.3
		C84.3,43.9,84.4,45.5,84.4,45.5c-4.301-5.7-0.7-10.1-0.7-10.1L89,33.3z"/>
	<path fill="none" stroke="#231815" stroke-width="0.4378" stroke-miterlimit="10" d="M93.9,35c0,0,4.399,4.4-0.2,10.3
		c0,0-0.5-2.399-2.2-3.8c-1.6-1.3-2.8-3.9-2.3-8.6L93.9,35z"/>
	<path fill="#F3B23B" d="M89,33.3c0,0,5.5,3.8,6.6,1c1.101-2.8-0.899-5-4.3-3.2"/>
	<path fill="none" stroke="#231815" stroke-width="0.4378" stroke-miterlimit="10" d="M88.9,33.3c0,0,5.5,3.8,6.6,1s-0.9-5-4.3-3.2"
		/>
	<path fill="#EB6631" d="M95,33.5c0.3-0.8,0.4-1.5,0.2-2.1c-0.7-0.9-2.2-1.2-4.101-0.2L89.4,33C91,33.9,94.2,35.5,95,33.5z"/>
	<circle opacity="0.8" fill="#F4E949" enable-background="new    " cx="92.3" cy="32.6" r="0.6"/>
	<ellipse opacity="0.8" fill="#F4E949" enable-background="new    " cx="94.5" cy="31.9" rx="0.6" ry="0.6"/>
	<path fill="#EB6631" d="M86.5,30.9c0,0-4.3-2.7-3.9,2.399C83,38.2,89.5,33.4,92.9,31.8c0.6-0.3-1.5-1.6-3.301-1.8
		C87.8,30,86.5,30.9,86.5,30.9z"/>
	<path fill="#F3B23B" d="M83,31.6c-0.1,0.4-0.1,0.801-0.1,1.5c0.1,2.801,2,3,6.699,0.4C84.8,34.2,83.6,32.8,83,31.6z"/>
	<ellipse opacity="0.6" fill="#F4E949" enable-background="new    " cx="87.1" cy="31.3" rx="0.9" ry="0.8"/>
	<ellipse opacity="0.6" fill="#F4E949" enable-background="new    " cx="83.7" cy="31.4" rx="0.899" ry="0.8"/>
	<ellipse opacity="0.6" fill="#F4E949" enable-background="new    " cx="90.5" cy="31" rx="0.9" ry="0.8"/>
	<path fill="none" stroke="#231815" stroke-width="0.4378" stroke-miterlimit="10" d="M86.5,30.9c0,0-4.3-2.7-3.9,2.399
		C83,38.2,89.5,33.4,92.9,31.8c0.6-0.3-1.5-1.6-3.301-1.8C87.7,30,86.5,30.9,86.5,30.9z"/>
	<path opacity="0.36" fill="#FFFFFF" enable-background="new    " d="M86.8,15c0,0,1.4-0.3,4,0c0,0-0.2-0.1-0.7-0.2
		c-0.699-0.1-1.5-0.2-3,0.1L86.8,15z"/>
	<path fill="none" stroke="#231815" stroke-width="0.4378" stroke-miterlimit="10" d="M88.6,14.4c-0.3,0-0.6,0-0.899,0.1
		c-0.601,0.1-1.2,0.6-1,1.7c0.1,0.3,0,0.4,0.5,1.5c0,0,0.7-0.1,1.1-1.2c0,0-0.2,1.7,0.7,2.4c0,0,1.6-0.7,1.4-2.5
		c0-0.1,0.399,0.8,0.8,1.1c0,0,1.6-1.9-1.2-3c-0.1-0.1-0.3-0.1-0.4-0.1H88.6z"/>
	
		<polyline fill="none" stroke="#231815" stroke-width="0.7127" stroke-linecap="round" stroke-linejoin="round" stroke-miterlimit="10" points="
		94.2,21.8 91.8,22.8 94,24.2 	"/>
</g>
<g>
	<g>
		<path fill="#A38345" d="M40.229,4.588c-1.34-1.085-6.727-1.195-7.346,0c-0.62,1.194-0.974,9.691,0,10.311
			c0.973,0.62,6.329,0.752,7.346-0.442C41.247,13.262,41.158,5.341,40.229,4.588z"/>
		<path fill="#BD9751" d="M39.787,5.195c-1.176-0.952-5.904-1.048-6.447,0c-0.544,1.049-0.854,8.506,0,9.05
			c0.854,0.543,5.554,0.66,6.447-0.389C40.68,12.808,40.603,5.855,39.787,5.195z"/>
		<path fill="#783D28" d="M32.382,7.776c0.028-0.398,0.061-0.779,0.099-1.132c1.212-0.21,2.515-0.25,3.542-0.302
			c1.584-0.081,3.19-0.079,4.767,0.136c0.024,0.191,0.046,0.391,0.065,0.599c-1.612-0.032-3.22-0.068-4.832,0.102
			c-1.088,0.115-2.175,0.268-3.245,0.502C32.646,7.71,32.514,7.743,32.382,7.776z M40.78,12.582
			c0.028-0.207,0.052-0.427,0.074-0.653c-1.575,0.063-3.136,0.146-4.724,0.045c-1.283-0.081-2.567-0.414-3.846-0.638
			c0.008,0.445,0.025,0.871,0.052,1.267c1.114,0.164,2.278,0.188,3.302,0.231C37.317,12.908,39.09,12.871,40.78,12.582z"/>
		<path fill="#967A3F" d="M35.674,9.002c0.128-3.039,2.036-4.378,3.396-4.929c-2.076-0.564-5.687-0.451-6.187,0.515
			c-0.62,1.194-0.974,9.691,0,10.311c0.515,0.328,2.258,0.52,3.936,0.45C36.251,14.062,35.553,11.863,35.674,9.002z"/>
		<path fill="#A38345" d="M35.674,9.002c0.099-2.339,1.251-3.669,2.397-4.41c-1.837-0.309-4.344-0.145-4.731,0.602
			c-0.544,1.049-0.854,8.506,0,9.05c0.426,0.271,1.807,0.436,3.196,0.403C36.046,13.327,35.573,11.398,35.674,9.002z"/>
		<g>
			<path fill="#63301C" d="M32.778,7.68c1.068-0.234,2.152-0.387,3.238-0.501c0.11-0.311,0.241-0.595,0.391-0.854
				c-0.128,0.005-0.256,0.01-0.384,0.017c-1.027,0.052-2.329,0.092-3.542,0.302c-0.017,0.16-0.033,0.327-0.048,0.497
				c-0.003,0.036-0.006,0.072-0.009,0.107c-0.015,0.172-0.029,0.348-0.042,0.528C32.514,7.743,32.646,7.71,32.778,7.68z"/>
			<path fill="#63301C" d="M35.837,11.949c-1.185-0.108-2.372-0.405-3.553-0.613c0.008,0.445,0.025,0.87,0.052,1.265
				c0,0,0,0,0,0.001c1.114,0.164,2.278,0.188,3.302,0.231c0.123,0.005,0.246,0.009,0.37,0.013
				C35.943,12.562,35.886,12.263,35.837,11.949z"/>
		</g>
	</g>
	<g>
		<path fill="#783D28" d="M30.151,4.478c-0.465-0.462-1.301-0.326-1.899-0.306c-0.502,0.015-1.536-0.063-1.842,0.459
			c-0.295,0.504,0.061,1.42,0.279,1.891c0.123,0.266,0.553,0.133,0.541-0.146c-0.016-0.37-0.04-0.738-0.038-1.109
			c0.001-0.221,0.913-0.186,1.06-0.193c0.393-0.02,0.786-0.01,1.179,0.009c0.078,0.003-0.066,1.024-0.077,1.117
			c-0.064,0.578,0.839,0.571,0.902,0C30.309,5.719,30.556,4.882,30.151,4.478z"/>
		<path fill="#D9EDE4" d="M23.379,6.623c-1.084,1.34-1.195,6.727,0,7.347c1.195,0.62,9.692,0.974,10.311,0
			c0.62-0.974,0.752-6.329-0.442-7.347C32.053,5.606,24.131,5.694,23.379,6.623z"/>
		<path fill="#8DB597" d="M23.986,7.065c-0.952,1.176-1.048,5.903,0,6.448c1.048,0.544,8.506,0.854,9.05,0
			c0.543-0.855,0.66-5.554-0.389-6.448C31.599,6.171,24.646,6.249,23.986,7.065z"/>
		<path fill="#783D28" d="M26.567,14.47c-0.398-0.028-0.779-0.062-1.132-0.1c-0.21-1.212-0.25-2.515-0.302-3.541
			c-0.081-1.584-0.08-3.191,0.135-4.767c0.191-0.024,0.391-0.046,0.599-0.065c-0.032,1.613-0.068,3.219,0.102,4.832
			c0.114,1.088,0.267,2.175,0.503,3.244C26.501,14.207,26.534,14.338,26.567,14.47z M31.373,6.072
			c-0.208-0.028-0.426-0.052-0.653-0.074c0.063,1.575,0.146,3.136,0.046,4.724c-0.082,1.283-0.415,2.568-0.638,3.846
			c0.445-0.008,0.871-0.025,1.266-0.052c0.164-1.113,0.187-2.278,0.231-3.303C31.698,9.536,31.661,7.762,31.373,6.072z"/>
		<path fill="#C3D6CE" d="M27.793,11.178c-3.039-0.128-4.379-2.037-4.929-3.396c-0.563,2.077-0.451,5.687,0.515,6.187
			c1.195,0.62,9.692,0.974,10.311,0c0.328-0.516,0.52-2.259,0.45-3.937C32.852,10.601,30.653,11.299,27.793,11.178z"/>
		<path fill="#799B82" d="M27.793,11.178c-2.339-0.099-3.669-1.251-4.41-2.397c-0.31,1.837-0.145,4.345,0.603,4.732
			c1.048,0.544,8.506,0.854,9.05,0c0.271-0.426,0.436-1.808,0.403-3.197C32.118,10.806,30.189,11.279,27.793,11.178z"/>
		<g>
			<path fill="#63301C" d="M26.472,14.074c-0.236-1.067-0.388-2.151-0.502-3.237c-0.311-0.11-0.596-0.242-0.854-0.391
				c0.005,0.128,0.01,0.256,0.017,0.384c0.052,1.026,0.092,2.329,0.302,3.541c0.159,0.017,0.326,0.033,0.496,0.048
				c0.036,0.003,0.072,0.006,0.108,0.01c0.172,0.015,0.348,0.029,0.528,0.042C26.534,14.338,26.501,14.207,26.472,14.074z"/>
			<path fill="#63301C" d="M30.74,11.015c-0.108,1.186-0.406,2.372-0.612,3.553c0.444-0.008,0.87-0.025,1.265-0.051
				c0,0,0.001,0,0.001,0c0.164-1.113,0.187-2.278,0.231-3.303c0.005-0.123,0.009-0.246,0.013-0.369
				C31.353,10.909,31.053,10.966,30.74,11.015z"/>
		</g>
	</g>
	<g>
		<path fill="#23150F" d="M44.625,34.98c4.362-0.069,5.529,4.412,5.423,6.752c-0.106,2.339-4.625,6.06-8.56,2.127
			C37.553,39.925,41.275,35.034,44.625,34.98z"/>
		<path fill="#23150F" d="M17.717,34.322c4.58-0.072,5.806,4.633,5.694,7.091c-0.112,2.456-4.857,6.365-8.989,2.233
			C10.292,39.515,14.199,34.379,17.717,34.322z"/>
		<path fill="#FDBC11" d="M25.906,13.78c0,0-2.461-1.262-4.417-1.388c-1.957-0.126-2.335,0.379-1.767,0.82s1.831,1.452,1.893,2.02
			C21.678,15.799,25.906,13.78,25.906,13.78z"/>
		<path fill="#F6921E" d="M21.489,12.392c0.265,0.017,0.539,0.056,0.815,0.109c-1.505-0.012-1.771,0.438-1.257,0.837
			c0.484,0.376,1.47,1.165,1.791,1.742c-0.675,0.233-1.201,0.349-1.223,0.151c-0.063-0.568-1.325-1.578-1.893-2.02
			S19.532,12.265,21.489,12.392z"/>
		<path fill="#FFF9BB" d="M55.41,30.504c0,0,2.178,0.568,3.282,2.303c1.104,1.736,1.167,4.893,1.104,5.176
			c-0.063,0.285-4.354-1.861-4.26-1.799c0.095,0.063-0.946-2.713-0.946-2.713S55.537,30.441,55.41,30.504z"/>
		<path fill="#FFCE84" d="M55.41,30.504c0,0,0.756,0.197,1.604,0.715c-0.19,0.006-0.609,0.156-0.939,1.242
			c-0.442,1.451,1.355,3.281,2.113,3.754c0.476,0.299,1.161,0.645,1.607,0.862c0.028,0.481,0.021,0.821,0.002,0.905
			c-0.063,0.285-4.354-1.861-4.26-1.799c0.095,0.063-0.946-2.713-0.946-2.713S55.537,30.441,55.41,30.504z"/>
		<path fill="#EC1C24" d="M12.875,29.432c0,0-2.083-0.426-2.84,0.095s-1.136,4.496-0.757,5.158c0.378,0.663,1.325,0.379,1.325,0.379
			L12.875,29.432z"/>
		<path fill="#E13F33" d="M40.485,14.411c2.002,1.001,6.312,7.005,7.763,12.938c0,0,6.816,2.461,7.447,2.903
			c0,0-0.188,3.85,0.38,4.859c0.566,1.01,4.038,2.714,4.038,2.714s0.252,1.199-0.063,1.957L9.94,38.646c0,0-0.126-5.428,1.325-8.268
			c1.451-2.84,6.374-4.291,6.374-4.291s0.443-8.998,3.724-11.549C23.066,13.212,37.33,12.833,40.485,14.411z"/>
		<path fill="#BB3328" d="M31.571,38.377c0,0,0.473-10.696,0.236-10.98c-0.236-0.284-0.804,10.98-0.804,10.98H31.571z"/>
		<path fill="#FDBC11" d="M60.05,39.276c0.749,0.144,1.514,3.029-0.063,4.165c-1.578,1.136-17.04-0.378-27.327-0.694
			c-10.287-0.314-22.088-0.063-23.098-0.882c-1.011-0.821-0.884-3.03,0.441-3.725C11.328,37.446,54.433,38.204,60.05,39.276z"/>
		<path fill="#F6921E" d="M9.841,38.242c-0.006,0.66,0.217,1.301,0.667,1.665c1.01,0.821,12.812,0.568,23.098,0.885
			c10.236,0.313,25.595,1.814,27.301,0.71c-0.028,0.734-0.283,1.48-0.921,1.939c-1.578,1.136-17.04-0.378-27.327-0.694
			c-10.287-0.314-22.088-0.063-23.098-0.882C8.595,41.079,8.672,39.026,9.841,38.242z"/>
		<path fill="#C4E8FA" d="M39.539,15.61c2.691,1.01,6.438,9.783,6.753,10.54c0.315,0.758-13.001,0.758-13.316,0.189
			c-0.316-0.567-0.568-8.962,0.189-10.224C33.921,14.853,38.023,15.042,39.539,15.61z"/>
		<path fill="#BB3328" d="M39.254,15.989c-1.401-0.525-5.02-0.726-6.15,0.249c0.02-0.046,0.04-0.087,0.061-0.122
			c0.757-1.263,4.859-1.073,6.374-0.505c2.691,1.01,6.438,9.783,6.753,10.54c0.035,0.083-0.094,0.156-0.351,0.222
			C45.344,24.968,41.82,16.951,39.254,15.989z"/>
		<path fill="#BB3328" d="M45.755,24.37c1.227,0.689,2.064,2.358,0.531,4.07c-1.534,1.71-5.014,1.887-5.958,0.648
			s-0.177-3.717,0.708-4.602C41.921,23.604,44.812,23.84,45.755,24.37z"/>
		<path fill="#9A271C" d="M41.037,24.487c0.125-0.125,0.292-0.227,0.486-0.311c-0.375,1.064-0.47,2.355,0.132,3.146
			c0.835,1.098,3.662,1.082,5.362-0.125c-0.12,0.402-0.353,0.821-0.73,1.243c-1.534,1.71-5.014,1.887-5.958,0.648
			S40.152,25.372,41.037,24.487z"/>
		<path fill="#41322B" d="M35.436,28.928c0.491,0.049,0.505,0.882,0.126,1.072c-0.379,0.188-2.777,0.568-3.093,0.252
			c-0.315-0.315-0.189-0.884,0-1.136C32.659,28.864,34.805,28.864,35.436,28.928z"/>
		<path fill="#41322B" d="M22.057,28.896c0.412,0.094,0.188,0.946,0,1.136c-0.189,0.188-2.651,0.568-3.029,0.252
			c-0.379-0.314-0.189-0.883,0.063-1.136C19.343,28.896,21.237,28.706,22.057,28.896z"/>
		<path fill="#C4E8FA" d="M30.514,16.115c0.606,0.417,1.452,8.835,0.315,10.098s-10.729,0.189-11.17-0.126
			c-0.442-0.315,1.704-8.583,3.03-9.783C24.013,15.106,29.504,15.421,30.514,16.115z"/>
		<path fill="#BB3328" d="M22.688,16.304c1.324-1.198,6.815-0.883,7.825-0.189c0.062,0.042,0.125,0.169,0.19,0.36
			c-1.08-0.681-6.481-0.98-7.795,0.208c-1.193,1.079-3.051,7.887-3.087,9.464c-0.082-0.021-0.138-0.042-0.163-0.061
			C19.217,25.771,21.363,17.504,22.688,16.304z"/>
		<path fill="#BB3328" d="M45.297,36.721c0,0,0.52-6.911,0.378-7.053s-0.852,7.242-0.852,7.242L45.297,36.721z"/>
		<path fill="#41322B" d="M47.491,34.416c5.178-0.082,6.563,5.24,6.437,8.017c-0.127,2.776-5.49,7.194-10.161,2.524
			C39.097,40.287,43.515,34.479,47.491,34.416z"/>
		<path fill="#342620" d="M45.933,34.721c-2.664,1.897-4.222,6.002-0.747,9.479c2.205,2.204,4.563,2.383,6.453,1.667
			c-2.02,1.422-5.071,1.892-7.873-0.909C39.706,40.896,42.517,35.977,45.933,34.721z"/>
		<path fill="#E13F33" d="M48.374,38.268c1.116-0.212,3.218,3.66,0.631,4.733C46.417,44.073,43.704,39.15,48.374,38.268z"/>
		<path fill="#BB3328" d="M47.463,38.522c-1.414,1.622,0.471,4.329,2.425,3.807c-0.198,0.273-0.484,0.506-0.883,0.672
			C46.607,43.994,44.103,39.842,47.463,38.522z"/>
		<path fill="#BB3328" d="M18.034,35.206c0,0,0.474-7.005,0.142-7.1s-0.805,7.715-0.805,7.715"/>
		<path fill="#41322B" d="M20.156,33.786c5.437-0.086,6.892,5.501,6.76,8.417c-0.133,2.917-5.767,7.556-10.671,2.65
			C11.341,39.949,15.981,33.853,20.156,33.786z"/>
		<path fill="#342620" d="M18.252,34.21c-2.584,2.09-3.945,6.197-0.445,9.697c2.427,2.427,5.031,2.517,7.06,1.636
			c-2.107,1.692-5.511,2.423-8.622-0.689C12.088,40.696,14.79,35.681,18.252,34.21z"/>
		<path fill="#E13F33" d="M21.083,37.829c1.172-0.222,3.38,3.844,0.663,4.97C19.029,43.926,16.179,38.757,21.083,37.829z"/>
		<path fill="#BB3328" d="M20.126,38.099c-1.484,1.702,0.496,4.545,2.547,3.996c-0.207,0.287-0.508,0.531-0.928,0.704
			C19.229,43.844,16.598,39.482,20.126,38.099z"/>
		<path fill="#FDBC11" d="M25.023,14.032"/>
		<path fill="#9A271C" d="M47.805,29.368c0.285-0.126,2.305,0.032,2.335,0.347c0.032,0.316-0.095,0.41-0.221,0.505
			c-0.126,0.095-2.176,0.063-2.271-0.283C47.554,29.589,47.805,29.368,47.805,29.368z"/>
		<path fill="#FFFFFF" d="M39.539,14.791c0,0,2.461,1.261,5.175,5.995C44.713,20.786,42.252,14.791,39.539,14.791z"/>
		<path fill="#FFFFFF" d="M46.417,26.592c0,0-0.946-2.02-4.102-1.894C42.315,24.698,45.976,23.877,46.417,26.592z"/>
		<path fill="#FFFFFF" d="M46.797,35.237c0,0,5.174,0.505,6.247,6.311C53.044,41.548,52.476,34.479,46.797,35.237z"/>
		<path fill="#FFFFFF" d="M19.343,34.606c0,0,5.427,0.505,6.437,6.312C25.78,40.918,25.149,34.165,19.343,34.606z"/>
		<path fill="#FFFFFF" d="M21.11,38.33c0,0,1.326,1.514,1.199,3.093C22.309,41.423,22.94,39.213,21.11,38.33z"/>
		<path fill="#FFFFFF" d="M48.563,38.771c0,0,0.821,2.021,0.947,3.156C49.51,41.928,50.141,40.033,48.563,38.771z"/>
		<path fill="#FFFFFF" d="M60.302,40.854c0,0,0-0.957-0.465-1.299c-0.013-0.009-0.026-0.018-0.04-0.026
			c-0.505-0.316-5.111-0.442-5.111-0.442s4.606,0.695,4.859,0.82C59.797,40.033,60.302,40.854,60.302,40.854z"/>
		<path fill="#FFFFFF" d="M57.021,31.956c0,0,1.514,2.46,1.956,3.913C58.977,35.869,58.977,32.902,57.021,31.956z"/>
		<path fill="#FFFFFF" d="M43.767,23.057c0,0-1.894-5.743-4.985-6.942C38.781,16.115,41.936,19.839,43.767,23.057z"/>
		<path fill="#FFFFFF" d="M40.359,17.882c0,0-1.262-0.947-0.884,0.441c0.379,1.389,2.398,2.524,2.02,1.073"/>
		<path fill="#FFFFFF" d="M23.887,16.367c0,0-1.894,0.316-3.156,6.753C20.731,23.121,22.877,17.251,23.887,16.367z"/>
		<path fill="#FFFFFF" d="M22.813,18.135c0.66,0-0.062,2.02-0.631,2.02C21.615,20.154,22.309,18.135,22.813,18.135z"/>
		<path fill="#FFFFFF" d="M10.949,29.684c0,0-0.441-0.125-0.757,0.316c-0.316,0.441-0.631,3.344-0.631,3.344
			S9.94,30.631,10.949,29.684z"/>
		<path fill="#FFFFFF" d="M54.811,30.631c0,0-2.902-0.379-4.732-1.83C50.078,28.801,53.864,29.684,54.811,30.631z"/>
		<path fill="#FFFFFF" d="M35.523,29.668c0,0,0.118-0.449-0.118-0.544c-0.237-0.095-1.444-0.143-2.154,0.023
			c0,0,1.799,0.023,2.012,0.095C35.475,29.313,35.523,29.668,35.523,29.668z"/>
		<path fill="#FFFFFF" d="M22.033,29.668c0,0,0.071-0.426-0.047-0.544s-1.657-0.165-2.414,0.118l2.177-0.048L22.033,29.668z"/>
	</g>
</g>
</svg>
