<svg id="when_tilted_any_" data-name="when tilted (any)" xmlns="http://www.w3.org/2000/svg" width="24" height="24" viewBox="0 0 24 24"><defs><style>.cls-1{opacity:0.15;}.cls-2{fill:#fff;}.cls-3{opacity:0.3;}.cls-4{opacity:0.1;}</style></defs><title>SB</title><g id="Block"><g id="Block-2" data-name="Block"><g class="cls-1"><path d="M12,18.27a1.14,1.14,0,0,1-.81-.34L6.81,13.55a1.13,1.13,0,0,1-.26-1.25,1.16,1.16,0,0,1,1.08-.71H9.42l1.2-4.78A1.44,1.44,0,0,1,12,5.73a2,2,0,0,1,.35,0,1.41,1.41,0,0,1,1.05,1l1.21,4.78h1.74a1.16,1.16,0,0,1,1.08.71,1.13,1.13,0,0,1-.26,1.25l-4.38,4.38A1.14,1.14,0,0,1,12,18.27Z"/><path d="M12,6.23l.23,0a.92.92,0,0,1,.69.67l1.3,5.16h2.13a.64.64,0,0,1,.47,1.1l-4.38,4.39a.65.65,0,0,1-.92,0L7.16,13.19a.64.64,0,0,1,.47-1.1H9.81l1.3-5.16a.94.94,0,0,1,.91-.7m0-1a1.94,1.94,0,0,0-1.88,1.45L9,11.09H7.63A1.65,1.65,0,0,0,6.45,13.9l4.39,4.38a1.62,1.62,0,0,0,2.32,0l4.39-4.38a1.65,1.65,0,0,0-1.18-2.81H15l-1.11-4.4a2,2,0,0,0-1.44-1.41,2.06,2.06,0,0,0-.45,0Z"/></g><path class="cls-2" d="M16.84,13.19l-4.38,4.39a.66.66,0,0,1-.92,0L7.16,13.19a.64.64,0,0,1,.47-1.1H9.81l1.3-5.16a.94.94,0,0,1,1.14-.67.92.92,0,0,1,.69.67l1.3,5.16h2.13A.64.64,0,0,1,16.84,13.19Z"/></g></g></svg>