<svg id="when_tilted_any_" data-name="when tilted (any)" xmlns="http://www.w3.org/2000/svg" width="24" height="24" viewBox="0 0 24 24"><defs><style>.cls-1{opacity:0.15;}.cls-2{fill:#fff;}.cls-3{opacity:0.3;}.cls-4{opacity:0.1;}</style></defs><title>SB</title><g id="Block"><g id="string_input_copy" data-name="string input copy"><g class="cls-1"><path d="M12,10.64a1.35,1.35,0,0,1-.29,0,1.15,1.15,0,0,1-.85-.84L10,6.51H8.92a1,1,0,0,1-.69-1.64l3.09-3.09a1,1,0,0,1,1.36,0l3.09,3.09a1,1,0,0,1-.69,1.64H13.93l-.82,3.25A1.15,1.15,0,0,1,12,10.64Z"/><path d="M12,2a.45.45,0,0,1,.32.14l3.09,3.09a.46.46,0,0,1-.33.78H13.55l-.92,3.63a.67.67,0,0,1-.64.5l-.17,0a.65.65,0,0,1-.48-.48L10.42,6H8.92a.46.46,0,0,1-.33-.78l3.09-3.09A.45.45,0,0,1,12,2m0-1a1.44,1.44,0,0,0-1,.43L7.88,4.52A1.45,1.45,0,0,0,7.56,6.1,1.47,1.47,0,0,0,8.92,7h.72l.73,2.87a1.63,1.63,0,0,0,1.23,1.21,1.54,1.54,0,0,0,.39.05A1.67,1.67,0,0,0,13.6,9.89L14.32,7h.76a1.47,1.47,0,0,0,1.36-.91,1.45,1.45,0,0,0-.32-1.58L13,1.43A1.44,1.44,0,0,0,12,1Z"/><path d="M12,22.5a1,1,0,0,1-.68-.28L8.23,19.13a1,1,0,0,1,.69-1.64h1.15l.82-3.25A1.15,1.15,0,0,1,12,13.36a1.35,1.35,0,0,1,.29,0,1.15,1.15,0,0,1,.85.84L14,17.49h1.11a1,1,0,0,1,.69,1.64l-3.09,3.09A1,1,0,0,1,12,22.5Z"/><path d="M12,13.86l.17,0a.65.65,0,0,1,.48.48L13.58,18h1.5a.46.46,0,0,1,.33.78l-3.09,3.09a.44.44,0,0,1-.64,0L8.59,18.77A.46.46,0,0,1,8.92,18h1.53l.92-3.63a.67.67,0,0,1,.64-.5m0-1a1.67,1.67,0,0,0-1.61,1.25L9.68,17H8.92a1.47,1.47,0,0,0-1.36.91,1.45,1.45,0,0,0,.32,1.58L11,22.57a1.45,1.45,0,0,0,2.06,0l3.09-3.09a1.45,1.45,0,0,0,.32-1.58A1.47,1.47,0,0,0,15.08,17h-.72l-.73-2.87a1.63,1.63,0,0,0-1.23-1.21,1.54,1.54,0,0,0-.39-.05Z"/><path d="M18.45,16.05a1,1,0,0,1-1-1V13.93l-3.25-.82a1.17,1.17,0,0,1,0-2.26L17.49,10V8.92a1,1,0,0,1,1-1,1,1,0,0,1,.68.28l3.09,3.09a1,1,0,0,1,0,1.36l-3.09,3.09A1,1,0,0,1,18.45,16.05Z"/><path d="M18.45,8.45a.41.41,0,0,1,.32.14l3.09,3.09a.43.43,0,0,1,0,.64l-3.09,3.09a.41.41,0,0,1-.32.14.47.47,0,0,1-.46-.47V13.55l-3.63-.92a.67.67,0,0,1-.48-.81.65.65,0,0,1,.48-.48L18,10.42V8.92a.47.47,0,0,1,.46-.47m0-1h0A1.47,1.47,0,0,0,17,8.92v.72l-2.87.73a1.63,1.63,0,0,0-1.21,1.23,1.66,1.66,0,0,0,1.2,2l2.88.72v.76a1.47,1.47,0,0,0,1.46,1.47,1.44,1.44,0,0,0,1-.43L22.57,13a1.45,1.45,0,0,0,0-2.06L19.48,7.88a1.44,1.44,0,0,0-1-.43Z"/><path d="M5.55,16.05a1,1,0,0,1-.68-.28L1.78,12.68a1,1,0,0,1,0-1.36L4.87,8.23A1,1,0,0,1,5.55,8a1,1,0,0,1,1,1v1.15l3.25.82a1.17,1.17,0,0,1,0,2.26L6.51,14v1.11A1,1,0,0,1,5.55,16.05Z"/><path d="M5.55,8.45A.47.47,0,0,1,6,8.92v1.53l3.63.92a.67.67,0,0,1,.48.81.65.65,0,0,1-.48.48L6,13.58v1.5a.47.47,0,0,1-.46.47.41.41,0,0,1-.32-.14L2.14,12.32a.43.43,0,0,1,0-.64L5.23,8.59a.41.41,0,0,1,.32-.14m0-1h0a1.44,1.44,0,0,0-1,.43L1.43,11a1.45,1.45,0,0,0,0,2.06l3.09,3.09a1.44,1.44,0,0,0,1,.43A1.47,1.47,0,0,0,7,15.08v-.72l2.87-.73a1.63,1.63,0,0,0,1.21-1.23,1.66,1.66,0,0,0-1.2-2L7,9.68V8.92A1.47,1.47,0,0,0,5.55,7.45Z"/></g><path class="cls-2" d="M8.59,5.23l3.09-3.09a.43.43,0,0,1,.64,0l3.09,3.09a.46.46,0,0,1-.33.78H13.55l-.92,3.63a.67.67,0,0,1-.81.48.65.65,0,0,1-.48-.48L10.42,6H8.92A.46.46,0,0,1,8.59,5.23Z"/><path class="cls-2" d="M15.41,18.77l-3.09,3.09a.43.43,0,0,1-.64,0L8.59,18.77A.46.46,0,0,1,8.92,18h1.53l.92-3.63a.67.67,0,0,1,.81-.48.65.65,0,0,1,.48.48L13.58,18h1.5A.46.46,0,0,1,15.41,18.77Z"/><path class="cls-2" d="M18.77,8.59l3.09,3.09a.43.43,0,0,1,0,.64l-3.09,3.09a.46.46,0,0,1-.78-.33V13.55l-3.63-.92a.67.67,0,0,1-.48-.81.65.65,0,0,1,.48-.48L18,10.42V8.92A.46.46,0,0,1,18.77,8.59Z"/><path class="cls-2" d="M5.23,15.41,2.14,12.32a.43.43,0,0,1,0-.64L5.23,8.59A.46.46,0,0,1,6,8.92v1.53l3.63.92a.67.67,0,0,1,.48.81.65.65,0,0,1-.48.48L6,13.58v1.5A.46.46,0,0,1,5.23,15.41Z"/></g></g></svg>