<svg id="when_tilted_any_" data-name="when tilted (any)" xmlns="http://www.w3.org/2000/svg" width="24" height="24" viewBox="0 0 24 24"><defs><style>.cls-1{opacity:0.15;}.cls-2{fill:#fff;}.cls-3{opacity:0.3;}.cls-4{opacity:0.1;}</style></defs><title>SB</title><g id="Block"><g id="Block-2" data-name="Block"><g class="cls-1"><path d="M12,18.27a2,2,0,0,1-.35,0,1.41,1.41,0,0,1-1.05-1L9.37,12.41H7.63a1.16,1.16,0,0,1-1.08-.71,1.13,1.13,0,0,1,.26-1.25l4.38-4.38a1.13,1.13,0,0,1,1.62,0l4.38,4.38a1.13,1.13,0,0,1,.26,1.25,1.16,1.16,0,0,1-1.08.71H14.58l-1.2,4.78A1.44,1.44,0,0,1,12,18.27Z"/><path d="M12,6.23a.65.65,0,0,1,.46.19l4.38,4.39a.64.64,0,0,1-.47,1.1H14.19l-1.3,5.16a.94.94,0,0,1-.91.7l-.23,0a.92.92,0,0,1-.69-.67l-1.3-5.16H7.63a.64.64,0,0,1-.47-1.1l4.38-4.39A.65.65,0,0,1,12,6.23m0-1a1.6,1.6,0,0,0-1.16.49L6.45,10.1a1.65,1.65,0,0,0,1.18,2.81H9l1.11,4.4a2,2,0,0,0,1.44,1.41,2.06,2.06,0,0,0,.45.05,1.94,1.94,0,0,0,1.88-1.45L15,12.91h1.4a1.65,1.65,0,0,0,1.18-2.81L13.16,5.72A1.6,1.6,0,0,0,12,5.23Z"/></g><path class="cls-2" d="M7.16,10.81l4.38-4.39a.66.66,0,0,1,.92,0l4.38,4.39a.64.64,0,0,1-.47,1.1H14.19l-1.3,5.16a.94.94,0,0,1-1.14.67.92.92,0,0,1-.69-.67l-1.3-5.16H7.63A.64.64,0,0,1,7.16,10.81Z"/></g></g></svg>