<?xml version="1.0" encoding="UTF-8" standalone="no"?>
<svg width="20px" height="20px" viewBox="0 0 20 20" version="1.1" xmlns="http://www.w3.org/2000/svg" xmlns:xlink="http://www.w3.org/1999/xlink">
    <!-- Generator: Sketch 48.1 (47250) - http://www.bohemiancoding.com/sketch -->
    <title>Feedback</title>
    <desc>Created with Sketch.</desc>
    <defs></defs>
    <g id="Page-1" stroke="none" stroke-width="1" fill="none" fill-rule="evenodd">
        <g id="Feedback" fill="#4C97FF">
            <path d="M12.3811686,14.2770244 C12.3811686,14.3987659 12.3515563,14.506558 12.306433,14.6257633 L11.4998525,16.6002595 C11.2770558,16.478518 10.93299,16.3846755 10.4704753,16.3846755 C10.0234717,16.3846755 9.6949171,16.478518 9.47071028,16.58631 L8.66412979,14.6257633 C8.60490535,14.506558 8.59080429,14.3848164 8.59080429,14.2643429 C8.60490535,14.2503934 8.60490535,14.2237624 8.60490535,14.2098129 L8.60490535,14.1705005 C8.60490535,13.9828155 8.67964095,13.7938625 8.813601,13.6188589 C9.1576668,13.1775457 9.79926492,12.9086997 10.4859864,12.9086997 C11.1727079,12.9086997 11.8143061,13.1775457 12.1428607,13.6188589 C12.2472085,13.7684996 12.3360452,13.9409669 12.3670675,14.103289 C12.3811686,14.1565509 12.3811686,14.2098129 12.3811686,14.2643429 L12.3811686,14.2770244 Z M8.60490535,5.94153049 C8.60490535,5.50782611 8.89115681,5.12865181 9.33393002,4.89024122 C9.59056927,4.7520138 9.91771381,4.9143359 9.91771381,5.18445004 L9.91771381,11.6621167 C9.91771381,11.8168299 9.80490535,11.9550573 9.63851287,11.9918334 C9.46789007,12.0311458 9.3029077,12.0831396 9.14638596,12.1452786 C8.89115681,12.2467299 8.60490535,12.0844078 8.60490535,11.8345839 L8.60490535,5.94153049 Z M12.3670675,5.94153049 L12.3670675,11.8333158 C12.3670675,12.0780671 12.0892767,12.2505343 11.8410981,12.1516193 C11.6775258,12.0844078 11.5054929,12.032414 11.3278196,11.9931016 C11.1529665,11.9550573 11.0373378,11.8054166 11.0373378,11.6443627 L11.0373378,5.18191375 C11.0373378,4.9143359 11.3630722,4.75074565 11.6211216,4.88770493 C12.0709453,5.12611553 12.3670675,5.50528983 12.3670675,5.94153049 Z M10.4859864,1.48528137 C8.82911216,1.48528137 7.48528137,2.53149809 7.48528137,3.82119796 L7.48528137,14.2237624 C7.48528137,14.4786589 7.5148936,14.7335553 7.62065153,14.9757703 L9.1576668,18.7066425 C9.3522614,19.177123 9.87400053,19.4852814 10.4859864,19.4852814 C11.0979723,19.4852814 11.6197115,19.177123 11.8143061,18.7066425 L13.3513213,14.9757703 C13.4556692,14.7335553 13.4852814,14.4786589 13.4852814,14.2237624 L13.4852814,3.82119796 C13.4852814,2.53149809 12.1428607,1.48528137 10.4859864,1.48528137 Z" id="feedback" transform="translate(10.485281, 10.485281) rotate(45.000000) translate(-10.485281, -10.485281) "></path>
        </g>
    </g>
</svg>