<?xml version="1.0" encoding="utf-8"?>
<!-- Generator: Adobe Illustrator 22.0.1, SVG Export Plug-In . SVG Version: 6.00 Build 0)  -->
<svg version="1.1" id="Layer_1" xmlns="http://www.w3.org/2000/svg" xmlns:xlink="http://www.w3.org/1999/xlink" x="0px" y="0px"
	 viewBox="0 0 96 96.5" style="enable-background:new 0 0 96 96.5;" xml:space="preserve">
<style type="text/css">
	.st0{fill:#FFFFFF;stroke:#FFFFFF;stroke-miterlimit:10;}
</style>
<path class="st0" d="M47.9-0.8C20.9-0.8-1,21.1-1,48.1S20.9,97,47.9,97s48.9-21.9,48.9-48.9S74.9-0.8,47.9-0.8z M53.2,75.8
	c0,1.7-1.4,3.1-3.1,3.1h-7.9c-1.7,0-3.1-1.4-3.1-3.1v-5.1c0-1.7,1.4-3.1,3.1-3.1h7.9c1.7,0,3.1,1.4,3.1,3.1V75.8z M65.7,45.4
	c-2.1,2.9-4.7,5.2-7.9,6.9c-1.8,1.2-3,2.4-3.6,3.8c-0.4,0.9-0.7,2.1-0.9,3.5c-0.1,1.1-1.1,1.9-2.2,1.9h-9.7c-1.3,0-2.3-1.1-2.2-2.3
	c0.2-2.7,0.9-4.8,2-6.4c1.4-1.9,3.9-4.2,7.5-6.7c1.9-1.2,3.3-2.6,4.4-4.3c1.1-1.7,1.6-3.7,1.6-6s-0.6-4.2-1.9-5.6
	c-1.3-1.4-3-2.1-5.3-2.1c-1.9,0-3.4,0.6-4.7,1.7c-0.8,0.7-1.3,1.6-1.6,2.8c-0.4,1.4-1.7,2.3-3.2,2.3l-9-0.2c-1.1,0-2-1-1.9-2.1
	c0.3-4.8,2.2-8.4,5.5-11c3.8-2.9,8.7-4.4,14.9-4.4c6.6,0,11.8,1.7,15.6,5c3.8,3.3,5.7,7.8,5.7,13.5C68.8,39.3,67.7,42.5,65.7,45.4z"
	/>
</svg>
