<?xml version="1.0" encoding="UTF-8"?>
<svg width="20px" height="20px" viewBox="0 0 20 20" version="1.1" xmlns="http://www.w3.org/2000/svg" xmlns:xlink="http://www.w3.org/1999/xlink">
    <!-- Generator: Sketch 51.1 (57501) - http://www.bohemiancoding.com/sketch -->
    <title>left-right-active</title>
    <desc>Created with Sketch.</desc>
    <defs></defs>
    <g id="left-right-active" stroke="none" stroke-width="1" fill="none" fill-rule="evenodd">
        <g id="Flip-Left-Right" transform="translate(2.000000, 4.000000)">
            <path d="M4.66453333,2.41690667 L4.66453333,9.60624 C4.66453333,10.08224 4.08853333,10.3209067 3.7512,9.98357333 L0.156533333,6.38890667 C-0.0514666667,6.17957333 -0.0514666667,5.84090667 0.156533333,5.63290667 L3.7512,2.03824 C4.08853333,1.70090667 4.66453333,1.93957333 4.66453333,2.41690667" id="Fill-1" fill="#4D97FF" transform="translate(2.332533, 6.010929) scale(-1, 1) translate(-2.332533, -6.010929) "></path>
            <path d="M7.87546667,11.7567733 C7.70213333,11.7567733 7.54213333,11.6901067 7.4088,11.5581067 C7.35546667,11.5047733 7.30213333,11.42344 7.26213333,11.34344 C7.2368,11.2647733 7.2088,11.18344 7.2088,11.0901067 C7.2088,11.0101067 7.2368,10.9167733 7.26213333,10.8381067 C7.30213333,10.7567733 7.35546667,10.6767733 7.4088,10.62344 C7.59546667,10.4381067 7.89013333,10.3701067 8.14213333,10.4767733 C8.22346667,10.5167733 8.29013333,10.5581067 8.35546667,10.62344 C8.4088,10.6767733 8.46213333,10.7567733 8.50346667,10.8381067 C8.5288,10.9167733 8.5568,11.0101067 8.5568,11.0901067 C8.5568,11.18344 8.5288,11.2647733 8.50346667,11.34344 C8.46213333,11.42344 8.42213333,11.5047733 8.35546667,11.5581067 C8.2368,11.6901067 8.06346667,11.7567733 7.87546667,11.7567733 Z M7.22306667,3.27757333 C7.22306667,2.90424 7.5164,2.61090667 7.88973333,2.61090667 C8.24973333,2.61090667 8.5564,2.90424 8.5564,3.27757333 C8.5564,3.63757333 8.24973333,3.94424 7.88973333,3.94424 C7.5164,3.94424 7.22306667,3.63757333 7.22306667,3.27757333 Z M7.22306667,5.87757333 C7.22306667,5.50424 7.5164,5.21090667 7.88973333,5.21090667 C8.24973333,5.21090667 8.5564,5.50424 8.5564,5.87757333 C8.5564,6.24957333 8.24973333,6.54424 7.88973333,6.54424 C7.5164,6.54424 7.22306667,6.24957333 7.22306667,5.87757333 Z M7.22306667,8.49090667 C7.22306667,8.11757333 7.5164,7.82424 7.88973333,7.82424 C8.24973333,7.82424 8.5564,8.11757333 8.5564,8.49090667 C8.5564,8.85090667 8.24973333,9.15757333 7.88973333,9.15757333 C7.5164,9.15757333 7.22306667,8.85090667 7.22306667,8.49090667 Z M7.87546667,1.33104 C7.79546667,1.33104 7.70213333,1.31770667 7.62346667,1.29104 C7.54213333,1.24970667 7.47546667,1.19637333 7.4088,1.14304 C7.35546667,1.07770667 7.30213333,0.997706667 7.26213333,0.916373333 C7.2368,0.837706667 7.2088,0.756373333 7.2088,0.664373333 C7.2088,0.58304 7.2368,0.49104 7.26213333,0.41104 C7.30213333,0.33104 7.35546667,0.249706667 7.4088,0.196373333 C7.59546667,0.01104 7.89013333,-0.0556266667 8.14213333,0.05104 C8.22346667,0.0897066667 8.29013333,0.13104 8.35546667,0.196373333 C8.47546667,0.317706667 8.5568,0.49104 8.5568,0.664373333 C8.5568,0.756373333 8.5288,0.837706667 8.50346667,0.916373333 C8.46213333,0.997706667 8.42213333,1.07770667 8.35546667,1.14304 C8.22346667,1.26437333 8.06346667,1.33104 7.87546667,1.33104 Z" id="Combined-Shape" fill-opacity="0.25" fill="#575E75"></path>
            <path d="M11.102,9.60570667 L11.102,2.41637333 C11.102,1.93904 11.6793333,1.70037333 12.0166667,2.03770667 L15.61,5.63370667 C15.8193333,5.84170667 15.8193333,6.18037333 15.61,6.38970667 L12.0166667,9.98304 C11.6793333,10.3203733 11.102,10.0817067 11.102,9.60570667" id="Fill-3" fill="#4D97FF" transform="translate(13.434500, 6.010396) scale(-1, 1) translate(-13.434500, -6.010396) "></path>
        </g>
    </g>
</svg>