<svg id="251060d0-24ac-47b6-b9f8-dcee1324b5a1" data-name="Layer 1" xmlns="http://www.w3.org/2000/svg" viewBox="0 0 29.63 33.62"><defs><style>.db614437-ae43-484e-9f98-dc6e68c24d00{fill:#cf8b17;}.\34 9d88d05-fd01-4ae3-9cfd-2eba84ebc112{fill:#fff;}.\30 058a59a-74a3-4494-9001-a2cf4da76b81,.\32 4f524ee-46f6-48ff-bd7a-f2023c4b2eec,.\34 9d88d05-fd01-4ae3-9cfd-2eba84ebc112{stroke:#cf8b17;stroke-miterlimit:10;}.a1267e51-402f-44e1-be41-116232209772{fill:#070707;opacity:0.1;}.\32 4f524ee-46f6-48ff-bd7a-f2023c4b2eec,.fc16d8b2-4b6d-429d-b23f-804e20b57326{fill:#ffab19;}.fc16d8b2-4b6d-429d-b23f-804e20b57326{opacity:0.5;}.\30 058a59a-74a3-4494-9001-a2cf4da76b81{fill:none;stroke-width:1.5px;}</style></defs><title>control_wait</title><rect class="db614437-ae43-484e-9f98-dc6e68c24d00" x="12.24" width="5.6" height="3.29" rx="1.39" ry="1.39"/><rect class="db614437-ae43-484e-9f98-dc6e68c24d00" x="13.6" y="2.88" width="2.8" height="1.79"/><ellipse class="49d88d05-fd01-4ae3-9cfd-2eba84ebc112" cx="14.82" cy="18.77" rx="14.07" ry="14.1"/><path class="a1267e51-402f-44e1-be41-116232209772" d="M38.93,26A14.07,14.07,0,1,1,10.8,26a14.6,14.6,0,0,1,.14-2,14.06,14.06,0,0,0,27.85,0A14.6,14.6,0,0,1,38.93,26Z" transform="translate(-10.04 -7.22)"/><path class="db614437-ae43-484e-9f98-dc6e68c24d00" d="M35.2,13h1.62a0.6,0.6,0,0,1,.6.6v1.8a1.19,1.19,0,0,1-1.19,1.19H35.79a1.19,1.19,0,0,1-1.19-1.19v-1.8A0.6,0.6,0,0,1,35.2,13Z" transform="translate(10.9 -28.33) rotate(44.91)"/><path class="fc16d8b2-4b6d-429d-b23f-804e20b57326" d="M25,14.59V27.42L35.06,21S33,14.66,25,14.59Z" transform="translate(-10.04 -7.22)"/><rect class="db614437-ae43-484e-9f98-dc6e68c24d00" x="23.43" y="22.5" width="13.2" height="1.98" rx="0.88" ry="0.88" transform="translate(-17.67 10.32) rotate(-29.05)"/><ellipse class="0058a59a-74a3-4494-9001-a2cf4da76b81" cx="14.82" cy="18.77" rx="14.07" ry="14.1"/><circle class="24f524ee-46f6-48ff-bd7a-f2023c4b2eec" cx="15.35" cy="18.54" r="1.75"/></svg>