<?xml version="1.0" encoding="utf-8"?>
<!-- Generator: Adobe Illustrator 19.2.0, SVG Export Plug-In . SVG Version: 6.00 Build 0)  -->
<svg version="1.1" id="Layer_1" xmlns="http://www.w3.org/2000/svg" xmlns:xlink="http://www.w3.org/1999/xlink" x="0px" y="0px"
	 viewBox="0 0 48 48" style="enable-background:new 0 0 48 48;" xml:space="preserve">
<style type="text/css">
	.st0{fill:#CC9823;}
	.st1{fill:#FFFFFF;}
</style>
<path class="st0" d="M24,43.4H11.1c-1.8,0-3.2-1.4-3.2-3.2s1.4-3.2,3.2-3.2H24c5.3,0,9.7-4.3,9.7-9.7c0-5.3-4.3-9.7-9.7-9.7h-9.7
	c-1.8,0-3.2-1.4-3.2-3.2s1.4-3.2,3.2-3.2H24c8.9,0,16.2,7.2,16.2,16.2C40.2,36.1,32.9,43.4,24,43.4z"/>
<path class="st0" d="M17.5,24c-0.8,0-1.7-0.3-2.3-0.9l-6.5-6.5c-1.3-1.3-1.3-3.3,0-4.6l6.5-6.5c1.3-1.3,3.3-1.3,4.6,0
	c1.3,1.3,1.3,3.3,0,4.6l-4.2,4.2l4.2,4.2c1.3,1.3,1.3,3.3,0,4.6C19.2,23.7,18.4,24,17.5,24z"/>
<path class="st1" d="M24,42.6H11.1c-1.3,0-2.4-1.1-2.4-2.4s1.1-2.4,2.4-2.4H24c5.8,0,10.5-4.7,10.5-10.5c0-5.8-4.7-10.5-10.5-10.5
	h-9.7c-1.3,0-2.4-1.1-2.4-2.4s1.1-2.4,2.4-2.4H24c8.5,0,15.3,6.9,15.3,15.3S32.5,42.6,24,42.6z"/>
<path class="st1" d="M17.5,23.2c-0.6,0-1.2-0.2-1.7-0.7L9.4,16c-0.9-0.9-0.9-2.5,0-3.4l6.5-6.5c0.9-0.9,2.5-0.9,3.4,0
	c0.9,0.9,0.9,2.5,0,3.4l-4.7,4.7l4.7,4.7c0.9,0.9,0.9,2.5,0,3.4C18.8,23,18.2,23.2,17.5,23.2z"/>
</svg>
