<svg id="2fc1d17e-9f65-4f7c-8b61-7ff27c05545c" data-name="Layer 1" xmlns="http://www.w3.org/2000/svg" viewBox="0 0 36.32 36.32"><defs><style>.\35 8ccf0a6-fd25-4bd8-b50c-4127ab2beb86{fill:#ec9c13;}.cb59c955-5d7f-4993-b9b6-8ae4cc27e09e{fill:#fff;stroke:#cf8b17;stroke-linecap:round;stroke-linejoin:round;}.e4366cc0-d1f5-458b-8531-27bc1636e030{fill:#070707;opacity:0.1;}</style></defs><title>control_stop</title><path class="58ccf0a6-fd25-4bd8-b50c-4127ab2beb86" d="M32.66,6l9,9A2.71,2.71,0,0,1,42.51,17v12.8a2.71,2.71,0,0,1-.79,1.92l-9,9a2.71,2.71,0,0,1-1.92.79H18A2.71,2.71,0,0,1,16,40.75l-9-9a2.71,2.71,0,0,1-.79-1.92V17A2.71,2.71,0,0,1,7,15.07l9-9A2.71,2.71,0,0,1,18,5.23h12.8A2.71,2.71,0,0,1,32.66,6Z" transform="translate(-6.19 -5.23)"/><path class="cb59c955-5d7f-4993-b9b6-8ae4cc27e09e" d="M26.82,19.54l0.72-7.6a1.56,1.56,0,0,1,1.7-1.66c1.73,0.13,1.48,2,1.48,2l-0.6,6.37s-0.28,5.49.75,6.4a8.45,8.45,0,0,1,2.48-3C35,21,35.1,19.41,37.43,20s0.5,2.51,0,3.2S35,27.61,34.29,29s-3.2,4.61-4,4.85a8.49,8.49,0,0,1-1.41.28l-0.57,1.55S28.26,37,23,37s-5.56-1.65-5.56-1.65a12.5,12.5,0,0,0,0-3.3c-0.28-.75-1.46-1.37-1.65-3.67S15,16.4,15,16.4s-0.38-2,1.18-2.17,1.55,1.65,1.55,2.12,0.38,5.27.38,5.27L19,21.3,18.7,12.82s-0.42-2.07,1.46-2.31,1.74,2.17,1.74,2.17l0.38,7.91,0.33-.09,0.28-9.79S22.7,8.4,24.49,8.35,26,10.66,26,10.66l0,8.95Z" transform="translate(-6.19 -5.23)"/><path class="e4366cc0-d1f5-458b-8531-27bc1636e030" d="M30.4,24.12a8.91,8.91,0,0,0-5.94,2.72c-2.16,2.28-1.75,3.07-1.37,3s0.47-.93,2.06-2.28a12.05,12.05,0,0,1,5.72-2.5Z" transform="translate(-6.19 -5.23)"/></svg>