<svg id="9dce02ee-5dfa-4fe3-ab06-de76c03363d4" data-name="Layer 1" xmlns="http://www.w3.org/2000/svg" viewBox="0 0 30.12 32.06"><defs><style>.b10cf7d3-67e1-4fe1-8394-45ab860180ba{fill:#cf8b17;}.\35 3930b19-b39b-41ac-92c6-a00c4c3b5231{fill:#ffab19;}.f5914cc2-3f5b-4d3d-85de-d930450e14ab{fill:#fff;}</style></defs><title>control_forever</title><path class="b10cf7d3-67e1-4fe1-8394-45ab860180ba" d="M13.77,25.34l0.06,0.33a5.69,5.69,0,0,0,.18.81c0.06,0.25.19,0.61,0.34,1A11.4,11.4,0,0,0,15,28.83a9.44,9.44,0,0,0,2.41,2.68,9,9,0,0,0,3.66,1.62,10,10,0,0,0,1.08.14c0.25,0,.58,0,0.92,0a8.52,8.52,0,0,0,4.82-1.75,10.12,10.12,0,0,0,1-.87,8.78,8.78,0,0,0,.62-0.76,5.32,5.32,0,0,0,.35-0.52L30,29.2,30,29.05a4,4,0,1,1,6.72,4.38c-0.07.11-.16,0.23-0.24,0.33l-0.28.34c-0.19.22-.44,0.56-0.81,0.94A16.58,16.58,0,0,1,34,36.37a17.57,17.57,0,0,1-2,1.44,15.86,15.86,0,0,1-5.75,2.06A15.15,15.15,0,0,1,21,39.75a16,16,0,0,1-1.62-.41,15,15,0,0,1-9.19-8.1,16.52,16.52,0,0,1-.78-2.16,15.63,15.63,0,0,1-.37-1.78,9.1,9.1,0,0,1-.11-1l0-.33A2.43,2.43,0,0,1,13.77,25.34Z" transform="translate(-8.95 -7.98)"/><path class="53930b19-b39b-41ac-92c6-a00c4c3b5231" d="M36.56,38.78a1.41,1.41,0,0,1-1-.42l-8.82-8.84a1.43,1.43,0,0,1,1-2.44h8.83A1.43,1.43,0,0,1,38,28.52v8.83a1.44,1.44,0,0,1-1.44,1.43h0Z" transform="translate(-8.95 -7.98)"/><path class="b10cf7d3-67e1-4fe1-8394-45ab860180ba" d="M27.74,27.58h8.83a0.93,0.93,0,0,1,.93.93v8.83a0.93,0.93,0,0,1-.94.93A0.91,0.91,0,0,1,35.91,38l-8.82-8.84a0.93,0.93,0,0,1,.66-1.59m0-1h0a1.93,1.93,0,0,0-1.37,3.29l8.82,8.84a1.91,1.91,0,0,0,1.36.57,1.94,1.94,0,0,0,1.94-1.93V28.52a1.93,1.93,0,0,0-1.93-1.93H27.75Z" transform="translate(-8.95 -7.98)"/><path class="f5914cc2-3f5b-4d3d-85de-d930450e14ab" d="M27.09,29.17L35.91,38a0.93,0.93,0,0,0,1.59-.66V28.52a0.93,0.93,0,0,0-.93-0.93H27.74A0.93,0.93,0,0,0,27.09,29.17Z" transform="translate(-8.95 -7.98)"/><path class="f5914cc2-3f5b-4d3d-85de-d930450e14ab" d="M12.66,25.47l0.06,0.33a7,7,0,0,0,.19.86,12.06,12.06,0,0,0,.39,1.19A12.46,12.46,0,0,0,14,29.33a10.53,10.53,0,0,0,2.69,3,10.11,10.11,0,0,0,4.09,1.82,11.12,11.12,0,0,0,1.18.15c0.31,0,.69,0,1.06,0a9.55,9.55,0,0,0,5.42-1.94,11.07,11.07,0,0,0,1.08-1,9.78,9.78,0,0,0,.71-0.85,6.22,6.22,0,0,0,.4-0.58l0.14-.21,0.08-.12a3,3,0,1,1,5,3.28,3.13,3.13,0,0,1-.19.26l-0.26.32c-0.18.2-.41,0.52-0.77,0.88a15.56,15.56,0,0,1-1.31,1.24A16.59,16.59,0,0,1,31.46,37a14.83,14.83,0,0,1-5.38,1.89,14.07,14.07,0,0,1-4.85-.14,15.13,15.13,0,0,1-1.53-.39,14.12,14.12,0,0,1-5.39-3.19,14,14,0,0,1-3.09-4.38,15.42,15.42,0,0,1-.71-2,14.36,14.36,0,0,1-.32-1.63,9,9,0,0,1-.1-1l0-.33A1.31,1.31,0,0,1,12.66,25.47Z" transform="translate(-8.95 -7.98)"/><path class="b10cf7d3-67e1-4fe1-8394-45ab860180ba" d="M34.25,22.67l-0.06-.33A5.7,5.7,0,0,0,34,21.54c-0.06-.25-0.19-0.61-0.34-1A11.39,11.39,0,0,0,33,19.18a9.44,9.44,0,0,0-2.41-2.68,9,9,0,0,0-3.66-1.62,10,10,0,0,0-1.08-.14c-0.25,0-.58,0-0.92,0a8.52,8.52,0,0,0-4.82,1.75,10.1,10.1,0,0,0-1,.87,8.75,8.75,0,0,0-.62.76,5.34,5.34,0,0,0-.35.52l-0.12.18L18,19a4,4,0,0,1-6.72-4.38c0.07-.11.16-0.23,0.24-0.33l0.28-.34c0.19-.22.44-0.56,0.82-0.94A16.57,16.57,0,0,1,14,11.64a17.59,17.59,0,0,1,2-1.44,15.86,15.86,0,0,1,5.75-2.06A15.46,15.46,0,0,1,25.17,8,15.64,15.64,0,0,1,27,8.26a16,16,0,0,1,1.62.41,15,15,0,0,1,9.19,8.1,16.52,16.52,0,0,1,.78,2.16,15.63,15.63,0,0,1,.37,1.78,9.08,9.08,0,0,1,.11,1l0,0.33A2.43,2.43,0,0,1,34.25,22.67Z" transform="translate(-8.95 -7.98)"/><path class="53930b19-b39b-41ac-92c6-a00c4c3b5231" d="M11.44,20.92A1.43,1.43,0,0,1,10,19.49V10.66a1.44,1.44,0,0,1,1.44-1.43,1.41,1.41,0,0,1,1,.42l8.82,8.84a1.43,1.43,0,0,1-1,2.44H11.44Z" transform="translate(-8.95 -7.98)"/><path class="b10cf7d3-67e1-4fe1-8394-45ab860180ba" d="M11.46,9.73a0.91,0.91,0,0,1,.65.27l8.82,8.84a0.93,0.93,0,0,1-.66,1.59H11.44a0.93,0.93,0,0,1-.93-0.93V10.66a0.93,0.93,0,0,1,.94-0.93m0-1a1.94,1.94,0,0,0-1.94,1.93v8.83a1.93,1.93,0,0,0,1.93,1.93h8.83a1.93,1.93,0,0,0,1.37-3.29L12.82,9.3a1.91,1.91,0,0,0-1.36-.57h0Z" transform="translate(-8.95 -7.98)"/><path class="f5914cc2-3f5b-4d3d-85de-d930450e14ab" d="M20.93,18.84L12.11,10a0.93,0.93,0,0,0-1.59.66v8.83a0.93,0.93,0,0,0,.93.93h8.83A0.93,0.93,0,0,0,20.93,18.84Z" transform="translate(-8.95 -7.98)"/><path class="f5914cc2-3f5b-4d3d-85de-d930450e14ab" d="M35.35,22.54l-0.06-.33a7,7,0,0,0-.19-0.86,12.08,12.08,0,0,0-.39-1.19A12.45,12.45,0,0,0,34,18.68a10.53,10.53,0,0,0-2.69-3,10.11,10.11,0,0,0-4.09-1.82A11.06,11.06,0,0,0,26,13.7c-0.31,0-.69,0-1.06,0a9.55,9.55,0,0,0-5.42,1.94,11.09,11.09,0,0,0-1.08,1,9.78,9.78,0,0,0-.71.85,6.22,6.22,0,0,0-.4.58l-0.14.21-0.08.12a3,3,0,0,1-5-3.28,3.1,3.1,0,0,1,.19-0.26l0.26-.32c0.18-.2.41-0.52,0.77-0.88a15.57,15.57,0,0,1,1.31-1.24,16.56,16.56,0,0,1,1.9-1.33,14.83,14.83,0,0,1,5.38-1.89,14.08,14.08,0,0,1,4.85.14,15.13,15.13,0,0,1,1.53.39,14.12,14.12,0,0,1,5.39,3.19,14,14,0,0,1,3.09,4.38,15.43,15.43,0,0,1,.71,2,14.37,14.37,0,0,1,.32,1.63,8.94,8.94,0,0,1,.1,1l0,0.33A1.31,1.31,0,0,1,35.35,22.54Z" transform="translate(-8.95 -7.98)"/></svg>