<svg id="ad39a354-f9c4-4215-91cf-8efe7a0b3cbc" data-name="Layer 1" xmlns="http://www.w3.org/2000/svg" viewBox="0 0 24.71 33.12"><defs><style>.ce0a9b14-7d5e-4df6-8987-9c322028ec44{fill:#ffab19;}.bbcb34a3-2c18-4787-8b6a-84cf60f33763{fill:#cf8b17;}.\37 30754f1-9a53-43fd-b548-938220956cb1{fill:#fff;}</style></defs><title>control_repeat</title><path class="ce0a9b14-7d5e-4df6-8987-9c322028ec44" d="M20.82,24.63a1.54,1.54,0,0,1-1.09-.46l-7.1-7.08a1.56,1.56,0,0,1,0-2.2l7.08-7.09a1.54,1.54,0,0,1,1.09-.46,1.56,1.56,0,0,1,1.56,1.56V23.07a1.54,1.54,0,0,1-.45,1.1A1.59,1.59,0,0,1,20.82,24.63Z" transform="translate(-11.68 -6.83)"/><path class="bbcb34a3-2c18-4787-8b6a-84cf60f33763" d="M20.81,7.83a1.05,1.05,0,0,1,1.06,1.06V23.07a1.05,1.05,0,0,1-1.06,1.06,1,1,0,0,1-.74-0.31L13,16.73a1.06,1.06,0,0,1,0-1.49l7.08-7.1a1,1,0,0,1,.74-0.31m0-1h0a2,2,0,0,0-1.45.61l-7.08,7.1a2.06,2.06,0,0,0,0,2.91l7.1,7.08a2,2,0,0,0,1.44.6,2.07,2.07,0,0,0,1.42-.56,2,2,0,0,0,.64-1.5V8.89a2.06,2.06,0,0,0-2.06-2.06h0Z" transform="translate(-11.68 -6.83)"/><path class="bbcb34a3-2c18-4787-8b6a-84cf60f33763" d="M22.33,34l0.42,0,0.5,0h0.15l0.09,0,0.2,0a7.12,7.12,0,0,0,1.19-.35,5.6,5.6,0,0,0,.73-0.33,5,5,0,0,0,.76-0.45,6.73,6.73,0,0,0,1.48-1.33A6.63,6.63,0,0,0,29,29.57a6.94,6.94,0,0,0,.55-2.24c0-.19,0-0.4,0-0.59V26.5h0s0,0.32,0,.16V26.6l0-.44A5.23,5.23,0,0,0,29.37,25a7.06,7.06,0,0,0-2.47-3.74,7.76,7.76,0,0,0-1.79-1,7.24,7.24,0,0,0-1.77-.39c-0.28,0-.55,0-0.81,0l-1.11,0-1.85.07L18,20a4,4,0,1,1-.29-8H18L19.58,12l1.85,0.07,1.17,0a16.49,16.49,0,0,1,1.71.15A14.75,14.75,0,0,1,28,13.37a15.08,15.08,0,0,1,3.59,2.3,14.18,14.18,0,0,1,4.53,7.84,13.82,13.82,0,0,1,.25,2.3v0.88l0,0.29c0,0.38,0,.76-0.1,1.14a13.58,13.58,0,0,1-1.31,4.25A13.74,13.74,0,0,1,29.69,38a10.73,10.73,0,0,1-1.45.75,11.53,11.53,0,0,1-1.37.52,12.69,12.69,0,0,1-2.4.53L24,39.9l-0.39,0H22.63A3,3,0,0,1,22.33,34Z" transform="translate(-11.68 -6.83)"/><path class="730754f1-9a53-43fd-b548-938220956cb1" d="M21.87,8.89V23.07a1.06,1.06,0,0,1-1.8.75L13,16.73a1.06,1.06,0,0,1,0-1.49l7.08-7.1A1.06,1.06,0,0,1,21.87,8.89Z" transform="translate(-11.68 -6.83)"/><path class="730754f1-9a53-43fd-b548-938220956cb1" d="M22.38,35l0.42,0a5.66,5.66,0,0,0,1-.13,7.82,7.82,0,0,0,1.38-.39A6.47,6.47,0,0,0,26,34.07a5.81,5.81,0,0,0,.87-0.51,7.67,7.67,0,0,0,1.68-1.49A7.59,7.59,0,0,0,29.89,30a7.9,7.9,0,0,0,.64-2.53c0-.22,0-0.45,0-0.67V26.5h0s0,0.22,0,.11V26.55l0-.44a6.77,6.77,0,0,0-.21-1.34,8,8,0,0,0-2.78-4.29,8.73,8.73,0,0,0-2-1.16,8.22,8.22,0,0,0-2-.46c-0.32-.05-0.63,0-0.92,0l-1.12,0-1.85.06L18,19a3,3,0,1,1-.21-6H18L19.58,13l1.85,0.06,1.16,0a15.59,15.59,0,0,1,1.59.14,13.77,13.77,0,0,1,3.44,1A14.1,14.1,0,0,1,31,16.42a13.2,13.2,0,0,1,4.21,7.3,12.89,12.89,0,0,1,.23,2.14v0.81l0,0.27c0,0.36,0,.71-0.1,1.06a12.61,12.61,0,0,1-1.22,4,12.78,12.78,0,0,1-4.88,5.27,9.83,9.83,0,0,1-1.35.7,10.59,10.59,0,0,1-1.28.49,11.72,11.72,0,0,1-2.21.49A9.21,9.21,0,0,1,23,39H22.58A2,2,0,0,1,22.38,35Z" transform="translate(-11.68 -6.83)"/></svg>