<svg id="Icon" xmlns="http://www.w3.org/2000/svg" viewBox="0 0 40 40"><title>stop</title><path d="M28.66,3l9,9A2.71,2.71,0,0,1,38.51,14v12.8a2.71,2.71,0,0,1-.79,1.92l-9,9a2.71,2.71,0,0,1-1.92.79H14A2.71,2.71,0,0,1,12,37.75l-9-9a2.71,2.71,0,0,1-.79-1.92V14A2.71,2.71,0,0,1,3,12.07l9-9A2.71,2.71,0,0,1,14,2.23h12.8A2.71,2.71,0,0,1,28.66,3Z" fill="#ec9c13"/><path d="M22.82,16.54l0.72-7.6a1.56,1.56,0,0,1,1.7-1.66c1.73,0.13,1.48,2,1.48,2l-0.6,6.37s-0.28,5.49.75,6.4a8.45,8.45,0,0,1,2.48-3C31,18,31.1,16.41,33.43,17s0.5,2.51,0,3.2S31,24.61,30.29,26s-3.2,4.61-4,4.85a8.49,8.49,0,0,1-1.41.28l-0.57,1.55S24.26,34,19,34s-5.56-1.65-5.56-1.65a12.5,12.5,0,0,0,0-3.3c-0.28-.75-1.46-1.37-1.65-3.67S11,13.4,11,13.4s-0.38-2,1.18-2.17,1.55,1.65,1.55,2.12,0.38,5.27.38,5.27L15,18.3,14.7,9.82s-0.42-2.07,1.46-2.31S17.9,9.68,17.9,9.68l0.38,7.91,0.33-.09L18.89,7.7S18.7,5.4,20.49,5.35,22,7.66,22,7.66l0,8.95Z" fill="#fff" stroke="#cf8b17" stroke-linecap="round" stroke-linejoin="round"/><path d="M26.4,21.12a8.91,8.91,0,0,0-5.94,2.72c-2.16,2.28-1.75,3.07-1.37,3s0.47-.93,2.06-2.28a12.05,12.05,0,0,1,5.72-2.5Z" fill="#070707" opacity="0.1"/></svg>