<svg id="4792f792-1d28-491a-9bb5-ebc58d69bbb0" data-name="Layer 1" xmlns="http://www.w3.org/2000/svg" viewBox="0 0 37.76 21.81"><defs><style>.\35 787807a-c781-4950-9776-5aa0f9ec2915,.ebd44fa2-be35-497d-8d7e-da4ce04d4c34{fill:#96f;}.\35 a941e99-6bc2-4e22-b809-bda40fce7c75{fill:#231f20;stroke:#231f20;opacity:0.1;}.\35 0696b67-a80c-4484-a848-ebfb166c8e27,.\35 a941e99-6bc2-4e22-b809-bda40fce7c75,.ebd44fa2-be35-497d-8d7e-da4ce04d4c34,.ee6efca6-59a2-438f-ac94-07ff07bebd40{stroke-linecap:round;stroke-linejoin:round;}.\35 0696b67-a80c-4484-a848-ebfb166c8e27,.ee6efca6-59a2-438f-ac94-07ff07bebd40{fill:none;}.\35 0696b67-a80c-4484-a848-ebfb166c8e27,.ebd44fa2-be35-497d-8d7e-da4ce04d4c34{stroke:#774dcb;}.ee6efca6-59a2-438f-ac94-07ff07bebd40{stroke:#fff;stroke-width:1.5px;}</style></defs><title>event_messagesend</title><path class="5787807a-c781-4950-9776-5aa0f9ec2915" d="M40.75,34.52H16.13a1.75,1.75,0,0,1-1.75-1.76l0.1-17.3a1.75,1.75,0,0,1,1.75-1.74H40.75a1.75,1.75,0,0,1,1.75,1.75v17.3A1.75,1.75,0,0,1,40.75,34.52Z" transform="translate(-5.25 -13.22)"/><path class="5a941e99-6bc2-4e22-b809-bda40fce7c75" d="M22.31,27.87L14.93,34a1.52,1.52,0,0,0,1.2.47Z" transform="translate(-5.25 -13.22)"/><path class="5a941e99-6bc2-4e22-b809-bda40fce7c75" d="M34.72,27.87L42.1,34a1.52,1.52,0,0,1-1.2.47Z" transform="translate(-5.25 -13.22)"/><polyline class="50696b67-a80c-4484-a848-ebfb166c8e27" points="10.11 20.43 23.25 9.5 36.38 20.43"/><path class="5a941e99-6bc2-4e22-b809-bda40fce7c75" d="M42.51,16.47L30.66,28.8a3,3,0,0,1-4.33,0L14.48,16.46h28Z" transform="translate(-5.25 -13.22)"/><path class="ebd44fa2-be35-497d-8d7e-da4ce04d4c34" d="M42.51,15.47L30.45,25.83a3,3,0,0,1-3.91,0L14.49,15.46" transform="translate(-5.25 -13.22)"/><line class="ee6efca6-59a2-438f-ac94-07ff07bebd40" x1="6.75" y1="2.78" x2="4.28" y2="2.78"/><line class="ee6efca6-59a2-438f-ac94-07ff07bebd40" x1="6.75" y1="10.81" x2="4.28" y2="10.81"/><line class="ee6efca6-59a2-438f-ac94-07ff07bebd40" x1="6.75" y1="18.78" x2="4.28" y2="18.78"/><line class="ee6efca6-59a2-438f-ac94-07ff07bebd40" x1="6.75" y1="14.78" x2="0.75" y2="14.78"/><line class="ee6efca6-59a2-438f-ac94-07ff07bebd40" x1="6.75" y1="6.78" x2="0.75" y2="6.78"/><path class="50696b67-a80c-4484-a848-ebfb166c8e27" d="M40.75,34.52H16.13a1.75,1.75,0,0,1-1.75-1.76l0.1-17.3a1.75,1.75,0,0,1,1.75-1.74H40.75a1.75,1.75,0,0,1,1.75,1.75v17.3A1.75,1.75,0,0,1,40.75,34.52Z" transform="translate(-5.25 -13.22)"/></svg>