<svg id="45ed7241-5e19-43ad-a9a3-700778291c9c" data-name="Layer 1" xmlns="http://www.w3.org/2000/svg" viewBox="0 0 37.38 36.28"><defs><style>.a0ad6acc-4020-41fb-a57b-72685135fca0{fill:#96f;}.a0ad6acc-4020-41fb-a57b-72685135fca0,.f897a734-5276-40b8-b400-52c1293f2475{stroke:#774dcb;}.a0ad6acc-4020-41fb-a57b-72685135fca0,.b71db816-5d92-4f3b-95c8-3db323c6ed55,.d862eeda-2ec7-4e50-8664-cd1379004859,.f897a734-5276-40b8-b400-52c1293f2475{stroke-linecap:round;stroke-linejoin:round;}.f897a734-5276-40b8-b400-52c1293f2475{fill:#f9f8ff;}.d862eeda-2ec7-4e50-8664-cd1379004859{fill:#231f20;stroke:#231f20;opacity:0.1;}.b71db816-5d92-4f3b-95c8-3db323c6ed55{fill:none;stroke:#fff;stroke-width:1.5px;}</style></defs><title>event_messagereceive</title><path class="a0ad6acc-4020-41fb-a57b-72685135fca0" d="M38,41H9.87a2,2,0,0,1-2-2L8,22a2,2,0,0,1,.8-1.59L22.8,9.9a2,2,0,0,1,2.4,0l14,10.5A2,2,0,0,1,40,22V39A2,2,0,0,1,38,41Z" transform="translate(-5.3 -5.22)"/><rect class="f897a734-5276-40b8-b400-52c1293f2475" x="6.7" y="7.78" width="24" height="20" rx="2" ry="2"/><path class="d862eeda-2ec7-4e50-8664-cd1379004859" d="M40,22v1L29.88,29.33l-3,1.84-1.87,1.17a2,2,0,0,1-2.12,0L21,31.16l-3-1.85L8,23V21.76a2,2,0,0,1,.79-1.35l0.67-.5,11.6,7.24,1.74-1.26a2,2,0,0,1,2.39,0l1.74,1.27,11.61-7.25L39.2,20.4A2,2,0,0,1,40,22Z" transform="translate(-5.3 -5.22)"/><path class="a0ad6acc-4020-41fb-a57b-72685135fca0" d="M40,23L25.06,32.34a2,2,0,0,1-2.12,0L8,23V39a2,2,0,0,0,2,2H38a2,2,0,0,0,2-2V23Z" transform="translate(-5.3 -5.22)"/><path class="a0ad6acc-4020-41fb-a57b-72685135fca0" d="M8.86,40L22.8,29.89a2,2,0,0,1,2.39,0L39,40" transform="translate(-5.3 -5.22)"/><line class="b71db816-5d92-4f3b-95c8-3db323c6ed55" x1="10.52" y1="3.92" x2="8.85" y2="0.75"/><line class="b71db816-5d92-4f3b-95c8-3db323c6ed55" x1="4" y1="10.82" x2="0.75" y2="8.37"/><line class="b71db816-5d92-4f3b-95c8-3db323c6ed55" x1="26.87" y1="3.92" x2="28.53" y2="0.75"/><line class="b71db816-5d92-4f3b-95c8-3db323c6ed55" x1="33.38" y1="10.82" x2="36.63" y2="8.37"/></svg>