<?xml version="1.0" encoding="utf-8"?>
<!-- Generator: Adobe Illustrator 19.2.0, SVG Export Plug-In . SVG Version: 6.00 Build 0)  -->
<svg version="1.1" id="Layer_1" xmlns="http://www.w3.org/2000/svg" xmlns:xlink="http://www.w3.org/1999/xlink" x="0px" y="0px"
	 viewBox="0 0 48 48" style="enable-background:new 0 0 48 48;" xml:space="preserve">
<style type="text/css">
	.st0{fill:#2BB673;stroke:#25995F;stroke-linecap:round;stroke-linejoin:round;stroke-miterlimit:10;}
	.st1{fill:#25995F;stroke:#25995F;stroke-linecap:round;stroke-linejoin:round;stroke-miterlimit:10;}
</style>
<g>
	<g>
		<path class="st0" d="M39.8,11.1v17.5c0,0.3-0.1,0.7-0.4,0.9c-2.2,1.9-5,3-7.9,3c-2.9,0-5.7-1.1-7.9-3c-1.8-1.6-4.1-2.4-6.4-2.4
			c-2.1,0-4.2,0.7-5.9,2.1v11.6c0,0.7-0.5,1.2-1.2,1.2c-0.7,0-1.2-0.5-1.2-1.2V11.1c0-0.5,0.3-0.9,0.7-1.1c2.2-1.8,4.9-2.7,7.6-2.7
			c2.9,0,5.7,1,7.9,3c1.8,1.5,4.1,2.4,6.4,2.4s4.6-0.9,6.4-2.4c0.3-0.3,0.8-0.4,1.2-0.2C39.5,10.3,39.8,10.7,39.8,11.1z"/>
	</g>
	<path class="st1" d="M10,42L10,42c-0.6,0-1.1-0.5-1.1-1.1V7.5c0-0.6,0.5-1.1,1.1-1.1h0c0.6,0,1.1,0.5,1.1,1.1v33.4
		C11.1,41.5,10.6,42,10,42z"/>
</g>
</svg>
