<?xml version="1.0" encoding="utf-8"?>
<!-- Generator: Adobe Illustrator 16.0.0, SVG Export Plug-In . SVG Version: 6.00 Build 0)  -->
<!DOCTYPE svg PUBLIC "-//W3C//DTD SVG 1.1//EN" "http://www.w3.org/Graphics/SVG/1.1/DTD/svg11.dtd">
<svg version="1.1" id="Layer_1" xmlns="http://www.w3.org/2000/svg" xmlns:xlink="http://www.w3.org/1999/xlink" x="0px" y="0px"
	 width="85px" height="66px" viewBox="0 0 85 66" enable-background="new 0 0 85 66" xml:space="preserve">
<path fill="#005899" d="M64,49c0,1.65-1.35,3-3,3H22c-1.65,0-3-1.35-3-3V28c0-1.65,1.35-3,3-3h39c1.65,0,3,1.35,3,3V49z"/>
<path fill="#0087FF" d="M22,51c-1.1,0-2-0.9-2-2V28c0-1.1,0.9-2,2-2h39c1.1,0,2,0.9,2,2v21c0,1.1-0.9,2-2,2H22z"/>
<path fill="#005899" d="M60,52c2,0,2-1.094,2.425-1.094l-19.85-15.467c-0.866-0.68-2.284-0.645-3.15,0.035l-19.85,15.414
	C20,51,20.9,52,22,52H60z"/>
<path fill="#0087FF" d="M41,36c0.369,0,0.719-0.029,0.959,0.158L61.1,51H20.9l19.141-14.842C40.281,35.971,40.631,36,41,36z"/>
<path fill="#005899" d="M23,25c0,0-2.425,0-2.425,1.232l19.85,17.536c0.866,0.678,2.284,0.678,3.15,0l19.85-17.536
	C63.096,25.904,62.1,25,61,25H23z"/>
<path fill="#005899" d="M23,27c0,0-3,0.138-3-1.095l20.425-15.466c0.866-0.678,2.284-0.644,3.15,0.034L63,25.888
	C62.671,26.216,62.1,27,61,27H23z"/>
<path fill="#005899" d="M42,44.275c-0.559,0-1.092-0.16-1.502-0.452l-0.064-0.046L25,30.587V18h34v12.587l-15.434,13.19
	l-0.064,0.046C43.092,44.115,42.559,44.275,42,44.275z"/>
<path fill="#FFFFFF" d="M26,19v11.168L26.846,31l14.233,12.009c0.238,0.171,0.571,0.269,0.921,0.269s0.683-0.098,0.921-0.269
	L57.154,31L58,30.168V19H26z"/>
<path fill="#005899" d="M29,25h26v1H29V25z M29,28h21v1H29V28z M29,31h21v1H29V31z"/>
</svg>
