<?xml version="1.0" encoding="utf-8"?>
<!-- Generator: Adobe Illustrator 19.1.0, SVG Export Plug-In . SVG Version: 6.00 Build 0)  -->
<svg version="1.1" id="Layer_1" xmlns="http://www.w3.org/2000/svg" xmlns:xlink="http://www.w3.org/1999/xlink" x="0px" y="0px"
	 viewBox="0 0 40 40" style="enable-background:new 0 0 40 40;" xml:space="preserve">
<style type="text/css">
	.st0{fill:#FFFFFF;stroke:#545DAA;stroke-width:4;stroke-linecap:round;stroke-linejoin:round;stroke-miterlimit:10;}
</style>
<path class="st0" d="M37.4,18.3c0,7.4-7.6,13.3-17,13.5c-1.7,0-3.3,0.2-4.9,0.5c-1,0.2-1.9,0.4-2.8,0.6c-2.3,0.7-4.4,1.5-6.1,2.3
	c-1,0.5-1.9-0.6-1.4-1.5c0.8-1.3,1.5-2.9,1.6-4.2c0.2-1.1,0-2.2-0.8-3c0,0-0.1-0.1-0.1-0.1c-1.8-1.9-3-4.3-3.3-6.9
	c0-0.4-0.1-0.7-0.1-1.1c0-0.2,0-0.3,0-0.5c0.3-7.3,8-13.1,17.4-13.1C29.6,4.7,37.4,10.8,37.4,18.3z"/>
</svg>
