<?xml version="1.0" encoding="utf-8"?>
<!-- Generator: Adobe Illustrator 19.2.0, SVG Export Plug-In . SVG Version: 6.00 Build 0)  -->
<svg version="1.1" id="Layer_1" xmlns="http://www.w3.org/2000/svg" xmlns:xlink="http://www.w3.org/1999/xlink" x="0px" y="0px"
	 viewBox="0 0 76 76" style="enable-background:new 0 0 76 76;" xml:space="preserve">
<style type="text/css">
	.st0{fill:#308BA0;}
	.st1{fill:#FFFFFF;}
</style>
<g>
	<path class="st0" d="M22.6,34.4c0-2.2-1.8-4-4-4h-1c-2.2,0-4,1.8-4,4v8c0,2.2,1.8,4,4,4h1c2.2,0,4-1.8,4-4V34.4z"/>
	<path class="st1" d="M21.6,34.4c0-1.7-1.3-3-3-3h-1c-1.7,0-3,1.3-3,3v8c0,1.7,1.3,3,3,3h1c1.7,0,3-1.3,3-3V34.4z"/>
</g>
<g>
	<path class="st0" d="M32.6,34.4c0-2.2-1.8-4-4-4h-1c-2.2,0-4,1.8-4,4v8c0,2.2,1.8,4,4,4h1c2.2,0,4-1.8,4-4V34.4z"/>
	<path class="st1" d="M31.6,34.4c0-1.7-1.3-3-3-3h-1c-1.7,0-3,1.3-3,3v8c0,1.7,1.3,3,3,3h1c1.7,0,3-1.3,3-3V34.4z"/>
</g>
<g id="Layer_2">
	<g id="fd">
		<g>
			<path class="st0" d="M33.7,33.7c0-0.9,0.3-1.7,0.9-2.3c0.8-0.7,1.8-1,3-0.9l2.6,0.5c0.5,0.1,1-0.1,1.3-0.3
				c0.2-0.2,0.3-0.4,0.3-0.6c0,0-0.3-4.2-0.3-4.2c0-0.1,0-0.3,0-0.4c0-1.7,1.2-3.6,4.5-3.6c3.6,0,12.6,10.5,15.3,13.8
				c0.7,0.7,1.1,1.6,1.1,2.5c0,1-0.4,1.9-1.1,2.5C59.3,43,50,54.3,46,54.3c-1.4,0-2.6-0.3-3.3-1c-0.8-0.6-1.2-1.5-1.2-2.6l0,0
				c0-0.2,0-0.4,0-0.6l0.2-4c0-0.1,0-0.1,0-0.2c0-0.2-0.1-0.5-0.3-0.6c-0.3-0.3-0.8-0.4-1.3-0.3l-2.6,0.5c-1.2,0.1-2.2-0.2-2.9-0.9
				c-0.7-0.6-0.9-1.4-0.9-2.3L33.7,33.7L33.7,33.7z"/>
		</g>
		<g>
			<path class="st1" d="M60.6,39.8c1.1-1,1.1-2.7,0-3.7c0,0-11.2-13.5-14.6-13.5c-2.5,0-3.7,1.4-3.5,3l0.3,4c0.2,1.4-1,2.4-2.7,2.2
				l-2.6-0.5c-1.6-0.2-2.8,0.7-2.8,2v9c0,1.4,1.1,2.2,2.8,2l2.6-0.5c1.6-0.2,2.8,0.8,2.7,2.2l-0.3,4c-0.2,1.7,0.7,3,3.5,3
				C49.7,53.3,60.6,39.8,60.6,39.8z"/>
		</g>
	</g>
</g>
</svg>
