<?xml version="1.0" encoding="utf-8"?>
<!-- Generator: Adobe Illustrator 19.2.0, SVG Export Plug-In . SVG Version: 6.00 Build 0)  -->
<svg version="1.1" id="Layer_1" xmlns="http://www.w3.org/2000/svg" xmlns:xlink="http://www.w3.org/1999/xlink" x="0px" y="0px"
	 viewBox="0 0 76 76" style="enable-background:new 0 0 76 76;" xml:space="preserve">
<style type="text/css">
	.st0{fill:#308BA0;}
	.st1{fill:#FFFFFF;}
</style>
<g>
	<path class="st0" d="M17.2,33.1c0-3-2.4-5.4-5.4-5.4h-1.4c-3,0-5.4,2.4-5.4,5.4v10.8c0,3,2.4,5.4,5.4,5.4h1.4c3,0,5.4-2.4,5.4-5.4
		V33.1z"/>
	<path class="st1" d="M15.8,33.1c0-2.2-1.8-4.1-4.1-4.1h-1.4c-2.2,0-4.1,1.8-4.1,4.1v10.8c0,2.2,1.8,4.1,4.1,4.1h1.4
		c2.2,0,4.1-1.8,4.1-4.1V33.1z"/>
</g>
<g>
	<path class="st0" d="M30.7,33.1c0-3-2.4-5.4-5.4-5.4h-1.4c-3,0-5.4,2.4-5.4,5.4v10.8c0,3,2.4,5.4,5.4,5.4h1.4c3,0,5.4-2.4,5.4-5.4
		V33.1z"/>
	<path class="st1" d="M29.3,33.1c0-2.2-1.8-4.1-4.1-4.1h-1.4c-2.2,0-4.1,1.8-4.1,4.1v10.8c0,2.2,1.8,4.1,4.1,4.1h1.4
		c2.2,0,4.1-1.8,4.1-4.1V33.1z"/>
</g>
<g id="Layer_2">
	<g id="fd">
		<g>
			<path class="st0" d="M32.2,32.2c0-1.2,0.4-2.3,1.2-3.1c1.1-0.9,2.5-1.4,4-1.2l3.5,0.6c0.7,0.1,1.4-0.1,1.7-0.4
				c0.2-0.2,0.4-0.5,0.4-0.8c0-0.1-0.4-5.7-0.4-5.7c0-0.1,0-0.4,0-0.6c0-2.3,1.6-4.9,6.1-4.9c4.8,0,17,14.1,20.7,18.6
				c1,0.9,1.5,2.1,1.5,3.4c0,1.3-0.5,2.5-1.5,3.4C66.8,44.7,54.2,60,48.8,60c-1.9,0-3.4-0.4-4.5-1.3c-1-0.8-1.6-2.1-1.6-3.5l0,0
				c0-0.2,0-0.5,0-0.8l0.3-5.4c0-0.1,0-0.2,0-0.3c0-0.3-0.1-0.6-0.4-0.8c-0.4-0.4-1-0.5-1.8-0.4l-3.5,0.6c-1.6,0.2-2.9-0.3-4-1.2
				c-0.9-0.8-1.3-1.9-1.3-3.1L32.2,32.2L32.2,32.2z"/>
		</g>
		<g>
			<path class="st1" d="M68.5,40.5c1.5-1.4,1.5-3.6,0-5c0,0-15.2-18.2-19.8-18.2c-3.4,0-4.9,1.8-4.7,4.1l0.3,5.5
				c0.2,1.9-1.4,3.2-3.6,3l-3.5-0.6c-2.2-0.2-3.7,0.9-3.7,2.8v12.2c0,1.9,1.5,3,3.7,2.8l3.5-0.6c2.2-0.2,3.8,1.1,3.6,3l-0.3,5.5
				c-0.3,2.2,0.9,4.1,4.7,4.1C53.9,58.7,68.5,40.5,68.5,40.5z"/>
		</g>
	</g>
</g>
</svg>
