<svg id="6a9c3c15-b859-44a1-ba90-fcdd13c377e4" data-name="Layer 1" xmlns="http://www.w3.org/2000/svg" viewBox="0 0 36.39 38.65"><defs><style>.\37 1f66eb0-9bea-497f-91db-0b6cf1b43c20,.\38 b99c993-1964-466c-8e60-631294ada294{fill:#e6e7e8;}.\32 f016226-bfb0-4680-9972-c5f07c767a71,.\34 4851ece-eaa0-4ea2-b9af-2cbd50f1611c,.\39 6ebeecd-c77b-48c9-bf57-ec997da07a50{fill:#231f20;}.\39 6ebeecd-c77b-48c9-bf57-ec997da07a50{stroke:#231f20;}.\31 03feeb7-c837-402b-b8f6-2a112b012eaf,.\32 7e7f165-3da8-4976-a5d0-d701abce40cc,.\37 1f66eb0-9bea-497f-91db-0b6cf1b43c20,.\37 302f48f-29e8-4611-8e18-2e084674eb0b,.\39 6ebeecd-c77b-48c9-bf57-ec997da07a50,.b15ce09a-c67e-4f85-98a6-119dda8a9cd1,.e6771bb0-1953-42f7-b892-6806af92dd52{stroke-linecap:round;stroke-linejoin:round;}.\39 6ebeecd-c77b-48c9-bf57-ec997da07a50,.ec5a516c-9711-445e-8f16-217e5f0b2451{opacity:0.1;}.\32 7e7f165-3da8-4976-a5d0-d701abce40cc,.\37 302f48f-29e8-4611-8e18-2e084674eb0b,.b15ce09a-c67e-4f85-98a6-119dda8a9cd1{fill:none;}.\32 7e7f165-3da8-4976-a5d0-d701abce40cc,.b15ce09a-c67e-4f85-98a6-119dda8a9cd1{stroke:#3d79cc;}.\36 e4f3583-be3a-40ae-bb03-a0f3a91343f9{fill:#3d79cc;}.b67181c5-a54f-4157-805a-93439106fcde{fill:#8e9bba;}.\37 1f66eb0-9bea-497f-91db-0b6cf1b43c20{stroke:#8e9bba;stroke-width:0.75px;}.\32 f016226-bfb0-4680-9972-c5f07c767a71{opacity:0.15;}.\31 03feeb7-c837-402b-b8f6-2a112b012eaf,.e6771bb0-1953-42f7-b892-6806af92dd52{fill:#e57055;}.e6771bb0-1953-42f7-b892-6806af92dd52{stroke:#d65b56;}.\31 03feeb7-c837-402b-b8f6-2a112b012eaf{stroke:#58595b;}.\32 7e7f165-3da8-4976-a5d0-d701abce40cc{stroke-width:7px;}.\31 f695f20-5961-400c-b33b-ca9231d8a104{fill:#fff;}.\37 302f48f-29e8-4611-8e18-2e084674eb0b{stroke:#fff;stroke-width:5px;}</style></defs><title>motion_motorclockwise</title><path class="8b99c993-1964-466c-8e60-631294ada294" d="M9.84,0.5h5.87a1,1,0,0,1,1,1v3a0,0,0,0,1,0,0H8.83a0,0,0,0,1,0,0v-3a1,1,0,0,1,1-1Z"/><path class="96ebeecd-c77b-48c9-bf57-ec997da07a50" d="M19.59,5.15v4H22.3V5.9a0.88,0.88,0,0,0-1-.76H19.59Z" transform="translate(-5.58 -4.65)"/><path class="b15ce09a-c67e-4f85-98a6-119dda8a9cd1" d="M9.84,0.5h5.87a1,1,0,0,1,1,1v3a0,0,0,0,1,0,0H8.83a0,0,0,0,1,0,0v-3a1,1,0,0,1,1-1Z"/><path class="8b99c993-1964-466c-8e60-631294ada294" d="M33.56,8.19H25.68v-2a1,1,0,0,1,1-1h5.87a1,1,0,0,1,1,1v2Z" transform="translate(-5.58 -4.65)"/><path class="96ebeecd-c77b-48c9-bf57-ec997da07a50" d="M30.85,5.15v4h2.71V5.9a0.88,0.88,0,0,0-1-.76H30.85Z" transform="translate(-5.58 -4.65)"/><path class="8b99c993-1964-466c-8e60-631294ada294" d="M11.09,41.72a1.59,1.59,0,0,1-1.59-1.59V34a17.46,17.46,0,0,1,0-19.51v-4a1.84,1.84,0,0,1,1.84-1.84h25.3a1.84,1.84,0,0,1,1.84,1.84v3.94a17.46,17.46,0,0,1,0,19.55v6.1a1.59,1.59,0,0,1-1.59,1.59H11.09Z" transform="translate(-5.58 -4.65)"/><path class="6e4f3583-be3a-40ae-bb03-a0f3a91343f9" d="M36.64,9.19A1.34,1.34,0,0,1,38,10.53v4.1a17,17,0,0,1,0,19.24v6.26a1.1,1.1,0,0,1-1.09,1.09H11.09A1.1,1.1,0,0,1,10,40.13V33.85a17,17,0,0,1-3-9.61,16.78,16.78,0,0,1,3-9.59V10.53a1.35,1.35,0,0,1,1.34-1.34h25.3m0-1H11.33A2.34,2.34,0,0,0,9,10.53v3.82A18,18,0,0,0,9,34.16v6a2.1,2.1,0,0,0,2.09,2.09h25.8A2.1,2.1,0,0,0,39,40.13v-6a18,18,0,0,0,0-19.86V10.53a2.34,2.34,0,0,0-2.34-2.34h0Z" transform="translate(-5.58 -4.65)"/><g class="ec5a516c-9711-445e-8f16-217e5f0b2451"><path class="44851ece-eaa0-4ea2-b9af-2cbd50f1611c" d="M41,24.24a16.88,16.88,0,0,1-3,9.62v6.26a1.11,1.11,0,0,1-1.1,1.1H11.09A1.1,1.1,0,0,1,10,40.12V38.33H34a1.11,1.11,0,0,0,1.1-1.1V31a17,17,0,0,0,0-19.24V9.18h1.55A1.34,1.34,0,0,1,38,10.53v4.09A16.88,16.88,0,0,1,41,24.24Z" transform="translate(-5.58 -4.65)"/></g><path class="b15ce09a-c67e-4f85-98a6-119dda8a9cd1" d="M21,0.5h6.06a0.91,0.91,0,0,1,.91.91V3.95a0,0,0,0,1,0,0H20.09a0,0,0,0,1,0,0V1.41A0.91,0.91,0,0,1,21,.5Z"/><path class="8b99c993-1964-466c-8e60-631294ada294" d="M24,36.92A11.93,11.93,0,1,1,35.93,25,11.94,11.94,0,0,1,24,36.92Z" transform="translate(-5.58 -4.65)"/><path class="b67181c5-a54f-4157-805a-93439106fcde" d="M24,13.44A11.55,11.55,0,1,1,12.45,25,11.55,11.55,0,0,1,24,13.44m0-.75A12.3,12.3,0,1,0,36.3,25,12.31,12.31,0,0,0,24,12.69h0Z" transform="translate(-5.58 -4.65)"/><path class="71f66eb0-9bea-497f-91db-0b6cf1b43c20" d="M39.58,24.2a5.15,5.15,0,0,1-5.18,5.16H29.14v6a5.17,5.17,0,0,1-10.34,0v-6H13.55a5.16,5.16,0,1,1,0-10.33h7.14a5.17,5.17,0,0,1,6.58,0H34.4A5.17,5.17,0,0,1,39.58,24.2Z" transform="translate(-5.58 -4.65)"/><circle class="2f016226-bfb0-4680-9972-c5f07c767a71" cx="8.03" cy="19.63" r="2.64"/><circle class="2f016226-bfb0-4680-9972-c5f07c767a71" cx="28.79" cy="19.63" r="2.64"/><circle class="2f016226-bfb0-4680-9972-c5f07c767a71" cx="18.41" cy="30.73" r="2.64"/><circle class="e6771bb0-1953-42f7-b892-6806af92dd52" cx="23.99" cy="25" r="4.45" transform="translate(-16.23 19.64) rotate(-45)"/><line class="103feeb7-c837-402b-b8f6-2a112b012eaf" x1="16.95" y1="21.82" x2="19.87" y2="18.89"/><line class="103feeb7-c837-402b-b8f6-2a112b012eaf" x1="16.95" y1="18.89" x2="19.87" y2="21.82"/><path class="27e7f165-3da8-4976-a5d0-d701abce40cc" d="M12.88,14.82A15,15,0,1,0,35.41,34.63" transform="translate(-5.58 -4.65)"/><path class="1f695f20-5961-400c-b33b-ca9231d8a104" d="M18.51,19.26a1.59,1.59,0,0,1-1.14-.48l-8.91-9a1.61,1.61,0,0,1,.89-2.73L20.07,5.35l0.26,0a1.61,1.61,0,0,1,1.59,1.88L20.1,17.92A1.61,1.61,0,0,1,18.51,19.26Z" transform="translate(-5.58 -4.65)"/><path class="6e4f3583-be3a-40ae-bb03-a0f3a91343f9" d="M20.32,5.83a1.11,1.11,0,0,1,1.09,1.3L19.61,17.84a1.11,1.11,0,0,1-1.1.93,1.09,1.09,0,0,1-.78-0.33l-8.91-9a1.11,1.11,0,0,1,.61-1.88L20.15,5.85h0.18m0-1L20,4.86,9.27,6.57A2.11,2.11,0,0,0,8.1,10.14l8.91,9A2.11,2.11,0,0,0,20.6,18L22.4,7.3a2.11,2.11,0,0,0-2.08-2.46h0Z" transform="translate(-5.58 -4.65)"/><path class="7302f48f-29e8-4611-8e18-2e084674eb0b" d="M12.88,14.82A15,15,0,1,0,35.41,34.63" transform="translate(-5.58 -4.65)"/></svg>