<svg id="3f1d0737-81cd-4793-8d78-bcac7820ec61" data-name="Layer 1" xmlns="http://www.w3.org/2000/svg" viewBox="0 0 33 29.46"><defs><style>.e798989a-bb16-43ff-b95a-8f1592d6ed78{fill:#fff;stroke:#3d79cc;}.\32 b6cc367-e2ff-4d28-bece-868d91a27c1c,.\33 9e8da49-5b4e-4b39-b20d-bc79457dcc1b,.\36 b833640-c4fa-4456-9874-9ca8ebad992e,.bbcbfca2-2563-43f3-beb7-8f5fc0933af9,.dc6eeea6-c445-485b-9b47-8e52f4b6bd9e,.e798989a-bb16-43ff-b95a-8f1592d6ed78{stroke-linecap:round;stroke-linejoin:round;}.\32 b6cc367-e2ff-4d28-bece-868d91a27c1c,.dc6eeea6-c445-485b-9b47-8e52f4b6bd9e{fill:none;}.\32 b6cc367-e2ff-4d28-bece-868d91a27c1c,.bbcbfca2-2563-43f3-beb7-8f5fc0933af9,.dc6eeea6-c445-485b-9b47-8e52f4b6bd9e{stroke:#4c97ff;}.\32 b6cc367-e2ff-4d28-bece-868d91a27c1c{opacity:0.5;}.\36 b833640-c4fa-4456-9874-9ca8ebad992e{fill:#231f20;stroke:#231f20;opacity:0.1;}.\33 9e8da49-5b4e-4b39-b20d-bc79457dcc1b{fill:#ffab19;stroke:#cf8b17;}.bbcbfca2-2563-43f3-beb7-8f5fc0933af9{fill:#4c97ff;opacity:0.3;}.dc6eeea6-c445-485b-9b47-8e52f4b6bd9e{stroke-width:1.5px;}</style></defs><title>motion_motorspeed</title><path class="e798989a-bb16-43ff-b95a-8f1592d6ed78" d="M40,23.74a16,16,0,0,1-5.28,13.18,2,2,0,0,1-2.89-.24,10,10,0,0,0-15.52,0,2,2,0,0,1-2.9.24A16,16,0,1,1,40,23.74Z" transform="translate(-7.5 -8.5)"/><line class="2b6cc367-e2ff-4d28-bece-868d91a27c1c" x1="16.5" y1="4.5" x2="16.5" y2="2.5"/><line class="2b6cc367-e2ff-4d28-bece-868d91a27c1c" x1="11.91" y1="5.41" x2="11.14" y2="3.57"/><line class="2b6cc367-e2ff-4d28-bece-868d91a27c1c" x1="8.01" y1="8.02" x2="6.6" y2="6.6"/><line class="2b6cc367-e2ff-4d28-bece-868d91a27c1c" x1="26.4" y1="26.4" x2="24.99" y2="24.99"/><line class="2b6cc367-e2ff-4d28-bece-868d91a27c1c" x1="5.41" y1="11.91" x2="3.56" y2="11.14"/><line class="2b6cc367-e2ff-4d28-bece-868d91a27c1c" x1="29.44" y1="21.86" x2="27.59" y2="21.1"/><line class="2b6cc367-e2ff-4d28-bece-868d91a27c1c" x1="4.5" y1="16.5" x2="2.5" y2="16.5"/><line class="2b6cc367-e2ff-4d28-bece-868d91a27c1c" x1="30.5" y1="16.5" x2="28.5" y2="16.5"/><line class="2b6cc367-e2ff-4d28-bece-868d91a27c1c" x1="5.41" y1="21.1" x2="3.56" y2="21.86"/><line class="2b6cc367-e2ff-4d28-bece-868d91a27c1c" x1="29.44" y1="11.14" x2="27.59" y2="11.91"/><line class="2b6cc367-e2ff-4d28-bece-868d91a27c1c" x1="8.01" y1="24.99" x2="6.6" y2="26.4"/><line class="2b6cc367-e2ff-4d28-bece-868d91a27c1c" x1="26.4" y1="6.6" x2="24.99" y2="8.02"/><circle class="6b833640-c4fa-4456-9874-9ca8ebad992e" cx="16.52" cy="17.15" r="2.73"/><line class="2b6cc367-e2ff-4d28-bece-868d91a27c1c" x1="21.86" y1="3.57" x2="21.09" y2="5.41"/><path class="39e8da49-5b4e-4b39-b20d-bc79457dcc1b" d="M21.48,24.9h0a2.61,2.61,0,0,1,1.28-2.24l8.89-5.28-5.32,8.87a2.61,2.61,0,0,1-2.24,1.27h0A2.61,2.61,0,0,1,21.48,24.9Z" transform="translate(-7.5 -8.5)"/><path class="bbcbfca2-2563-43f3-beb7-8f5fc0933af9" d="M37.67,25.82c-0.85-6.18-6.36-12.07-13-12.39-7.32-.34-13.46,5.73-14.37,12.38a10.92,10.92,0,0,1-.12-1.69c0-7.47,6.56-13.48,14.49-13.11,6.85,0.33,12.52,5.57,13,12.07A13.08,13.08,0,0,1,37.67,25.82Z" transform="translate(-7.5 -8.5)"/><path class="dc6eeea6-c445-485b-9b47-8e52f4b6bd9e" d="M22.36,15.34A9.94,9.94,0,0,1,24,15.2a9.83,9.83,0,0,1,4.71,1.19" transform="translate(-7.5 -8.5)"/><path class="dc6eeea6-c445-485b-9b47-8e52f4b6bd9e" d="M17.1,18a9.9,9.9,0,0,1,2.53-1.8" transform="translate(-7.5 -8.5)"/><path class="dc6eeea6-c445-485b-9b47-8e52f4b6bd9e" d="M19.87,19.94a6.41,6.41,0,0,1,5.62-1.37" transform="translate(-7.5 -8.5)"/></svg>