<svg id="4f2c4dd9-800c-4186-b996-cbf55aef380d" data-name="Layer 1" xmlns="http://www.w3.org/2000/svg" viewBox="0 0 40.67 39.85"><defs><style>.\30 9c2b718-10a8-42dc-b502-b5ad854bb765,.\38 7c28386-cde5-417d-9c32-2f6cf5652678,.\38 bf49feb-f271-4371-9b4a-972168bea9be{fill:none;}.\30 9c2b718-10a8-42dc-b502-b5ad854bb765,.\31 fa973b7-fa5e-4a61-894a-b646886482d9,.\38 7c28386-cde5-417d-9c32-2f6cf5652678,.\38 bf49feb-f271-4371-9b4a-972168bea9be,.d84e8f0d-6ab8-4f23-93dc-a85f01bccc22{stroke:#7c87a5;}.\30 9c2b718-10a8-42dc-b502-b5ad854bb765,.\31 fa973b7-fa5e-4a61-894a-b646886482d9,.\35 ee38679-fa93-4f05-bff9-c09f3a4b28ff,.\38 7c28386-cde5-417d-9c32-2f6cf5652678,.\38 bf49feb-f271-4371-9b4a-972168bea9be,.d84e8f0d-6ab8-4f23-93dc-a85f01bccc22{stroke-linecap:round;stroke-linejoin:round;}.\30 9c2b718-10a8-42dc-b502-b5ad854bb765{stroke-width:2px;}.\34 1f5b1a8-d80e-4657-8127-0cb5ed311580,.d84e8f0d-6ab8-4f23-93dc-a85f01bccc22{fill:#fff;}.\34 cb8b1db-0620-4f85-a322-af47ed82b178{fill:#3d79cc;}.\39 1688f52-ec3f-4e6d-914e-9ed724b12e1c{fill:#4c97ff;}.\31 fa973b7-fa5e-4a61-894a-b646886482d9{fill:#e6e7e8;}.\38 bf49feb-f271-4371-9b4a-972168bea9be{stroke-width:0.75px;}.\35 ee38679-fa93-4f05-bff9-c09f3a4b28ff{fill:#231f20;stroke:#231f20;opacity:0.1;}</style></defs><title>event_whentilt</title><path class="09c2b718-10a8-42dc-b502-b5ad854bb765" d="M9.79,9.61h0a5.65,5.65,0,0,1-1.66-4V5.11" transform="translate(-4.36 -4.11)"/><path class="41f5b1a8-d80e-4657-8127-0cb5ed311580" d="M39.4,22.48a1.09,1.09,0,0,1-.78-0.32l-4-4a1.1,1.1,0,0,1,.78-1.88h8a1.1,1.1,0,0,1,.78,1.88l-4,4A1.09,1.09,0,0,1,39.4,22.48Z" transform="translate(-4.36 -4.11)"/><path class="4cb8b1db-0620-4f85-a322-af47ed82b178" d="M43.42,16.77a0.6,0.6,0,0,1,.42,1l-4,4a0.6,0.6,0,0,1-.85,0l-4-4a0.6,0.6,0,0,1,.42-1h8m0-1h-8a1.6,1.6,0,0,0-1.13,2.73l4,4a1.6,1.6,0,0,0,2.26,0l4-4a1.6,1.6,0,0,0-1.13-2.73h0Z" transform="translate(-4.36 -4.11)"/><path class="4cb8b1db-0620-4f85-a322-af47ed82b178" d="M27.67,6.81l0.18-.07c0.13,0,.25-0.11.53-0.19a10.85,10.85,0,0,1,5.4-.26,11.41,11.41,0,0,1,3.54,1.4,13,13,0,0,1,1.58,1.15,9.82,9.82,0,0,1,.74.7c0.23,0.23.44,0.48,0.65,0.73a12.14,12.14,0,0,1,1.81,3.06,12.56,12.56,0,0,1,.71,2.48c0.11,0.62.14,1,.14,1l0,0.61a3.58,3.58,0,0,1-7.14.5,3.67,3.67,0,0,1,.1-1.11A4.2,4.2,0,0,0,36,16.35a5.92,5.92,0,0,0,0-1.23,6.11,6.11,0,0,0-.43-1.76c-0.07-.16-0.14-0.32-0.22-0.48a3.35,3.35,0,0,0-.25-0.45,8.31,8.31,0,0,0-.72-0.93,7,7,0,0,0-1.85-1.43,7.36,7.36,0,0,0-2-.69A8.33,8.33,0,0,0,29,9.25c-0.18,0-.39,0-0.5,0l-0.19,0A1.3,1.3,0,0,1,27.67,6.81Z" transform="translate(-4.36 -4.11)"/><path class="91688f52-ec3f-4e6d-914e-9ed724b12e1c" d="M35.38,16.77h8a0.6,0.6,0,0,1,.42,1l-4,4a0.6,0.6,0,0,1-.85,0l-4-4A0.6,0.6,0,0,1,35.38,16.77Z" transform="translate(-4.36 -4.11)"/><path class="91688f52-ec3f-4e6d-914e-9ed724b12e1c" d="M27.87,7.68s0.23-.1.69-0.25a9.79,9.79,0,0,1,2-.41,10.09,10.09,0,0,1,2.93.15,10.47,10.47,0,0,1,3.25,1.27,11.77,11.77,0,0,1,1.46,1.06,11.36,11.36,0,0,1,1.27,1.3,11.16,11.16,0,0,1,1.67,2.81,11.57,11.57,0,0,1,.66,2.28c0.1,0.57.13,0.9,0.13,0.9l0,0.33a2.54,2.54,0,0,1-5.07.37,2.63,2.63,0,0,1,0-.69A5.05,5.05,0,0,0,37,16.27a6.93,6.93,0,0,0,0-1.43,7.11,7.11,0,0,0-.57-2,7.88,7.88,0,0,0-.59-1.06,8.74,8.74,0,0,0-.83-1,8,8,0,0,0-2.14-1.56,8.31,8.31,0,0,0-2.31-.72,8.67,8.67,0,0,0-1.76-.09c-0.21,0-.4,0-0.52,0l-0.19,0a0.4,0.4,0,0,1-.2-0.76h0Z" transform="translate(-4.36 -4.11)"/><rect class="d84e8f0d-6ab8-4f23-93dc-a85f01bccc22" x="17.11" y="5.01" width="11.83" height="40.55" rx="0.84" ry="0.84" transform="translate(-15.49 19.58) rotate(-45)"/><path class="1fa973b7-fa5e-4a61-894a-b646886482d9" d="M38,37.84l-7.52-7.52a0.84,0.84,0,0,0-.6-0.25H25.77a0.84,0.84,0,0,1-.6-0.25L18.5,23.14a0.84,0.84,0,0,1-.25-0.6V18.47a0.84,0.84,0,0,0-.25-0.6l-7.52-7.52a0.84,0.84,0,0,0-1.19,0L5.1,14.53a0.84,0.84,0,0,0,0,1.19L32.59,43.21a0.84,0.84,0,0,0,1.19,0L38,39A0.84,0.84,0,0,0,38,37.84Z" transform="translate(-4.36 -4.11)"/><path class="8bf49feb-f271-4371-9b4a-972168bea9be" d="M22,21.24a5.07,5.07,0,0,1,5.12,5" transform="translate(-4.36 -4.11)"/><polyline class="8bf49feb-f271-4371-9b4a-972168bea9be" points="18.52 18.61 17.14 17.25 18.5 15.87"/><polyline class="8bf49feb-f271-4371-9b4a-972168bea9be" points="24.02 21.29 22.66 22.68 21.27 21.32"/><path class="41f5b1a8-d80e-4657-8127-0cb5ed311580" d="M15.24,7.53h5a1,1,0,0,1,1,1v2.39a0,0,0,0,1,0,0h-7a0,0,0,0,1,0,0V8.53a1,1,0,0,1,1-1Z" transform="translate(7.36 -13.94) rotate(45)"/><path class="5ee38679-fa93-4f05-bff9-c09f3a4b28ff" d="M19.69,8.79l-2.4,2.4L19,12.88l1.8-1.8a0.84,0.84,0,0,0,0-1.19Z" transform="translate(-4.36 -4.11)"/><path class="87c28386-cde5-417d-9c32-2f6cf5652678" d="M15.24,7.53h5a1,1,0,0,1,1,1v2.39a0,0,0,0,1,0,0h-7a0,0,0,0,1,0,0V8.53a1,1,0,0,1,1-1Z" transform="translate(7.36 -13.94) rotate(45)"/><path class="41f5b1a8-d80e-4657-8127-0cb5ed311580" d="M22.27,14.55h5a1,1,0,0,1,1,1v2.39a0,0,0,0,1,0,0h-7a0,0,0,0,1,0,0V15.55A1,1,0,0,1,22.27,14.55Z" transform="translate(14.38 -16.85) rotate(45)"/><path class="5ee38679-fa93-4f05-bff9-c09f3a4b28ff" d="M26.72,15.82l-2.4,2.4L26,19.91l1.8-1.8a0.84,0.84,0,0,0,0-1.19Z" transform="translate(-4.36 -4.11)"/><path class="87c28386-cde5-417d-9c32-2f6cf5652678" d="M22.27,14.55h5a1,1,0,0,1,1,1v2.39a0,0,0,0,1,0,0h-7a0,0,0,0,1,0,0V15.55A1,1,0,0,1,22.27,14.55Z" transform="translate(14.38 -16.85) rotate(45)"/><path class="41f5b1a8-d80e-4657-8127-0cb5ed311580" d="M29.58,21.86h5a1,1,0,0,1,1,1v2.39a0,0,0,0,1,0,0h-7a0,0,0,0,1,0,0V22.86A1,1,0,0,1,29.58,21.86Z" transform="translate(21.69 -19.88) rotate(45)"/><path class="5ee38679-fa93-4f05-bff9-c09f3a4b28ff" d="M34,23.13l-2.4,2.4,1.69,1.69,1.8-1.8a0.84,0.84,0,0,0,0-1.19Z" transform="translate(-4.36 -4.11)"/><path class="87c28386-cde5-417d-9c32-2f6cf5652678" d="M29.58,21.86h5a1,1,0,0,1,1,1v2.39a0,0,0,0,1,0,0h-7a0,0,0,0,1,0,0V22.86A1,1,0,0,1,29.58,21.86Z" transform="translate(21.69 -19.88) rotate(45)"/><path class="41f5b1a8-d80e-4657-8127-0cb5ed311580" d="M36.61,28.89h5a1,1,0,0,1,1,1v2.39a0,0,0,0,1,0,0h-7a0,0,0,0,1,0,0V29.89A1,1,0,0,1,36.61,28.89Z" transform="translate(28.72 -22.79) rotate(45)"/><path class="5ee38679-fa93-4f05-bff9-c09f3a4b28ff" d="M41.05,30.15l-2.4,2.4,1.69,1.69,1.8-1.8a0.84,0.84,0,0,0,0-1.19Z" transform="translate(-4.36 -4.11)"/><path class="87c28386-cde5-417d-9c32-2f6cf5652678" d="M36.61,28.89h5a1,1,0,0,1,1,1v2.39a0,0,0,0,1,0,0h-7a0,0,0,0,1,0,0V29.89A1,1,0,0,1,36.61,28.89Z" transform="translate(28.72 -22.79) rotate(45)"/><path class="5ee38679-fa93-4f05-bff9-c09f3a4b28ff" d="M5.7,13.93L30.78,39a3.38,3.38,0,0,0,4.78,0l4.78-4.78,0.6,0.6a0.84,0.84,0,0,1,0,1.19l-7.17,7.17a0.84,0.84,0,0,1-1.19,0L5.1,15.73a0.84,0.84,0,0,1,0-1.19Z" transform="translate(-4.36 -4.11)"/></svg>