<svg id="Icon" xmlns="http://www.w3.org/2000/svg" viewBox="0 0 40 40"><title>wedo_motorspeedmed</title><path d="M11.43,0.58h5.87a1,1,0,0,1,1,1v3a0,0,0,0,1,0,0H10.42a0,0,0,0,1,0,0v-3A1,1,0,0,1,11.43.58Z" fill="#e6e7e8"/><path d="M15.59,0.58v4H18.3V1.34a0.88,0.88,0,0,0-1-.76H15.59Z" fill="#231f20" stroke="#231f20" stroke-linecap="round" stroke-linejoin="round" opacity="0.1"/><path d="M11.43,0.58h5.87a1,1,0,0,1,1,1v3a0,0,0,0,1,0,0H10.42a0,0,0,0,1,0,0v-3A1,1,0,0,1,11.43.58Z" fill="none" stroke="#3d79cc" stroke-linecap="round" stroke-linejoin="round"/><path d="M29.56,3.62H21.67v-2a1,1,0,0,1,1-1h5.87a1,1,0,0,1,1,1v2Z" fill="#e6e7e8"/><path d="M26.85,0.58v4h2.71V1.34a0.88,0.88,0,0,0-1-.76H26.85Z" fill="#231f20" stroke="#231f20" stroke-linecap="round" stroke-linejoin="round" opacity="0.1"/><path d="M7.09,37.15a1.59,1.59,0,0,1-1.59-1.59V29.44a17.46,17.46,0,0,1,0-19.51V6A1.84,1.84,0,0,1,7.33,4.12h25.3A1.84,1.84,0,0,1,34.48,6V9.91a17.46,17.46,0,0,1,0,19.55v6.1a1.59,1.59,0,0,1-1.59,1.59H7.09Z" fill="#e6e7e8"/><path d="M32.64,4.62A1.34,1.34,0,0,1,34,6v4.1A17,17,0,0,1,34,29.3v6.26a1.1,1.1,0,0,1-1.09,1.09H7.09A1.1,1.1,0,0,1,6,35.56V29.29a17,17,0,0,1-3-9.61,16.78,16.78,0,0,1,3-9.59V6A1.35,1.35,0,0,1,7.33,4.62h25.3m0-1H7.33A2.34,2.34,0,0,0,5,6V9.78A18,18,0,0,0,5,29.59v6a2.1,2.1,0,0,0,2.09,2.09h25.8A2.1,2.1,0,0,0,35,35.56v-6A18,18,0,0,0,35,9.75V6a2.34,2.34,0,0,0-2.34-2.34h0Z" fill="#3d79cc"/><g opacity="0.1"><path d="M37,19.68a16.88,16.88,0,0,1-3,9.62v6.26a1.11,1.11,0,0,1-1.1,1.1H7.08A1.1,1.1,0,0,1,6,35.56V33.77H30a1.11,1.11,0,0,0,1.1-1.1V26.41a17,17,0,0,0,0-19.24V4.62h1.55A1.34,1.34,0,0,1,34,6v4.09A16.88,16.88,0,0,1,37,19.68Z" fill="#231f20"/></g><path d="M22.59,0.58h6.06a0.91,0.91,0,0,1,.91.91V4a0,0,0,0,1,0,0H21.67a0,0,0,0,1,0,0V1.49A0.91,0.91,0,0,1,22.59.58Z" fill="none" stroke="#3d79cc" stroke-linecap="round" stroke-linejoin="round"/><path d="M20,32.35A11.93,11.93,0,1,1,31.93,20.42,11.94,11.94,0,0,1,20,32.35Z" fill="#e6e7e8"/><path d="M20,8.87A11.55,11.55,0,1,1,8.45,20.42,11.55,11.55,0,0,1,20,8.87m0-.75a12.3,12.3,0,1,0,12.3,12.3A12.31,12.31,0,0,0,20,8.12h0Z" fill="#8e9bba"/><path d="M35.58,19.63a5.15,5.15,0,0,1-5.18,5.16H25.14v6a5.17,5.17,0,0,1-10.34,0v-6H9.54a5.16,5.16,0,1,1,0-10.33h7.14a5.17,5.17,0,0,1,6.58,0H30.4A5.17,5.17,0,0,1,35.58,19.63Z" fill="#e6e7e8" stroke="#8e9bba" stroke-linecap="round" stroke-linejoin="round" stroke-width="0.75"/><circle cx="9.61" cy="19.71" r="2.64" fill="#231f20" opacity="0.15"/><circle cx="30.37" cy="19.71" r="2.64" fill="#231f20" opacity="0.15"/><circle cx="20" cy="30.81" r="2.64" fill="#231f20" opacity="0.15"/><circle cx="19.99" cy="20.43" r="4.45" transform="translate(-8.59 20.12) rotate(-45)" fill="#e57055" stroke="#d65b56" stroke-linecap="round" stroke-linejoin="round"/><line x1="18.53" y1="21.9" x2="21.46" y2="18.97" fill="#e57055" stroke="#58595b" stroke-linecap="round" stroke-linejoin="round"/><line x1="18.53" y1="18.97" x2="21.46" y2="21.9" fill="#e57055" stroke="#58595b" stroke-linecap="round" stroke-linejoin="round"/><path d="M26,8H36.71a2.24,2.24,0,0,1,2.21,2.63L35.56,30.13A2.24,2.24,0,0,1,33.35,32H29.27a2.24,2.24,0,0,1-2.21-1.88L23.81,10.61A2.24,2.24,0,0,1,26,8Z" fill="#fff"/><polygon points="36.89 22.39 36.07 27.19 26.57 27.19 25.77 22.39 36.89 22.39" fill="#2ff42f" stroke="#fff" stroke-linecap="round" stroke-linejoin="round"/><path d="M36.07,27.19l-0.51,2.94A2.25,2.25,0,0,1,33.35,32H29.27a2.23,2.23,0,0,1-2.21-1.88l-0.49-2.92h9.5Z" fill="#3cefab" stroke="#fff" stroke-linecap="round" stroke-linejoin="round"/><polygon points="38.55 12.79 37.72 17.59 24.97 17.59 24.17 12.79 38.55 12.79" fill="#f7941e" stroke="#fff" stroke-linecap="round" stroke-linejoin="round" opacity="0.1"/><polygon points="37.72 17.59 36.89 22.39 25.77 22.39 24.97 17.59 37.72 17.59" fill="#e6f42a" stroke="#fff" stroke-linecap="round" stroke-linejoin="round"/><path d="M38.92,10.62l-0.37,2.17H24.17L23.81,10.6A2.24,2.24,0,0,1,26,8H36.71A2.25,2.25,0,0,1,38.92,10.62Z" fill="#f24c25" stroke="#fff" stroke-linecap="round" stroke-linejoin="round" opacity="0.1"/><path d="M36.71,8a2.24,2.24,0,0,1,2.21,2.63L35.56,30.13A2.24,2.24,0,0,1,33.35,32H29.27a2.24,2.24,0,0,1-2.21-1.88L23.81,10.61A2.24,2.24,0,0,1,26,8H36.71m0-1H26a3.24,3.24,0,0,0-3.2,3.78l3.25,19.51A3.23,3.23,0,0,0,29.27,33h4.07a3.24,3.24,0,0,0,3.2-2.69L39.9,10.79A3.24,3.24,0,0,0,36.71,7h0Z" fill="#3d79cc"/><path d="M36.71,9a1.24,1.24,0,0,1,1.23,1.46L34.57,30a1.24,1.24,0,0,1-1.23,1H29.27A1.24,1.24,0,0,1,28,30L24.79,10.44A1.24,1.24,0,0,1,26,9H36.71m0-1H26a2.24,2.24,0,0,0-2.21,2.61l3.25,19.51A2.24,2.24,0,0,0,29.27,32h4.07a2.24,2.24,0,0,0,2.21-1.86l3.36-19.51A2.24,2.24,0,0,0,36.71,8h0Z" fill="#fff"/></svg>