<svg id="2f40edac-849a-4b10-8d4f-497e6dd67a3d" data-name="Layer 1" xmlns="http://www.w3.org/2000/svg" viewBox="0 0 36.3 38.48"><defs><style>.ea23adac-b256-4b28-aa5e-4b268d5c5801,.ecd60c15-7296-41ad-911c-438f0cc70c88{fill:#e6e7e8;}.\39 3ebe808-c780-448e-b2ac-4cbdd06b3251,.a2957f6f-a562-484f-a050-751346a8a02f,.be3f332f-6f7c-44ea-9300-9e43f685af53{fill:#231f20;}.a2957f6f-a562-484f-a050-751346a8a02f{stroke:#231f20;}.\32 1ef99a9-c33a-4206-a59e-e35471341692,.\33 21d5b4d-c224-4404-a920-16fb59bc4214,.\33 70a4c70-3f73-477d-9226-5a2eaf7aa355,.\36 02aaca4-0f7e-4da6-a56b-6a5014d062cb,.a2957f6f-a562-484f-a050-751346a8a02f,.cdd1426f-457b-4f4d-897a-4132821da8e7,.ea23adac-b256-4b28-aa5e-4b268d5c5801{stroke-linecap:round;stroke-linejoin:round;}.\30 0798a1d-afc4-43d9-bfbb-570b652762c0,.a2957f6f-a562-484f-a050-751346a8a02f{opacity:0.1;}.\32 1ef99a9-c33a-4206-a59e-e35471341692,.\33 21d5b4d-c224-4404-a920-16fb59bc4214,.\33 70a4c70-3f73-477d-9226-5a2eaf7aa355{fill:none;}.\32 1ef99a9-c33a-4206-a59e-e35471341692,.\33 21d5b4d-c224-4404-a920-16fb59bc4214{stroke:#3d79cc;}.\33 34bde3a-e979-4e76-9205-55abf143bac7{fill:#3d79cc;}.c0c2c3af-1941-42d8-be4d-6f7458773993{fill:#8e9bba;}.ea23adac-b256-4b28-aa5e-4b268d5c5801{stroke:#8e9bba;stroke-width:0.75px;}.\39 3ebe808-c780-448e-b2ac-4cbdd06b3251{opacity:0.15;}.\36 02aaca4-0f7e-4da6-a56b-6a5014d062cb,.cdd1426f-457b-4f4d-897a-4132821da8e7{fill:#e57055;}.\36 02aaca4-0f7e-4da6-a56b-6a5014d062cb{stroke:#d65b56;}.cdd1426f-457b-4f4d-897a-4132821da8e7{stroke:#58595b;}.\32 1ef99a9-c33a-4206-a59e-e35471341692{stroke-width:7px;}.ef2ef58c-7609-46c5-8164-6969165dc115{fill:#fff;}.\33 70a4c70-3f73-477d-9226-5a2eaf7aa355{stroke:#fff;stroke-width:5px;}</style></defs><title>motion_motorcounterclockwise</title><path class="ecd60c15-7296-41ad-911c-438f0cc70c88" d="M9.41,0.5h5.87a1,1,0,0,1,1,1v3a0,0,0,0,1,0,0H8.4a0,0,0,0,1,0,0v-3A1,1,0,0,1,9.41.5Z"/><path class="a2957f6f-a562-484f-a050-751346a8a02f" d="M19.62,4.75v4h2.71V5.51a0.88,0.88,0,0,0-1-.76H19.62Z" transform="translate(-6.04 -4.25)"/><path class="321d5b4d-c224-4404-a920-16fb59bc4214" d="M9.41,0.5h5.87a1,1,0,0,1,1,1v3a0,0,0,0,1,0,0H8.4a0,0,0,0,1,0,0v-3A1,1,0,0,1,9.41.5Z"/><path class="ecd60c15-7296-41ad-911c-438f0cc70c88" d="M33.59,7.8H25.7v-2a1,1,0,0,1,1-1h5.87a1,1,0,0,1,1,1v2Z" transform="translate(-6.04 -4.25)"/><path class="a2957f6f-a562-484f-a050-751346a8a02f" d="M30.88,4.75v4h2.71V5.51a0.88,0.88,0,0,0-1-.76H30.88Z" transform="translate(-6.04 -4.25)"/><path class="ecd60c15-7296-41ad-911c-438f0cc70c88" d="M11.12,41.33a1.59,1.59,0,0,1-1.59-1.59V33.62a17.46,17.46,0,0,1,0-19.51v-4A1.84,1.84,0,0,1,11.36,8.3h25.3a1.84,1.84,0,0,1,1.84,1.84v3.94a17.46,17.46,0,0,1,0,19.55v6.1a1.59,1.59,0,0,1-1.59,1.59H11.12Z" transform="translate(-6.04 -4.25)"/><path class="334bde3a-e979-4e76-9205-55abf143bac7" d="M36.67,8.8A1.34,1.34,0,0,1,38,10.14v4.1a17,17,0,0,1,0,19.24v6.26a1.1,1.1,0,0,1-1.09,1.09H11.12A1.1,1.1,0,0,1,10,39.73V33.46a17,17,0,0,1-3-9.61,16.78,16.78,0,0,1,3-9.59V10.14A1.35,1.35,0,0,1,11.36,8.8h25.3m0-1H11.36A2.34,2.34,0,0,0,9,10.14V14A18,18,0,0,0,9,33.77v6a2.1,2.1,0,0,0,2.09,2.09h25.8A2.1,2.1,0,0,0,39,39.73v-6a18,18,0,0,0,0-19.86V10.14A2.34,2.34,0,0,0,36.67,7.8h0Z" transform="translate(-6.04 -4.25)"/><g class="00798a1d-afc4-43d9-bfbb-570b652762c0"><path class="be3f332f-6f7c-44ea-9300-9e43f685af53" d="M41,23.85a16.88,16.88,0,0,1-3,9.62v6.26a1.11,1.11,0,0,1-1.1,1.1H11.11A1.1,1.1,0,0,1,10,39.73V37.94H34a1.11,1.11,0,0,0,1.1-1.1V30.58a17,17,0,0,0,0-19.24V8.79h1.55A1.34,1.34,0,0,1,38,10.14v4.09A16.88,16.88,0,0,1,41,23.85Z" transform="translate(-6.04 -4.25)"/></g><path class="321d5b4d-c224-4404-a920-16fb59bc4214" d="M20.57,0.5h6.06a0.91,0.91,0,0,1,.91.91V3.95a0,0,0,0,1,0,0H19.66a0,0,0,0,1,0,0V1.41A0.91,0.91,0,0,1,20.57.5Z"/><path class="ecd60c15-7296-41ad-911c-438f0cc70c88" d="M24,36.52A11.93,11.93,0,1,1,36,24.6,11.94,11.94,0,0,1,24,36.52Z" transform="translate(-6.04 -4.25)"/><path class="c0c2c3af-1941-42d8-be4d-6f7458773993" d="M24,13A11.55,11.55,0,1,1,12.48,24.6,11.55,11.55,0,0,1,24,13m0-.75a12.3,12.3,0,1,0,12.3,12.3A12.31,12.31,0,0,0,24,12.3h0Z" transform="translate(-6.04 -4.25)"/><path class="ea23adac-b256-4b28-aa5e-4b268d5c5801" d="M39.61,23.8A5.15,5.15,0,0,1,34.43,29H29.17v6a5.17,5.17,0,0,1-10.34,0V29H13.57a5.16,5.16,0,1,1,0-10.33h7.14a5.17,5.17,0,0,1,6.58,0h7.13A5.17,5.17,0,0,1,39.61,23.8Z" transform="translate(-6.04 -4.25)"/><circle class="93ebe808-c780-448e-b2ac-4cbdd06b3251" cx="7.6" cy="19.63" r="2.64"/><circle class="93ebe808-c780-448e-b2ac-4cbdd06b3251" cx="28.36" cy="19.63" r="2.64"/><circle class="93ebe808-c780-448e-b2ac-4cbdd06b3251" cx="17.98" cy="30.73" r="2.64"/><circle class="602aaca4-0f7e-4da6-a56b-6a5014d062cb" cx="24.02" cy="24.61" r="4.45" transform="translate(-16.41 19.94) rotate(-45)"/><line class="cdd1426f-457b-4f4d-897a-4132821da8e7" x1="16.52" y1="21.82" x2="19.44" y2="18.89"/><line class="cdd1426f-457b-4f4d-897a-4132821da8e7" x1="16.52" y1="18.89" x2="19.44" y2="21.82"/><path class="21ef99a9-c33a-4206-a59e-e35471341692" d="M35,14.26A15,15,0,1,1,12.52,34.07" transform="translate(-6.04 -4.25)"/><path class="ef2ef58c-7609-46c5-8164-6969165dc115" d="M29.42,18.7a1.61,1.61,0,0,1-1.6-1.34L26,6.65A1.61,1.61,0,0,1,27.6,4.77l0.26,0L38.58,6.5a1.61,1.61,0,0,1,.89,2.73l-8.91,9a1.6,1.6,0,0,1-1.14.48h0Z" transform="translate(-6.04 -4.25)"/><path class="334bde3a-e979-4e76-9205-55abf143bac7" d="M27.6,5.27h0.18L38.5,7a1.11,1.11,0,0,1,.61,1.88l-8.91,9a1.09,1.09,0,0,1-.78.33,1.11,1.11,0,0,1-1.1-.93L26.51,6.57a1.11,1.11,0,0,1,1.09-1.3m0-1a2.11,2.11,0,0,0-2.08,2.46l1.81,10.71a2.11,2.11,0,0,0,3.58,1.13l8.91-9A2.11,2.11,0,0,0,38.66,6L27.94,4.3l-0.34,0h0Z" transform="translate(-6.04 -4.25)"/><path class="370a4c70-3f73-477d-9226-5a2eaf7aa355" d="M35,14.26A15,15,0,1,1,12.52,34.07" transform="translate(-6.04 -4.25)"/></svg>