<svg id="e8722d01-abb1-41df-bb48-f6f676948895" data-name="Layer 1" xmlns="http://www.w3.org/2000/svg" viewBox="0 0 38.7 39.52"><defs><style>.\35 2f2a3b9-f629-4eb2-abc7-90d6ea2921ef,.ff362a23-4287-4928-9ba4-a0f2c748baff{fill:#fff;}.\33 242f432-abf4-434f-be73-20ca2a93421c,.ac5fb5c8-49da-4083-9cad-0549db29d28e,.e3e8e261-3f0e-4ecd-8fa8-e06897062bdb,.ff362a23-4287-4928-9ba4-a0f2c748baff{stroke:#7c87a5;}.\33 242f432-abf4-434f-be73-20ca2a93421c,.\37 e649bcb-b0e1-4814-a4cf-e9e5a37f92cd,.a505fbbc-13b6-45f6-850f-840ff23a4593,.ac5fb5c8-49da-4083-9cad-0549db29d28e,.e3e8e261-3f0e-4ecd-8fa8-e06897062bdb,.ff362a23-4287-4928-9ba4-a0f2c748baff{stroke-linecap:round;stroke-linejoin:round;}.a505fbbc-13b6-45f6-850f-840ff23a4593{fill:#231f20;stroke:#231f20;opacity:0.1;}.\37 e649bcb-b0e1-4814-a4cf-e9e5a37f92cd,.e3e8e261-3f0e-4ecd-8fa8-e06897062bdb{fill:none;}.ac5fb5c8-49da-4083-9cad-0549db29d28e{fill:#e6e7e8;}.\33 242f432-abf4-434f-be73-20ca2a93421c{fill:#7c87a5;}.\37 e649bcb-b0e1-4814-a4cf-e9e5a37f92cd{stroke:#fff;stroke-width:1.5px;}</style></defs><title>event_whenclose</title><rect class="ff362a23-4287-4928-9ba4-a0f2c748baff" x="7.4" y="4.31" width="22.79" height="13.29" rx="1" ry="1"/><path class="52f2a3b9-f629-4eb2-abc7-90d6ea2921ef" d="M10.3,0.5h5.82a1,1,0,0,1,1,1V4.31a0,0,0,0,1,0,0H9.3a0,0,0,0,1,0,0V1.5a1,1,0,0,1,1-1Z"/><path class="a505fbbc-13b6-45f6-850f-840ff23a4593" d="M19.5,4.54V8.35h2.69V5.49a1,1,0,0,0-.95-0.95H19.5Z" transform="translate(-5.06 -4.04)"/><path class="e3e8e261-3f0e-4ecd-8fa8-e06897062bdb" d="M10.3,0.5h5.82a1,1,0,0,1,1,1V4.31a0,0,0,0,1,0,0H9.3a0,0,0,0,1,0,0V1.5a1,1,0,0,1,1-1Z"/><path class="52f2a3b9-f629-4eb2-abc7-90d6ea2921ef" d="M21.47,0.5h5.82a1,1,0,0,1,1,1V4.31a0,0,0,0,1,0,0H20.47a0,0,0,0,1,0,0V1.5a1,1,0,0,1,1-1Z"/><path class="a505fbbc-13b6-45f6-850f-840ff23a4593" d="M30.67,4.54V8.35h2.69V5.49a1,1,0,0,0-.95-0.95H30.67Z" transform="translate(-5.06 -4.04)"/><path class="e3e8e261-3f0e-4ecd-8fa8-e06897062bdb" d="M21.47,0.5h5.82a1,1,0,0,1,1,1V4.31a0,0,0,0,1,0,0H20.47a0,0,0,0,1,0,0V1.5a1,1,0,0,1,1-1Z"/><path class="52f2a3b9-f629-4eb2-abc7-90d6ea2921ef" d="M12.46,14.85h1.9V11.71A4.18,4.18,0,0,1,17.6,7.56a4.09,4.09,0,0,1,4.87,3.33,1.58,1.58,0,0,0,.7,1.08h0a1.58,1.58,0,0,0,1.72,0h0a1.58,1.58,0,0,0,.7-1.08,4.09,4.09,0,0,1,4.87-3.33,4.18,4.18,0,0,1,3.24,4.15v3.14h1.56" transform="translate(-5.06 -4.04)"/><path class="ac5fb5c8-49da-4083-9cad-0549db29d28e" d="M34.38,16.6H29.23a3.18,3.18,0,0,1-2.94-2h0a1,1,0,0,0-1.23-.52l-0.5.2a1.41,1.41,0,0,1-1.07,0l-0.37-.16a1,1,0,0,0-1.32.53h0a3.18,3.18,0,0,1-2.93,1.94H13.34a0.87,0.87,0,0,0-.87.87v3.3a0.87,0.87,0,0,0,.87.87h21a0.87,0.87,0,0,0,.87-0.87v-3.3A0.87,0.87,0,0,0,34.38,16.6Z" transform="translate(-5.06 -4.04)"/><circle class="3242f432-abf4-434f-be73-20ca2a93421c" cx="13.38" cy="7.64" r="2.17"/><circle class="ac5fb5c8-49da-4083-9cad-0549db29d28e" cx="24.66" cy="7.64" r="2.17"/><path class="ff362a23-4287-4928-9ba4-a0f2c748baff" d="M22.47,10.9a1.58,1.58,0,0,0,.7,1.08h0a1.58,1.58,0,0,0,1.72,0h0a1.58,1.58,0,0,0,.7-1.08" transform="translate(-5.06 -4.04)"/><path class="e3e8e261-3f0e-4ecd-8fa8-e06897062bdb" d="M12.46,14.85h1.9V11.71A4.18,4.18,0,0,1,17.6,7.56a4.09,4.09,0,0,1,4.87,3.33,1.58,1.58,0,0,0,.7,1.08h0a1.58,1.58,0,0,0,1.72,0h0a1.58,1.58,0,0,0,.7-1.08,4.09,4.09,0,0,1,4.87-3.33,4.18,4.18,0,0,1,3.24,4.15v3.14h1.56" transform="translate(-5.06 -4.04)"/><path class="a505fbbc-13b6-45f6-850f-840ff23a4593" d="M12.46,19.75H29.54a3.8,3.8,0,0,0,3.8-3.8V8.35h1a1,1,0,0,1,.95.95V20.7a1,1,0,0,1-.95.95H13.41a1,1,0,0,1-.95-0.95v-1Z" transform="translate(-5.06 -4.04)"/><path class="7e649bcb-b0e1-4814-a4cf-e9e5a37f92cd" d="M38.15,8.43A23.69,23.69,0,0,0,36.94,6" transform="translate(-5.06 -4.04)"/><path class="7e649bcb-b0e1-4814-a4cf-e9e5a37f92cd" d="M37.5,27.13a22.34,22.34,0,0,0,1.64-15.88" transform="translate(-5.06 -4.04)"/><path class="7e649bcb-b0e1-4814-a4cf-e9e5a37f92cd" d="M42.62,12.59c-0.14-.93-0.33-1.89-0.57-2.87" transform="translate(-5.06 -4.04)"/><path class="7e649bcb-b0e1-4814-a4cf-e9e5a37f92cd" d="M39.91,31.38A29.86,29.86,0,0,0,43,16.93" transform="translate(-5.06 -4.04)"/><path class="7e649bcb-b0e1-4814-a4cf-e9e5a37f92cd" d="M36.31,14.38q-0.1-.77-0.24-1.6" transform="translate(-5.06 -4.04)"/><path class="52f2a3b9-f629-4eb2-abc7-90d6ea2921ef" d="M26.19,29.18l8.08,2.41a1.73,1.73,0,0,0,2.41-1c0.59-1.82-1.48-2.36-1.48-2.36l-6.77-2s-5.74-2-6.25-3.43a9.34,9.34,0,0,0,4-1.32c1.91-1.21,3.53-.67,3.85-3.31s-2.36-1.55-3.28-1.33-5.48.68-7.22,0.82S13.52,19,12.93,19.74a9.38,9.38,0,0,0-.87,1.33L10.23,21s-1.35-.55-3.52,4.81S6.1,32.18,6.1,32.18a13.81,13.81,0,0,1,3.38,1.37c0.65,0.6.79,2.06,3.08,3.21S24.5,42.6,24.5,42.6s1.87,1.21,2.71-.31-1-2.27-1.53-2.47-5.25-2.57-5.25-2.57l0.73-.83,8.54,3.85s1.95,1.29,3-.54-1.5-2.68-1.5-2.68l-7.95-3.66,0.23-.3,10.15,3.77S35.9,38,36.69,36.2s-1.76-2.45-1.76-2.45l-9.18-3.66Z" transform="translate(-5.06 -4.04)"/><path class="7e649bcb-b0e1-4814-a4cf-e9e5a37f92cd" d="M34.16,25.93s2.56-2.58,2.35-9.1" transform="translate(-5.06 -4.04)"/><path class="e3e8e261-3f0e-4ecd-8fa8-e06897062bdb" d="M26.19,29.18l8.08,2.41a1.73,1.73,0,0,0,2.41-1c0.59-1.82-1.48-2.36-1.48-2.36l-6.77-2s-5.74-2-6.25-3.43a9.34,9.34,0,0,0,4-1.32c1.91-1.21,3.53-.67,3.85-3.31s-2.36-1.55-3.28-1.33-5.48.68-7.22,0.82S13.52,19,12.93,19.74a9.38,9.38,0,0,0-.87,1.33L10.23,21s-1.35-.55-3.52,4.81S6.1,32.18,6.1,32.18a13.81,13.81,0,0,1,3.38,1.37c0.65,0.6.79,2.06,3.08,3.21S24.5,42.6,24.5,42.6s1.87,1.21,2.71-.31-1-2.27-1.53-2.47-5.25-2.57-5.25-2.57l0.73-.83,8.54,3.85s1.95,1.29,3-.54-1.5-2.68-1.5-2.68l-7.95-3.66,0.23-.3,10.15,3.77S35.9,38,36.69,36.2s-1.76-2.45-1.76-2.45l-9.18-3.66Z" transform="translate(-5.06 -4.04)"/></svg>