<?xml version="1.0" encoding="UTF-8"?>
<svg width="52px" height="52px" viewBox="0 0 52 52" version="1.1" xmlns="http://www.w3.org/2000/svg" xmlns:xlink="http://www.w3.org/1999/xlink">
    <!-- Generator: Sketch 51.1 (57501) - http://www.bohemiancoding.com/sketch -->
    <title>scratchlink</title>
    <desc>Created with Sketch.</desc>
    <defs>
        <path d="M6.599912,0 L37.399912,0 C41.045312,0 43.999912,2.95504 43.999912,6.6 L43.999912,37.4 C43.999912,41.04496 41.045312,44 37.399912,44 L6.599912,44 C2.954952,44 -8.8e-05,41.04496 -8.8e-05,37.4 L-8.8e-05,6.6 C-8.8e-05,2.95504 2.954952,0 6.599912,0" id="path-1"></path>
        <filter x="-13.6%" y="-13.6%" width="127.3%" height="127.3%" filterUnits="objectBoundingBox" id="filter-2">
            <feMorphology radius="2" operator="dilate" in="SourceAlpha" result="shadowSpreadOuter1"></feMorphology>
            <feOffset dx="0" dy="0" in="shadowSpreadOuter1" result="shadowOffsetOuter1"></feOffset>
            <feColorMatrix values="0 0 0 0 0.298039216   0 0 0 0 0.592156863   0 0 0 0 1  0 0 0 0.25 0" type="matrix" in="shadowOffsetOuter1"></feColorMatrix>
        </filter>
    </defs>
    <g id="R1_Extension" stroke="none" stroke-width="1" fill="none" fill-rule="evenodd">
        <g id="No-Comms-with-Scratch-Link-or-Bluetooth" transform="translate(-506.000000, -262.000000)">
            <g id="No-connection-v2" transform="translate(-2.000000, 0.000000)">
                <g id="Modal" transform="translate(407.000000, 187.000000)">
                    <g id="Scratch-Link" transform="translate(53.000000, 75.000000)">
                        <g id="scratchlink" transform="translate(52.000000, 4.000000)">
                            <g id="Fill-1">
                                <use fill="black" fill-opacity="1" filter="url(#filter-2)" xlink:href="#path-1"></use>
                                <use fill="#25AFF4" fill-rule="evenodd" xlink:href="#path-1"></use>
                            </g>
                            <path d="M35.854764,19.82882 C36.027684,20.8681 36.062444,21.91574 35.988084,22.9427 L39.440764,24.78542 C39.984604,25.05162 40.240684,25.68522 40.034324,26.25458 L38.559444,30.3237 C38.353084,30.89438 37.748524,31.2169 37.159364,31.07082 L33.333564,30.26386 C32.718004,31.10382 32.018404,31.8835 31.217604,32.56902 L32.519124,36.64606 C32.716684,37.21982 32.448724,37.85034 31.898724,38.10686 L27.975684,39.93638 C27.425684,40.19246 26.770524,39.9927 26.458124,39.47262 L24.171444,35.85494 C23.131724,36.02742 22.084524,36.06218 21.057124,35.98826 L19.215724,39.43918 C18.949084,39.9839 18.314604,40.23998 17.744364,40.0323 L13.669084,38.54906 C13.099284,38.34138 12.777644,37.7377 12.923284,37.14898 L13.730684,33.32186 C12.896444,32.71818 12.116324,32.01858 11.431244,31.21778 L7.354204,32.5193 C6.780004,32.71686 6.149924,32.4489 5.893404,31.8989 L4.063884,27.97542 C3.807364,27.42542 4.007564,26.7707 4.527204,26.45786 L8.133884,24.1769 C7.972404,23.13146 7.920924,22.0781 8.006284,21.04586 L4.556684,19.20446 C4.011524,18.93782 3.755884,18.30202 3.964004,17.73178 L5.449444,13.66838 C5.658004,13.09902 6.262124,12.77826 6.850404,12.92478 L10.666964,13.73614 C11.270204,12.9019 11.981684,12.1165 12.782044,11.43098 L11.480964,7.35394 C11.283404,6.78018 11.551364,6.14966 12.101364,5.89314 L16.024404,4.06362 C16.574404,3.8071 17.229564,4.0073 17.541964,4.52782 L19.828644,8.14506 C20.868364,7.97258 21.927444,7.9321 22.960564,7.9893 L24.796244,4.55466 C25.062884,4.01038 25.697364,3.75474 26.266724,3.96198 L30.325724,5.4395 C30.895524,5.64674 31.217164,6.25086 31.071084,6.83914 L30.263684,10.6667 C31.109804,11.2651 31.883764,11.98186 32.580724,12.77694 L36.646324,11.4807 C37.220084,11.28314 37.850164,11.5511 38.106684,12.1011 L39.936204,16.02458 C40.192724,16.57458 39.992524,17.2293 39.472444,17.54214 L35.854764,19.82882 Z" id="Fill-4" fill-opacity="0.15" fill="#231F20"></path>
                            <path d="M30.417684,24.430956 C30.445844,26.694756 29.431644,28.874076 27.638204,30.404836 C26.209964,31.635956 24.408604,32.343916 22.535524,32.412996 C21.669604,33.092796 20.619324,33.496276 19.495124,33.567996 C19.375004,33.575476 19.254884,33.580316 19.134764,33.580316 C16.263324,33.580316 13.845964,31.337196 13.626404,28.473236 C13.623764,28.439796 13.621124,28.394036 13.618484,28.335076 C13.615844,28.314836 13.613644,28.294156 13.613644,28.271276 C13.557324,27.065236 13.585484,26.068636 13.621124,25.435036 C13.654564,24.850276 13.674804,23.797356 13.677444,23.552276 L13.677444,23.536876 C13.692844,22.680636 13.904924,21.845516 14.290804,21.096636 C14.180804,20.258876 14.183444,19.361716 14.300924,18.421876 L14.316324,18.276236 C14.318964,18.258196 14.318964,18.237516 14.321164,18.219916 C14.323804,18.204516 14.326444,18.186916 14.329084,18.168876 C14.425884,17.368956 14.594844,16.058196 15.310284,14.714436 C16.500924,12.460756 18.759444,11.116996 21.350164,11.116996 L21.460164,11.116996 C22.275044,10.662476 23.192444,10.419596 24.134924,10.419596 L24.234804,10.419596 C27.234284,10.473276 29.674524,12.951356 29.674524,15.945996 C29.674524,15.979436 29.572004,19.571596 29.457164,20.800516 C30.078004,21.886436 30.404924,23.117996 30.417684,24.430956" id="Fill-6" fill="#FFFFFF"></path>
                            <path d="M27.86278,24.459116 C27.88302,25.959076 27.19354,27.425596 25.96946,28.470596 C24.92974,29.367316 23.60094,29.863196 22.2343,29.863196 C21.9989,29.860556 21.7613,29.847796 21.52898,29.816996 C21.4753,29.888716 21.41898,29.957796 21.36046,30.023796 C20.83378,30.619116 20.10822,30.971996 19.31622,31.017756 C19.25506,31.023036 19.1961,31.025676 19.13494,31.025676 C17.58922,31.025676 16.28858,29.814356 16.17374,28.271276 C16.1711,28.240476 16.16846,28.209676 16.16846,28.176676 L16.16626,28.153796 C16.11478,27.055116 16.1403,26.150476 16.1711,25.585956 C16.20938,24.931676 16.23006,23.820236 16.23226,23.579996 C16.24502,22.828916 16.53366,22.146916 17.00138,21.628156 C16.76906,20.823396 16.69514,19.857596 16.8377,18.715356 L16.85574,18.549476 C16.85838,18.536716 16.85838,18.523956 16.86102,18.511196 C16.94286,17.841516 17.06518,16.852836 17.56854,15.907716 C18.32006,14.486956 19.69946,13.672076 21.3499,13.672076 C21.4423,13.672076 21.5391,13.674716 21.63854,13.679556 C21.81278,13.689676 21.98878,13.710356 22.15994,13.741156 C22.69674,13.258036 23.40954,12.959276 24.19142,12.974236 C25.80622,13.002396 27.11918,14.336476 27.11918,15.945996 C27.11918,15.981636 26.97618,20.281756 26.9071,20.654876 C26.86618,20.887196 26.79754,21.109396 26.70778,21.319276 C27.45138,22.177276 27.85266,23.248236 27.86278,24.459116" id="Fill-8" fill="#F9A83A"></path>
                            <path d="M21.41766,21.36794 C20.65162,21.2487 20.24286,20.7361 20.44614,19.15034 L20.46946,18.95894 C20.64018,17.58174 20.78362,17.27506 21.44626,17.3107 C21.6403,17.32302 21.86382,17.44578 22.0869,17.62882 C22.29414,17.86862 22.75394,18.17882 23.0131,18.79306 C23.19922,19.24362 23.26302,19.53754 23.28942,19.85434 L23.33078,20.24242 L23.33078,20.24066 C23.38534,20.50642 23.58906,20.7251 23.87066,20.77218 C24.23278,20.83862 24.58258,20.5975 24.64638,20.2345 C24.6543,20.19138 24.81886,16.01534 24.81886,15.94714 C24.81886,15.5793 24.52362,15.28054 24.15358,15.27438 C23.78354,15.27218 23.4839,15.5727 23.4839,15.93966 C23.4839,15.94802 23.48214,16.52442 23.47026,17.10522 C22.94358,16.53322 22.26994,16.01974 21.5149,15.9753 C19.49574,15.8675 19.2753,17.72386 19.14242,18.79394 L19.12218,18.98358 C18.85026,21.09778 19.55514,22.43186 21.21218,22.69146 C23.0131,22.97394 24.21518,23.38754 24.22618,24.49546 C24.23278,24.92622 24.00618,25.36842 23.61106,25.70766 C23.13454,26.1129 22.49654,26.2955 21.89594,26.19694 C21.70938,26.16834 21.5347,26.1173 21.3675,26.06142 C21.13166,25.9303 20.53678,25.56818 20.23538,25.15106 C19.98106,24.79906 19.89306,24.24554 19.86534,23.89442 C19.86886,23.7369 19.8693,23.6335 19.8693,23.62162 C19.8759,23.25202 19.57934,22.95062 19.2137,22.94182 C18.84234,22.9339 18.5383,23.23222 18.53126,23.60138 C18.53126,23.6137 18.51454,24.92226 18.46658,25.7103 C18.39794,26.97926 18.46658,28.05462 18.46658,28.10126 C18.49386,28.46998 18.8111,28.74806 19.18026,28.72342 C19.54766,28.70362 19.82838,28.38418 19.80286,28.01502 C19.80286,28.0093 19.76986,27.48878 19.77426,26.76806 C20.26398,27.0809 20.90726,27.38494 21.67418,27.51562 C22.67298,27.68326 23.6951,27.39418 24.47522,26.72318 C25.17482,26.12522 25.57522,25.30858 25.56422,24.48182 C25.54002,22.01254 22.75394,21.57914 21.41766,21.36794" id="Fill-10" fill="#FFFFFF"></path>
                        </g>
                    </g>
                </g>
            </g>
        </g>
    </g>
</svg>