<svg xmlns="http://www.w3.org/2000/svg" width="36" height="36" style="-ms-transform:rotate(360deg);-webkit-transform:rotate(360deg);transform:rotate(360deg)"><path d="m31.42 9.09-13-6a1 1 0 0 0-.84 0l-13 6A1 1 0 0 0 4 10v17a1 1 0 0 0 .58.91l13 6a1 1 0 0 0 .84 0l13-6A1 1 0 0 0 32 27V10a1 1 0 0 0-.58-.91zM18 5.1 28.61 10 18 14.9 7.39 10zM6 11.56l11 5.08v14.8L6 26.36zm13 19.88v-14.8l11-5.08v14.8z" class="clr-i-outline clr-i-outline-path-1" fill="#fff"/><path fill="rgba(0, 0, 0, 0)" d="M0 0h36v36H0z"/></svg>