<svg xmlns="http://www.w3.org/2000/svg" baseProfile="tiny" height="137" version="1.2" width="121" xml:space="preserve"><rect width="100%" height="100%" fill="none"/><path d="M106.351 19.622a7.183 7.183 0 0 0-7.83 1.558c-9.08 9.073-23.855 9.08-32.942 0-14.69-14.675-38.575-14.675-53.258 0a7.164 7.164 0 0 0-2.105 5.08v93.383c0 3.965 3.211 7.183 7.184 7.183s7.183-3.218 7.183-7.183V86.937c9.13-7.162 22.42-6.544 30.838 1.868 14.69 14.675 38.582 14.675 53.258 0a7.177 7.177 0 0 0 2.105-5.079V26.26a7.188 7.188 0 0 0-4.433-6.637z" fill="#fff" class="currentLayer"/></svg>