<svg xmlns="http://www.w3.org/2000/svg" xmlns:xlink="http://www.w3.org/1999/xlink" baseProfile="tiny" height="137" version="1.2" width="121" xml:space="preserve" style=""><rect id="backgroundrect" width="100%" height="100%" x="0" y="0" fill="none" stroke="none" class="" style=""/><g class="currentLayer" style=""><title>Layer 1</title><path d="M106.35143848800664,19.621670437243438 c-2.6865798873901383,-1.1134221458435065 -5.775428421020508,-0.4956524391174328 -7.829871864318848,1.5587910041809088 c-9.07977801513672,9.072594646453856 -23.85596739578247,9.07977801513672 -32.942928779602056,0 c-14.689988956451415,-14.675622219085694 -38.57468982696533,-14.675622219085694 -53.25749541473388,0 C10.970669116973909,22.523751385119397 10.216415405273438,24.355510399249056 10.216415405273438,26.259103100207255 v93.38379287719727 c0,3.9652195129394534 3.210965801239015,7.183368682861328 7.183368682861328,7.183368682861328 s7.183368682861328,-3.218149169921876 7.183368682861328,-7.183368682861328 v-32.70587761306763 c9.130061595916747,-7.1618185768127445 22.419293659210204,-6.54404887008667 30.838201755523684,1.867675857543949 c14.689988956451415,14.675622219085694 38.5818731956482,14.675622219085694 53.25749541473388,0 C110.02932325363156,87.45422090950291 110.78357696533203,85.62964526405614 110.78357696533203,83.72605256309794 v-57.466949462890625 C110.78357696533203,23.349838783648465 109.03083500671386,20.735092583086953 106.35143848800664,19.621670437243438 z" id="svg_1" class="" fill="#919191" fill-opacity="1"/></g></svg>