<svg xmlns="http://www.w3.org/2000/svg" xmlns:xlink="http://www.w3.org/1999/xlink" width="100" height="100" preserveAspectRatio="xMidYMid meet" viewBox="0 0 100 100" style="-ms-transform: rotate(360deg); -webkit-transform: rotate(360deg); transform: rotate(360deg);"><path d="M80.182 67.457l-35.4-.001v.001l-.009-.001a2.27 2.27 0 0 0-2.269 2.269c0 .042.01.08.012.121V80.18h.011a2.268 2.268 0 0 0 2.254 2.268v.001h35.4v-.002a2.268 2.268 0 0 0 2.254-2.268V69.825c.002-.034.01-.067.01-.101a2.267 2.267 0 0 0-2.263-2.267z" fill="#626262"/><path d="M30.278 67.454H19.822a2.27 2.27 0 0 0-2.269 2.269v10.454a2.269 2.269 0 0 0 2.268 2.269h10.455a2.27 2.27 0 0 0 2.269-2.269V69.723a2.267 2.267 0 0 0-2.267-2.269z" fill="#626262"/><path d="M80.182 42.467l-35.4-.001v.001l-.009-.001a2.27 2.27 0 0 0-2.269 2.269c0 .042.01.08.012.121V55.19h.011a2.268 2.268 0 0 0 2.254 2.268v.001h35.4v-.002a2.268 2.268 0 0 0 2.254-2.268V44.835c.002-.034.01-.067.01-.101a2.267 2.267 0 0 0-2.263-2.267z" fill="#626262"/><path d="M30.278 42.464H19.822a2.27 2.27 0 0 0-2.269 2.269v10.454a2.269 2.269 0 0 0 2.268 2.269h10.455a2.27 2.27 0 0 0 2.269-2.269V44.733a2.267 2.267 0 0 0-2.267-2.269z" fill="#626262"/><path d="M42.516 30.276h.011a2.268 2.268 0 0 0 2.254 2.268v.001h35.4v-.002a2.268 2.268 0 0 0 2.254-2.268V19.921c.002-.034.01-.067.01-.101a2.269 2.269 0 0 0-2.264-2.268v-.001h-35.4v.001l-.009-.001a2.27 2.27 0 0 0-2.269 2.269c0 .042.01.08.012.121v10.335z" fill="#626262"/><path d="M30.278 17.551H19.822a2.27 2.27 0 0 0-2.269 2.269v10.454a2.269 2.269 0 0 0 2.268 2.269h10.455a2.27 2.27 0 0 0 2.269-2.269V19.82a2.266 2.266 0 0 0-2.267-2.269z" fill="#626262"/><rect x="0" y="0" width="100" height="100" fill="rgba(0, 0, 0, 0)" /></svg>