<svg xmlns="http://www.w3.org/2000/svg" width="100" height="100" style="-ms-transform:rotate(360deg);-webkit-transform:rotate(360deg);transform:rotate(360deg)"><path d="m80.182 67.457-35.4-.001v.001l-.009-.001a2.27 2.27 0 0 0-2.269 2.269c0 .042.01.08.012.121V80.18h.011a2.268 2.268 0 0 0 2.254 2.268v.001h35.4v-.002a2.268 2.268 0 0 0 2.254-2.268V69.825c.002-.034.01-.067.01-.101a2.267 2.267 0 0 0-2.263-2.267zm-49.904-.003H19.822a2.27 2.27 0 0 0-2.269 2.269v10.454a2.269 2.269 0 0 0 2.268 2.269h10.455a2.27 2.27 0 0 0 2.269-2.269V69.723a2.267 2.267 0 0 0-2.267-2.269zm49.904-24.987-35.4-.001v.001l-.009-.001a2.27 2.27 0 0 0-2.269 2.269c0 .042.01.08.012.121V55.19h.011a2.268 2.268 0 0 0 2.254 2.268v.001h35.4v-.002a2.268 2.268 0 0 0 2.254-2.268V44.835c.002-.034.01-.067.01-.101a2.267 2.267 0 0 0-2.263-2.267zm-49.904-.003H19.822a2.27 2.27 0 0 0-2.269 2.269v10.454a2.269 2.269 0 0 0 2.268 2.269h10.455a2.27 2.27 0 0 0 2.269-2.269V44.733a2.267 2.267 0 0 0-2.267-2.269zm12.238-12.188h.011a2.268 2.268 0 0 0 2.254 2.268v.001h35.4v-.002a2.268 2.268 0 0 0 2.254-2.268V19.921c.002-.034.01-.067.01-.101a2.269 2.269 0 0 0-2.264-2.268v-.001h-35.4v.001l-.009-.001a2.27 2.27 0 0 0-2.269 2.269c0 .042.01.08.012.121v10.335zM30.278 17.551H19.822a2.27 2.27 0 0 0-2.269 2.269v10.454a2.269 2.269 0 0 0 2.268 2.269h10.455a2.27 2.27 0 0 0 2.269-2.269V19.82a2.266 2.266 0 0 0-2.267-2.269z" fill="#fff"/><path fill="rgba(0, 0, 0, 0)" d="M0 0h100v100H0z"/></svg>