<svg xmlns="http://www.w3.org/2000/svg" xmlns:xlink="http://www.w3.org/1999/xlink" width="1024" height="1024" preserveAspectRatio="xMidYMid meet" viewBox="0 0 1024 1024" style="-ms-transform: rotate(360deg); -webkit-transform: rotate(360deg); transform: rotate(360deg);"><path d="M396 512a112 112 0 1 0 224 0a112 112 0 1 0-224 0zm546.2-25.8C847.4 286.5 704.1 186 512 186c-192.2 0-335.4 100.5-430.2 300.3a60.3 60.3 0 0 0 0 51.5C176.6 737.5 319.9 838 512 838c192.2 0 335.4-100.5 430.2-300.3c7.7-16.2 7.7-35 0-51.5zM508 688c-97.2 0-176-78.8-176-176s78.8-176 176-176s176 78.8 176 176s-78.8 176-176 176z" fill="#626262"/><rect x="0" y="0" width="1024" height="1024" fill="rgba(0, 0, 0, 0)" /></svg>