<svg xmlns="http://www.w3.org/2000/svg" viewBox="0 0 135.46666 135.46667" height="512" width="512"><path style="line-height:1.25;-inkscape-font-specification:'Black boys on mopeds'" d="M121.2258 14.400876q-1.5653 6.848173-2.34795 14.870317-.19566 2.152281.39132 5.478537.58698 3.913242.58698 5.478537 0 5.087214-6.65249 5.087214-4.30458 0-5.67421-2.543607-.19567-4.304565.19566-11.739722.39132-8.804792.39132-11.739724-.19565 0-.58698-.391324-18.196568.782649-34.240852 2.347945-.391331 2.543606 0 6.261186l.782638 7.043833q-.782638 6.065524-.782638 18.000911.586986 5.087212.586986 43.63264v14.283331q0 3.32625.978303 4.69589h12.131056q7.435148-.97832 7.435148 6.26117 0 4.30458-4.108893 6.06553-2.543618.97833-9.000465.39134-3.913241-.39134-9.196117-.19566-7.239497.9783-17.609585 1.56528-10.565739.587-12.913689-2.93492-1.565297-2.34795 0-4.89157 2.739268-4.30455 14.283325-4.30455 6.065527 0 6.065527-3.32626 0-1.76095-.195666-3.32625 0-4.89156.195666-8.60914.586986-10.565749 0-29.740628-.78265-27.784012.586986-49.893822l-.586986-.586988q-6.065527.391324-22.696797-.195661-.782648 0-11.935385.782649 2.739268 18.783556 3.130593 26.8057l-.391325 5.282877q-.195661 2.934929-4.891553 2.934929-3.717577 0-6.261184-14.087667-1.173973-8.413469-2.347945-17.022598 0-1.369634-1.369634-4.69589-1.173973-3.521918-1.173973-5.282876 0-4.891551 7.435159-6.065523.586985 0 1.956619.195661 1.369634.195664 1.956622.195664h48.524193q18.000904-.7826491 34.827836-3.1305928 1.17398-.5869876 3.52192-1.1739729 4.1089-.3913255 7.04383 1.9566193 2.93493 2.1522824 1.95663 6.2611854z" font-weight="400" font-size="148.867" font-family="Black boys on mopeds" letter-spacing="0" word-spacing="0" fill="#fff"/><text y="117.92857" x="-103.37649" style="line-height:1.25" font-weight="400" font-size="10.5833" font-family="sans-serif" letter-spacing="0" word-spacing="0" stroke-width=".264583"/></svg>