<svg xmlns="http://www.w3.org/2000/svg" width="20" height="20" style="-ms-transform:rotate(360deg);-webkit-transform:rotate(360deg);transform:rotate(360deg)"><path fill-rule="evenodd" clip-rule="evenodd" d="M4.649 3.084A1 1 0 0 1 5.163 4.4 13.95 13.95 0 0 0 4 10c0 1.993.416 3.886 1.164 5.6a1 1 0 0 1-1.832.8A15.95 15.95 0 0 1 2 10c0-2.274.475-4.44 1.332-6.4a1 1 0 0 1 1.317-.516zM12.96 7a3 3 0 0 0-2.342 1.126l-.328.41-.111-.279A2 2 0 0 0 8.323 7H8a1 1 0 0 0 0 2h.323l.532 1.33-1.035 1.295a1 1 0 0 1-.781.375H7a1 1 0 1 0 0 2h.039a3 3 0 0 0 2.342-1.126l.328-.41.111.279A2 2 0 0 0 11.677 14H12a1 1 0 1 0 0-2h-.323l-.532-1.33 1.035-1.295A1 1 0 0 1 12.961 9H13a1 1 0 1 0 0-2h-.039zm1.874-2.6a1 1 0 0 1 1.833-.8A15.95 15.95 0 0 1 18 10c0 2.274-.475 4.44-1.332 6.4a1 1 0 1 1-1.832-.8A13.949 13.949 0 0 0 16 10c0-1.993-.416-3.886-1.165-5.6z" fill="#fff"/><path fill="rgba(0, 0, 0, 0)" d="M0 0h20v20H0z"/></svg>