<?xml version="1.0" encoding="UTF-8"?>
<svg width="20px" height="20px" viewBox="0 0 20 20" version="1.1" xmlns="http://www.w3.org/2000/svg" xmlns:xlink="http://www.w3.org/1999/xlink">
    <!-- Generator: Sketch 48.2 (47327) - http://www.bohemiancoding.com/sketch -->
    <title>record</title>
    <desc>Created with Sketch.</desc>
    <defs></defs>
    <g id="Page-1" stroke="none" stroke-width="1" fill="none" fill-rule="evenodd">
        <g id="record" fill="#FFFFFF">
            <path d="M15.9365006,11.148381 C15.0369707,13.3332285 13.0518011,14.8264697 10.771958,15.1093996 L10.771958,17.2140836 C10.771958,17.6557686 10.430757,18 9.99650116,18 C9.56224533,18 9.22104432,17.6557686 9.22104432,17.2140836 L9.22104432,15.1093996 C6.95671033,14.8264697 4.97309171,13.347375 4.05650172,11.1798177 C3.90141035,10.7868595 4.07356177,10.3153097 4.47524842,10.1581264 C4.86297684,9.98522477 5.32825095,10.1581264 5.48334232,10.5668029 C6.25879916,12.3901289 8.02684077,13.5847218 9.99650116,13.5847218 C11.9661616,13.5847218 13.7497123,12.3901289 14.50966,10.5337944 C14.6802605,10.1408362 15.1455346,9.95378812 15.533263,10.1266897 C15.9209915,10.2995913 16.1071011,10.7554228 15.9365006,11.148381 Z M7.28224711,8.64692982 L7.28224711,4.68640351 C7.28224711,3.19736842 8.47003548,2 9.91342388,2 C11.3718476,2 12.5446007,3.19736842 12.5446007,4.68640351 L12.5446007,8.64692982 C12.5446007,10.120614 11.3718476,11.3333333 9.91342388,11.3333333 C8.47003548,11.3333333 7.28224711,10.120614 7.28224711,8.64692982 Z" id="record-icon"></path>
        </g>
    </g>
</svg>
