<?xml version="1.0" encoding="UTF-8"?>
<svg width="20px" height="20px" viewBox="0 0 20 20" version="1.1" xmlns="http://www.w3.org/2000/svg" xmlns:xlink="http://www.w3.org/1999/xlink">
    <!-- Generator: Sketch 48.2 (47327) - http://www.bohemiancoding.com/sketch -->
    <title>file-upload</title>
    <desc>Created with Sketch.</desc>
    <defs></defs>
    <g id="Page-1" stroke="none" stroke-width="1" fill="none" fill-rule="evenodd">
        <g id="file-upload" fill="#FFFFFF">
            <path d="M5.91737098,6.88612463 L9.63888997,3.16460565 C9.85700097,2.94513145 10.1977994,2.94513145 10.4159104,3.16460565 L14.1374294,6.88612463 C14.4918598,7.24055501 14.232853,7.82536514 13.7421032,7.82536514 L11.8881597,7.82536514 L10.7839727,12.2012171 C10.6749172,12.6251704 10.2386952,12.882814 9.81610516,12.7737585 C9.51620253,12.706962 9.29809153,12.4752191 9.22993184,12.2012171 L8.12574489,7.82536514 L6.31269718,7.82536514 C5.82194742,7.82536514 5.5629406,7.24055501 5.91737098,6.88612463 Z M17,11.601753 L17,13.8510227 C17,15.5822788 15.5959104,17.0000003 13.8646543,17.0000003 L6.1489776,17.0000003 C4.40408958,17.0000003 3,15.5822788 3,13.8510227 L3,11.601753 C3,11.0292116 3.46348588,10.5793576 4.02239533,10.5793576 C4.58130477,10.5793576 5.04479065,11.0292116 5.04479065,11.601753 L5.04479065,13.8510227 C5.04479065,14.4508279 5.53554041,14.9552096 6.1489776,14.9552096 L13.8646543,14.9552096 C14.4644596,14.9552096 14.9552093,14.4508279 14.9552093,13.8510227 L14.9552093,11.601753 C14.9552093,11.0292116 15.4186952,10.5793576 15.9776047,10.5793576 C16.5501461,10.5793576 17,11.0292116 17,11.601753 Z" id="file-upload-icon"></path>
        </g>
    </g>
</svg>