<svg width="32" height="32" viewBox="0 0 32 32" fill="none" xmlns="http://www.w3.org/2000/svg">
<circle cx="16" cy="16" r="16" fill="white"/>
<path d="M19.0671 17.0748C19.1247 17.5427 19.155 18.0232 19.155 18.513C19.155 20.8269 18.4924 22.9287 17.4211 24.4564C16.3191 26.028 14.7842 27 13.0775 27C11.3708 27 9.83588 26.028 8.73386 24.4564C7.6626 22.9287 7 20.8268 7 18.513C7 18.0232 7.03027 17.5427 7.08789 17.0748C7.14723 16.5929 7.23564 16.1253 7.3499 15.6753L7.35029 15.6754C7.381 15.5548 7.43707 15.4427 7.51326 15.3454C7.59 15.2474 7.68567 15.166 7.79494 15.1073H7.7966C7.86426 15.0712 7.93296 15.0445 8.00104 15.0275C8.07377 15.0093 8.14697 15 8.21876 15C8.26672 15 8.31718 15.0044 8.36957 15.0134C8.42088 15.0221 8.47028 15.0348 8.51703 15.0515L8.51668 15.0525C9.0505 15.2398 9.73667 15.3937 10.5266 15.5002C11.291 15.6034 12.1557 15.6612 13.0775 15.6612C13.9993 15.6612 14.864 15.6034 15.6283 15.5002C16.419 15.3935 17.1057 15.2395 17.6398 15.052L17.6396 15.0515C17.688 15.0344 17.7369 15.0217 17.7859 15.0133H17.7875C17.84 15.0044 17.8899 15 17.9368 15C18.0084 15 18.0816 15.0092 18.1545 15.0274C18.2225 15.0444 18.291 15.071 18.3584 15.107C18.4696 15.1665 18.5658 15.248 18.6417 15.345C18.718 15.4425 18.774 15.5548 18.8047 15.6754L18.8051 15.6753C18.9193 16.1253 19.0077 16.5929 19.0671 17.0748L19.0671 17.0748ZM15.417 20.2917C15.4668 20.2922 15.5169 20.2918 15.5666 20.2918C15.8456 20.2918 16.148 20.2212 16.3816 20.0638C16.5703 19.9366 16.7192 19.7512 16.7192 19.5151C16.7192 19.2791 16.5703 19.0937 16.3816 18.9666C16.148 18.8093 15.8456 18.7387 15.5666 18.7387C15.2768 18.7387 15.0156 18.8945 14.8179 19.0965C14.6318 19.2866 14.4141 19.643 14.4141 19.916C14.4141 19.9853 14.42 20.1436 14.4804 20.1953C14.6174 20.3123 15.2014 20.2926 15.3759 20.2911C15.3784 20.2911 15.3809 20.2911 15.3834 20.291C15.3949 20.2909 15.406 20.2912 15.417 20.2917L15.417 20.2917ZM11.3978 24.1693C11.8276 24.5991 12.4215 24.8649 13.0775 24.8649H13.078V24.867C13.7323 24.8669 14.3262 24.6003 14.7572 24.1693C15.1703 23.7563 15.4318 23.1917 15.4515 22.5661C15.2205 22.6893 14.9637 22.7944 14.6868 22.8776C14.2052 23.0224 13.6577 23.1048 13.0775 23.1048C12.4972 23.1048 11.9498 23.0225 11.4682 22.8777C11.1907 22.7942 10.9338 22.6895 10.7034 22.5671C10.7234 23.1922 10.985 23.7564 11.3978 24.1693L11.3978 24.1693ZM10.7442 20.2916C10.7556 20.2912 10.7672 20.291 10.7791 20.2911C10.9536 20.2926 11.5376 20.3123 11.6746 20.1953C11.735 20.1436 11.7409 19.9853 11.7409 19.916C11.7409 19.6679 11.5603 19.3497 11.4025 19.1676C11.1985 18.9321 10.9101 18.7387 10.5884 18.7387C10.3094 18.7387 10.007 18.8093 9.77342 18.9666C9.58475 19.0937 9.43581 19.2791 9.43581 19.5151C9.43581 19.7512 9.58475 19.9367 9.77345 20.0638C10.007 20.2212 10.3094 20.2918 10.5884 20.2918C10.6402 20.2918 10.6924 20.2923 10.7442 20.2916L10.7442 20.2916Z" fill="#4895FF"/>
<path d="M21.8578 7.75833L22.2411 8.14167L18.4661 11.9167H18.0828V11.5333L21.8578 7.75833ZM23.3578 5.25C23.2536 5.25 23.1453 5.29167 23.0661 5.37083L22.3036 6.13333L23.8661 7.69583L24.6286 6.93333C24.7911 6.77083 24.7911 6.50833 24.6286 6.34583L23.6536 5.37083C23.5703 5.2875 23.4661 5.25 23.3578 5.25ZM21.8578 6.57917L17.2495 11.1875V12.75H18.812L23.4203 8.14167L21.8578 6.57917Z" fill="#4C98FF"/>
</svg>
