<?xml version="1.0" encoding="utf-8"?>
<!-- Generator: Adobe Illustrator 22.1.0, SVG Export Plug-In . SVG Version: 6.00 Build 0)  -->
<svg version="1.1" id="Layer_1" xmlns="http://www.w3.org/2000/svg" xmlns:xlink="http://www.w3.org/1999/xlink" x="0px" y="0px"
	 viewBox="0 0 20 20" style="enable-background:new 0 0 20 20;" xml:space="preserve">
<style type="text/css">
	.st0{fill:#CF63CF;}
	.st1{fill:#CF63CF;stroke:#CF63CF;stroke-miterlimit:10;}
	.st2{fill:#FFFFFF;stroke:#FFFFFF;stroke-width:0.75;stroke-miterlimit:10;}
</style>
<title>icon--softer</title>
<desc>Created with Sketch.</desc>
<g id="Fill-1">
	<path class="st0" d="M12.5,5.4v9.5c0,0.4-0.3,0.7-0.7,0.7h-1.3c-0.3,0-0.6-0.2-0.7-0.5c-0.5-1.6-2.1-2.8-3.8-2.8H5.7
		C5.3,12.3,5,12,5,11.6v-3c0-0.4,0.3-0.7,0.7-0.7H6c1.7,0,3.3-1.1,3.8-2.8c0.1-0.3,0.4-0.5,0.7-0.5h1.3C12.2,4.7,12.5,5,12.5,5.4"/>
</g>
<line class="st1" x1="4" y1="15.9" x2="15.8" y2="4.1"/>
<line class="st2" x1="4.8" y1="16.3" x2="15.2" y2="5.9"/>
</svg>
