<?xml version="1.0" encoding="UTF-8"?>
<svg width="20px" height="20px" viewBox="0 0 20 20" version="1.1" xmlns="http://www.w3.org/2000/svg" xmlns:xlink="http://www.w3.org/1999/xlink">
    <!-- Generator: Sketch 55.2 (78181) - https://sketchapp.com -->
    <title>Sound/Effects/Fade-out</title>
    <desc>Created with Sketch.</desc>
    <defs>
        <path d="M0.75,1.00048645 C0.75,0.785696746 1.00298043,0.670902266 1.16462615,0.812342275 C6.45534831,5.44172416 11.7325193,7.75048645 17,7.75048645 C17.1380712,7.75048645 17.25,7.86241526 17.25,8.00048645 L17.25,12.0004864 C17.25,12.1385576 17.1380712,12.2504864 17,12.2504864 C11.7325193,12.2504864 6.45534831,14.5592487 1.16462615,19.1886306 C1.00298043,19.3300706 0.75,19.2152762 0.75,19.0004864 L0.75,1.00048645 Z" id="path-1"></path>
        <path d="M13.25,10.5 C12.8967515,10.5 12.6672992,10.7412357 12.3456202,11.3646389 L12.2038798,11.6417708 C11.8941776,12.2392873 11.6628189,12.5 11.25,12.5 C10.8620573,12.5 10.6021638,12.3547824 10.1932432,12.0023794 L10.1200457,11.939068 C9.73947724,11.609835 9.54414743,11.5 9.25,11.5 C9.05003561,11.5 8.84741505,11.8567884 8.48443719,12.8368286 C8.01408171,14.1067884 7.79077635,14.5 7.25,14.5 C6.84793845,14.5 6.6185283,14.3602951 6.33665816,14.0385955 C6.28209329,13.9757366 6.25262416,13.941752 6.22981434,13.916091 C5.96479538,13.6179446 5.73764275,13.5 5.25,13.5 C4.87345642,13.5 4.55739824,14.1183747 3.98717082,15.8290569 C3.30739824,17.8683747 2.98456753,18.5 2.25,18.5 C2.11192881,18.5 2,18.3880712 2,18.25 L2,2.25 C2,2.11192881 2.11192881,2 2.25,2 C2.98456753,2 3.30739824,2.63162529 3.98717082,4.67094306 C4.55739824,6.38162529 4.87345642,7 5.25,7 C5.73764275,7 5.96479538,6.88205537 6.22981434,6.58390904 C6.25262416,6.55824799 6.28209329,6.52426342 6.33665816,6.46140451 C6.6185283,6.1397049 6.84793845,6 7.25,6 C7.79077635,6 8.01408171,6.39321162 8.48443719,7.66317141 C8.84741505,8.64321162 9.05003561,9 9.25,9 C9.54414743,9 9.73947724,8.89016497 10.1200457,8.56093199 L10.1932432,8.49762061 C10.6021638,8.14521764 10.8620573,8 11.25,8 C11.6628189,8 11.8941776,8.26071273 12.2038798,8.8582292 L12.3456202,9.13536107 C12.6672992,9.75876428 12.8967515,10 13.25,10 L18.25,10 C18.3880712,10 18.5,10.1119288 18.5,10.25 C18.5,10.3880712 18.3880712,10.5 18.25,10.5 L13.2499998,10.5 Z" id="path-3"></path>
    </defs>
    <g id="Sound/Effects/Fade-out" stroke="none" stroke-width="1" fill="none" fill-rule="evenodd">
        <g id="Secondary" opacity="0.25" transform="translate(1.000000, 0.000000)">
            <mask id="mask-2" fill="white">
                <use xlink:href="#path-1"></use>
            </mask>
            <g id="Fade" fill-rule="nonzero"></g>
            <g id="Magenta/1_Magenta" mask="url(#mask-2)" fill="#CF63CF">
                <g transform="translate(-1.000000, 0.000000)" id="Color">
                    <rect x="0" y="0" width="20" height="20"></rect>
                </g>
            </g>
        </g>
        <g id="Primary" transform="translate(-0.250000, -0.250000)">
            <mask id="mask-4" fill="white">
                <use xlink:href="#path-3"></use>
            </mask>
            <use id="Wave-Form" fill="#CF63CF" fill-rule="nonzero" xlink:href="#path-3"></use>
            <g id="Magenta/1_Magenta" mask="url(#mask-4)" fill="#CF63CF">
                <g transform="translate(0.250000, 0.250000)" id="Color">
                    <rect x="0" y="0" width="20" height="20"></rect>
                </g>
            </g>
        </g>
    </g>
</svg>