<?xml version="1.0" encoding="utf-8"?>
<!-- Generator: Adobe Illustrator 22.1.0, SVG Export Plug-In . SVG Version: 6.00 Build 0)  -->
<svg version="1.1" id="Layer_2" xmlns="http://www.w3.org/2000/svg" xmlns:xlink="http://www.w3.org/1999/xlink" x="0px" y="0px"
	 viewBox="0 0 20 20" style="enable-background:new 0 0 20 20;" xml:space="preserve">
<style type="text/css">
	.st0{fill:#FFFFFF;}
	.st1{fill:#CF63CF;}
</style>
<g>
	<path class="st0" d="M2.9,17.9c0-5.5,0-10.9,0-16.4c4.8,0,9.6,0,14.4,0c0,5.5,0,10.9,0,16.4C12.5,17.9,7.7,17.9,2.9,17.9z
		 M16.1,8.2c0-0.5-0.1-1-0.1-1.5c-0.3-2-1.3-3.6-3.3-4.5c-1.5-0.7-3-0.7-4.6-0.4C6.3,2.2,4.9,3.2,4.1,5c-0.9,1.9-0.9,3.9-0.2,5.9
		c0.8,2.4,2.5,4.2,4.4,5.7c1,0.8,2,0.8,3.1,0c0.2-0.2,0.5-0.3,0.7-0.5c0.8-0.9,1.6-1.8,2.4-2.8C15.6,11.8,16.2,10.1,16.1,8.2z"/>
	<path class="st1" d="M16.1,8.2c0,1.9-0.5,3.6-1.7,5c-0.8,1-1.6,1.9-2.4,2.8c-0.2,0.2-0.4,0.4-0.7,0.5c-1.1,0.8-2.1,0.8-3.1,0
		c-1.9-1.5-3.6-3.3-4.4-5.7C3.2,8.9,3.2,6.9,4.1,5c0.8-1.7,2.2-2.8,4-3.1c1.6-0.3,3.1-0.2,4.6,0.4c1.9,0.9,3,2.4,3.3,4.5
		C16.1,7.2,16.1,7.7,16.1,8.2z M8.1,12.6c0.6,0,0.9-0.3,0.7-0.8c-0.4-1.5-1-1.7-2.4-2.5C5.9,8.9,5.3,9.2,5.1,9.9
		c-0.1,0.2-0.1,0.5-0.1,0.7C5.2,12,6.6,12.6,8.1,12.6z M11.5,12.6c1.3,0,2.6-0.3,2.9-1.7c0.1-0.3,0-0.7,0-1.1
		c-0.2-0.6-0.8-0.9-1.3-0.5c-1.3,0.8-1.8,1-2.3,2.4C10.6,12.3,10.9,12.6,11.5,12.6z"/>
	<path class="st0" d="M5.1,10.6c0-0.2,0-0.5,0.1-0.7c0.2-0.7,0.8-0.9,1.4-0.6"/>
	<path class="st0" d="M13.1,9.2c0.5-0.3,1.1-0.1,1.3,0.5c0.1,0.3,0.1,0.7,0,1.1"/>
	<path class="st0" d="M11.1,14.7c-0.7,1.5-2.2,1.6-2.9,0C9.1,15,10.2,15,11.1,14.7z"/>
</g>
</svg>
