<?xml version="1.0" encoding="UTF-8"?>
<svg width="20px" height="20px" viewBox="0 0 20 20" version="1.1" xmlns="http://www.w3.org/2000/svg" xmlns:xlink="http://www.w3.org/1999/xlink">
    <!-- Generator: Sketch 56.2 (81672) - https://sketch.com -->
    <title>Sound/Effects/Fade-in</title>
    <desc>Created with Sketch.</desc>
    <g id="Sound/Effects/Fade-in" stroke="none" stroke-width="1" fill="none" fill-rule="evenodd">
        <path d="M2,10.25 C1.86192881,10.25 1.75,10.1380712 1.75,10 C1.75,9.86192881 1.86192881,9.75 2,9.75 L7,9.75 C7.35324851,9.75 7.58270077,9.50876428 7.90437981,8.88536107 L8.04612021,8.6082292 C8.35582235,8.01071273 8.58718112,7.75 9,7.75 C9.3879427,7.75 9.64783618,7.89521764 10.0567568,8.24762061 L10.1299543,8.31093199 C10.5105228,8.64016497 10.7058526,8.75 11,8.75 C11.1999644,8.75 11.402585,8.39321162 11.7655628,7.41317141 C12.2359183,6.14321162 12.4592237,5.75 13,5.75 C13.4020616,5.75 13.6314717,5.8897049 13.9133418,6.21140451 C13.9679067,6.27426342 13.9973758,6.30824799 14.0201857,6.33390904 C14.2852046,6.63205537 14.5123572,6.75 15,6.75 C15.3765436,6.75 15.6926018,6.13162529 16.2628292,4.42094306 C16.9426018,2.38162529 17.2654325,1.75 18,1.75 C18.1380712,1.75 18.25,1.86192881 18.25,2 L18.25,18 C18.25,18.1380712 18.1380712,18.25 18,18.25 C17.2654325,18.25 16.9426018,17.6183747 16.2628292,15.5790569 C15.6926018,13.8683747 15.3765436,13.25 15,13.25 C14.5123572,13.25 14.2852046,13.3679446 14.0201857,13.666091 C13.9973758,13.691752 13.9679067,13.7257366 13.9133418,13.7885955 C13.6314717,14.1102951 13.4020616,14.25 13,14.25 C12.4592237,14.25 12.2359183,13.8567884 11.7655628,12.5868286 C11.402585,11.6067884 11.1999644,11.25 11,11.25 C10.7058526,11.25 10.5105228,11.359835 10.1299543,11.689068 L10.0567568,11.7523794 C9.64783618,12.1047824 9.3879427,12.25 9,12.25 C8.58718112,12.25 8.35582235,11.9892873 8.04612021,11.3917708 L7.90437981,11.1146389 C7.58270078,10.4912357 7.35324851,10.25 7.00000001,10.25 L2,10.25 Z" id="Path" fill="#CF63CF" fill-rule="nonzero"></path>
    </g>
</svg>