<svg id="Layer_4" data-name="Layer 4" xmlns="http://www.w3.org/2000/svg" viewBox="0 0 20 20"><defs><style>.cls-1{fill:#cf63cf;}</style></defs><title>Artboard 1</title><path class="cls-1" d="M11,4.07A5.35,5.35,0,0,1,14.53,6c.72.82.61.59,0,1.45a22.37,22.37,0,0,1-5.27,5.23c-.71.52-1.5,1-2.26,1.41A.46.46,0,0,1,6.39,14a5.78,5.78,0,0,1-1.32-6.5C5.9,5.57,7.91,4.06,11,4.07Z"/><path class="cls-1" d="M12.9,4.51c.53-.31,1-.61,1.53-.89a7.38,7.38,0,0,1,2.59-1c.48-.06,1-.22,1.32.33a1.65,1.65,0,0,1,.17.9,5.7,5.7,0,0,1-1.22,2.69A33.44,33.44,0,0,1,14.75,9.7a43.33,43.33,0,0,1-3.65,3.52c-1.12.94-2.38,1.71-3.58,2.57a10.64,10.64,0,0,1-3.28,1.6A3.29,3.29,0,0,1,3,17.52c-.54,0-.79-.41-.81-1a3.51,3.51,0,0,1,.58-1.84A29.2,29.2,0,0,1,4.59,12c.24.62.83,1.14.42,1.88a1.29,1.29,0,0,0-.08.56c0,.36.08.83.45.87A3.07,3.07,0,0,0,7.25,15a21.35,21.35,0,0,0,4.35-3.15,20.51,20.51,0,0,0,3.22-3.62,7.15,7.15,0,0,0,.84-1.71c.21-.61,0-1.66-.71-1.42S13.58,4.92,12.9,4.51Z"/><path class="cls-1" d="M16.3,8.85a5.56,5.56,0,0,1-1.18,4.87A5.56,5.56,0,0,1,9,15.51,20.85,20.85,0,0,0,16.3,8.85Z"/></svg>