<?xml version="1.0" encoding="UTF-8"?>
<svg width="20px" height="20px" viewBox="0 0 20 20" version="1.1" xmlns="http://www.w3.org/2000/svg" xmlns:xlink="http://www.w3.org/1999/xlink">
    <!-- Generator: Sketch 55.2 (78181) - https://sketchapp.com -->
    <title>Sound/Effects/Fade-in</title>
    <desc>Created with Sketch.</desc>
    <defs>
        <path d="M17,0.750486449 L17,18.7504864 C17,18.9652762 16.7470196,19.0800706 16.5853738,18.9386306 C11.2946517,14.3092487 6.01748075,12.0004864 0.75,12.0004864 C0.611928813,12.0004864 0.5,11.8885576 0.5,11.7504864 L0.5,7.75048645 C0.5,7.61241526 0.611928813,7.50048645 0.75,7.50048645 C6.01748075,7.50048645 11.2946517,5.19172416 16.5853738,0.562342275 C16.7470196,0.420902266 17,0.535696746 17,0.750486449 Z" id="path-1"></path>
        <path d="M6.00000018,9.25 L1,9.25 C0.861928813,9.25 0.75,9.13807119 0.75,9 C0.75,8.86192881 0.861928813,8.75 1,8.75 L6,8.75 C6.35324851,8.75 6.58270077,8.50876428 6.90437981,7.88536107 L7.04612021,7.6082292 C7.35582235,7.01071273 7.58718112,6.75 8,6.75 C8.3879427,6.75 8.64783618,6.89521764 9.05675678,7.24762061 L9.1299543,7.31093199 C9.51052276,7.64016497 9.70585257,7.75 10,7.75 C10.1999644,7.75 10.402585,7.39321162 10.7655628,6.41317141 C11.2359183,5.14321162 11.4592237,4.75 12,4.75 C12.4020616,4.75 12.6314717,4.8897049 12.9133418,5.21140451 C12.9679067,5.27426342 12.9973758,5.30824799 13.0201857,5.33390904 C13.2852046,5.63205537 13.5123572,5.75 14,5.75 C14.3765436,5.75 14.6926018,5.13162529 15.2628292,3.42094306 C15.9426018,1.38162529 16.2654325,0.75 17,0.75 C17.1380712,0.75 17.25,0.861928813 17.25,1 L17.25,17 C17.25,17.1380712 17.1380712,17.25 17,17.25 C16.2654325,17.25 15.9426018,16.6183747 15.2628292,14.5790569 C14.6926018,12.8683747 14.3765436,12.25 14,12.25 C13.5123572,12.25 13.2852046,12.3679446 13.0201857,12.666091 C12.9973758,12.691752 12.9679067,12.7257366 12.9133418,12.7885955 C12.6314717,13.1102951 12.4020616,13.25 12,13.25 C11.4592237,13.25 11.2359183,12.8567884 10.7655628,11.5868286 C10.402585,10.6067884 10.1999644,10.25 10,10.25 C9.70585257,10.25 9.51052276,10.359835 9.1299543,10.689068 L9.05675678,10.7523794 C8.64783618,11.1047824 8.3879427,11.25 8,11.25 C7.58718112,11.25 7.35582235,10.9892873 7.04612021,10.3917708 L6.90437981,10.1146389 C6.58270078,9.49123572 6.35324851,9.25 6.00000001,9.25 L6.00000018,9.25 Z" id="path-3"></path>
    </defs>
    <g id="Sound/Effects/Fade-in" stroke="none" stroke-width="1" fill="none" fill-rule="evenodd">
        <g id="Secondary" opacity="0.25" transform="translate(1.250000, 0.250000)">
            <mask id="mask-2" fill="white">
                <use xlink:href="#path-1"></use>
            </mask>
            <g id="Fade" fill-rule="nonzero"></g>
            <g id="Magenta/1_Magenta" mask="url(#mask-2)" fill="#CF63CF">
                <g transform="translate(-1.250000, -0.250000)" id="Color">
                    <rect x="0" y="0" width="20" height="20"></rect>
                </g>
            </g>
        </g>
        <g id="Primary" transform="translate(1.000000, 1.000000)">
            <mask id="mask-4" fill="white">
                <use xlink:href="#path-3"></use>
            </mask>
            <use id="Path" fill="#CF63CF" fill-rule="nonzero" xlink:href="#path-3"></use>
            <g id="Magenta/1_Magenta" mask="url(#mask-4)" fill="#CF63CF">
                <g transform="translate(-1.000000, -1.000000)" id="Color">
                    <rect x="0" y="0" width="20" height="20"></rect>
                </g>
            </g>
        </g>
    </g>
</svg>