<?xml version="1.0" encoding="UTF-8"?>
<svg width="20px" height="20px" viewBox="0 0 20 20" version="1.1" xmlns="http://www.w3.org/2000/svg" xmlns:xlink="http://www.w3.org/1999/xlink">
    <!-- Generator: Sketch 55.2 (78181) - https://sketchapp.com -->
    <title>Sound/General/Copy</title>
    <desc>Created with Sketch.</desc>
    <defs>
        <rect id="path-1" x="0" y="0" width="16" height="12"></rect>
        <path d="M1.5,5.93699126 C0.637386394,5.71496986 0,4.93191971 0,4 C0,2.8954305 0.8954305,2 2,2 C3.1045695,2 4,2.8954305 4,4 C4,4.93191971 3.36261361,5.71496986 2.5,5.93699126 L2.5,14.0630087 C3.36261361,14.2850301 4,15.0680803 4,16 C4,17.1045695 3.1045695,18 2,18 C0.8954305,18 0,17.1045695 0,16 C0,15.0680803 0.637386394,14.2850301 1.5,14.0630087 L1.5,5.93699126 Z M17.5,14.0630087 L17.5,5.93699126 C16.6373864,5.71496986 16,4.93191971 16,4 C16,2.8954305 16.8954305,2 18,2 C19.1045695,2 20,2.8954305 20,4 C20,4.93191971 19.3626136,5.71496986 18.5,5.93699126 L18.5,14.0630087 C19.3626136,14.2850301 20,15.0680803 20,16 C20,17.1045695 19.1045695,18 18,18 C16.8954305,18 16,17.1045695 16,16 C16,15.0680803 16.6373864,14.2850301 17.5,14.0630087 Z M11,9 L12,9 C12.5522847,9 13,9.44771525 13,10 C13,10.5522847 12.5522847,11 12,11 L11,11 L11,12 C11,12.5522847 10.5522847,13 10,13 C9.44771525,13 9,12.5522847 9,12 L9,11 L8,11 C7.44771525,11 7,10.5522847 7,10 C7,9.44771525 7.44771525,9 8,9 L9,9 L9,8 C9,7.44771525 9.44771525,7 10,7 C10.5522847,7 11,7.44771525 11,8 L11,9 Z" id="path-3"></path>
    </defs>
    <g id="Sound/General/Copy" stroke="none" stroke-width="1" fill="none" fill-rule="evenodd">
        <g id="Secondary-Color" opacity="0.25" transform="translate(2.000000, 4.000000)">
            <mask id="mask-2" fill="white">
                <use xlink:href="#path-1"></use>
            </mask>
            <g id="selection"></g>
            <g id="Blue/1_Blue" mask="url(#mask-2)" fill="#4D97FF">
                <g transform="translate(-2.000000, -4.000000)" id="Primary-Blue">
                    <rect x="0" y="0" width="20" height="20"></rect>
                </g>
            </g>
        </g>
        <g id="Primary-Color">
            <mask id="mask-4" fill="white">
                <use xlink:href="#path-3"></use>
            </mask>
            <g id="handles-and-plus" fill-rule="nonzero"></g>
            <g id="Blue/1_Blue" mask="url(#mask-4)" fill="#4D97FF">
                <rect id="Primary-Blue" x="0" y="0" width="20" height="20"></rect>
            </g>
        </g>
    </g>
</svg>