<?xml version="1.0" encoding="UTF-8"?>
<svg width="20px" height="20px" viewBox="0 0 20 20" version="1.1" xmlns="http://www.w3.org/2000/svg" xmlns:xlink="http://www.w3.org/1999/xlink">
    <!-- Generator: Sketch 56.1 (81669) - https://sketch.com -->
    <title>Sound/Effects/Fade-out</title>
    <desc>Created with Sketch.</desc>
    <g id="Sound/Effects/Fade-out" stroke="none" stroke-width="1" fill="none" fill-rule="evenodd">
        <g id="Secondary" opacity="0.25" transform="translate(1.000000, 0.000000)" fill="#CF63CF" fill-rule="nonzero">
            <path d="M0.75,1.00048645 C0.75,0.785696746 1.00298043,0.670902266 1.16462615,0.812342275 C6.45534831,5.44172416 11.7325193,7.75048645 17,7.75048645 C17.1380712,7.75048645 17.25,7.86241526 17.25,8.00048645 L17.25,12.0004864 C17.25,12.1385576 17.1380712,12.2504864 17,12.2504864 C11.7325193,12.2504864 6.45534831,14.5592487 1.16462615,19.1886306 C1.00298043,19.3300706 0.75,19.2152762 0.75,19.0004864 L0.75,1.00048645 Z" id="Fade"></path>
        </g>
        <g id="Primary" transform="translate(1.750000, 1.750000)" fill="#CF63CF" fill-rule="nonzero">
            <path d="M11.25,8.5 C10.8967515,8.5 10.6672992,8.74123572 10.3456202,9.36463893 L10.2038798,9.6417708 C9.89417765,10.2392873 9.66281888,10.5 9.25,10.5 C8.8620573,10.5 8.60216382,10.3547824 8.19324322,10.0023794 L8.1200457,9.93906801 C7.73947724,9.60983503 7.54414743,9.5 7.25,9.5 C7.05003561,9.5 6.84741505,9.85678838 6.48443719,10.8368286 C6.01408171,12.1067884 5.79077635,12.5 5.25,12.5 C4.84793845,12.5 4.6185283,12.3602951 4.33665816,12.0385955 C4.28209329,11.9757366 4.25262416,11.941752 4.22981434,11.916091 C3.96479538,11.6179446 3.73764275,11.5 3.25,11.5 C2.87345642,11.5 2.55739824,12.1183747 1.98717082,13.8290569 C1.30739824,15.8683747 0.984567531,16.5 0.25,16.5 C0.111928813,16.5 0,16.3880712 0,16.25 L0,0.25 C0,0.111928813 0.111928813,0 0.25,0 C0.984567531,0 1.30739824,0.631625291 1.98717082,2.67094306 C2.55739824,4.38162529 2.87345642,5 3.25,5 C3.73764275,5 3.96479538,4.88205537 4.22981434,4.58390904 C4.25262416,4.55824799 4.28209329,4.52426342 4.33665816,4.46140451 C4.6185283,4.1397049 4.84793845,4 5.25,4 C5.79077635,4 6.01408171,4.39321162 6.48443719,5.66317141 C6.84741505,6.64321162 7.05003561,7 7.25,7 C7.54414743,7 7.73947724,6.89016497 8.1200457,6.56093199 L8.19324322,6.49762061 C8.60216382,6.14521764 8.8620573,6 9.25,6 C9.66281888,6 9.89417765,6.26071273 10.2038798,6.8582292 L10.3456202,7.13536107 C10.6672992,7.75876428 10.8967515,8 11.25,8 L16.25,8 C16.3880712,8 16.5,8.11192881 16.5,8.25 C16.5,8.38807119 16.3880712,8.5 16.25,8.5 L11.2499998,8.5 Z" id="Wave-Form"></path>
        </g>
    </g>
</svg>