<?xml version="1.0" encoding="UTF-8"?>
<svg width="40px" height="47px" viewBox="0 0 40 47" version="1.1" xmlns="http://www.w3.org/2000/svg" xmlns:xlink="http://www.w3.org/1999/xlink">
    <!-- Generator: Sketch 48.2 (47327) - http://www.bohemiancoding.com/sketch -->
    <title>Reload</title>
    <desc>Created with Sketch.</desc>
    <defs></defs>
    <g id="V2---General-Oops" stroke="none" stroke-width="1" fill="none" fill-rule="evenodd" transform="translate(-621.000000, -224.000000)">
        <g id="v1-Welcome-Modal-" fill="#FFFFFF">
            <g id="Unsupported" transform="translate(428.000000, 219.000000)">
                <path d="M233,31.8964681 C233,42.9368839 224.038624,51.8982603 213.001792,51.8982603 C201.997222,51.8982603 193,42.9368839 193,31.8964681 C193,21.4295804 201.133345,12.8266589 211.388745,12.0022123 L211.388745,7.48567857 C211.388745,5.51417575 213.53589,4.33127405 215.220629,5.40663923 L226.977955,12.970041 C228.519312,13.9378696 228.519312,16.160291 226.977955,17.1639652 L215.220629,24.6915214 C213.53589,25.7668866 211.388745,24.5839849 211.388745,22.612482 L211.388745,18.3110213 C204.574514,19.0996225 199.272964,24.8707489 199.272964,31.8964681 C199.272964,39.4957153 205.438391,45.6252968 213.001792,45.6252968 C220.561609,45.6252968 226.727036,39.4957153 226.727036,31.8964681 C226.727036,30.1794683 228.128596,28.7779091 229.881441,28.7779091 C231.602025,28.7779091 233,30.1794683 233,31.8964681" id="Reload"></path>
            </g>
        </g>
    </g>
</svg>