<svg id="Layer_1" data-name="Layer 1" xmlns="http://www.w3.org/2000/svg" viewBox="0 0 16 16"><defs><style>.cls-1{fill:none;stroke:#575e75;stroke-linecap:round;stroke-linejoin:round}.cls-2{fill:#575e75}</style></defs><title>icon--y</title><path class="cls-1" d="M8 13V3M6.23 4.77L8 3l1.77 1.77M9.77 11.23L8 13l-1.77-1.77"/><path class="cls-2" d="M13.5 8a.49.49 0 0 1 .5-.5.5.5 0 0 1 .5.5.5.5 0 0 1-.5.5.5.5 0 0 1-.5-.5zm-2 0a.49.49 0 0 1 .5-.5.5.5 0 0 1 .5.5.5.5 0 0 1-.5.5.5.5 0 0 1-.5-.5zm-2 0a.49.49 0 0 1 .5-.5.5.5 0 0 1 .5.5.5.5 0 0 1-.5.5.5.5 0 0 1-.5-.5zm-2 0a.49.49 0 0 1 .5-.5.5.5 0 0 1 .5.5.5.5 0 0 1-.5.5.5.5 0 0 1-.5-.5zm-2 0a.49.49 0 0 1 .5-.5.5.5 0 0 1 .5.5.5.5 0 0 1-.5.5.5.5 0 0 1-.5-.5zm-2 0a.49.49 0 0 1 .5-.5.5.5 0 0 1 .5.5.5.5 0 0 1-.5.5.5.5 0 0 1-.5-.5zm-2 0a.49.49 0 0 1 .5-.5.5.5 0 0 1 .5.5.5.5 0 0 1-.5.5.5.5 0 0 1-.5-.5z"/></svg>