<?xml version="1.0" encoding="UTF-8" standalone="no"?>
<svg width="16px" height="13px" viewBox="0 0 16 13" version="1.1" xmlns="http://www.w3.org/2000/svg" xmlns:xlink="http://www.w3.org/1999/xlink">
    <!-- Generator: Sketch 43.2 (39069) - http://www.bohemiancoding.com/sketch -->
    <title>hide-icon-active</title>
    <desc>Created with Sketch.</desc>
    <defs></defs>
    <g id="Page-1" stroke="none" stroke-width="1" fill="none" fill-rule="evenodd">
        <g id="Desktop---1280x720" transform="translate(-876.000000, -522.000000)" fill-rule="nonzero" fill="#4C97FF">
            <g id="Sprite-Area" transform="translate(792.000000, 460.000000)">
                <g id="Sprite-Info">
                    <g id="show-toggle" transform="translate(12.000000, 52.000000)">
                        <g id="hide-option" transform="translate(63.000000, 0.000000)">
                            <g id="hide-icon-active" transform="translate(9.000000, 10.000000)">
                                <path d="M6.59521066,11.546925 L7.81427788,10.3278577 C7.87546831,10.330638 7.93701712,10.3320431 7.99889412,10.3320431 C10.2077277,10.3320431 11.9983412,8.5414297 11.9983412,6.33259608 C11.9983412,6.27071908 11.996936,6.20917027 11.9941558,6.14797984 L14.2033372,3.93879838 C14.5960547,4.41036033 14.7867241,4.74707941 14.7867241,4.74707941 C15.4555764,5.62273609 15.482771,7.06288956 14.7867241,7.91811275 C14.7867241,7.91811275 12.6649157,11.6651922 7.99889412,11.6651922 C7.5023581,11.6651922 7.03463329,11.6227594 6.59521066,11.546925 Z M14.7289607,1.41525222 L14.3137085,1 L3.0000816,12.3136269 L2,11.3137085 L3.22703013,10.0868786 C1.85927754,9.06284716 1.21106414,7.91811275 1.21106414,7.91811275 C0.542211884,7.04245607 0.515017251,5.6023026 1.21106414,4.74707941 C1.21106414,4.74707941 3.33287255,1 7.99889412,1 C9.3931731,1 10.5602777,1.33457907 11.5114783,1.80378248 L13.3155551,0 L14.7299995,1.41421356 L14.7289607,1.41525222 Z M4.70804932,8.60610113 L6.17089206,7.14349711 C6.06103509,6.89584018 6,6.62171451 6,6.33333333 C6,5.22876383 6.8954305,4.33333333 8,4.33333333 C8.288497,4.33333333 8.56272703,4.39441746 8.81046216,4.50435778 L10.2729358,3.04212279 C9.62727902,2.59506525 8.84367348,2.33314902 7.99889412,2.33314902 C5.7900605,2.33314902 3.99944706,4.12376246 3.99944706,6.33259608 C3.99944706,7.1771414 4.26121819,7.96054679 4.70804932,8.60610113 Z" id="Combined-Shape"></path>
                            </g>
                        </g>
                    </g>
                </g>
            </g>
        </g>
    </g>
</svg>