<?xml version="1.0" encoding="utf-8"?>
<!-- Generator: Adobe Illustrator 21.1.0, SVG Export Plug-In . SVG Version: 6.00 Build 0)  -->
<svg version="1.1" id="图层_1" xmlns="http://www.w3.org/2000/svg" xmlns:xlink="http://www.w3.org/1999/xlink" x="0px" y="0px"
	 viewBox="0 0 127.7 48" style="enable-background:new 0 0 127.7 48;" xml:space="preserve">
<style type="text/css">
	.st0{fill:#FFFFFF;}
</style>
<title>LOGO</title>
<g>
	<path class="st0" d="M4.2,15.1h4.1c0.9,0,1.8,0.5,2.3,1.3l6,7.4c0.5,0.5,1.4,0.5,2,0l0,0c0.5-0.6,0.5-1.4,0-1.9l-6.1-7.5l0.8-0.2
		c3.1-0.5,5.3-3.3,5-6.4c0.1-2-0.7-3.9-2.1-5.2c-1.5-1.3-3.4-2-5.4-1.9h-7c-1.2,0-2.1,1-2.1,2.1v19.8c0,0.8,0.6,1.4,1.3,1.5
		c0.8,0,1.4-0.7,1.4-1.5L4.2,15.1z M4.2,3.5h6.3c4.3,0,5,2.5,5,4.5s-0.9,4.5-5.2,4.5H4.2V3.5z"/>
	<path class="st0" d="M36.4,12.8c-0.1-1.8-0.9-3.5-2.3-4.7c-1.4-1.2-3.3-1.9-5.2-1.8c-1.9-0.1-3.7,0.6-5.2,1.8
		c-1.4,1.2-2.2,2.9-2.3,4.7c-0.1,1.6-0.1,3.2,0,4.9c0.1,1.8,1,3.5,2.3,4.7c1.4,1.3,3.3,1.9,5.2,1.9c1.9,0.1,3.8-0.6,5.2-1.9
		c1.4-1.2,2.2-2.9,2.3-4.7C36.5,16,36.5,14.4,36.4,12.8z M33.8,17.3c-0.2,2.7-2.5,4.7-5.1,4.5c-2.4-0.2-4.3-2.1-4.5-4.5
		c-0.1-1.4-0.1-2.7,0-4.1c0.3-2.7,2.7-4.6,5.4-4.3c2.2,0.3,4,2,4.3,4.3C33.8,14.5,33.8,15.9,33.8,17.3L33.8,17.3z"/>
	<path class="st0" d="M53.5,12.8c0.1-3.5-2.7-6.5-6.3-6.5c-0.2,0-0.4,0-0.6,0c-1.5,0-2.9,0.4-4.3,1l-0.7,0.3V2.2
		c0-0.7-0.6-1.4-1.3-1.4S39,1.4,39,2.1l0,0v19.1c0,0.4,0.2,0.8,0.5,1c0.9,0.6,1.8,1,2.8,1.4c1.3,0.4,2.6,0.7,3.9,0.7
		c3.8,0.3,7.1-2.5,7.4-6.3c0-0.1,0-0.2,0-0.4C53.7,16,53.7,14.4,53.5,12.8z M50.9,17.2c0.1,2.4-1.9,4.4-4.3,4.5c-0.2,0-0.3,0-0.5,0
		c-1.5,0-3-0.5-4.3-1.3l-0.3-0.1V10.2l0.2-0.1c1.4-0.8,2.9-1.2,4.5-1.2c2.3-0.2,4.2,1.4,4.5,3.7c0,0.2,0,0.4,0,0.6
		C50.9,14.5,50.9,15.9,50.9,17.2L50.9,17.2z"/>
	<path class="st0" d="M71.3,12.8c-0.1-1.8-1-3.5-2.3-4.7c-1.4-1.2-3.3-1.9-5.2-1.8c-1.9-0.1-3.7,0.6-5.2,1.8
		c-1.4,1.2-2.2,2.9-2.3,4.7c-0.1,1.6-0.1,3.2,0,4.9c0.1,1.8,1,3.5,2.3,4.8c1.4,1.3,3.3,1.9,5.2,1.9c1.9,0.1,3.8-0.6,5.2-1.9
		c1.4-1.2,2.2-2.9,2.3-4.7C71.3,16,71.3,14.4,71.3,12.8z M68.6,17.3c-0.2,2.7-2.5,4.7-5.1,4.5c-2.4-0.2-4.3-2.1-4.5-4.5
		c-0.1-1.4-0.1-2.7,0-4.1c0.3-2.7,2.7-4.6,5.4-4.3c2.2,0.3,4,2,4.3,4.3C68.7,14.5,68.7,15.9,68.6,17.3L68.6,17.3z"/>
	<path class="st0" d="M87.8,17.6c-0.4,4.4-2.8,6.8-7.1,6.8c-1.3,0-2.5-0.2-3.7-0.7c-1-0.3-1.9-0.8-2.8-1.3c-0.2-0.2-0.4-0.5-0.3-0.8
		v-20c0-0.5,0.2-0.7,0.7-0.7c0.4,0,0.6,0.3,0.6,0.7c0,0,0,0,0,0.1v6.2C77,7.1,79,6.6,81,6.6c4.3,0,6.5,2.3,6.9,6.7
		C87.9,14.6,87.9,16.1,87.8,17.6z M86.3,12.8c0.1-2.7-2-5-4.7-5.2c-0.3,0-0.6,0-0.8,0c-1.1,0-2.2,0.2-3.2,0.5
		c-0.9,0.2-1.7,0.5-2.6,1v12.2c0.8,0.5,1.6,0.9,2.5,1.2c1,0.4,2,0.5,3.1,0.6c2.9,0.3,5.5-1.8,5.8-4.7c0-0.2,0-0.4,0-0.6
		C86.5,16.2,86.5,14.5,86.3,12.8z"/>
	<path class="st0" d="M111.2,12.9c0.4-4.4,2.8-6.8,7.1-6.8c1.3,0,2.5,0.2,3.7,0.7c0.9,0.4,1.8,0.9,2.7,1.5c0.2,0.2,0.4,0.5,0.3,0.8
		v20c0,0.5-0.2,0.7-0.7,0.7c-0.4,0-0.6-0.3-0.6-0.7c0,0,0,0,0-0.1v-6.3c-1.8,0.8-3.8,1.3-5.8,1.3c-4.3,0-6.5-2.3-6.9-6.7
		C111,15.9,111,14.4,111.2,12.9z M112.5,17.7c-0.1,2.7,2,5,4.7,5.2c0.3,0,0.6,0,0.8,0c1.1,0,2.2-0.2,3.2-0.5c0.9-0.2,1.7-0.5,2.6-1
		V9.1c-0.8-0.5-1.6-0.9-2.5-1.2c-1-0.4-2-0.5-3.1-0.6c-2.9-0.3-5.5,1.8-5.8,4.7c0,0.2,0,0.4,0,0.6C112.3,14.3,112.3,16,112.5,17.7z"
		/>
	<path class="st0" d="M91.6,1.5v22.1c0,0.4-0.2,0.7-0.6,0.7s-0.7-0.3-0.7-0.7l0,0V1.5c0-0.4,0.2-0.7,0.6-0.7S91.6,1.1,91.6,1.5z"/>
	<path class="st0" d="M106.4,8.2c1.3,1.2,2.1,3,2.1,4.8c0.1,1.5,0.1,3,0,4.5c-0.3,4-3.8,7.1-7.8,6.8c-1.7-0.1-3.2-0.8-4.5-1.9
		c-1.3-1.3-2.1-3-2.1-4.9c0-1.6,0-2.9,0-4.5c0-1.8,0.8-3.6,2.1-4.8c1.4-1.2,3.2-1.9,5-1.9C103.1,6.3,105,7,106.4,8.2z M95.5,17.7
		c0.3,3.2,3.1,5.6,6.3,5.3c2.8-0.2,5.1-2.5,5.3-5.3c0.1-1.6,0.1-3.2,0-4.9c-0.4-3.2-3.3-5.5-6.6-5.1c-2.7,0.3-4.8,2.4-5.1,5.1
		C95.4,14.5,95.4,16.1,95.5,17.7L95.5,17.7z"/>
	<polygon class="st0" points="73,44.9 73,46.6 78.2,44.8 78.2,43.2 76.4,43.8 76.4,37.6 78.4,37.6 78.4,36.1 76.4,36.1 76.4,32.4 
		74.6,32.4 74.6,36.1 72.9,36.1 72.9,37.6 74.6,37.6 74.6,44.3 	"/>
	<path class="st0" d="M88.1,33.6H84v-1.2h-1.7v1.2h-3.4v1.5h3.4v5h-3.7v1.5h3.7v1.5L78,45.7v1.7l5-3l5.5,3v-1.8L83.9,43v-1.5h4.8V40
		H88L88.1,33.6z M86.4,35.1v5H84v-5H86.4z"/>
	<path class="st0" d="M100.1,39.3h6.8v-6.2h-6.8V39.3z M106,33.8v4.6h-5v-4.6H106z"/>
	<path class="st0" d="M92.8,47.2h12.8v-6.6H92.8V47.2z M104.8,43v3.4H93.7v-0.9L104.8,43z M104.8,41.4v0.8l-11.2,2.5v-3.2
		L104.8,41.4z"/>
	<polygon class="st0" points="99.8,37.4 99.8,36.6 96.1,36.6 96.1,34 99.5,34 99.5,33.2 93.2,33.2 93.5,32.4 92.6,32.4 91.2,36.3 
		92.1,36.3 92.9,34 95.3,34 95.3,36.6 91.3,36.6 91.3,37.4 95.3,37.4 95.3,37.6 91.3,40.5 91.3,41.5 95.6,38.3 95.7,38.2 99.7,40.5 
		99.7,39.6 96.1,37.5 96.1,37.4 	"/>
	<path class="st0" d="M110,47.2h0.8V44h5.1v2.4H113v0.8h3.8v-10H110V47.2z M110.8,40.2v-2.1h5.1v2.1H110.8z M110.8,43.3v-2.1h5.1
		v2.1H110.8z"/>
	<polygon class="st0" points="114.9,32.8 116,34.9 110.8,34.9 112.5,32.4 111.5,32.4 109.3,35.8 117.4,35.8 115.8,32.8 	"/>
	<polygon class="st0" points="124.2,35.9 124.2,38.3 119.5,38.3 119.5,36.6 124.7,33.5 124.7,32.5 119.5,35.6 119.5,32.4 
		118.7,32.4 118.7,39.2 125.1,39.2 125.1,39.2 125.1,39.2 125.1,35.4 	"/>
	<polygon class="st0" points="124.2,44 124.2,46.4 119.5,46.4 119.5,44.3 124.8,41.3 124.8,40.4 119.5,43.3 119.5,39.6 118.7,39.6 
		118.7,47.2 125,47.2 125,47.2 125.1,47.2 125.1,43.5 125.1,43.5 	"/>
	<polygon class="st0" points="68.7,44.5 67.7,44.5 67.8,45 67.3,45 67.1,45 66.6,45 66.8,44.5 65.8,44.5 65.5,45.8 67.1,45.8 
		67.3,45.8 68.9,45.8 	"/>
	<polygon class="st0" points="60.8,38.8 60.8,36.7 62.9,36.7 62.9,35.3 60.8,35.3 60.8,34.8 59.1,34.8 59.1,35.3 57,35.3 57,36.7 
		59.1,36.7 59.1,38.8 	"/>
	<polygon class="st0" points="67.4,38.9 67.4,36.7 69.7,36.7 69.7,35.3 67.4,35.3 67.4,34.8 65.8,34.8 65.8,35.3 63.6,35.3 
		63.6,36.7 65.8,36.7 65.8,38.9 	"/>
	<path class="st0" d="M70.3,45l-1.1,1.1H65v-1.9h4.7v-5h-5.5l0.4-0.7H63l-0.4,0.7h-5.4v5h2.7l-2.7,3.2h2.1l2.7-3.1h1.3v3.1h7.1
		L70.3,45L70.3,45z M62.6,43.1h-3.8v-0.9h3.8V43.1z M62.6,41.2h-3.8v-1h3.8V41.2z M64.3,40.3H68v0.9h-3.7V40.3z M64.3,42.1H68V43
		h-3.7V42.1z"/>
	<polygon class="st0" points="61,37.1 61.5,38.2 63,38.2 62.5,37.1 	"/>
	<polygon class="st0" points="64.1,37.1 63.6,38.2 65.1,38.2 65.6,37.1 	"/>
	<polygon class="st0" points="69.2,37.1 67.8,37.1 68.5,38.7 70,38.7 	"/>
	<polygon class="st0" points="63.9,33.1 63.6,32.5 61.7,32.5 62,33.1 55.1,33.1 55.1,43.8 54.5,47.4 56,47.4 56.6,44 56.6,38.8 
		58.1,38.8 58.9,37.1 57.5,37.1 56.6,38.8 56.6,34.4 70.4,34.4 70.4,33.1 	"/>
</g>
</svg>
