<?xml version="1.0" encoding="UTF-8" standalone="no"?>
<svg width="20px" height="20px" viewBox="0 0 20 20" version="1.1" xmlns="http://www.w3.org/2000/svg" xmlns:xlink="http://www.w3.org/1999/xlink">
    <!-- Generator: Sketch 43.2 (39069) - http://www.bohemiancoding.com/sketch -->
    <title>brush</title>
    <desc>Created with Sketch.</desc>
    <defs></defs>
    <g id="Page-1" stroke="none" stroke-width="1" fill="none" fill-rule="evenodd" stroke-linecap="round" stroke-linejoin="round">
        <g id="brush" stroke="#575E75" stroke-width="0.5" fill="#575E75">
            <path d="M12.5787225,11.2102026 C11.6196284,12.1692967 10.9129274,12.6614634 10.3576624,12.8507583 C10.1936069,12.3459719 9.91597437,11.8790445 9.52476494,11.4878351 C9.12093585,11.0966257 8.65400846,10.8189932 8.14922209,10.6423179 C8.35113664,10.0870529 8.84330335,9.38035203 9.78977778,8.43387759 C12.0613164,6.14971929 16.0996074,3.36077461 16.8694066,4.13057382 C17.6392058,4.90037303 14.8502611,8.93866396 12.5787225,11.2102026 Z M8.39124334,15.4120104 C8.01569197,15.7748657 7.53110955,15.9621459 7.04652713,15.9855559 L7.04652713,15.9972609 L6.92538153,15.9972609 C3.67867934,16.114311 2.26127577,12.4389379 3.37581533,12.8252032 C4.84167714,13.3285186 5.43650205,12.602808 5.45951972,12.579398 C6.27119527,11.8068673 7.57956779,11.8068673 8.39124334,12.579398 C9.20291889,13.3636337 9.20291889,14.6394798 8.39124334,15.4120104 Z" id="bursh-icon"></path>
        </g>
    </g>
</svg>