<?xml version="1.0" encoding="UTF-8"?>
<svg version="1.1" xmlns="http://www.w3.org/2000/svg" width="1869" height="2048">
<path d="M0 0 C21.99423653 -0.04696363 43.98846465 -0.08210715 65.98274136 -0.10362434 C76.19773992 -0.11388588 86.41270713 -0.12784673 96.62768555 -0.15087891 C105.54316372 -0.17097126 114.45861915 -0.18375353 123.37411934 -0.18817699 C128.08379153 -0.19075789 132.79339874 -0.19671369 137.50304985 -0.21146011 C201.28406889 -0.40306964 256.18851027 9.58571608 303.125 55.8125 C318.30501554 71.07794871 330.38264497 89.34879832 341 108 C341.52859619 108.91942383 341.52859619 108.91942383 342.06787109 109.85742188 C353.9054153 130.64477679 362.58821781 153.18743353 369.98388672 175.88330078 C370.63550118 177.88198174 371.29526687 179.87803435 371.96533203 181.87060547 C396.52862277 255.00193257 409.78142255 335.10926978 415 412 C415.0725853 413.04350616 415.0725853 413.04350616 415.14663696 414.10809326 C416.15048368 428.98000555 416.20067262 443.84920458 416.1875 458.75 C416.18689575 460.01345245 416.1862915 461.27690491 416.18566895 462.5786438 C416.16116034 481.46685448 415.8876597 500.19265139 414 519 C413.93683594 519.64600159 413.87367187 520.29200317 413.80859375 520.95758057 C405.87570117 601.91731853 382.96804787 682.5306053 341.01806641 770.02148438 C340.32578932 771.36685932 339.63812787 772.71461718 338.95458984 774.06445312 C331.04401514 789.67581135 321.80652948 804.22658697 311 818 C310.35289063 818.85207031 309.70578125 819.70414063 309.0390625 820.58203125 C280.59862686 856.9225879 240.13907132 879.00891581 194.58385563 884.62198353 C180.57848821 886.30626508 166.68465233 886.41087138 152.59580994 886.36076355 C149.81473746 886.36039895 147.0336757 886.36458216 144.25260645 886.36853105 C138.25360821 886.37468886 132.25470015 886.36993117 126.25571251 886.35761642 C117.33574286 886.33935697 108.41582892 886.33862318 99.49584398 886.34124239 C84.48410422 886.34516572 69.47240436 886.33523016 54.46067619 886.31719017 C39.61321756 886.29939363 24.76577557 886.28788319 9.91830635 886.28463173 C8.99255885 886.28442551 8.06681134 886.28421929 7.11301088 886.28400682 C2.41094482 886.28299172 -2.29112126 886.28208761 -6.99318736 886.2812262 C-40.23334387 886.27493745 -73.47347872 886.25476038 -106.71362305 886.22631836 C-138.99096563 886.19873218 -171.26830227 886.17749748 -203.5456543 886.16479492 C-205.04000717 886.16420305 -205.04000717 886.16420305 -206.564549 886.16359923 C-216.56983301 886.15964342 -226.57511706 886.15581601 -236.58040116 886.15208265 C-256.95939841 886.14447554 -277.33839528 886.13601178 -297.71739197 886.12702942 C-298.65423181 886.12661755 -299.59107165 886.12620568 -300.55630058 886.12578133 C-348.97823957 886.10441718 -397.40016855 886.07033751 -445.82209778 886.0333252 C-446.50278795 886.03280498 -447.18347813 886.03228477 -447.88479528 886.03174879 C-461.25653046 886.02150657 -474.62826516 886.01069935 -488 886 C-488 904.15 -488 922.3 -488 941 C-344.45 941 -200.9 941 -53 941 C-53 1174.05970149 -53 1174.05970149 -90 1221 C-90.72574219 1221.93457031 -91.45148437 1222.86914062 -92.19921875 1223.83203125 C-114.95487475 1252.38894964 -143.29619696 1273.30650422 -175 1291 C-175.74169434 1291.41749512 -176.48338867 1291.83499023 -177.24755859 1292.26513672 C-212.70222915 1312.08798535 -251.90402854 1324.59329766 -291 1335 C-291.73754517 1335.19658203 -292.47509033 1335.39316406 -293.23498535 1335.59570312 C-356.59509838 1352.42643371 -421.61458446 1362.4999176 -487.26825714 1362.31805801 C-489.35476255 1362.31238509 -491.44125971 1362.30958475 -493.527771 1362.30697632 C-516.4545009 1362.26541289 -539.20068674 1361.5346825 -562 1359 C-562.7748877 1358.91514343 -563.54977539 1358.83028687 -564.34814453 1358.74285889 C-600.70778896 1354.73074092 -636.542107 1347.94218666 -672 1339 C-672.65035217 1338.83628906 -673.30070435 1338.67257812 -673.97076416 1338.50390625 C-733.59541663 1323.45168205 -795.71031323 1302.41191705 -844 1263 C-844.92554688 1262.26523438 -845.85109375 1261.53046875 -846.8046875 1260.7734375 C-860.83444462 1249.52578519 -873.95190034 1237.21763644 -885 1223 C-885.43602539 1222.44038574 -885.87205078 1221.88077148 -886.32128906 1221.30419922 C-893.05487118 1212.59648589 -898.85144204 1203.63178817 -903.99316406 1193.89941406 C-904.93196199 1192.12835492 -905.89854096 1190.37209943 -906.8671875 1188.6171875 C-920.7176119 1162.57838963 -925.15698459 1133.20146145 -925.14044189 1104.06503296 C-925.14302865 1102.23797024 -925.14604268 1100.41090807 -925.1494453 1098.58384669 C-925.15748246 1093.57907173 -925.15930303 1088.57431114 -925.16004276 1083.56953049 C-925.16189913 1078.16496652 -925.16944953 1072.76040991 -925.17617798 1067.35585022 C-925.18973989 1055.5432252 -925.19578308 1043.73060359 -925.20018864 1031.91797209 C-925.20295547 1024.53356702 -925.2071937 1017.14916325 -925.21169281 1009.76475906 C-925.22388417 989.29643778 -925.23418278 968.82811754 -925.2375679 948.35979271 C-925.23778747 947.0505944 -925.23800703 945.7413961 -925.23823325 944.39252511 C-925.23845153 943.08028528 -925.23866981 941.76804545 -925.2388947 940.41604078 C-925.23933816 937.75717823 -925.23978472 935.09831568 -925.24023438 932.43945312 C-925.2404558 931.12058002 -925.24067723 929.80170691 -925.24090537 928.44286795 C-925.24471618 907.09752991 -925.26229013 885.75223134 -925.2855939 864.40690546 C-925.30935801 842.46163081 -925.3217721 820.51637329 -925.32293582 798.57108557 C-925.3238499 786.26205621 -925.32953435 773.95307143 -925.34775543 761.64405441 C-925.36322505 751.15713458 -925.36823677 740.67027308 -925.36001733 730.18334399 C-925.35613459 724.8416544 -925.35692283 719.50008206 -925.37107468 714.15840721 C-925.47567694 672.28169979 -925.47567694 672.28169979 -922 653 C-921.87807832 652.32101048 -921.75615664 651.64202096 -921.63054037 650.94245601 C-920.97515481 647.38481717 -920.20406696 643.88076976 -919.3125 640.375 C-919.05831299 639.35196777 -918.80412598 638.32893555 -918.54223633 637.27490234 C-911.13341758 608.52221035 -898.1804477 581.49879444 -880 558 C-879.37867188 557.18660156 -878.75734375 556.37320313 -878.1171875 555.53515625 C-866.73232074 540.94685532 -853.64429334 527.3090747 -839 516 C-838.18885742 515.36626465 -838.18885742 515.36626465 -837.36132812 514.71972656 C-813.58141419 496.24373214 -786.06550072 483.04303548 -756.875 475.75 C-755.51181641 475.39881104 -755.51181641 475.39881104 -754.12109375 475.04052734 C-728.79416272 469.04814797 -702.99303414 469.56431986 -677.15234542 469.61123729 C-671.5148874 469.6181087 -665.8774575 469.60746312 -660.24000549 469.59895325 C-650.49491623 469.58645392 -640.74987135 469.58439085 -631.004776 469.58930969 C-616.88823459 469.59615535 -602.7717593 469.58353417 -588.65522975 469.56580251 C-565.7094447 469.53722488 -542.76367136 469.51962218 -519.81787109 469.51123047 C-518.79073002 469.51084961 -518.79073002 469.51084961 -517.74283861 469.51046105 C-506.63303519 469.50635439 -495.52323159 469.50281624 -484.41342795 469.49934876 C-474.00299483 469.49609346 -463.59256182 469.49262968 -453.18212891 469.48876953 C-452.49775764 469.48851924 -451.81338638 469.48826896 -451.1082766 469.48801108 C-427.5507615 469.47931915 -403.99327711 469.45887781 -380.43577814 469.42928743 C-366.36539657 469.41217655 -352.29508496 469.40549145 -338.22469437 469.41259348 C-328.57669538 469.41679291 -318.92874035 469.41035863 -309.28075159 469.39579475 C-303.72821338 469.38778965 -298.17578443 469.38453566 -292.62324715 469.39461708 C-227.04582902 469.50447821 -167.41727713 456.0797981 -114 416 C-113.38044434 415.5373877 -112.76088867 415.07477539 -112.12255859 414.59814453 C-103.24656778 407.92516185 -94.98058002 400.71617649 -87 393 C-86.34676758 392.36868164 -85.69353516 391.73736328 -85.02050781 391.08691406 C-76.80777419 383.10606939 -68.98155682 375.09318081 -62 366 C-61.20464844 364.99839844 -60.40929688 363.99679687 -59.58984375 362.96484375 C-14.2680265 305.60593224 -0.57068085 239.84222167 -0.49388909 168.25232577 C-0.48440312 162.32134053 -0.45819294 156.39042759 -0.43388367 150.45948792 C-0.39049273 139.26888943 -0.36177849 128.07830519 -0.33856028 116.88764864 C-0.31136025 104.13031644 -0.26745891 91.37305799 -0.22227156 78.6157788 C-0.12981857 52.41055939 -0.05795928 26.20531685 0 0 Z M-301 1076 C-301.93779297 1076.82757812 -301.93779297 1076.82757812 -302.89453125 1077.671875 C-315.64827852 1089.30283187 -324.07274389 1109.12407167 -325.14208984 1126.27954102 C-325.7793936 1143.2166161 -324.04248438 1157.79362197 -316 1173 C-315.50886719 1173.96292969 -315.01773438 1174.92585938 -314.51171875 1175.91796875 C-304.33978622 1194.68384905 -287.19695859 1207.44029051 -267.19140625 1214.390625 C-246.01209227 1220.54715025 -224.06232155 1217.74230568 -204.828125 1207.265625 C-184.89925179 1195.80602117 -171.31840857 1178.00823825 -165 1156 C-164.75507812 1155.14792969 -164.51015625 1154.29585937 -164.2578125 1153.41796875 C-159.25221717 1131.64705757 -163.98608025 1109.06589824 -175 1090 C-177.39620061 1086.35914714 -180.02404049 1083.17862342 -183 1080 C-184.23363281 1078.63101562 -184.23363281 1078.63101562 -185.4921875 1077.234375 C-199.09924904 1062.79905754 -218.04488573 1053.2285798 -238 1052 C-238.8559375 1051.94714844 -239.711875 1051.89429688 -240.59375 1051.83984375 C-263.59509083 1051.12878079 -284.60637008 1060.09274305 -301 1076 Z " fill="#FFDE57" transform="translate(1391,465)"/>
<path d="M0 0 C2.10714234 -0.00702399 4.21428446 -0.01411079 6.32142639 -0.02125549 C13.01506866 -0.04064343 19.70867623 -0.04568951 26.40234375 -0.046875 C27.54329247 -0.04731686 28.68424118 -0.04775871 29.8597641 -0.04821396 C64.44975109 -0.05523788 98.85438622 0.2589796 133.33984375 3.203125 C135.50242943 3.38198081 137.66502745 3.56068749 139.82763672 3.73925781 C170.119661 6.27553867 200.26436831 9.79773568 230.33984375 14.203125 C231.45588989 14.36491241 231.45588989 14.36491241 232.59448242 14.52996826 C304.02619678 24.90280378 375.18813142 55.73207638 420.33984375 114.203125 C421.14808594 115.20601563 421.95632813 116.20890625 422.7890625 117.2421875 C429.10333864 125.13533607 434.3834323 133.40382021 439.33984375 142.203125 C439.74203125 142.90115234 440.14421875 143.59917969 440.55859375 144.31835938 C463.37479089 184.13975345 466.8172026 226.14405555 466.73201776 270.97556615 C466.72515655 276.32948619 466.73574315 281.68337823 466.74395752 287.03729248 C466.75722304 297.49431473 466.75444921 307.951272 466.7457196 318.40829669 C466.73891425 326.91627793 466.73803859 335.42424109 466.74129105 343.93222427 C466.74175075 345.14817539 466.74221044 346.3641265 466.74268407 347.61692462 C466.74364336 350.0879728 466.744616 352.55902096 466.74560185 355.03006913 C466.7541349 378.14407322 466.74435482 401.25804148 466.72820075 424.37203969 C466.71480288 444.15380611 466.71712537 463.93551969 466.73095703 483.71728516 C466.74705567 506.7516476 466.75330757 529.78597871 466.74412024 552.820346 C466.74316471 555.28236206 466.74222159 557.74437812 466.74129105 560.2063942 C466.74082822 561.41739271 466.74036539 562.62839123 466.73988854 563.87608667 C466.73731122 572.36110281 466.7416424 580.84609888 466.74872971 589.33111191 C466.75719284 599.68991774 466.75476446 610.04865549 466.73888747 620.40745364 C466.73106846 625.68062335 466.72780262 630.95368004 466.73783493 636.2268486 C466.82864897 688.27009866 466.82864897 688.27009866 460.52734375 712.203125 C460.26655029 713.23107178 460.00575684 714.25901855 459.73706055 715.31811523 C458.96734821 718.28879254 458.16478202 721.24735563 457.33984375 724.203125 C457.11458008 725.01152832 456.88931641 725.81993164 456.65722656 726.65283203 C444.5805547 768.66845797 417.0717173 808.597024 382.33984375 835.203125 C381.79134766 835.62803223 381.24285156 836.05293945 380.67773438 836.49072266 C341.58471444 866.63486871 295.00804145 881.56623178 245.87301636 881.46813965 C243.96495201 881.47171896 242.05688913 881.47617318 240.14882863 881.48141623 C234.95269532 881.4932393 229.75662553 881.49291057 224.56048203 881.49048114 C218.93791936 881.49005911 213.31537788 881.50118407 207.69282532 881.51094055 C197.96178962 881.52635108 188.23076835 881.53479559 178.49972153 881.53865051 C164.40546083 881.54441829 150.31123871 881.56303808 136.21699513 881.58509105 C113.31328857 881.62076473 90.40958229 881.64912042 67.50585938 881.67138672 C66.82156373 881.67205427 66.13726809 881.67272182 65.43223622 881.6734096 C55.02643895 881.68355289 44.62064139 881.69337277 34.21484375 881.703125 C23.12858054 881.71351673 12.04231747 881.72403384 0.95605469 881.73486328 C-0.06844754 881.7358606 -0.06844754 881.7358606 -1.11364678 881.73687806 C-24.61752937 881.75980885 -48.12139278 881.79050765 -71.62525833 881.82725573 C-85.67360086 881.84884686 -99.7219178 881.86352064 -113.770276 881.86909449 C-123.40618406 881.87336028 -133.04206774 881.88464666 -142.67796226 881.90131843 C-148.22612219 881.91066808 -153.77423659 881.91685851 -159.32240486 881.91425514 C-238.51220274 881.88455396 -308.53357218 899.98752354 -368.66015625 954.203125 C-369.77586553 955.19551057 -370.89174708 956.18770249 -372.0078125 957.1796875 C-376.95915522 961.61356814 -381.70254932 966.10548524 -385.97265625 971.20703125 C-387.86191594 973.44178056 -389.85280015 975.56221694 -391.84765625 977.703125 C-430.71690778 1020.86914753 -457.74924912 1082.31981204 -457.81837463 1140.75772095 C-457.8257816 1142.1181096 -457.8257816 1142.1181096 -457.8333382 1143.50598085 C-457.84857653 1146.51521602 -457.85703636 1149.5244301 -457.86547852 1152.53369141 C-457.87506781 1154.7026284 -457.8850785 1156.87156356 -457.89547729 1159.04049683 C-457.92241851 1164.90747439 -457.9434862 1170.77445991 -457.96347928 1176.64146471 C-457.98540565 1182.7807156 -458.01276169 1188.91994227 -458.03953552 1195.05917358 C-458.08937272 1206.67526455 -458.13434471 1218.29136903 -458.17755789 1229.90748632 C-458.22700712 1243.13601944 -458.28189666 1256.36452826 -458.33723748 1269.59303784 C-458.45091971 1296.79637753 -458.55778852 1323.99974055 -458.66015625 1351.203125 C-480.08882711 1351.25003053 -501.51748939 1351.28520417 -522.94620132 1351.30674934 C-532.89790828 1351.31702299 -542.84958317 1351.33100768 -552.80126953 1351.35400391 C-561.48414088 1351.37405846 -570.16698898 1351.38686979 -578.84988284 1351.39130199 C-583.43922987 1351.39388913 -588.02851046 1351.39988649 -592.617836 1351.41458511 C-637.49590597 1351.55269432 -637.49590597 1351.55269432 -657.34765625 1346.890625 C-658.31203613 1346.66971191 -659.27641602 1346.44879883 -660.27001953 1346.22119141 C-663.07176179 1345.56762211 -665.86648281 1344.89026391 -668.66015625 1344.203125 C-669.4082959 1344.02442871 -670.15643555 1343.84573242 -670.92724609 1343.66162109 C-703.41539109 1335.73898017 -732.82841366 1317.30694927 -756.66015625 1294.203125 C-757.21944824 1293.66961426 -757.77874023 1293.13610352 -758.35498047 1292.58642578 C-766.96157359 1284.35970987 -774.58310656 1275.77110103 -781.66015625 1266.203125 C-782.07185059 1265.6575293 -782.48354492 1265.11193359 -782.90771484 1264.54980469 C-790.65113698 1254.27635353 -797.2558097 1243.34943239 -803.66015625 1232.203125 C-804.06089355 1231.50912598 -804.46163086 1230.81512695 -804.87451172 1230.10009766 C-845.88457656 1158.27466087 -859.36625093 1066.62024632 -868.40301514 985.48449707 C-868.64680948 983.32153835 -868.90215031 981.16026738 -869.16064453 978.99902344 C-874.64342458 932.32602166 -874.50387878 882.01224949 -868.91662598 835.359375 C-868.64338958 833.06216044 -868.38290261 830.76371866 -868.12402344 828.46484375 C-858.33292017 742.24706044 -843.33667778 647.28796142 -776.66015625 556.203125 C-776.20253906 555.68911133 -775.74492188 555.17509766 -775.2734375 554.64550781 C-766.24721622 544.55105726 -756.99008004 534.85530696 -746.3046875 526.49267578 C-745.13380012 525.57453042 -743.96761841 524.65037046 -742.8046875 523.72216797 C-732.25293506 515.30823374 -721.4113944 507.84371387 -709.66015625 501.203125 C-708.79680664 500.71457031 -707.93345703 500.22601563 -707.04394531 499.72265625 C-659.18646139 472.98432771 -607.55497725 465.01299215 -553.49583435 465.08287048 C-550.96915888 465.08243378 -548.44248345 465.08155705 -545.91580826 465.08028132 C-540.44787929 465.07851903 -534.97996475 465.07982709 -529.51203728 465.08391953 C-521.38160005 465.08998767 -513.25116964 465.09025227 -505.12073056 465.08937754 C-491.43996104 465.08806757 -477.75919638 465.09139006 -464.07842827 465.09739494 C-450.54175225 465.10332129 -437.00507826 465.10716277 -423.46840096 465.10824776 C-422.62528434 465.1083165 -421.78216773 465.10838524 -420.91350212 465.10845606 C-416.63136707 465.10879441 -412.34923201 465.10909579 -408.06709696 465.10938293 C-377.77300142 465.11148078 -347.47890851 465.11821096 -317.18481445 465.12768555 C-287.7629396 465.13687669 -258.34106546 465.14395702 -228.91918945 465.14819336 C-227.55772329 465.14839065 -227.55772329 465.14839065 -226.16875277 465.14859192 C-217.05343576 465.1499105 -207.93811874 465.1511863 -198.82280172 465.15243078 C-180.2554894 465.15496668 -161.68817712 465.15778793 -143.12086487 465.16078186 C-142.26725604 465.16091915 -141.41364722 465.16105644 -140.53417146 465.16119789 C-83.57616523 465.17039141 -26.61816071 465.18646481 30.33984375 465.203125 C30.33984375 447.383125 30.33984375 429.563125 30.33984375 411.203125 C-113.54015625 411.203125 -257.42015625 411.203125 -405.66015625 411.203125 C-405.66015625 135.79647054 -405.66015625 135.79647054 -356.0703125 84.60205078 C-352.21581109 80.77824658 -347.98309246 77.47437915 -343.66015625 74.203125 C-342.65984375 73.42582031 -341.65953125 72.64851563 -340.62890625 71.84765625 C-271.47664619 19.38949607 -166.85001564 10.37790408 -66.16015625 2.515625 C-65.29511475 2.45468658 -64.43007324 2.39374817 -63.53881836 2.33096313 C-42.36671806 0.8594971 -21.22315132 0.04409927 0 0 Z M-271.66015625 158.203125 C-272.59988281 159.03070313 -272.59988281 159.03070313 -273.55859375 159.875 C-287.2091832 172.35200936 -295.10492768 192.78599143 -296.046875 211.00390625 C-296.77296943 236.1851812 -289.35796844 257.74005536 -271.97265625 276.328125 C-255.59892744 291.93433527 -234.61942634 299.95173141 -212.11206055 299.67138672 C-193.60875927 298.98931964 -176.6443362 292.40750023 -162.66015625 280.203125 C-162.01175781 279.708125 -161.36335937 279.213125 -160.6953125 278.703125 C-145.43923193 266.61910078 -136.09912088 246.11090795 -133.66015625 227.203125 C-132.23560315 202.91575399 -137.74761707 180.55192626 -154.09765625 161.890625 C-155.59936943 160.30973987 -157.11967739 158.74625985 -158.66015625 157.203125 C-159.3459375 156.50574219 -160.03171875 155.80835938 -160.73828125 155.08984375 C-175.60666068 140.90981522 -196.1337235 133.80395549 -216.46948242 133.90039062 C-238.32745394 134.45734731 -256.10840551 143.34612601 -271.66015625 158.203125 Z " fill="#3C79AA" transform="translate(871.66015625,-0.203125)"/>
<path d="M0 0 C4.96878755 0.00008061 9.93748162 -0.00677148 14.90625 -0.02050781 C59.12824822 -0.14065 103.26827725 0.8381547 147.38720703 3.99780273 C149.18850067 4.12377335 149.18850067 4.12377335 151.02618408 4.25228882 C250.25640992 11.21859846 360.37934085 20.255305 478.88720703 78.18530273 C479.89460938 78.95874023 479.89460938 78.95874023 480.92236328 79.74780273 C482.28702241 80.84201688 483.5977984 82.00334482 484.88720703 83.18530273 C484.88720703 83.51530273 484.88720703 83.84530273 484.88720703 84.18530273 C170.72720703 84.18530273 -143.43279297 84.18530273 -467.11279297 84.18530273 C-425.09611592 42.16862568 -344.56793814 32.01391085 -288.11279297 22.18530273 C-286.80686188 21.95777313 -286.80686188 21.95777313 -285.47454834 21.72564697 C-225.62867995 11.36521672 -165.03334397 5.8385109 -104.42529297 2.49780273 C-102.76617889 2.40625916 -102.76617889 2.40625916 -101.07354736 2.31286621 C-93.42164795 1.89692899 -85.7682344 1.52936672 -78.11279297 1.18530273 C-77.06728271 1.13584503 -76.02177246 1.08638733 -74.94458008 1.03543091 C-49.97745054 -0.11278772 -24.98771551 -0.00208789 0 0 Z " fill="#949494" transform="translate(898.11279296875,1963.814697265625)"/>
<path d="M0 0 C4.96878755 0.00008061 9.93748162 -0.00677148 14.90625 -0.02050781 C59.12824822 -0.14065 103.26827725 0.8381547 147.38720703 3.99780273 C149.18850067 4.12377335 149.18850067 4.12377335 151.02618408 4.25228882 C250.25640992 11.21859846 360.37934085 20.255305 478.88720703 78.18530273 C479.89460938 78.95874023 479.89460938 78.95874023 480.92236328 79.74780273 C482.28702241 80.84201688 483.5977984 82.00334482 484.88720703 83.18530273 C484.88720703 83.51530273 484.88720703 83.84530273 484.88720703 84.18530273 C471.86470367 84.39479656 458.84260796 84.5542334 445.8187561 84.65161228 C439.76967404 84.69837474 433.72175356 84.76169534 427.67333984 84.86425781 C421.82471479 84.96280001 415.97719943 85.01601742 410.12780762 85.03919792 C407.90798495 85.05569427 405.68821588 85.08790556 403.46887207 85.13687325 C389.68522938 85.42861109 380.07235887 84.31844893 368.64802074 76.33040619 C299.1081049 31.10677051 184.17653768 29.92521813 98.88720703 25.18530273 C97.90606934 25.1330957 96.92493164 25.08088867 95.9140625 25.02709961 C-3.49684167 19.8379369 -104.50280306 22.36562319 -342.17529297 71.81030273 C-342.90514404 72.13377686 -343.63499512 72.45725098 -344.38696289 72.79052734 C-347.71437772 74.342611 -350.68004337 75.84041228 -353.56802368 78.14205933 C-364.19329526 86.15305463 -375.07514587 85.21400501 -387.91357422 84.96655273 C-390.20425936 84.95160671 -392.49497031 84.94023087 -394.78569031 84.93225098 C-400.77530207 84.90190344 -406.76332823 84.82349024 -412.75231934 84.73461914 C-418.87942056 84.65235157 -425.00678141 84.61615239 -431.13427734 84.57592773 C-443.12780737 84.49047919 -455.12016762 84.35418396 -467.11279297 84.18530273 C-425.69342905 42.01460675 -344.18588267 31.94739657 -288.11279297 22.18530273 C-286.80686188 21.95777313 -286.80686188 21.95777313 -285.47454834 21.72564697 C-225.62867995 11.36521672 -165.03334397 5.8385109 -104.42529297 2.49780273 C-102.76617889 2.40625916 -102.76617889 2.40625916 -101.07354736 2.31286621 C-93.42164795 1.89692899 -85.7682344 1.52936672 -78.11279297 1.18530273 C-77.06728271 1.13584503 -76.02177246 1.08638733 -74.94458008 1.03543091 C-49.97745054 -0.11278772 -24.98771551 -0.00208789 0 0 Z " fill="#8B8B8B" transform="translate(898.11279296875,1963.814697265625)"/>
<path d="M0 0 C2.02901734 -0.00697947 4.05803446 -0.01402043 6.08705139 -0.02111816 C12.53459953 -0.0403922 18.98211369 -0.0452936 25.4296875 -0.046875 C27.0749964 -0.04775871 27.0749964 -0.04775871 28.75354385 -0.04866028 C61.70292134 -0.06115926 94.46597822 0.23906842 127.3046875 3.203125 C129.0541646 3.35489178 130.80367655 3.5062573 132.55322266 3.65722656 C187.68653671 8.48233275 244.18740921 16.08179951 295.3046875 38.203125 C295.3046875 38.533125 295.3046875 38.863125 295.3046875 39.203125 C118.4246875 39.203125 -58.4553125 39.203125 -240.6953125 39.203125 C-238.62898984 37.13680234 -237.39240322 36.54144936 -234.71484375 35.50390625 C-233.89322754 35.18542725 -233.07161133 34.86694824 -232.22509766 34.53881836 C-197.96687066 21.6388876 -162.82147827 14.42038929 -126.6953125 9.203125 C-126.01718506 9.10493469 -125.33905762 9.00674438 -124.64038086 8.90557861 C-105.64068468 6.17802134 -86.5742424 4.52230012 -67.4453125 3.015625 C-66.3702948 2.93076843 -65.2952771 2.84591187 -64.18768311 2.75848389 C-61.0395318 2.51255621 -57.89099457 2.2725294 -54.7421875 2.03515625 C-53.8397934 1.96554184 -52.93739929 1.89592743 -52.00765991 1.82420349 C-34.67917125 0.54917689 -17.37138299 0.03729284 0 0 Z " fill="#9C9C9C" transform="translate(879.6953125,2008.796875)"/>
<path d="M0 0 C4.96878755 0.00008061 9.93748162 -0.00677148 14.90625 -0.02050781 C59.12824822 -0.14065 103.26827725 0.8381547 147.38720703 3.99780273 C149.18850067 4.12377335 149.18850067 4.12377335 151.02618408 4.25228882 C250.25640992 11.21859846 360.37934085 20.255305 478.88720703 78.18530273 C479.89460938 78.95874023 479.89460938 78.95874023 480.92236328 79.74780273 C482.28702241 80.84201688 483.5977984 82.00334482 484.88720703 83.18530273 C484.88720703 83.51530273 484.88720703 83.84530273 484.88720703 84.18530273 C479.85616474 84.41053881 474.82815285 84.57233779 469.79321289 84.6796875 C468.08696292 84.72450005 466.3810494 84.78557962 464.67602539 84.86425781 C451.63881454 85.45007081 444.92584591 83.6350923 434.88720703 75.18530273 C432.43910652 73.57567316 429.91916285 72.16890146 427.32470703 70.81030273 C426.63820068 70.45073486 425.95169434 70.09116699 425.24438477 69.72070312 C337.14911142 25.16644524 224.54263041 18.29726397 107.01220703 10.99780273 C106.30081573 10.96078247 105.58942444 10.92376221 104.85647583 10.88562012 C100.43487167 10.66077406 96.01254323 10.46720959 91.58868408 10.29244995 C89.67415144 10.21651488 87.75973146 10.1377147 85.84539795 10.05691528 C60.65535299 9.01381701 35.47009292 8.98388821 10.26220703 8.99780273 C9.17814575 8.99806961 8.09408447 8.99833649 6.97717285 8.99861145 C-26.42667644 9.00892508 -59.75760989 9.20319764 -93.11279297 11.18530273 C-94.8005484 11.28358368 -94.8005484 11.28358368 -96.5223999 11.3838501 C-193.37564143 17.05313788 -297.91841733 24.36262546 -427.74951172 82.77709961 C-431.23750072 84.85547983 -434.65806644 84.55560591 -438.59716797 84.47827148 C-439.41276184 84.47402664 -440.22835571 84.4697818 -441.06866455 84.46540833 C-443.66704681 84.44864989 -446.26464616 84.41100371 -448.86279297 84.37280273 C-450.62710466 84.35775219 -452.39142855 84.34406443 -454.15576172 84.33178711 C-458.47507262 84.29875574 -462.79380017 84.24699359 -467.11279297 84.18530273 C-425.69342905 42.01460675 -344.18588267 31.94739657 -288.11279297 22.18530273 C-286.80686188 21.95777313 -286.80686188 21.95777313 -285.47454834 21.72564697 C-225.62867995 11.36521672 -165.03334397 5.8385109 -104.42529297 2.49780273 C-102.76617889 2.40625916 -102.76617889 2.40625916 -101.07354736 2.31286621 C-93.42164795 1.89692899 -85.7682344 1.52936672 -78.11279297 1.18530273 C-77.06728271 1.13584503 -76.02177246 1.08638733 -74.94458008 1.03543091 C-49.97745054 -0.11278772 -24.98771551 -0.00208789 0 0 Z " fill="#868686" transform="translate(898.11279296875,1963.814697265625)"/>
<path d="M0 0 C-7.12973407 0.23591209 -14.25857558 0.41143009 -21.39147854 0.51812172 C-24.7075424 0.56944565 -28.01881895 0.64430566 -31.33374023 0.75439453 C-49.83161038 1.35234812 -63.6829009 -0.98595705 -80.44491577 -8.8470459 C-85.75611973 -11.2436692 -91.30580062 -12.72647876 -96.9375 -14.1875 C-98.12311523 -14.50372314 -99.30873047 -14.81994629 -100.53027344 -15.14575195 C-144.9838471 -26.71487238 -190.70245497 -32.34111065 -236.4375 -35.6875 C-237.26765625 -35.74834778 -238.0978125 -35.80919556 -238.953125 -35.87188721 C-258.8768562 -37.31292738 -278.7537975 -38.16030921 -298.73046875 -38.203125 C-300.76220215 -38.210104 -302.79393534 -38.21714496 -304.82566833 -38.22424316 C-311.279615 -38.24351343 -317.7335277 -38.24841837 -324.1875 -38.25 C-325.2853759 -38.25058914 -326.3832518 -38.25117828 -327.51439667 -38.25178528 C-359.2490088 -38.26381318 -390.84678678 -38.113446 -422.47491455 -35.22784424 C-425.05003166 -34.99548553 -427.62602202 -34.77708596 -430.20263672 -34.56201172 C-511.01434529 -28.59525441 -511.01434529 -28.59525441 -586.91905212 -2.9750824 C-593.71771408 0.60099197 -600.01140781 0.51823954 -607.56640625 0.390625 C-608.84104233 0.38496521 -610.11567841 0.37930542 -611.42893982 0.37347412 C-614.78796422 0.35497782 -618.14586338 0.31915909 -621.50457764 0.2746582 C-624.94370903 0.23345023 -628.38295754 0.21540916 -631.82226562 0.1953125 C-638.54848316 0.15136567 -645.27417675 0.08454307 -652 0 C-594.07044476 -48.0906862 -470.25302573 -46.85566888 -369.0625 -51.5625 C-368.30074463 -51.58334656 -367.53898926 -51.60419312 -366.75415039 -51.62567139 C-275.3684877 -54.04294851 -182.5659322 -49.89887584 0 0 Z " fill="#939393" transform="translate(1233,2048)"/>
<path d="M0 0 C1.12517029 0.06552063 2.25034058 0.13104126 3.40960693 0.19854736 C100.42805692 5.87750559 203.72602226 13.88119313 337 73 C337 73.33 337 73.66 337 74 C322.52242239 75.04379873 312.18030039 75.42072068 300.64404297 66.22265625 C235.38413855 17.68959992 114.22365576 14.80855734 -10.625 5.8125 C-11.37237427 5.77557037 -12.11974854 5.73864075 -12.88977051 5.70059204 C-18.5917477 5.42550781 -24.2950546 5.2035679 -30 5 C-31.17823334 4.95763214 -32.35646667 4.91526428 -33.57040405 4.87161255 C-55.90316669 4.09047658 -78.2168334 3.79779559 -100.5625 3.8125 C-101.37590096 3.81261959 -102.18930191 3.81273918 -103.02735138 3.8128624 C-197.92911045 3.83039413 -293.57055007 9.59967137 -511.0625 70.75 C-519.21021874 76.78904421 -531.38964707 74.60618432 -541 74 C-489.6913469 16.63044694 -347.24826561 12.01261657 -215.515625 0.625 C-212.6296161 0.46536064 -209.74346782 0.3087668 -206.85717773 0.15429688 C-204.04834827 0.00261096 -201.24000976 -0.15644992 -198.43164062 -0.31640625 C-132.63904253 -3.98283682 -65.77777081 -3.90879145 0 0 Z " fill="#939393" transform="translate(1009,1974)"/>
<path d="M0 0 C4.96878755 0.00008061 9.93748162 -0.00677148 14.90625 -0.02050781 C59.12824822 -0.14065 103.26827725 0.8381547 147.38720703 3.99780273 C149.18850067 4.12377335 149.18850067 4.12377335 151.02618408 4.25228882 C250.25640992 11.21859846 360.37934085 20.255305 478.88720703 78.18530273 C479.89460938 78.95874023 479.89460938 78.95874023 480.92236328 79.74780273 C482.28702241 80.84201688 483.5977984 82.00334482 484.88720703 83.18530273 C484.88720703 83.51530273 484.88720703 83.84530273 484.88720703 84.18530273 C469.61602507 85.56488254 469.61602507 85.56488254 463.38720703 80.74780273 C462.08589844 79.64952148 462.08589844 79.64952148 460.75830078 78.52905273 C432.89946504 55.78714601 390.01365268 46.4505372 355.88720703 38.18530273 C355.22730774 38.02457275 354.56740845 37.86384277 353.88751221 37.69824219 C264.59018854 16.00277507 171.50412451 8.3485662 79.88720703 5.18530273 C78.63493317 5.14146454 78.63493317 5.14146454 77.35736084 5.09674072 C-28.18415019 1.4522488 -134.64607197 5.45489182 -445.61279297 80.74780273 C-452.16576747 85.81557015 -459.25631683 84.89504713 -467.11279297 84.18530273 C-426.78423105 41.75785655 -343.48693852 31.82571327 -288.11279297 22.18530273 C-286.80686188 21.95777313 -286.80686188 21.95777313 -285.47454834 21.72564697 C-225.62867995 11.36521672 -165.03334397 5.8385109 -104.42529297 2.49780273 C-102.76617889 2.40625916 -102.76617889 2.40625916 -101.07354736 2.31286621 C-93.42164795 1.89692899 -85.7682344 1.52936672 -78.11279297 1.18530273 C-77.06728271 1.13584503 -76.02177246 1.08638733 -74.94458008 1.03543091 C-49.97745054 -0.11278772 -24.98771551 -0.00208789 0 0 Z " fill="#999999" transform="translate(898.11279296875,1963.814697265625)"/>
<path d="M0 0 C0.80993408 0.36013184 1.61986816 0.72026367 2.4543457 1.09130859 C7.61104011 3.45280054 12.65258683 6.02698664 17.25 9.375 C17.25 9.705 17.25 10.035 17.25 10.375 C2.88425041 11.35688614 -7.31963468 10.84120681 -19.73925781 3.49951172 C-87.81444472 -34.57167707 -189.28567835 -36.11329242 -271.75 -39.625 C-272.86103088 -39.6688382 -272.86103088 -39.6688382 -273.99450684 -39.71356201 C-362.88910712 -43.15719178 -453.21475843 -39.92089565 -597.75 -12.625 C-598.81911621 -12.34156738 -599.88823242 -12.05813477 -600.98974609 -11.76611328 C-624.13698553 -5.53625036 -624.13698553 -5.53625036 -645.73828125 4.66015625 C-657.24117944 11.38818388 -667.60752871 11.27327617 -680.75 10.375 C-620.48547827 -41.03710611 -489.32773056 -40.44311175 0 0 Z " fill="#8A8A8A" transform="translate(1238.75,2037.625)"/>
<path d="M0 0 C1.22010143 0.00017939 1.22010143 0.00017939 2.46485138 0.0003624 C98.9570544 0.01818795 196.42504014 5.70840228 415.4375 69.1875 C415.7675 69.8475 416.0975 70.5075 416.4375 71.1875 C407.73265547 72.05936837 402.51853716 71.32394499 395.39453125 66.23828125 C325.04129089 17.44640385 208.39669487 13.8066443 97.4375 6.1875 C96.39726685 6.12584656 95.35703369 6.06419312 94.28527832 6.00067139 C31.65721195 2.33917894 -31.94184107 2.47604438 -94.5625 6.1875 C-96.24079895 6.28578094 -96.24079895 6.28578094 -97.95300293 6.38604736 C-192.03872878 11.94668102 -298.59163607 18.35654743 -395.25 68.1875 C-401.13510517 72.14379783 -406.68764233 71.87607875 -413.5625 71.1875 C-362.11920139 15.03373068 -220.95001772 12.37112532 -97.1875 2.4375 C-95.53850708 2.34875107 -95.53850708 2.34875107 -93.85620117 2.25820923 C-62.57934623 0.60748633 -31.31607465 -0.02060732 0 0 Z " fill="#7F7F7F" transform="translate(905.5625,1976.8125)"/>
<path d="M0 0 C1.80423935 0.00090637 1.80423935 0.00090637 3.64492798 0.00183105 C49.90046539 0.06459765 96.20665521 3.39479402 141.3125 14.1875 C141.3125 14.5175 141.3125 14.8475 141.3125 15.1875 C48.2525 15.1875 -44.8075 15.1875 -140.6875 15.1875 C-135.02849264 12.35799632 -129.11550148 11.49345467 -122.9375 10.3125 C-122.25677429 10.18121704 -121.57604858 10.04993408 -120.87469482 9.91467285 C-81.02376916 2.28573943 -40.5118378 -0.03789399 0 0 Z " fill="#A5A5A5" transform="translate(906.6875,2032.8125)"/>
<path d="M0 0 C1.12517029 0.06552063 2.25034058 0.13104126 3.40960693 0.19854736 C100.42805692 5.87750559 203.72602226 13.88119313 337 73 C337 73.33 337 73.66 337 74 C330.24271845 74.72399445 330.24271845 74.72399445 327.25 72.98046875 C325.98376291 71.95447754 324.72120125 70.9239447 323.4609375 69.890625 C251.03662648 14.25036066 119.13397608 11.03678207 32.375 4.75 C31.32691162 4.67286774 30.27882324 4.59573547 29.19897461 4.51626587 C21.13691228 3.93204807 13.07079991 3.44567701 5 3 C4.24148617 2.95740177 3.48297234 2.91480354 2.70147324 2.87091446 C-30.51513879 1.01649007 -63.68804976 0.63481846 -96.95159149 0.68194199 C-99.63377004 0.68568206 -102.31593621 0.68872076 -104.99811554 0.69037247 C-145.40495665 0.71533253 -185.68339563 1.02219382 -226 4 C-228.51023511 4.17897479 -231.02048962 4.35767764 -233.53076172 4.53613281 C-380.28354586 14.4573757 -380.28354586 14.4573757 -530.62109375 72.23828125 C-534.24554519 74.92239882 -536.60987649 74.29763549 -541 74 C-489.6913469 16.63044694 -347.24826561 12.01261657 -215.515625 0.625 C-212.6296161 0.46536064 -209.74346782 0.3087668 -206.85717773 0.15429688 C-204.04834827 0.00261096 -201.24000976 -0.15644992 -198.43164062 -0.31640625 C-132.63904253 -3.98283682 -65.77777081 -3.90879145 0 0 Z " fill="#999999" transform="translate(1009,1974)"/>
<path d="M0 0 C2.51023511 0.17897479 5.02048962 0.35767764 7.53076172 0.53613281 C97.64649198 7.03144314 196.72504625 15.31209473 307 70 C307 70.33 307 70.66 307 71 C301.04737367 71.5274479 297.97654931 70.12343818 293.375 66.625 C220.87582533 15.35471344 99.94226136 10.17878584 -50.71588135 0.08856201 C-52.86468444 0.00524658 -55.0131507 -0.08384542 -57.16162109 -0.17529297 C-150.19950649 -4.02663401 -244.30617075 -0.39448854 -448 31 C-448.65963745 31.16028687 -449.3192749 31.32057373 -449.99890137 31.48571777 C-502.65054577 43.35928547 -502.65054577 43.35928547 -548 71 C-550.33297433 71.04092937 -552.66705225 71.04241723 -555 71 C-504.60496396 16.45364873 -372.8532576 11.47660268 -251.70672607 0.26428223 C-249.31348814 0.0936491 -246.92044413 -0.07973658 -244.52764893 -0.25646973 C-163.85141989 -6.20865412 -80.6640991 -5.95789395 0 0 Z " fill="#808080" transform="translate(1031,1977)"/>
<path d="M0 0 C1.44899626 0.00040031 1.44899626 0.00040031 2.92726517 0.00080872 C34.42866624 0.011706 65.85712963 0.32317578 97.3125 2.1875 C98.43136597 2.25302063 99.55023193 2.31854126 100.70300293 2.38604736 C302.78568967 14.3294934 302.78568967 14.3294934 403.3125 68.1875 C397.49026294 68.66157528 394.15323839 67.36128309 389.4375 64.1875 C313.19582811 16.05484381 201.49672511 11.43227712 107.625 5.5 C106.13759811 5.40859238 106.13759811 5.40859238 104.62014771 5.31533813 C80.95030524 3.88054044 57.31958849 3.0273777 33.60546875 2.984375 C31.20304853 2.9773955 28.80062849 2.97035454 26.39820862 2.96325684 C18.76547007 2.9439854 11.13276023 2.93908141 3.5 2.9375 C2.20127457 2.93691086 0.90254913 2.93632172 -0.43553162 2.93571472 C-38.25008567 2.92360033 -75.92534214 3.10427363 -113.64855957 5.95965576 C-116.74001478 6.19143729 -119.83217386 6.4099998 -122.92480469 6.62548828 C-206.78490782 12.52152348 -305.48576655 19.72356625 -392.6875 68.1875 C-395.37589385 68.45741906 -397.97891936 68.27487357 -400.6875 68.1875 C-350.62236584 11.81596077 -201.39754007 9.87807739 -109.68638611 3.10148621 C-106.2286153 2.89750195 -102.77064204 2.69758594 -99.3125 2.5 C-98.25243744 2.43906158 -97.19237488 2.37812317 -96.10018921 2.31533813 C-64.06041338 0.500965 -32.08252799 -0.01992712 0 0 Z " fill="#8E8E8E" transform="translate(905.6875,1979.8125)"/>
<path d="M0 0 C4.96878755 0.00008061 9.93748162 -0.00677148 14.90625 -0.02050781 C59.12824822 -0.14065 103.26827725 0.8381547 147.38720703 3.99780273 C149.18850067 4.12377335 149.18850067 4.12377335 151.02618408 4.25228882 C250.25640992 11.21859846 360.37934085 20.255305 478.88720703 78.18530273 C479.89460938 78.95874023 479.89460938 78.95874023 480.92236328 79.74780273 C482.28702241 80.84201688 483.5977984 82.00334482 484.88720703 83.18530273 C484.88720703 83.51530273 484.88720703 83.84530273 484.88720703 84.18530273 C481.30358085 84.51013435 479.40032803 84.50716955 476.30908203 82.56811523 C475.42736328 81.82303711 474.54564453 81.07795898 473.63720703 80.31030273 C433.24080625 48.1747677 373.28008545 37.97491845 323.88720703 28.18530273 C323.19620911 28.04715149 322.50521118 27.90900024 321.79327393 27.7666626 C253.76039532 14.16836212 184.08684174 8.1046807 114.88720703 4.49780273 C113.72958862 4.43695496 112.57197021 4.37610718 111.37927246 4.31341553 C77.89988921 2.57789416 44.46874296 1.97644786 10.94970703 1.99780273 C10.00515907 1.99806961 9.06061111 1.99833649 8.08744049 1.99861145 C-94.4377015 2.03480801 -197.91929711 7.67474494 -458.39404297 82.49780273 C-461.5721161 84.47039985 -463.43934332 84.53103917 -467.11279297 84.18530273 C-426.78423105 41.75785655 -343.48693852 31.82571327 -288.11279297 22.18530273 C-286.80686188 21.95777313 -286.80686188 21.95777313 -285.47454834 21.72564697 C-225.62867995 11.36521672 -165.03334397 5.8385109 -104.42529297 2.49780273 C-102.76617889 2.40625916 -102.76617889 2.40625916 -101.07354736 2.31286621 C-93.42164795 1.89692899 -85.7682344 1.52936672 -78.11279297 1.18530273 C-77.06728271 1.13584503 -76.02177246 1.08638733 -74.94458008 1.03543091 C-49.97745054 -0.11278772 -24.98771551 -0.00208789 0 0 Z " fill="#000000" transform="translate(898.11279296875,1963.814697265625)"/>
<path d="M0 0 C0.84226135 0.1383728 1.68452271 0.27674561 2.55230713 0.41931152 C123.93389916 20.49729058 123.93389916 20.49729058 169 53 C169.79921875 53.56847656 170.5984375 54.13695312 171.421875 54.72265625 C175.32078442 57.56617122 175.32078442 57.56617122 177 59 C177 59.33 177 59.66 177 60 C173.92757628 60.55146067 171.79420372 60.53621398 169.16015625 58.7578125 C168.48855469 58.19835938 167.81695313 57.63890625 167.125 57.0625 C102.95268513 3.99487855 -14.84320894 -1.892575 -144.6875 -14.1875 C-146.31371277 -14.30572113 -146.31371277 -14.30572113 -147.97277832 -14.42633057 C-156.31112949 -15.02523607 -164.65328728 -15.53336434 -173 -16 C-173.76023342 -16.04325535 -174.52046684 -16.0865107 -175.30373764 -16.13107681 C-208.78234659 -18.0246936 -242.23693959 -18.3460736 -275.76002878 -18.31368035 C-280.53563488 -18.31024036 -285.31109375 -18.31969467 -290.08666992 -18.33618164 C-347.20794257 -18.52858702 -404.09440979 -16.21973217 -461 -11 C-461.97122803 -10.9112561 -462.94245605 -10.82251221 -463.94311523 -10.7310791 C-607.29741023 -0.25935257 -607.29741023 -0.25935257 -734.52734375 58.41796875 C-737.55393307 60.35441216 -739.47344309 60.31312951 -743 60 C-737.71572623 54.39634705 -731.58708078 50.82487298 -725 47 C-723.41638672 46.05640625 -723.41638672 46.05640625 -721.80078125 45.09375 C-640.62811882 -0.91351976 -530.0676361 -8.03885267 -353 -20 C-352.15570435 -20.02922546 -351.31140869 -20.05845093 -350.44152832 -20.08856201 C-245.17041895 -23.69679797 -138.86143098 -19.86765031 0 0 Z " fill="#555555" transform="translate(1190,1988)"/>
<path d="M0 0 C3.84372557 0.00543724 7.68744498 0.00780657 11.53117371 0.00987244 C47.66720545 0.0401383 83.67728661 0.35178933 119.72459412 3.08677673 C122.86126748 3.32352332 125.99860794 3.54881138 129.13627625 3.7719574 C186.14413002 7.8670039 242.97334259 14.83902379 298.78617859 27.31785583 C300.67360779 27.73454529 300.67360779 27.73454529 302.59916687 28.15965271 C382.45912953 46.04968405 382.45912953 46.04968405 399.78617859 66.31785583 C393.4315256 66.89108484 390.36963435 65.29648176 385.28617859 61.94285583 C308.87823612 14.7254118 197.93200307 10.67069895 -285.83882141 29.75535583 C-315.75427186 36.87039266 -346.43157941 44.8038506 -373.08491516 60.59519958 C-373.71631409 60.96701355 -374.34771301 61.33882751 -374.99824524 61.72190857 C-376.71888834 62.74644324 -378.42404871 63.79685607 -380.12788391 64.84910583 C-383.45847689 66.43429946 -385.57455149 66.62386051 -389.21382141 66.31785583 C-385.25005398 61.89974352 -381.09318353 59.27684656 -375.83882141 56.56785583 C-375.00721497 56.13738953 -374.17560852 55.70692322 -373.31880188 55.26341248 C-300.10054779 18.26100346 -208.74758812 10.88601742 -128.35054016 4.41551208 C-127.22456169 4.32420265 -127.22456169 4.32420265 -126.07583618 4.23104858 C-84.08111453 0.95042098 -42.11185702 -0.06197439 0 0 Z " fill="#808080" transform="translate(902.2138214111328,1981.682144165039)"/>
<path d="M0 0 C4.15043566 0.00008053 8.30075921 -0.00676036 12.45117188 -0.02050781 C51.26164084 -0.14680991 90.01566667 0.88334393 128.71679688 3.93530273 C130.32174011 4.05935486 130.32174011 4.05935486 131.95910645 4.18591309 C185.94980406 8.39697959 239.88579139 15.24006966 292.52929688 28.18530273 C293.74069336 28.48291504 294.95208984 28.78052734 296.20019531 29.0871582 C322.53478257 35.65797854 350.84560764 43.69400277 373.52929688 59.18530273 C373.52929688 59.51530273 373.52929688 59.84530273 373.52929688 60.18530273 C368.18346531 60.68824895 365.09397902 59.08076524 360.71679688 56.31030273 C287.00340765 12.57742441 180.0261047 8.72631623 96.52929688 4.18530273 C95.09206268 4.10699219 95.09206268 4.10699219 93.62579346 4.02709961 C-1.67308387 -1.06756245 -98.58944768 1.15507611 -350.06347656 58.83178711 C-353.03232187 60.50108512 -355.11822227 60.41919675 -358.47070312 60.18530273 C-292.07325558 4.46544842 -153.6378884 5.00630414 -69.87780762 1.29244995 C-68.2068016 1.21806862 -66.53598989 1.13924151 -64.86535645 1.05691528 C-43.25040373 -0.00065025 -21.63548554 -0.00221401 0 0 Z " fill="#898989" transform="translate(899.470703125,1987.814697265625)"/>
<path d="M0 0 C-5.18675881 0.43354367 -8.46034579 -0.97276116 -12.875 -3.4375 C-69.70153922 -33.22706352 -141.95884734 -39.40895534 -204.9921875 -44.90234375 C-205.6857132 -44.96321671 -206.37923889 -45.02408966 -207.09378052 -45.08680725 C-244.49938967 -48.24171013 -281.89191621 -49.33941803 -319.41992188 -49.26074219 C-324.90136836 -49.24934879 -330.38262051 -49.25613988 -335.8640604 -49.26762009 C-363.3005184 -49.31633245 -390.61599683 -48.72339562 -418 -47 C-419.21359192 -46.92438843 -420.42718384 -46.84877686 -421.67755127 -46.77087402 C-428.47890936 -46.33489433 -435.27133056 -45.82218757 -442.0625 -45.25 C-443.55304398 -45.12644638 -443.55304398 -45.12644638 -445.07369995 -45.00039673 C-509.95801251 -39.56694172 -585.46147103 -33.24148728 -643.45703125 -1.03125 C-646.45305205 0.18372618 -648.79651261 0.18706496 -652 0 C-596.98492423 -48.76834406 -468.07057017 -46.96472417 -369.0625 -51.5625 C-368.30074463 -51.58334656 -367.53898926 -51.60419312 -366.75415039 -51.62567139 C-275.3684877 -54.04294851 -182.5659322 -49.89887584 0 0 Z " fill="#969696" transform="translate(1233,2048)"/>
<path d="M0 0 C12.00360987 -0.42583279 23.82424665 0.84601771 35.75 2.0625 C37.37754211 2.22664398 37.37754211 2.22664398 39.03796387 2.394104 C198.70159142 18.62679572 198.70159142 18.62679572 256 57 C254.4453125 57.74609375 254.4453125 57.74609375 252 58 C249.50056 56.7802493 247.23350541 55.51340173 244.875 54.0625 C174.34088198 12.93291685 79.37753621 7.25687994 0 1 C0 0.67 0 0.34 0 0 Z " fill="#808080" transform="translate(1029,1990)"/>
<path d="M0 0 C0 0.33 0 0.66 0 1 C-0.5788092 1.05962418 -1.15761841 1.11924835 -1.75396729 1.18067932 C-117.99822164 10.92641755 -117.99822164 10.92641755 -224.37109375 54.56640625 C-227.21096945 56.11504575 -228.81982582 56.31744025 -232 56 C-194.32423848 12.76774128 -85.59341038 8.38848933 -31.25 2.125 C-30.31043457 2.01540955 -29.37086914 1.90581909 -28.40283203 1.79290771 C-9.33650869 -0.41166739 -9.33650869 -0.41166739 0 0 Z " fill="#808080" transform="translate(761,1992)"/>
<path d="M0 0 C1.87263501 -0.00067713 3.74526994 -0.00165051 5.61790466 -0.00289917 C9.50431166 -0.0043566 13.39069536 -0.00228537 17.27709961 0.00244141 C22.19686772 0.00814147 27.11658126 0.00484526 32.03634739 -0.00113106 C35.89137668 -0.00478672 39.74639355 -0.00357548 43.60142326 -0.00100327 C45.41305485 -0.00034796 47.22468767 -0.00111197 49.03631783 -0.00348282 C58.51922323 -0.01317873 67.97595799 0.12137595 77.44897461 0.57861328 C78.67479799 0.63669568 78.67479799 0.63669568 79.92538548 0.69595146 C84.54477705 0.94202358 89.05221003 1.40634362 93.62109375 2.1328125 C93.62109375 2.4628125 93.62109375 2.7928125 93.62109375 3.1328125 C48.41109375 3.1328125 3.20109375 3.1328125 -43.37890625 3.1328125 C-41.03077743 0.78468368 -40.49850672 0.85538679 -37.30628967 0.72341919 C-36.05264822 0.6663168 -36.05264822 0.6663168 -34.77368069 0.60806084 C-33.86747006 0.57771814 -32.96125944 0.54737545 -32.02758789 0.51611328 C-31.08596581 0.47851458 -30.14434374 0.44091587 -29.17418766 0.40217781 C-19.44995197 0.04281546 -9.72968809 -0.01274975 0 0 Z " fill="#A5A5A5" transform="translate(884.37890625,1964.8671875)"/>
<path d="M0 0 C4.42667129 0.0104863 8.85334901 0.01485003 13.2800293 0.01983643 C21.86663446 0.03035728 30.45320996 0.04727364 39.03979492 0.06866455 C35.48184217 2.44063305 33.89883859 2.33902904 29.67358398 2.38751221 C29.03043747 2.39755783 28.38729095 2.40760345 27.72465515 2.41795349 C25.58491863 2.44895587 23.44531142 2.46591688 21.30541992 2.48272705 C19.79212449 2.50149039 18.27883896 2.52106739 16.76556396 2.54141235 C12.75305424 2.59291526 8.74050824 2.63233021 4.72784424 2.66955566 C1.55144711 2.70096577 -1.62481494 2.74077776 -4.80110931 2.78111649 C-14.85393283 2.90871615 -24.90680779 3.00086811 -34.96020508 3.06866455 C-35.71695526 3.07389633 -36.47370544 3.07912811 -37.25338745 3.08451843 C-41.64805454 3.11389839 -46.04266643 3.13613974 -50.43741608 3.14823532 C-52.42278677 3.15443638 -54.4081422 3.16503323 -56.39349365 3.17575073 C-58.17883514 3.1776088 -58.17883514 3.1776088 -60.00024414 3.17950439 C-61.03570374 3.18235443 -62.07116333 3.18520447 -63.13800049 3.18814087 C-65.85145247 3.07326853 -68.31863249 2.68087857 -70.96020508 2.06866455 C-70.96020508 1.73866455 -70.96020508 1.40866455 -70.96020508 1.06866455 C-47.29973505 0.16805847 -23.67574828 -0.06234599 0 0 Z " fill="#8D8D8D" transform="translate(906.960205078125,1982.9313354492188)"/>
<path d="M0 0 C0 0.66 0 1.32 0 2 C-3.9829937 2.43266727 -7.96655073 2.85968625 -11.95068359 3.28173828 C-13.3027331 3.42573784 -14.65462628 3.57121391 -16.00634766 3.71826172 C-23.02723913 4.48106367 -29.93380519 5.21631209 -37 5 C-36.67 4.34 -36.34 3.68 -36 3 C-32.06234394 2.00747714 -28.02120284 1.54680616 -24 1 C-23.16597656 0.88527344 -22.33195313 0.77054688 -21.47265625 0.65234375 C-14.32703714 -0.19181425 -7.18559154 -0.0931849 0 0 Z " fill="#9A9A9A" transform="translate(725,1974)"/>
<path d="M0 0 C-3.2751743 3.2751743 -6.62619179 3.1271059 -11.10546875 3.1328125 C-12.58176758 3.13474609 -12.58176758 3.13474609 -14.08789062 3.13671875 C-15.11076172 3.13285156 -16.13363281 3.12898438 -17.1875 3.125 C-18.19103516 3.12886719 -19.19457031 3.13273437 -20.22851562 3.13671875 C-26.23419898 3.12890394 -32.04472008 2.7791955 -38 2 C-38 1.67 -38 1.34 -38 1 C-12.23623663 -0.19388403 -12.23623663 -0.19388403 0 0 Z " fill="#ABABAB" transform="translate(843,1966)"/>
<path d="M0 0 C12.6858203 -0.20100772 25.33105335 0.41292532 38 1 C38 1.33 38 1.66 38 2 C31.51650193 3.18135474 25.13785493 3.11322974 18.5625 3.0625 C17.44939453 3.05798828 16.33628906 3.05347656 15.18945312 3.04882812 C12.45957899 3.03711193 9.72981826 3.02070699 7 3 C7 2.34 7 1.68 7 1 C4.69 1 2.38 1 0 1 C0 0.67 0 0.34 0 0 Z " fill="#AEAEAE" transform="translate(971,1966)"/>
<path d="M0 0 C3.16658663 -0.05880804 6.33302993 -0.09386406 9.5 -0.125 C10.386875 -0.14175781 11.27375 -0.15851563 12.1875 -0.17578125 C17.82323788 -0.2172205 22.59300232 0.39558714 28 2 C28 2.33 28 2.66 28 3 C18.60644064 3.14256667 9.35927791 2.72492332 0 2 C0 1.34 0 0.68 0 0 Z " fill="#8F8F8F" transform="translate(1038,1970)"/>
<path d="M0 0 C13.86 0.495 13.86 0.495 28 1 C26 3 26 3 23.84521484 3.22705078 C22.97590332 3.21657715 22.1065918 3.20610352 21.2109375 3.1953125 C20.26992188 3.18886719 19.32890625 3.18242188 18.359375 3.17578125 C17.37453125 3.15902344 16.3896875 3.14226562 15.375 3.125 C14.38242187 3.11597656 13.38984375 3.10695313 12.3671875 3.09765625 C9.91121866 3.07404116 7.45572832 3.04110799 5 3 C5 2.34 5 1.68 5 1 C3.35 1 1.7 1 0 1 C0 0.67 0 0.34 0 0 Z " fill="#8E8E8E" transform="translate(971,1984)"/>
<path d="M0 0 C-2.45000738 2.88704861 -2.85168137 2.9863294 -6.94140625 3.36328125 C-8.48186327 3.36195441 -10.02237384 3.34445282 -11.5625 3.3125 C-12.34302734 3.31572266 -13.12355469 3.31894531 -13.92773438 3.32226562 C-19.73283019 3.26716981 -19.73283019 3.26716981 -22 1 C-19.27093526 0.83150207 -16.54176829 0.6651397 -13.8125 0.5 C-13.04357422 0.45230469 -12.27464844 0.40460938 -11.48242188 0.35546875 C-7.648496 0.12510411 -3.84309823 -0.0616128 0 0 Z " fill="#8E8E8E" transform="translate(820,1985)"/>
<path d="M0 0 C1.76923828 0.01353516 1.76923828 0.01353516 3.57421875 0.02734375 C4.47785156 0.03894531 5.38148438 0.05054688 6.3125 0.0625 C6.3125 0.7225 6.3125 1.3825 6.3125 2.0625 C-2.1025 2.5575 -2.1025 2.5575 -10.6875 3.0625 C-8.63221196 -1.04807609 -4.03316787 -0.03993236 0 0 Z " fill="#8D8D8D" transform="translate(698.6875,1975.9375)"/>
<path d="M0 0 C-0.99 0.495 -0.99 0.495 -2 1 C-2 1.66 -2 2.32 -2 3 C-4.08304538 3.05418326 -6.16649768 3.09287551 -8.25 3.125 C-9.99023438 3.15980469 -9.99023438 3.15980469 -11.765625 3.1953125 C-14.82786046 3.0103949 -16.44202751 2.60823023 -19 1 C-12.65333314 0.41639845 -6.37625222 -0.14491482 0 0 Z " fill="#ACACAC" transform="translate(763,1970)"/>
<path d="M0 0 C5.94 0.33 11.88 0.66 18 1 C13.89441282 3.05279359 12.19793315 3.2216942 7.75 3.125 C6.67234375 3.10695313 5.5946875 3.08890625 4.484375 3.0703125 C3.25460937 3.03550781 3.25460937 3.03550781 2 3 C2 2.34 2 1.68 2 1 C1.34 0.67 0.68 0.34 0 0 Z " fill="#ABABAB" transform="translate(1064,1971)"/>
</svg>
