<?xml version="1.0" encoding="utf-8"?>
<!-- Generator: Adobe Illustrator 15.0.0, SVG Export Plug-In . SVG Version: 6.00 Build 0)  -->
<!DOCTYPE svg PUBLIC "-//W3C//DTD SVG 1.1//EN" "http://www.w3.org/Graphics/SVG/1.1/DTD/svg11.dtd">
<svg version="1.1" id="layer_1" xmlns="http://www.w3.org/2000/svg" xmlns:xlink="http://www.w3.org/1999/xlink" x="0px"
	 y="0px" width="20px" height="20px" viewBox="0 0 20 20" enable-background="new 0 0 20 20" xml:space="preserve">
<g>
	<path fill="#4C97FF" d="M13.547,5.536c0.275,0,0.659,0.159,0.854,0.354l2.799,2.799c0.194,0.194,0.194,0.513,0,0.707l-3.027,3.028
		c-0.194,0.194-0.513,0.513-0.707,0.707l-3.028,3.027c-0.194,0.194-0.513,0.194-0.707,0l-3.028-3.027
		c-0.194-0.194-0.513-0.513-0.707-0.707L2.967,9.396c-0.194-0.194-0.194-0.513,0-0.707l2.802-2.802
		c0.194-0.194,0.579-0.354,0.854-0.354L13.547,5.536z"/>
</g>
<path fill="none" stroke="#000000" stroke-miterlimit="10" d="M14.013,8.109"/>
<path fill="none" stroke="#000000" stroke-miterlimit="10" d="M5.7,8.109"/>
</svg>
