<?xml version="1.0" encoding="UTF-8" standalone="no"?>
<svg
   xmlns:dc="http://purl.org/dc/elements/1.1/"
   xmlns:cc="http://creativecommons.org/ns#"
   xmlns:rdf="http://www.w3.org/1999/02/22-rdf-syntax-ns#"
   xmlns:svg="http://www.w3.org/2000/svg"
   xmlns="http://www.w3.org/2000/svg"
   xmlns:sodipodi="http://sodipodi.sourceforge.net/DTD/sodipodi-0.dtd"
   xmlns:inkscape="http://www.inkscape.org/namespaces/inkscape"
   inkscape:version="1.0 (4035a4f, 2020-05-01)"
   sodipodi:docname="icon--save.svg"
   xml:space="preserve"
   style="enable-background:new 0 0 512 512;"
   viewBox="0 0 512 512"
   y="0px"
   x="0px"
   id="Capa_1"
   version="1.1"><metadata
   id="metadata898"><rdf:RDF><cc:Work
       rdf:about=""><dc:format>image/svg+xml</dc:format><dc:type
         rdf:resource="http://purl.org/dc/dcmitype/StillImage" /><dc:title></dc:title></cc:Work></rdf:RDF></metadata><defs
   id="defs896" /><sodipodi:namedview
   inkscape:current-layer="Capa_1"
   inkscape:window-maximized="0"
   inkscape:window-y="23"
   inkscape:window-x="0"
   inkscape:cy="256"
   inkscape:cx="256"
   inkscape:zoom="1.390625"
   showgrid="false"
   id="namedview894"
   inkscape:window-height="1152"
   inkscape:window-width="1628"
   inkscape:pageshadow="2"
   inkscape:pageopacity="0"
   guidetolerance="10"
   gridtolerance="10"
   objecttolerance="10"
   borderopacity="1"
   bordercolor="#666666"
   pagecolor="#ffffff" />
<g
   transform="matrix(0.5625,0,0,0.5625,112,112)"
   style="fill:#0096ff;fill-opacity:1"
   id="g837">
	<g
   style="fill:#0096ff;fill-opacity:1"
   id="g835">
		<path
   style="fill:#0096ff;fill-opacity:1"
   id="path833"
   d="M 346,422 H 166 c -8.284,0 -15,6.716 -15,15 0,8.284 6.716,15 15,15 h 180 c 8.284,0 15,-6.716 15,-15 0,-8.284 -6.716,-15 -15,-15 z" />
	</g>
</g>
<g
   transform="matrix(0.5625,0,0,0.5625,112,112)"
   style="fill:#0096ff;fill-opacity:1"
   id="g843">
	<g
   style="fill:#0096ff;fill-opacity:1"
   id="g841">
		<path
   style="fill:#0096ff;fill-opacity:1"
   id="path839"
   d="M 346,302 H 166 c -8.284,0 -15,6.716 -15,15 0,8.284 6.716,15 15,15 h 180 c 8.284,0 15,-6.716 15,-15 0,-8.284 -6.716,-15 -15,-15 z" />
	</g>
</g>
<g
   transform="matrix(0.5625,0,0,0.5625,112,112)"
   style="fill:#0096ff;fill-opacity:1"
   id="g849">
	<g
   style="fill:#0096ff;fill-opacity:1"
   id="g847">
		<path
   style="fill:#0096ff;fill-opacity:1"
   id="path845"
   d="M 346,362 H 166 c -8.284,0 -15,6.716 -15,15 0,8.284 6.716,15 15,15 h 180 c 8.284,0 15,-6.716 15,-15 0,-8.284 -6.716,-15 -15,-15 z" />
	</g>
</g>
<g
   transform="matrix(0.5625,0,0,0.5625,112,112)"
   style="fill:#0096ff;fill-opacity:1"
   id="g855">
	<g
   style="fill:#0096ff;fill-opacity:1"
   id="g853">
		<rect
   y="0"
   style="fill:#0096ff;fill-opacity:1"
   id="rect851"
   height="130"
   width="210"
   x="121" />
	</g>
</g>
<g
   transform="matrix(0.5625,0,0,0.5625,112,112)"
   style="fill:#0096ff;fill-opacity:1"
   id="g861">
	<g
   style="fill:#0096ff;fill-opacity:1"
   id="g859">
		<path
   style="fill:#0096ff;fill-opacity:1"
   id="path857"
   d="m 507.606,84.394 -80,-80 C 424.793,1.581 420.978,0 417,0 h -56 v 145 c 0,8.284 -6.716,15 -15,15 H 106 c -8.284,0 -15,-6.716 -15,-15 V 0 H 15 C 6.716,0 0,6.716 0,15 v 482 c 0,8.284 6.716,15 15,15 4.645,0 475.762,0 482,0 8.284,0 15,-6.716 15,-15 V 95 c 0,-3.978 -1.581,-7.793 -4.394,-10.606 z M 391,482 H 121 V 272 h 270 z" />
	</g>
</g>
<g
   transform="matrix(0.5625,0,0,0.5625,112,112)"
   id="g863">
</g>
<g
   transform="matrix(0.5625,0,0,0.5625,112,112)"
   id="g865">
</g>
<g
   transform="matrix(0.5625,0,0,0.5625,112,112)"
   id="g867">
</g>
<g
   transform="matrix(0.5625,0,0,0.5625,112,112)"
   id="g869">
</g>
<g
   transform="matrix(0.5625,0,0,0.5625,112,112)"
   id="g871">
</g>
<g
   transform="matrix(0.5625,0,0,0.5625,112,112)"
   id="g873">
</g>
<g
   transform="matrix(0.5625,0,0,0.5625,112,112)"
   id="g875">
</g>
<g
   transform="matrix(0.5625,0,0,0.5625,112,112)"
   id="g877">
</g>
<g
   transform="matrix(0.5625,0,0,0.5625,112,112)"
   id="g879">
</g>
<g
   transform="matrix(0.5625,0,0,0.5625,112,112)"
   id="g881">
</g>
<g
   transform="matrix(0.5625,0,0,0.5625,112,112)"
   id="g883">
</g>
<g
   transform="matrix(0.5625,0,0,0.5625,112,112)"
   id="g885">
</g>
<g
   transform="matrix(0.5625,0,0,0.5625,112,112)"
   id="g887">
</g>
<g
   transform="matrix(0.5625,0,0,0.5625,112,112)"
   id="g889">
</g>
<g
   transform="matrix(0.5625,0,0,0.5625,112,112)"
   id="g891">
</g>
</svg>
