/*This is the svg file of the icon designed for the scratch text tab*/

<?xml version="1.0" encoding="UTF-8" standalone="no"?>
<svg version="1.1" xmlns="http://www.w3.org/2000/svg" xmlns:xlink="http://www.w3.org/1999/xlink" preserveAspectRatio="xMidYMid meet" viewBox="258.00000000000006 182.0419631728471 16 15.89999999999992" width="12" height="11.9"><defs><path d="M270.71 186.45C270.51 186.65 270.64 186.52 270.44 186.72C270.03 187.11 269.38 187.13 268.96 186.75C268.41 186.26 267.52 185.47 266.97 184.98C266.56 184.62 266.55 183.99 266.94 183.61C267.14 183.42 267.02 183.54 267.22 183.35C267.63 182.95 268.27 182.94 268.7 183.32C269.25 183.8 270.14 184.59 270.69 185.08C271.09 185.44 271.11 186.07 270.71 186.45Z" id="aqQLgGSZl"></path><path d="M267.79 189.22C267.01 189.99 265.85 191.13 265.07 191.9C264.41 192.56 263.35 192.59 262.65 191.98C262.19 191.59 262.07 191.48 261.61 191.09C260.94 190.5 260.91 189.47 261.54 188.84C262.32 188.07 263.47 186.93 264.25 186.16C264.91 185.5 265.97 185.47 266.68 186.08C267.13 186.47 267.25 186.58 267.71 186.97C268.39 187.56 268.42 188.59 267.79 189.22Z" id="czD6cZBSv"></path><path d="M260.85 194.33L260.22 193.76L259.58 193.2L259.29 194.07L259 194.94L259.93 194.64L260.85 194.33Z" id="c1BBki2R9D"></path><path d="M260.78 190.06L259.86 193.53L259.49 193.43L260.41 189.96L260.78 190.06Z" id="b3B2h6628K"></path><path d="M263.73 193.26L260.36 194.49L260.23 194.13L263.6 192.89L263.73 193.26Z" id="b9MnLmMlpe"></path><path d="M265.07 191.91L263.71 193.27L260.4 189.96L261.76 188.61L265.07 191.91Z" id="cAzXbgxOb"></path></defs><g><g><use xlink:href="#aqQLgGSZl" opacity="1" fill="#4C97FF" fill-opacity="1"></use><g><use xlink:href="#aqQLgGSZl" opacity="1" fill-opacity="0" stroke="#000000" stroke-width="1" stroke-opacity="0"></use></g></g><g><use xlink:href="#czD6cZBSv" opacity="1" fill="#4C97FF" fill-opacity="1"></use><g><use xlink:href="#czD6cZBSv" opacity="1" fill-opacity="0" stroke="#000000" stroke-width="1" stroke-opacity="0"></use></g></g><g><use xlink:href="#c1BBki2R9D" opacity="1" fill="#4C97FF" fill-opacity="1"></use><g><use xlink:href="#c1BBki2R9D" opacity="1" fill-opacity="0" stroke="#000000" stroke-width="1" stroke-opacity="0"></use></g></g><g><use xlink:href="#b3B2h6628K" opacity="1" fill="#4C97FF" fill-opacity="1"></use><g><use xlink:href="#b3B2h6628K" opacity="1" fill-opacity="0" stroke="#000000" stroke-width="1" stroke-opacity="0"></use></g></g><g><use xlink:href="#b9MnLmMlpe" opacity="1" fill="#4C97FF" fill-opacity="1"></use><g><use xlink:href="#b9MnLmMlpe" opacity="1" fill-opacity="0" stroke="#000000" stroke-width="1" stroke-opacity="0"></use></g></g><g><use xlink:href="#cAzXbgxOb" opacity="1" fill="#4C97FF" fill-opacity="1"></use><g><use xlink:href="#cAzXbgxOb" opacity="1" fill-opacity="0" stroke="#000000" stroke-width="1" stroke-opacity="0"></use></g></g></g></svg>