<svg width="20" height="20" xmlns="http://www.w3.org/2000/svg" xmlns:xlink="http://www.w3.org/1999/xlink"><defs><path d="M4.548 7h10.904a.5.5 0 0 1 .498.545l-.785 8.635A2 2 0 0 1 13.174 18H6.827a2 2 0 0 1-1.992-1.82L4.05 7.546A.5.5 0 0 1 4.548 7zm2.785-3 .553-1.658A.5.5 0 0 1 8.36 2h3.28a.5.5 0 0 1 .474.342L12.667 4H16.5a.5.5 0 0 1 .5.5v1a.5.5 0 0 1-.5.5h-13a.5.5 0 0 1-.5-.5v-1a.5.5 0 0 1 .5-.5h3.833zm1.054 0h3.226l-.334-1H8.721l-.334 1zM10 11.72l1.595-1.595a.5.5 0 0 1 .707 0l.073.073a.5.5 0 0 1 0 .707L10.78 12.5l1.595 1.595a.5.5 0 0 1 0 .707l-.073.073a.5.5 0 0 1-.707 0L10 13.28l-1.595 1.595a.5.5 0 0 1-.707 0l-.073-.073a.5.5 0 0 1 0-.707L9.22 12.5l-1.595-1.595a.5.5 0 0 1 0-.707l.073-.073a.5.5 0 0 1 .707 0L10 11.72z" id="a"/></defs><g fill="none" fill-rule="evenodd"><mask id="b" fill="#fff"><use xlink:href="#a"/></mask><g mask="url(#b)" fill="#FFF"><path d="M0 0h20v20H0z"/></g></g></svg>