<svg width="20" height="20" xmlns="http://www.w3.org/2000/svg"><path d="m14.73 8.779-4.253 4.264a.619.619 0 0 1-.89 0L5.336 8.779A.63.63 0 0 1 5.788 7.7h2.117l1.263-5.016a.912.912 0 0 1 1.106-.656.89.89 0 0 1 .668.656L12.206 7.7h2.072c.559 0 .856.67.451 1.078zM18 11.812v2.579C18 16.375 16.395 18 14.417 18H5.6A3.607 3.607 0 0 1 2 14.39v-2.578a1.17 1.17 0 1 1 2.337 0v2.579A1.27 1.27 0 0 0 5.6 15.656h8.817c.686 0 1.246-.578 1.246-1.265v-2.579c0-.656.53-1.172 1.169-1.172.654 0 1.168.516 1.168 1.172z" fill="#FFF" fill-rule="evenodd"/></svg>