<svg id="Layer_3" data-name="Layer 3" xmlns="http://www.w3.org/2000/svg" viewBox="0 0 20 20"><defs><style>.cls-1{fill:#cf63cf;}</style></defs><title>Artboard 1</title><path class="cls-1" d="M1.9,18.78c-.5-.42-.51-.7,0-1.18l8.52-8.5a3.49,3.49,0,0,1,.41-.34L9.34,8.3c-.27-.08-.56-.21-.54-.5a1,1,0,0,1,.35-.65,16.1,16.1,0,0,1,1.43-1,.61.61,0,0,0,.3-.63,17.2,17.2,0,0,1,0-1.76,1.08,1.08,0,0,1,.31-.63c.22-.19.48-.06.69.1.48.36,1,.71,1.44,1.08A.59.59,0,0,0,14,4.4c.57-.22,1.16-.39,1.73-.59.27-.1.54-.1.68.14a.92.92,0,0,1,.1.65c-.16.61-.4,1.19-.57,1.79a.66.66,0,0,0,.08.53c.34.51.74,1,1.08,1.49a1,1,0,0,1,.13.68c-.07.3-.37.35-.65.34-.6,0-1.2,0-1.8,0a.58.58,0,0,0-.56.29c-.33.5-.69,1-1,1.47-.16.23-.39.44-.66.32A1.06,1.06,0,0,1,12,11c-.18-.43-.29-.9-.54-1.44a2.65,2.65,0,0,1-.25.37L2.85,18.27c-.18.18-.37.34-.55.51Z"/><path class="cls-1" d="M8.22,1.23A2.17,2.17,0,0,0,9.51,2.52,2.07,2.07,0,0,0,8.22,3.91,1.9,1.9,0,0,0,6.84,2.54,2.19,2.19,0,0,0,8.22,1.23Z"/><path class="cls-1" d="M18.3.33a2.16,2.16,0,0,0,1.3,1.29A2.07,2.07,0,0,0,18.31,3a1.91,1.91,0,0,0-1.38-1.38A2.13,2.13,0,0,0,18.3.33Z"/><path class="cls-1" d="M17.56,11a2.12,2.12,0,0,0,1.29,1.28,2.11,2.11,0,0,0-1.29,1.4,1.91,1.91,0,0,0-1.38-1.38A2.18,2.18,0,0,0,17.56,11Z"/></svg>