<svg xmlns="http://www.w3.org/2000/svg" xmlns:xlink="http://www.w3.org/1999/xlink" version="1.1" x="0px" y="0px" viewBox="0 0 100 100" style="enable-background:new 0 0 100 100;" xml:space="preserve"><g><path fill="#CF63CF" d="M84.5,50.5h-4v1C76.8,39.9,66,32,53.8,32h-2v-8.2c4.3-1,7-5.3,6-9.6c-1-4.3-5.3-7-9.6-6s-7,5.3-6,9.6   c0.7,2.8,2.8,5.1,5.6,5.9V32h-2C34,32,23.5,39.4,19.5,50.5h-4c-3.9,0-7,3.1-7,7v9c0,3.9,3.1,7,7,7h2.3V80c0,6.6,5.4,12,12,12h40   c6.6,0,12-5.4,12-12v-6.5h2.7c3.9,0,7-3.1,7-7v-9C91.5,53.6,88.4,50.5,84.5,50.5z M46,16c0-2.2,1.8-4,4-4s4,1.8,4,4s-1.8,4-4,4   S46,18.2,46,16z M15.5,69.5c-1.7,0-3-1.3-3-3v-9c0-1.7,1.3-3,3-3h2.9c-0.4,1.8-0.5,3.7-0.5,5.5v9.5H15.5z M62.8,88h-11V75h7   c2.2,0,4,1.8,4,4V88z M47.8,88h-11v-9c0-2.2,1.8-4,4-4h7V88z M77.8,80c0,4.4-3.6,8-8,8h-3v-9c0-4.4-3.6-8-8-8h-18c-4.4,0-8,3.6-8,8   v9h-3c-4.4,0-8-3.6-8-8V60c0-13.3,10.7-24,24-24h8c13.3,0,24,10.7,24,24V80z M87.5,66.5c0,1.7-1.3,3-3,3h-2.7V60   c0-1.8-0.2-3.7-0.6-5.5h3.2c1.7,0,3,1.3,3,3V66.5z"/><path fill="#CF63CF" d="M39,47c-4.4,0-8,3.6-8,8s3.6,8,8,8s8-3.6,8-8S43.4,47,39,47z M39,59c-2.2,0-4-1.8-4-4s1.8-4,4-4   s4,1.8,4,4S41.2,59,39,59z"/><path fill="#CF63CF" d="M61,47c-4.4,0-8,3.6-8,8s3.6,8,8,8s8-3.6,8-8S65.4,47,61,47z M61,59c-2.2,0-4-1.8-4-4s1.8-4,4-4   s4,1.8,4,4S63.2,59,61,59z"/></g></svg>
