<?xml version="1.0" encoding="utf-8"?>
<!-- Generator: Adobe Illustrator 21.0.2, SVG Export Plug-In . SVG Version: 6.00 Build 0)  -->
<svg version="1.1" id="Layer_1" xmlns="http://www.w3.org/2000/svg" xmlns:xlink="http://www.w3.org/1999/xlink" x="0px" y="0px"
	 viewBox="0 0 300 300" enable-background="new 0 0 300 300" xml:space="preserve">
<g>
	<polygon fill="#999999" points="148.7,59.1 68,30.6 68,206.1 148.7,180 	"/>
	<polygon fill="#FFFFFF" points="146.7,59 230.5,30.5 230.5,206 146.7,180 	"/>
	<polygon fill="#FFFFFF" points="47.1,236.9 146.7,203.7 146.7,58.9 47.1,92.2 	"/>
	<polygon fill="#999999" points="192.1,239.1 206.2,262.3 213.7,240.7 	"/>
	<g>
		<path fill="#999999" d="M81,108.8c-0.5-0.5,0.7,4.2,2.4,6c3,3,5.4,3.4,6.6,3.5c2.8,0.1,6.2-0.7,8.2-1.5c2-0.8,5.4-2.6,6.7-5.2
			c0.3-0.5,1-1.5,0.6-3.7c-0.4-1.7-1.5-2.4-2.8-2.3c-1.4,0.1-5.5,1.2-7.4,1.8c-2,0.6-6.1,1.8-7.9,2.2C85.5,110,81.6,109.4,81,108.8z
			"/>
		<path fill="#999999" d="M131.2,165.8c-0.8-0.3-17-7-19.3-8.1c-1.9-0.9-6.5-2.9-8.7-3.7c6.1-9.4,10-16.6,10.5-17.7
			c1-2,7.4-14.7,7.6-15.4c0.1-0.8,0.3-3.7,0.2-4.4c-0.1-0.7-2.5,0.7-5.7,1.7c-3.2,1.1-9.4,5.1-11.7,5.6c-2.4,0.5-10,3.4-13.9,4.7
			c-3.9,1.3-11.3,3.5-14.3,4.4c-3,0.8-5.7,0.9-7.4,1.4c0,0,0.2,2.4,0.7,3.1c0.4,0.7,2.1,2.5,3.9,2.9c1.9,0.5,5,0.3,6.4,0
			c1.4-0.3,3.8-1.5,4.2-2c0.3-0.5-0.2-2.2,0.4-2.6c0.6-0.5,8-2.2,10.8-3.1c2.8-0.9,13.5-4.6,15-4.4c-0.5,1.5-9.1,18.6-11.9,23.7
			c-2.8,5.1-18.9,27.5-22.3,31.4c-2.6,3-8.9,10.7-11.1,12.4c0.6,0.2,4.5-0.2,5.2-0.6c4.4-2.7,11.8-11.9,14.2-14.7
			c7.1-8.3,13.3-17,18.2-24.5h0c1,0.4,8.7,6.7,10.8,8.1c2,1.4,10,5.9,11.8,6.6c1.7,0.7,8.4,3.8,8.7,2.8
			C133.5,172.2,132,166.1,131.2,165.8z"/>
	</g>
	<path fill-rule="evenodd" clip-rule="evenodd" fill="#999999" d="M93.7,250.4c1.6,1,3,1.7,4.7,2.5c3.3,1.6,7,3.4,10.5,4.7
		c4.8,1.8,9.7,3.3,14.5,4.4c2.7,0.6,5.6,1.1,8.5,1.6c0.3,0,8,1,9.5,1h7.8c3-0.3,5.9-0.4,8.9-0.9c2.4-0.3,5.1-0.8,7.7-1.4
		c1.9-0.4,3.9-0.9,5.8-1.5c1.8-0.5,3.9-1.2,5.9-1.9c1.3-0.4,2.7-1,4.1-1.6c1.1-0.5,2.5-1.1,3.8-1.6c1.6-0.7,3.4-1.6,5.1-2.5
		c1.4-0.7,2.9-1.6,4.4-2.4c1.1-0.6,3.7-2.6,5.1-2.6c1.6,0,2.6,1.4,2.6,2.6c0,2.5-3.4,3.3-4.9,4.4c-1.6,1.1-3.6,2-5.4,2.9
		c-3.5,1.8-7,3.4-10.4,4.7c-4.4,1.6-9.3,3.2-13.6,4.2c-1.6,0.3-3.3,0.8-4.9,1c-0.9,0.2-9.9,1.6-12.4,1.6h-11.4c-3-0.3-6.2-0.6-9.3-1
		c-2.7-0.4-5.5-1-8.2-1.6c-2.1-0.4-4.3-1-6.3-1.6c-3.5-1-6.8-2.2-10.1-3.5c-6-2.2-12.2-5.2-18.1-9.1c-1-0.7-1.1-1.4-1.1-2.2
		c0-1.3,1-2.5,2.5-2.5C90.4,248.2,93.2,250.1,93.7,250.4z"/>
	<path fill-rule="evenodd" clip-rule="evenodd" fill="#999999" d="M144,201.7l-94.3,31.4v-139L144,62.7V201.7z M149.3,58.6v145.3
		c-0.1,0.4-0.3,0.9-0.6,1.3c-0.2,0.3-0.5,0.6-0.8,0.7c-2.2,0.9-99.5,33.6-100.8,33.6c-1,0-2-0.7-2.5-1.8c0-0.1-0.1-0.2-0.1-0.3V91.9
		c0.2-0.4,0.3-1,0.6-1.4c0.7-1,1.9-1.1,2.7-1.4c1.5-0.5,97.4-32.7,98.8-32.7C147.4,56.4,149.3,57.1,149.3,58.6z"/>
	<path fill-rule="evenodd" clip-rule="evenodd" fill="#999999" d="M227.8,202.4L149.4,178V60.9l78.4-26.6V202.4z M233.1,30.8v174.9
		c-0.1,2-1.5,2.9-2.8,2.9c-1.1,0-9.3-2.8-10.6-3.2c-10.9-3.4-21.9-6.7-32.7-10.1c-2.4-0.8-4.9-1.6-7.3-2.3c-2.1-0.6-4.3-1.3-6.4-2
		c-9.3-2.9-18.7-5.7-27.9-8.8c-0.3-0.1-1.2-1.3-1.2-1.6V58.4c0.2-0.4,0.3-1,0.8-1.3c0.7-0.8,30.4-10.6,42-14.5
		c3.1-1.1,42.1-14.5,43.3-14.5C231.9,28,233.1,29.1,233.1,30.8z"/>
	<polygon fill="#999999" points="253,239.1 148.2,205.7 148.7,60.3 253,93.5 	"/>
	<g>
		<path fill-rule="evenodd" clip-rule="evenodd" fill="#FFFFFF" d="M200.2,125.2l-10.3,24.9l18.9,5.7L200.2,125.2z M194,101.8
			l13.5,4.1l24.6,88.6l-13.9-4.2l-5-18.2l-28.7-8.7l-6.2,14.8l-13.9-4.2L194,101.8z"/>
	</g>
</g>
<g>
</g>
<g>
</g>
<g>
</g>
<g>
</g>
<g>
</g>
<g>
</g>
<g>
</g>
<g>
</g>
<g>
</g>
<g>
</g>
<g>
</g>
<g>
</g>
<g>
</g>
<g>
</g>
<g>
</g>
</svg>
