<svg xmlns="http://www.w3.org/2000/svg" xmlns:xlink="http://www.w3.org/1999/xlink" viewBox="0 -10 70 70" version="1.1" x="0px" y="0px"><title>061-Reverse</title><desc>Created with Sketch.</desc><g stroke="none" stroke-width="1" fill="none" fill-rule="evenodd"><g fill="#CF63CF"><path d="M14.9313,24.6594 C14.9063,24.5904 14.8673,24.5324 14.8283,24.4714 C14.8033,24.4334 14.7933,24.3904 14.7633,24.3544 C14.7543,24.3444 14.7413,24.3404 14.7323,24.3304 C14.6823,24.2754 14.6213,24.2364 14.5603,24.1934 C14.5133,24.1614 14.4703,24.1224 14.4193,24.0984 C14.3643,24.0734 14.3033,24.0644 14.2433,24.0494 C14.1753,24.0314 14.1113,24.0114 14.0423,24.0084 C14.0273,24.0074 14.0153,24.0004 14.0003,24.0004 C13.9503,24.0004 13.9073,24.0214 13.8593,24.0284 C13.7913,24.0384 13.7253,24.0444 13.6603,24.0684 C13.5923,24.0934 13.5353,24.1314 13.4753,24.1704 C13.4353,24.1944 13.3903,24.2054 13.3543,24.2364 L0.3543,35.2364 C0.3313,35.2554 0.3213,35.2834 0.3003,35.3034 C0.2813,35.3234 0.2553,35.3324 0.2373,35.3544 C0.2113,35.3844 0.2033,35.4224 0.1813,35.4544 C0.1433,35.5124 0.1093,35.5684 0.0843,35.6314 C0.0603,35.6914 0.0453,35.7494 0.0333,35.8124 C0.0213,35.8754 0.0123,35.9354 0.0123,36.0004 C0.0123,36.0644 0.0213,36.1244 0.0333,36.1884 C0.0453,36.2504 0.0603,36.3094 0.0843,36.3684 C0.1093,36.4314 0.1433,36.4884 0.1813,36.5454 C0.2033,36.5774 0.2113,36.6154 0.2373,36.6454 C0.2533,36.6654 0.2783,36.6724 0.2963,36.6904 C0.3183,36.7134 0.3293,36.7424 0.3543,36.7634 L13.3543,47.7634 C13.4023,47.8044 13.4583,47.8244 13.5113,47.8544 C13.5533,47.8784 13.5903,47.9084 13.6363,47.9264 C13.7543,47.9724 13.8763,48.0004 13.9993,48.0004 L13.9993,48.0004 L14.0003,48.0004 C14.1433,48.0004 14.2783,47.9674 14.4013,47.9134 C14.4303,47.9004 14.4533,47.8754 14.4813,47.8594 C14.5753,47.8064 14.6613,47.7474 14.7333,47.6684 C14.7423,47.6584 14.7553,47.6554 14.7633,47.6454 C14.7933,47.6104 14.8033,47.5664 14.8283,47.5284 C14.8673,47.4674 14.9063,47.4094 14.9313,47.3404 C14.9553,47.2734 14.9623,47.2064 14.9723,47.1364 C14.9793,47.0904 15.0003,47.0484 15.0003,47.0004 L15.0003,25.0004 C15.0003,24.9514 14.9793,24.9094 14.9723,24.8634 C14.9623,24.7934 14.9553,24.7264 14.9313,24.6594"/><path d="M45.0688,23.3406 C45.0938,23.4096 45.1328,23.4676 45.1718,23.5276 C45.1968,23.5666 45.2068,23.6096 45.2368,23.6456 C45.2448,23.6556 45.2578,23.6586 45.2668,23.6676 C45.3388,23.7466 45.4248,23.8066 45.5188,23.8596 C45.5468,23.8756 45.5698,23.9006 45.5988,23.9136 C45.7218,23.9676 45.8568,23.9996 45.9998,23.9996 L45.9998,23.9996 L46.0008,23.9996 C46.1238,23.9996 46.2458,23.9726 46.3638,23.9266 C46.4098,23.9086 46.4468,23.8786 46.4888,23.8546 C46.5418,23.8246 46.5978,23.8036 46.6458,23.7636 L59.6458,12.7636 C59.6708,12.7426 59.6818,12.7136 59.7038,12.6906 C59.7218,12.6726 59.7468,12.6656 59.7628,12.6456 C59.7888,12.6156 59.7968,12.5776 59.8178,12.5456 C59.8568,12.4876 59.8908,12.4316 59.9158,12.3686 C59.9398,12.3086 59.9548,12.2506 59.9668,12.1876 C59.9788,12.1246 59.9878,12.0646 59.9878,11.9996 C59.9878,11.9356 59.9788,11.8746 59.9668,11.8116 C59.9548,11.7496 59.9398,11.6906 59.9158,11.6316 C59.8908,11.5686 59.8568,11.5116 59.8178,11.4546 C59.7968,11.4216 59.7888,11.3846 59.7628,11.3546 C59.7448,11.3326 59.7188,11.3236 59.6998,11.3036 C59.6788,11.2826 59.6688,11.2556 59.6458,11.2366 L46.6458,0.2366 C46.6088,0.2056 46.5648,0.1946 46.5248,0.1696 C46.4648,0.1316 46.4078,0.0936 46.3398,0.0686 C46.2748,0.0446 46.2078,0.0376 46.1398,0.0286 C46.0928,0.0216 46.0498,-0.0004 45.9998,-0.0004 C45.9848,-0.0004 45.9728,0.0076 45.9578,0.0086 C45.8888,0.0116 45.8248,0.0316 45.7578,0.0486 C45.6968,0.0646 45.6358,0.0726 45.5808,0.0986 C45.5298,0.1226 45.4868,0.1606 45.4398,0.1936 C45.3788,0.2366 45.3178,0.2756 45.2678,0.3296 C45.2588,0.3396 45.2458,0.3436 45.2368,0.3546 C45.2068,0.3896 45.1968,0.4336 45.1718,0.4716 C45.1328,0.5326 45.0938,0.5906 45.0688,0.6596 C45.0448,0.7266 45.0378,0.7936 45.0278,0.8636 C45.0208,0.9096 44.9998,0.9516 44.9998,0.9996 L44.9998,22.9996 C44.9998,23.0486 45.0208,23.0896 45.0278,23.1366 C45.0368,23.2066 45.0448,23.2736 45.0688,23.3406"/><path d="M3,15 L42,15 C42.552,15 43,14.553 43,14 L43,10 C43,9.447 42.552,9 42,9 L3,9 C1.346,9 0,10.346 0,12 C0,13.654 1.346,15 3,15"/><path d="M57,33 L18,33 C17.448,33 17,33.447 17,34 L17,38 C17,38.553 17.448,39 18,39 L57,39 C58.654,39 60,37.654 60,36 C60,34.346 58.654,33 57,33"/></g></g></svg>
