<?xml version="1.0" encoding="UTF-8" standalone="no"?>
<svg width="18px" height="23px" viewBox="0 0 18 23" version="1.1" xmlns="http://www.w3.org/2000/svg" xmlns:xlink="http://www.w3.org/1999/xlink">
    <!-- Generator: Sketch 43.2 (39069) - http://www.bohemiancoding.com/sketch -->
    <title>record icon</title>
    <desc>Created with Sketch.</desc>
    <defs></defs>
    <g id="Page-1" stroke="none" stroke-width="1" fill="none" fill-rule="evenodd">
        <g id="Desktop---1280x720" transform="translate(-53.000000, -609.000000)">
            <g id="v1-Sound-Editor" transform="translate(-1.000000, 92.000000)">
                <g id="Sounds-List">
                    <g id="record-sound" transform="translate(34.000000, 518.000000)">
                        <g id="record-icon" transform="translate(20.000000, 0.000000)">
                            <path d="M10.9805,3.7742 L10.9805,10.8442 C10.9805,12.8742 9.2805,14.5142 7.2195,14.4042 C5.2995,14.3042 3.8495,12.5742 3.8495,10.6442 L3.8495,4.5742 C3.8495,2.5342 5.5495,0.9042 7.6095,1.0042 C9.5405,1.1142 10.9805,2.8442 10.9805,4.7742" id="Fill-1" fill="#4C97FF"></path>
                            <path d="M8.4199,17.9842 L8.4199,19.7242 L10.0799,19.7242 C10.6409,19.7242 11.0799,20.1742 11.0799,20.7242 C11.0799,21.2842 10.6409,21.7242 10.0799,21.7242 L4.7499,21.7242 C4.1999,21.7242 3.7499,21.2842 3.7499,20.7242 C3.7499,20.1742 4.1999,19.7242 4.7499,19.7242 L6.4199,19.7242 L6.4199,17.9842 C2.7999,17.5042 -0.0001,14.3942 -0.0001,10.6442 C-0.0001,10.0942 0.4499,9.6442 0.9999,9.6442 C1.5499,9.6442 1.9999,10.0942 1.9999,10.6442 C1.9999,13.6342 4.4299,16.0642 7.4199,16.0642 C10.3999,16.0642 12.8299,13.6342 12.8299,10.6442 C12.8299,10.0942 13.2799,9.6442 13.8299,9.6442 C14.3909,9.6442 14.8299,10.0942 14.8299,10.6442 C14.8299,14.3942 12.0399,17.5042 8.4199,17.9842" id="Fill-4" fill="#4C97FF"></path>
                            <g id="+" transform="translate(13.000000, 0.000000)" stroke="#4C97FF" stroke-width="2" stroke-linecap="round" stroke-linejoin="round">
                                <path d="M2,0 L2,4" id="Shape"></path>
                                <path d="M4,2 L0,2" id="Shape"></path>
                            </g>
                        </g>
                    </g>
                </g>
            </g>
        </g>
    </g>
</svg>