<?xml version="1.0" encoding="UTF-8" standalone="no"?>
<svg width="20px" height="19px" viewBox="0 0 20 19" version="1.1" xmlns="http://www.w3.org/2000/svg" xmlns:xlink="http://www.w3.org/1999/xlink">
    <!-- Generator: Sketch 43.2 (39069) - http://www.bohemiancoding.com/sketch -->
    <title>sound icon</title>
    <desc>Created with Sketch.</desc>
    <defs></defs>
    <g id="Page-1" stroke="none" stroke-width="1" fill="none" fill-rule="evenodd">
        <g id="Desktop---1280x720" transform="translate(-51.000000, -666.000000)">
            <g id="v1-Sound-Editor" transform="translate(-1.000000, 92.000000)">
                <g id="Sounds-List">
                    <g id="add-sound" transform="translate(41.000000, 575.000000)">
                        <g id="sound-icon" transform="translate(11.000000, 0.000000)">
                            <path d="M8.75662105,3.8617617 L8.75662105,16.5654444 C8.75662105,16.8473164 8.60383377,17.1000293 8.35555444,17.2263858 C8.10727511,17.3430225 7.81124975,17.3138633 7.59161803,17.1389082 L3.93713725,14.1413445 C3.7251449,13.9673614 3.46158684,13.8730801 3.18943449,13.8730801 L1.90888609,13.8730801 C0.858473536,13.8730801 0,12.9983047 0,11.9301067 L0,8.08887079 C0,7.02067284 0.858473536,6.14589745 1.90888609,6.14589745 L3.25914369,6.14589745 C3.50551318,6.14589745 3.74710807,6.06813964 3.9485963,5.92234374 L7.62981485,3.26885838 C7.75395452,3.18138084 7.8971926,3.1327822 8.04043067,3.1327822 C8.15502113,3.1327822 8.26961159,3.16194138 8.37465285,3.22025974 C8.61338298,3.33689646 8.75662105,3.58960935 8.75662105,3.8617617" id="Fill-1" fill="#4C97FF"></path>
                            <path d="M10.9556526,7.161175 C11.1074421,7.161175 11.2592316,7.224925 11.3690211,7.349425 C12.0513368,8.130925 12.4271263,9.138175 12.4271263,10.185175 C12.4271263,11.265925 12.0292316,12.297175 11.3071263,13.088425 C11.0978632,13.316425 10.7493368,13.329925 10.5253368,13.117675 C10.3020737,12.906925 10.2895474,12.550675 10.4966,12.323425 C11.0293368,11.739925 11.3218632,10.980925 11.3218632,10.185175 C11.3218632,9.414175 11.0448105,8.672425 10.5422842,8.097925 C10.3396526,7.865425 10.3602842,7.509925 10.5887053,7.302925 C10.6940737,7.207675 10.8244947,7.161175 10.9556526,7.161175" id="Fill-4" fill="#4C97FF"></path>
                            <path d="M12.8186105,4.7512 C12.9652421,4.7512 13.1118737,4.81045 13.2216632,4.9282 C14.5406105,6.3577 15.2671368,8.22445 15.2671368,10.18495 C15.2671368,12.1792 14.5185053,14.0692 13.1582947,15.5062 C12.9453474,15.73045 12.5953474,15.7357 12.3765053,15.5212 C12.1576632,15.30595 12.1510316,14.9497 12.3625053,14.72545 C13.5230316,13.49995 14.1618737,11.8867 14.1618737,10.18495 C14.1618737,8.5117 13.5414526,6.9187 12.4155579,5.6992 C12.2070316,5.4727 12.2180842,5.11645 12.4398737,4.9042 C12.5467158,4.80145 12.6822947,4.7512 12.8186105,4.7512" id="Fill-6" fill="#4C97FF"></path>
                            <g id="+" transform="translate(15.000000, 0.000000)" stroke="#4C97FF" stroke-width="2" stroke-linecap="round" stroke-linejoin="round">
                                <path d="M2,0 L2,4" id="Shape"></path>
                                <path d="M4,2 L0,2" id="Shape"></path>
                            </g>
                        </g>
                    </g>
                </g>
            </g>
        </g>
    </g>
</svg>