<?xml version="1.0" encoding="UTF-8"?>
<svg width="20px" height="20px" viewBox="0 0 20 20" version="1.1" xmlns="http://www.w3.org/2000/svg" xmlns:xlink="http://www.w3.org/1999/xlink">
    <!-- Generator: Sketch 53.2 (72643) - https://sketchapp.com -->
    <title>Tutorials/Expand</title>
    <desc>Created with Sketch.</desc>
    <defs>
        <path d="M4.5,2 L15.5,2 C16.8807119,2 18,3.11928813 18,4.5 L18,5.5 C18,5.77614237 17.7761424,6 17.5,6 L2.5,6 C2.22385763,6 2,5.77614237 2,5.5 L2,4.5 C2,3.11928813 3.11928813,2 4.5,2 Z M2.5,7 L17.5,7 C17.7761424,7 18,7.22385763 18,7.5 L18,15.5 C18,16.8807119 16.8807119,18 15.5,18 L4.5,18 C3.11928813,18 2,16.8807119 2,15.5 L2,7.5 C2,7.22385763 2.22385763,7 2.5,7 Z M9.65509466,15.1636146 C9.745416,15.2533569 9.86700241,15.3031495 9.99727357,15.3031495 C10.1275447,15.3031495 10.2491311,15.2533569 10.3394525,15.1636146 L12.1574588,13.3456082 C12.3004676,13.2025994 12.3415754,12.9993764 12.2657286,12.8158388 C12.1898819,12.6334592 12.0109762,12.5153467 11.8100691,12.5153467 L11.1506075,12.5153467 L10.7899012,9.98808625 C10.7464775,9.64474938 10.4703026,9.36567961 10.1124912,9.30951827 C10.0783312,9.30546539 10.0435922,9.30314946 10.0094322,9.30314946 C9.61282891,9.30314946 9.27586085,9.59785176 9.22548933,9.98519134 L8.8740467,12.5153467 L8.18447804,12.5153467 C7.9858869,12.5153467 7.81450796,12.6265114 7.73692425,12.8065751 C7.65876155,12.9866388 7.69639544,13.1962306 7.83708829,13.3456082 L9.65509466,15.1636146 Z" id="path-1"></path>
    </defs>
    <g id="Tutorials/Expand" stroke="none" stroke-width="1" fill="none" fill-rule="evenodd">
        <mask id="mask-2" fill="white">
            <use xlink:href="#path-1"></use>
        </mask>
        <g id="Combined-Shape" fill-rule="nonzero"></g>
        <g id="White" mask="url(#mask-2)" fill="#FFFFFF">
            <rect id="Color" x="0" y="0" width="20" height="20"></rect>
        </g>
    </g>
</svg>