<?xml version="1.0" encoding="UTF-8"?>
<svg width="30px" height="120px" viewBox="0 0 30 120" version="1.1" xmlns="http://www.w3.org/2000/svg" xmlns:xlink="http://www.w3.org/1999/xlink">
    <!-- Generator: Sketch 46.1 (44463) - http://www.bohemiancoding.com/sketch -->
    <title>Group</title>
    <desc>Created with Sketch.</desc>
    <defs></defs>
    <g id="Page-1" stroke="none" stroke-width="1" fill="none" fill-rule="evenodd">
        <g id="Group">
            <polygon id="Fill-1" fill="#23C9C9" points="15 0 0 14.9990876 15 30 18.229927 26.770073 8.73083942 17.2810219 28.4671533 17.2810219 28.4671533 12.7189781 8.73083942 12.7189781 18.229927 3.22080292"></polygon>
            <polygon id="Fill-2" fill="#46CE46" points="0 44.9995438 15.0004562 60 18.2304815 56.7708872 8.7320174 47.2806351 28.4680191 47.2806351 28.4680191 42.7193649 8.7320174 42.7193649 18.2304815 33.2199884 15.0004562 30"></polygon>
            <polygon id="Fill-3" fill="#E86BE5" points="0 74.9995438 14.9995438 90 18.2304815 86.7708872 8.7320174 77.2806351 28.4680191 77.2806351 28.4680191 72.7184525 8.7320174 72.7184525 18.2304815 63.2199884 14.9995438 60"></polygon>
            <polygon id="Fill-4" fill="#F78857" points="0 104.999544 14.9995438 120 18.2304815 116.770887 8.7320174 107.280635 28.4671067 107.280635 28.4671067 102.718453 8.7320174 102.718453 18.2304815 93.2199884 14.9995438 90"></polygon>
        </g>
    </g>
</svg>