<?xml version="1.0" encoding="utf-8"?>
<!-- Generator: Adobe Illustrator 21.1.0, SVG Export Plug-In . SVG Version: 6.00 Build 0)  -->
<svg version="1.1" id="Layer_1" xmlns="http://www.w3.org/2000/svg" xmlns:xlink="http://www.w3.org/1999/xlink" x="0px" y="0px"
	 viewBox="0 0 54.3 43.4" style="enable-background:new 0 0 54.3 43.4;" xml:space="preserve">
<style type="text/css">
	.st0{fill:#FFFFFF;}
</style>
<g transform="translate(0,-1036.3622)">
	<path class="st0" d="M18.7,1068c3.8,3.2,9,4,13.6,2l0,0c4.8-2.1,7.9-6.9,7.8-12.1l0-0.9l3-0.1l-4-4.6l-3.9,4.8l3.2-0.1l0,0.9
		c0.1,4.6-2.6,8.7-6.8,10.5c-3.9,1.7-8.4,1-11.7-1.7L18.7,1068z M11.2,1059.2l4,4.6l3.9-4.8l-3.2,0.1l0-0.9
		c-0.1-4.6,2.6-8.7,6.8-10.5c3.9-1.7,8.4-1,11.7,1.7l1.2-1.2c-3.8-3.2-9-4-13.6-2c-4.8,2.1-7.9,6.9-7.8,12.1l0,0.9L11.2,1059.2z"/>
</g>
</svg>
