<svg xmlns="http://www.w3.org/2000/svg" viewBox="203 109.2 495.1 121.8">
    <path fill="#CCC" d="M538.1 125.6h-2.5V116l-3.8 9.6h-1.9L526 116v9.6h-2.5v-15.4h2.4l4.9 11.4 4.9-11.4h2.4v15.4zm13.2-10.3v10.3h-2.4v-1.4c-.6 1-2 1.7-3.2 1.7-3.1 0-5.3-2.5-5.3-5.4 0-2.9 2.1-5.4 5.3-5.4 1.2 0 2.5.6 3.2 1.7v-1.5h2.4zm-2.4 5.1c0-1.8-1.2-3.3-3-3.3s-3 1.5-3 3.3c0 1.8 1.2 3.3 3 3.3s3-1.5 3-3.3m13.2 3.8c-.6 1-2 1.7-3.2 1.7-3.1 0-5.3-2.5-5.3-5.4 0-2.9 2.1-5.4 5.3-5.4 1.2 0 2.5.6 3.2 1.7v-6.6h2.4v15.4h-2.4v-1.4zm0-3.8c0-1.8-1.2-3.3-3-3.3s-3 1.5-3 3.3c0 1.8 1.2 3.3 3 3.3s3-1.5 3-3.3m7.1.8c.1 1.5.7 2.7 2.8 2.7 1.4 0 1.9-.6 2.2-1.3h2.4c-.3 1.8-2 3.3-4.6 3.3-3.5 0-5.1-2.4-5.1-5.4 0-3.1 1.8-5.4 5.1-5.4 2.7 0 4.8 2 4.8 4.6 0 .4 0 .8-.1 1.5h-7.5zm0-1.8h5.1c0-1.6-1-2.5-2.5-2.5-1.4 0-2.6.8-2.6 2.5m22-1.5l-2.7 7.7h-1.6l-4-10.3h2.6l2.2 6.5 2.3-6.5h2.4l2.3 6.5 2.2-6.5h2.6l-4 10.3h-1.6l-2.7-7.7zm11-8.1c1 0 1.8.8 1.8 1.8s-.8 1.8-1.8 1.8-1.8-.8-1.8-1.8.8-1.8 1.8-1.8m-1.2 5.5h2.4v10.3H601v-10.3zm11.2 10.3c-.4.1-1.1.1-1.8.1-1.2 0-3.3-.2-3.3-3.6v-4.8h-1.7v-2h1.7v-3.1h2.4v3.1h2.4v2h-2.4v4.2c0 1.8.6 2 1.5 2 .4 0 1 0 1.2-.1v2.2zm1.9-15.4h2.4v6.6c.6-1.1 1.8-1.7 3.3-1.7s2.5.5 3.1 1.4c.5.8.7 1.6.7 3v6.1h-2.4v-5.3c0-1.8-.5-3.1-2.2-3.1s-2.5 1.3-2.5 3.1v5.3h-2.4v-15.4zm-83.2 35.5c0 2.1-1.8 3.1-4.1 3.1-2.2 0-4.2-1.3-4.2-3.7h2.3c0 1.3.8 1.8 2 1.8.9 0 1.7-.3 1.7-1.2 0-1-1-1-3.2-1.9-1.4-.6-2.4-1.1-2.4-2.9 0-1.9 1.8-3 3.9-3 2.2 0 3.9 1.5 3.9 3.5h-2.3c0-1-.5-1.6-1.7-1.6-.8 0-1.5.4-1.5 1.1 0 .9.9 1 2.8 1.7 1.5.8 2.8 1.3 2.8 3.1m1.7-2.2c0-2.9 2.1-5.4 5.4-5.4s5.4 2.5 5.4 5.4c0 2.9-2.1 5.4-5.4 5.4s-5.4-2.5-5.4-5.4m8.4 0c0-1.8-1.2-3.3-3-3.3s-3 1.5-3 3.3c0 1.8 1.2 3.3 3 3.3 1.8-.1 3-1.6 3-3.3m17.7 5.1v-5.7c0-1.6-.6-2.7-1.9-2.7-1.2 0-2.2.7-2.2 3.2v5.2h-2.4v-5.8c0-1.6-.5-2.6-1.9-2.6-1.2 0-2.2.7-2.2 3.2v5.2h-2.4v-10.3h2.4v1.4c.4-.9 1.5-1.7 2.9-1.7 1.9 0 2.8.8 3.2 1.8.5-1 1.7-1.8 3.1-1.8 3.1 0 3.7 2.1 3.7 4v6.5h-2.3v.1zm7-4.4c.1 1.5.7 2.7 2.8 2.7 1.4 0 1.9-.6 2.2-1.3h2.4c-.3 1.8-2 3.3-4.6 3.3-3.5 0-5.1-2.4-5.1-5.4 0-3.1 1.8-5.4 5.1-5.4 2.7 0 4.8 2 4.8 4.6 0 .4 0 .8-.1 1.5h-7.5zm0-1.8h5.1c0-1.6-1-2.5-2.5-2.5s-2.6.8-2.6 2.5m21.3-7.1c-.3-.1-.7-.2-1.1-.2-.7 0-1.6 0-1.6 1.6v1.5h2.7v2h-2.7v8.3h-2.4v-8.3h-2.1v-2h2.1v-1.3c0-3.9 2.5-4 3.7-4 .6 0 1.1.1 1.4.3v2.1zm8.3 5.3c-.4-.1-.6-.1-.9-.1-2 0-3.2 1.2-3.2 3.7v4.4h-2.4v-10.3h2.4v1.6c.5-.9 1.8-1.8 3.2-1.8.4 0 .7 0 .9.2v2.3zm2.9-7.8c1 0 1.8.8 1.8 1.8s-.8 1.8-1.8 1.8-1.8-.8-1.8-1.8.8-1.8 1.8-1.8m-1.2 5.5h2.4v10.3H597v-10.3zm7.1 5.9c.1 1.5.7 2.7 2.8 2.7 1.4 0 1.9-.6 2.2-1.3h2.4c-.3 1.8-2 3.3-4.6 3.3-3.5 0-5.1-2.4-5.1-5.4 0-3.1 1.8-5.4 5.1-5.4 2.7 0 4.8 2 4.8 4.6 0 .4 0 .8-.1 1.5h-7.5zm0-1.8h5.1c0-1.6-1-2.5-2.5-2.5-1.4 0-2.6.8-2.6 2.5m9.9-4.1h2.4v1.4c.6-1.1 1.8-1.7 3.3-1.7s2.5.5 3.1 1.4c.5.8.7 1.6.7 3v6.1h-2.4v-5.3c0-1.8-.5-3.1-2.2-3.1-1.7 0-2.5 1.3-2.5 3.1v5.3H614v-10.2zm20.1 8.9c-.6 1-2 1.7-3.2 1.7-3.1 0-5.3-2.5-5.3-5.4 0-2.9 2.1-5.4 5.3-5.4 1.2 0 2.5.6 3.2 1.7v-6.6h2.4v15.4h-2.4v-1.4zm0-3.7c0-1.8-1.2-3.3-3-3.3s-3 1.5-3 3.3c0 1.8 1.2 3.3 3 3.3 1.8-.1 3-1.6 3-3.3m13 2.2c0 2.1-1.8 3.1-4.1 3.1-2.2 0-4.2-1.3-4.2-3.7h2.3c0 1.3.8 1.8 2 1.8.9 0 1.7-.3 1.7-1.2 0-1-1-1-3.2-1.9-1.4-.6-2.4-1.1-2.4-2.9 0-1.9 1.8-3 3.9-3 2.2 0 3.9 1.5 3.9 3.5h-2.3c0-1-.5-1.6-1.7-1.6-.8 0-1.5.4-1.5 1.1 0 .9.9 1 2.8 1.7 1.4.8 2.8 1.3 2.8 3.1m13.8-10.4c-.3-.1-.7-.2-1.1-.2-.7 0-1.6 0-1.6 1.6v1.5h2.7v2h-2.7v8.3h-2.4v-8.3h-2.1v-2h2.1v-1.3c0-3.9 2.5-4 3.7-4 .6 0 1.1.1 1.4.3v2.1zm8.3 5.3c-.4-.1-.6-.1-.9-.1-2 0-3.2 1.2-3.2 3.7v4.4h-2.4v-10.3h2.4v1.6c.5-.9 1.8-1.8 3.2-1.8.4 0 .7 0 .9.2v2.3zm.4 2.9c0-2.9 2.1-5.4 5.4-5.4s5.4 2.5 5.4 5.4c0 2.9-2.1 5.4-5.4 5.4s-5.4-2.5-5.4-5.4m8.4 0c0-1.8-1.2-3.3-3-3.3s-3 1.5-3 3.3c0 1.8 1.2 3.3 3 3.3 1.8-.1 3-1.6 3-3.3m17.7 5.1v-5.7c0-1.6-.6-2.7-1.9-2.7-1.2 0-2.2.7-2.2 3.2v5.2h-2.4v-5.8c0-1.6-.5-2.6-1.9-2.6-1.2 0-2.2.7-2.2 3.2v5.2h-2.4v-10.3h2.4v1.4c.4-.9 1.5-1.7 2.9-1.7 1.9 0 2.8.8 3.2 1.8.5-1 1.7-1.8 3.1-1.8 3.1 0 3.7 2.1 3.7 4v6.5h-2.3v.1zm-104.5 57c0 7.7-6 13.4-13.5 13.4-7.4 0-13.5-5.7-13.5-13.4 0-7.8 6-13.4 13.5-13.4 7.4 0 13.5 5.6 13.5 13.4m-5.9 0c0-4.8-3.5-8.1-7.6-8.1s-7.6 3.3-7.6 8.1 3.5 8.1 7.6 8.1 7.6-3.3 7.6-8.1m35.1 0c0 7.7-6 13.4-13.5 13.4-7.4 0-13.5-5.7-13.5-13.4 0-7.8 6-13.4 13.5-13.4s13.5 5.6 13.5 13.4m-5.9 0c0-4.8-3.5-8.1-7.6-8.1s-7.6 3.3-7.6 8.1 3.5 8.1 7.6 8.1 7.6-3.3 7.6-8.1m34-12.6v24c0 9.9-5.8 14-12.7 14-6.5 0-10.4-4.4-11.9-7.9l5.1-2.1c.9 2.2 3.1 4.8 6.8 4.8 4.4 0 7.2-2.7 7.2-7.9V216h-.2c-1.3 1.6-3.9 3-7.1 3-6.7 0-12.8-5.8-12.8-13.4 0-7.6 6.1-13.5 12.8-13.5 3.2 0 5.7 1.4 7.1 3h.2v-2.2h5.5v.1zm-5.2 12.6c0-4.7-3.1-8.2-7.2-8.2s-7.5 3.5-7.5 8.2c0 4.7 3.4 8.1 7.5 8.1s7.2-3.4 7.2-8.1m9.1-26.8h5.9v39.4h-5.9v-39.4zm28.3 31.2l4.6 3c-1.5 2.2-5 5.9-11.2 5.9-7.6 0-13.1-5.9-13.1-13.4 0-8 5.6-13.4 12.5-13.4 7 0 10.4 5.5 11.5 8.5l.6 1.5-17.9 7.4c1.4 2.7 3.5 4.1 6.5 4.1 2.9.1 5-1.4 6.5-3.6m-14.1-4.8l12-5c-.7-1.7-2.6-2.8-5-2.8-3 0-7.1 2.6-7 7.8M543 219c-11.5 0-21.1-9.3-21.1-20.8s9.6-20.8 21.1-20.8c6.3 0 10.9 2.5 14.3 5.7l-4 4c-2.4-2.3-5.7-4.1-10.3-4.1-8.4 0-14.9 6.8-14.9 15.1s6.5 15.1 14.9 15.1c5.4 0 8.5-2.2 10.5-4.2 1.6-1.6 2.7-4 3.1-7.2H543v-5.7h19.1c.2 1 .3 2.2.3 3.6 0 4.3-1.2 9.5-4.9 13.3-3.7 4-8.3 6-14.5 6m-320.5-43.2l-1.3-3.9h-11.6l-1.3 3.9H203l10.6-30.8h3.6l10.7 30.8h-5.4zm-7-22.4l-4.3 14h8.5l-4.2-14zm18.7 15.6c2 0 3.6 1.6 3.6 3.6 0 1.9-1.6 3.5-3.6 3.5-1.9 0-3.5-1.6-3.5-3.5-.1-2 1.5-3.6 3.5-3.6m8.5-24h5.2v30.8h-5.2V145zm13.3 24c2 0 3.6 1.6 3.6 3.6 0 1.9-1.6 3.5-3.6 3.5-1.9 0-3.5-1.6-3.5-3.5 0-2 1.5-3.6 3.5-3.6m-44.9 22.2v8.7h12.8v4.5h-12.8v8.5h12.8v4.6h-17.8v-30.9h17.8v4.6h-12.8zm34.8 26.3h-5.5l-4-6.6-3.9 6.6H227l6.7-10.4-6.6-10.2h5.6l3.7 6.5 3.8-6.5h5.6l-6.6 10.2 6.7 10.4zm7.7-17.8c1.3-2.1 4-3.3 6.3-3.3 6.2 0 10.5 5 10.5 10.8s-4.3 10.8-10.5 10.8c-2.4 0-5.1-1.2-6.3-3.3v13.1h-4.8v-30.9h4.8v2.8zm0 7.5c0 3.5 2.4 6.5 6.1 6.5 3.6 0 6-3 6-6.5s-2.4-6.5-6-6.5c-3.7 0-6.1 3-6.1 6.5m23.8 1.5c.2 3 1.5 5.3 5.5 5.3 2.7 0 3.8-1.2 4.4-2.7h4.8c-.6 3.5-4 6.7-9.2 6.7-6.9 0-10.3-4.8-10.3-10.8 0-6.2 3.7-10.8 10.1-10.8 5.3 0 9.5 4 9.5 9.2 0 .7 0 1.7-.2 3h-14.6v.1zm0-3.6h10.2c0-3.1-2.1-5.1-5-5.1s-5.2 1.7-5.2 5.1m31.6-3.7c-.7-.2-1.1-.2-1.9-.2-4.1 0-6.3 2.3-6.3 7.4v8.8H296v-20.5h4.8v3.3c.9-1.9 3.6-3.6 6.3-3.6.7 0 1.4.1 1.9.3v4.5zm5.9-15.5c2 0 3.6 1.6 3.6 3.6 0 1.9-1.6 3.5-3.6 3.5-1.9 0-3.5-1.6-3.5-3.5 0-2 1.6-3.6 3.5-3.6m-2.3 11h4.8v20.5h-4.8v-20.5zm35.1 20.6V206c0-3.3-1.1-5.3-3.8-5.3-2.4 0-4.3 1.5-4.3 6.4v10.4h-4.8v-11.6c0-3.3-1.1-5.3-3.7-5.3-2.4 0-4.4 1.5-4.4 6.4v10.4h-4.8v-20.5h4.8v2.9c.9-1.9 3-3.4 5.7-3.4 3.7 0 5.6 1.6 6.5 3.7 1-2.1 3.4-3.7 6.3-3.7 6.2 0 7.4 4.2 7.4 8.1v13h-4.9zm12.6-8.8c.2 3 1.5 5.3 5.5 5.3 2.7 0 3.8-1.2 4.4-2.7h4.8c-.6 3.5-4 6.7-9.2 6.7-6.9 0-10.3-4.8-10.3-10.8 0-6.2 3.7-10.8 10.1-10.8 5.3 0 9.5 4 9.5 9.2 0 .7 0 1.7-.2 3h-14.6v.1zm0-3.6h10.2c0-3.1-2.1-5.1-5-5.1s-5.2 1.7-5.2 5.1m18.6-8.2h4.8v2.9c1.3-2.2 3.7-3.4 6.7-3.4 2.9 0 5 1.1 6.2 2.8 1 1.5 1.3 3.3 1.3 6.1v12.2H393v-10.7c0-3.5-1-6.2-4.4-6.2-3.3 0-4.9 2.7-4.9 6.2v10.6h-4.8v-20.5zm35 20.6c-.7.1-2.2.3-3.6.3-2.3 0-6.6-.3-6.6-7.2v-9.5h-3.5v-4h3.5v-6.2h4.8v6.2h4.7v4h-4.7v8.4c0 3.6 1.1 4 3 4 .7 0 1.9-.1 2.4-.2v4.2zm-207-105.1h-3.8v-2.2h10.2v2.2h-3.9v13.2h-2.5v-13.2zm8.1-2.2h2.4v6.6c.6-1.1 1.8-1.7 3.3-1.7s2.5.5 3.1 1.4c.5.8.7 1.6.7 3v6.1h-2.4v-5.3c0-1.8-.5-3.1-2.2-3.1-1.7 0-2.5 1.3-2.5 3.1v5.3H215v-15.4zm13.6-.4c1 0 1.8.8 1.8 1.8s-.8 1.8-1.8 1.8-1.8-.8-1.8-1.8.8-1.8 1.8-1.8m-1.2 5.5h2.4v10.3h-2.4v-10.3zm12.9 7.4c0 2.1-1.8 3.1-4.1 3.1-2.2 0-4.2-1.3-4.2-3.7h2.3c0 1.3.8 1.8 2 1.8.9 0 1.7-.3 1.7-1.2 0-1-1-1-3.2-1.9-1.4-.6-2.4-1.1-2.4-2.9 0-1.9 1.8-3 3.8-3 2.2 0 3.9 1.5 3.9 3.5h-2.3c0-1-.5-1.6-1.7-1.6-.8 0-1.5.4-1.5 1.1 0 .9.9 1 2.8 1.7 1.6.7 2.9 1.2 2.9 3.1m9-12.9c1 0 1.8.8 1.8 1.8s-.8 1.8-1.8 1.8-1.8-.8-1.8-1.8c.1-1 .9-1.8 1.8-1.8m-1.2 5.5h2.4v10.3h-2.4v-10.3zm13 7.4c0 2.1-1.8 3.1-4.1 3.1-2.2 0-4.2-1.3-4.2-3.7h2.3c0 1.3.8 1.8 2 1.8.9 0 1.7-.3 1.7-1.2 0-1-1-1-3.2-1.9-1.4-.6-2.4-1.1-2.4-2.9 0-1.9 1.8-3 3.8-3 2.2 0 3.9 1.5 3.9 3.5h-2.3c0-1-.5-1.6-1.7-1.6-.8 0-1.5.4-1.5 1.1 0 .9.9 1 2.8 1.7 1.5.7 2.9 1.2 2.9 3.1m17.9-7.4v10.3h-2.4v-1.4c-.6 1-2 1.7-3.2 1.7-3.1 0-5.3-2.5-5.3-5.4 0-2.9 2.1-5.4 5.3-5.4 1.2 0 2.5.6 3.2 1.7v-1.5h2.4zm-2.4 5.1c0-1.8-1.2-3.3-3-3.3s-3 1.5-3 3.3c0 1.8 1.2 3.3 3 3.3s3-1.5 3-3.3m5.5-5.1h2.4v1.4c.6-1.1 1.8-1.7 3.3-1.7s2.5.5 3.1 1.4c.5.8.7 1.6.7 3v6.1h-2.4v-5.3c0-1.8-.5-3.1-2.2-3.1s-2.5 1.3-2.5 3.1v5.3h-2.4v-10.2zm183.3-6.1h1v110.2h-1V109.2z"/>
</svg>
