<svg xmlns="http://www.w3.org/2000/svg" viewBox="0 0 350 31.04"><defs><style>.cls-1{font-size:24px;font-family:Poppins-Medium, Poppins;}.cls-1,.cls-8{fill:#fff;}.cls-2{fill:#00ff95;}.cls-3{fill:#b10dff;}.cls-4{fill:#00d1ff;}.cls-5{fill:#ffff92;}.cls-6{fill:#ff4e62;}.cls-7{opacity:0.2;}</style></defs><title>giphy</title><g id="Layer_2" data-name="Layer 2"><g id="Layer_1-2" data-name="Layer 1"><text class="cls-1" transform="translate(0 20.53)">Search powered by </text><path class="cls-2" d="M244.71,1.93h2.57V20.57h-2.57Z"/><path class="cls-3" d="M260.14,7.07h2.57v13.5h-2.57Z"/><path class="cls-4" d="M244.71,19.93h18V22.5h-18Z"/><path class="cls-5" d="M244.71,0H255V2.57H244.71Z"/><path class="cls-6" d="M260.14,5.14V2.57h-2.57V0H255V7.71h7.71V5.14"/><path class="cls-7" d="M260.14,10.28V7.71h2.57M255,0V2.57h-2.57"/><path class="cls-8" d="M282.7,7.71a5.73,5.73,0,0,0-4-1.54c-2.83,0-4.69,1.67-4.69,5.14,0,2.25,1.16,5,4.69,5a6.11,6.11,0,0,0,3.34-.9V13.18h-4.44V9.32h8.55V17.1c-1.09,2.25-4.11,3.41-7.52,3.41-6.88,0-9.51-4.63-9.51-9.19s3-9.26,9.58-9.26a8.79,8.79,0,0,1,6.88,2.83Zm5.85,12.34V2.57h4.89V20.06Zm12.92-4.76V20h-4.95V2.57H305c4.69,0,7,3,7,6.36,0,3.6-2.31,6.36-7,6.36Zm0-4.18H305A2,2,0,0,0,307.07,9,2,2,0,0,0,305,6.81h-3.54Zm23.59,8.93V13.43h-6.3v6.62h-4.95V2.57h4.95V9.19h6.3V2.57h4.89V20.06ZM340.62,8.55l3.79-6H350v.19L343.06,13V20h-4.95V13L331.49,2.76V2.57h5.59Z"/></g></g></svg>