<svg xmlns="http://www.w3.org/2000/svg" viewBox="0 0 370.33 337.52"><defs><style>.cls-1{isolation:isolate;}.cls-10,.cls-12,.cls-13,.cls-2,.cls-3,.cls-4,.cls-8{fill:none;stroke-linecap:round;stroke-linejoin:round;}.cls-12,.cls-13,.cls-2,.cls-3,.cls-4,.cls-8{stroke:#a0c0f8;}.cls-2{stroke-width:2.38px;}.cls-2,.cls-4{opacity:0.15;}.cls-3{stroke-width:2.17px;opacity:0.35;}.cls-4{stroke-width:2.29px;}.cls-5{fill:#4285f4;}.cls-6{fill:#fff;}.cls-7{fill:#a0c0f8;}.cls-8{stroke-width:2.99px;}.cls-9{fill:#d0d2d3;mix-blend-mode:multiply;}.cls-10{stroke:#fff;stroke-width:1.31px;}.cls-11{fill:#fafafa;}.cls-12{stroke-width:2px;}.cls-13{stroke-width:3.05px;}</style></defs><title>intro</title><g class="cls-1"><g id="Layer_2" data-name="Layer 2"><g id="Layer_1-2" data-name="Layer 1"><circle class="cls-2" cx="124.6" cy="138.94" r="58.27"/><circle class="cls-3" cx="124.6" cy="138.94" r="44.24"/><circle class="cls-4" cx="194.98" cy="162.15" r="66.86"/><circle class="cls-3" cx="194.98" cy="162.15" r="51.87"/><circle class="cls-5" cx="194.98" cy="162.15" r="38.22"/><path class="cls-6" d="M195,165.63a4.17,4.17,0,0,0,4.16-4.18V153.1a4.18,4.18,0,0,0-8.36,0v8.36A4.18,4.18,0,0,0,195,165.63Zm7.38-4.18a7.39,7.39,0,0,1-14.77,0h-2.37a9.72,9.72,0,0,0,8.36,9.36v4.57h2.79v-4.57a9.72,9.72,0,0,0,8.36-9.36Z"/><circle class="cls-5" cx="124.6" cy="138.94" r="28.65"/><circle class="cls-6" cx="124.6" cy="138.76" r="3.97"/><path class="cls-6" d="M120.88,126.34l-2.27,2.48h-3.94a2.49,2.49,0,0,0-2.48,2.48v14.9a2.49,2.49,0,0,0,2.48,2.48h19.86a2.49,2.49,0,0,0,2.48-2.48v-14.9a2.49,2.49,0,0,0-2.48-2.48H130.6l-2.27-2.48ZM124.6,145a6.21,6.21,0,1,1,6.21-6.21A6.21,6.21,0,0,1,124.6,145Z"/><path class="cls-7" d="M356.34,57.63h1.58a3.44,3.44,0,0,1,3.44,3.44v55.35a0,0,0,0,1,0,0H352.9a0,0,0,0,1,0,0V61.08A3.44,3.44,0,0,1,356.34,57.63Z"/><path class="cls-7" d="M345.4,73.12h0a2.18,2.18,0,0,1,2.18,2.18v16a0,0,0,0,1,0,0h-4.36a0,0,0,0,1,0,0v-16A2.18,2.18,0,0,1,345.4,73.12Z"/><rect class="cls-7" x="350.78" y="90.38" width="4.36" height="8.35" transform="translate(258.4 447.51) rotate(-90)"/><polygon class="cls-7" points="350 92.38 347.57 89.81 344.79 89.81 343.22 91.26 348.78 96.73 351.32 94.55 350 92.38"/><path class="cls-7" d="M366.62,72.33h3.7a0,0,0,0,1,0,0V85.91a1.85,1.85,0,0,1-1.85,1.85h0a1.85,1.85,0,0,1-1.85-1.85V72.33A0,0,0,0,1,366.62,72.33Z" transform="translate(736.95 160.09) rotate(-180)"/><rect class="cls-7" x="360.19" y="87.01" width="3.7" height="7.1" transform="translate(271.49 452.6) rotate(-90)"/><polygon class="cls-7" points="364.56 88.7 366.62 86.52 368.99 86.52 370.32 87.76 365.59 92.41 363.43 90.56 364.56 88.7"/><path class="cls-7" d="M327.11,87.79h4a0,0,0,0,1,0,0v26.1a1.62,1.62,0,0,1-1.62,1.62h-.75a1.62,1.62,0,0,1-1.62-1.62V87.79A0,0,0,0,1,327.11,87.79Z" transform="translate(658.22 203.3) rotate(-180)"/><path class="cls-7" d="M333.62,95.09h2.05a0,0,0,0,1,0,0v7.53a1,1,0,0,1-1,1h0a1,1,0,0,1-1-1V95.09A0,0,0,0,1,333.62,95.09Z" transform="translate(669.29 198.74) rotate(-180)"/><rect class="cls-7" x="330.05" y="103.23" width="2.05" height="3.94" transform="translate(225.88 436.28) rotate(-90)"/><polygon class="cls-7" points="332.47 104.17 333.62 102.96 334.93 102.96 335.67 103.65 333.05 106.23 331.85 105.2 332.47 104.17"/><path class="cls-7" d="M323,91.95h0a1,1,0,0,1,1,1v7.45a0,0,0,0,1,0,0h-2a0,0,0,0,1,0,0V93A1,1,0,0,1,323,91.95Z"/><rect class="cls-7" x="325.5" y="100" width="2.03" height="3.89" transform="translate(224.57 428.47) rotate(-90)"/><polygon class="cls-7" points="325.14 100.93 324.01 99.73 322.71 99.73 321.98 100.41 324.57 102.96 325.76 101.95 325.14 100.93"/><line class="cls-8" x1="329.28" y1="185.56" x2="329.28" y2="161.34"/><line class="cls-8" x1="58.13" y1="185.56" x2="58.13" y2="150.34"/><path class="cls-5" d="M310.28,41.24v-14h-3.94V21.78H274.1v5.74H270.4v21h-2.77v4h-3.3v2.77h-6.81V58.9h-3v3.4h-6.38V59.36h-3.08v-4h-3.51V49.47h-3.65V67.14h4.22v4.23h4V74.8h3.16v6.06h2.64v4h6.59V96.95H264V94.42h-2.46v-3.3h2V87.3h3.94V83.57h3.3v3.62h3v9.76h6.91V94.21h-2.66v-13h2.66V78.15h6.38V70.92h3V58.79h3.83v3.4h3.19V55.39h-7.23V48.16h13.83V45.39H293.9V41.24Zm-23.61-9.47h-4.82V27h4.82Z"/><path class="cls-5" d="M322.5,183.77V288.05l-52.3,23.16a7.81,7.81,0,0,0-4.2,9.9l.07.19a8,8,0,0,0,10.76,4.55c12.95-5.75,59.7-26.59,59.7-26.59V183.77a7,7,0,0,0-7-7h0A7,7,0,0,0,322.5,183.77Z"/><path class="cls-7" d="M265.36,332.09l-53.11-20.6a13.22,13.22,0,0,1-7.89-16.11h0a13.22,13.22,0,0,1,15.43-9.15l55.7,11.89a13.22,13.22,0,0,1,9.91,16.71l-2.6,8.7A13.22,13.22,0,0,1,265.36,332.09Z"/><circle class="cls-5" cx="268.11" cy="314.68" r="8.33" transform="translate(-110.13 481.55) rotate(-73.37)"/><path class="cls-5" d="M65.52,183.77V288.05l52.3,23.16a7.81,7.81,0,0,1,4.2,9.9l-.07.19a8,8,0,0,1-10.76,4.55c-12.95-5.75-59.7-26.59-59.7-26.59V183.77a7,7,0,0,1,7-7h0A7,7,0,0,1,65.52,183.77Z"/><path class="cls-7" d="M120.06,337.4l56.43-7.75a13.22,13.22,0,0,0,11.4-13.85h0A13.22,13.22,0,0,0,175,303.33L118.06,302a13.22,13.22,0,0,0-13.51,14l.51,9.07A13.22,13.22,0,0,0,120.06,337.4Z"/><circle class="cls-5" cx="121.42" cy="319.83" r="8.33" transform="translate(-17.91 7.38) rotate(-3.24)"/><path class="cls-5" d="M109.62,252.69a45.84,45.84,0,0,1-5.08,11.21c-2,3-6.42,8.75-5.85,17.77s4.86,19.41,7.09,21.6c0,0-1.41.55-1.64,3,0,0,2.23,2.73,7.15.55a37.31,37.31,0,0,1,8.36-2.73l2.85-2.19L126,249.4Z"/><path class="cls-9" d="M109.62,252.69a45.84,45.84,0,0,1-5.08,11.21c-2,3-6.42,8.75-5.85,17.77s4.86,19.41,7.09,21.6c0,0-1.41.55-1.64,3,0,0,2.23,2.73,7.15.55a37.31,37.31,0,0,1,8.36-2.73l2.85-2.19L126,249.4Z"/><path class="cls-5" d="M141.71,297.53s24.26-2.73,30.27,0,2.57,6.2,0,8.2c-1.52,1.19-17.77.84-20,0s1.37-2.47,1.37-2.47l-14.74,1.37Z"/><path class="cls-5" d="M138.34,252.69a45.84,45.84,0,0,0,5.08,11.21c2,3,6.42,8.75,5.85,17.77s-4.86,19.41-7.09,21.6c0,0,1.41.55,1.64,3,0,0-2.23,2.73-7.15.55a37.31,37.31,0,0,0-8.36-2.73h-8.67l2.28-54.7Z"/><path class="cls-9" d="M138.34,252.69a45.84,45.84,0,0,0,5.08,11.21c2,3,6.42,8.75,5.85,17.77s-4.86,19.41-7.09,21.6c0,0,1.41.55,1.64,3,0,0-2.23,2.73-7.15.55a37.31,37.31,0,0,0-8.36-2.73h-8.67l2.28-54.7Z"/><path class="cls-5" d="M118.85,195.54s5.82-1.37,9.77,0a99.35,99.35,0,0,1,6.42-8.62c2.19-2.32,4.38-2.32,4.92,1s0,8.48,0,10.39a6.46,6.46,0,0,1-1.62,3.69s3.75,5.88,1.86,10.53-.61,10.39.53,13.95,3.06,16.47-1,29.43-5.74,43.58-5.2,45.22c0,0,2.19.82,2.19,5.74,0,0-6.56,2.46-10.94,0,0,0-.82-3.28-.27-4.92s2.19-31.72.82-35.27-5.18-.55-5.18-.55Z"/><path class="cls-5" d="M129.11,195.54s-5.82-1.37-9.77,0a99.35,99.35,0,0,0-6.42-8.62c-2.19-2.32-4.38-2.32-4.92,1s0,8.48,0,10.39a6.46,6.46,0,0,0,1.62,3.69s-3.75,5.88-1.86,10.53.61,10.39-.53,13.95-3.06,16.47,1,29.43,5.74,43.58,5.2,45.22c0,0-2.19.82-2.19,5.74,0,0,6.56,2.46,10.94,0,0,0,.82-3.28.27-4.92s-2.19-31.72-.82-35.27,5.18-.55,5.18-.55Z"/><ellipse class="cls-6" cx="129.55" cy="206.67" rx="1.17" ry="2.82"/><ellipse class="cls-6" cx="118.4" cy="206.67" rx="1.17" ry="2.82"/><ellipse class="cls-7" cx="123.98" cy="213.3" rx="3.8" ry="1.87"/><path class="cls-10" d="M128.4,218.73a11.12,11.12,0,0,1-8.84,0"/><path class="cls-5" d="M367.61,122s-.76-5.15-3.11-7.4c-3-3-6.3-3-7.84-3.16-11-.76-27.37-.47-27.37-.47s-16.44-.29-27.37.47c-1.52.18-4.86.18-7.84,3.16C291.73,116.9,291,122,291,122s-.76,6-.89,12.08v5.67c.16,6,.89,12.08.89,12.08s.76,5.15,3.11,7.4c3,3,6.87,2.88,8.63,3.19,6.14.55,25.9.65,26.58.68,0,0,16.44.05,27.39-.71,1.52-.18,4.86-.18,7.84-3.16,2.35-2.27,3.11-7.4,3.11-7.4a115.22,115.22,0,0,0,.84-12.08V134.1A119.54,119.54,0,0,0,367.61,122Z"/><path class="cls-11" d="M321.4,126.36v21.07l20.91-10.53Z"/><path class="cls-5" d="M114,74.37a58.13,58.13,0,1,0-111.63,0c4.48,21.37,17.59,42.91,55.82,82.86C96.36,117.28,109.47,95.74,114,74.37Z"/><ellipse class="cls-6" cx="71" cy="54.69" rx="2.71" ry="6.5"/><ellipse class="cls-6" cx="45.26" cy="54.69" rx="2.71" ry="6.5"/><ellipse class="cls-7" cx="58.13" cy="71.85" rx="4.07" ry="1.58"/><path class="cls-6" d="M58.13,84.08a69.35,69.35,0,0,1-22.53-3.62c.19,14,10.19,25.3,22.53,25.3s22.34-11.29,22.53-25.3A69.36,69.36,0,0,1,58.13,84.08Z"/><path class="cls-9" d="M13,101.51c13.4,20.3,21.46,31,45.1,55.73,4.48-4.68,8.6-9.35,12.41-14C44.36,132,13.41,102,13,101.51Z"/><rect class="cls-5" x="50.4" y="153.95" width="15.47" height="6.58" rx="3.29" ry="3.29" transform="translate(116.27 314.48) rotate(-180)"/><ellipse class="cls-7" cx="88.25" cy="18.5" rx="2.35" ry="10.28" transform="translate(21.91 79.56) rotate(-54.46)"/><circle class="cls-7" cx="72.26" cy="9.79" r="1.77" transform="translate(60.68 81.78) rotate(-88.57)"/><path class="cls-12" d="M147.44,94.09a18.21,18.21,0,0,1,36.42,0"/><path class="cls-12" d="M129.23,94.09a9.11,9.11,0,0,1,18.21,0"/><path class="cls-12" d="M123.58,88.44a5.65,5.65,0,0,1,5.65,5.65"/><path class="cls-12" d="M183.87,94.09a41.36,41.36,0,0,1,41.36-41.36"/><circle class="cls-5" cx="242.48" cy="208.6" r="23.02"/><ellipse class="cls-6" cx="256.19" cy="202.12" rx="3.77" ry="6.83" transform="translate(-57.58 112.5) rotate(-22.33)"/><ellipse class="cls-6" cx="247.58" cy="191.88" rx="1.75" ry="3.1" transform="translate(-23.74 348.4) rotate(-67.76)"/><line class="cls-13" x1="242.73" y1="269.16" x2="242.71" y2="243.52"/><line class="cls-13" x1="231.49" y1="278.54" x2="231.48" y2="240.53"/><line class="cls-13" x1="253.48" y1="254.94" x2="253.45" y2="240.16"/></g></g></g></svg>