<svg xmlns="http://www.w3.org/2000/svg" viewBox="0 0 284 45"><defs><style>.cls-1{fill:#4285f4;}.cls-2{opacity:0;}</style></defs><title>machine-handdrawn_1</title><g id="Layer_2" data-name="Layer 2"><g id="Layer_1-2" data-name="Layer 1"><path class="cls-1" d="M6.93,40.92C8,28.66,8,16.36,8.94,4.1L3.6,5.54c5.1,9.2,5.89,20.18,13.38,28,1.15,1.21,3.7,1.44,4.81,0,7.29-9.43,14.9-18.81,21.29-28.89L39,3A200.11,200.11,0,0,0,37.3,39.7c.13,2.94,4.55,3,4.6,0,.16-11.9-.4-23.73,1.41-35.55.31-2-2-3.92-3.73-2.17C31.47,10.34,24.27,19.69,17,28.76h4.81C15,21.41,14.46,10.55,8.55,2.65,6.9.45,3.31,1.06,3.21,4.1c-.42,12.29-1.72,24.52-2,36.82-.09,3.73,5.42,3.62,5.73,0Z"/><path class="cls-1" d="M55.39,42.93C61.83,31,66.87,18.24,72.2,5.81l-4.74-.62c3.3,12,5.89,24.22,9.63,36.11,1.45,4.61,8.6,2.7,7.28-2-3.37-12-8-23.66-11.91-35.49-.65-1.93-3.72-2.77-4.74-.62C61.85,15.62,55.51,28.06,50.77,41c-1,2.7,3.27,4.44,4.61,1.95Z"/><path class="cls-1" d="M60.75,32.52a94.69,94.69,0,0,1,13,1.35c5.23.87,6.23-6.94,1-7.13a80.42,80.42,0,0,0-14.59,1c-2.8.41-2,4.72.65,4.79Z"/><path class="cls-1" d="M142,2.77c-1.28,5.67-.84,12.07-.92,17.87s-1.25,12.39,0,18.06c.73,3.18,5,2.68,6,0,1.94-5.42,1.23-12.35,1.2-18.06s.06-12.43-1.75-17.87c-.69-2.08-4-2.39-4.54,0Z"/><path class="cls-1" d="M128.08,11.51A15.27,15.27,0,0,0,110.5.92c-9.12,1.59-15.75,9.93-16.86,18.86C92.51,28.94,96,40.11,105.6,43c8.07,2.46,19.42.1,22.83-8.38,1.27-3.15-3.16-5-5.26-3.06-4.25,3.82-9,6.16-14.89,4.67-6.53-1.64-8.21-9.86-7.82-15.7s3.42-11.36,9.09-13.66c5.92-2.4,12.36.47,15.31,6a1.77,1.77,0,0,0,3.21-1.36Z"/><path class="cls-1" d="M167.55,3.46c-1.72,12-2.47,25.7-.82,37.76.56,4.1,6.31,2.56,6.69-.9,1.28-11.75.07-25.23-1.92-36.85-.33-1.92-3.66-2-3.94,0Z"/><path class="cls-1" d="M145.49,27.05c7.48-.14,14.92,0,22.39.2,4.72.13,4.6-6.9,0-7.26a90.38,90.38,0,0,0-23.17,1.32c-3.27.59-2.47,5.8.78,5.74Z"/><path class="cls-1" d="M189.28,3.39c-.78,5.65-.33,11.47-.25,17.16.08,6.19-.25,12.36-.66,18.54-.31,4.69,6.85,4.6,7.26,0,1-11.23,2-24.93-2-35.7-.68-1.83-4-2.46-4.38,0Z"/><path class="cls-1" d="M216.34,41.51c1.47-12.58.48-25.54,1.48-38.21l-6.24.84C217,17.89,226.4,29.71,235.36,41.31c2.07,2.68,7.13,2.23,7-1.89-.38-11.38,0-22.83,0-34.21,0-4.53-7-4.53-7,0-.16,11.39.07,22.84-.47,34.21l7-1.89c-8.38-11.69-18.39-22.66-24.45-35.82-1.49-3.23-5.56-1.1-5.92,1.6-1.66,12.6-3.44,26.4-1,39,.7,3.57,5.49,2.27,5.85-.79Z"/><path class="cls-1" d="M281.53,4c-6.59-2.61-13.16-2.75-20.1-3.4a2.83,2.83,0,0,0-2.74,2.08,118.42,118.42,0,0,0-1,16.63c-.06,5.49-.6,11.52.36,16.95a5.81,5.81,0,0,0,5.78,5.15A62.07,62.07,0,0,0,280.16,40c4.24-.92,2.83-6.71-1-7.08a54.28,54.28,0,0,0-8.36.14c-2,.12-5.25.92-7.17.2L266,35.13c-1.06-1.7-.56-5.91-.68-7.88q-.24-4-.41-7.94c-.22-5.29-.13-10.61-.68-15.88l-2.08,2.74c6-.9,12.41.5,18.33,1.49a1.9,1.9,0,0,0,1-3.67Z"/><path class="cls-1" d="M261.68,24.89c6,.51,12.09.41,18.14,1,4.19.4,5.2-6.7,1-7.41C274.54,17.41,267,17.34,261,19.76a2.62,2.62,0,0,0,.69,5.13Z"/><g class="cls-2"><rect width="284" height="45"/></g></g></g></svg>