<?xml version="1.0" encoding="utf-8"?>
<!-- Generator: Adobe Illustrator 21.0.2, SVG Export Plug-In . SVG Version: 6.00 Build 0)  -->
<svg version="1.1" xmlns="http://www.w3.org/2000/svg" xmlns:xlink="http://www.w3.org/1999/xlink" x="0px" y="0px"
	 viewBox="0 0 292 17.5" style="enable-background:new 0 0 292 17.5;" xml:space="preserve">
<style type="text/css">
	.st0{fill:#EFF0F0;}
	.st1{fill:#FFFFFF;}
	.st2{fill:#909295;}
	.st3{fill:none;stroke:#CED0D1;stroke-width:3;stroke-miterlimit:10;}
	.st4{fill:#EEEFEF;}
	.st5{fill:#A4A6A9;}
	.st6{fill:#808082;}
	.st7{opacity:0.2;fill:#F68757;}
	.st8{opacity:0.2;fill:#E76BE4;}
	.st9{opacity:0.2;fill:#46CD46;}
	.st10{fill:none;stroke:#E3E4E5;stroke-miterlimit:10;}
	.st11{fill:#4282F1;}
	.st12{fill:none;stroke:#CED0D1;stroke-miterlimit:10;}
	.st13{fill:#46CD46;}
	.st14{fill:#33BB33;}
	.st15{fill:#31C331;}
	.st16{fill:#E76BE4;}
	.st17{fill:#BE43BE;}
	.st18{fill:#D55BD5;}
	.st19{fill:#F68757;}
	.st20{fill:#CD6B21;}
	.st21{fill:#DF7146;}
	.st22{clip-path:url(#SVGID_2_);}
	.st23{clip-path:url(#SVGID_4_);}
	.st24{clip-path:url(#SVGID_6_);}
	.st25{clip-path:url(#SVGID_8_);}
	.st26{clip-path:url(#SVGID_10_);}
	.st27{clip-path:url(#SVGID_12_);}
	.st28{clip-path:url(#SVGID_14_);}
	.st29{clip-path:url(#SVGID_16_);}
	.st30{clip-path:url(#SVGID_18_);}
	.st31{clip-path:url(#SVGID_20_);}
	.st32{clip-path:url(#SVGID_22_);}
	.st33{clip-path:url(#SVGID_24_);}
	.st34{clip-path:url(#SVGID_26_);}
	.st35{clip-path:url(#SVGID_28_);}
	.st36{clip-path:url(#SVGID_30_);}
	.st37{clip-path:url(#SVGID_32_);}
	.st38{clip-path:url(#SVGID_34_);}
	.st39{clip-path:url(#SVGID_36_);}
	.st40{clip-path:url(#SVGID_38_);}
	.st41{clip-path:url(#SVGID_40_);}
	.st42{clip-path:url(#SVGID_42_);}
	.st43{clip-path:url(#SVGID_44_);}
	.st44{clip-path:url(#SVGID_46_);}
	.st45{clip-path:url(#SVGID_48_);}
	.st46{clip-path:url(#SVGID_50_);}
	.st47{clip-path:url(#SVGID_52_);}
	.st48{clip-path:url(#SVGID_54_);}
	.st49{clip-path:url(#SVGID_56_);}
	.st50{clip-path:url(#SVGID_58_);}
	.st51{clip-path:url(#SVGID_60_);}
	.st52{clip-path:url(#SVGID_62_);}
	.st53{clip-path:url(#SVGID_64_);}
	.st54{clip-path:url(#SVGID_66_);}
	.st55{clip-path:url(#SVGID_68_);}
	.st56{clip-path:url(#SVGID_70_);}
	.st57{clip-path:url(#SVGID_72_);}
	.st58{fill:#2974E1;}
	.st59{fill:#2068D0;}
	.st60{fill:#B9BBBD;}
	.st61{fill:#CED0D1;}
	.st62{clip-path:url(#SVGID_74_);}
	.st63{clip-path:url(#SVGID_76_);}
	.st64{fill:none;stroke:#46CD46;stroke-width:5;stroke-linecap:round;stroke-linejoin:round;stroke-miterlimit:10;}
	.st65{fill:none;stroke:#E76BE4;stroke-width:5;stroke-linecap:round;stroke-linejoin:round;stroke-miterlimit:10;}
	.st66{fill:none;stroke:#F68757;stroke-width:5;stroke-linecap:round;stroke-linejoin:round;stroke-miterlimit:10;}
	.st67{clip-path:url(#SVGID_78_);}
	.st68{clip-path:url(#SVGID_80_);}
	.st69{clip-path:url(#SVGID_82_);}
	.st70{clip-path:url(#SVGID_84_);}
	.st71{fill:none;stroke:#FFFFFF;stroke-width:2;stroke-miterlimit:10;}
	.st72{fill:#EDEDEE;}
	.st73{fill:#6D6E71;}
	.st74{fill:#231F20;}
	.st75{opacity:0.85;}
	.st76{clip-path:url(#SVGID_86_);}
	.st77{clip-path:url(#SVGID_88_);}
	.st78{clip-path:url(#SVGID_90_);}
	.st79{clip-path:url(#SVGID_92_);}
	.st80{clip-path:url(#SVGID_94_);}
	.st81{clip-path:url(#SVGID_96_);}
	.st82{clip-path:url(#SVGID_98_);}
	.st83{clip-path:url(#SVGID_100_);}
	.st84{clip-path:url(#SVGID_102_);}
	.st85{clip-path:url(#SVGID_104_);}
	.st86{clip-path:url(#SVGID_106_);}
	.st87{clip-path:url(#SVGID_108_);}
	.st88{clip-path:url(#SVGID_110_);}
	.st89{clip-path:url(#SVGID_112_);}
	.st90{clip-path:url(#SVGID_114_);}
	.st91{clip-path:url(#SVGID_116_);}
	.st92{clip-path:url(#SVGID_118_);}
	.st93{clip-path:url(#SVGID_120_);}
	.st94{clip-path:url(#SVGID_122_);}
	.st95{clip-path:url(#SVGID_124_);}
	.st96{clip-path:url(#SVGID_126_);}
	.st97{clip-path:url(#SVGID_128_);}
	.st98{clip-path:url(#SVGID_130_);}
	.st99{clip-path:url(#SVGID_132_);}
	.st100{clip-path:url(#SVGID_134_);}
	.st101{clip-path:url(#SVGID_136_);}
	.st102{clip-path:url(#SVGID_138_);}
	.st103{clip-path:url(#SVGID_140_);}
	.st104{clip-path:url(#SVGID_142_);}
	.st105{clip-path:url(#SVGID_144_);}
	.st106{clip-path:url(#SVGID_146_);}
	.st107{clip-path:url(#SVGID_148_);}
	.st108{clip-path:url(#SVGID_150_);}
	.st109{clip-path:url(#SVGID_152_);}
	.st110{clip-path:url(#SVGID_154_);}
	.st111{clip-path:url(#SVGID_156_);}
	.st112{clip-path:url(#SVGID_158_);}
	.st113{clip-path:url(#SVGID_160_);}
	.st114{clip-path:url(#SVGID_162_);}
	.st115{clip-path:url(#SVGID_164_);}
	.st116{clip-path:url(#SVGID_166_);}
	.st117{clip-path:url(#SVGID_168_);}
	.st118{clip-path:url(#SVGID_170_);}
	.st119{clip-path:url(#SVGID_172_);}
	.st120{clip-path:url(#SVGID_174_);}
	.st121{clip-path:url(#SVGID_176_);}
	.st122{clip-path:url(#SVGID_178_);}
	.st123{clip-path:url(#SVGID_180_);}
	.st124{clip-path:url(#SVGID_182_);}
	.st125{clip-path:url(#SVGID_184_);}
	.st126{clip-path:url(#SVGID_186_);}
	.st127{clip-path:url(#SVGID_188_);}
	.st128{clip-path:url(#SVGID_190_);}
	.st129{clip-path:url(#SVGID_192_);}
	.st130{clip-path:url(#SVGID_194_);}
	.st131{clip-path:url(#SVGID_196_);}
	.st132{clip-path:url(#SVGID_198_);}
	.st133{clip-path:url(#SVGID_200_);}
	.st134{clip-path:url(#SVGID_202_);}
	.st135{clip-path:url(#SVGID_204_);}
	.st136{clip-path:url(#SVGID_206_);}
	.st137{clip-path:url(#SVGID_208_);}
	.st138{clip-path:url(#SVGID_210_);}
	.st139{clip-path:url(#SVGID_212_);}
	.st140{clip-path:url(#SVGID_214_);}
	.st141{clip-path:url(#SVGID_216_);}
	.st142{clip-path:url(#SVGID_218_);}
	.st143{clip-path:url(#SVGID_220_);}
	.st144{clip-path:url(#SVGID_222_);}
	.st145{clip-path:url(#SVGID_224_);}
	.st146{clip-path:url(#SVGID_226_);}
	.st147{clip-path:url(#SVGID_228_);}
	.st148{clip-path:url(#SVGID_230_);}
	.st149{clip-path:url(#SVGID_232_);}
	.st150{clip-path:url(#SVGID_234_);}
	.st151{clip-path:url(#SVGID_236_);}
	.st152{clip-path:url(#SVGID_238_);}
	.st153{clip-path:url(#SVGID_240_);}
	.st154{clip-path:url(#SVGID_242_);}
	.st155{clip-path:url(#SVGID_244_);}
	.st156{clip-path:url(#SVGID_246_);}
	.st157{clip-path:url(#SVGID_248_);}
	.st158{clip-path:url(#SVGID_250_);}
	.st159{clip-path:url(#SVGID_252_);}
	.st160{clip-path:url(#SVGID_254_);}
	.st161{clip-path:url(#SVGID_256_);}
	.st162{clip-path:url(#SVGID_258_);}
	.st163{clip-path:url(#SVGID_260_);}
	.st164{clip-path:url(#SVGID_262_);}
	.st165{clip-path:url(#SVGID_264_);}
	.st166{clip-path:url(#SVGID_266_);}
	.st167{clip-path:url(#SVGID_268_);}
	.st168{clip-path:url(#SVGID_270_);}
	.st169{clip-path:url(#SVGID_272_);}
	.st170{clip-path:url(#SVGID_274_);}
	.st171{clip-path:url(#SVGID_276_);}
	.st172{clip-path:url(#SVGID_278_);}
	.st173{clip-path:url(#SVGID_280_);}
	.st174{clip-path:url(#SVGID_282_);}
	.st175{clip-path:url(#SVGID_284_);}
	.st176{clip-path:url(#SVGID_286_);}
	.st177{clip-path:url(#SVGID_288_);}
	.st178{clip-path:url(#SVGID_290_);}
	.st179{clip-path:url(#SVGID_292_);}
	.st180{clip-path:url(#SVGID_294_);}
	.st181{clip-path:url(#SVGID_296_);}
	.st182{clip-path:url(#SVGID_298_);}
	.st183{clip-path:url(#SVGID_300_);}
	.st184{clip-path:url(#SVGID_302_);}
	.st185{clip-path:url(#SVGID_304_);}
	.st186{clip-path:url(#SVGID_306_);}
	.st187{clip-path:url(#SVGID_308_);}
	.st188{clip-path:url(#SVGID_310_);}
	.st189{clip-path:url(#SVGID_312_);}
	.st190{clip-path:url(#SVGID_314_);}
	.st191{clip-path:url(#SVGID_316_);}
	.st192{clip-path:url(#SVGID_318_);}
	.st193{clip-path:url(#SVGID_320_);}
	.st194{clip-path:url(#SVGID_322_);}
	.st195{clip-path:url(#SVGID_324_);}
	.st196{clip-path:url(#SVGID_326_);}
	.st197{clip-path:url(#SVGID_328_);}
	.st198{clip-path:url(#SVGID_330_);}
	.st199{clip-path:url(#SVGID_332_);}
	.st200{clip-path:url(#SVGID_334_);}
	.st201{clip-path:url(#SVGID_336_);}
	.st202{fill:#CFD1D2;}
	.st203{fill:#23C9C9;}
	.st204{fill:#919396;}
	.st205{fill:#15B5B5;}
	.st206{fill:#13A39F;}
	.st207{fill:#46CE46;}
	.st208{fill:#31C431;}
	.st209{fill:#33BC33;}
	.st210{fill:#E86BE5;}
	.st211{fill:#D65BD6;}
	.st212{fill:#BF43BF;}
	.st213{fill:#F78857;}
	.st214{fill:#E07146;}
	.st215{fill:#CE6B21;}
	.st216{fill:none;stroke:#E4E5E6;stroke-miterlimit:10;}
	.st217{fill:#4283F2;}
	.st218{fill:none;stroke:#CFD1D2;stroke-width:3;stroke-miterlimit:10;}
	.st219{fill:none;stroke:#CFD1D2;stroke-width:4;stroke-miterlimit:10;}
	.st220{fill:none;stroke:#E4E5E6;stroke-width:5;stroke-linecap:round;stroke-linejoin:round;stroke-miterlimit:10;}
	.st221{opacity:0.2;fill:#F78857;}
	.st222{fill:#BABCBE;}
	.st223{opacity:0.2;fill:#E86BE5;}
	.st224{opacity:0.2;fill:#46CE46;}
	.st225{clip-path:url(#SVGID_338_);}
	.st226{opacity:0.35;}
	.st227{clip-path:url(#SVGID_340_);}
	.st228{fill:#E4E5E6;}
	.st229{fill:#4285F4;}
	.st230{clip-path:url(#SVGID_342_);}
	.st231{fill:none;stroke:#46CD46;stroke-width:2.1911;stroke-linecap:round;stroke-linejoin:round;stroke-miterlimit:10;}
	.st232{fill:none;stroke:#E76BE4;stroke-width:2.1911;stroke-linecap:round;stroke-linejoin:round;stroke-miterlimit:10;}
	.st233{fill:none;stroke:#F68757;stroke-width:2.1911;stroke-linecap:round;stroke-linejoin:round;stroke-miterlimit:10;}
	.st234{clip-path:url(#SVGID_344_);}
	.st235{clip-path:url(#SVGID_346_);}
	.st236{clip-path:url(#SVGID_348_);}
	.st237{clip-path:url(#SVGID_350_);}
	.st238{fill:none;stroke:#BABCBE;stroke-width:1.4649;stroke-miterlimit:10;}
	.st239{fill:#EA4335;}
	.st240{fill:#C42A22;}
	.st241{fill:#DD372F;}
	.st242{fill:none;stroke:#FFFFFF;stroke-width:5;stroke-miterlimit:10;}
	.st243{clip-path:url(#SVGID_352_);}
	.st244{fill:none;stroke:#46CD46;stroke-width:2.6556;stroke-linecap:round;stroke-linejoin:round;stroke-miterlimit:10;}
	.st245{fill:none;stroke:#E76BE4;stroke-width:2.6556;stroke-linecap:round;stroke-linejoin:round;stroke-miterlimit:10;}
	.st246{fill:none;stroke:#F68757;stroke-width:2.6556;stroke-linecap:round;stroke-linejoin:round;stroke-miterlimit:10;}
	.st247{clip-path:url(#SVGID_354_);}
	.st248{clip-path:url(#SVGID_356_);}
	.st249{clip-path:url(#SVGID_358_);}
	.st250{clip-path:url(#SVGID_360_);}
	.st251{fill:none;stroke:#BABCBE;stroke-width:1.7755;stroke-miterlimit:10;}
	.st252{fill:#808083;}
	.st253{clip-path:url(#SVGID_362_);}
	.st254{clip-path:url(#SVGID_364_);}
	.st255{clip-path:url(#SVGID_366_);}
	.st256{clip-path:url(#SVGID_368_);}
	.st257{clip-path:url(#SVGID_370_);}
	.st258{fill:#EF746F;}
	.st259{fill:#E23F3B;}
	.st260{clip-path:url(#SVGID_372_);}
	.st261{clip-path:url(#SVGID_374_);}
	.st262{clip-path:url(#SVGID_376_);}
	.st263{clip-path:url(#SVGID_378_);}
	.st264{clip-path:url(#SVGID_380_);}
	.st265{fill:#0066A8;}
	.st266{fill:#0080C4;}
	.st267{fill:#004A75;}
	.st268{fill:#00ABE0;}
	.st269{fill:#89D9F7;}
	.st270{fill:#0080AB;}
	.st271{fill:#FF2B30;}
	.st272{fill:#FF5255;}
	.st273{fill:#E72B2D;}
	.st274{opacity:0.5;}
	.st275{clip-path:url(#SVGID_382_);}
	.st276{fill:#2BAA5E;}
</style>
<g id="BG">
</g>
<g id="Boxes">
</g>
<g id="Layer_1">
	<g id="XMLID_165_">
		<path class="st252" d="M16,3.9v10.8h-2.2V7.8l-2.9,6.8H9.3L6.4,7.9v6.8H4.2V3.9h2.4l3.5,8l3.5-8H16z"/>
		<path class="st252" d="M25.6,14.7l-0.7-2h-4.2l-0.7,2h-2.3l3.8-10.8h2.6l3.8,10.8H25.6z M21.2,11h3.1l-1.6-4.5L21.2,11z"/>
		<path class="st252" d="M33.2,3.9c1.7,0,3.1,0.5,4.2,1.5s1.6,2.3,1.6,3.9s-0.5,2.9-1.6,3.9c-1.1,1-2.5,1.5-4.2,1.5h-3.7V3.9H33.2z
			 M31.8,13h1.5c1.1,0,2-0.3,2.7-1s0.9-1.6,0.9-2.7c0-1.1-0.3-2.1-0.9-2.7s-1.5-1-2.7-1h-1.5V13z"/>
		<path class="st252" d="M47.2,3.8v1.7h-4.1v2.8h3.6V10h-3.6v3h4.1v1.7h-6.2V3.8H47.2z"/>
		<path class="st252" d="M61.5,14.7l-0.7-2h-4.2l-0.7,2h-2.3l3.8-10.8H60l3.8,10.8H61.5z M57.1,11h3.1l-1.6-4.5L57.1,11z"/>
		<path class="st252" d="M64.8,5.5V3.9h8v1.7h-2.9v9.1h-2.2V5.5H64.8z"/>
		<path class="st74" d="M80.5,13.2c-1.1-1-1.6-2.4-1.6-4s0.5-2.9,1.6-4c1.1-1,2.4-1.6,3.9-1.6c1.2,0,2.2,0.3,3.1,0.9
			c0.9,0.6,1.6,1.4,2,2.5h-2.6c-0.5-1-1.3-1.4-2.5-1.4c-1,0-1.8,0.3-2.4,1c-0.6,0.6-0.9,1.5-0.9,2.6s0.3,1.9,0.9,2.6
			c0.6,0.6,1.4,1,2.3,1s1.6-0.2,2.1-0.7c0.5-0.4,0.8-1,1-1.8h-3.6V8.7h5.9v1.7c-0.2,1.2-0.8,2.2-1.7,3.1c-1,0.9-2.2,1.3-3.7,1.3
			S81.5,14.2,80.5,13.2z"/>
		<path class="st74" d="M93.5,13.4c0,0.4-0.1,0.6-0.4,0.9s-0.5,0.4-0.9,0.4c-0.3,0-0.6-0.1-0.9-0.4S91,13.8,91,13.4
			c0-0.4,0.1-0.6,0.4-0.9c0.2-0.2,0.5-0.4,0.9-0.4c0.3,0,0.6,0.1,0.9,0.4C93.4,12.8,93.5,13.1,93.5,13.4z"/>
		<path class="st74" d="M96.5,13.2c-1.1-1-1.6-2.4-1.6-4s0.5-2.9,1.6-4s2.4-1.6,3.9-1.6c1.2,0,2.2,0.3,3.1,0.9
			c0.9,0.6,1.6,1.4,2,2.5h-2.6c-0.5-1-1.3-1.4-2.5-1.4c-1,0-1.8,0.3-2.4,1c-0.6,0.6-0.9,1.5-0.9,2.6s0.3,1.9,0.9,2.6
			c0.6,0.6,1.4,1,2.4,1c1.2,0,2-0.5,2.5-1.4h2.6c-0.4,1.1-1,1.9-2,2.5c-0.9,0.6-2,0.9-3.1,0.9C98.9,14.8,97.5,14.2,96.5,13.2z"/>
		<path class="st74" d="M112.5,14.8c-1.6,0-2.9-0.5-3.9-1.6c-1.1-1-1.6-2.4-1.6-4s0.5-2.9,1.6-4s2.4-1.6,3.9-1.6
			c1.6,0,2.9,0.5,3.9,1.6s1.6,2.4,1.6,4s-0.5,2.9-1.6,4S114.1,14.8,112.5,14.8z M114.9,11.8c0.6-0.6,0.9-1.5,0.9-2.6
			c0-1.1-0.3-1.9-0.9-2.6c-0.6-0.6-1.4-1-2.4-1s-1.8,0.3-2.4,1c-0.6,0.6-0.9,1.5-0.9,2.6s0.3,1.9,0.9,2.6c0.6,0.6,1.4,1,2.4,1
			S114.3,12.5,114.9,11.8z"/>
		<path class="st74" d="M119.3,17.5L123.5,0h2.1l-4.2,17.5H119.3z"/>
		<path class="st74" d="M127,5.5V3.9h8v1.7H132v9.1h-2.2V5.5H127z"/>
		<path class="st74" d="M143,3.8v1.7H139v2.8h3.6V10H139v3h4.1v1.7h-6.2V3.8H143z"/>
		<path class="st74" d="M152.5,14.7l-0.7-2h-4.2l-0.7,2h-2.3l3.8-10.8h2.6l3.8,10.8H152.5z M148.2,11h3.1l-1.5-4.5L148.2,11z"/>
		<path class="st74" d="M157.5,13.2c-1.1-1-1.6-2.4-1.6-4s0.5-2.9,1.6-4c1.1-1,2.4-1.6,3.9-1.6c1.2,0,2.2,0.3,3.1,0.9
			c0.9,0.6,1.6,1.4,2,2.5h-2.6c-0.5-1-1.3-1.4-2.5-1.4c-1,0-1.8,0.3-2.4,1c-0.6,0.6-0.9,1.5-0.9,2.6s0.3,1.9,0.9,2.6
			c0.6,0.6,1.4,1,2.4,1c1.2,0,2-0.5,2.5-1.4h2.6c-0.4,1.1-1,1.9-2,2.5c-0.9,0.6-2,0.9-3.1,0.9C159.9,14.8,158.6,14.2,157.5,13.2z"/>
		<path class="st74" d="M175.4,3.9h2.2v10.8h-2.2V10h-4.6v4.6h-2.2V3.9h2.2v4.5h4.6V3.9z"/>
		<path class="st74" d="M187.2,14.7l-0.7-2h-4.2l-0.7,2h-2.3l3.8-10.8h2.6l3.8,10.8H187.2z M182.8,11h3.1l-1.6-4.5L182.8,11z"/>
		<path class="st74" d="M191.2,3.9h4.4c1.1,0,2,0.3,2.6,0.8c0.6,0.5,1,1.2,1,2c0,1.2-0.7,2-2.1,2.4c0.7,0.1,1.3,0.4,1.7,0.9
			s0.6,1.1,0.6,1.8c0,0.8-0.3,1.5-1,2.1c-0.6,0.5-1.5,0.8-2.6,0.8h-4.6V3.9z M193.4,5.5v2.8h2c0.5,0,0.9-0.1,1.2-0.4
			c0.3-0.2,0.4-0.6,0.4-1s-0.1-0.8-0.4-1c-0.3-0.2-0.7-0.4-1.2-0.4H193.4z M193.4,13h2.2c0.5,0,0.9-0.1,1.2-0.4s0.4-0.6,0.4-1.1
			s-0.1-0.8-0.4-1.1S196,10,195.5,10h-2.2V13z"/>
		<path class="st74" d="M201.4,3.9h2.2V13h3.5v1.7h-5.7V3.9z"/>
		<path class="st74" d="M214.9,3.8v1.7h-4.1v2.8h3.6V10h-3.6v3h4.1v1.7h-6.2V3.8H214.9z"/>
		<path class="st74" d="M229.1,3.9v10.8h-2.2V7.8l-2.9,6.8h-1.6l-2.9-6.8v6.8h-2.2V3.9h2.4l3.5,8l3.5-8H229.1z"/>
		<path class="st74" d="M238.7,14.7l-0.7-2h-4.2l-0.7,2h-2.3l3.8-10.8h2.6l3.8,10.8H238.7z M234.4,11h3.1l-1.6-4.5L234.4,11z"/>
		<path class="st74" d="M243.7,13.2c-1.1-1-1.6-2.4-1.6-4s0.5-2.9,1.6-4s2.4-1.6,3.9-1.6c1.2,0,2.2,0.3,3.1,0.9
			c0.9,0.6,1.6,1.4,2,2.5h-2.6c-0.5-1-1.3-1.4-2.5-1.4c-1,0-1.8,0.3-2.4,1c-0.6,0.6-0.9,1.5-0.9,2.6s0.3,1.9,0.9,2.6
			c0.6,0.6,1.4,1,2.4,1c1.2,0,2-0.5,2.5-1.4h2.6c-0.4,1.1-1,1.9-2,2.5c-0.9,0.6-2,0.9-3.1,0.9C246,14.8,244.7,14.2,243.7,13.2z"/>
		<path class="st74" d="M261.6,3.9h2.2v10.8h-2.2V10h-4.6v4.6h-2.2V3.9h2.2v4.5h4.6V3.9z"/>
		<path class="st74" d="M266.3,14.7V3.9h2.2v10.8H266.3z"/>
		<path class="st74" d="M278,3.8h2.2v10.8H278l-4.9-7.5v7.5h-2.2V3.8h2.2l4.9,7.5V3.8z"/>
		<path class="st74" d="M288.9,3.8v1.7h-4.1v2.8h3.6V10h-3.6v3h4.1v1.7h-6.2V3.8H288.9z"/>
	</g>
</g>
<g id="Annotations">
</g>
</svg>
