<?xml version="1.0" encoding="UTF-8"?>
<svg width="24px" height="20px" viewBox="0 0 24 20" version="1.1" xmlns="http://www.w3.org/2000/svg" xmlns:xlink="http://www.w3.org/1999/xlink">
    <!-- Generator: Sketch 46.2 (44496) - http://www.bohemiancoding.com/sketch -->
    <title>Fill 10</title>
    <desc>Created with Sketch.</desc>
    <defs></defs>
    <g id="Page-1" stroke="none" stroke-width="1" fill="none" fill-rule="evenodd">
        <path d="M23.8656,2.8769 C23.0026,3.2599 22.0746,3.5189 21.1006,3.6349 C22.0946,3.0389 22.8576,2.0959 23.2176,0.9719 C22.2876,1.5229 21.2576,1.9239 20.1606,2.1399 C19.2826,1.2039 18.0306,0.6199 16.6466,0.6199 C13.9876,0.6199 11.8326,2.7749 11.8326,5.4339 C11.8326,5.8109 11.8746,6.1789 11.9566,6.5309 C7.9556,6.3299 4.4086,4.4129 2.0336,1.5009 C1.6196,2.2119 1.3826,3.0389 1.3826,3.9209 C1.3826,5.5909 2.2316,7.0649 3.5236,7.9279 C2.7346,7.9029 1.9916,7.6869 1.3436,7.3259 C1.3426,7.3459 1.3426,7.3659 1.3426,7.3869 C1.3426,9.7189 3.0026,11.6649 5.2046,12.1069 C4.8006,12.2169 4.3756,12.2759 3.9356,12.2759 C3.6256,12.2759 3.3246,12.2459 3.0306,12.1899 C3.6426,14.1019 5.4216,15.4939 7.5276,15.5329 C5.8806,16.8249 3.8036,17.5939 1.5486,17.5939 C1.1596,17.5939 0.7766,17.5709 0.3996,17.5269 C2.5306,18.8929 5.0606,19.6899 7.7796,19.6899 C16.6356,19.6899 21.4776,12.3539 21.4776,5.9919 C21.4776,5.7829 21.4726,5.5759 21.4636,5.3689 C22.4046,4.6899 23.2196,3.8419 23.8656,2.8769" id="Fill-10" fill="#FFFFFF"></path>
    </g>
</svg>