<svg xmlns="http://www.w3.org/2000/svg" viewBox="0 0 23.47 19.07"><title>social-twitter_1</title><g id="Layer_2" data-name="Layer 2"><g id="twitter"><path d="M23.47,2.26A9.62,9.62,0,0,1,20.7,3,4.83,4.83,0,0,0,22.82.35a9.64,9.64,0,0,1-3.06,1.17,4.82,4.82,0,0,0-8.2,4.39,13.67,13.67,0,0,1-9.92-5A4.82,4.82,0,0,0,3.12,7.31a4.79,4.79,0,0,1-2.18-.6v.06a4.82,4.82,0,0,0,3.86,4.72,4.83,4.83,0,0,1-2.17.08,4.82,4.82,0,0,0,4.5,3.34,9.66,9.66,0,0,1-6,2.06A9.7,9.7,0,0,1,0,16.91a13.62,13.62,0,0,0,7.38,2.16,13.6,13.6,0,0,0,13.7-13.7c0-.21,0-.42,0-.62a9.81,9.81,0,0,0,2.4-2.49"/></g></g></svg>