<?xml version="1.0" encoding="UTF-8"?>
<svg width="52px" height="104px" viewBox="0 0 52 104" version="1.1" xmlns="http://www.w3.org/2000/svg" xmlns:xlink="http://www.w3.org/1999/xlink">
    <!-- Generator: Sketch 46.2 (44496) - http://www.bohemiancoding.com/sketch -->
    <title>_Compound_Path_</title>
    <desc>Created with Sketch.</desc>
    <defs></defs>
    <g id="Page-1" stroke="none" stroke-width="1" fill="none" fill-rule="evenodd">
        <path d="M0,69.45 L0,86.55 L11.5557894,86.55 L25.9905297,100.81 L25.9905297,55.19 L11.5557894,69.45 L0,69.45 Z M38.9857946,78 C38.9720453,73.1051297 36.1710726,68.646002 31.7684244,66.51 L31.7684244,89.46 C36.1729871,87.34174 38.9773371,82.8888922 38.9857946,78 L38.9857946,78 Z M31.7684244,53 L31.7684244,58.87 C40.3133562,61.3033371 46.2075043,69.1123564 46.2075043,78 C46.2075043,86.8876436 40.3133562,94.6966629 31.7684244,97.13 L31.7684244,103 C43.5655163,100.488167 52,90.0657416 52,78 C52,65.9342584 43.5655163,55.5118328 31.7684244,53 Z" id="_Compound_Path_" fill="#FFFFFF" fill-rule="nonzero"></path>
        <polygon id="_Compound_Path_-Copy" fill="#FFFFFF" fill-rule="nonzero" points="0 17.45 0 34.55 11.5557894 34.55 25.9905297 48.81 25.9905297 3.19 11.5557894 17.45"></polygon>
    </g>
</svg>