<?xml version="1.0" encoding="utf-8"?>
<!-- Generator: Adobe Illustrator 21.0.2, SVG Export Plug-In . SVG Version: 6.00 Build 0)  -->
<svg version="1.1" xmlns="http://www.w3.org/2000/svg" xmlns:xlink="http://www.w3.org/1999/xlink" x="0px" y="0px"
	 viewBox="0 0 1280 320" style="enable-background:new 0 0 1280 320;" xml:space="preserve">
<style type="text/css">
	.st0{fill:#E9E9E9;}
	.st1{fill:#EC1C24;}
	.st2{fill:#808184;}
	.st3{fill:#0080C4;}
	.st4{fill:#004A75;}
	.st5{fill:#FFFFFF;}
	.st6{fill:#89D9F7;}
	.st7{fill:#0080AB;}
	.st8{fill:#0066A8;}
	.st9{fill:#00ABE0;}
	.st10{fill:#4282F1;}
	.st11{fill:#2068D0;}
	.st12{fill:#2974E1;}
	.st13{fill:#DBDBDB;}
	.st14{fill:none;stroke:#DBDBDB;stroke-width:2;stroke-miterlimit:10;}
	.st15{fill:#F68757;}
	.st16{fill:#E76BE4;}
	.st17{fill:#46CD46;}
	.st18{fill:#A6A8AB;}
	.st19{fill:#C4C4C4;}
	.st20{fill:#929497;}
	.st21{fill:#A7A9AC;}
	.st22{fill:url(#SVGID_1_);}
	.st23{fill:url(#SVGID_2_);}
	.st24{fill:url(#SVGID_3_);}
	.st25{fill:url(#SVGID_4_);}
	.st26{fill:none;stroke:#A0A0A0;stroke-width:2;stroke-miterlimit:10;}
	.st27{fill:none;stroke:#A7A9AC;stroke-width:2;stroke-miterlimit:10;}
	.st28{fill:none;stroke:#EC1C24;stroke-width:3;stroke-miterlimit:10;}
	.st29{fill:url(#SVGID_5_);}
	.st30{fill:url(#SVGID_6_);}
	.st31{fill:url(#SVGID_7_);}
	.st32{fill:url(#SVGID_8_);}
	.st33{fill:url(#SVGID_9_);}
	.st34{fill:url(#SVGID_10_);}
	.st35{fill:url(#SVGID_11_);}
	.st36{fill:url(#SVGID_12_);}
	.st37{fill:url(#SVGID_13_);}
	.st38{fill:url(#SVGID_14_);}
	.st39{fill:url(#SVGID_15_);}
	.st40{fill:url(#SVGID_16_);}
</style>
<g id="Layer_2">
</g>
<g id="Layer_1">
	<g>
		<g>
			<polygon class="st13" points="971,271.5 989.9,271.5 989.9,250.3 969,234.1 993.8,234.1 993.8,212.8 955,182.7 894.6,182.7 
				894.8,280.5 933.6,310.6 994,310.6 993.9,289.3 			"/>
			<path class="st13" d="M751.8,310.6l-0.2-97.5L712.8,183h-26.6l0.1,24.9L654.1,183h-26.6l0.2,97.5l38.8,30.1h26.6l-0.1-24.9
				l32.1,24.9H751.8z"/>
			<g>
				<path class="st13" d="M1229.4,113.1h-127.1v112l33.3,25.9c1.3,0.7,2.8,1.1,4.3,1.1h116.2c4.8,0,8.6-3.9,8.6-8.6v-98.4
					c0-3.1-1.7-5.9-4.3-7.5L1229.4,113.1z"/>
			</g>
			<polygon class="st13" points="322.4,104 322.4,82.8 283.6,52.7 206.1,52.7 206.2,70.8 206.1,70.8 206.1,73.9 231.6,93.7 
				231.7,150.2 270.5,180.2 297.1,180.2 297,104 			"/>
			<path class="st13" d="M399.2,159l-22.9-17.8h18.9l0-21.3l-20.9-16.2h24.8l0-21.3l-38.8-30.1h-60.4l0.2,97.7l38.8,30.1h60.4
				L399.2,159z"/>
			<path class="st13" d="M509.7,180.2l-33.8-97.7l-38.8-30.1h-30.4l-33.5,97.7l38.8,30.1h28.4l5.1-15.7H461l20.3,15.7H509.7z"/>
			<path class="st13" d="M827,180.2l-33.8-97.7l-38.8-30.1H724l-33.5,97.7l38.8,30.1h28.4l5.1-15.7h15.6l20.3,15.7H827z"/>
			<path class="st13" d="M716.2,180.2L716,82.8l-38.8-30.1h-26.6l0.1,24.9l-32.1-24.9h-26.6l0.2,97.5l38.8,30.1h26.6l-0.1-24.9
				l32.1,24.9H716.2z"/>
			<path class="st13" d="M867.5,60.1c-6-4.9-14-7.4-23.9-7.4h-42.5l0.2,97.5l38.8,30.1h44.7c10.2,0,18.2-2.4,24-7
				c5.9-4.8,8.9-11.3,8.9-19.3c0-6.3-2.1-11.9-6.1-16.6c-1.6-1.8-3.4-3.4-5.4-4.7c-1.1-1-2.3-1.9-3.5-2.7c0,0-0.1-0.1-0.1-0.1
				c8.5-4.4,12.9-11.3,12.8-20.6c0-7.7-3.1-14.1-9.2-19.1L867.5,60.1z"/>
			<polygon class="st13" points="936.2,180.2 991.2,180.2 991.1,159 962.8,137 962.7,82.8 923.9,52.7 897.2,52.7 897.5,150.2 			"/>
			<g>
				<g>
					<polygon class="st13" points="774.4,310.6 801.1,310.6 800.8,213.1 762.1,183 735.4,183 735.6,280.5 					"/>
				</g>
			</g>
			<polygon class="st13" points="911,310.6 910.8,212.8 872,182.7 845.4,182.7 845.4,212.8 829.9,212.8 810.4,182.7 784.7,182.7 
				784.9,280.5 823.7,310.6 850.3,310.6 850.3,283.4 885.2,310.6 			"/>
			<g>
				<path class="st13" d="M142.2,113.1H15.1v112l33.3,25.9c1.3,0.7,2.8,1.1,4.3,1.1h116.2c4.8,0,8.6-3.9,8.6-8.6v-98.4
					c0-3.1-1.7-5.9-4.3-7.5L142.2,113.1z"/>
			</g>
			<path class="st13" d="M534.5,169.4c9.1,7.7,20,11.6,32.6,11.6c10.7,0,20.4-2.9,28.7-8.6c8.4-5.7,14.3-13.8,17.6-23.9l0.8-2.6
				l-38.8-30.1h-27.2c0.6-1,1.4-2,2.2-2.9c2.1-2.3,4.6-4,7.4-5.1h13.4l11.9,8.7h31l-0.8-2.6c-3.3-10-9.1-17.9-17.2-23.6l-39.2-30.4
				c-8.4-5.7-18-8.6-28.7-8.6c-13.8,0-25.7,4.7-35.3,14.1c-9.6,9.4-14.4,21.4-14.4,35.7c0,14.3,4.9,26.4,14.6,35.7L534.5,169.4z"/>
			<path class="st13" d="M570.1,299.8c9.1,7.7,20,11.6,32.6,11.6c10.7,0,20.4-2.9,28.7-8.6c8.4-5.7,14.3-13.8,17.6-23.9l0.8-2.6
				L611,246.2h-27.2c0.6-1,1.4-2,2.2-2.9c2.1-2.3,4.6-4,7.4-5.1h13.4l11.9,8.7h31l-0.8-2.6c-3.3-10-9.1-17.9-17.2-23.6l-39.2-30.4
				c-8.4-5.7-18-8.6-28.7-8.6c-13.8,0-25.7,4.7-35.3,14.1c-9.6,9.4-14.4,21.4-14.4,35.7c0,14.3,4.9,26.4,14.6,35.7L570.1,299.8z"/>
			<polygon class="st13" points="1043.9,141.2 1062.8,141.2 1062.7,119.9 1041.9,103.8 1066.7,103.8 1066.6,82.5 1027.8,52.4 
				967.5,52.4 967.7,150.2 1006.5,180.2 1066.8,180.2 1066.8,159 			"/>
			<path class="st13" d="M434.4,310.6l-0.2-97.5L395.4,183h-29.3l-12.4,30.1h-25.9L315.3,183H286l0.2,97.5l38.8,30.1h26.6l0-14.3
				l18.4,14.3h19.5l4.4-10.8l13.9,10.8H434.4z"/>
			<path class="st13" d="M545.3,310.6l-33.8-97.7l-38.8-30.1h-30.4l-33.5,97.7l38.8,30.1h28.4l5.1-15.7h15.6l20.3,15.7H545.3z"/>
		</g>
		<g>
			<g>
				<g>
					<path class="st14" d="M984.3,284.4c84,0,234.1,39.7,234.1-32.5"/>
				</g>
				<g>
					<path class="st14" d="M980.2,246.6c61.4,0,205.8,71,205.8,5.2"/>
				</g>
				<g>
					<path class="st14" d="M984.3,208.4c63.8,0,169.5,94.2,169.5,43.5"/>
				</g>
				<g>
					<path class="st14" d="M410.8,165.2c-6.7,24.3,69.6-3.4,69.6,19.4"/>
				</g>
				<g>
					<path class="st14" d="M629.9,165.2c0,17.3,36-1.9,36,19.2"/>
				</g>
				<g>
					<path class="st14" d="M797.6,165.2c5.3,11.7,25.3,4.4,25.3,19.4"/>
				</g>
				<g>
					<path class="st14" d="M58.5,118.5C89.3,30.1,296-1.1,296,54.2"/>
				</g>
				<g>
					<path class="st14" d="M101.3,118.5c21-81.2,168.5-112,168.5-64.3"/>
				</g>
				<g>
					<path class="st14" d="M138.6,117.2c0-58.9,104.9-108,104.9-62.9"/>
				</g>
			</g>
		</g>
		<g>
			<polygon class="st18" points="1214.4,225.2 1102.3,225.2 1102.3,113.1 1117.4,98.1 1229.4,98.1 1229.4,210.2 			"/>
			<rect x="1117.4" y="98.1" class="st5" width="112" height="112"/>
			<polygon class="st19" points="1117.4,98.1 1102.3,113.1 1102.3,225.2 1117.4,210.2 			"/>
		</g>
		<path class="st15" d="M1198.3,216.3c-3.9,0-7.1,1.6-7.1,3v1v8.5v1c0,1.4,3.2,3,7.1,3c3.9,0,7.1-1.6,7.1-3v-1v-8.5v-1
			C1205.4,217.9,1202.2,216.3,1198.3,216.3z"/>
		<path class="st15" d="M802.8,165.5c-3.9,0-7.1,1.6-7.1,3v1v8.5v1c0,1.4,3.2,3,7.1,3c3.9,0,7.1-1.6,7.1-3v-1v-8.5v-1
			C810,167.1,806.8,165.5,802.8,165.5z"/>
		<path class="st16" d="M1166,216.3c-3.9,0-7.1,1.6-7.1,3v1v8.5v1c0,1.4,3.2,3,7.1,3c3.9,0,7.1-1.6,7.1-3v-1v-8.5v-1
			C1173.1,217.9,1170,216.3,1166,216.3z"/>
		<path class="st16" d="M645.8,165.4c-3.9,0-7.1,1.6-7.1,3v1v8.5v1c0,1.4,3.2,3,7.1,3c3.9,0,7.1-1.6,7.1-3v-1v-8.5v-1
			C652.9,167,649.7,165.4,645.8,165.4z"/>
		<path class="st17" d="M1133.7,216.3c-3.9,0-7.1,1.6-7.1,3v1v8.5v1c0,1.4,3.2,3,7.1,3c3.9,0,7.1-1.6,7.1-3v-1v-8.5v-1
			C1140.9,217.9,1137.7,216.3,1133.7,216.3z"/>
		<path class="st15" d="M276,35.2c-3.9,0-7.1,1.6-7.1,3v1v8.5v1c0,1.4,3.2,3,7.1,3c3.9,0,7.1-1.6,7.1-3v-1v-8.5v-1
			C283.1,36.8,279.9,35.2,276,35.2z"/>
		<path class="st16" d="M249.7,35.2c-3.9,0-7.1,1.6-7.1,3v1v8.5v1c0,1.4,3.2,3,7.1,3c3.9,0,7.1-1.6,7.1-3v-1v-8.5v-1
			C256.8,36.8,253.6,35.2,249.7,35.2z"/>
		<path class="st17" d="M223.4,35.2c-3.9,0-7.1,1.6-7.1,3v1v8.5v1c0,1.4,3.2,3,7.1,3c3.9,0,7.1-1.6,7.1-3v-1v-8.5v-1
			C230.6,36.8,227.4,35.2,223.4,35.2z"/>
		<path class="st17" d="M460.3,165.5c-3.9,0-7.1,1.6-7.1,3v1v8.5v1c0,1.4,3.2,3,7.1,3c3.9,0,7.1-1.6,7.1-3v-1v-8.5v-1
			C467.4,167.1,464.2,165.5,460.3,165.5z"/>
		<path id="XMLID_1_" class="st18" d="M1145.5,144.8v18.6h12.4l15.5,15.5v-49.6l-15.5,15.5H1145.5z M1187.3,154.2
			c0-5.5-3.2-10.2-7.8-12.5v25C1184.2,164.4,1187.3,159.6,1187.3,154.2z M1179.6,126.9v6.4c9,2.7,15.5,11,15.5,20.8
			c0,9.8-6.5,18.2-15.5,20.8v6.4c12.4-2.8,21.7-13.9,21.7-27.2S1192,129.8,1179.6,126.9z"/>
		<g>
			<g>
				<polygon class="st18" points="283.8,52.4 283.9,73.6 258.4,73.6 258.6,149.8 231.9,149.8 231.8,73.6 206.4,73.6 206.3,52.4 				
					"/>
			</g>
			<g>
				<polygon class="st18" points="292.6,43.7 292.7,64.9 283.9,73.6 283.8,52.4 				"/>
			</g>
			<g>
				<polygon class="st18" points="292.7,64.9 283.9,73.6 258.4,73.6 267.2,64.9 				"/>
			</g>
			<g>
				<polygon class="st18" points="215.1,43.7 292.6,43.7 283.8,52.4 206.3,52.4 				"/>
			</g>
			<g>
				<polygon class="st18" points="240.6,64.9 231.8,73.6 206.4,73.6 215.2,64.9 				"/>
			</g>
			<g>
				<polygon class="st19" points="215.2,64.9 206.4,73.6 206.3,52.4 215.1,43.7 				"/>
			</g>
			<g>
				<polygon class="st18" points="267.2,64.9 267.4,141.2 258.6,149.8 258.4,73.6 				"/>
			</g>
			<g>
				<polygon class="st18" points="267.4,141.2 258.6,149.8 231.9,149.8 240.7,141.2 				"/>
			</g>
			<g>
				<polygon class="st19" points="240.7,141.2 231.9,149.8 231.8,73.6 240.6,64.9 				"/>
			</g>
			<g>
				<polygon class="st18" points="360.5,52.1 360.5,73.4 326.8,73.4 326.8,89.5 356.6,89.5 356.6,110.8 326.9,110.8 326.9,128.6 
					360.6,128.6 360.7,149.8 300.3,149.8 300.1,52.1 				"/>
			</g>
			<g>
				<polygon class="st18" points="369.3,43.4 369.3,64.7 360.5,73.4 360.5,52.1 				"/>
			</g>
			<g>
				<polygon class="st18" points="369.3,64.7 360.5,73.4 326.8,73.4 335.6,64.7 				"/>
			</g>
			<g>
				<polygon class="st18" points="308.9,43.4 369.3,43.4 360.5,52.1 300.1,52.1 				"/>
			</g>
			<g>
				<polygon class="st18" points="365.4,80.9 365.4,102.1 356.6,110.8 356.6,89.5 				"/>
			</g>
			<g>
				<polygon class="st18" points="335.6,64.7 335.6,80.9 326.8,89.5 326.8,73.4 				"/>
			</g>
			<g>
				<polygon class="st18" points="335.6,80.9 365.4,80.9 356.6,89.5 326.8,89.5 				"/>
			</g>
			<g>
				<polygon class="st18" points="365.4,102.1 356.6,110.8 326.9,110.8 335.7,102.1 				"/>
			</g>
			<g>
				<polygon class="st18" points="369.4,119.9 369.5,141.2 360.7,149.8 360.6,128.6 				"/>
			</g>
			<g>
				<polygon class="st18" points="335.7,119.9 369.4,119.9 360.6,128.6 326.9,128.6 				"/>
			</g>
			<g>
				<polygon class="st18" points="335.7,102.1 335.7,119.9 326.9,128.6 326.9,110.8 				"/>
			</g>
			<g>
				<polygon class="st18" points="369.5,141.2 360.7,149.8 300.3,149.8 309.1,141.2 				"/>
			</g>
			<g>
				<polygon class="st19" points="309.1,141.2 300.3,149.8 300.1,52.1 308.9,43.4 				"/>
			</g>
			<g>
				<path class="st18" d="M528.3,51c10.7,0,20.4,2.9,28.7,8.6c8.4,5.7,14.3,13.8,17.7,23.9l0.8,2.6h-31l-0.6-1.1
					c-3.2-6.2-8.2-9.2-15.3-9.2c-7.3,0-12.8,2.2-16.9,6.7s-6.2,10.6-6.2,18.3c0,7.6,2.1,13.8,6.2,18.3c4.1,4.5,9.7,6.7,17,6.7
					c7.1,0,12-3,15.2-9.2l0.5-1.1l31,0l-0.8,2.6c-3.3,10.1-9.2,18.2-17.6,23.9c-8.3,5.7-18,8.6-28.7,8.6c-13.8,0-25.7-4.7-35.3-14.1
					c-9.6-9.4-14.5-21.4-14.6-35.7c0-14.3,4.8-26.4,14.4-35.7C502.6,55.8,514.5,51,528.3,51z"/>
			</g>
			<g>
				<polygon class="st18" points="583.5,74.9 584.4,77.5 575.6,86.1 574.7,83.6 				"/>
			</g>
			<g>
				<path class="st18" d="M537.1,42.3c10.7,0,20.4,2.9,28.7,8.6c8.4,5.7,14.3,13.8,17.7,23.9l-8.8,8.7c-3.3-10.1-9.3-18.2-17.7-23.9
					c-8.4-5.7-18-8.6-28.7-8.6L537.1,42.3z"/>
			</g>
			<g>
				<polygon class="st18" points="584.4,77.5 575.6,86.1 544.6,86.1 553.4,77.5 				"/>
			</g>
			<g>
				<polygon class="st18" points="584.5,106.8 583.6,109.4 574.8,118.1 575.7,115.5 				"/>
			</g>
			<linearGradient id="SVGID_1_" gradientUnits="userSpaceOnUse" x1="521.7152" y1="90.907" x2="545.1938" y2="67.4284">
				<stop  offset="0" style="stop-color:#BBBDBF"/>
				<stop  offset="1" style="stop-color:#A6A8AB"/>
			</linearGradient>
			<path class="st22" d="M552.8,76.4c-3.2-6.2-8.2-9.2-15.3-9.2c-6.9,0-12.2,1.9-16.2,5.9l-8.8,8.7c4-4,9.3-5.9,16.2-5.9
				c7.1,0,12,3,15.3,9.2l0.6,1.1l8.8-8.7L552.8,76.4z"/>
			<g>
				<polygon class="st18" points="553.5,106.8 584.5,106.8 575.7,115.5 544.7,115.5 				"/>
			</g>
			<g>
				<polygon class="st18" points="552.9,107.9 544.1,116.6 544.7,115.5 553.5,106.8 				"/>
			</g>
			<g>
				<path class="st18" d="M501.8,56.4c9.6-9.3,21.4-14.1,35.3-14.1l-8.8,8.7c-13.8,0-25.7,4.7-35.3,14.1
					C495.7,62.5,499.2,59,501.8,56.4z"/>
			</g>
			<g>
				<path class="st18" d="M563.4,136.9c5.2-5.1,9-11.4,11.4-18.8l8.8-8.7c-2.4,7.4-6.2,13.7-11.4,18.8
					C569.6,130.9,566.1,134.3,563.4,136.9z"/>
			</g>
			<g>
				<path class="st18" d="M549.5,112.7l-8.8,8.7c1.3-1.3,2.5-2.9,3.4-4.8l8.8-8.7C551.9,109.8,550.8,111.4,549.5,112.7z"/>
			</g>
			<g>
				<path class="st18" d="M521.4,73.1c-0.3,0.3-0.5,0.5-0.8,0.8c-4.1,4.5-6.2,10.6-6.2,18.3c0,7.6,2.1,13.8,6.2,18.3
					c4.1,4.5,9.7,6.7,17,6.7c4.9,0,8.8-1.4,11.8-4.4l-8.8,8.7c-3,3-6.9,4.4-11.8,4.4c-7.3,0-12.8-2.2-17-6.7
					c-4.1-4.5-6.2-10.6-6.2-18.3c0-7.6,2.1-13.8,6.2-18.3c0.2-0.3,0.5-0.5,0.8-0.8C515.2,79.2,518.8,75.7,521.4,73.1z"/>
			</g>
			<g>
				<linearGradient id="SVGID_2_" gradientUnits="userSpaceOnUse" x1="492.9855" y1="136.3346" x2="537.3675" y2="91.9526">
					<stop  offset="0" style="stop-color:#BBBDBF"/>
					<stop  offset="1" style="stop-color:#A6A8AB"/>
				</linearGradient>
				<path class="st23" d="M572.2,128.3l-8.8,8.7c-1.9,1.9-3.9,3.6-6.2,5.1c-8.3,5.7-18,8.6-28.7,8.6c-13.8,0-25.7-4.7-35.3-14.1
					c-9.6-9.4-14.5-21.4-14.6-35.7c0-14.3,4.8-26.4,14.4-35.7l8.8-8.7c-9.6,9.4-14.4,21.4-14.4,35.7c0,14.3,4.9,26.4,14.6,35.7
					c9.6,9.4,21.5,14.1,35.3,14.1c10.7,0,20.4-2.9,28.7-8.6C568.3,131.8,570.3,130.1,572.2,128.3z"/>
			</g>
			<g>
				<path class="st18" d="M437.3,52.1l33.8,97.7h-28.5l-5.2-15.7h-30.6l-5.1,15.7h-28.4l33.5-97.7H437.3z M413.8,112.9h16.6
					L422,87.8L413.8,112.9"/>
			</g>
			<g>
				<polygon class="st18" points="415.7,43.4 446.1,43.4 437.3,52.1 406.9,52.1 				"/>
			</g>
			<g>
				<polygon class="st18" points="446.1,43.4 479.9,141.2 471.2,149.8 437.3,52.1 				"/>
			</g>
			<g>
				<polygon class="st18" points="439.2,104.2 430.4,112.9 422,87.8 430.8,79.1 				"/>
			</g>
			<g>
				<polygon class="st18" points="430.8,79.1 422.6,104.2 413.8,112.9 422,87.8 				"/>
			</g>
			<g>
				<polygon class="st18" points="422.6,104.2 439.2,104.2 430.4,112.9 413.8,112.9 				"/>
			</g>
			<g>
				<polygon class="st19" points="451.5,141.2 442.7,149.8 437.5,134.1 446.3,125.4 				"/>
			</g>
			<g>
				<polygon class="st18" points="479.9,141.2 471.2,149.8 442.7,149.8 451.5,141.2 				"/>
			</g>
			<g>
				<polygon class="st18" points="446.3,125.4 437.5,134.1 406.8,134.1 415.6,125.4 				"/>
			</g>
			<g>
				<polygon class="st18" points="415.6,125.4 410.5,141.2 401.7,149.8 406.8,134.1 				"/>
			</g>
			<g>
				<polygon class="st19" points="382.1,141.2 373.3,149.8 406.9,52.1 415.7,43.4 				"/>
			</g>
			<g>
				<polygon class="st18" points="410.5,141.2 401.7,149.8 373.3,149.8 382.1,141.2 				"/>
			</g>
			<g>
				<polygon class="st18" points="677.4,52.4 677.6,149.8 651,149.8 650.9,111.1 618.9,111.1 618.9,149.8 592.3,149.8 592.1,52.4 
					618.7,52.4 618.8,89.8 650.9,89.8 650.8,52.4 				"/>
			</g>
			<g>
				<polygon class="st18" points="659.6,43.7 686.2,43.7 677.4,52.4 650.8,52.4 				"/>
			</g>
			<g>
				<polygon class="st19" points="659.6,81.1 650.9,89.8 650.8,52.4 659.6,43.7 				"/>
			</g>
			<g>
				<polygon class="st18" points="600.9,43.7 627.5,43.7 618.7,52.4 592.1,52.4 				"/>
			</g>
			<g>
				<polygon class="st18" points="627.6,81.1 659.6,81.1 650.9,89.8 618.8,89.8 				"/>
			</g>
			<g>
				<polygon class="st18" points="627.5,43.7 627.6,81.1 618.8,89.8 618.7,52.4 				"/>
			</g>
			<g>
				<polygon class="st18" points="686.2,43.7 686.4,141.2 677.6,149.8 677.4,52.4 				"/>
			</g>
			<g>
				<polygon class="st18" points="659.7,102.4 650.9,111.1 618.9,111.1 627.6,102.4 				"/>
			</g>
			<g>
				<polygon class="st18" points="686.4,141.2 677.6,149.8 651,149.8 659.8,141.2 				"/>
			</g>
			<g>
				<polygon class="st19" points="659.8,141.2 651,149.8 650.9,111.1 659.7,102.4 				"/>
			</g>
			<g>
				<polygon class="st18" points="627.6,102.4 627.7,141.2 618.9,149.8 618.9,111.1 				"/>
			</g>
			<g>
				<polygon class="st18" points="627.7,141.2 618.9,149.8 592.3,149.8 601.1,141.2 				"/>
			</g>
			<g>
				<polygon class="st19" points="601.1,141.2 592.3,149.8 592.1,52.4 600.9,43.7 				"/>
			</g>
			<g>
				<path class="st18" d="M754.7,52.1l33.8,97.7H760l-5.2-15.7h-30.6l-5.1,15.7h-28.4l33.5-97.7H754.7z M731.2,112.9h16.6l-8.4-25.1
					L731.2,112.9"/>
			</g>
			<g>
				<polygon class="st18" points="733,43.4 763.5,43.4 754.7,52.1 724.2,52.1 				"/>
			</g>
			<g>
				<polygon class="st18" points="763.5,43.4 797.3,141.2 788.5,149.8 754.7,52.1 				"/>
			</g>
			<g>
				<polygon class="st18" points="756.5,104.2 747.7,112.9 739.4,87.8 748.2,79.1 				"/>
			</g>
			<g>
				<polygon class="st18" points="748.2,79.1 739.9,104.2 731.2,112.9 739.4,87.8 				"/>
			</g>
			<g>
				<polygon class="st18" points="739.9,104.2 756.5,104.2 747.7,112.9 731.2,112.9 				"/>
			</g>
			<g>
				<polygon class="st19" points="768.8,141.2 760,149.8 754.8,134.1 763.6,125.4 				"/>
			</g>
			<g>
				<polygon class="st18" points="797.3,141.2 788.5,149.8 760,149.8 768.8,141.2 				"/>
			</g>
			<g>
				<polygon class="st18" points="763.6,125.4 754.8,134.1 724.2,134.1 733,125.4 				"/>
			</g>
			<g>
				<polygon class="st18" points="733,125.4 727.8,141.2 719,149.8 724.2,134.1 				"/>
			</g>
			<g>
				<polygon class="st19" points="699.5,141.2 690.7,149.8 724.2,52.1 733,43.4 				"/>
			</g>
			<g>
				<polygon class="st18" points="727.8,141.2 719,149.8 690.7,149.8 699.5,141.2 				"/>
			</g>
			<g>
				<path class="st18" d="M873,106.9c4,4.7,6.1,10.3,6.1,16.6c0,8-3,14.5-8.9,19.3c-5.8,4.7-13.8,7-24,7h-44.7l-0.2-97.5h42.5
					c9.9,0,17.9,2.5,23.9,7.4c6.1,5,9.2,11.4,9.2,19.1c0,9.6-4.6,16.7-13.9,21.1C867,101.4,870.3,103.7,873,106.9z M849.7,126.3
					c1.6-1.5,2.4-3.5,2.4-6.3c0-2.8-0.8-4.9-2.4-6.5c-1.6-1.6-3.6-2.4-6.2-2.4h-15.4l0,17.4h15.2C845.9,128.6,848,127.8,849.7,126.3
					 M828,73.6l0,16.3H841c2.8,0,5-0.7,6.6-2.1c1.5-1.3,2.3-3.3,2.3-6c0-2.8-0.8-4.8-2.3-6.1c-1.6-1.4-3.8-2.1-6.6-2.1H828"/>
			</g>
			<g>
				<path class="st18" d="M870.6,94.7c4.2-4.1,6.3-9.4,6.3-15.9c0-7.7-3.1-14.1-9.2-19.1c-6-4.9-14-7.4-23.9-7.4l8.8-8.7
					c9.9,0,17.9,2.5,23.9,7.4c6.1,5,9.2,11.4,9.2,19.1c0,6.5-2.1,11.8-6.3,15.9C876.8,88.7,873.3,92.1,870.6,94.7z"/>
			</g>
			<g>
				<path class="st18" d="M879.4,86.1l-8.8,8.7c-2,2-4.6,3.7-7.6,5.2l8.8-8.7C874.9,89.8,877.4,88.1,879.4,86.1z"/>
			</g>
			<g>
				<path class="st18" d="M871.8,91.2c3.9,1.5,7.3,3.8,10,7l-8.8,8.7c-2.7-3.2-6.1-5.5-10-7C865.7,97.3,869.2,93.8,871.8,91.2z"/>
			</g>
			<g>
				<path class="st18" d="M856.7,78.9l-8.8,8.7c1.3-1.3,2-3.2,1.9-5.7c0-2.8-0.8-4.8-2.3-6.1c-1.6-1.4-3.8-2.1-6.6-2.1l8.8-8.7
					c2.8,0,5,0.7,6.6,2.1c1.6,1.3,2.3,3.4,2.3,6.1C858.7,75.7,858,77.6,856.7,78.9z"/>
			</g>
			<g>
				<polygon class="st18" points="849.7,64.9 840.9,73.6 828,73.6 836.8,64.9 				"/>
			</g>
			<g>
				<path class="st18" d="M847.9,87.6c-0.1,0.1-0.2,0.2-0.3,0.3c-1.6,1.4-3.8,2.1-6.6,2.1l8.8-8.7c2.8,0,5-0.7,6.6-2.1
					c0.1-0.1,0.2-0.2,0.3-0.3C854.1,81.5,850.6,85,847.9,87.6z"/>
			</g>
			<g>
				<polygon class="st18" points="810.1,43.7 852.6,43.7 843.8,52.4 801.3,52.4 				"/>
			</g>
			<g>
				<polygon class="st18" points="836.8,64.9 836.9,81.3 828.1,89.9 828,73.6 				"/>
			</g>
			<g>
				<polygon class="st18" points="836.9,81.3 849.8,81.3 841,89.9 828.1,89.9 				"/>
			</g>
			<g>
				<path class="st18" d="M872.2,141.1c4.6-4.6,7-10.5,7-17.6c0-6.3-2.1-11.9-6.1-16.6l8.8-8.7c4,4.7,6.1,10.3,6.1,16.6
					c0,7.1-2.3,13-7,17.6C878.3,135,874.8,138.5,872.2,141.1z"/>
			</g>
			<g>
				<path class="st18" d="M858.7,117.4l-8.8,8.7c1.5-1.5,2.2-3.5,2.2-6.1c0-2.8-0.8-4.9-2.4-6.5c-1.6-1.6-3.6-2.4-6.2-2.4l8.8-8.7
					c2.6,0,4.6,0.8,6.2,2.4c1.6,1.6,2.4,3.7,2.4,6.5C860.9,114,860.2,116,858.7,117.4z"/>
			</g>
			<g>
				<path class="st18" d="M849.9,126.1c-0.1,0.1-0.1,0.1-0.2,0.2l8.8-8.7c0.1-0.1,0.1-0.1,0.2-0.2C856,120,852.5,123.5,849.9,126.1z
					"/>
			</g>
			<g>
				<polygon class="st18" points="852.3,102.5 843.5,111.2 828.1,111.2 836.9,102.5 				"/>
			</g>
			<g>
				<path class="st18" d="M852.1,119.9c2.6,0,4.7-0.7,6.4-2.3l-8.8,8.7c-1.7,1.5-3.8,2.3-6.4,2.3L852.1,119.9z"/>
			</g>
			<g>
				<polygon class="st18" points="836.9,102.5 836.9,119.9 828.2,128.6 828.1,111.2 				"/>
			</g>
			<g>
				<polygon class="st18" points="836.9,119.9 852.1,119.9 843.3,128.6 828.2,128.6 				"/>
			</g>
			<g>
				<path class="st18" d="M881,132.4l-8.8,8.7c-0.6,0.6-1.2,1.2-1.9,1.7c-5.8,4.7-13.8,7-24,7l8.8-8.7c10.2,0,18.2-2.4,24-7
					C879.7,133.6,880.4,133,881,132.4z"/>
			</g>
			<g>
				<polygon class="st18" points="855.1,141.2 846.3,149.8 801.6,149.8 810.4,141.2 				"/>
			</g>
			<g>
				<polygon class="st19" points="810.4,141.2 801.6,149.8 801.3,52.4 810.1,43.7 				"/>
			</g>
			<g>
				<polygon class="st18" points="924.1,52.4 924.3,128.6 952.6,128.6 952.6,149.8 897.7,149.8 897.5,52.4 				"/>
			</g>
			<g>
				<polygon class="st18" points="906.3,43.7 932.9,43.7 924.1,52.4 897.5,52.4 				"/>
			</g>
			<g>
				<polygon class="st18" points="961.4,119.9 961.4,141.2 952.6,149.8 952.6,128.6 				"/>
			</g>
			<g>
				<polygon class="st18" points="932.9,43.7 933.1,119.9 924.3,128.6 924.1,52.4 				"/>
			</g>
			<g>
				<polygon class="st18" points="933.1,119.9 961.4,119.9 952.6,128.6 924.3,128.6 				"/>
			</g>
			<g>
				<polygon class="st18" points="961.4,141.2 952.6,149.8 897.7,149.8 906.5,141.2 				"/>
			</g>
			<g>
				<polygon class="st19" points="906.5,141.2 897.7,149.8 897.5,52.4 906.3,43.7 				"/>
			</g>
			<g>
				<polygon class="st18" points="1028.1,52.1 1028.1,73.4 994.4,73.4 994.4,89.5 1024.2,89.5 1024.2,110.8 994.5,110.8 
					994.5,128.6 1028.3,128.6 1028.3,149.8 967.9,149.8 967.7,52.1 				"/>
			</g>
			<g>
				<polygon class="st18" points="1036.9,43.4 1036.9,64.7 1028.1,73.4 1028.1,52.1 				"/>
			</g>
			<g>
				<polygon class="st18" points="1036.9,64.7 1028.1,73.4 994.4,73.4 1003.2,64.7 				"/>
			</g>
			<g>
				<polygon class="st18" points="976.5,43.4 1036.9,43.4 1028.1,52.1 967.7,52.1 				"/>
			</g>
			<g>
				<polygon class="st18" points="1033,80.9 1033,102.1 1024.2,110.8 1024.2,89.5 				"/>
			</g>
			<g>
				<polygon class="st18" points="1003.2,64.7 1003.2,80.9 994.4,89.5 994.4,73.4 				"/>
			</g>
			<g>
				<polygon class="st18" points="1003.2,80.9 1033,80.9 1024.2,89.5 994.4,89.5 				"/>
			</g>
			<g>
				<polygon class="st18" points="1033,102.1 1024.2,110.8 994.5,110.8 1003.3,102.1 				"/>
			</g>
			<g>
				<polygon class="st18" points="1037.1,119.9 1037.1,141.2 1028.3,149.8 1028.3,128.6 				"/>
			</g>
			<g>
				<polygon class="st18" points="1003.3,119.9 1037.1,119.9 1028.3,128.6 994.5,128.6 				"/>
			</g>
			<g>
				<polygon class="st18" points="1003.3,102.1 1003.3,119.9 994.5,128.6 994.5,110.8 				"/>
			</g>
			<g>
				<polygon class="st18" points="1037.1,141.2 1028.3,149.8 967.9,149.8 976.7,141.2 				"/>
			</g>
			<g>
				<polygon class="st19" points="976.7,141.2 967.9,149.8 967.7,52.1 976.5,43.4 				"/>
			</g>
			<g>
				<polygon class="st18" points="378,271.5 369.3,280.2 369.2,235.4 377.9,226.8 				"/>
			</g>
			<g>
				<polygon class="st19" points="395.7,182.7 395.9,280.2 369.3,280.2 369.2,235.4 350.9,280.2 331.4,280.2 312.9,235.4 313,280.2 
					286.4,280.2 286.2,182.7 315.5,182.7 341.1,244 366.4,182.7 				"/>
			</g>
			<g>
				<polygon class="st18" points="375.2,174 404.5,174 395.7,182.7 366.4,182.7 				"/>
			</g>
			<g>
				<polygon class="st18" points="404.5,174 404.7,271.5 395.9,280.2 395.7,182.7 				"/>
			</g>
			<g>
				<polygon class="st18" points="295,174 324.3,174 315.5,182.7 286.2,182.7 				"/>
			</g>
			<g>
				<polygon class="st19" points="349.9,235.3 341.1,244 366.4,182.7 375.2,174 				"/>
			</g>
			<g>
				<polygon class="st18" points="324.3,174 349.9,235.3 341.1,244 315.5,182.7 				"/>
			</g>
			<g>
				<polygon class="st18" points="404.7,271.5 395.9,280.2 369.3,280.2 378,271.5 				"/>
			</g>
			<g>
				<polygon class="st18" points="377.9,226.8 359.7,271.5 350.9,280.2 369.2,235.4 				"/>
			</g>
			<g>
				<polygon class="st18" points="359.7,271.5 350.9,280.2 331.4,280.2 340.2,271.5 				"/>
			</g>
			<g>
				<polygon class="st19" points="340.2,271.5 331.4,280.2 312.9,235.4 321.7,226.8 				"/>
			</g>
			<g>
				<polygon class="st18" points="321.7,226.8 321.8,271.5 313,280.2 312.9,235.4 				"/>
			</g>
			<g>
				<polygon class="st19" points="295.2,271.5 286.4,280.2 286.2,182.7 295,174 				"/>
			</g>
			<g>
				<polygon class="st18" points="321.8,271.5 313,280.2 286.4,280.2 295.2,271.5 				"/>
			</g>
			<g>
				<path class="st18" d="M563.9,181.4c10.7,0,20.4,2.9,28.7,8.6c8.4,5.7,14.3,13.8,17.7,23.9l0.8,2.6h-31l-0.6-1.1
					c-3.2-6.2-8.2-9.2-15.3-9.2c-7.3,0-12.8,2.2-16.9,6.7c-4.1,4.5-6.2,10.6-6.2,18.3c0,7.6,2.1,13.8,6.2,18.3
					c4.1,4.5,9.7,6.7,17,6.7c7.1,0,12-3,15.2-9.2l0.5-1.1h31l-0.8,2.6c-3.3,10.1-9.2,18.2-17.6,23.9c-8.3,5.7-18,8.6-28.7,8.6
					c-13.8,0-25.7-4.7-35.3-14.1c-9.6-9.4-14.5-21.4-14.6-35.7c0-14.3,4.8-26.4,14.4-35.7C538.2,186.1,550.1,181.4,563.9,181.4z"/>
			</g>
			<g>
				<polygon class="st18" points="619.2,205.2 620,207.8 611.2,216.5 610.4,213.9 				"/>
			</g>
			<g>
				<path class="st18" d="M572.7,172.7c10.7,0,20.4,2.9,28.7,8.6c8.4,5.7,14.3,13.8,17.7,23.9l-8.8,8.7
					c-3.3-10.1-9.3-18.2-17.7-23.9c-8.4-5.7-18-8.6-28.7-8.6L572.7,172.7z"/>
			</g>
			<g>
				<polygon class="st18" points="620,207.8 611.2,216.5 580.2,216.5 589,207.8 				"/>
			</g>
			<g>
				<polygon class="st18" points="620.1,237.2 619.2,239.8 610.4,248.4 611.3,245.9 				"/>
			</g>
			<linearGradient id="SVGID_3_" gradientUnits="userSpaceOnUse" x1="557.3403" y1="221.2379" x2="580.8069" y2="197.7713">
				<stop  offset="0" style="stop-color:#BBBDBF"/>
				<stop  offset="1" style="stop-color:#A6A8AB"/>
			</linearGradient>
			<path class="st24" d="M588.4,206.7c-3.2-6.2-8.2-9.2-15.3-9.2c-6.8,0-12.1,1.9-16.2,5.9l-8.8,8.7c4-4,9.3-5.9,16.2-5.9
				c7.1,0,12,3,15.3,9.2l0.6,1.1l8.8-8.7L588.4,206.7z"/>
			<g>
				<polygon class="st18" points="589.1,237.2 620.1,237.2 611.3,245.9 580.3,245.9 				"/>
			</g>
			<g>
				<polygon class="st18" points="588.5,238.2 579.7,246.9 580.3,245.9 589.1,237.2 				"/>
			</g>
			<g>
				<path class="st18" d="M537.5,186.8c9.6-9.3,21.4-14.1,35.3-14.1l-8.8,8.7c-13.8,0-25.7,4.7-35.3,14.1
					C531.3,192.9,534.8,189.4,537.5,186.8z"/>
			</g>
			<g>
				<path class="st18" d="M599,267.3c5.2-5.1,9-11.4,11.4-18.8l8.8-8.7c-2.4,7.4-6.2,13.7-11.4,18.8
					C605.2,261.2,601.7,264.7,599,267.3z"/>
			</g>
			<g>
				<path class="st18" d="M585.1,243l-8.8,8.7c1.3-1.3,2.5-2.9,3.4-4.8l8.8-8.7C587.5,240.1,586.4,241.7,585.1,243z"/>
			</g>
			<g>
				<path class="st18" d="M557,203.4c-0.3,0.3-0.5,0.5-0.8,0.8c-4.1,4.5-6.2,10.6-6.2,18.3c0,7.6,2.1,13.8,6.2,18.3
					c4.1,4.5,9.7,6.7,17,6.7c4.9,0,8.8-1.4,11.8-4.4l-8.8,8.7c-3,3-6.9,4.4-11.8,4.4c-7.3,0-12.8-2.2-17-6.7
					c-4.1-4.5-6.2-10.6-6.2-18.3c0-7.6,2.1-13.8,6.2-18.3c0.2-0.3,0.5-0.5,0.8-0.8C550.9,209.5,554.4,206,557,203.4z"/>
			</g>
			<g>
				<linearGradient id="SVGID_4_" gradientUnits="userSpaceOnUse" x1="528.5991" y1="266.6776" x2="572.9808" y2="222.2959">
					<stop  offset="0" style="stop-color:#BBBDBF"/>
					<stop  offset="1" style="stop-color:#A6A8AB"/>
				</linearGradient>
				<path class="st25" d="M607.8,258.6l-8.8,8.7c-1.9,1.9-3.9,3.6-6.2,5.1c-8.3,5.7-18,8.6-28.7,8.6c-13.8,0-25.7-4.7-35.3-14.1
					c-9.6-9.4-14.5-21.4-14.6-35.7c0-14.3,4.8-26.4,14.4-35.7l8.8-8.7c-9.6,9.4-14.4,21.4-14.4,35.7c0,14.3,4.9,26.4,14.6,35.7
					c9.6,9.3,21.5,14.1,35.3,14.1c10.7,0,20.4-2.9,28.7-8.6C603.9,262.2,606,260.5,607.8,258.6z"/>
			</g>
			<g>
				<path class="st18" d="M472.9,182.4l33.8,97.7h-28.5l-5.2-15.7h-30.6l-5.1,15.7h-28.4l33.5-97.7H472.9z M449.4,243.2H466
					l-8.4-25.1L449.4,243.2"/>
			</g>
			<g>
				<polygon class="st18" points="451.3,173.8 481.7,173.8 472.9,182.4 442.5,182.4 				"/>
			</g>
			<g>
				<polygon class="st18" points="481.7,173.8 515.6,271.5 506.8,280.2 472.9,182.4 				"/>
			</g>
			<g>
				<polygon class="st18" points="474.8,234.5 466,243.2 457.7,218.1 466.5,209.4 				"/>
			</g>
			<g>
				<polygon class="st18" points="466.5,209.4 458.2,234.5 449.4,243.2 457.7,218.1 				"/>
			</g>
			<g>
				<polygon class="st18" points="458.2,234.5 474.8,234.5 466,243.2 449.4,243.2 				"/>
			</g>
			<g>
				<polygon class="st19" points="487.1,271.5 478.3,280.2 473.1,264.5 481.9,255.8 				"/>
			</g>
			<g>
				<polygon class="st18" points="515.6,271.5 506.8,280.2 478.3,280.2 487.1,271.5 				"/>
			</g>
			<g>
				<polygon class="st18" points="481.9,255.8 473.1,264.5 442.5,264.5 451.2,255.8 				"/>
			</g>
			<g>
				<polygon class="st18" points="451.2,255.8 446.1,271.5 437.3,280.2 442.5,264.5 				"/>
			</g>
			<g>
				<polygon class="st19" points="417.7,271.5 408.9,280.2 442.5,182.4 451.3,173.8 				"/>
			</g>
			<g>
				<polygon class="st18" points="446.1,271.5 437.3,280.2 408.9,280.2 417.7,271.5 				"/>
			</g>
			<g>
				<polygon class="st18" points="713,182.7 713.2,280.2 686.6,280.2 686.5,241.4 654.5,241.4 654.6,280.2 627.9,280.2 627.7,182.7 
					654.3,182.7 654.4,220.1 686.5,220.1 686.4,182.7 				"/>
			</g>
			<g>
				<polygon class="st18" points="695.2,174 721.8,174 713,182.7 686.4,182.7 				"/>
			</g>
			<g>
				<polygon class="st19" points="695.3,211.5 686.5,220.1 686.4,182.7 695.2,174 				"/>
			</g>
			<g>
				<polygon class="st18" points="636.5,174 663.1,174 654.3,182.7 627.7,182.7 				"/>
			</g>
			<g>
				<polygon class="st18" points="663.2,211.5 695.3,211.5 686.5,220.1 654.4,220.1 				"/>
			</g>
			<g>
				<polygon class="st18" points="663.1,174 663.2,211.5 654.4,220.1 654.3,182.7 				"/>
			</g>
			<g>
				<polygon class="st18" points="721.8,174 722,271.5 713.2,280.2 713,182.7 				"/>
			</g>
			<g>
				<polygon class="st18" points="695.3,232.7 686.5,241.4 654.5,241.4 663.3,232.7 				"/>
			</g>
			<g>
				<polygon class="st18" points="722,271.5 713.2,280.2 686.6,280.2 695.4,271.5 				"/>
			</g>
			<g>
				<polygon class="st19" points="695.4,271.5 686.6,280.2 686.5,241.4 695.3,232.7 				"/>
			</g>
			<g>
				<polygon class="st18" points="663.3,232.7 663.3,271.5 654.6,280.2 654.5,241.4 				"/>
			</g>
			<g>
				<polygon class="st18" points="663.3,271.5 654.6,280.2 627.9,280.2 636.7,271.5 				"/>
			</g>
			<g>
				<polygon class="st19" points="636.7,271.5 627.9,280.2 627.7,182.7 636.5,174 				"/>
			</g>
			<g>
				<polygon class="st18" points="762.3,182.7 762.5,280.2 735.9,280.2 735.6,182.7 				"/>
			</g>
			<g>
				<polygon class="st18" points="744.4,174 771.1,174 762.3,182.7 735.6,182.7 				"/>
			</g>
			<g>
				<polygon class="st18" points="771.1,174 771.3,271.5 762.5,280.2 762.3,182.7 				"/>
			</g>
			<g>
				<polygon class="st18" points="771.3,271.5 762.5,280.2 735.9,280.2 744.7,271.5 				"/>
			</g>
			<g>
				<polygon class="st19" points="744.7,271.5 735.9,280.2 735.6,182.7 744.4,174 				"/>
			</g>
			<g>
				<polygon class="st18" points="872.2,182.4 872.4,280.2 846.7,280.2 811.6,225.9 811.8,280.2 785.1,280.2 784.9,182.4 
					810.7,182.4 845.7,236.7 845.6,182.4 				"/>
			</g>
			<g>
				<polygon class="st18" points="854.4,173.8 881,173.8 872.2,182.4 845.6,182.4 				"/>
			</g>
			<g>
				<polygon class="st19" points="854.5,228 845.7,236.7 845.6,182.4 854.4,173.8 				"/>
			</g>
			<g>
				<polygon class="st18" points="819.4,173.8 854.5,228 845.7,236.7 810.7,182.4 				"/>
			</g>
			<g>
				<polygon class="st18" points="793.7,173.8 819.4,173.8 810.7,182.4 784.9,182.4 				"/>
			</g>
			<g>
				<polygon class="st18" points="881,173.8 881.2,271.5 872.4,280.2 872.2,182.4 				"/>
			</g>
			<g>
				<polygon class="st18" points="881.2,271.5 872.4,280.2 846.7,280.2 855.5,271.5 				"/>
			</g>
			<g>
				<polygon class="st19" points="855.5,271.5 846.7,280.2 811.6,225.9 820.4,217.2 				"/>
			</g>
			<g>
				<polygon class="st18" points="820.4,217.2 820.6,271.5 811.8,280.2 811.6,225.9 				"/>
			</g>
			<g>
				<polygon class="st18" points="820.6,271.5 811.8,280.2 785.1,280.2 793.9,271.5 				"/>
			</g>
			<g>
				<polygon class="st19" points="793.9,271.5 785.1,280.2 784.9,182.4 793.7,173.8 				"/>
			</g>
			<g>
				<polygon class="st18" points="955.2,182.4 955.3,203.7 921.5,203.7 921.6,219.9 951.3,219.9 951.4,241.1 921.6,241.1 
					921.7,258.9 955.4,258.9 955.4,280.2 895.1,280.2 894.8,182.4 				"/>
			</g>
			<g>
				<polygon class="st18" points="964,173.8 964.1,195 955.3,203.7 955.2,182.4 				"/>
			</g>
			<g>
				<polygon class="st18" points="964.1,195 955.3,203.7 921.5,203.7 930.3,195 				"/>
			</g>
			<g>
				<polygon class="st18" points="903.6,173.8 964,173.8 955.2,182.4 894.8,182.4 				"/>
			</g>
			<g>
				<polygon class="st18" points="960.1,211.2 960.2,232.5 951.4,241.1 951.3,219.9 				"/>
			</g>
			<g>
				<polygon class="st18" points="930.3,195 930.4,211.2 921.6,219.9 921.5,203.7 				"/>
			</g>
			<g>
				<polygon class="st18" points="930.4,211.2 960.1,211.2 951.3,219.9 921.6,219.9 				"/>
			</g>
			<g>
				<polygon class="st18" points="960.2,232.5 951.4,241.1 921.6,241.1 930.4,232.5 				"/>
			</g>
			<g>
				<polygon class="st18" points="964.2,250.2 964.2,271.5 955.4,280.2 955.4,258.9 				"/>
			</g>
			<g>
				<polygon class="st18" points="930.5,250.2 964.2,250.2 955.4,258.9 921.7,258.9 				"/>
			</g>
			<g>
				<polygon class="st18" points="930.4,232.5 930.5,250.2 921.7,258.9 921.6,241.1 				"/>
			</g>
			<g>
				<polygon class="st18" points="964.2,271.5 955.4,280.2 895.1,280.2 903.9,271.5 				"/>
			</g>
			<g>
				<polygon class="st19" points="903.9,271.5 895.1,280.2 894.8,182.4 903.6,173.8 				"/>
			</g>
			<g>
				<g>
					<polygon class="st5" points="292.6,43.7 292.7,64.9 267.2,64.9 267.4,141.2 240.7,141.2 240.6,64.9 215.2,64.9 215.1,43.7 
											"/>
				</g>
				<g>
					<polygon class="st5" points="369.3,43.4 369.3,64.7 335.6,64.7 335.6,80.9 365.4,80.9 365.4,102.1 335.7,102.1 335.7,119.9 
						369.4,119.9 369.5,141.2 309.1,141.2 308.9,43.4 					"/>
				</g>
				<g>
					<path class="st5" d="M537.1,42.3c10.7,0,20.4,2.9,28.7,8.6c8.4,5.7,14.3,13.8,17.7,23.9l0.8,2.6h-31l-0.6-1.1
						c-3.2-6.2-8.2-9.2-15.3-9.2c-7.3,0-12.8,2.2-16.9,6.7c-4.1,4.5-6.2,10.6-6.2,18.3c0,7.6,2.1,13.8,6.2,18.3
						c4.1,4.5,9.7,6.7,17,6.7c7.1,0,12-3,15.2-9.2l0.5-1.1h31l-0.8,2.6c-3.3,10.1-9.2,18.2-17.6,23.9c-8.3,5.7-18,8.6-28.7,8.6
						c-13.8,0-25.7-4.7-35.3-14.1c-9.6-9.4-14.5-21.4-14.6-35.7c0-14.3,4.8-26.4,14.4-35.7C511.4,47.1,523.3,42.3,537.1,42.3z"/>
				</g>
				<g>
					<path class="st5" d="M446.1,43.4l33.8,97.7h-28.5l-5.2-15.7h-30.6l-5.1,15.7h-28.4l33.5-97.7H446.1z M422.6,104.2h16.6
						l-8.4-25.1L422.6,104.2"/>
				</g>
				<g>
					<polygon class="st5" points="686.2,43.7 686.4,141.2 659.8,141.2 659.7,102.4 627.6,102.4 627.7,141.2 601.1,141.2 600.9,43.7 
						627.5,43.7 627.6,81.1 659.6,81.1 659.6,43.7 					"/>
				</g>
				<g>
					<path class="st5" d="M763.5,43.4l33.8,97.7h-28.5l-5.2-15.7H733l-5.1,15.7h-28.4L733,43.4H763.5z M739.9,104.2h16.6l-8.4-25.1
						L739.9,104.2"/>
				</g>
				<g>
					<path class="st5" d="M881.8,98.2c4,4.7,6.1,10.3,6.1,16.6c0,8-3,14.5-8.9,19.3c-5.8,4.7-13.8,7-24,7h-44.7l-0.2-97.5h42.5
						c9.9,0,17.9,2.5,23.9,7.4c6.1,5,9.2,11.4,9.2,19.1c0,9.6-4.6,16.7-13.9,21.1C875.8,92.7,879.1,95,881.8,98.2z M858.5,117.6
						c1.6-1.5,2.4-3.5,2.4-6.3c0-2.8-0.8-4.9-2.4-6.5c-1.6-1.6-3.6-2.4-6.2-2.4h-15.4l0,17.4h15.2
						C854.7,119.9,856.8,119.1,858.5,117.6 M836.8,64.9l0,16.3h12.9c2.8,0,5-0.7,6.6-2.1c1.5-1.3,2.3-3.3,2.3-6
						c0-2.8-0.8-4.8-2.3-6.1c-1.6-1.4-3.8-2.1-6.6-2.1H836.8"/>
				</g>
				<g>
					<polygon class="st5" points="932.9,43.7 933.1,119.9 961.4,119.9 961.4,141.2 906.5,141.2 906.3,43.7 					"/>
				</g>
				<g>
					<polygon class="st5" points="1036.9,43.4 1036.9,64.7 1003.2,64.7 1003.2,80.9 1033,80.9 1033,102.1 1003.3,102.1 
						1003.3,119.9 1037.1,119.9 1037.1,141.2 976.7,141.2 976.5,43.4 					"/>
				</g>
				<g>
					<polygon class="st5" points="404.5,174 404.7,271.5 378,271.5 377.9,226.8 359.7,271.5 340.2,271.5 321.7,226.8 321.8,271.5 
						295.2,271.5 295,174 324.3,174 349.9,235.3 375.2,174 					"/>
				</g>
				<g>
					<path class="st5" d="M572.7,172.7c10.7,0,20.4,2.9,28.7,8.6c8.4,5.7,14.3,13.8,17.7,23.9l0.8,2.6h-31l-0.6-1.1
						c-3.2-6.2-8.2-9.2-15.3-9.2c-7.3,0-12.8,2.2-16.9,6.7c-4.1,4.5-6.2,10.6-6.2,18.3c0,7.6,2.1,13.8,6.2,18.3
						c4.1,4.5,9.7,6.7,17,6.7c7.1,0,12-3,15.2-9.2l0.5-1.1h31l-0.8,2.6c-3.3,10.1-9.2,18.2-17.6,23.9c-8.3,5.7-18,8.6-28.7,8.6
						c-13.8,0-25.7-4.7-35.3-14.1c-9.6-9.4-14.5-21.4-14.6-35.7c0-14.3,4.8-26.4,14.4-35.7C547,177.4,558.9,172.7,572.7,172.7z"/>
				</g>
				<g>
					<path class="st5" d="M481.7,173.8l33.8,97.7h-28.5l-5.2-15.7l-30.6,0l-5.1,15.7h-28.4l33.5-97.7H481.7z M458.2,234.5h16.6
						l-8.4-25.1L458.2,234.5"/>
				</g>
				<g>
					<polygon class="st5" points="721.8,174 722,271.5 695.4,271.5 695.3,232.7 663.3,232.7 663.3,271.5 636.7,271.5 636.5,174 
						663.1,174 663.2,211.5 695.3,211.5 695.2,174 					"/>
				</g>
				<g>
					<polygon class="st5" points="771.1,174 771.3,271.5 744.7,271.5 744.4,174 					"/>
				</g>
				<g>
					<polygon class="st5" points="881,173.8 881.2,271.5 855.5,271.5 820.4,217.2 820.6,271.5 793.9,271.5 793.7,173.8 819.4,173.8 
						854.5,228 854.4,173.8 					"/>
				</g>
				<g>
					<polygon class="st5" points="964,173.8 964.1,195 930.3,195 930.4,211.2 960.1,211.2 960.2,232.5 930.4,232.5 930.5,250.2 
						964.2,250.2 964.2,271.5 903.9,271.5 903.6,173.8 					"/>
				</g>
			</g>
		</g>
		<ellipse class="st21" cx="390.7" cy="146.1" rx="5" ry="1.3"/>
		<ellipse class="st21" cx="609.8" cy="146.1" rx="5" ry="1.3"/>
		<ellipse class="st21" cx="778.7" cy="146.1" rx="5" ry="1.3"/>
		<g>
			<path class="st26" d="M964.2,265.3c84,0,234.1,39.7,234.1-32.5"/>
			<path class="st26" d="M960.2,227.6c61.4,0,205.8,71,205.8,5.2"/>
			<path class="st26" d="M964.2,189.3c34.6,0,169.5,94.2,169.5,43.5"/>
			<path class="st26" d="M390.7,146.1c-6.7,24.3,69.6-3.4,69.6,19.4"/>
			<path class="st26" d="M609.8,146.1c0,17.3,36-1.9,36,19.2"/>
			<path class="st26" d="M777.6,146.1c5.3,11.7,25.3,4.4,25.3,19.4"/>
			<path class="st26" d="M38.4,99.4C69.2,11,276-20.2,276,35.2"/>
			<path class="st26" d="M81.2,99.4c21-81.2,168.5-112,168.5-64.3"/>
			<path class="st26" d="M118.6,98.1c0-58.9,104.9-108,104.9-62.9"/>
		</g>
		<g>
			<polygon class="st18" points="127.1,225.2 15.1,225.2 15.1,113.1 30.1,98.1 142.2,98.1 142.2,210.2 			"/>
			<rect x="30.1" y="98.1" class="st5" width="112" height="112"/>
			<polygon class="st19" points="30.1,98.1 15.1,113.1 15.1,225.2 30.1,210.2 			"/>
		</g>
		<g>
			<g>
				<ellipse class="st18" cx="84.5" cy="155" rx="8.8" ry="8.8"/>
				<path class="st18" d="M76.2,127.4l-5,5.5h-8.7c-3,0-5.5,2.5-5.5,5.5v33.2c0,3,2.5,5.5,5.5,5.5h44.1c3,0,5.5-2.5,5.5-5.5v-33.2
					c0-3-2.5-5.5-5.5-5.5h-8.7l-5-5.5H76.2z M84.5,168.8c-7.6,0-13.8-6.2-13.8-13.8s6.2-13.8,13.8-13.8c7.6,0,13.8,6.2,13.8,13.8
					S92.1,168.8,84.5,168.8z"/>
			</g>
		</g>
	</g>
</g>
</svg>
