<svg xmlns="http://www.w3.org/2000/svg" viewBox="0 0 582.08 39.5"><defs><style>.cls-1{isolation:isolate;}.cls-2{fill:#a0c0f8;}.cls-3{fill:#4285f4;}.cls-4{fill:#d0d2d3;mix-blend-mode:multiply;}.cls-5{fill:#fff;}.cls-6{fill:none;stroke:#fff;stroke-linecap:round;stroke-linejoin:round;stroke-width:0.41px;}</style></defs><title>Asset 1</title><g class="cls-1"><g id="Layer_2" data-name="Layer 2"><g id="Layer_1-2" data-name="Layer 1"><path class="cls-2" d="M447.76,19.89V16.74h-.88V15.52h-7.24v1.29h-.83v4.71h-.62v.91h-.74V23h-1.53v.81h-.67v.76h-1.43V24h-.69v-.89h-.79V21.74h-.82v4h.95v.95h.89v.77h.71V28.8h.59v.89h1.48v2.73h1.24v-.57h-.55V31.1h.45v-.86h.88v-.84h.74v.81h.67v2.19h1.55V31.8h-.6V28.88h.6v-.69h1.43V26.56h.67V23.84h.86v.76h.72V23.07h-1.62V21.45h3.11v-.62h-2.2v-.93Zm-5.3-2.13h-1.08V16.68h1.08Z"/><path class="cls-2" d="M117,13.54h.45a1,1,0,0,1,1,1V31.6a0,0,0,0,1,0,0H116a0,0,0,0,1,0,0V14.52A1,1,0,0,1,117,13.54Z"/><path class="cls-2" d="M113.86,18h0a.62.62,0,0,1,.62.62v4.56a0,0,0,0,1,0,0h-1.24a0,0,0,0,1,0,0V18.58A.62.62,0,0,1,113.86,18Z"/><rect class="cls-2" x="115.4" y="22.88" width="1.24" height="2.38" transform="translate(91.95 140.09) rotate(-90)"/><polygon class="cls-2" points="115.18 23.45 114.49 22.72 113.69 22.72 113.24 23.13 114.83 24.69 115.56 24.07 115.18 23.45"/><path class="cls-2" d="M119.92,17.73H121a0,0,0,0,1,0,0v3.87a.53.53,0,0,1-.53.53h0a.53.53,0,0,1-.53-.53V17.73A0,0,0,0,1,119.92,17.73Z" transform="translate(240.9 39.86) rotate(-180)"/><rect class="cls-2" x="118.09" y="21.92" width="1.06" height="2.03" transform="translate(95.68 141.55) rotate(-90)"/><polygon class="cls-2" points="119.33 22.4 119.92 21.78 120.6 21.78 120.98 22.13 119.63 23.46 119.01 22.93 119.33 22.4"/><path class="cls-2" d="M123.64,22.14h1.14a0,0,0,0,1,0,0v8.74a.46.46,0,0,1-.46.46h-.21a.46.46,0,0,1-.46-.46V22.14A0,0,0,0,1,123.64,22.14Z" transform="translate(248.42 53.48) rotate(-180)"/><path class="cls-2" d="M125.5,24.23h.59a0,0,0,0,1,0,0v2.15a.29.29,0,0,1-.29.29h0a.29.29,0,0,1-.29-.29V24.23a0,0,0,0,1,0,0Z" transform="translate(251.58 50.89) rotate(-180)"/><rect class="cls-2" x="124.48" y="26.55" width="0.59" height="1.12" transform="translate(97.66 151.88) rotate(-90)"/><polygon class="cls-2" points="125.17 26.82 125.5 26.47 125.87 26.47 126.08 26.67 125.33 27.4 124.99 27.11 125.17 26.82"/><path class="cls-2" d="M122.47,23.33h0a.29.29,0,0,1,.29.29v2.13a0,0,0,0,1,0,0h-.58a0,0,0,0,1,0,0V23.62A.29.29,0,0,1,122.47,23.33Z"/><rect class="cls-2" x="123.18" y="25.63" width="0.58" height="1.11" transform="translate(97.29 149.66) rotate(-90)"/><polygon class="cls-2" points="123.08 25.89 122.76 25.55 122.39 25.55 122.18 25.74 122.92 26.47 123.26 26.18 123.08 25.89"/><path class="cls-3" d="M1,7.15c7.06,1.56,15.17,1.27,22.34.6,3.63-.34,3.73-6,0-5.75C16.06,2.47,8.17,2.77,1,4.38A1.45,1.45,0,0,0,1,7.15Z"/><path class="cls-3" d="M10.51,5.43c-1.34,9.31-.87,19.24-.71,28.63.06,3.63,5.4,3.58,5.6,0,.52-9.3.89-19.47-1-28.63-.39-1.86-3.59-2-3.88,0Z"/><path class="cls-3" d="M56.9,4.24C51.48,2.81,44.16,1.31,38.65,2.82A3.07,3.07,0,0,0,36.51,5c-1.08,4.21-.38,9.16-.38,13.49,0,5.15-.14,10.31.27,15.45.13,1.72,1.71,3.34,3.57,2.72a30.06,30.06,0,0,1,14.29-1.28c3.7.56,5.24-5.13,1.55-5.63a37.86,37.86,0,0,0-17.34,1.47L42,33.89c.34-4.5.23-9,.23-13.51,0-4.32-.92-9.63.15-13.8L40.28,8.72c2.85-.78,6.38-.33,9.31-.63a48.35,48.35,0,0,0,7.31-1.4,1.28,1.28,0,0,0,0-2.45Z"/><path class="cls-3" d="M69.42,36.08c5-9.81,8.26-20.47,13.13-30.37L78.2,5.14c3.77,10,7.33,20.23,11.38,30.13a2.88,2.88,0,0,0,5.54-1.53C93.29,23.19,86.27,13.89,82.78,3.88c-.64-1.84-3.31-2.47-4.35-.57A179.59,179.59,0,0,0,65.61,34.48c-.71,2.23,2.72,3.71,3.81,1.6Z"/><path class="cls-3" d="M72.39,27.94A92.28,92.28,0,0,1,87,28.35c3.67.39,3.83-5.82,0-5.84a88,88,0,0,0-15.16,1.2c-2.39.41-1.84,4.36.57,4.23Z"/><path class="cls-3" d="M132.21,9.32C123.74-4.56,103,3,102.48,18.31a18.75,18.75,0,0,0,10.25,16.77c5.95,3,14.72,2.72,18.75-3.19,1.59-2.33-1.53-5.29-3.83-3.83-3.79,2.4-7.38,3.69-11.75,1.61A12.55,12.55,0,0,1,108.66,19a11.59,11.59,0,0,1,6.71-10.52c5.07-2.33,9.75-.18,13.41,3.5,1.73,1.73,4.73-.5,3.42-2.64Z"/><path class="cls-3" d="M144.23,4.45c-1.26,9.49-2.67,20.06-1.52,29.61.34,2.8,5,4.17,5.5.74,1.42-9.85.35-20.51-.73-30.36a1.63,1.63,0,0,0-3.26,0Z"/><path class="cls-3" d="M165.6,3.93c-.82,10.83-1.66,21.81-1.84,32.67-.05,3.22,5.31,4.14,5.78.78a152.23,152.23,0,0,0,.75-33.45,2.35,2.35,0,0,0-4.69,0Z"/><path class="cls-3" d="M145.43,23.61c7,.46,14,.08,20.94.24,3.94.09,4-6.12,0-6.13-7.17,0-14.48,0-21.53,1.47-2.61.53-1.81,4.26.6,4.42Z"/><path class="cls-3" d="M186.5,37.14c5.72-9.26,9.22-20.22,13.34-30.25l-5.6.73c2.22,5.22,4.36,10.47,6.57,15.69,2,4.79,3.76,10.06,6.5,14.48,1.82,2.92,6.52,1.06,5.6-2.36-1.38-5.17-4.1-10.15-6.27-15-2.35-5.29-4.77-10.56-7.11-15.86-1.2-2.72-4.73-1.38-5.6.73-4,9.83-9.08,19.8-11.46,30.19a2.21,2.21,0,0,0,4,1.7Z"/><path class="cls-3" d="M309.51,4c-4.3-.78-8.7-1.11-13-1.58-2.87-.31-6-.63-7,2.83-.48,1.72.23,4,.36,5.67.19,2.42.16,4.85.12,7.27A160.74,160.74,0,0,0,290.12,35,3.13,3.13,0,0,0,294,38l15.13-2.2c3.89-.57,2.23-6.47-1.63-5.91l-15.13,2.2,3.88,3c-.44-5-.27-10-.23-15,0-2.43,0-4.86-.2-7.28-.09-1.06-1.23-5.25-.62-6.26l-2.43,1.39c5.22-.65,10.82.87,16.1.84,2.61,0,3.37-4.21.64-4.7Z"/><path class="cls-3" d="M294.46,24.07c3.52.59,7.26.25,10.82.36,4.06.13,4.08-6.4,0-6.32-3.76.08-7.87.26-11.37,1.76-1.77.76-1.32,3.89.55,4.2Z"/><path class="cls-3" d="M228,34.84c-.4-8.92-1-18.2.8-27L225.64,9.6c3.12,1,8.58-.1,11.1,1.61,6.87,4.69-5.91,5.73-8,5.93a2.67,2.67,0,0,0,0,5.34c3.34.21,18.62-1.41,13.3,6.19-3,4.23-9.52,2.79-13.85,2a2.86,2.86,0,1,0-.76,5.64c7.5.84,18.72,1,20.88-8.31a8.39,8.39,0,0,0-3.54-9.06c-4.79-3.2-10.19-.36-15.31-1.69l-.71,5.24c5.9.32,17.25-.92,16.75-9.25-.58-9.81-12.65-8.08-19.2-8.61a2.55,2.55,0,0,0-2.54,2.54c.55,9.23,0,18.46,1,27.69.21,2,3.3,2.1,3.21,0Z"/><path class="cls-3" d="M348.71,36.11c.88-10.35,1-20.72,1.7-31.08L345.9,6.26c4.27,7.79,5,17,11.29,23.66,1,1,3.13,1.21,4.06,0,6.15-8,12.58-15.88,18-24.38l-3.44-1.45a173.63,173.63,0,0,0-1.44,31c.1,2.49,3.86,2.51,3.88,0,.09-10-.31-20,1.19-30,.26-1.72-1.71-3.31-3.15-1.83-6.84,7.05-12.92,15-19.07,22.6h4.06c-5.65-6.23-6.22-15.34-11.18-22A2.44,2.44,0,0,0,345.57,5c-.41,10.37-1.45,20.69-1.7,31.08-.08,3.15,4.58,3.06,4.84,0Z"/><path class="cls-3" d="M389.6,37.81c5.44-10,9.69-20.84,14.19-31.33l-4-.52c2.75,10.15,5.06,20.41,8.18,30.46,1.19,3.84,7.16,2.24,6-1.67-2.89-10.14-6.63-20-10-30-.55-1.62-3.14-2.35-4-.52-5,10.49-10.31,21-14.31,31.9-.83,2.28,2.76,3.74,3.89,1.64Z"/><path class="cls-3" d="M462.7,3.91C461.75,8.78,462,14,461.92,19s-.84,10.31,0,15.24c.48,2.67,4.34,2.29,5,0,1.44-4.75,1-10.32,1-15.24s-.06-10.36-1.48-15.08c-.53-1.77-3.44-2-3.83,0Z"/><path class="cls-3" d="M450.95,11.29a12.94,12.94,0,0,0-15.07-8.9c-7.71,1.49-13.36,8.75-14.06,16.39-.66,7.32,1.93,16.08,9.38,18.84C437.64,40,448,38.47,451,31.47c1.15-2.67-1.81-5.39-4.17-3.22-3.13,2.89-6.32,4.66-10.74,4.23-6.28-.6-8.41-6.5-8.46-12.06s2.53-11.22,8.09-13.21c5-1.78,10.09.78,12.54,5.22a1.49,1.49,0,0,0,2.71-1.14Z"/><path class="cls-3" d="M484.2,3.15c-1.38,10.29-2.09,22.13-.74,32.45a2.87,2.87,0,0,0,5.75,0c1.1-10.52.06-22.48-1.62-32.91-.34-2.11-3.15-1.27-3.39.46Z"/><path class="cls-3" d="M465.64,24.41c6.3-.12,12.61-.19,18.9.17,3.93.23,3.94-5.94,0-6.13A85.9,85.9,0,0,0,465,19.57c-2.76.49-2.08,4.9.66,4.84Z"/><path class="cls-3" d="M525.43,36.61c1.08-10.67.42-21.53,1.26-32.24l-5.29.72c4.8,11.61,12.57,21.4,20.1,31.34,1.75,2.31,5.89,1.82,5.85-1.58-.13-10.07,0-20.15,0-30.23,0-3.82-5.88-3.82-5.94,0-.14,10.07-.11,20.16-.37,30.23l5.85-1.58C539.8,23.52,531.27,14.11,526.33,3c-1.23-2.76-4.72-.91-5,1.36-1.41,10.72-2.72,22.18-.81,32.91.53,3,4.67,1.93,4.94-.67Z"/><path class="cls-3" d="M580.45,5c-5.58-2.13-11.08-2.41-17-2.87a2.39,2.39,0,0,0-2.31,1.76,102.68,102.68,0,0,0-.78,14c0,4.58-.78,10.28.39,14.74a4.84,4.84,0,0,0,4.77,3.86,58.36,58.36,0,0,0,13.74-1.1c3.53-.62,2.44-5.79-.81-6a78.52,78.52,0,0,0-9,.27l-2.69.15q-1.92.28.23-.47c0-1.59-.21-3.2-.3-4.78-.39-6.69-.22-13.43-.88-20.1l-2.39,2.39c5.4-.69,10.79.25,16.11,1.17A1.61,1.61,0,0,0,580.45,5Z"/><path class="cls-3" d="M563.7,22.59c5.08.43,10.21.33,15.31.79,3.49.31,4.32-5.55.83-6.16-5.3-.93-11.66-1-16.73,1a2.21,2.21,0,0,0,.59,4.33Z"/><path class="cls-3" d="M260.43,21a14.28,14.28,0,0,1-1.58,3.49A8.34,8.34,0,0,0,257,30c.18,2.81,1.51,6,2.21,6.73,0,0-.44.17-.51.94,0,0,.69.85,2.23.17a11.62,11.62,0,0,1,2.6-.85l.89-.68L265.54,20Z"/><path class="cls-4" d="M260.43,21a14.28,14.28,0,0,1-1.58,3.49A8.34,8.34,0,0,0,257,30c.18,2.81,1.51,6,2.21,6.73,0,0-.44.17-.51.94,0,0,.69.85,2.23.17a11.62,11.62,0,0,1,2.6-.85l.89-.68L265.54,20Z"/><path class="cls-3" d="M270.55,34.8s8.53-1,10.64,0,.9,2.18,0,2.88c-.54.42-6.25.29-7,0s.48-.87.48-.87l-5.18.48Z"/><path class="cls-3" d="M269.37,21A14.28,14.28,0,0,0,271,24.48,8.34,8.34,0,0,1,272.78,30c-.18,2.81-1.51,6-2.21,6.73,0,0,.44.17.51.94,0,0-.69.85-2.23.17a11.62,11.62,0,0,0-2.6-.85h-2.7l.71-17Z"/><path class="cls-4" d="M269.37,21A14.28,14.28,0,0,0,271,24.48,8.34,8.34,0,0,1,272.78,30c-.18,2.81-1.51,6-2.21,6.73,0,0,.44.17.51.94,0,0-.69.85-2.23.17a11.62,11.62,0,0,0-2.6-.85h-2.7l.71-17Z"/><path class="cls-3" d="M263.3,3.19a6.68,6.68,0,0,1,3,0,30.94,30.94,0,0,1,2-2.68c.68-.72,1.36-.72,1.53.3a20.33,20.33,0,0,1,0,3.24,2,2,0,0,1-.5,1.15S270.54,7,270,8.47a6.76,6.76,0,0,0,.16,4.34,17.58,17.58,0,0,1-.33,9.16c-1.28,4-1.79,13.57-1.62,14.08,0,0,.68.26.68,1.79,0,0-2,.77-3.41,0a3.77,3.77,0,0,1-.09-1.53c.17-.51.68-9.88.26-11s-1.61-.17-1.61-.17Z"/><path class="cls-3" d="M266.5,3.19a6.68,6.68,0,0,0-3,0,30.94,30.94,0,0,0-2-2.68c-.68-.72-1.36-.72-1.53.3a20.33,20.33,0,0,0,0,3.24,2,2,0,0,0,.5,1.15s-1.17,1.83-.58,3.28a6.76,6.76,0,0,1-.16,4.34A17.58,17.58,0,0,0,260,22c1.28,4,1.79,13.57,1.62,14.08,0,0-.68.26-.68,1.79,0,0,2,.77,3.41,0a3.77,3.77,0,0,0,.09-1.53c-.17-.51-.68-9.88-.26-11s1.61-.17,1.61-.17Z"/><ellipse class="cls-5" cx="266.64" cy="6.66" rx="0.37" ry="0.88"/><ellipse class="cls-5" cx="263.16" cy="6.66" rx="0.37" ry="0.88"/><ellipse class="cls-2" cx="264.9" cy="8.72" rx="1.18" ry="0.58"/><path class="cls-6" d="M266.28,10.41a3.46,3.46,0,0,1-2.75,0"/><path class="cls-2" d="M189.32,28.76l15.55,2.63A3.66,3.66,0,0,0,209,28.68h0a3.66,3.66,0,0,0-2.37-4.36l-14.94-5.07A3.66,3.66,0,0,0,187,21.82l-.62,2.44A3.66,3.66,0,0,0,189.32,28.76Z"/><circle class="cls-3" cx="191.14" cy="24.23" r="2.31" transform="translate(120.83 203.61) rotate(-75.82)"/><path class="cls-2" d="M407.32,28.76l-15.55,2.63a3.66,3.66,0,0,1-4.16-2.71h0A3.66,3.66,0,0,1,390,24.32l14.94-5.07a3.66,3.66,0,0,1,4.73,2.57l.62,2.44A3.66,3.66,0,0,1,407.32,28.76Z"/><circle class="cls-3" cx="405.51" cy="24.23" r="2.31" transform="translate(6.42 100.06) rotate(-14.18)"/><path class="cls-3" d="M503.25,2.94h1a2.25,2.25,0,0,1,2.25,2.25V37.82a0,0,0,0,1,0,0H501a0,0,0,0,1,0,0V5.19a2.25,2.25,0,0,1,2.25-2.25Z"/><path class="cls-3" d="M498.21,7.73h0a.83.83,0,0,1,.83.83v3.51a0,0,0,0,1,0,0h-1.66a0,0,0,0,1,0,0V8.56A.83.83,0,0,1,498.21,7.73Z"/><rect class="cls-3" x="500.26" y="11.74" width="1.66" height="3.18" transform="translate(487.76 514.42) rotate(-90)"/><polygon class="cls-3" points="499.96 12.5 499.04 11.52 497.98 11.52 497.38 12.08 499.5 14.16 500.47 13.33 499.96 12.5"/><path class="cls-3" d="M509.25,11.52h2.49a0,0,0,0,1,0,0v9.12a1.24,1.24,0,0,1-1.24,1.24h0a1.24,1.24,0,0,1-1.24-1.24V11.52a0,0,0,0,1,0,0Z" transform="translate(1020.99 33.41) rotate(-180)"/><rect class="cls-3" x="505.91" y="22.35" width="2.49" height="2.82" transform="translate(483.39 530.91) rotate(-90)"/><polygon class="cls-3" points="507.87 22.52 509.25 21.05 510.84 21.05 511.74 21.88 508.56 25 507.11 23.76 507.87 22.52"/><path class="cls-3" d="M53.57,17.85c-2-1.06-4.15-.85-6.35-1-2.42-.11-4.86-.51-7.28-.48-4.5,0-4.43,6.68,0,6.94a44.17,44.17,0,0,0,7.28-.51c2.16-.23,4.54-.21,6.35-1.53a2,2,0,0,0,0-3.47Z"/></g></g></g></svg>