<?xml version="1.0" encoding="utf-8"?>
<!-- Generator: Adobe Illustrator 21.0.2, SVG Export Plug-In . SVG Version: 6.00 Build 0)  -->
<svg version="1.1" xmlns="http://www.w3.org/2000/svg" xmlns:xlink="http://www.w3.org/1999/xlink" x="0px" y="0px"
	 viewBox="0 0 1040 820" style="enable-background:new 0 0 1040 820;" xml:space="preserve">
<style type="text/css">
	.st0{fill:#E9E9E9;}
	.st1{fill:#EC1C24;}
	.st2{fill:#808184;}
	.st3{fill:#0080C4;}
	.st4{fill:#004A75;}
	.st5{fill:#FFFFFF;}
	.st6{fill:#89D9F7;}
	.st7{fill:#0080AB;}
	.st8{fill:#0066A8;}
	.st9{fill:#00ABE0;}
	.st10{fill:#4282F1;}
	.st11{fill:#2068D0;}
	.st12{fill:#2974E1;}
	.st13{fill:#DBDBDB;}
	.st14{fill:none;stroke:#DBDBDB;stroke-width:2;stroke-miterlimit:10;}
	.st15{fill:#F68757;}
	.st16{fill:#E76BE4;}
	.st17{fill:#46CD46;}
	.st18{fill:#A6A8AB;}
	.st19{fill:#C4C4C4;}
	.st20{fill:#929497;}
	.st21{fill:#A7A9AC;}
	.st22{fill:url(#SVGID_1_);}
	.st23{fill:url(#SVGID_2_);}
	.st24{fill:url(#SVGID_3_);}
	.st25{fill:url(#SVGID_4_);}
	.st26{fill:none;stroke:#A0A0A0;stroke-width:2;stroke-miterlimit:10;}
	.st27{fill:none;stroke:#A7A9AC;stroke-width:2;stroke-miterlimit:10;}
	.st28{fill:none;stroke:#EC1C24;stroke-width:3;stroke-miterlimit:10;}
	.st29{fill:url(#SVGID_5_);}
	.st30{fill:url(#SVGID_6_);}
	.st31{fill:url(#SVGID_7_);}
	.st32{fill:url(#SVGID_8_);}
	.st33{fill:url(#SVGID_9_);}
	.st34{fill:url(#SVGID_10_);}
	.st35{fill:url(#SVGID_11_);}
	.st36{fill:url(#SVGID_12_);}
	.st37{fill:url(#SVGID_13_);}
	.st38{fill:url(#SVGID_14_);}
	.st39{fill:url(#SVGID_15_);}
	.st40{fill:url(#SVGID_16_);}
</style>
<g id="Layer_2">
</g>
<g id="Layer_1">
	<g>
		<g>
			<polygon class="st13" points="901.9,517.3 923.4,517.3 923.4,493 899.6,474.5 927.9,474.5 927.8,450.3 883.6,415.9 814.6,415.9 
				814.9,527.5 859.2,561.8 928.1,561.8 928,537.6 			"/>
			<path class="st13" d="M651.6,561.8l-0.3-111.3L607,416.2h-30.4l0.1,28.5L540,416.2h-30.4l0.3,111.3l44.3,34.4h30.4l-0.1-28.5
				l36.7,28.5H651.6z"/>
			<polygon class="st13" points="161.4,326 161.3,301.8 117,267.4 28.6,267.4 28.6,288.1 28.6,288.1 28.6,291.7 57.6,314.2 
				57.8,378.7 102,413 132.5,413 132.3,326 			"/>
			<path class="st13" d="M249,388.8l-26.2-20.3h21.6l-0.1-24.3l-23.8-18.5h28.3l-0.1-24.3l-44.3-34.4h-68.9l0.3,111.6l44.3,34.4H249
				L249,388.8z"/>
			<path class="st13" d="M375.2,413l-38.6-111.6l-44.3-34.4h-34.7l-38.3,111.6l44.3,34.4h32.4l5.9-18h17.8l23.1,18H375.2z"/>
			<path class="st13" d="M737.5,413l-38.6-111.6l-44.3-34.4h-34.7l-38.3,111.6l44.3,34.4h32.4l5.9-18h17.8l23.1,18H737.5z"/>
			<path class="st13" d="M610.9,413l-0.3-111.3l-44.3-34.4H536l0.1,28.5l-36.7-28.5H469l0.3,111.3l44.3,34.4h30.4l-0.1-28.5
				l36.7,28.5H610.9z"/>
			<path class="st13" d="M783.7,275.8c-6.8-5.6-16-8.4-27.3-8.4h-48.5l0.3,111.3l44.3,34.4h51.1c11.6,0,20.8-2.7,27.4-8
				c6.7-5.4,10.1-12.9,10.1-22.1c0-7.2-2.4-13.6-6.9-19c-1.8-2.1-3.8-3.9-6.1-5.3c-1.2-1.2-2.6-2.2-4-3.1c0,0-0.1-0.1-0.1-0.1
				c9.8-5.1,14.7-12.9,14.7-23.5c0-8.8-3.5-16.1-10.5-21.8L783.7,275.8z"/>
			<polygon class="st13" points="862.1,413 924.9,413 924.8,388.8 892.5,363.6 892.3,301.8 848.1,267.4 817.6,267.4 817.9,378.7 			
				"/>
			<g>
				<g>
					<polygon class="st13" points="677.4,561.9 707.8,561.9 707.6,450.6 663.3,416.2 632.9,416.2 633.1,527.5 					"/>
				</g>
			</g>
			<polygon class="st13" points="833.3,561.9 833.1,450.3 788.8,415.9 758.4,415.9 758.5,450.3 740.7,450.3 718.5,415.9 
				689.1,415.9 689.4,527.5 733.6,561.9 764.1,561.9 764,530.8 803.9,561.9 			"/>
			<path class="st13" d="M403.5,400.7c10.4,8.8,22.9,13.3,37.2,13.3c12.2,0,23.3-3.3,32.8-9.8c9.6-6.5,16.3-15.7,20.1-27.3l1-2.9
				l-44.3-34.4h-31c0.7-1.1,1.5-2.2,2.5-3.3c2.4-2.6,5.2-4.5,8.5-5.8h15.3l13.6,9.9h35.4l-1-2.9c-3.7-11.4-10.4-20.4-19.7-26.9
				L429,275.7c-9.5-6.5-20.6-9.8-32.8-9.8c-15.8,0-29.3,5.4-40.3,16.1c-10.9,10.7-16.5,24.4-16.4,40.8c0,16.4,5.6,30.1,16.6,40.8
				L403.5,400.7z"/>
			<path class="st13" d="M444.1,549.5c10.4,8.8,22.9,13.3,37.2,13.3c12.2,0,23.3-3.3,32.8-9.8c9.6-6.5,16.3-15.7,20.1-27.3l1-2.9
				l-44.3-34.4h-31c0.7-1.1,1.5-2.2,2.5-3.3c2.4-2.6,5.2-4.5,8.5-5.8h15.3l13.6,9.9h35.4l-1-2.9c-3.7-11.4-10.4-20.4-19.7-26.9
				l-44.8-34.7c-9.5-6.5-20.6-9.8-32.8-9.8c-15.8,0-29.3,5.4-40.3,16.1c-10.9,10.7-16.5,24.4-16.4,40.8c0,16.4,5.6,30.1,16.6,40.8
				L444.1,549.5z"/>
			<polygon class="st13" points="985.1,368.5 1006.6,368.5 1006.6,344.2 982.8,325.7 1011.1,325.7 1011,301.5 966.7,267.1 
				897.8,267.1 898.1,378.7 942.3,413 1011.3,413 1011.2,388.8 			"/>
			<path class="st13" d="M289.2,561.9L289,450.6l-44.3-34.4h-33.5l-14.1,34.4h-29.6l-14.4-34.4h-33.5l0.3,111.3l44.3,34.4h30.4
				l0-16.3l21,16.3h22.3l5-12.4l15.9,12.4H289.2z"/>
			<path class="st13" d="M415.8,561.8l-38.6-111.6l-44.3-34.4h-34.7l-38.3,111.6l44.3,34.4h32.4l5.9-18h17.8l23.1,18H415.8z"/>
		</g>
		<g>
			<g>
				<g>
					<path class="st14" d="M743.7,652.5c0-36.7,257.2-197,182.5-197"/>
				</g>
				<g>
					<path class="st14" d="M781.7,652.5c0-62.4,269.6-153.7,139.8-153.7"/>
				</g>
				<g>
					<path class="st14" d="M818,652.5c0-76.9,257-110.3,108.1-110.3"/>
				</g>
				<g>
					<path class="st14" d="M261.1,191.7c0,60.8-176,30.2-176,89.3"/>
				</g>
				<g>
					<path class="st14" d="M300.7,191.7c0,65.4-185.6,39.6-185.6,89.3"/>
				</g>
				<g>
					<path class="st14" d="M339.8,191.7c0,81.7-194.7,39.6-194.7,89.3"/>
				</g>
			</g>
		</g>
		<g>
			<path class="st13" d="M818.2,645.6H673.2v127.9l38.1,29.6c1.5,0.9,3.2,1.3,4.9,1.3h132.6c5.4,0,9.8-4.4,9.8-9.8V682.2
				c0-3.5-1.9-6.8-5-8.5L818.2,645.6z"/>
		</g>
		<g>
			<path class="st13" d="M341.6,36.8H196.6v127.9l38.1,29.6c1.5,0.9,3.2,1.3,4.9,1.3h132.6c5.4,0,9.8-4.4,9.8-9.8V73.5
				c0-3.5-1.9-6.8-5-8.5L341.6,36.8z"/>
		</g>
		<path class="st15" d="M785.1,619c-4.5,0-8.1,1.8-8.1,3.4v1.2v9.7v1.2c0,1.6,3.6,3.4,8.1,3.4c4.5,0,8.1-1.8,8.1-3.4v-1.2v-9.7v-1.2
			C793.3,620.8,789.6,619,785.1,619z"/>
		<path class="st16" d="M748.2,619c-4.5,0-8.1,1.8-8.1,3.4v1.2v9.7v1.2c0,1.6,3.6,3.4,8.1,3.4c4.5,0,8.1-1.8,8.1-3.4v-1.2v-9.7v-1.2
			C756.4,620.8,752.7,619,748.2,619z"/>
		<path class="st17" d="M711.4,619c-4.5,0-8.1,1.8-8.1,3.4v1.2v9.7v1.2c0,1.6,3.6,3.4,8.1,3.4c4.5,0,8.1-1.8,8.1-3.4v-1.2v-9.7v-1.2
			C719.5,620.8,715.9,619,711.4,619z"/>
		<path class="st15" d="M112.8,247.4c-4.5,0-8.1,1.8-8.1,3.4v1.2v9.7v1.2c0,1.6,3.6,3.4,8.1,3.4c4.5,0,8.1-1.8,8.1-3.4v-1.2V252
			v-1.2C120.9,249.2,117.3,247.4,112.8,247.4z"/>
		<path class="st16" d="M82.8,247.4c-4.5,0-8.1,1.8-8.1,3.4v1.2v9.7v1.2c0,1.6,3.6,3.4,8.1,3.4c4.5,0,8.1-1.8,8.1-3.4v-1.2V252v-1.2
			C90.9,249.2,87.3,247.4,82.8,247.4z"/>
		<path class="st17" d="M52.8,247.4c-4.5,0-8.1,1.8-8.1,3.4v1.2v9.7v1.2c0,1.6,3.6,3.4,8.1,3.4c4.5,0,8.1-1.8,8.1-3.4v-1.2V252v-1.2
			C60.9,249.2,57.3,247.4,52.8,247.4z"/>
		<g>
			<g>
				<polygon class="st18" points="801.1,773.5 673.2,773.5 673.2,645.6 690.3,628.4 818.2,628.4 818.2,756.3 				"/>
				<rect x="690.3" y="628.4" class="st5" width="127.9" height="127.9"/>
				<polygon class="st19" points="690.3,628.4 673.2,645.6 673.2,773.5 690.3,756.3 				"/>
			</g>
			<path id="XMLID_14_" class="st18" d="M722.4,681.7V703h14.2l17.7,17.7V664l-17.7,17.7H722.4z M770.2,692.4
				c0-6.3-3.6-11.7-8.9-14.3v28.5C766.6,704,770.2,698.6,770.2,692.4z M761.3,661.3v7.3c10.2,3,17.7,12.5,17.7,23.8
				c0,11.2-7.5,20.7-17.7,23.8v7.3c14.2-3.2,24.8-15.9,24.8-31.1C786.1,677.2,775.5,664.5,761.3,661.3z"/>
		</g>
		<ellipse class="st20" cx="238.6" cy="374.1" rx="5.7" ry="1.5"/>
		<ellipse class="st21" cx="490.9" cy="374.1" rx="5.7" ry="1.5"/>
		<ellipse class="st21" cx="722.1" cy="374.1" rx="5.7" ry="1.5"/>
		<path class="st15" d="M709.6,396.2c-4.5,0-8.1,1.8-8.1,3.4v1.2v9.7v1.2c0,1.6,3.6,3.4,8.1,3.4c4.5,0,8.1-1.8,8.1-3.4v-1.2v-9.7
			v-1.2C717.7,398,714.1,396.2,709.6,396.2z"/>
		<path class="st16" d="M530.3,396.1c-4.5,0-8.1,1.8-8.1,3.4v1.2v9.7v1.2c0,1.6,3.6,3.4,8.1,3.4c4.5,0,8.1-1.8,8.1-3.4v-1.2v-9.7
			v-1.2C538.4,397.9,534.8,396.1,530.3,396.1z"/>
		<path class="st17" d="M318.5,396.2c-4.5,0-8.1,1.8-8.1,3.4v1.2v9.7v1.2c0,1.6,3.6,3.4,8.1,3.4c4.5,0,8.1-1.8,8.1-3.4v-1.2v-9.7
			v-1.2C326.7,398,323,396.2,318.5,396.2z"/>
		<g>
			<g>
				<polygon class="st18" points="117,267 117.1,291.3 88,291.3 88.2,378.3 57.8,378.3 57.6,291.3 28.6,291.3 28.6,267 				"/>
			</g>
			<g>
				<polygon class="st18" points="127.1,257.1 127.1,281.4 117.1,291.3 117,267 				"/>
			</g>
			<g>
				<polygon class="st18" points="127.1,281.4 117.1,291.3 88,291.3 98,281.4 				"/>
			</g>
			<g>
				<polygon class="st18" points="38.6,257.1 127.1,257.1 117,267 28.6,267 				"/>
			</g>
			<g>
				<polygon class="st18" points="67.6,281.4 57.6,291.3 28.6,291.3 38.7,281.4 				"/>
			</g>
			<g>
				<polygon class="st19" points="38.7,281.4 28.6,291.3 28.6,267 38.6,257.1 				"/>
			</g>
			<g>
				<polygon class="st18" points="98,281.4 98.2,368.4 88.2,378.3 88,291.3 				"/>
			</g>
			<g>
				<polygon class="st18" points="98.2,368.4 88.2,378.3 57.8,378.3 67.8,368.4 				"/>
			</g>
			<g>
				<polygon class="st19" points="67.8,368.4 57.8,378.3 57.6,291.3 67.6,281.4 				"/>
			</g>
			<g>
				<polygon class="st18" points="204.5,266.7 204.6,291 166.1,291 166.1,309.5 200.1,309.5 200.1,333.7 166.2,333.7 166.2,354 
					204.7,354 204.8,378.3 135.8,378.3 135.6,266.7 				"/>
			</g>
			<g>
				<polygon class="st18" points="214.6,256.8 214.6,281.1 204.6,291 204.5,266.7 				"/>
			</g>
			<g>
				<polygon class="st18" points="214.6,281.1 204.6,291 166.1,291 176.1,281.1 				"/>
			</g>
			<g>
				<polygon class="st18" points="145.6,256.8 214.6,256.8 204.5,266.7 135.6,266.7 				"/>
			</g>
			<g>
				<polygon class="st18" points="210.1,299.6 210.2,323.8 200.1,333.7 200.1,309.5 				"/>
			</g>
			<g>
				<polygon class="st18" points="176.1,281.1 176.2,299.6 166.1,309.5 166.1,291 				"/>
			</g>
			<g>
				<polygon class="st18" points="176.2,299.6 210.1,299.6 200.1,309.5 166.1,309.5 				"/>
			</g>
			<g>
				<polygon class="st18" points="210.2,323.8 200.1,333.7 166.2,333.7 176.2,323.8 				"/>
			</g>
			<g>
				<polygon class="st18" points="214.8,344.1 214.8,368.4 204.8,378.3 204.7,354 				"/>
			</g>
			<g>
				<polygon class="st18" points="176.3,344.1 214.8,344.1 204.7,354 166.2,354 				"/>
			</g>
			<g>
				<polygon class="st18" points="176.2,323.8 176.3,344.1 166.2,354 166.2,333.7 				"/>
			</g>
			<g>
				<polygon class="st18" points="214.8,368.4 204.8,378.3 135.8,378.3 145.9,368.4 				"/>
			</g>
			<g>
				<polygon class="st19" points="145.9,368.4 135.8,378.3 135.6,266.7 145.6,256.8 				"/>
			</g>
			<g>
				<path class="st18" d="M396.2,265.5c12.2,0,23.3,3.3,32.8,9.8c9.6,6.5,16.4,15.7,20.2,27.3l1,2.9h-35.4l-0.6-1.2
					c-3.7-7.1-9.4-10.5-17.4-10.5c-8.3,0-14.6,2.5-19.3,7.6c-4.7,5.1-7,12.1-7,20.8c0,8.7,2.4,15.7,7.1,20.8
					c4.7,5.1,11,7.6,19.4,7.6c8.1,0,13.7-3.4,17.4-10.5l0.6-1.2h35.4l-1,2.9c-3.8,11.6-10.5,20.8-20.1,27.3
					c-9.5,6.5-20.5,9.8-32.8,9.8c-15.8,0-29.4-5.4-40.3-16.1c-11-10.7-16.6-24.4-16.6-40.8c0-16.4,5.5-30.1,16.4-40.8
					C366.8,270.9,380.4,265.5,396.2,265.5z"/>
			</g>
			<g>
				<polygon class="st18" points="459.2,292.7 460.2,295.7 450.1,305.6 449.2,302.7 				"/>
			</g>
			<g>
				<path class="st18" d="M406.2,255.6c12.2,0,23.3,3.3,32.8,9.8c9.6,6.5,16.4,15.7,20.2,27.3l-10,9.9
					c-3.8-11.6-10.6-20.8-20.2-27.3c-9.5-6.5-20.6-9.8-32.8-9.8L406.2,255.6z"/>
			</g>
			<g>
				<polygon class="st18" points="460.2,295.7 450.1,305.6 414.7,305.6 424.8,295.7 				"/>
			</g>
			<g>
				<polygon class="st18" points="460.3,329.2 459.3,332.2 449.3,342.1 450.2,339.1 				"/>
			</g>
			<linearGradient id="SVGID_1_" gradientUnits="userSpaceOnUse" x1="388.6268" y1="311.0385" x2="415.4328" y2="284.2325">
				<stop  offset="0" style="stop-color:#BBBDBF"/>
				<stop  offset="1" style="stop-color:#A6A8AB"/>
			</linearGradient>
			<path class="st22" d="M424.2,294.5c-3.7-7.1-9.4-10.5-17.4-10.5c-7.8,0-13.9,2.2-18.5,6.7l-10,9.9c4.6-4.5,10.6-6.7,18.5-6.7
				c8.1,0,13.7,3.4,17.4,10.5l0.6,1.2l10-9.9L424.2,294.5z"/>
			<g>
				<polygon class="st18" points="424.9,329.2 460.3,329.2 450.2,339.1 414.8,339.1 				"/>
			</g>
			<g>
				<polygon class="st18" points="424.2,330.4 414.2,340.4 414.8,339.1 424.9,329.2 				"/>
			</g>
			<g>
				<path class="st18" d="M365.9,271.7c10.9-10.7,24.5-16.1,40.3-16.1l-10,9.9c-15.8,0-29.3,5.4-40.3,16.1
					C358.9,278.6,362.9,274.6,365.9,271.7z"/>
			</g>
			<g>
				<path class="st18" d="M436.2,363.6c5.9-5.8,10.3-13,13-21.5l10-9.9c-2.8,8.5-7.1,15.7-13,21.5
					C443.3,356.7,439.3,360.6,436.2,363.6z"/>
			</g>
			<g>
				<path class="st18" d="M420.3,335.9l-10,9.9c1.5-1.5,2.8-3.3,3.9-5.5l10-9.9C423.1,332.6,421.8,334.4,420.3,335.9z"/>
			</g>
			<g>
				<path class="st18" d="M388.3,290.7c-0.3,0.3-0.6,0.6-0.9,0.9c-4.7,5.1-7,12.1-7,20.8c0,8.7,2.4,15.7,7.1,20.8
					c4.7,5.1,11,7.6,19.4,7.6c5.6,0,10-1.7,13.4-5l-10,9.9c-3.4,3.4-7.9,5-13.4,5c-8.3,0-14.6-2.5-19.4-7.6
					c-4.7-5.1-7.1-12.1-7.1-20.8c0-8.7,2.3-15.7,7-20.8c0.3-0.3,0.6-0.6,0.9-0.9C381.2,297.7,385.3,293.7,388.3,290.7z"/>
			</g>
			<g>
				<linearGradient id="SVGID_2_" gradientUnits="userSpaceOnUse" x1="355.8256" y1="362.9041" x2="406.4973" y2="312.2323">
					<stop  offset="0" style="stop-color:#BBBDBF"/>
					<stop  offset="1" style="stop-color:#A6A8AB"/>
				</linearGradient>
				<path class="st23" d="M446.3,353.7l-10,9.9c-2.1,2.1-4.5,4.1-7.1,5.8c-9.5,6.5-20.5,9.8-32.8,9.8c-15.8,0-29.4-5.4-40.3-16.1
					c-11-10.7-16.6-24.4-16.6-40.8c0-16.4,5.5-30.1,16.4-40.8l10-9.9c-10.9,10.7-16.5,24.4-16.4,40.8c0,16.4,5.6,30.1,16.6,40.8
					c11,10.7,24.5,16.1,40.3,16.1c12.2,0,23.3-3.3,32.8-9.8C441.8,357.7,444.1,355.8,446.3,353.7z"/>
			</g>
			<g>
				<path class="st18" d="M292.3,266.7l38.6,111.6h-32.5l-6-18h-35l-5.9,18h-32.4l38.3-111.6H292.3z M265.4,336.1h18.9l-9.5-28.6
					L265.4,336.1"/>
			</g>
			<g>
				<polygon class="st18" points="267.6,256.8 302.3,256.8 292.3,266.7 257.5,266.7 				"/>
			</g>
			<g>
				<polygon class="st18" points="302.3,256.8 340.9,368.4 330.9,378.3 292.3,266.7 				"/>
			</g>
			<g>
				<polygon class="st18" points="294.4,326.2 284.4,336.1 274.8,307.5 284.9,297.6 				"/>
			</g>
			<g>
				<polygon class="st18" points="284.9,297.6 275.5,326.2 265.4,336.1 274.8,307.5 				"/>
			</g>
			<g>
				<polygon class="st18" points="275.5,326.2 294.4,326.2 284.4,336.1 265.4,336.1 				"/>
			</g>
			<g>
				<polygon class="st19" points="308.4,368.4 298.4,378.3 292.4,360.4 302.5,350.5 				"/>
			</g>
			<g>
				<polygon class="st18" points="340.9,368.4 330.9,378.3 298.4,378.3 308.4,368.4 				"/>
			</g>
			<g>
				<polygon class="st18" points="302.5,350.5 292.4,360.4 257.5,360.4 267.5,350.5 				"/>
			</g>
			<g>
				<polygon class="st18" points="267.5,350.5 261.6,368.4 251.6,378.3 257.5,360.4 				"/>
			</g>
			<g>
				<polygon class="st19" points="229.3,368.4 219.2,378.3 257.5,266.7 267.6,256.8 				"/>
			</g>
			<g>
				<polygon class="st18" points="261.6,368.4 251.6,378.3 219.2,378.3 229.3,368.4 				"/>
			</g>
			<g>
				<polygon class="st18" points="566.4,267 566.6,378.3 536.2,378.3 536.1,334 499.5,334 499.6,378.3 469.2,378.3 469,267 
					499.4,267 499.5,309.8 536.1,309.8 536,267 				"/>
			</g>
			<g>
				<polygon class="st18" points="546,257.1 576.4,257.1 566.4,267 536,267 				"/>
			</g>
			<g>
				<polygon class="st19" points="546.1,299.9 536.1,309.8 536,267 546,257.1 				"/>
			</g>
			<g>
				<polygon class="st18" points="479,257.1 509.4,257.1 499.4,267 469,267 				"/>
			</g>
			<g>
				<polygon class="st18" points="509.5,299.9 546.1,299.9 536.1,309.8 499.5,309.8 				"/>
			</g>
			<g>
				<polygon class="st18" points="509.4,257.1 509.5,299.9 499.5,309.8 499.4,267 				"/>
			</g>
			<g>
				<polygon class="st18" points="576.4,257.1 576.7,368.4 566.6,378.3 566.4,267 				"/>
			</g>
			<g>
				<polygon class="st18" points="546.2,324.1 536.1,334 499.5,334 509.6,324.1 				"/>
			</g>
			<g>
				<polygon class="st18" points="576.7,368.4 566.6,378.3 536.2,378.3 546.3,368.4 				"/>
			</g>
			<g>
				<polygon class="st19" points="546.3,368.4 536.2,378.3 536.1,334 546.2,324.1 				"/>
			</g>
			<g>
				<polygon class="st18" points="509.6,324.1 509.7,368.4 499.6,378.3 499.5,334 				"/>
			</g>
			<g>
				<polygon class="st18" points="509.7,368.4 499.6,378.3 469.2,378.3 479.3,368.4 				"/>
			</g>
			<g>
				<polygon class="st19" points="479.3,368.4 469.2,378.3 469,267 479,257.1 				"/>
			</g>
			<g>
				<path class="st18" d="M654.6,266.7l38.6,111.6h-32.5l-6-18h-34.9l-5.9,18h-32.4l38.3-111.6H654.6z M627.7,336.1h18.9l-9.5-28.6
					L627.7,336.1"/>
			</g>
			<g>
				<polygon class="st18" points="629.9,256.8 664.6,256.8 654.6,266.7 619.8,266.7 				"/>
			</g>
			<g>
				<polygon class="st18" points="664.6,256.8 703.3,368.4 693.2,378.3 654.6,266.7 				"/>
			</g>
			<g>
				<polygon class="st18" points="656.7,326.2 646.7,336.1 637.1,307.5 647.2,297.6 				"/>
			</g>
			<g>
				<polygon class="st18" points="647.2,297.6 637.8,326.2 627.7,336.1 637.1,307.5 				"/>
			</g>
			<g>
				<polygon class="st18" points="637.8,326.2 656.7,326.2 646.7,336.1 627.7,336.1 				"/>
			</g>
			<g>
				<polygon class="st19" points="670.7,368.4 660.7,378.3 654.7,360.4 664.8,350.5 				"/>
			</g>
			<g>
				<polygon class="st18" points="703.3,368.4 693.2,378.3 660.7,378.3 670.7,368.4 				"/>
			</g>
			<g>
				<polygon class="st18" points="664.8,350.5 654.7,360.4 619.8,360.4 629.8,350.5 				"/>
			</g>
			<g>
				<polygon class="st18" points="629.8,350.5 624,368.4 613.9,378.3 619.8,360.4 				"/>
			</g>
			<g>
				<polygon class="st19" points="591.6,368.4 581.5,378.3 619.8,266.7 629.9,256.8 				"/>
			</g>
			<g>
				<polygon class="st18" points="624,368.4 613.9,378.3 581.5,378.3 591.6,368.4 				"/>
			</g>
			<g>
				<path class="st18" d="M789.8,329.3c4.6,5.4,6.9,11.7,6.9,19c0,9.2-3.4,16.6-10.1,22.1c-6.6,5.3-15.8,8-27.4,8h-51.1L707.9,267
					h48.5c11.3,0,20.5,2.8,27.3,8.4c6.9,5.7,10.5,13,10.5,21.8c0,11-5.3,19-15.8,24.1C782.8,323,786.7,325.7,789.8,329.3z
					 M763.1,351.4c1.8-1.7,2.7-4,2.7-7.2c0-3.2-0.9-5.6-2.7-7.4c-1.8-1.8-4.1-2.7-7-2.7h-17.6l0,19.8h17.3
					C758.8,354,761.2,353.2,763.1,351.4 M738.4,291.3l0,18.6h14.7c3.2,0,5.7-0.8,7.6-2.4c1.8-1.5,2.6-3.7,2.6-6.9
					c0-3.1-0.9-5.4-2.6-7c-1.9-1.6-4.3-2.4-7.6-2.4H738.4"/>
			</g>
			<g>
				<path class="st18" d="M787,315.4c4.8-4.7,7.2-10.8,7.1-18.1c0-8.8-3.5-16.1-10.5-21.8c-6.8-5.6-16-8.4-27.3-8.4l10-9.9
					c11.3,0,20.5,2.8,27.3,8.4c6.9,5.7,10.5,13,10.5,21.8c0,7.4-2.4,13.4-7.1,18.1C794,308.5,790,312.4,787,315.4z"/>
			</g>
			<g>
				<path class="st18" d="M797.1,305.5l-10,9.9c-2.3,2.3-5.2,4.3-8.7,5.9l10-9.9C791.8,309.8,794.7,307.8,797.1,305.5z"/>
			</g>
			<g>
				<path class="st18" d="M788.4,311.4c4.5,1.7,8.3,4.3,11.4,8l-10,9.9c-3.1-3.6-6.9-6.3-11.4-8
					C781.3,318.4,785.4,314.4,788.4,311.4z"/>
			</g>
			<g>
				<path class="st18" d="M771.1,297.3l-10,9.9c1.5-1.5,2.2-3.6,2.2-6.5c0-3.1-0.9-5.4-2.6-7c-1.9-1.6-4.3-2.4-7.6-2.4l10-9.9
					c3.2,0,5.7,0.8,7.6,2.4c1.8,1.5,2.6,3.8,2.6,7C773.3,293.7,772.6,295.8,771.1,297.3z"/>
			</g>
			<g>
				<polygon class="st18" points="763.1,281.4 753.1,291.3 738.4,291.3 748.4,281.4 				"/>
			</g>
			<g>
				<path class="st18" d="M761.1,307.2c-0.1,0.1-0.2,0.2-0.4,0.3c-1.9,1.6-4.3,2.4-7.6,2.4l10-9.9c3.2,0,5.7-0.8,7.6-2.4
					c0.1-0.1,0.3-0.2,0.4-0.3C768.1,300.3,764.1,304.3,761.1,307.2z"/>
			</g>
			<g>
				<polygon class="st18" points="717.9,257.1 766.4,257.1 756.4,267 707.9,267 				"/>
			</g>
			<g>
				<polygon class="st18" points="748.4,281.4 748.4,300 738.4,309.9 738.4,291.3 				"/>
			</g>
			<g>
				<polygon class="st18" points="748.4,300 763.2,300 753.1,309.9 738.4,309.9 				"/>
			</g>
			<g>
				<path class="st18" d="M788.8,368.3c5.3-5.2,8-12,7.9-20.1c0-7.2-2.4-13.6-6.9-19l10-9.9c4.6,5.4,6.9,11.7,6.9,19
					c0,8.1-2.7,14.9-7.9,20.1C795.8,361.4,791.8,365.4,788.8,368.3z"/>
			</g>
			<g>
				<path class="st18" d="M773.3,341.3l-10,9.9c1.7-1.7,2.5-4,2.5-7c0-3.2-0.9-5.6-2.7-7.4c-1.8-1.8-4.1-2.7-7-2.7l10-9.9
					c2.9,0,5.2,0.9,7,2.7c1.8,1.8,2.7,4.2,2.7,7.4C775.9,337.4,775,339.6,773.3,341.3z"/>
			</g>
			<g>
				<path class="st18" d="M763.3,351.2c-0.1,0.1-0.1,0.1-0.2,0.2l10-9.9c0.1-0.1,0.1-0.1,0.2-0.2
					C770.3,344.3,766.3,348.3,763.3,351.2z"/>
			</g>
			<g>
				<polygon class="st18" points="766.1,324.3 756.1,334.2 738.4,334.2 748.5,324.3 				"/>
			</g>
			<g>
				<path class="st18" d="M765.8,344.1c3,0,5.4-0.8,7.3-2.6l-10,9.9c-1.9,1.8-4.3,2.6-7.3,2.6L765.8,344.1z"/>
			</g>
			<g>
				<polygon class="st18" points="748.5,324.3 748.5,344.1 738.5,354 738.4,334.2 				"/>
			</g>
			<g>
				<polygon class="st18" points="748.5,344.1 765.8,344.1 755.8,354 738.5,354 				"/>
			</g>
			<g>
				<path class="st18" d="M798.8,358.4l-10,9.9c-0.7,0.7-1.4,1.3-2.2,1.9c-6.6,5.3-15.8,8-27.4,8l10-9.9c11.6,0,20.8-2.7,27.4-8
					C797.4,359.8,798.1,359.1,798.8,358.4z"/>
			</g>
			<g>
				<polygon class="st18" points="769.2,368.4 759.2,378.3 708.1,378.3 718.2,368.4 				"/>
			</g>
			<g>
				<polygon class="st19" points="718.2,368.4 708.1,378.3 707.9,267 717.9,257.1 				"/>
			</g>
			<g>
				<polygon class="st18" points="848.1,267 848.3,354 880.5,354 880.6,378.3 817.9,378.3 817.6,267 				"/>
			</g>
			<g>
				<polygon class="st18" points="827.7,257.1 858.1,257.1 848.1,267 817.6,267 				"/>
			</g>
			<g>
				<polygon class="st18" points="890.6,344.1 890.6,368.4 880.6,378.3 880.5,354 				"/>
			</g>
			<g>
				<polygon class="st18" points="858.1,257.1 858.3,344.1 848.3,354 848.1,267 				"/>
			</g>
			<g>
				<polygon class="st18" points="858.3,344.1 890.6,344.1 880.5,354 848.3,354 				"/>
			</g>
			<g>
				<polygon class="st18" points="890.6,368.4 880.6,378.3 817.9,378.3 827.9,368.4 				"/>
			</g>
			<g>
				<polygon class="st19" points="827.9,368.4 817.9,378.3 817.6,267 827.7,257.1 				"/>
			</g>
			<g>
				<polygon class="st18" points="966.8,266.7 966.8,291 928.3,291 928.3,309.5 962.3,309.5 962.4,333.7 928.4,333.7 928.4,354 
					967,354 967,378.3 898.1,378.3 897.8,266.7 				"/>
			</g>
			<g>
				<polygon class="st18" points="976.8,256.8 976.9,281.1 966.8,291 966.8,266.7 				"/>
			</g>
			<g>
				<polygon class="st18" points="976.9,281.1 966.8,291 928.3,291 938.3,281.1 				"/>
			</g>
			<g>
				<polygon class="st18" points="907.9,256.8 976.8,256.8 966.8,266.7 897.8,266.7 				"/>
			</g>
			<g>
				<polygon class="st18" points="972.3,299.6 972.4,323.8 962.4,333.7 962.3,309.5 				"/>
			</g>
			<g>
				<polygon class="st18" points="938.3,281.1 938.4,299.6 928.3,309.5 928.3,291 				"/>
			</g>
			<g>
				<polygon class="st18" points="938.4,299.6 972.3,299.6 962.3,309.5 928.3,309.5 				"/>
			</g>
			<g>
				<polygon class="st18" points="972.4,323.8 962.4,333.7 928.4,333.7 938.4,323.8 				"/>
			</g>
			<g>
				<polygon class="st18" points="977,344.1 977.1,368.4 967,378.3 967,354 				"/>
			</g>
			<g>
				<polygon class="st18" points="938.5,344.1 977,344.1 967,354 928.4,354 				"/>
			</g>
			<g>
				<polygon class="st18" points="938.4,323.8 938.5,344.1 928.4,354 928.4,333.7 				"/>
			</g>
			<g>
				<polygon class="st18" points="977.1,368.4 967,378.3 898.1,378.3 908.1,368.4 				"/>
			</g>
			<g>
				<polygon class="st19" points="908.1,368.4 898.1,378.3 897.8,266.7 907.9,256.8 				"/>
			</g>
			<g>
				<polygon class="st18" points="224.6,517.2 214.6,527.1 214.4,476.1 224.5,466.1 				"/>
			</g>
			<g>
				<polygon class="st19" points="244.7,415.8 245,527.1 214.6,527.1 214.4,476.1 193.6,527.1 171.3,527.1 150.3,476.1 150.4,527.1 
					120,527.1 119.7,415.8 153.2,415.8 182.4,485.8 211.3,415.8 				"/>
			</g>
			<g>
				<polygon class="st18" points="221.3,405.9 254.8,405.9 244.7,415.8 211.3,415.8 				"/>
			</g>
			<g>
				<polygon class="st18" points="254.8,405.9 255,517.2 245,527.1 244.7,415.8 				"/>
			</g>
			<g>
				<polygon class="st18" points="129.8,405.9 163.2,405.9 153.2,415.8 119.7,415.8 				"/>
			</g>
			<g>
				<polygon class="st19" points="192.5,475.9 182.4,485.8 211.3,415.8 221.3,405.9 				"/>
			</g>
			<g>
				<polygon class="st18" points="163.2,405.9 192.5,475.9 182.4,485.8 153.2,415.8 				"/>
			</g>
			<g>
				<polygon class="st18" points="255,517.2 245,527.1 214.6,527.1 224.6,517.2 				"/>
			</g>
			<g>
				<polygon class="st18" points="224.5,466.1 203.6,517.2 193.6,527.1 214.4,476.1 				"/>
			</g>
			<g>
				<polygon class="st18" points="203.6,517.2 193.6,527.1 171.3,527.1 181.4,517.2 				"/>
			</g>
			<g>
				<polygon class="st19" points="181.4,517.2 171.3,527.1 150.3,476.1 160.3,466.1 				"/>
			</g>
			<g>
				<polygon class="st18" points="160.3,466.1 160.4,517.2 150.4,527.1 150.3,476.1 				"/>
			</g>
			<g>
				<polygon class="st19" points="130,517.2 120,527.1 119.7,415.8 129.8,405.9 				"/>
			</g>
			<g>
				<polygon class="st18" points="160.4,517.2 150.4,527.1 120,527.1 130,517.2 				"/>
			</g>
			<g>
				<path class="st18" d="M436.8,414.3c12.2,0,23.3,3.3,32.8,9.8c9.6,6.5,16.4,15.7,20.2,27.3l1,2.9h-35.4l-0.6-1.2
					c-3.7-7.1-9.4-10.5-17.4-10.5c-8.3,0-14.6,2.5-19.3,7.6c-4.7,5.1-7,12.1-7,20.8c0,8.7,2.4,15.7,7.1,20.8
					c4.7,5.1,11,7.6,19.4,7.6c8.1,0,13.7-3.4,17.4-10.5l0.6-1.2h35.4l-1,2.9c-3.8,11.6-10.5,20.8-20.1,27.3
					c-9.5,6.5-20.6,9.8-32.8,9.8c-15.8,0-29.4-5.4-40.3-16.1c-11-10.7-16.6-24.4-16.6-40.8c0-16.4,5.5-30.1,16.4-40.8
					C407.5,419.7,421,414.3,436.8,414.3z"/>
			</g>
			<g>
				<polygon class="st18" points="499.9,441.6 500.8,444.5 490.8,454.4 489.8,451.5 				"/>
			</g>
			<g>
				<path class="st18" d="M446.9,404.4c12.2,0,23.3,3.3,32.8,9.8c9.6,6.5,16.4,15.7,20.2,27.3l-10,9.9
					c-3.8-11.6-10.6-20.8-20.2-27.3c-9.5-6.5-20.6-9.8-32.8-9.8L446.9,404.4z"/>
			</g>
			<g>
				<polygon class="st18" points="500.8,444.5 490.8,454.4 455.4,454.4 465.4,444.5 				"/>
			</g>
			<g>
				<polygon class="st18" points="500.9,478 500,481 489.9,490.9 490.9,488 				"/>
			</g>
			<linearGradient id="SVGID_3_" gradientUnits="userSpaceOnUse" x1="429.3007" y1="459.8398" x2="456.0929" y2="433.0476">
				<stop  offset="0" style="stop-color:#BBBDBF"/>
				<stop  offset="1" style="stop-color:#A6A8AB"/>
			</linearGradient>
			<path class="st24" d="M464.8,443.3c-3.7-7.1-9.4-10.5-17.4-10.5c-7.8,0-13.9,2.2-18.5,6.7l-10,9.9c4.6-4.5,10.6-6.7,18.5-6.7
				c8.1,0,13.7,3.4,17.4,10.5l0.6,1.2l10-9.9L464.8,443.3z"/>
			<g>
				<polygon class="st18" points="465.5,478 500.9,478 490.9,488 455.5,488 				"/>
			</g>
			<g>
				<polygon class="st18" points="464.9,479.3 454.9,489.2 455.5,488 465.5,478 				"/>
			</g>
			<g>
				<path class="st18" d="M406.6,420.5c10.9-10.7,24.5-16.1,40.3-16.1l-10,9.9c-15.8,0-29.3,5.4-40.3,16.1
					C399.6,427.4,403.6,423.5,406.6,420.5z"/>
			</g>
			<g>
				<path class="st18" d="M476.9,512.4c5.9-5.8,10.3-13,13-21.5l10-9.9c-2.8,8.5-7.1,15.7-13,21.5
					C483.9,505.5,479.9,509.4,476.9,512.4z"/>
			</g>
			<g>
				<path class="st18" d="M461,484.7l-10,9.9c1.5-1.5,2.8-3.3,3.9-5.5l10-9.9C463.8,481.4,462.5,483.2,461,484.7z"/>
			</g>
			<g>
				<path class="st18" d="M428.9,439.5c-0.3,0.3-0.6,0.6-0.9,0.9c-4.7,5.1-7,12.1-7,20.8c0,8.7,2.4,15.7,7.1,20.8
					c4.7,5.1,11,7.6,19.4,7.6c5.6,0,10-1.7,13.5-5l-10,9.9c-3.4,3.4-7.9,5-13.5,5c-8.3,0-14.6-2.5-19.4-7.6
					c-4.7-5.1-7.1-12.1-7.1-20.8c0-8.7,2.3-15.7,7-20.8c0.3-0.3,0.6-0.6,0.9-0.9C421.9,446.5,425.9,442.5,428.9,439.5z"/>
			</g>
			<g>
				<linearGradient id="SVGID_4_" gradientUnits="userSpaceOnUse" x1="396.4863" y1="511.7192" x2="447.1577" y2="461.0478">
					<stop  offset="0" style="stop-color:#BBBDBF"/>
					<stop  offset="1" style="stop-color:#A6A8AB"/>
				</linearGradient>
				<path class="st25" d="M487,502.5l-10,9.9c-2.1,2.1-4.5,4.1-7.1,5.8c-9.5,6.5-20.6,9.8-32.8,9.8c-15.8,0-29.4-5.4-40.3-16.1
					c-11-10.7-16.6-24.4-16.6-40.8c0-16.4,5.5-30.1,16.4-40.8l10-9.9c-10.9,10.7-16.5,24.4-16.4,40.8c0,16.4,5.6,30.1,16.6,40.8
					c11,10.7,24.5,16.1,40.3,16.1c12.2,0,23.3-3.3,32.8-9.8C482.5,506.6,484.8,504.6,487,502.5z"/>
			</g>
			<g>
				<path class="st18" d="M332.9,415.5l38.6,111.6H339l-6-18h-35l-5.9,18h-32.4l38.3-111.6H332.9z M306.1,484.9H325l-9.5-28.6
					L306.1,484.9"/>
			</g>
			<g>
				<polygon class="st18" points="308.2,405.6 343,405.6 332.9,415.5 298.2,415.5 				"/>
			</g>
			<g>
				<polygon class="st18" points="343,405.6 381.6,517.2 371.6,527.1 332.9,415.5 				"/>
			</g>
			<g>
				<polygon class="st18" points="335.1,475 325,484.9 315.5,456.3 325.5,446.4 				"/>
			</g>
			<g>
				<polygon class="st18" points="325.5,446.4 316.1,475 306.1,484.9 315.5,456.3 				"/>
			</g>
			<g>
				<polygon class="st18" points="316.1,475 335.1,475 325,484.9 306.1,484.9 				"/>
			</g>
			<g>
				<polygon class="st19" points="349.1,517.2 339,527.1 333.1,509.2 343.1,499.3 				"/>
			</g>
			<g>
				<polygon class="st18" points="381.6,517.2 371.6,527.1 339,527.1 349.1,517.2 				"/>
			</g>
			<g>
				<polygon class="st18" points="343.1,499.3 333.1,509.2 298.1,509.2 308.2,499.3 				"/>
			</g>
			<g>
				<polygon class="st18" points="308.2,499.3 302.3,517.2 292.3,527.1 298.1,509.2 				"/>
			</g>
			<g>
				<polygon class="st19" points="269.9,517.2 259.9,527.1 298.2,415.5 308.2,405.6 				"/>
			</g>
			<g>
				<polygon class="st18" points="302.3,517.2 292.3,527.1 259.9,527.1 269.9,517.2 				"/>
			</g>
			<g>
				<polygon class="st18" points="607,415.8 607.3,527.1 576.9,527.1 576.8,482.9 540.2,482.9 540.3,527.1 509.9,527.1 509.6,415.8 
					540,415.8 540.1,458.6 576.7,458.6 576.6,415.8 				"/>
			</g>
			<g>
				<polygon class="st18" points="586.7,405.9 617.1,405.9 607,415.8 576.6,415.8 				"/>
			</g>
			<g>
				<polygon class="st19" points="586.8,448.7 576.7,458.6 576.6,415.8 586.7,405.9 				"/>
			</g>
			<g>
				<polygon class="st18" points="519.7,405.9 550.1,405.9 540,415.8 509.6,415.8 				"/>
			</g>
			<g>
				<polygon class="st18" points="550.2,448.7 586.8,448.7 576.7,458.6 540.1,458.6 				"/>
			</g>
			<g>
				<polygon class="st18" points="550.1,405.9 550.2,448.7 540.1,458.6 540,415.8 				"/>
			</g>
			<g>
				<polygon class="st18" points="617.1,405.9 617.3,517.2 607.3,527.1 607,415.8 				"/>
			</g>
			<g>
				<polygon class="st18" points="586.8,473 576.8,482.9 540.2,482.9 550.2,473 				"/>
			</g>
			<g>
				<polygon class="st18" points="617.3,517.2 607.3,527.1 576.9,527.1 586.9,517.2 				"/>
			</g>
			<g>
				<polygon class="st19" points="586.9,517.2 576.9,527.1 576.8,482.9 586.8,473 				"/>
			</g>
			<g>
				<polygon class="st18" points="550.2,473 550.3,517.2 540.3,527.1 540.2,482.9 				"/>
			</g>
			<g>
				<polygon class="st18" points="550.3,517.2 540.3,527.1 509.9,527.1 519.9,517.2 				"/>
			</g>
			<g>
				<polygon class="st19" points="519.9,517.2 509.9,527.1 509.6,415.8 519.7,405.9 				"/>
			</g>
			<g>
				<polygon class="st18" points="663.3,415.8 663.5,527.1 633.1,527.1 632.9,415.8 				"/>
			</g>
			<g>
				<polygon class="st18" points="642.9,405.9 673.3,405.9 663.3,415.8 632.9,415.8 				"/>
			</g>
			<g>
				<polygon class="st18" points="673.3,405.9 673.6,517.2 663.5,527.1 663.3,415.8 				"/>
			</g>
			<g>
				<polygon class="st18" points="673.6,517.2 663.5,527.1 633.1,527.1 643.2,517.2 				"/>
			</g>
			<g>
				<polygon class="st19" points="643.2,517.2 633.1,527.1 632.9,415.8 642.9,405.9 				"/>
			</g>
			<g>
				<polygon class="st18" points="788.8,415.5 789.1,527.1 759.7,527.1 719.6,465.1 719.8,527.1 689.4,527.1 689.1,415.5 
					718.5,415.5 758.5,477.5 758.4,415.5 				"/>
			</g>
			<g>
				<polygon class="st18" points="768.4,405.6 798.9,405.6 788.8,415.5 758.4,415.5 				"/>
			</g>
			<g>
				<polygon class="st19" points="768.6,467.6 758.5,477.5 758.4,415.5 768.4,405.6 				"/>
			</g>
			<g>
				<polygon class="st18" points="728.6,405.6 768.6,467.6 758.5,477.5 718.5,415.5 				"/>
			</g>
			<g>
				<polygon class="st18" points="699.1,405.6 728.6,405.6 718.5,415.5 689.1,415.5 				"/>
			</g>
			<g>
				<polygon class="st18" points="798.9,405.6 799.1,517.2 789.1,527.1 788.8,415.5 				"/>
			</g>
			<g>
				<polygon class="st18" points="799.1,517.2 789.1,527.1 759.7,527.1 769.7,517.2 				"/>
			</g>
			<g>
				<polygon class="st19" points="769.7,517.2 759.7,527.1 719.6,465.1 729.7,455.2 				"/>
			</g>
			<g>
				<polygon class="st18" points="729.7,455.2 729.8,517.2 719.8,527.1 719.6,465.1 				"/>
			</g>
			<g>
				<polygon class="st18" points="729.8,517.2 719.8,527.1 689.4,527.1 699.4,517.2 				"/>
			</g>
			<g>
				<polygon class="st19" points="699.4,517.2 689.4,527.1 689.1,415.5 699.1,405.6 				"/>
			</g>
			<g>
				<polygon class="st18" points="883.6,415.5 883.6,439.8 845.1,439.8 845.2,458.3 879.1,458.3 879.2,482.6 845.2,482.6 
					845.3,502.9 883.8,502.9 883.8,527.1 814.9,527.1 814.6,415.5 				"/>
			</g>
			<g>
				<polygon class="st18" points="893.6,405.6 893.7,429.9 883.6,439.8 883.6,415.5 				"/>
			</g>
			<g>
				<polygon class="st18" points="893.7,429.9 883.6,439.8 845.1,439.8 855.2,429.9 				"/>
			</g>
			<g>
				<polygon class="st18" points="824.7,405.6 893.6,405.6 883.6,415.5 814.6,415.5 				"/>
			</g>
			<g>
				<polygon class="st18" points="889.2,448.4 889.2,472.6 879.2,482.6 879.1,458.3 				"/>
			</g>
			<g>
				<polygon class="st18" points="855.2,429.9 855.2,448.4 845.2,458.3 845.1,439.8 				"/>
			</g>
			<g>
				<polygon class="st18" points="855.2,448.4 889.2,448.4 879.1,458.3 845.2,458.3 				"/>
			</g>
			<g>
				<polygon class="st18" points="889.2,472.6 879.2,482.6 845.2,482.6 855.2,472.6 				"/>
			</g>
			<g>
				<polygon class="st18" points="893.8,492.9 893.9,517.2 883.8,527.1 883.8,502.9 				"/>
			</g>
			<g>
				<polygon class="st18" points="855.3,492.9 893.8,492.9 883.8,502.9 845.3,502.9 				"/>
			</g>
			<g>
				<polygon class="st18" points="855.2,472.6 855.3,492.9 845.3,502.9 845.2,482.6 				"/>
			</g>
			<g>
				<polygon class="st18" points="893.9,517.2 883.8,527.1 814.9,527.1 824.9,517.2 				"/>
			</g>
			<g>
				<polygon class="st19" points="824.9,517.2 814.9,527.1 814.6,415.5 824.7,405.6 				"/>
			</g>
			<g>
				<g>
					<polygon class="st5" points="127.1,257.1 127.1,281.4 98,281.4 98.2,368.4 67.8,368.4 67.6,281.4 38.7,281.4 38.6,257.1 					
						"/>
				</g>
				<g>
					<polygon class="st5" points="214.6,256.8 214.6,281.1 176.1,281.1 176.2,299.6 210.1,299.6 210.2,323.8 176.2,323.8 
						176.3,344.1 214.8,344.1 214.8,368.4 145.9,368.4 145.6,256.8 					"/>
				</g>
				<g>
					<path class="st5" d="M406.2,255.6c12.2,0,23.3,3.3,32.8,9.8c9.6,6.5,16.4,15.7,20.2,27.3l1,2.9h-35.4l-0.6-1.2
						c-3.7-7.1-9.4-10.5-17.4-10.5c-8.3,0-14.6,2.5-19.3,7.6c-4.7,5.1-7,12.1-7,20.8c0,8.7,2.4,15.7,7.1,20.8
						c4.7,5.1,11,7.6,19.4,7.6c8.1,0,13.7-3.4,17.4-10.5l0.6-1.2h35.4l-1,2.9c-3.8,11.6-10.5,20.8-20.1,27.3
						c-9.5,6.5-20.5,9.8-32.8,9.8c-15.8,0-29.4-5.4-40.3-16.1c-11-10.7-16.6-24.4-16.6-40.8c0-16.4,5.5-30.1,16.4-40.8
						C376.9,261,390.4,255.6,406.2,255.6z"/>
				</g>
				<g>
					<path class="st5" d="M302.3,256.8l38.6,111.6h-32.5l-6-18h-35l-5.9,18h-32.4l38.3-111.6H302.3z M275.5,326.2h18.9l-9.5-28.6
						L275.5,326.2"/>
				</g>
				<g>
					<polygon class="st5" points="576.4,257.1 576.7,368.4 546.3,368.4 546.2,324.1 509.6,324.1 509.7,368.4 479.3,368.4 479,257.1 
						509.4,257.1 509.5,299.9 546.1,299.9 546,257.1 					"/>
				</g>
				<g>
					<path class="st5" d="M664.6,256.8l38.6,111.6h-32.5l-6-18h-34.9l-5.9,18h-32.4l38.3-111.6H664.6z M637.8,326.2h18.9l-9.5-28.6
						L637.8,326.2"/>
				</g>
				<g>
					<path class="st5" d="M799.8,319.4c4.6,5.4,6.9,11.7,6.9,19c0,9.2-3.4,16.6-10.1,22.1c-6.6,5.3-15.8,8-27.4,8h-51.1l-0.3-111.3
						h48.5c11.3,0,20.5,2.8,27.3,8.4c6.9,5.7,10.5,13,10.5,21.8c0,11-5.3,19-15.8,24.1C792.9,313.1,796.7,315.8,799.8,319.4z
						 M773.1,341.5c1.8-1.7,2.7-4,2.7-7.2c0-3.2-0.9-5.6-2.7-7.4c-1.8-1.8-4.1-2.7-7-2.7h-17.6l0,19.8h17.3
						C768.8,344.1,771.2,343.3,773.1,341.5 M748.4,281.4l0,18.6h14.7c3.2,0,5.7-0.8,7.6-2.4c1.8-1.5,2.6-3.7,2.6-6.9
						c0-3.1-0.9-5.4-2.6-7c-1.9-1.6-4.3-2.4-7.6-2.4H748.4"/>
				</g>
				<g>
					<polygon class="st5" points="858.1,257.1 858.3,344.1 890.6,344.1 890.6,368.4 827.9,368.4 827.7,257.1 					"/>
				</g>
				<g>
					<polygon class="st5" points="976.8,256.8 976.9,281.1 938.3,281.1 938.4,299.6 972.3,299.6 972.4,323.8 938.4,323.8 
						938.5,344.1 977,344.1 977.1,368.4 908.1,368.4 907.9,256.8 					"/>
				</g>
				<g>
					<polygon class="st5" points="254.8,405.9 255,517.2 224.6,517.2 224.5,466.1 203.6,517.2 181.4,517.2 160.3,466.1 160.4,517.2 
						130,517.2 129.8,405.9 163.2,405.9 192.5,475.9 221.3,405.9 					"/>
				</g>
				<g>
					<path class="st5" d="M446.9,404.4c12.2,0,23.3,3.3,32.8,9.8c9.6,6.5,16.4,15.7,20.2,27.3l1,2.9h-35.4l-0.6-1.2
						c-3.7-7.1-9.4-10.5-17.4-10.5c-8.3,0-14.6,2.5-19.3,7.6c-4.7,5.1-7,12.1-7,20.8c0,8.7,2.4,15.7,7.1,20.8
						c4.7,5.1,11,7.6,19.4,7.6c8.1,0,13.7-3.4,17.4-10.5l0.6-1.2h35.4l-1,2.9c-3.8,11.6-10.5,20.8-20.1,27.3
						c-9.5,6.5-20.6,9.8-32.8,9.8c-15.8,0-29.4-5.4-40.3-16.1c-11-10.7-16.6-24.4-16.6-40.8c0-16.4,5.5-30.1,16.4-40.8
						C417.5,409.8,431.1,404.4,446.9,404.4z"/>
				</g>
				<g>
					<path class="st5" d="M343,405.6l38.6,111.6h-32.5l-6-18h-35l-5.9,18h-32.4l38.3-111.6H343z M316.1,475h18.9l-9.5-28.6
						L316.1,475"/>
				</g>
				<g>
					<polygon class="st5" points="617.1,405.9 617.3,517.2 586.9,517.2 586.8,473 550.2,473 550.3,517.2 519.9,517.2 519.7,405.9 
						550.1,405.9 550.2,448.7 586.8,448.7 586.7,405.9 					"/>
				</g>
				<g>
					<polygon class="st5" points="673.3,405.9 673.6,517.2 643.2,517.2 642.9,405.9 					"/>
				</g>
				<g>
					<polygon class="st5" points="798.9,405.6 799.1,517.2 769.7,517.2 729.7,455.2 729.8,517.2 699.4,517.2 699.1,405.6 
						728.6,405.6 768.6,467.6 768.4,405.6 					"/>
				</g>
				<g>
					<polygon class="st5" points="893.6,405.6 893.7,429.9 855.2,429.9 855.2,448.4 889.2,448.4 889.2,472.6 855.2,472.6 
						855.3,492.9 893.8,492.9 893.9,517.2 824.9,517.2 824.7,405.6 					"/>
				</g>
			</g>
		</g>
		<path class="st26" d="M239.1,374.1c-7.6,27.8,79.4-3.9,79.4,22.1"/>
		<path class="st26" d="M489.2,374.1c0,19.8,41.1-2.2,41.1,22"/>
		<path class="st26" d="M680.7,374.1c6.1,13.3,28.9,5.1,28.9,22.1"/>
		<ellipse class="st20" cx="268.4" cy="158.1" rx="3.9" ry="1.1"/>
		<ellipse class="st20" cx="307.5" cy="158.1" rx="3.9" ry="1.1"/>
		<ellipse class="st20" cx="228.7" cy="158.1" rx="3.9" ry="1.1"/>
		<g>
			<path class="st26" d="M711.4,619c0-36.7,257.2-197,182.5-197"/>
			<path class="st26" d="M749.4,619c0-62.4,269.6-153.7,139.8-153.7"/>
			<path class="st26" d="M785.7,619c0-76.9,257-110.3,108.1-110.3"/>
			<path class="st26" d="M228.7,158.1c0,60.8-176,30.2-176,89.3"/>
			<path class="st26" d="M268.4,158.1c0,65.4-185.6,39.6-185.6,89.3"/>
			<path class="st26" d="M307.5,158.1c0,81.7-194.7,39.6-194.7,89.3"/>
		</g>
		<g>
			<g>
				<polygon class="st18" points="324.5,164.8 196.6,164.8 196.6,36.8 213.7,19.7 341.6,19.7 341.6,147.6 				"/>
				<rect x="213.7" y="19.7" class="st5" width="127.9" height="127.9"/>
				<polygon class="st19" points="213.7,19.7 196.6,36.8 196.6,164.8 213.7,147.6 				"/>
			</g>
			<g>
				<g>
					<ellipse class="st18" cx="275.8" cy="84.7" rx="10.1" ry="10.1"/>
					<path class="st18" d="M266.4,53.1l-5.8,6.3h-10c-3.5,0-6.3,2.8-6.3,6.3v37.9c0,3.5,2.8,6.3,6.3,6.3H301c3.5,0,6.3-2.8,6.3-6.3
						V65.7c0-3.5-2.8-6.3-6.3-6.3h-10l-5.8-6.3H266.4z M275.8,100.4c-8.7,0-15.7-7.1-15.7-15.8s7-15.8,15.7-15.8s15.7,7.1,15.7,15.8
						S284.5,100.4,275.8,100.4z"/>
				</g>
			</g>
		</g>
	</g>
</g>
</svg>
