<svg xmlns="http://www.w3.org/2000/svg" viewBox="0 0 369.3 44.83"><defs><style>.cls-1{fill:#4285f4;}.cls-2{opacity:0;}</style></defs><title>teachable-handdrawn_1</title><g id="Layer_2" data-name="Layer 2"><g id="Layer_1-2" data-name="Layer 1"><path class="cls-1" d="M1.25,6.5C9.6,8.34,19.26,8,27.72,7.2,32,6.79,32.14.12,27.72.4c-8.64.54-18,.92-26.47,2.82a1.72,1.72,0,0,0,0,3.28Z"/><path class="cls-1" d="M12.49,4.46c-1.67,11-1.09,22.86-.84,33.93.1,4.3,6.38,4.24,6.64,0,.68-10.94,1.13-23.18-1.2-33.93-.48-2.2-4.24-2.35-4.6,0Z"/><path class="cls-1" d="M67.46,3.05A70.31,70.31,0,0,0,51,.9C47.7.79,44.18.76,43,4.5c-1.31,4.22-.17,10.46-.16,14.85,0,6.27-.23,12.59.32,18.84.18,2,2,4,4.23,3.22a35.13,35.13,0,0,1,16.93-1.51c4.38.69,6.21-6.05,1.84-6.67A44.18,44.18,0,0,0,45.63,35l4.23,3.22c.77-9,.27-18.27.26-27.32V8q.66-3.93-1.93.07c0,.26,6-.19,6.61-.22A59,59,0,0,0,67.46,6a1.52,1.52,0,0,0,0-2.9Z"/><path class="cls-1" d="M47.7,26.21c5.6.17,11.67,1,17.21.14,3.86-.59,2.6-6.22-.87-6.46-5.28-.36-11.07,1-16.34,1.62-2.95.33-3.1,4.62,0,4.71Z"/><path class="cls-1" d="M82.29,40.78c6.23-11.88,12-24,18-36l-5.11-.67C97.17,10,98.95,16,100.79,21.92s3.06,12.19,5.38,17.89A3.41,3.41,0,0,0,112.74,38c-1.82-12.05-7.89-24-12.12-35.38C99.83.49,96.76-.3,95.51,2,88.89,13.87,82.07,25.88,77.78,38.88c-.87,2.64,3.21,4.38,4.51,1.9Z"/><path class="cls-1" d="M85.81,31.13a109.35,109.35,0,0,1,17.29.49c4.35.47,4.54-6.9,0-6.92a104.23,104.23,0,0,0-18,1.42c-2.83.48-2.18,5.16.68,5Z"/><path class="cls-1" d="M156.69,9.07c-4-6.85-13.23-10.17-20.79-8.23C127.75,2.94,122,11,121.49,19.22s4.56,16.44,11.84,20.26c6.95,3.65,17.86,3.56,22.51-3.68,1.8-2.81-1.76-6.24-4.54-4.54-4.9,3-9.33,4.42-14.78,1.39-4.53-2.52-7.84-7.47-7.71-12.74a13.78,13.78,0,0,1,8.12-12c6-2.69,11.4,0,15.72,4.24a2.59,2.59,0,0,0,4.05-3.13Z"/><path class="cls-1" d="M170.93,3.29c-1.53,11.49-3.39,24.43-1.68,36,.48,3.2,5.86,3.13,6.4,0,2-11.47.4-24.47-.86-36a1.93,1.93,0,0,0-3.86,0Z"/><path class="cls-1" d="M196.26,2.68c-1,12.8-2.1,25.88-2.18,38.71,0,3.8,6.24,4.91,6.85.93,2-12.92,2-26.64.89-39.64a2.78,2.78,0,0,0-5.56,0Z"/><path class="cls-1" d="M172.37,26c8.21.55,16.58.31,24.81.28,4.68,0,4.67-7.13,0-7.26a113.78,113.78,0,0,0-25.52,1.74c-3.09.63-2.14,5,.71,5.24Z"/><path class="cls-1" d="M221,42c6.75-11,10.92-23.92,15.81-35.85l-6.64.87c2.66,6.27,5.2,12.6,7.85,18.87,2.31,5.48,4.22,12,7.64,16.87a3.65,3.65,0,0,0,6.64-2.8c-1.28-6.14-4.91-12.28-7.46-18-2.77-6.22-5.65-12.38-8.4-18.61-1.42-3.22-5.61-1.64-6.64.87-4.78,11.66-10.7,23.46-13.58,35.77A2.62,2.62,0,0,0,221,42Z"/><path class="cls-1" d="M221.67,29.89a105.71,105.71,0,0,0,19.67,1.74c5.17-.13,4.36-8-1-7.13-6.19,1-12.57.28-18.7,1.51-1.89.38-2,3.56,0,3.88Z"/><path class="cls-1" d="M366.78,2.76a158.74,158.74,0,0,0-16.66-2c-3.54-.28-6.79.27-7.2,4.43-.22,2.24.46,4.61.6,6.85.19,3,.1,6,0,9a166.11,166.11,0,0,0,.26,18.51,3.71,3.71,0,0,0,4.6,3.5l17.93-2.61c4.61-.67,2.65-7.67-1.93-7L346.48,36l4.6,3.5c-.81-8.86.2-17.74-.52-26.59a47,47,0,0,0-.64-5.4q-3.45-.59.21-.22l2.69.2c4.39.33,8.82.89,13.22.82,3.08,0,4-5,.75-5.57Z"/><path class="cls-1" d="M349,26.55c4.16.7,8.6.3,12.82.49,4.88.21,4.91-7.75,0-7.6-4.45.14-9.33.37-13.47,2.14-2.09.9-1.57,4.61.65,5Z"/><path class="cls-1" d="M270.16,39.31c-.48-10.48-1.39-21.68.95-32l-3.7,2.1c4.39,1.42,10.69-.16,14.58,2.4,6.75,4.44-9.06,6.35-10.87,6.54-4,.42-4.14,6.11,0,6.33,4,.21,21-1.85,16.61,6.71-3,5.83-12.24,3.92-17.27,3a3.39,3.39,0,1,0-.9,6.69c8.86,1,22.34,1.22,24.81-10a10.07,10.07,0,0,0-4.53-10.85c-5.74-3.49-11.94,0-17.87-1.77l-.84,6.21c7.11.52,20.66-1.24,19.81-11.19-1-11.56-14.86-9.23-22.71-10a3,3,0,0,0-3,3c.84,10.91,0,21.88,1.16,32.81.25,2.38,3.92,2.49,3.8,0Z"/><path class="cls-1" d="M329,37.26a83.31,83.31,0,0,0-19.34-.67L313,40c-1.28-11.54.7-23.26-.74-34.78a2.78,2.78,0,0,0-5.56,0A189,189,0,0,0,306.28,40c.16,1.69,1.42,3.53,3.37,3.37,6.67-.56,13.31-.58,19.91-1.83,2.61-.49,1.61-4-.57-4.23Z"/><g class="cls-2"><rect y="0.1" width="369.3" height="44.7"/></g></g></g></svg>