<svg width="32" height="32" viewBox="0 0 32 32" fill="none" xmlns="http://www.w3.org/2000/svg">
<path d="M16 32C24.8366 32 32 24.8366 32 16C32 7.16344 24.8366 0 16 0C7.16344 0 0 7.16344 0 16C0 24.8366 7.16344 32 16 32Z" fill="white"/>
<path d="M20.5833 23.0833H8.91667V11.4167H16.4167V9.75H8.91667C8 9.75 7.25 10.5 7.25 11.4167V23.0833C7.25 24 8 24.75 8.91667 24.75H20.5833C21.5 24.75 22.25 24 22.25 23.0833V15.5833H20.5833V23.0833ZM14.0917 20.4417L12.4583 18.475L10.1667 21.4167H19.3333L16.3833 17.4917L14.0917 20.4417ZM22.25 9.75V7.25H20.5833V9.75H18.0833C18.0917 9.75833 18.0833 11.4167 18.0833 11.4167H20.5833V13.9083C20.5917 13.9167 22.25 13.9083 22.25 13.9083V11.4167H24.75V9.75H22.25Z" fill="#48A145"/>
</svg>
