<svg id="Layer_1" data-name="Layer 1" xmlns="http://www.w3.org/2000/svg" xmlns:xlink="http://www.w3.org/1999/xlink" viewBox="0 0 32 32"><defs><style>.cls-1{fill:#cf8b17;}.cls-2{fill:#d08c17;}.cls-3{fill:#d18c17;}.cls-4{fill:#d28d17;}.cls-5{fill:#d38e17;}.cls-6{fill:#d48e17;}.cls-7{fill:#d58f17;}.cls-8{fill:#d69017;}.cls-9{fill:#d79017;}.cls-10{fill:#d89117;}.cls-11{fill:#d99217;}.cls-12{fill:#da9217;}.cls-13{fill:#db9317;}.cls-14{fill:#dc9318;}.cls-15{fill:#dd9418;}.cls-16{fill:#de9518;}.cls-17{fill:#df9518;}.cls-18{fill:#e09618;}.cls-19{fill:#e19718;}.cls-20{fill:#e29718;}.cls-21{fill:#e39818;}.cls-22{fill:#e49918;}.cls-23{fill:#e59918;}.cls-24{fill:#e69a18;}.cls-25{fill:#e79b18;}.cls-26{fill:#e89c18;}.cls-27{fill:#e99d18;}.cls-28{fill:#ea9d18;}.cls-29{fill:#eb9e18;}.cls-30{fill:#ec9f18;}.cls-31{fill:#ed9f18;}.cls-32{fill:#eea018;}.cls-33{fill:#efa118;}.cls-34{fill:#f0a118;}.cls-35{fill:#f1a218;}.cls-36{fill:#f2a318;}.cls-37{fill:#f3a319;}.cls-38{fill:#f4a419;}.cls-39{fill:#f5a419;}.cls-40{fill:#f6a519;}.cls-41{fill:#f7a619;}.cls-42{fill:#f8a619;}.cls-43{fill:#f9a719;}.cls-44{fill:#faa819;}.cls-45{fill:#fba819;}.cls-46{fill:#fca919;}.cls-47{fill:#fdaa19;}.cls-48{fill:#feaa19;}.cls-49{fill:#ffab19;}.cls-50{fill:url(#linear-gradient);}.cls-51{fill:url(#linear-gradient-2);}.cls-52{fill:url(#radial-gradient);}.cls-207,.cls-208,.cls-53{fill:#414042;}.cls-208,.cls-53{stroke:#414042;}.cls-274,.cls-275,.cls-276,.cls-277,.cls-278,.cls-279,.cls-280,.cls-281,.cls-282,.cls-283,.cls-284,.cls-285,.cls-286,.cls-287,.cls-288,.cls-289,.cls-290,.cls-291,.cls-292,.cls-293,.cls-294,.cls-295,.cls-296,.cls-297,.cls-298,.cls-299,.cls-300,.cls-301,.cls-302,.cls-303,.cls-304,.cls-305,.cls-306,.cls-307,.cls-308,.cls-309,.cls-310,.cls-311,.cls-312,.cls-313,.cls-314,.cls-315,.cls-316,.cls-317,.cls-53{stroke-linecap:round;}.cls-53{stroke-linejoin:round;}.cls-208,.cls-274,.cls-296,.cls-53{stroke-width:0.5px;}.cls-54{fill:#d1d3d4;}.cls-55{fill:#d2d4d5;}.cls-56{fill:#d3d5d6;}.cls-57{fill:#d4d6d7;}.cls-58{fill:#d5d7d8;}.cls-59{fill:#d6d8d9;}.cls-60{fill:#d7d9d9;}.cls-61{fill:#d8dada;}.cls-62{fill:#d9dadb;}.cls-63{fill:#dadbdc;}.cls-64{fill:#dbdcdd;}.cls-65{fill:#dcddde;}.cls-66{fill:#dddedf;}.cls-67{fill:#dedfe0;}.cls-68{fill:#dfe0e1;}.cls-69{fill:#e0e1e2;}.cls-70{fill:#e1e2e3;}.cls-71{fill:#e2e3e4;}.cls-72{fill:#e3e4e4;}.cls-73{fill:#e4e5e5;}.cls-74{fill:#e5e6e6;}.cls-75{fill:#e6e7e7;}.cls-76{fill:#e7e8e8;}.cls-77{fill:#e8e9e9;}.cls-78{fill:#e8e9ea;}.cls-79{fill:#e9eaeb;}.cls-80{fill:#eaebec;}.cls-81{fill:#ebeced;}.cls-82{fill:#ecedee;}.cls-83{fill:#edeeef;}.cls-84{fill:#eeefef;}.cls-85{fill:#eff0f0;}.cls-86{fill:#f0f1f1;}.cls-87{fill:#f1f2f2;}.cls-88{fill:#f2f3f3;}.cls-89{fill:#f3f4f4;}.cls-90{fill:#f4f5f5;}.cls-91{fill:#f5f6f6;}.cls-92{fill:#f6f7f7;}.cls-93{fill:#f7f8f8;}.cls-94{fill:#f8f8f9;}.cls-95{fill:#f9f9fa;}.cls-96{fill:#fafafa;}.cls-97{fill:#fbfbfb;}.cls-98{fill:#fcfcfc;}.cls-99{fill:#fdfdfd;}.cls-100{fill:#fefefe;}.cls-101{fill:#fff;}.cls-102{fill:url(#linear-gradient-3);}.cls-103{opacity:0.3;}.cls-104,.cls-105,.cls-106,.cls-107,.cls-108,.cls-109,.cls-110,.cls-111,.cls-112,.cls-113,.cls-114,.cls-115,.cls-116,.cls-117,.cls-118,.cls-119,.cls-120,.cls-121,.cls-122,.cls-123,.cls-124,.cls-125,.cls-126,.cls-127,.cls-128,.cls-129,.cls-130,.cls-131,.cls-132,.cls-133,.cls-134,.cls-135,.cls-136,.cls-137,.cls-138,.cls-139,.cls-140,.cls-141,.cls-142,.cls-143,.cls-144,.cls-145,.cls-146,.cls-147,.cls-148,.cls-149,.cls-150,.cls-151,.cls-152,.cls-153,.cls-154,.cls-155,.cls-156,.cls-157,.cls-158,.cls-159,.cls-160,.cls-161,.cls-162,.cls-163,.cls-164,.cls-165,.cls-166,.cls-167,.cls-168,.cls-169,.cls-170,.cls-171,.cls-172,.cls-173,.cls-174,.cls-175,.cls-176,.cls-177,.cls-178,.cls-179,.cls-180,.cls-181,.cls-182,.cls-183,.cls-184,.cls-185,.cls-186,.cls-187,.cls-188,.cls-189,.cls-190,.cls-191,.cls-192,.cls-193,.cls-194,.cls-195,.cls-196,.cls-197,.cls-198,.cls-199,.cls-200,.cls-201,.cls-202,.cls-203,.cls-204,.cls-205{fill:#f15a29;}.cls-104,.cls-274{opacity:0;}.cls-105{opacity:0.01;}.cls-106{opacity:0.02;}.cls-107{opacity:0.03;}.cls-108{opacity:0.04;}.cls-109{opacity:0.05;}.cls-110{opacity:0.06;}.cls-111{opacity:0.07;}.cls-112{opacity:0.08;}.cls-113{opacity:0.09;}.cls-114{opacity:0.1;}.cls-115{opacity:0.11;}.cls-116{opacity:0.12;}.cls-117{opacity:0.13;}.cls-118{opacity:0.14;}.cls-119{opacity:0.15;}.cls-120{opacity:0.16;}.cls-121{opacity:0.17;}.cls-122{opacity:0.18;}.cls-123{opacity:0.19;}.cls-124{opacity:0.2;}.cls-125{opacity:0.21;}.cls-126{opacity:0.22;}.cls-127{opacity:0.23;}.cls-128{opacity:0.24;}.cls-129{opacity:0.25;}.cls-130{opacity:0.26;}.cls-131{opacity:0.27;}.cls-132{opacity:0.28;}.cls-133{opacity:0.29;}.cls-134{opacity:0.3;}.cls-135{opacity:0.31;}.cls-136{opacity:0.32;}.cls-137{opacity:0.33;}.cls-138{opacity:0.34;}.cls-139{opacity:0.35;}.cls-140{opacity:0.36;}.cls-141{opacity:0.37;}.cls-142{opacity:0.38;}.cls-143{opacity:0.39;}.cls-144{opacity:0.4;}.cls-145{opacity:0.41;}.cls-146{opacity:0.42;}.cls-147{opacity:0.43;}.cls-148{opacity:0.44;}.cls-149{opacity:0.45;}.cls-150{opacity:0.46;}.cls-151{opacity:0.47;}.cls-152{opacity:0.48;}.cls-153{opacity:0.49;}.cls-154{opacity:0.5;}.cls-155{opacity:0.5;}.cls-156{opacity:0.51;}.cls-157{opacity:0.52;}.cls-158{opacity:0.53;}.cls-159{opacity:0.54;}.cls-160{opacity:0.55;}.cls-161{opacity:0.56;}.cls-162{opacity:0.57;}.cls-163{opacity:0.58;}.cls-164{opacity:0.59;}.cls-165{opacity:0.6;}.cls-166{opacity:0.61;}.cls-167{opacity:0.62;}.cls-168{opacity:0.63;}.cls-169{opacity:0.64;}.cls-170{opacity:0.65;}.cls-171{opacity:0.66;}.cls-172{opacity:0.67;}.cls-173{opacity:0.68;}.cls-174{opacity:0.69;}.cls-175{opacity:0.7;}.cls-176{opacity:0.71;}.cls-177{opacity:0.72;}.cls-178{opacity:0.73;}.cls-179{opacity:0.74;}.cls-180{opacity:0.75;}.cls-181{opacity:0.76;}.cls-182{opacity:0.77;}.cls-183{opacity:0.78;}.cls-184{opacity:0.79;}.cls-185{opacity:0.8;}.cls-186{opacity:0.81;}.cls-187{opacity:0.82;}.cls-188{opacity:0.83;}.cls-189{opacity:0.84;}.cls-190{opacity:0.85;}.cls-191{opacity:0.86;}.cls-192{opacity:0.87;}.cls-193{opacity:0.88;}.cls-194{opacity:0.89;}.cls-195{opacity:0.9;}.cls-196{opacity:0.91;}.cls-197{opacity:0.92;}.cls-198{opacity:0.93;}.cls-199{opacity:0.94;}.cls-200{opacity:0.95;}.cls-201{opacity:0.96;}.cls-202{opacity:0.97;}.cls-203{opacity:0.98;}.cls-204{opacity:0.99;}.cls-206{fill:url(#linear-gradient-4);}.cls-208,.cls-274,.cls-275,.cls-276,.cls-277,.cls-278,.cls-279,.cls-280,.cls-281,.cls-282,.cls-283,.cls-284,.cls-285,.cls-286,.cls-287,.cls-288,.cls-289,.cls-290,.cls-291,.cls-292,.cls-293,.cls-294,.cls-295,.cls-296,.cls-297,.cls-298,.cls-299,.cls-300,.cls-301,.cls-302,.cls-303,.cls-304,.cls-305,.cls-306,.cls-307,.cls-308,.cls-309,.cls-310,.cls-311,.cls-312,.cls-313,.cls-314,.cls-315,.cls-316,.cls-317{stroke-miterlimit:10;}.cls-208{opacity:0.1;}.cls-209{fill:#cc445e;}.cls-210{fill:#ce455f;}.cls-211{fill:#d14560;}.cls-212{fill:#d34660;}.cls-213{fill:#d64761;}.cls-214{fill:#d84762;}.cls-215{fill:#db4863;}.cls-216{fill:#dd4963;}.cls-217{fill:#df4964;}.cls-218{fill:#e24a65;}.cls-219{fill:#e44b66;}.cls-220{fill:#e74b66;}.cls-221{fill:#e94c67;}.cls-222{fill:#ec4d68;}.cls-223{fill:#ee4d69;}.cls-224{fill:#f04e69;}.cls-225{fill:#f34f6a;}.cls-226{fill:#f54f6b;}.cls-227{fill:#f8506c;}.cls-228{fill:#fa516c;}.cls-229{fill:#fd516d;}.cls-230{fill:#ff526e;}.cls-231{fill:#f8f9f9;}.cls-232{fill:#f2f2f3;}.cls-233{fill:#f0f0f1;}.cls-234{fill:#e0e2e2;}.cls-235{fill:#dee0e0;}.cls-236{fill:#d8d9da;}.cls-237{fill:#424143;}.cls-238{fill:#434244;}.cls-239{fill:#444345;}.cls-240{fill:#454446;}.cls-241{fill:#454547;}.cls-242{fill:#464648;}.cls-243{fill:#474749;}.cls-244{fill:#48484a;}.cls-245{fill:#49494b;}.cls-246{fill:#4a4a4c;}.cls-247{fill:#4b4b4d;}.cls-248{fill:#4c4c4e;}.cls-249{fill:#4c4c4f;}.cls-250{fill:#4d4d4f;}.cls-251{fill:#4e4e50;}.cls-252{fill:#4f4f51;}.cls-253{fill:#505052;}.cls-254{fill:#515153;}.cls-255{fill:#525254;}.cls-256{fill:#535355;}.cls-257{fill:#545456;}.cls-258{fill:#545557;}.cls-259{fill:#555658;}.cls-260{fill:#565759;}.cls-261{fill:#57585a;}.cls-262{fill:#58595b;}.cls-263{fill:url(#radial-gradient-2);}.cls-264{fill:#6a6b6d;opacity:0.5;}.cls-265{fill:#707173;opacity:0.57;}.cls-266{fill:#767779;opacity:0.64;}.cls-267{fill:#7c7d7f;opacity:0.71;}.cls-268{fill:#818386;opacity:0.79;}.cls-269{fill:#87898c;opacity:0.86;}.cls-270{fill:#8d8f92;opacity:0.93;}.cls-271{fill:#939598;}.cls-272{fill:url(#radial-gradient-3);}.cls-273{opacity:0.8;}.cls-274,.cls-275,.cls-276,.cls-277,.cls-278,.cls-279,.cls-280,.cls-281,.cls-282,.cls-283,.cls-284,.cls-285,.cls-286,.cls-287,.cls-288,.cls-289,.cls-290,.cls-291,.cls-292,.cls-293,.cls-294,.cls-295,.cls-296,.cls-297,.cls-298,.cls-299,.cls-300,.cls-301,.cls-302,.cls-303,.cls-304,.cls-305,.cls-306,.cls-307,.cls-308,.cls-309,.cls-310,.cls-311,.cls-312,.cls-313,.cls-314,.cls-315,.cls-316,.cls-317{fill:none;}.cls-274,.cls-275,.cls-276,.cls-277,.cls-278,.cls-279,.cls-280,.cls-281,.cls-282,.cls-283,.cls-284,.cls-285,.cls-286,.cls-287,.cls-288,.cls-289,.cls-290,.cls-291,.cls-292,.cls-293,.cls-294,.cls-295{stroke:#fff;}.cls-275{stroke-width:0.48px;opacity:0.05;}.cls-276{stroke-width:0.46px;opacity:0.1;}.cls-277{stroke-width:0.44px;opacity:0.14;}.cls-278{stroke-width:0.42px;opacity:0.19;}.cls-279{stroke-width:0.4px;opacity:0.24;}.cls-280{stroke-width:0.39px;opacity:0.29;}.cls-281{stroke-width:0.37px;opacity:0.33;}.cls-282{stroke-width:0.35px;opacity:0.38;}.cls-283{stroke-width:0.33px;opacity:0.43;}.cls-284{stroke-width:0.31px;opacity:0.48;}.cls-285{stroke-width:0.29px;opacity:0.52;}.cls-286{stroke-width:0.27px;opacity:0.57;}.cls-287{stroke-width:0.25px;opacity:0.62;}.cls-288{stroke-width:0.23px;opacity:0.67;}.cls-289{stroke-width:0.21px;opacity:0.71;}.cls-290{stroke-width:0.2px;opacity:0.76;}.cls-291{stroke-width:0.18px;opacity:0.81;}.cls-292{stroke-width:0.16px;opacity:0.86;}.cls-293{stroke-width:0.14px;opacity:0.9;}.cls-294{stroke-width:0.12px;opacity:0.95;}.cls-295{stroke-width:0.1px;}.cls-296{stroke:#af6814;}.cls-297{stroke:#b16a14;stroke-width:0.49px;}.cls-298{stroke:#b46c14;stroke-width:0.47px;}.cls-299{stroke:#b66d14;stroke-width:0.46px;}.cls-300{stroke:#b96f14;stroke-width:0.44px;}.cls-301{stroke:#bb7114;stroke-width:0.43px;}.cls-302{stroke:#be7314;stroke-width:0.41px;}.cls-303{stroke:#c07514;stroke-width:0.4px;}.cls-304{stroke:#c27614;stroke-width:0.39px;}.cls-305{stroke:#c57814;stroke-width:0.37px;}.cls-306{stroke:#c77a14;stroke-width:0.36px;}.cls-307{stroke:#ca7c14;stroke-width:0.34px;}.cls-308{stroke:#cc7e14;stroke-width:0.33px;}.cls-309{stroke:#cf8014;stroke-width:0.31px;}.cls-310{stroke:#d18114;stroke-width:0.3px;}.cls-311{stroke:#d38314;stroke-width:0.29px;}.cls-312{stroke:#d68514;stroke-width:0.27px;}.cls-313{stroke:#d88714;stroke-width:0.26px;}.cls-314{stroke:#db8914;stroke-width:0.24px;}.cls-315{stroke:#dd8a14;stroke-width:0.23px;}.cls-316{stroke:#e08c14;stroke-width:0.21px;}.cls-317{stroke:#e28e14;stroke-width:0.2px;}</style><linearGradient id="linear-gradient" x1="187.22" y1="8.43" x2="186.24" y2="7.07" gradientTransform="matrix(-1, 0, 0, 1, 194.29, 0)" gradientUnits="userSpaceOnUse"><stop offset="0" stop-color="#ec9c13"/><stop offset="1" stop-color="#cf8b17"/></linearGradient><linearGradient id="linear-gradient-2" x1="-3.21" y1="8.43" x2="-4.18" y2="7.07" gradientTransform="translate(27.97)" xlink:href="#linear-gradient"/><radialGradient id="radial-gradient" cx="15.92" cy="17.25" r="10.96" gradientTransform="translate(0 3.45) scale(1 0.8)" gradientUnits="userSpaceOnUse"><stop offset="0.63" stop-color="#ffab19"/><stop offset="0.84" stop-color="#fda918"/><stop offset="0.94" stop-color="#f5a316"/><stop offset="1" stop-color="#ec9c13"/></radialGradient><linearGradient id="linear-gradient-3" x1="15.92" y1="7.44" x2="15.92" y2="17.64" gradientUnits="userSpaceOnUse"><stop offset="0" stop-color="#fff" stop-opacity="0.5"/><stop offset="1" stop-color="#fff" stop-opacity="0"/></linearGradient><linearGradient id="linear-gradient-4" x1="15.92" y1="17.93" x2="15.92" y2="20.68" xlink:href="#linear-gradient-3"/><radialGradient id="radial-gradient-2" cx="10.78" cy="15.45" r="3.33" gradientTransform="translate(0 -4.33) scale(1 1.28)" gradientUnits="userSpaceOnUse"><stop offset="0.38" stop-color="#fff"/><stop offset="0.61" stop-color="#fdfdfd"/><stop offset="0.69" stop-color="#f6f6f6"/><stop offset="0.75" stop-color="#ebebeb"/><stop offset="0.8" stop-color="#dadada"/><stop offset="0.84" stop-color="#c4c4c4"/><stop offset="0.88" stop-color="#a8a8a8"/><stop offset="0.91" stop-color="#888"/><stop offset="0.94" stop-color="#626262"/><stop offset="0.97" stop-color="#373737"/><stop offset="1" stop-color="#090909"/><stop offset="1"/></radialGradient><radialGradient id="radial-gradient-3" cx="21.23" cy="15.45" r="3.33" xlink:href="#radial-gradient-2"/></defs><title>happy-cat</title><path class="cls-1" d="M5.78,12.46l-.9-7.32a.66.66,0,0,1,1-.63L12.13,7.9Z"/><path class="cls-2" d="M5.8,12.45,4.9,5.18a.65.65,0,0,1,1-.63l6.26,3.37Z"/><path class="cls-3" d="M5.81,12.45,4.93,5.21a.64.64,0,0,1,.94-.62L12.1,7.93Z"/><path class="cls-4" d="M5.83,12.44,5,5.24a.64.64,0,0,1,.94-.61L12.08,8Z"/><path class="cls-5" d="M5.85,12.43,5,5.28a.64.64,0,0,1,.94-.61L12.06,8Z"/><path class="cls-6" d="M5.87,12.43,5,5.31a.64.64,0,0,1,.93-.61L12.05,8Z"/><path class="cls-7" d="M5.88,12.42,5,5.35a.63.63,0,0,1,.92-.61L12,8Z"/><path class="cls-8" d="M5.9,12.41,5,5.38A.63.63,0,0,1,6,4.78L12,8Z"/><path class="cls-9" d="M5.92,12.41l-.86-7A.62.62,0,0,1,6,4.82l6,3.23Z"/><path class="cls-10" d="M5.94,12.4,5.08,5.45A.61.61,0,0,1,6,4.86l6,3.21Z"/><path class="cls-11" d="M6,12.39l-.84-6.9a.61.61,0,0,1,.9-.6l6,3.2Z"/><path class="cls-12" d="M6,12.39,5.13,5.52A.61.61,0,0,1,6,4.93l5.91,3.18Z"/><path class="cls-13" d="M6,12.38,5.15,5.55A.6.6,0,0,1,6,5l5.88,3.15Z"/><path class="cls-14" d="M6,12.37,5.17,5.59A.61.61,0,0,1,6.06,5L11.9,8.14Z"/><path class="cls-15" d="M6,12.37,5.2,5.62a.59.59,0,0,1,.88-.57l5.8,3.11Z"/><path class="cls-16" d="M6,12.36l-.82-6.7a.6.6,0,0,1,.88-.58l5.77,3.1Z"/><path class="cls-17" d="M6.06,12.36,5.24,5.69a.59.59,0,0,1,.87-.57L11.85,8.2Z"/><path class="cls-18" d="M6.08,12.35,5.26,5.73a.59.59,0,0,1,.87-.57l5.7,3.06Z"/><path class="cls-19" d="M6.09,12.34l-.8-6.58a.58.58,0,0,1,.86-.56l5.66,3Z"/><path class="cls-20" d="M6.11,12.34,5.31,5.8a.58.58,0,0,1,.86-.56l5.62,3Z"/><path class="cls-21" d="M6.13,12.33l-.8-6.5a.58.58,0,0,1,.85-.56l5.6,3Z"/><path class="cls-22" d="M6.15,12.32l-.8-6.46a.58.58,0,0,1,.85-.55l5.56,3Z"/><path class="cls-23" d="M6.16,12.32,5.38,5.9a.57.57,0,0,1,.84-.55l5.52,3Z"/><path class="cls-24" d="M6.18,12.31,5.4,5.93a.56.56,0,0,1,.83-.54l5.49,2.94Z"/><path class="cls-25" d="M6.2,12.3,5.42,6a.56.56,0,0,1,.83-.54L11.7,8.35Z"/><path class="cls-25" d="M6.22,12.3,5.44,6a.57.57,0,0,1,.83-.54l5.42,2.91Z"/><path class="cls-26" d="M6.24,12.29,5.47,6a.56.56,0,0,1,.82-.54l5.38,2.89Z"/><path class="cls-27" d="M6.25,12.28,5.49,6.07a.55.55,0,0,1,.81-.53l5.35,2.87Z"/><path class="cls-28" d="M6.27,12.28,5.51,6.11a.55.55,0,0,1,.81-.53l5.31,2.85Z"/><path class="cls-29" d="M6.29,12.27,5.53,6.14a.55.55,0,0,1,.81-.52l5.27,2.83Z"/><path class="cls-30" d="M6.31,12.27l-.75-6.1a.54.54,0,0,1,.79-.52L11.6,8.47Z"/><path class="cls-31" d="M6.32,12.26l-.74-6a.54.54,0,0,1,.79-.52l5.21,2.8Z"/><path class="cls-32" d="M6.34,12.25l-.74-6a.54.54,0,0,1,.79-.51l5.17,2.78Z"/><path class="cls-33" d="M6.36,12.25l-.73-6a.53.53,0,0,1,.78-.51l5.13,2.76Z"/><path class="cls-34" d="M6.38,12.24,5.65,6.31a.52.52,0,0,1,.77-.5l5.1,2.73Z"/><path class="cls-35" d="M6.39,12.23,5.67,6.35a.53.53,0,0,1,.77-.51l5.07,2.72Z"/><path class="cls-36" d="M6.41,12.23,5.69,6.38a.52.52,0,0,1,.77-.5l5,2.7Z"/><path class="cls-37" d="M6.43,12.22l-.71-5.8a.52.52,0,0,1,.76-.5l5,2.68Z"/><path class="cls-38" d="M6.45,12.21,5.74,6.45A.51.51,0,0,1,6.49,6l5,2.66Z"/><path class="cls-39" d="M6.46,12.21l-.7-5.73A.51.51,0,0,1,6.51,6l4.92,2.65Z"/><path class="cls-40" d="M6.48,12.2l-.7-5.68A.51.51,0,0,1,6.53,6l4.89,2.63Z"/><path class="cls-41" d="M6.5,12.2,5.81,6.55a.5.5,0,0,1,.73-.48L11.4,8.68Z"/><path class="cls-42" d="M6.52,12.19l-.69-5.6a.49.49,0,0,1,.73-.48L11.38,8.7Z"/><path class="cls-43" d="M6.53,12.18,5.85,6.62a.49.49,0,0,1,.73-.47l4.78,2.57Z"/><path class="cls-44" d="M6.55,12.18,5.87,6.66a.5.5,0,0,1,.73-.48l4.75,2.56Z"/><path class="cls-45" d="M6.57,12.17,5.9,6.69a.48.48,0,0,1,.71-.47l4.72,2.53Z"/><path class="cls-46" d="M6.59,12.16,5.92,6.73a.48.48,0,0,1,.71-.47l4.68,2.51Z"/><path class="cls-47" d="M6.6,12.16l-.66-5.4a.48.48,0,0,1,.71-.46l4.64,2.49Z"/><path class="cls-48" d="M6.62,12.15,6,6.8a.48.48,0,0,1,.7-.46l4.61,2.47Z"/><path class="cls-49" d="M6.64,12.14,6,6.83a.47.47,0,0,1,.69-.46l4.58,2.46Z"/><path class="cls-50" d="M5.77,6.1l.8,5.3a.3.3,0,0,0,.17.22h.1A.25.25,0,0,0,7,11.57l2.1-1.73a.28.28,0,0,0,.05-.38L6.25,5.89a.27.27,0,0,0-.32-.08A.26.26,0,0,0,5.77,6.1Z"/><path class="cls-1" d="M26.06,12.46,27,5.14A.65.65,0,0,0,26,4.51L19.7,7.9Z"/><path class="cls-2" d="M26,12.45l.89-7.27A.65.65,0,0,0,26,4.55L19.72,7.92Z"/><path class="cls-3" d="M26,12.45l.89-7.24A.65.65,0,0,0,26,4.59L19.74,7.93Z"/><path class="cls-4" d="M26,12.44l.89-7.2a.65.65,0,0,0-.95-.61L19.75,8Z"/><path class="cls-5" d="M26,12.43l.87-7.15a.63.63,0,0,0-.93-.61L19.77,8Z"/><path class="cls-6" d="M26,12.43l.87-7.12a.64.64,0,0,0-.93-.61L19.79,8Z"/><path class="cls-7" d="M26,12.42l.87-7.07a.64.64,0,0,0-.93-.61L19.81,8Z"/><path class="cls-8" d="M25.93,12.41l.87-7a.63.63,0,0,0-.92-.6L19.83,8Z"/><path class="cls-9" d="M25.92,12.41l.85-7a.62.62,0,0,0-.91-.6l-6,3.23Z"/><path class="cls-10" d="M25.9,12.4l.85-6.95a.61.61,0,0,0-.91-.59l-6,3.21Z"/><path class="cls-11" d="M25.88,12.39l.85-6.9a.62.62,0,0,0-.91-.6l-5.94,3.2Z"/><path class="cls-12" d="M25.86,12.39l.85-6.87a.61.61,0,0,0-.9-.59L19.9,8.11Z"/><path class="cls-13" d="M25.85,12.38l.83-6.83A.6.6,0,0,0,25.79,5L19.92,8.12Z"/><path class="cls-14" d="M25.83,12.37l.83-6.78A.6.6,0,0,0,25.77,5L19.93,8.14Z"/><path class="cls-15" d="M25.81,12.37l.83-6.75a.6.6,0,0,0-.88-.57L20,8.16Z"/><path class="cls-16" d="M25.79,12.36l.83-6.7a.61.61,0,0,0-.88-.58L20,8.18Z"/><path class="cls-17" d="M25.78,12.36l.81-6.67a.59.59,0,0,0-.87-.57L20,8.2Z"/><path class="cls-18" d="M25.76,12.35l.81-6.62a.59.59,0,0,0-.87-.57L20,8.22Z"/><path class="cls-19" d="M25.74,12.34l.81-6.58a.58.58,0,0,0-.86-.56L20,8.24Z"/><path class="cls-20" d="M25.72,12.34l.81-6.54a.59.59,0,0,0-.86-.56L20,8.26Z"/><path class="cls-21" d="M25.71,12.33l.79-6.5a.58.58,0,0,0-.85-.56l-5.59,3Z"/><path class="cls-22" d="M25.69,12.32l.79-6.46a.58.58,0,0,0-.85-.55l-5.55,3Z"/><path class="cls-23" d="M25.67,12.32l.79-6.42a.57.57,0,0,0-.84-.55l-5.53,3Z"/><path class="cls-24" d="M25.65,12.31l.79-6.38a.57.57,0,0,0-.84-.54L20.11,8.33Z"/><path class="cls-25" d="M25.63,12.3,26.41,6a.56.56,0,0,0-.83-.54L20.13,8.35Z"/><path class="cls-25" d="M25.62,12.3,26.39,6a.56.56,0,0,0-.82-.54L20.15,8.37Z"/><path class="cls-26" d="M25.6,12.29,26.37,6a.56.56,0,0,0-.82-.54L20.17,8.39Z"/><path class="cls-27" d="M25.58,12.28l.76-6.21a.55.55,0,0,0-.81-.53L20.18,8.41Z"/><path class="cls-28" d="M25.56,12.28l.76-6.17a.55.55,0,0,0-.81-.53L20.2,8.43Z"/><path class="cls-29" d="M25.55,12.27l.75-6.13a.54.54,0,0,0-.8-.52L20.22,8.45Z"/><path class="cls-30" d="M25.53,12.27l.75-6.1a.55.55,0,0,0-.8-.52L20.24,8.47Z"/><path class="cls-31" d="M25.51,12.26l.74-6a.54.54,0,0,0-.79-.52l-5.2,2.8Z"/><path class="cls-32" d="M25.49,12.25l.74-6a.53.53,0,0,0-.78-.51L20.27,8.51Z"/><path class="cls-33" d="M25.48,12.25l.73-6a.53.53,0,0,0-.78-.51L20.29,8.53Z"/><path class="cls-34" d="M25.46,12.24l.73-5.93a.53.53,0,0,0-.78-.5l-5.1,2.73Z"/><path class="cls-35" d="M25.44,12.23l.72-5.88a.52.52,0,0,0-.77-.51L20.33,8.56Z"/><path class="cls-36" d="M25.42,12.23l.72-5.85a.52.52,0,0,0-.76-.5l-5,2.7Z"/><path class="cls-37" d="M25.41,12.22l.71-5.8a.52.52,0,0,0-.76-.5l-5,2.68Z"/><path class="cls-38" d="M25.39,12.21l.71-5.76A.52.52,0,0,0,25.34,6l-5,2.66Z"/><path class="cls-39" d="M25.37,12.21l.7-5.73A.51.51,0,0,0,25.32,6L20.4,8.64Z"/><path class="cls-40" d="M25.35,12.2l.7-5.68A.51.51,0,0,0,25.31,6L20.42,8.66Z"/><path class="cls-41" d="M25.34,12.2,26,6.55a.5.5,0,0,0-.74-.48L20.44,8.68Z"/><path class="cls-42" d="M25.32,12.19,26,6.59a.5.5,0,0,0-.74-.48L20.45,8.7Z"/><path class="cls-43" d="M25.3,12.18,26,6.62a.49.49,0,0,0-.72-.47L20.47,8.72Z"/><path class="cls-44" d="M25.28,12.18,26,6.66a.49.49,0,0,0-.72-.48L20.49,8.74Z"/><path class="cls-45" d="M25.27,12.17l.67-5.48a.49.49,0,0,0-.72-.47L20.51,8.75Z"/><path class="cls-46" d="M25.25,12.16l.67-5.43a.49.49,0,0,0-.72-.47L20.53,8.77Z"/><path class="cls-47" d="M25.23,12.16l.66-5.4a.48.48,0,0,0-.7-.46L20.54,8.79Z"/><path class="cls-48" d="M25.21,12.15l.66-5.35a.48.48,0,0,0-.7-.46L20.56,8.81Z"/><path class="cls-49" d="M25.2,12.14l.65-5.31a.48.48,0,0,0-.7-.46L20.58,8.83Z"/><path class="cls-51" d="M26.07,6.1l-.81,5.3a.29.29,0,0,1-.16.22H25a.28.28,0,0,1-.18-.06l-2.1-1.73a.27.27,0,0,1,0-.38l2.91-3.57a.25.25,0,0,1,.31-.08A.27.27,0,0,1,26.07,6.1Z"/><path class="cls-52" d="M27.48,18.54c0,6.3-5.18,9-11.56,9s-11.57-2.72-11.57-9S7.89,6.94,15.92,6.94,27.48,12.24,27.48,18.54Z"/><path class="cls-53" d="M18,19.26a2.25,2.25,0,0,1-2.06,1.93,2.26,2.26,0,0,1-2.07-1.93c0-.74.93-.75,2.07-.75S18,18.52,18,19.26Z"/><path class="cls-54" d="M15.92,27.56c-10.95,0-13-7.93-10.31-10.68,3.18-3.27,7.22,1.45,10.3,1.45h0c3.08,0,7.12-4.72,10.31-1.45C28.91,19.63,26.87,27.56,15.92,27.56Z"/><path class="cls-55" d="M15.92,27.53C5,27.53,3,19.63,5.64,16.89c3.17-3.25,7.2,1.44,10.27,1.44h0c3.07,0,7.1-4.69,10.28-1.44C28.87,19.63,26.84,27.53,15.92,27.53Z"/><path class="cls-56" d="M15.92,27.49C5,27.49,3,19.63,5.67,16.9c3.16-3.24,7.18,1.44,10.24,1.44h0c3.07,0,7.08-4.68,10.25-1.44C28.83,19.63,26.81,27.49,15.92,27.49Z"/><path class="cls-57" d="M15.92,27.46C5.06,27.46,3,19.63,5.7,16.91c3.15-3.22,7.16,1.43,10.21,1.43h0c3.06,0,7.06-4.65,10.22-1.43C28.8,19.63,26.78,27.46,15.92,27.46Z"/><path class="cls-58" d="M15.92,27.42c-10.83,0-12.85-7.79-10.19-10.5,3.14-3.2,7.14,1.43,10.18,1.43h0c3,0,7-4.63,10.19-1.43C28.76,19.63,26.75,27.42,15.92,27.42Z"/><path class="cls-59" d="M15.92,27.38c-10.8,0-12.81-7.75-10.17-10.44,3.14-3.2,7.12,1.41,10.16,1.41h0c3,0,7-4.61,10.16-1.41C28.72,19.63,26.72,27.38,15.92,27.38Z"/><path class="cls-60" d="M15.92,27.35C5.16,27.35,3.15,19.63,5.78,17c3.13-3.18,7.1,1.41,10.13,1.41h0c3,0,7-4.59,10.13-1.41C28.68,19.63,26.69,27.35,15.92,27.35Z"/><path class="cls-61" d="M15.92,27.31C5.19,27.31,3.19,19.63,5.81,17c3.12-3.17,7.08,1.4,10.1,1.4h0c3,0,7-4.57,10.1-1.4C28.65,19.63,26.65,27.31,15.92,27.31Z"/><path class="cls-62" d="M15.92,27.28C5.22,27.28,3.22,19.63,5.84,17c3.11-3.15,7.06,1.4,10.07,1.4h0c3,0,7-4.55,10.07-1.4C28.61,19.63,26.62,27.28,15.92,27.28Z"/><path class="cls-63" d="M15.92,27.24c-10.67,0-12.66-7.61-10-10.26,3.1-3.13,7,1.39,10,1.39h0c3,0,6.94-4.52,10-1.39C28.57,19.63,26.59,27.24,15.92,27.24Z"/><path class="cls-64" d="M15.92,27.2C5.28,27.2,3.3,19.62,5.9,17c3.09-3.13,7,1.38,10,1.38h0c3,0,6.92-4.51,10-1.38C28.53,19.62,26.56,27.2,15.92,27.2Z"/><path class="cls-65" d="M15.92,27.17c-10.61,0-12.58-7.55-10-10.16,3.09-3.11,7,1.38,10,1.38h0c3,0,6.9-4.49,10-1.38C28.5,19.62,26.53,27.17,15.92,27.17Z"/><path class="cls-66" d="M15.92,27.13C5.35,27.13,3.37,19.62,6,17c3.08-3.09,7,1.37,10,1.37h0c3,0,6.88-4.46,10-1.37C28.46,19.62,26.5,27.13,15.92,27.13Z"/><path class="cls-67" d="M15.92,27.1C5.38,27.1,3.41,19.62,6,17,9.06,14,13,18.4,15.91,18.4h0c3,0,6.86-4.45,9.92-1.37C28.42,19.62,26.46,27.1,15.92,27.1Z"/><path class="cls-68" d="M15.92,27.06C5.41,27.06,3.45,19.62,6,17,9.08,14,13,18.4,15.91,18.4h0c3,0,6.84-4.42,9.89-1.36C28.38,19.62,26.43,27.06,15.92,27.06Z"/><path class="cls-69" d="M15.92,27c-10.48,0-12.43-7.4-9.87-10,3.05-3,6.91,1.35,9.86,1.35h0c3,0,6.82-4.4,9.86-1.35C28.35,19.62,26.4,27,15.92,27Z"/><path class="cls-70" d="M15.92,27c-10.45,0-12.4-7.37-9.84-9.92,3-3,6.89,1.34,9.83,1.34h0c2.94,0,6.8-4.38,9.83-1.34C28.31,19.62,26.37,27,15.92,27Z"/><path class="cls-71" d="M15.92,27C5.5,27,3.56,19.62,6.11,17.08c3-3,6.87,1.34,9.8,1.34h0c2.93,0,6.77-4.36,9.8-1.34C28.27,19.62,26.34,27,15.92,27Z"/><path class="cls-72" d="M15.92,26.92c-10.38,0-12.32-7.3-9.78-9.83,3-3,6.85,1.33,9.77,1.33h0c2.92,0,6.75-4.33,9.77-1.33C28.23,19.62,26.31,26.92,15.92,26.92Z"/><path class="cls-73" d="M15.92,26.88c-10.35,0-12.28-7.26-9.75-9.78,3-3,6.83,1.33,9.74,1.33h0c2.91,0,6.73-4.32,9.74-1.33C28.2,19.62,26.27,26.88,15.92,26.88Z"/><path class="cls-74" d="M15.92,26.84c-10.32,0-12.25-7.22-9.72-9.73,3-3,6.81,1.32,9.71,1.32h0c2.91,0,6.71-4.29,9.71-1.32C28.16,19.62,26.24,26.84,15.92,26.84Z"/><path class="cls-75" d="M15.92,26.81c-10.29,0-12.21-7.19-9.69-9.68,3-3,6.79,1.31,9.68,1.31h0c2.9,0,6.69-4.27,9.68-1.31C28.12,19.62,26.21,26.81,15.92,26.81Z"/><path class="cls-76" d="M15.92,26.77c-10.26,0-12.17-7.15-9.66-9.63,3-3,6.77,1.31,9.65,1.31h0c2.89,0,6.67-4.26,9.65-1.31C28.08,19.62,26.18,26.77,15.92,26.77Z"/><path class="cls-77" d="M15.92,26.74c-10.23,0-12.13-7.12-9.63-9.59,3-2.93,6.75,1.3,9.62,1.3h0c2.88,0,6.65-4.23,9.62-1.3C28.05,19.62,26.15,26.74,15.92,26.74Z"/><path class="cls-78" d="M15.92,26.7c-10.19,0-12.1-7.08-9.6-9.54,3-2.91,6.72,1.3,9.59,1.3h0c2.87,0,6.63-4.21,9.59-1.3C28,19.62,26.12,26.7,15.92,26.7Z"/><path class="cls-79" d="M15.92,26.66c-10.16,0-12.06-7-9.57-9.49,3-2.9,6.7,1.29,9.56,1.29h0c2.86,0,6.61-4.19,9.56-1.29C28,19.62,26.08,26.66,15.92,26.66Z"/><path class="cls-80" d="M15.92,26.63c-10.13,0-12-7-9.54-9.44,2.94-2.89,6.68,1.28,9.53,1.28h0c2.85,0,6.59-4.17,9.53-1.28C27.93,19.62,26.05,26.63,15.92,26.63Z"/><path class="cls-81" d="M15.92,26.59c-10.1,0-12-7-9.51-9.39,2.93-2.87,6.66,1.27,9.5,1.27h0c2.84,0,6.57-4.14,9.5-1.27C27.9,19.62,26,26.59,15.92,26.59Z"/><path class="cls-82" d="M15.92,26.56C5.85,26.56,4,19.62,6.44,17.21c2.93-2.86,6.64,1.27,9.47,1.27h0c2.83,0,6.55-4.13,9.47-1.27C27.86,19.62,26,26.56,15.92,26.56Z"/><path class="cls-83" d="M15.92,26.52c-10,0-11.91-6.9-9.45-9.3,2.92-2.84,6.62,1.26,9.44,1.26h0c2.82,0,6.53-4.1,9.44-1.26C27.82,19.62,26,26.52,15.92,26.52Z"/><path class="cls-84" d="M15.92,26.48c-10,0-11.87-6.86-9.42-9.25,2.91-2.82,6.6,1.26,9.41,1.26h0c2.82,0,6.51-4.08,9.41-1.26C27.78,19.62,25.93,26.48,15.92,26.48Z"/><path class="cls-85" d="M15.92,26.45c-10,0-11.83-6.83-9.39-9.2,2.9-2.82,6.58,1.24,9.38,1.24h0c2.81,0,6.49-4.06,9.38-1.24C27.75,19.62,25.89,26.45,15.92,26.45Z"/><path class="cls-86" d="M15.92,26.41c-9.94,0-11.8-6.79-9.36-9.15,2.89-2.8,6.56,1.24,9.35,1.24h0c2.8,0,6.47-4,9.35-1.24C27.71,19.62,25.86,26.41,15.92,26.41Z"/><path class="cls-87" d="M15.92,26.38c-9.91,0-11.76-6.76-9.33-9.11,2.88-2.78,6.53,1.24,9.32,1.24h0c2.79,0,6.45-4,9.32-1.24C27.67,19.62,25.83,26.38,15.92,26.38Z"/><path class="cls-88" d="M15.92,26.34c-9.88,0-11.72-6.73-9.3-9.06,2.87-2.77,6.51,1.23,9.29,1.23h0c2.78,0,6.42-4,9.3-1.23C27.63,19.61,25.8,26.34,15.92,26.34Z"/><path class="cls-89" d="M15.92,26.31c-9.85,0-11.68-6.7-9.27-9,2.86-2.75,6.49,1.23,9.26,1.23h0c2.77,0,6.4-4,9.27-1.23C27.6,19.61,25.77,26.31,15.92,26.31Z"/><path class="cls-90" d="M15.92,26.27c-9.82,0-11.65-6.66-9.24-9,2.85-2.74,6.47,1.21,9.23,1.21h0c2.76,0,6.38-3.95,9.24-1.21C27.56,19.61,25.74,26.27,15.92,26.27Z"/><path class="cls-91" d="M15.92,26.23c-9.78,0-11.61-6.62-9.21-8.91,2.84-2.73,6.45,1.21,9.2,1.21h0c2.75,0,6.36-3.94,9.21-1.21C27.52,19.61,25.7,26.23,15.92,26.23Z"/><path class="cls-92" d="M15.92,26.2c-9.75,0-11.57-6.59-9.18-8.87,2.83-2.71,6.43,1.2,9.17,1.2h0c2.74,0,6.34-3.91,9.18-1.2C27.48,19.61,25.67,26.2,15.92,26.2Z"/><path class="cls-93" d="M15.92,26.16c-9.72,0-11.53-6.55-9.15-8.82,2.82-2.69,6.41,1.2,9.14,1.2h0c2.74,0,6.32-3.89,9.15-1.2C27.45,19.61,25.64,26.16,15.92,26.16Z"/><path class="cls-94" d="M15.92,26.13c-9.69,0-11.49-6.52-9.12-8.78,2.81-2.68,6.39,1.19,9.11,1.19h0c2.73,0,6.3-3.87,9.12-1.19C27.41,19.61,25.61,26.13,15.92,26.13Z"/><path class="cls-95" d="M15.92,26.09c-9.66,0-11.46-6.48-9.09-8.72,2.8-2.67,6.37,1.18,9.08,1.18h0c2.72,0,6.28-3.85,9.09-1.18C27.37,19.61,25.58,26.09,15.92,26.09Z"/><path class="cls-96" d="M15.92,26.05c-9.63,0-11.42-6.44-9.06-8.67,2.79-2.65,6.34,1.17,9.05,1.17h0c2.71,0,6.26-3.82,9.06-1.17C27.33,19.61,25.55,26.05,15.92,26.05Z"/><path class="cls-97" d="M15.92,26c-9.59,0-11.38-6.41-9-8.63,2.78-2.64,6.32,1.17,9,1.17h0c2.7,0,6.24-3.81,9-1.17C27.3,19.61,25.51,26,15.92,26Z"/><path class="cls-98" d="M15.92,26c-9.56,0-11.34-6.37-9-8.58,2.78-2.62,6.3,1.17,9,1.17h0c2.69,0,6.22-3.79,9-1.17C27.26,19.61,25.48,26,15.92,26Z"/><path class="cls-99" d="M15.92,26c-9.53,0-11.31-6.34-9-8.54,2.77-2.6,6.28,1.16,9,1.16h0c2.68,0,6.2-3.76,9-1.16C27.22,19.61,25.45,26,15.92,26Z"/><path class="cls-100" d="M15.92,25.91c-9.5,0-11.27-6.3-8.94-8.48,2.76-2.6,6.26,1.15,8.93,1.15h0c2.67,0,6.18-3.75,8.94-1.15C27.18,19.61,25.42,25.91,15.92,25.91Z"/><path class="cls-101" d="M15.92,25.87c-9.47,0-11.23-6.26-8.91-8.43,2.75-2.58,6.24,1.14,8.9,1.14h0c2.66,0,6.16-3.72,8.91-1.14C27.15,19.61,25.39,25.87,15.92,25.87Z"/><path class="cls-102" d="M26.12,15.83c0,4.56-4.57-.93-10.2-.93s-10.21,5.49-10.21.93S8.84,7.44,15.92,7.44,26.12,11.28,26.12,15.83Z"/><path class="cls-53" d="M18,19.26a2.25,2.25,0,0,1-2.06,1.93,2.26,2.26,0,0,1-2.07-1.93c0-.74.93-.75,2.07-.75S18,18.52,18,19.26Z"/><g class="cls-103"><circle class="cls-104" cx="7.65" cy="19.27" r="2.09"/><circle class="cls-105" cx="7.65" cy="19.27" r="2.08"/><circle class="cls-106" cx="7.65" cy="19.27" r="2.06"/><circle class="cls-107" cx="7.65" cy="19.27" r="2.05"/><circle class="cls-108" cx="7.65" cy="19.27" r="2.03"/><circle class="cls-109" cx="7.65" cy="19.27" r="2.02"/><circle class="cls-110" cx="7.65" cy="19.27" r="2"/><circle class="cls-111" cx="7.65" cy="19.27" r="1.99"/><circle class="cls-112" cx="7.65" cy="19.27" r="1.97"/><circle class="cls-113" cx="7.65" cy="19.27" r="1.95"/><circle class="cls-114" cx="7.65" cy="19.27" r="1.94"/><circle class="cls-115" cx="7.65" cy="19.27" r="1.92"/><circle class="cls-116" cx="7.65" cy="19.27" r="1.91"/><circle class="cls-117" cx="7.65" cy="19.27" r="1.89"/><circle class="cls-118" cx="7.65" cy="19.27" r="1.88"/><circle class="cls-119" cx="7.65" cy="19.27" r="1.86"/><circle class="cls-120" cx="7.65" cy="19.27" r="1.85"/><circle class="cls-121" cx="7.65" cy="19.27" r="1.83"/><circle class="cls-122" cx="7.65" cy="19.27" r="1.82"/><circle class="cls-123" cx="7.65" cy="19.27" r="1.8"/><circle class="cls-124" cx="7.65" cy="19.27" r="1.79"/><circle class="cls-125" cx="7.65" cy="19.27" r="1.77"/><circle class="cls-126" cx="7.65" cy="19.27" r="1.76"/><circle class="cls-127" cx="7.65" cy="19.27" r="1.74"/><circle class="cls-128" cx="7.65" cy="19.27" r="1.73"/><circle class="cls-129" cx="7.65" cy="19.27" r="1.71"/><circle class="cls-130" cx="7.65" cy="19.27" r="1.7"/><circle class="cls-131" cx="7.65" cy="19.27" r="1.68"/><circle class="cls-132" cx="7.65" cy="19.27" r="1.67"/><circle class="cls-133" cx="7.65" cy="19.27" r="1.65"/><circle class="cls-134" cx="7.65" cy="19.27" r="1.64"/><circle class="cls-135" cx="7.65" cy="19.27" r="1.62"/><circle class="cls-136" cx="7.65" cy="19.27" r="1.61"/><circle class="cls-137" cx="7.65" cy="19.27" r="1.59"/><circle class="cls-138" cx="7.65" cy="19.27" r="1.58"/><circle class="cls-139" cx="7.65" cy="19.27" r="1.56"/><circle class="cls-140" cx="7.65" cy="19.27" r="1.55"/><circle class="cls-141" cx="7.65" cy="19.27" r="1.53"/><circle class="cls-142" cx="7.65" cy="19.27" r="1.52"/><circle class="cls-143" cx="7.65" cy="19.27" r="1.5"/><circle class="cls-144" cx="7.65" cy="19.27" r="1.49"/><circle class="cls-145" cx="7.65" cy="19.27" r="1.47"/><circle class="cls-146" cx="7.65" cy="19.27" r="1.46"/><circle class="cls-147" cx="7.65" cy="19.27" r="1.44"/><circle class="cls-148" cx="7.65" cy="19.27" r="1.43"/><circle class="cls-149" cx="7.65" cy="19.27" r="1.41"/><circle class="cls-150" cx="7.65" cy="19.27" r="1.4"/><circle class="cls-151" cx="7.65" cy="19.27" r="1.38"/><circle class="cls-152" cx="7.65" cy="19.27" r="1.36"/><circle class="cls-153" cx="7.65" cy="19.27" r="1.35"/><circle class="cls-154" cx="7.65" cy="19.27" r="1.33"/><circle class="cls-155" cx="7.65" cy="19.27" r="1.32"/><circle class="cls-156" cx="7.65" cy="19.27" r="1.3"/><circle class="cls-157" cx="7.65" cy="19.27" r="1.29"/><circle class="cls-158" cx="7.65" cy="19.27" r="1.27"/><circle class="cls-159" cx="7.65" cy="19.27" r="1.26"/><circle class="cls-160" cx="7.65" cy="19.27" r="1.24"/><circle class="cls-161" cx="7.65" cy="19.27" r="1.23"/><circle class="cls-162" cx="7.65" cy="19.27" r="1.21"/><circle class="cls-163" cx="7.65" cy="19.27" r="1.2"/><circle class="cls-164" cx="7.65" cy="19.27" r="1.18"/><circle class="cls-165" cx="7.65" cy="19.27" r="1.17"/><circle class="cls-166" cx="7.65" cy="19.27" r="1.15"/><circle class="cls-167" cx="7.65" cy="19.27" r="1.14"/><circle class="cls-168" cx="7.65" cy="19.27" r="1.12"/><circle class="cls-169" cx="7.65" cy="19.27" r="1.11"/><circle class="cls-170" cx="7.65" cy="19.27" r="1.09"/><circle class="cls-171" cx="7.65" cy="19.27" r="1.08"/><circle class="cls-172" cx="7.65" cy="19.27" r="1.06"/><circle class="cls-173" cx="7.65" cy="19.27" r="1.05"/><circle class="cls-174" cx="7.65" cy="19.27" r="1.03"/><circle class="cls-175" cx="7.65" cy="19.27" r="1.02"/><circle class="cls-176" cx="7.65" cy="19.27" r="1"/><circle class="cls-177" cx="7.65" cy="19.27" r="0.99"/><circle class="cls-178" cx="7.65" cy="19.27" r="0.97"/><circle class="cls-179" cx="7.65" cy="19.27" r="0.96"/><circle class="cls-180" cx="7.65" cy="19.27" r="0.94"/><circle class="cls-181" cx="7.65" cy="19.27" r="0.93"/><circle class="cls-182" cx="7.65" cy="19.27" r="0.91"/><circle class="cls-183" cx="7.65" cy="19.27" r="0.9"/><circle class="cls-184" cx="7.65" cy="19.27" r="0.88"/><circle class="cls-185" cx="7.65" cy="19.27" r="0.87"/><circle class="cls-186" cx="7.65" cy="19.27" r="0.85"/><circle class="cls-187" cx="7.65" cy="19.27" r="0.84"/><circle class="cls-188" cx="7.65" cy="19.27" r="0.82"/><circle class="cls-189" cx="7.65" cy="19.27" r="0.81"/><circle class="cls-190" cx="7.65" cy="19.27" r="0.79"/><circle class="cls-191" cx="7.65" cy="19.27" r="0.77"/><circle class="cls-192" cx="7.65" cy="19.27" r="0.76"/><circle class="cls-193" cx="7.65" cy="19.27" r="0.74"/><circle class="cls-194" cx="7.65" cy="19.27" r="0.73"/><circle class="cls-195" cx="7.65" cy="19.27" r="0.71"/><circle class="cls-196" cx="7.65" cy="19.27" r="0.7"/><circle class="cls-197" cx="7.65" cy="19.27" r="0.68"/><circle class="cls-198" cx="7.65" cy="19.27" r="0.67"/><circle class="cls-199" cx="7.65" cy="19.27" r="0.65"/><circle class="cls-200" cx="7.65" cy="19.27" r="0.64"/><circle class="cls-201" cx="7.65" cy="19.27" r="0.62"/><circle class="cls-202" cx="7.65" cy="19.27" r="0.61"/><circle class="cls-203" cx="7.65" cy="19.27" r="0.59"/><circle class="cls-204" cx="7.65" cy="19.27" r="0.58"/><circle class="cls-205" cx="7.65" cy="19.27" r="0.56"/></g><g class="cls-103"><circle class="cls-104" cx="24.46" cy="19.27" r="2.09"/><circle class="cls-105" cx="24.46" cy="19.27" r="2.08"/><circle class="cls-106" cx="24.46" cy="19.27" r="2.06"/><circle class="cls-107" cx="24.46" cy="19.27" r="2.05"/><circle class="cls-108" cx="24.46" cy="19.27" r="2.03"/><circle class="cls-109" cx="24.46" cy="19.27" r="2.02"/><circle class="cls-110" cx="24.46" cy="19.27" r="2"/><circle class="cls-111" cx="24.46" cy="19.27" r="1.99"/><circle class="cls-112" cx="24.46" cy="19.27" r="1.97"/><circle class="cls-113" cx="24.46" cy="19.27" r="1.95"/><circle class="cls-114" cx="24.46" cy="19.27" r="1.94"/><circle class="cls-115" cx="24.46" cy="19.27" r="1.92"/><circle class="cls-116" cx="24.46" cy="19.27" r="1.91"/><circle class="cls-117" cx="24.46" cy="19.27" r="1.89"/><circle class="cls-118" cx="24.46" cy="19.27" r="1.88"/><circle class="cls-119" cx="24.46" cy="19.27" r="1.86"/><circle class="cls-120" cx="24.46" cy="19.27" r="1.85"/><circle class="cls-121" cx="24.46" cy="19.27" r="1.83"/><circle class="cls-122" cx="24.46" cy="19.27" r="1.82"/><circle class="cls-123" cx="24.46" cy="19.27" r="1.8"/><circle class="cls-124" cx="24.46" cy="19.27" r="1.79"/><circle class="cls-125" cx="24.46" cy="19.27" r="1.77"/><circle class="cls-126" cx="24.46" cy="19.27" r="1.76"/><circle class="cls-127" cx="24.46" cy="19.27" r="1.74"/><circle class="cls-128" cx="24.46" cy="19.27" r="1.73"/><circle class="cls-129" cx="24.46" cy="19.27" r="1.71"/><circle class="cls-130" cx="24.46" cy="19.27" r="1.7"/><circle class="cls-131" cx="24.46" cy="19.27" r="1.68"/><circle class="cls-132" cx="24.46" cy="19.27" r="1.67"/><circle class="cls-133" cx="24.46" cy="19.27" r="1.65"/><circle class="cls-134" cx="24.46" cy="19.27" r="1.64"/><circle class="cls-135" cx="24.46" cy="19.27" r="1.62"/><circle class="cls-136" cx="24.46" cy="19.27" r="1.61"/><circle class="cls-137" cx="24.46" cy="19.27" r="1.59"/><circle class="cls-138" cx="24.46" cy="19.27" r="1.58"/><circle class="cls-139" cx="24.46" cy="19.27" r="1.56"/><circle class="cls-140" cx="24.46" cy="19.27" r="1.55"/><circle class="cls-141" cx="24.46" cy="19.27" r="1.53"/><circle class="cls-142" cx="24.46" cy="19.27" r="1.52"/><circle class="cls-143" cx="24.46" cy="19.27" r="1.5"/><circle class="cls-144" cx="24.46" cy="19.27" r="1.49"/><circle class="cls-145" cx="24.46" cy="19.27" r="1.47"/><circle class="cls-146" cx="24.46" cy="19.27" r="1.46"/><circle class="cls-147" cx="24.46" cy="19.27" r="1.44"/><circle class="cls-148" cx="24.46" cy="19.27" r="1.43"/><circle class="cls-149" cx="24.46" cy="19.27" r="1.41"/><circle class="cls-150" cx="24.46" cy="19.27" r="1.4"/><circle class="cls-151" cx="24.46" cy="19.27" r="1.38"/><circle class="cls-152" cx="24.46" cy="19.27" r="1.36"/><circle class="cls-153" cx="24.46" cy="19.27" r="1.35"/><circle class="cls-154" cx="24.46" cy="19.27" r="1.33"/><circle class="cls-155" cx="24.46" cy="19.27" r="1.32"/><circle class="cls-156" cx="24.46" cy="19.27" r="1.3"/><circle class="cls-157" cx="24.46" cy="19.27" r="1.29"/><circle class="cls-158" cx="24.46" cy="19.27" r="1.27"/><circle class="cls-159" cx="24.46" cy="19.27" r="1.26"/><circle class="cls-160" cx="24.46" cy="19.27" r="1.24"/><circle class="cls-161" cx="24.46" cy="19.27" r="1.23"/><circle class="cls-162" cx="24.46" cy="19.27" r="1.21"/><circle class="cls-163" cx="24.46" cy="19.27" r="1.2"/><circle class="cls-164" cx="24.46" cy="19.27" r="1.18"/><circle class="cls-165" cx="24.46" cy="19.27" r="1.17"/><circle class="cls-166" cx="24.46" cy="19.27" r="1.15"/><circle class="cls-167" cx="24.46" cy="19.27" r="1.14"/><circle class="cls-168" cx="24.46" cy="19.27" r="1.12"/><circle class="cls-169" cx="24.46" cy="19.27" r="1.11"/><circle class="cls-170" cx="24.46" cy="19.27" r="1.09"/><circle class="cls-171" cx="24.46" cy="19.27" r="1.08"/><circle class="cls-172" cx="24.46" cy="19.27" r="1.06"/><circle class="cls-173" cx="24.46" cy="19.27" r="1.05"/><circle class="cls-174" cx="24.46" cy="19.27" r="1.03"/><circle class="cls-175" cx="24.46" cy="19.27" r="1.02"/><circle class="cls-176" cx="24.46" cy="19.27" r="1"/><circle class="cls-177" cx="24.46" cy="19.27" r="0.99"/><circle class="cls-178" cx="24.46" cy="19.27" r="0.97"/><circle class="cls-179" cx="24.46" cy="19.27" r="0.96"/><circle class="cls-180" cx="24.46" cy="19.27" r="0.94"/><circle class="cls-181" cx="24.46" cy="19.27" r="0.93"/><circle class="cls-182" cx="24.46" cy="19.27" r="0.91"/><circle class="cls-183" cx="24.46" cy="19.27" r="0.9"/><circle class="cls-184" cx="24.46" cy="19.27" r="0.88"/><circle class="cls-185" cx="24.46" cy="19.27" r="0.87"/><circle class="cls-186" cx="24.46" cy="19.27" r="0.85"/><circle class="cls-187" cx="24.46" cy="19.27" r="0.84"/><circle class="cls-188" cx="24.46" cy="19.27" r="0.82"/><circle class="cls-189" cx="24.46" cy="19.27" r="0.81"/><circle class="cls-190" cx="24.46" cy="19.27" r="0.79"/><circle class="cls-191" cx="24.46" cy="19.27" r="0.77"/><circle class="cls-192" cx="24.46" cy="19.27" r="0.76"/><circle class="cls-193" cx="24.46" cy="19.27" r="0.74"/><circle class="cls-194" cx="24.46" cy="19.27" r="0.73"/><circle class="cls-195" cx="24.46" cy="19.27" r="0.71"/><circle class="cls-196" cx="24.46" cy="19.27" r="0.7"/><circle class="cls-197" cx="24.46" cy="19.27" r="0.68"/><circle class="cls-198" cx="24.46" cy="19.27" r="0.67"/><circle class="cls-199" cx="24.46" cy="19.27" r="0.65"/><circle class="cls-200" cx="24.46" cy="19.27" r="0.64"/><circle class="cls-201" cx="24.46" cy="19.27" r="0.62"/><circle class="cls-202" cx="24.46" cy="19.27" r="0.61"/><circle class="cls-203" cx="24.46" cy="19.27" r="0.59"/><circle class="cls-204" cx="24.46" cy="19.27" r="0.58"/><circle class="cls-205" cx="24.46" cy="19.27" r="0.56"/></g><path class="cls-206" d="M18,19.1a2.16,2.16,0,0,1-4.13,0c0-.58.93-.59,2.07-.59S18,18.52,18,19.1Z"/><path class="cls-207" d="M21.17,21.15a10.26,10.26,0,0,1-10.51,0,.38.38,0,0,0-.59.38c.29,1.59,1.43,4.57,5.84,4.57s5.56-3,5.85-4.57A.38.38,0,0,0,21.17,21.15Z"/><path class="cls-208" d="M21.17,21.43a10.26,10.26,0,0,1-10.51,0,.38.38,0,0,0-.59.38c.29,1.59,1.43,4.58,5.84,4.58s5.56-3,5.85-4.57A.38.38,0,0,0,21.17,21.43Z"/><path class="cls-209" d="M18.28,25.74a7.14,7.14,0,0,1-2.36.36,7.13,7.13,0,0,1-2.53-.41,5.31,5.31,0,0,1,2.53-.9A4.41,4.41,0,0,1,18.28,25.74Z"/><path class="cls-210" d="M18.24,25.72a6.86,6.86,0,0,1-2.33.37,7.16,7.16,0,0,1-2.49-.41,5.22,5.22,0,0,1,2.49-.89A4.34,4.34,0,0,1,18.24,25.72Z"/><path class="cls-211" d="M18.21,25.71a6.77,6.77,0,0,1-2.3.36,7,7,0,0,1-2.46-.4,5.18,5.18,0,0,1,2.46-.88A4.22,4.22,0,0,1,18.21,25.71Z"/><path class="cls-212" d="M18.18,25.7a6.85,6.85,0,0,1-2.27.35,7.15,7.15,0,0,1-2.43-.39,5.09,5.09,0,0,1,2.43-.87A4.18,4.18,0,0,1,18.18,25.7Z"/><path class="cls-213" d="M18.15,25.69a6.68,6.68,0,0,1-2.24.34,6.74,6.74,0,0,1-2.4-.39,5.09,5.09,0,0,1,2.4-.85A4.1,4.1,0,0,1,18.15,25.69Z"/><path class="cls-214" d="M18.12,25.67a6.57,6.57,0,0,1-2.21.35,6.69,6.69,0,0,1-2.36-.39,4.94,4.94,0,0,1,2.36-.84A4.16,4.16,0,0,1,18.12,25.67Z"/><path class="cls-215" d="M18.08,25.66a6.3,6.3,0,0,1-2.17.34,6.53,6.53,0,0,1-2.33-.38,4.91,4.91,0,0,1,2.33-.83A4,4,0,0,1,18.08,25.66Z"/><path class="cls-216" d="M18.05,25.65a6.37,6.37,0,0,1-2.14.33,6.67,6.67,0,0,1-2.3-.37,4.82,4.82,0,0,1,2.3-.82A4,4,0,0,1,18.05,25.65Z"/><path class="cls-217" d="M18,25.64a6.55,6.55,0,0,1-2.11.32,6.75,6.75,0,0,1-2.27-.36,4.78,4.78,0,0,1,2.27-.81A3.91,3.91,0,0,1,18,25.64Z"/><path class="cls-218" d="M18,25.62a6.09,6.09,0,0,1-2.08.33,6.32,6.32,0,0,1-2.24-.37,4.72,4.72,0,0,1,2.24-.79A3.85,3.85,0,0,1,18,25.62Z"/><path class="cls-219" d="M18,25.61a6.19,6.19,0,0,1-2.06.32,6.3,6.3,0,0,1-2.19-.36,4.62,4.62,0,0,1,2.19-.78A3.81,3.81,0,0,1,18,25.61Z"/><path class="cls-220" d="M17.93,25.6a6.1,6.1,0,0,1-2,.31,6.14,6.14,0,0,1-2.16-.35,4.53,4.53,0,0,1,2.16-.77A3.73,3.73,0,0,1,17.93,25.6Z"/><path class="cls-221" d="M17.89,25.59a6.09,6.09,0,0,1-2,.3,6.25,6.25,0,0,1-2.13-.34,4.5,4.5,0,0,1,2.13-.76A3.61,3.61,0,0,1,17.89,25.59Z"/><path class="cls-222" d="M17.86,25.57a5.64,5.64,0,0,1-2,.31,6.07,6.07,0,0,1-2.1-.34,4.41,4.41,0,0,1,2.1-.75A3.66,3.66,0,0,1,17.86,25.57Z"/><path class="cls-223" d="M17.83,25.56a5.75,5.75,0,0,1-1.93.3,5.93,5.93,0,0,1-2.07-.34,4.4,4.4,0,0,1,2.07-.73A3.58,3.58,0,0,1,17.83,25.56Z"/><path class="cls-224" d="M17.8,25.55a5.88,5.88,0,0,1-1.9.29,5.67,5.67,0,0,1-2-.33,4.26,4.26,0,0,1,2-.72A3.54,3.54,0,0,1,17.8,25.55Z"/><path class="cls-225" d="M17.77,25.53a5.44,5.44,0,0,1-1.87.29,5.74,5.74,0,0,1-2-.32,4.22,4.22,0,0,1,2-.71A3.56,3.56,0,0,1,17.77,25.53Z"/><path class="cls-226" d="M17.73,25.52a5.44,5.44,0,0,1-1.83.29,5.64,5.64,0,0,1-2-.32,4.13,4.13,0,0,1,2-.7A3.35,3.35,0,0,1,17.73,25.52Z"/><path class="cls-227" d="M17.7,25.51a5.32,5.32,0,0,1-1.8.28A5.71,5.71,0,0,1,14,25.48a4.09,4.09,0,0,1,1.94-.69A3.31,3.31,0,0,1,17.7,25.51Z"/><path class="cls-228" d="M17.67,25.5a5.42,5.42,0,0,1-1.78.27,5.51,5.51,0,0,1-1.9-.31,4,4,0,0,1,1.9-.67A3.24,3.24,0,0,1,17.67,25.5Z"/><path class="cls-229" d="M17.64,25.48a5,5,0,0,1-1.75.27,5.39,5.39,0,0,1-1.87-.3,4,4,0,0,1,1.87-.66A3.29,3.29,0,0,1,17.64,25.48Z"/><path class="cls-230" d="M17.61,25.47a5.13,5.13,0,0,1-1.72.27,5.34,5.34,0,0,1-1.83-.3,3.85,3.85,0,0,1,1.83-.65A3.21,3.21,0,0,1,17.61,25.47Z"/><path class="cls-101" d="M20.49,21.56v.74a.65.65,0,0,1-.37.58,10,10,0,0,1-4.29.8,9.17,9.17,0,0,1-4.2-.8.61.61,0,0,1-.34-.56v-.78A10.64,10.64,0,0,0,20.49,21.56Z"/><path class="cls-99" d="M11.3,21.54a10.59,10.59,0,0,0,9.18,0s0,.72,0,.72a.67.67,0,0,1-.37.57,10,10,0,0,1-4.27.78,9.39,9.39,0,0,1-4.17-.78.64.64,0,0,1-.35-.55S11.3,21.54,11.3,21.54Z"/><path class="cls-97" d="M11.3,21.54a10.59,10.59,0,0,0,9.18,0s0,.7,0,.71a.62.62,0,0,1-.38.54,10,10,0,0,1-4.24.78,9.24,9.24,0,0,1-4.15-.78.6.6,0,0,1-.35-.53S11.3,21.55,11.3,21.54Z"/><path class="cls-231" d="M11.3,21.54a10.59,10.59,0,0,0,9.18,0s0,.68-.05.69a.65.65,0,0,1-.38.53,10,10,0,0,1-4.22.77,9.38,9.38,0,0,1-4.12-.77.64.64,0,0,1-.37-.51S11.3,21.56,11.3,21.54Z"/><path class="cls-92" d="M11.3,21.54a10.59,10.59,0,0,0,9.18,0s0,.66-.06.67a.7.7,0,0,1-.4.52,10,10,0,0,1-4.19.75,9.47,9.47,0,0,1-4.1-.75.63.63,0,0,1-.37-.5A5.51,5.51,0,0,1,11.3,21.54Z"/><path class="cls-90" d="M11.3,21.54a10.59,10.59,0,0,0,9.18,0,4.58,4.58,0,0,1-.08.66.67.67,0,0,1-.4.49,10.08,10.08,0,0,1-4.17.75,9.35,9.35,0,0,1-4.08-.75.64.64,0,0,1-.37-.48A5,5,0,0,1,11.3,21.54Z"/><path class="cls-232" d="M11.3,21.54a10.59,10.59,0,0,0,9.18,0,4.08,4.08,0,0,1-.1.64.69.69,0,0,1-.41.48,10.07,10.07,0,0,1-4.14.74,9.46,9.46,0,0,1-4.05-.74.65.65,0,0,1-.39-.46A3.72,3.72,0,0,1,11.3,21.54Z"/><path class="cls-233" d="M11.3,21.54a10.57,10.57,0,0,0,9.17,0,2.51,2.51,0,0,1-.11.63.69.69,0,0,1-.41.46,10.22,10.22,0,0,1-4.12.72,9.59,9.59,0,0,1-4-.72.69.69,0,0,1-.39-.45A2.76,2.76,0,0,1,11.3,21.54Z"/><path class="cls-83" d="M11.3,21.54a10.57,10.57,0,0,0,9.17,0c0,.07-.06.58-.12.61a.72.72,0,0,1-.43.44,10.12,10.12,0,0,1-4.09.72,9.71,9.71,0,0,1-4-.71.7.7,0,0,1-.41-.44A2.51,2.51,0,0,1,11.3,21.54Z"/><path class="cls-81" d="M11.3,21.54a10.57,10.57,0,0,0,9.17,0c0,.08-.07.56-.14.6a.74.74,0,0,1-.43.42,10.21,10.21,0,0,1-4.07.71,9.58,9.58,0,0,1-4-.71.75.75,0,0,1-.41-.41C11.37,22.13,11.32,21.62,11.3,21.54Z"/><path class="cls-79" d="M11.3,21.54a10.6,10.6,0,0,0,9.17,0c0,.08-.08.53-.16.57a.78.78,0,0,1-.44.41,10.21,10.21,0,0,1-4,.69,9.68,9.68,0,0,1-4-.69.76.76,0,0,1-.41-.4C11.38,22.11,11.32,21.63,11.3,21.54Z"/><path class="cls-76" d="M11.31,21.54a10.58,10.58,0,0,0,9.16,0c0,.09-.09.51-.17.55a.86.86,0,0,1-.45.4,10.54,10.54,0,0,1-4,.68,9.85,9.85,0,0,1-3.93-.68.83.83,0,0,1-.43-.39C11.38,22.09,11.32,21.64,11.31,21.54Z"/><path class="cls-74" d="M11.31,21.54a10.58,10.58,0,0,0,9.16,0c0,.09-.1.49-.19.54a.93.93,0,0,1-.46.37,10.24,10.24,0,0,1-4,.68,9.67,9.67,0,0,1-3.91-.68.83.83,0,0,1-.43-.36C11.39,22.07,11.32,21.64,11.31,21.54Z"/><path class="cls-72" d="M11.31,21.54a10.58,10.58,0,0,0,9.16,0c0,.1-.11.47-.21.52a.92.92,0,0,1-.46.36,10.59,10.59,0,0,1-4,.66A9.71,9.71,0,0,1,12,22.45a.86.86,0,0,1-.44-.35C11.4,22,11.33,21.65,11.31,21.54Z"/><path class="cls-234" d="M11.31,21.54a10.56,10.56,0,0,0,9.15,0c0,.11-.11.45-.22.51a1.12,1.12,0,0,1-.47.34,10.54,10.54,0,0,1-3.94.65A10,10,0,0,1,12,22.42a1,1,0,0,1-.45-.34C11.41,22,11.33,21.66,11.31,21.54Z"/><path class="cls-235" d="M11.31,21.54a10.56,10.56,0,0,0,9.15,0c0,.12-.12.43-.23.49a1.12,1.12,0,0,1-.48.32,10.42,10.42,0,0,1-3.92.65A10,10,0,0,1,12,22.39a1.18,1.18,0,0,1-.45-.32C11.42,22,11.33,21.67,11.31,21.54Z"/><path class="cls-65" d="M11.31,21.54a10.56,10.56,0,0,0,9.15,0c0,.13-.13.41-.25.47a1.25,1.25,0,0,1-.49.31,10.63,10.63,0,0,1-3.89.63A10,10,0,0,1,12,22.35a1.23,1.23,0,0,1-.47-.3C11.42,22,11.33,21.68,11.31,21.54Z"/><path class="cls-63" d="M11.31,21.54a10.56,10.56,0,0,0,9.15,0,.86.86,0,0,1-.27.46,1.66,1.66,0,0,1-.49.29,10.73,10.73,0,0,1-3.87.62A10.08,10.08,0,0,1,12,22.32a1.36,1.36,0,0,1-.47-.29C11.43,22,11.34,21.69,11.31,21.54Z"/><path class="cls-236" d="M11.31,21.54a10.56,10.56,0,0,0,9.15,0,.78.78,0,0,1-.28.44,2,2,0,0,1-.51.28,10.91,10.91,0,0,1-3.84.61,10.07,10.07,0,0,1-3.76-.61,2,2,0,0,1-.48-.27A.74.74,0,0,1,11.31,21.54Z"/><path class="cls-58" d="M11.31,21.54a10.56,10.56,0,0,0,9.15,0,.75.75,0,0,1-.3.43,2.69,2.69,0,0,1-.51.25,10.73,10.73,0,0,1-3.82.6,10.39,10.39,0,0,1-3.74-.59A3,3,0,0,1,11.6,22,.69.69,0,0,1,11.31,21.54Z"/><path class="cls-56" d="M11.31,21.55a10.59,10.59,0,0,0,9.15,0,.67.67,0,0,1-.32.41,2.87,2.87,0,0,1-.52.24,11,11,0,0,1-3.79.59,10.22,10.22,0,0,1-3.72-.59,2.48,2.48,0,0,1-.49-.24A.62.62,0,0,1,11.31,21.55Z"/><path class="cls-54" d="M20.45,21.58a.64.64,0,0,1-.33.39,10,10,0,0,1-4.29.8,9.17,9.17,0,0,1-4.2-.8.59.59,0,0,1-.32-.42A10.61,10.61,0,0,0,20.45,21.58Z"/><path class="cls-207" d="M9.37,20.17l-.32-.11a6.78,6.78,0,0,0-.83-.23A10.22,10.22,0,0,0,7,19.61a10.4,10.4,0,0,0-1.4-.13A14,14,0,0,0,3,19.56c-.36.06-.66.09-.87.14l-.33.07s0,0,0,0,0,0,0,0a6.31,6.31,0,0,1,1.17-.44A9.05,9.05,0,0,1,4.16,19a14.06,14.06,0,0,1,1.47-.07,9.84,9.84,0,0,1,2.71.47,5.27,5.27,0,0,1,.85.36l.3.17a.13.13,0,0,1,0,.18A.13.13,0,0,1,9.37,20.17Z"/><path class="cls-237" d="M9.3,20.14,9,20c-.19-.06-.47-.14-.82-.22s-.75-.14-1.18-.21-.91-.11-1.38-.13a15.27,15.27,0,0,0-2.6.08c-.35.06-.65.09-.85.14l-.33.06s0,0,0,0,0,0,0,0A6.22,6.22,0,0,1,3,19.25,9.26,9.26,0,0,1,4.18,19,11.4,11.4,0,0,1,5.63,19a9.57,9.57,0,0,1,2.66.45,5.56,5.56,0,0,1,.83.34l.29.17a.13.13,0,0,1,0,.18A.13.13,0,0,1,9.3,20.14Z"/><path class="cls-238" d="M9.22,20.11,8.92,20c-.19-.06-.46-.13-.8-.21s-.74-.14-1.16-.21-.89-.1-1.36-.12a14.59,14.59,0,0,0-2.54.08c-.35,0-.64.08-.84.13l-.32.06s0,0,0,0,0,0,0,0A5.6,5.6,0,0,1,3,19.24,10.48,10.48,0,0,1,4.21,19,13,13,0,0,1,5.62,19a10.09,10.09,0,0,1,2.62.43,6.4,6.4,0,0,1,.81.34l.28.17a.12.12,0,0,1,.05.16A.13.13,0,0,1,9.22,20.11Z"/><path class="cls-239" d="M9.15,20.07,8.85,20c-.18-.06-.45-.13-.78-.21s-.72-.13-1.14-.2a11.18,11.18,0,0,0-1.33-.11,14.24,14.24,0,0,0-2.5.07c-.33,0-.62.08-.82.13L2,19.7s0,0,0,0,0,0,0,0a5.45,5.45,0,0,1,1.1-.4A8.24,8.24,0,0,1,4.23,19,12.71,12.71,0,0,1,5.62,19a9.63,9.63,0,0,1,2.56.42,5.14,5.14,0,0,1,.8.33l.28.16a.11.11,0,0,1,0,.16A.12.12,0,0,1,9.15,20.07Z"/><path class="cls-240" d="M9.08,20l-.3-.11c-.17-.06-.44-.12-.76-.2s-.71-.13-1.12-.19-.86-.1-1.3-.12a13.58,13.58,0,0,0-2.45.08,7,7,0,0,0-.8.12L2,19.68s0,0,0,0,0,0,0,0a6,6,0,0,1,1.08-.39A8,8,0,0,1,4.26,19c.43,0,.9-.06,1.36-.06a9.74,9.74,0,0,1,2.51.41,4.9,4.9,0,0,1,.78.32l.27.15a.11.11,0,0,1,0,.16A.11.11,0,0,1,9.08,20Z"/><path class="cls-241" d="M9,20l-.28-.1c-.18-.06-.44-.12-.75-.19s-.7-.13-1.1-.19a10.34,10.34,0,0,0-1.27-.11,13.1,13.1,0,0,0-2.4.07c-.32.05-.6.07-.79.12l-.3,0s0,0,0,0,0,0,0,0a5.38,5.38,0,0,1,1.06-.38A9,9,0,0,1,4.29,19,11.48,11.48,0,0,1,5.62,19a9,9,0,0,1,2.45.39,5,5,0,0,1,.77.3l.27.15a.13.13,0,0,1,0,.16A.13.13,0,0,1,9,20Z"/><path class="cls-242" d="M8.93,20l-.28-.1c-.17-.05-.42-.12-.74-.19s-.68-.12-1.07-.18-.82-.09-1.25-.11a14.43,14.43,0,0,0-2.34.07c-.32.05-.59.08-.77.12l-.3.05s0,0,0,0,0,0,0,0a5.27,5.27,0,0,1,1-.36A8,8,0,0,1,4.31,19c.41,0,.86-.05,1.3-.05A9.09,9.09,0,0,1,8,19.34a5.16,5.16,0,0,1,.75.29l.26.15a.09.09,0,0,1,0,.14A.11.11,0,0,1,8.93,20Z"/><path class="cls-243" d="M8.86,19.93l-.28-.09-.72-.18c-.3-.08-.66-.12-1.05-.18s-.8-.08-1.22-.1a13.81,13.81,0,0,0-2.29.07c-.31,0-.58.07-.76.11l-.29.05s0,0,0,0,0,0,0,0a5.5,5.5,0,0,1,1-.35,9.11,9.11,0,0,1,1.1-.2c.4,0,.84-.05,1.27-.05A9.2,9.2,0,0,1,8,19.33a4,4,0,0,1,.73.28l.26.14a.09.09,0,0,1,0,.14A.11.11,0,0,1,8.86,19.93Z"/><path class="cls-244" d="M8.78,19.9l-.27-.09-.7-.18c-.29-.07-.65-.11-1-.16a11,11,0,0,0-1.19-.1,13.44,13.44,0,0,0-2.25.06c-.3,0-.56.07-.73.11l-.29.05,0,0s0,0,0,0a6.23,6.23,0,0,1,1-.34A8.68,8.68,0,0,1,4.36,19c.4,0,.82-.05,1.25-.05a9.28,9.28,0,0,1,2.3.35,4.73,4.73,0,0,1,.72.28l.25.13a.1.1,0,0,1,0,.14A.12.12,0,0,1,8.78,19.9Z"/><path class="cls-245" d="M8.71,19.87l-.26-.09c-.16-.05-.4-.11-.69-.17s-.64-.11-1-.16-.77-.08-1.17-.1a13.85,13.85,0,0,0-2.2.07c-.3,0-.55.06-.72.1l-.28.05a0,0,0,0,1,0,0,0,0,0,0,1,0,0,6.09,6.09,0,0,1,1-.32c.3-.06.66-.14,1-.18A12,12,0,0,1,5.61,19a9.44,9.44,0,0,1,2.25.34,3.67,3.67,0,0,1,.7.27l.25.12a.1.1,0,0,1,0,.14A.12.12,0,0,1,8.71,19.87Z"/><path class="cls-246" d="M8.64,19.83l-.26-.08c-.16-.05-.39-.1-.67-.16s-.62-.11-1-.16-.75-.08-1.14-.09a13.31,13.31,0,0,0-2.15.06c-.29,0-.54.06-.71.1l-.27,0s0,0,0,0a0,0,0,0,1,0,0,6,6,0,0,1,1-.3,7.89,7.89,0,0,1,1-.18A11.63,11.63,0,0,1,5.6,19a8.53,8.53,0,0,1,2.2.32,4.61,4.61,0,0,1,.69.25l.24.13a.08.08,0,0,1,0,.12A.11.11,0,0,1,8.64,19.83Z"/><path class="cls-247" d="M8.56,19.8l-.25-.08c-.15,0-.38-.1-.65-.16s-.61-.1-1-.15-.74-.07-1.12-.08a12.69,12.69,0,0,0-2.09.05c-.29,0-.53.06-.69.1l-.27,0s0,0,0,0,0,0,0,0a6,6,0,0,1,.92-.29,8,8,0,0,1,1-.17c.37,0,.76,0,1.16,0a8.74,8.74,0,0,1,2.15.31,3.8,3.8,0,0,1,.67.24l.23.12a.08.08,0,0,1,0,.12A.12.12,0,0,1,8.56,19.8Z"/><path class="cls-248" d="M8.49,19.76l-.25-.07a4.41,4.41,0,0,0-.64-.15,9.28,9.28,0,0,0-.93-.14,9.61,9.61,0,0,0-1.09-.09,13.11,13.11,0,0,0-2,.06,6,6,0,0,0-.68.09l-.25,0,0,0s0,0,0,0a5.57,5.57,0,0,1,.9-.28,7.54,7.54,0,0,1,1-.16c.36,0,.75,0,1.14,0a9.46,9.46,0,0,1,2.1.3,3.91,3.91,0,0,1,.65.23l.23.11a.08.08,0,0,1,0,.12A.11.11,0,0,1,8.49,19.76Z"/><path class="cls-249" d="M8.42,19.73l-.24-.08-.63-.14c-.26-.05-.58-.09-.91-.13s-.7-.07-1.06-.08a14.08,14.08,0,0,0-2,.05,5.35,5.35,0,0,0-.65.09l-.25,0a.05.05,0,0,1,0,0s0,0,0,0a6,6,0,0,1,.88-.27,7.16,7.16,0,0,1,1-.14A10,10,0,0,1,5.6,19a8.93,8.93,0,0,1,2,.29,3.86,3.86,0,0,1,.64.22l.22.1a.08.08,0,0,1,0,.11A.11.11,0,0,1,8.42,19.73Z"/><path class="cls-250" d="M8.34,19.69l-.23-.07-.61-.13c-.25,0-.56-.09-.89-.13s-.68-.06-1-.07a13.49,13.49,0,0,0-1.95,0L3,19.42l-.24,0s0,0,0,0,0,0,0,0a5.93,5.93,0,0,1,.86-.25A5.59,5.59,0,0,1,4.51,19,9.54,9.54,0,0,1,5.59,19a9.88,9.88,0,0,1,2,.27c.26.07.47.16.62.21l.22.11s.06.07,0,.1A.1.1,0,0,1,8.34,19.69Z"/><path class="cls-251" d="M8.27,19.66,8,19.59c-.14,0-.34-.08-.59-.12s-.55-.08-.87-.13-.66-.06-1-.07a14.06,14.06,0,0,0-1.89.05c-.26,0-.48.05-.62.08l-.24,0h0s0,0,0,0a5.51,5.51,0,0,1,.83-.24A6.85,6.85,0,0,1,4.54,19a9,9,0,0,1,1,0,8.72,8.72,0,0,1,1.94.25,4.84,4.84,0,0,1,.61.2l.21.1a.06.06,0,0,1,0,.1A.11.11,0,0,1,8.27,19.66Z"/><path class="cls-252" d="M8.2,19.62,8,19.56l-.58-.12c-.25-.05-.54-.07-.85-.11s-.64-.06-1-.07a13.45,13.45,0,0,0-1.84,0c-.25,0-.47.05-.61.08l-.23,0s0,0,0,0a0,0,0,0,1,0,0,6.1,6.1,0,0,1,.81-.23c.26,0,.56-.1.88-.12s.68,0,1,0a9,9,0,0,1,1.89.24,5.21,5.21,0,0,1,.59.19l.21.09a.07.07,0,0,1,0,.1A.09.09,0,0,1,8.2,19.62Z"/><path class="cls-253" d="M8.12,19.59l-.21-.06-.56-.11c-.24-.05-.52-.07-.83-.11s-.62-.06-.95-.07a12.76,12.76,0,0,0-1.8.05,5.34,5.34,0,0,0-.59.07l-.22,0s0,0,0,0a0,0,0,0,1,0,0,6,6,0,0,1,.79-.21A6.37,6.37,0,0,1,4.59,19c.31,0,.65,0,1,0a8.72,8.72,0,0,1,1.85.23,5,5,0,0,1,.57.18l.2.08s.06.06,0,.09A.11.11,0,0,1,8.12,19.59Z"/><path class="cls-254" d="M8.05,19.56l-.21-.06-.55-.11c-.23,0-.5-.06-.79-.1s-.61-.05-.93-.06a13.82,13.82,0,0,0-1.75,0c-.23,0-.44,0-.57.07l-.22,0,0,0s0,0,0,0a5,5,0,0,1,.77-.2A8,8,0,0,1,4.61,19c.31,0,.64,0,1,0a8.83,8.83,0,0,1,1.79.22,3.51,3.51,0,0,1,.56.17l.2.08a0,0,0,0,1,0,.08A.09.09,0,0,1,8.05,19.56Z"/><path class="cls-255" d="M8,19.52l-.21-.05-.53-.1c-.22,0-.49-.06-.77-.1s-.6-.05-.9-.05a15.28,15.28,0,0,0-1.7,0c-.23,0-.43,0-.56.07l-.21,0a0,0,0,0,1,0,0v0a6.17,6.17,0,0,1,.75-.19,5.78,5.78,0,0,1,.81-.1c.3,0,.62,0,.94,0a9.2,9.2,0,0,1,1.74.21c.23,0,.41.11.54.15l.19.08s0,0,0,.08A.12.12,0,0,1,8,19.52Z"/><path class="cls-256" d="M7.9,19.49l-.19,0-.52-.09c-.22,0-.48-.06-.75-.09s-.58-.05-.88-.06a14.11,14.11,0,0,0-1.64,0,4.88,4.88,0,0,0-.54.06l-.21,0h0s0,0,0,0a7.33,7.33,0,0,1,.73-.18A7.67,7.67,0,0,1,4.66,19a9.12,9.12,0,0,1,.92,0,8,8,0,0,1,1.68.19,3.5,3.5,0,0,1,.53.14l.18.07s0,.05,0,.08A.11.11,0,0,1,7.9,19.49Z"/><path class="cls-257" d="M7.83,19.45l-.19,0-.5-.09-.73-.08c-.27,0-.56,0-.85,0a15.89,15.89,0,0,0-1.59,0l-.53.05-.2,0h0l0,0a4.53,4.53,0,0,1,.7-.16A5.29,5.29,0,0,1,4.69,19a8.43,8.43,0,0,1,.88,0,9.2,9.2,0,0,1,1.64.17c.22.05.39.1.51.14l.18.07s0,0,0,.06A.1.1,0,0,1,7.83,19.45Z"/><path class="cls-258" d="M7.76,19.42l-.19,0c-.11,0-.28-.05-.48-.08l-.71-.08c-.26,0-.54,0-.82,0a11,11,0,0,0-1.55,0l-.5,0-.2,0h0s0,0,0,0A5.21,5.21,0,0,1,4,19.1,6.79,6.79,0,0,1,4.71,19c.28,0,.57,0,.86,0a9.78,9.78,0,0,1,1.59.16,3.65,3.65,0,0,1,.49.13l.17.06s0,0,0,.06A.1.1,0,0,1,7.76,19.42Z"/><path class="cls-259" d="M7.68,19.38l-.18,0L7,19.27c-.19,0-.43,0-.68-.07l-.79,0a14.15,14.15,0,0,0-1.5,0l-.49,0-.19,0a0,0,0,0,1,0,0s0,0,0,0,.25-.07.66-.14A6.31,6.31,0,0,1,4.74,19c.26,0,.55,0,.83,0a10.27,10.27,0,0,1,1.53.15l.48.11.17.06s0,0,0,.06A.13.13,0,0,1,7.68,19.38Z"/><path class="cls-260" d="M7.61,19.35l-.17,0L7,19.25c-.19,0-.42,0-.66-.06s-.5,0-.77,0c-.52,0-1,0-1.44,0l-.48,0-.18,0s0,0,0,0h0a4.52,4.52,0,0,1,.64-.12A6,6,0,0,1,4.76,19a7.18,7.18,0,0,1,.81,0,10.05,10.05,0,0,1,1.48.13,4.28,4.28,0,0,1,.46.1l.16.05s0,0,0,0A.1.1,0,0,1,7.61,19.35Z"/><path class="cls-261" d="M7.54,19.32l-.17,0-.44-.06c-.18,0-.4,0-.64-.06s-.48,0-.74,0a12.41,12.41,0,0,0-1.39,0l-.46,0-.18,0s0,0,0,0h0a5.52,5.52,0,0,1,.61-.11c.2,0,.42,0,.67-.06s.51,0,.77,0A9.33,9.33,0,0,1,7,19.12a3.9,3.9,0,0,1,.45.09l.16.05s0,0,0,0A.11.11,0,0,1,7.54,19.32Z"/><path class="cls-262" d="M7.46,19.28l-.16,0-.42-.05-.62-.05-.71,0c-.49,0-1,0-1.35,0l-.44,0-.17,0s0,0,0,0h0s.23-.05.59-.1L4.81,19c.24,0,.5,0,.75,0a10.29,10.29,0,0,1,1.38.11,4.28,4.28,0,0,1,.43.08l.15,0s0,0,0,0A.1.1,0,0,1,7.46,19.28Z"/><path class="cls-207" d="M9.43,21.23l-.27-.05a4.86,4.86,0,0,0-.68-.06c-.28,0-.61,0-1,0a8.8,8.8,0,0,0-1.11.13,10.42,10.42,0,0,0-2,.51c-.27.11-.49.19-.64.27l-.25.11s0,0,0,0,0,0,0,0a4.88,4.88,0,0,1,.82-.58,6.13,6.13,0,0,1,.92-.42,9.15,9.15,0,0,1,1.12-.31,7.39,7.39,0,0,1,2.18-.06,5.16,5.16,0,0,1,.72.17l.26.1a.13.13,0,0,1,.06.15A.11.11,0,0,1,9.43,21.23Z"/><path class="cls-237" d="M9.37,21.21l-.26-.05c-.16,0-.39,0-.67-.05a7.81,7.81,0,0,0-1,0,10.49,10.49,0,0,0-1.08.12,10.83,10.83,0,0,0-2,.51L3.78,22l-.24.11s0,0,0,0a0,0,0,0,1,0,0,4.64,4.64,0,0,1,.8-.56,5.16,5.16,0,0,1,.91-.41,8.83,8.83,0,0,1,1.1-.31,7.06,7.06,0,0,1,2.13-.06,4.82,4.82,0,0,1,.71.16l.25.1a.12.12,0,0,1,.07.15A.1.1,0,0,1,9.37,21.21Z"/><path class="cls-238" d="M9.31,21.19l-.26,0c-.16,0-.38,0-.66-.06s-.59,0-.93,0a10.3,10.3,0,0,0-1.07.12,10.48,10.48,0,0,0-1.94.5,5.3,5.3,0,0,0-.62.26l-.24.1s0,0,0,0a0,0,0,0,1,0,0,5.19,5.19,0,0,1,.79-.55,5.75,5.75,0,0,1,.89-.4,8.08,8.08,0,0,1,1.08-.29,6.81,6.81,0,0,1,2.09-.07,4.78,4.78,0,0,1,.69.16l.25.09a.12.12,0,0,1,.06.14A.09.09,0,0,1,9.31,21.19Z"/><path class="cls-239" d="M9.24,21.17l-.25,0c-.15,0-.37,0-.64-.05s-.58,0-.92,0a9.76,9.76,0,0,0-1,.12,9.45,9.45,0,0,0-1.91.49,6.15,6.15,0,0,0-.61.25l-.23.1s0,0,0,0a0,0,0,0,1,0,0,4.22,4.22,0,0,1,.77-.53,6.09,6.09,0,0,1,.88-.39,8.51,8.51,0,0,1,1-.29,6.89,6.89,0,0,1,2.05-.07,3.35,3.35,0,0,1,.68.15l.25.09a.12.12,0,0,1,.06.14A.1.1,0,0,1,9.24,21.17Z"/><path class="cls-240" d="M9.18,21.16l-.25,0a4.28,4.28,0,0,0-.62-.05c-.27,0-.57,0-.9,0a9.13,9.13,0,0,0-1,.12,9.86,9.86,0,0,0-1.88.48c-.24.09-.45.17-.59.24l-.23.1s0,0,0,0,0,0,0,0a4.71,4.71,0,0,1,.76-.52,6.46,6.46,0,0,1,.86-.38,9.63,9.63,0,0,1,1-.28,7,7,0,0,1,2-.07,4.78,4.78,0,0,1,.67.14l.23.09a.1.1,0,0,1,.06.13A.1.1,0,0,1,9.18,21.16Z"/><path class="cls-241" d="M9.12,21.14l-.24,0c-.15,0-.36,0-.62,0s-.56,0-.88,0a9.06,9.06,0,0,0-1,.12,10.37,10.37,0,0,0-1.83.46c-.24.1-.45.17-.59.24l-.22.1s0,0,0,0,0,0,0,0a4.33,4.33,0,0,1,.75-.5,5.55,5.55,0,0,1,.84-.37,9.25,9.25,0,0,1,1-.28,6.69,6.69,0,0,1,2-.07,4.61,4.61,0,0,1,.65.13l.23.09a.1.1,0,0,1,.06.12C9.2,21.12,9.16,21.15,9.12,21.14Z"/><path class="cls-242" d="M9.05,21.12l-.23,0c-.14,0-.35,0-.6,0s-.55,0-.86,0a8.45,8.45,0,0,0-1,.12,9.26,9.26,0,0,0-1.8.45c-.23.09-.44.16-.57.23l-.22.1s0,0,0,0,0,0,0,0a4.23,4.23,0,0,1,.72-.48,6.59,6.59,0,0,1,.83-.37,9.54,9.54,0,0,1,1-.26,6.39,6.39,0,0,1,1.92-.08,3.22,3.22,0,0,1,.64.13l.23.08a.1.1,0,0,1,.05.12A.08.08,0,0,1,9.05,21.12Z"/><path class="cls-243" d="M9,21.1l-.23,0c-.14,0-.34,0-.59,0s-.53,0-.84,0a8.39,8.39,0,0,0-1,.12,8.74,8.74,0,0,0-1.75.44l-.56.22-.22.1s0,0,0,0a0,0,0,0,1,0,0,4.83,4.83,0,0,1,.71-.47,6.82,6.82,0,0,1,.8-.35,7.4,7.4,0,0,1,1-.26,6.44,6.44,0,0,1,1.88-.08,3.24,3.24,0,0,1,.62.12l.22.08a.09.09,0,0,1,.06.11A.08.08,0,0,1,9,21.1Z"/><path class="cls-244" d="M8.93,21.09l-.23,0-.57,0a8.06,8.06,0,0,0-.82,0c-.31,0-.63.06-.94.11a10.2,10.2,0,0,0-1.72.44c-.23.08-.42.15-.55.21l-.21.09s0,0,0,0a0,0,0,0,1,0,0,3.69,3.69,0,0,1,.7-.45,4.79,4.79,0,0,1,.78-.34,7.11,7.11,0,0,1,1-.26,6.18,6.18,0,0,1,1.84-.08,4.11,4.11,0,0,1,.6.11l.22.08A.08.08,0,0,1,9,21,.09.09,0,0,1,8.93,21.09Z"/><path class="cls-245" d="M8.86,21.07l-.21,0a4.24,4.24,0,0,0-.57,0,7.68,7.68,0,0,0-.8,0c-.29,0-.61.06-.92.11a10,10,0,0,0-1.68.43,3.88,3.88,0,0,0-.53.21l-.21.08s0,0,0,0a0,0,0,0,1,0,0,4.32,4.32,0,0,1,.68-.44,6.35,6.35,0,0,1,.77-.33,8.41,8.41,0,0,1,.93-.25,6.65,6.65,0,0,1,1.8-.08,4.63,4.63,0,0,1,.6.1l.21.08A.08.08,0,0,1,9,21,.1.1,0,0,1,8.86,21.07Z"/><path class="cls-246" d="M8.8,21.05l-.21,0L8,21a7.5,7.5,0,0,0-.79,0c-.28,0-.59.06-.89.11a9.56,9.56,0,0,0-1.64.41c-.22.09-.41.15-.53.21l-.2.08s0,0,0,0a0,0,0,0,1,0,0,3.94,3.94,0,0,1,.67-.42,4.83,4.83,0,0,1,.75-.32,8.68,8.68,0,0,1,.91-.25,6.35,6.35,0,0,1,1.76-.08,3.11,3.11,0,0,1,.58.1l.2.06a.08.08,0,0,1,.05.11A.07.07,0,0,1,8.8,21.05Z"/><path class="cls-247" d="M8.74,21l-.21,0L8,21a7,7,0,0,0-.76,0c-.28,0-.58.06-.87.11a9.22,9.22,0,0,0-1.61.4c-.21.08-.39.14-.51.2l-.2.08s0,0,0,0a0,0,0,0,1,0,0,4.59,4.59,0,0,1,.66-.41,5.72,5.72,0,0,1,.73-.31,7.71,7.71,0,0,1,.89-.23A6.5,6.5,0,0,1,8,20.72a4.06,4.06,0,0,1,.57.1l.2.06a.08.08,0,0,1,0,.16Z"/><path class="cls-248" d="M8.68,21l-.21,0L8,21c-.22,0-.47,0-.75,0s-.56.06-.85.11a10,10,0,0,0-1.57.39l-.5.19-.19.08s0,0,0,0,0,0,0,0a4.49,4.49,0,0,1,.64-.4,6.27,6.27,0,0,1,.72-.3,7.37,7.37,0,0,1,.87-.23A6.6,6.6,0,0,1,8,20.72a3.92,3.92,0,0,1,.55.09l.2.06a.07.07,0,0,1,0,.1A.09.09,0,0,1,8.68,21Z"/><path class="cls-249" d="M8.61,21l-.2,0-.5,0c-.22,0-.47,0-.73,0a8.22,8.22,0,0,0-.83.11,8.54,8.54,0,0,0-1.53.38l-.49.18-.19.08s0,0,0,0,0,0,0,0a3.61,3.61,0,0,1,.63-.39,5.36,5.36,0,0,1,.7-.28,7.57,7.57,0,0,1,.85-.23,6.74,6.74,0,0,1,1.63-.1,3.81,3.81,0,0,1,.53.09l.19.05a.07.07,0,0,1,0,.09A.09.09,0,0,1,8.61,21Z"/><path class="cls-250" d="M8.55,21l-.19,0h-.5a6.32,6.32,0,0,0-.71,0c-.26,0-.53.06-.81.11a8.31,8.31,0,0,0-1.49.37c-.19.07-.36.12-.47.17l-.19.08h0a0,0,0,0,1,0,0,3.94,3.94,0,0,1,.61-.37A5.8,5.8,0,0,1,5.47,21c.26-.08.54-.15.83-.22a6.38,6.38,0,0,1,1.58-.1,2.6,2.6,0,0,1,.52.08l.19.05a.06.06,0,0,1,0,.09A.07.07,0,0,1,8.55,21Z"/><path class="cls-251" d="M8.49,21,8.3,21H7.82a5.87,5.87,0,0,0-.69,0,7.11,7.11,0,0,0-.79.1,9.58,9.58,0,0,0-1.45.36l-.47.18-.18.07s0,0,0,0a0,0,0,0,1,0,0,3.56,3.56,0,0,1,.6-.35A4.24,4.24,0,0,1,5.49,21a6.69,6.69,0,0,1,.8-.21,6.2,6.2,0,0,1,1.55-.11,4.2,4.2,0,0,1,.51.07l.18.05a.07.07,0,0,1,0,.08A.09.09,0,0,1,8.49,21Z"/><path class="cls-252" d="M8.42,21l-.18,0H7.77a5.67,5.67,0,0,0-.67,0,7.4,7.4,0,0,0-.77.1,11.16,11.16,0,0,0-1.41.35c-.19.07-.35.12-.45.17l-.18.07s0,0,0,0v0a4.28,4.28,0,0,1,.59-.34A6.26,6.26,0,0,1,5.51,21c.24-.08.51-.14.78-.2a6.35,6.35,0,0,1,1.51-.11,4.08,4.08,0,0,1,.49.06l.17,0a.05.05,0,0,1,0,.08A.09.09,0,0,1,8.42,21Z"/><path class="cls-253" d="M8.36,20.93H7.73c-.19,0-.42,0-.65.05a6.72,6.72,0,0,0-.75.1A9.28,9.28,0,0,0,5,21.4l-.44.16-.17.06h0s0,0,0,0a3.53,3.53,0,0,1,.56-.32A5,5,0,0,1,5.53,21c.24-.08.5-.14.76-.2a6,6,0,0,1,1.46-.11,3.88,3.88,0,0,1,.48.06l.17,0a.06.06,0,0,1,0,.07S8.39,20.93,8.36,20.93Z"/><path class="cls-254" d="M8.3,20.91H7.68c-.18,0-.4,0-.63.05a6.7,6.7,0,0,0-.73.1A8.9,8.9,0,0,0,5,21.38l-.43.15-.17.06s0,0,0,0,0,0,0,0a3.25,3.25,0,0,1,.55-.31c.18-.07.38-.17.62-.24s.48-.13.74-.19a6.72,6.72,0,0,1,1.42-.11,2.47,2.47,0,0,1,.46.05l.16,0s.06,0,0,.06A.06.06,0,0,1,8.3,20.91Z"/><path class="cls-255" d="M8.23,20.9H8.07a3,3,0,0,0-.43,0c-.18,0-.39,0-.62.05a6.2,6.2,0,0,0-.7.1,8.52,8.52,0,0,0-1.3.32l-.42.14-.15.06s0,0,0,0,0,0,0,0A3.47,3.47,0,0,1,5,21.25a4.46,4.46,0,0,1,.6-.23,6.88,6.88,0,0,1,.72-.18,5.81,5.81,0,0,1,1.37-.12,3.72,3.72,0,0,1,.45,0l.16,0s.05,0,0,.06A.1.1,0,0,1,8.23,20.9Z"/><path class="cls-256" d="M8.17,20.88H7.6c-.18,0-.38,0-.6.05a5.58,5.58,0,0,0-.68.1,9,9,0,0,0-1.26.3l-.41.14-.15.06h0s0,0,0,0A3.77,3.77,0,0,1,5,21.23,5,5,0,0,1,5.59,21a7.15,7.15,0,0,1,.7-.18,6,6,0,0,1,1.33-.12,4.34,4.34,0,0,1,.44,0l.15,0s0,0,0,.06A.07.07,0,0,1,8.17,20.88Z"/><path class="cls-257" d="M8.11,20.86H7.55L7,20.92a5.57,5.57,0,0,0-.66.1,9.18,9.18,0,0,0-1.22.29l-.39.14-.15.05h0s0,0,0,0A4.2,4.2,0,0,1,5,21.22,4.07,4.07,0,0,1,5.61,21l.67-.17a6.4,6.4,0,0,1,1.3-.12,2.34,2.34,0,0,1,.42,0l.14,0s0,0,0,.06A.08.08,0,0,1,8.11,20.86Z"/><path class="cls-258" d="M8.05,20.84H7.51L7,20.9l-.64.1a10.41,10.41,0,0,0-1.19.29l-.38.13-.14,0h0a0,0,0,0,1,0,0,4.55,4.55,0,0,1,.5-.25A5.73,5.73,0,0,1,5.63,21l.65-.17a7.81,7.81,0,0,1,1.25-.13,3.68,3.68,0,0,1,.41,0l.14,0s.05,0,0,0S8.07,20.85,8.05,20.84Z"/><path class="cls-259" d="M8,20.83H7.84l-.38,0-.54.05L6.3,21a9.52,9.52,0,0,0-1.14.28,3.25,3.25,0,0,0-.37.12l-.14.05s0,0,0,0,0,0,0,0a3.51,3.51,0,0,1,.48-.23A5.46,5.46,0,0,1,5.65,21c.19-.06.41-.11.63-.16a7.26,7.26,0,0,1,1.21-.13l.39,0,.14,0s0,0,0,.05A.08.08,0,0,1,8,20.83Z"/><path class="cls-260" d="M7.92,20.81H7.78l-.36,0-.52.05-.6.1a9.54,9.54,0,0,0-1.11.27l-.36.11-.13.05s0,0,0,0,0,0,0,0a3.16,3.16,0,0,1,.47-.21A4.28,4.28,0,0,1,5.66,21a6.23,6.23,0,0,1,.62-.15,6.83,6.83,0,0,1,1.17-.14h.37l.13,0s0,0,0,0A.07.07,0,0,1,7.92,20.81Z"/><path class="cls-261" d="M7.86,20.79H7.72l-.35,0-.5.05-.58.1c-.39.07-.78.17-1.07.25l-.34.11-.13.05h0s0,0,0,0a4.84,4.84,0,0,1,.45-.2l.5-.16a5.26,5.26,0,0,1,.6-.15,7.57,7.57,0,0,1,1.12-.14,1.93,1.93,0,0,1,.36,0h.13s0,0,0,0Z"/><path class="cls-262" d="M7.79,20.78H7.66l-.33,0-.48.06-.56.1c-.38.07-.75.16-1,.24l-.34.1-.12.05s0,0,0,0h0s.17-.08.44-.18L5.7,21l.58-.14a7,7,0,0,1,1.08-.14c.14,0,.26,0,.35,0h.12s0,0,0,0Z"/><path class="cls-207" d="M22.63,20.17l.32-.11a6.78,6.78,0,0,1,.83-.23A10.22,10.22,0,0,1,25,19.61a10.4,10.4,0,0,1,1.4-.13,14,14,0,0,1,2.65.08c.36.06.66.09.87.14l.33.07s0,0,0,0,0,0,0,0a6.31,6.31,0,0,0-1.17-.44A9.05,9.05,0,0,0,27.84,19a14.06,14.06,0,0,0-1.47-.07,9.84,9.84,0,0,0-2.71.47,5.27,5.27,0,0,0-.85.36l-.3.17a.13.13,0,0,0,0,.18A.13.13,0,0,0,22.63,20.17Z"/><path class="cls-237" d="M22.7,20.14,23,20c.19-.06.47-.14.82-.22s.75-.14,1.18-.21.91-.11,1.38-.13a15.27,15.27,0,0,1,2.6.08c.35.06.65.09.85.14l.33.06s0,0,0,0,0,0,0,0a6.22,6.22,0,0,0-1.14-.43A9.26,9.26,0,0,0,27.82,19,11.4,11.4,0,0,0,26.37,19a9.57,9.57,0,0,0-2.66.45,5.56,5.56,0,0,0-.83.34l-.29.17a.13.13,0,0,0,0,.18A.13.13,0,0,0,22.7,20.14Z"/><path class="cls-238" d="M22.78,20.11l.3-.12c.19-.06.46-.13.8-.21s.74-.14,1.16-.21.89-.1,1.36-.12a14.59,14.59,0,0,1,2.54.08c.35,0,.64.08.84.13l.32.06s0,0,0,0,0,0,0,0A5.6,5.6,0,0,0,29,19.24,10.48,10.48,0,0,0,27.79,19,13,13,0,0,0,26.38,19a10.09,10.09,0,0,0-2.62.43,6.4,6.4,0,0,0-.81.34l-.28.17a.12.12,0,0,0-.05.16A.13.13,0,0,0,22.78,20.11Z"/><path class="cls-239" d="M22.85,20.07l.3-.11c.18-.06.45-.13.78-.21s.72-.13,1.14-.2a11.18,11.18,0,0,1,1.33-.11,14.24,14.24,0,0,1,2.5.07c.33,0,.62.08.82.13l.31.06s0,0,0,0,0,0,0,0a5.45,5.45,0,0,0-1.1-.4A8.24,8.24,0,0,0,27.77,19,12.71,12.71,0,0,0,26.38,19a9.63,9.63,0,0,0-2.56.42,5.14,5.14,0,0,0-.8.33l-.28.16a.11.11,0,0,0,0,.16A.12.12,0,0,0,22.85,20.07Z"/><path class="cls-240" d="M22.92,20l.3-.11c.17-.06.44-.12.76-.2s.71-.13,1.12-.19.86-.1,1.3-.12a13.58,13.58,0,0,1,2.45.08,7,7,0,0,1,.8.12l.31.06s0,0,0,0,0,0,0,0a6,6,0,0,0-1.08-.39A8,8,0,0,0,27.74,19c-.43,0-.9-.06-1.36-.06a9.74,9.74,0,0,0-2.51.41,4.9,4.9,0,0,0-.78.32l-.27.15a.11.11,0,0,0,0,.16A.11.11,0,0,0,22.92,20Z"/><path class="cls-241" d="M23,20l.28-.1c.18-.06.44-.12.75-.19s.7-.13,1.1-.19a10.34,10.34,0,0,1,1.27-.11,13.1,13.1,0,0,1,2.4.07c.32.05.6.07.79.12l.3,0s0,0,0,0,0,0,0,0a5.38,5.38,0,0,0-1.06-.38A9,9,0,0,0,27.71,19,11.48,11.48,0,0,0,26.38,19a9,9,0,0,0-2.45.39,5,5,0,0,0-.77.3l-.27.15a.13.13,0,0,0,0,.16A.13.13,0,0,0,23,20Z"/><path class="cls-242" d="M23.07,20l.28-.1c.17-.05.42-.12.74-.19s.68-.12,1.07-.18.82-.09,1.25-.11a14.43,14.43,0,0,1,2.34.07c.32.05.59.08.77.12l.3.05s0,0,0,0,0,0,0,0a5.27,5.27,0,0,0-1-.36A8,8,0,0,0,27.69,19c-.41,0-.86-.05-1.3-.05a9.09,9.09,0,0,0-2.41.38,5.16,5.16,0,0,0-.75.29l-.26.15a.09.09,0,0,0,0,.14A.11.11,0,0,0,23.07,20Z"/><path class="cls-243" d="M23.14,19.93l.28-.09.72-.18c.3-.08.66-.12,1.05-.18s.8-.08,1.22-.1a13.81,13.81,0,0,1,2.29.07c.31,0,.58.07.76.11l.29.05s0,0,0,0,0,0,0,0a5.5,5.5,0,0,0-1-.35,9.11,9.11,0,0,0-1.1-.2c-.4,0-.84-.05-1.27-.05a9.2,9.2,0,0,0-2.36.37,4,4,0,0,0-.73.28l-.26.14a.09.09,0,0,0,0,.14A.11.11,0,0,0,23.14,19.93Z"/><path class="cls-244" d="M23.22,19.9l.27-.09.7-.18c.29-.07.65-.11,1-.16a11,11,0,0,1,1.19-.1,13.44,13.44,0,0,1,2.25.06c.3,0,.56.07.73.11l.29.05,0,0s0,0,0,0a6.23,6.23,0,0,0-1-.34A8.68,8.68,0,0,0,27.64,19c-.4,0-.82-.05-1.25-.05a9.28,9.28,0,0,0-2.3.35,4.73,4.73,0,0,0-.72.28l-.25.13a.1.1,0,0,0,0,.14A.12.12,0,0,0,23.22,19.9Z"/><path class="cls-245" d="M23.29,19.87l.26-.09c.16-.05.4-.11.69-.17s.64-.11,1-.16.77-.08,1.17-.1a13.85,13.85,0,0,1,2.2.07c.3,0,.55.06.72.1l.28.05a0,0,0,0,0,0,0,0,0,0,0,0,0,0,6.09,6.09,0,0,0-1-.32c-.3-.06-.66-.14-1.05-.18A12,12,0,0,0,26.39,19a9.44,9.44,0,0,0-2.25.34,3.67,3.67,0,0,0-.7.27l-.25.12a.1.1,0,0,0,0,.14A.12.12,0,0,0,23.29,19.87Z"/><path class="cls-246" d="M23.36,19.83l.26-.08c.16-.05.39-.1.67-.16s.62-.11,1-.16.75-.08,1.14-.09a13.31,13.31,0,0,1,2.15.06c.29,0,.54.06.71.1l.27,0s0,0,0,0a0,0,0,0,0,0,0,6,6,0,0,0-.95-.3,7.89,7.89,0,0,0-1-.18,11.63,11.63,0,0,0-1.19,0,8.53,8.53,0,0,0-2.2.32,4.61,4.61,0,0,0-.69.25l-.24.13a.08.08,0,0,0,0,.12A.11.11,0,0,0,23.36,19.83Z"/><path class="cls-247" d="M23.44,19.8l.25-.08c.15,0,.38-.1.65-.16s.61-.1,1-.15.74-.07,1.12-.08a12.69,12.69,0,0,1,2.09.05c.29,0,.53.06.69.1l.27,0s0,0,0,0,0,0,0,0a6,6,0,0,0-.92-.29,8,8,0,0,0-1-.17c-.37,0-.76,0-1.16,0a8.74,8.74,0,0,0-2.15.31,3.8,3.8,0,0,0-.67.24l-.23.12a.08.08,0,0,0,0,.12A.12.12,0,0,0,23.44,19.8Z"/><path class="cls-248" d="M23.51,19.76l.25-.07a4.41,4.41,0,0,1,.64-.15,9.28,9.28,0,0,1,.93-.14,9.61,9.61,0,0,1,1.09-.09,13.11,13.11,0,0,1,2,.06,6,6,0,0,1,.68.09l.25,0,0,0s0,0,0,0a5.57,5.57,0,0,0-.9-.28,7.54,7.54,0,0,0-1-.16c-.36,0-.75,0-1.14,0a9.46,9.46,0,0,0-2.1.3,3.91,3.91,0,0,0-.65.23l-.23.11a.08.08,0,0,0,0,.12A.11.11,0,0,0,23.51,19.76Z"/><path class="cls-249" d="M23.58,19.73l.24-.08.63-.14c.26-.05.58-.09.91-.13s.7-.07,1.06-.08a14.08,14.08,0,0,1,2,.05,5.35,5.35,0,0,1,.65.09l.25,0a.05.05,0,0,0,0,0s0,0,0,0a6,6,0,0,0-.88-.27,7.16,7.16,0,0,0-.95-.14A10,10,0,0,0,26.4,19a8.93,8.93,0,0,0-2,.29,3.86,3.86,0,0,0-.64.22l-.22.1a.08.08,0,0,0,0,.11A.11.11,0,0,0,23.58,19.73Z"/><path class="cls-250" d="M23.66,19.69l.23-.07.61-.13c.25,0,.56-.09.89-.13s.68-.06,1-.07a13.49,13.49,0,0,1,1.95,0l.64.09.24,0s0,0,0,0,0,0,0,0a5.93,5.93,0,0,0-.86-.25,5.59,5.59,0,0,0-.92-.14A9.54,9.54,0,0,0,26.41,19a9.88,9.88,0,0,0-2,.27c-.26.07-.47.16-.62.21l-.22.11s-.06.07,0,.1A.1.1,0,0,0,23.66,19.69Z"/><path class="cls-251" d="M23.73,19.66l.23-.07c.14,0,.34-.08.59-.12s.55-.08.87-.13.66-.06,1-.07a14.06,14.06,0,0,1,1.89.05c.26,0,.48.05.62.08l.24,0h0s0,0,0,0a5.51,5.51,0,0,0-.83-.24,6.85,6.85,0,0,0-.91-.13,9,9,0,0,0-1.05,0,8.72,8.72,0,0,0-1.94.25,4.84,4.84,0,0,0-.61.2l-.21.1a.06.06,0,0,0,0,.1A.11.11,0,0,0,23.73,19.66Z"/><path class="cls-252" d="M23.8,19.62l.22-.06.58-.12c.25-.05.54-.07.85-.11s.64-.06,1-.07a13.45,13.45,0,0,1,1.84,0c.25,0,.47.05.61.08l.23,0s0,0,0,0a0,0,0,0,0,0,0,6.1,6.1,0,0,0-.81-.23c-.26,0-.56-.1-.88-.12s-.68,0-1,0a9,9,0,0,0-1.89.24,5.21,5.21,0,0,0-.59.19l-.21.09a.07.07,0,0,0,0,.1A.09.09,0,0,0,23.8,19.62Z"/><path class="cls-253" d="M23.88,19.59l.21-.06.56-.11c.24-.05.52-.07.83-.11s.62-.06.95-.07a12.76,12.76,0,0,1,1.8.05,5.34,5.34,0,0,1,.59.07l.22,0s0,0,0,0a0,0,0,0,0,0,0,6,6,0,0,0-.79-.21,6.37,6.37,0,0,0-.86-.12c-.31,0-.65,0-1,0a8.72,8.72,0,0,0-1.85.23,5,5,0,0,0-.57.18l-.2.08s-.06.06,0,.09A.11.11,0,0,0,23.88,19.59Z"/><path class="cls-254" d="M24,19.56l.21-.06.55-.11c.23,0,.5-.06.79-.1s.61-.05.93-.06a13.82,13.82,0,0,1,1.75,0c.23,0,.44,0,.57.07l.22,0,0,0s0,0,0,0a5,5,0,0,0-.77-.2,8,8,0,0,0-.83-.11c-.31,0-.64,0-1,0a8.83,8.83,0,0,0-1.79.22,3.51,3.51,0,0,0-.56.17l-.2.08a0,0,0,0,0,0,.08A.09.09,0,0,0,24,19.56Z"/><path class="cls-255" d="M24,19.52l.21-.05.53-.1c.22,0,.49-.06.77-.1s.6-.05.9-.05a15.28,15.28,0,0,1,1.7,0c.23,0,.43,0,.56.07l.21,0a0,0,0,0,0,0,0v0a6.17,6.17,0,0,0-.75-.19,5.78,5.78,0,0,0-.81-.1c-.3,0-.62,0-.94,0a9.2,9.2,0,0,0-1.74.21c-.23,0-.41.11-.54.15l-.19.08s-.05,0,0,.08A.12.12,0,0,0,24,19.52Z"/><path class="cls-256" d="M24.1,19.49l.19,0,.52-.09c.22,0,.48-.06.75-.09s.58-.05.88-.06a14.11,14.11,0,0,1,1.64,0,4.88,4.88,0,0,1,.54.06l.21,0h0s0,0,0,0a7.33,7.33,0,0,0-.73-.18,7.67,7.67,0,0,0-.78-.09,9.12,9.12,0,0,0-.92,0,8,8,0,0,0-1.68.19,3.5,3.5,0,0,0-.53.14l-.18.07s-.05.05,0,.08A.11.11,0,0,0,24.1,19.49Z"/><path class="cls-257" d="M24.17,19.45l.19,0,.5-.09.73-.08c.27,0,.56,0,.85,0a15.89,15.89,0,0,1,1.59,0l.53.05.2,0h0l0,0a4.53,4.53,0,0,0-.7-.16,5.29,5.29,0,0,0-.76-.09,8.43,8.43,0,0,0-.88,0,9.2,9.2,0,0,0-1.64.17c-.22.05-.39.1-.51.14l-.18.07s-.05,0,0,.06A.1.1,0,0,0,24.17,19.45Z"/><path class="cls-258" d="M24.24,19.42l.19,0c.11,0,.28-.05.48-.08l.71-.08c.26,0,.54,0,.82,0a11,11,0,0,1,1.55,0l.5,0,.2,0h0s0,0,0,0A5.21,5.21,0,0,0,28,19.1a6.79,6.79,0,0,0-.73-.08c-.28,0-.57,0-.86,0a9.78,9.78,0,0,0-1.59.16,3.65,3.65,0,0,0-.49.13l-.17.06s-.05,0,0,.06A.1.1,0,0,0,24.24,19.42Z"/><path class="cls-259" d="M24.32,19.38l.18,0,.47-.08c.19,0,.43,0,.68-.07l.79,0a14.15,14.15,0,0,1,1.5,0l.49,0,.19,0a0,0,0,0,0,0,0s0,0,0,0-.25-.07-.66-.14a6.31,6.31,0,0,0-.71-.07c-.26,0-.55,0-.83,0a10.27,10.27,0,0,0-1.53.15l-.48.11-.17.06s0,0,0,.06A.13.13,0,0,0,24.32,19.38Z"/><path class="cls-260" d="M24.39,19.35l.17,0,.46-.07c.19,0,.42,0,.66-.06s.5,0,.77,0c.52,0,1.05,0,1.44,0l.48,0,.18,0s0,0,0,0h0a4.52,4.52,0,0,0-.64-.12,6,6,0,0,0-.68-.07,7.18,7.18,0,0,0-.81,0,10.05,10.05,0,0,0-1.48.13,4.28,4.28,0,0,0-.46.1l-.16.05s0,0,0,0A.1.1,0,0,0,24.39,19.35Z"/><path class="cls-261" d="M24.46,19.32l.17,0,.44-.06c.18,0,.4,0,.64-.06s.48,0,.74,0a12.41,12.41,0,0,1,1.39,0l.46,0,.18,0s0,0,0,0h0a5.52,5.52,0,0,0-.61-.11c-.2,0-.42,0-.67-.06s-.51,0-.77,0a9.33,9.33,0,0,0-1.43.12,3.9,3.9,0,0,0-.45.09l-.16.05s0,0,0,0A.11.11,0,0,0,24.46,19.32Z"/><path class="cls-262" d="M24.54,19.28l.16,0,.42-.05.62-.05.71,0c.49,0,1,0,1.35,0l.44,0,.17,0s0,0,0,0h0s-.23-.05-.59-.1L27.19,19c-.24,0-.5,0-.75,0a10.29,10.29,0,0,0-1.38.11,4.28,4.28,0,0,0-.43.08l-.15,0s0,0,0,0A.1.1,0,0,0,24.54,19.28Z"/><path class="cls-207" d="M22.57,21.23l.27-.05a4.86,4.86,0,0,1,.68-.06c.28,0,.61,0,1,0a8.8,8.8,0,0,1,1.11.13,10.42,10.42,0,0,1,2,.51c.27.11.49.19.64.27l.25.11s0,0,0,0,0,0,0,0a4.88,4.88,0,0,0-.82-.58,6.13,6.13,0,0,0-.92-.42,9.15,9.15,0,0,0-1.12-.31,7.39,7.39,0,0,0-2.18-.06,5.16,5.16,0,0,0-.72.17l-.26.1a.13.13,0,0,0-.06.15A.11.11,0,0,0,22.57,21.23Z"/><path class="cls-237" d="M22.63,21.21l.26-.05c.16,0,.39,0,.67-.05a7.81,7.81,0,0,1,1,0,10.49,10.49,0,0,1,1.08.12,10.83,10.83,0,0,1,2,.51l.63.26.24.11s0,0,0,0a0,0,0,0,0,0,0,4.64,4.64,0,0,0-.8-.56,5.16,5.16,0,0,0-.91-.41,8.83,8.83,0,0,0-1.1-.31,7.06,7.06,0,0,0-2.13-.06,4.82,4.82,0,0,0-.71.16l-.25.1a.12.12,0,0,0-.07.15A.1.1,0,0,0,22.63,21.21Z"/><path class="cls-238" d="M22.69,21.19l.26,0c.16,0,.38,0,.66-.06s.59,0,.93,0a10.3,10.3,0,0,1,1.07.12,10.48,10.48,0,0,1,1.94.5,5.3,5.3,0,0,1,.62.26l.24.1s0,0,0,0a0,0,0,0,0,0,0,5.19,5.19,0,0,0-.79-.55,5.75,5.75,0,0,0-.89-.4,8.08,8.08,0,0,0-1.08-.29,6.81,6.81,0,0,0-2.09-.07,4.78,4.78,0,0,0-.69.16l-.25.09a.12.12,0,0,0-.06.14A.09.09,0,0,0,22.69,21.19Z"/><path class="cls-239" d="M22.76,21.17l.25,0c.15,0,.37,0,.64-.05s.58,0,.92,0a9.76,9.76,0,0,1,1,.12,9.45,9.45,0,0,1,1.91.49,6.15,6.15,0,0,1,.61.25l.23.1s0,0,0,0a0,0,0,0,0,0,0,4.22,4.22,0,0,0-.77-.53,6.09,6.09,0,0,0-.88-.39,8.51,8.51,0,0,0-1-.29,6.89,6.89,0,0,0-2.05-.07,3.35,3.35,0,0,0-.68.15l-.25.09a.12.12,0,0,0-.06.14A.1.1,0,0,0,22.76,21.17Z"/><path class="cls-240" d="M22.82,21.16l.25,0a4.28,4.28,0,0,1,.62-.05c.27,0,.57,0,.9,0a9.13,9.13,0,0,1,1,.12,9.86,9.86,0,0,1,1.88.48c.24.09.45.17.59.24l.23.1s0,0,0,0,0,0,0,0a4.71,4.71,0,0,0-.76-.52,6.46,6.46,0,0,0-.86-.38,9.63,9.63,0,0,0-1-.28,7,7,0,0,0-2-.07,4.78,4.78,0,0,0-.67.14l-.23.09a.1.1,0,0,0-.06.13A.1.1,0,0,0,22.82,21.16Z"/><path class="cls-241" d="M22.88,21.14l.24,0c.15,0,.36,0,.62,0s.56,0,.88,0a9.06,9.06,0,0,1,1,.12,10.37,10.37,0,0,1,1.83.46c.24.1.45.17.59.24l.22.1s0,0,0,0,0,0,0,0a4.33,4.33,0,0,0-.75-.5,5.55,5.55,0,0,0-.84-.37,9.25,9.25,0,0,0-1-.28,6.69,6.69,0,0,0-2-.07,4.61,4.61,0,0,0-.65.13l-.23.09a.1.1,0,0,0-.06.12C22.8,21.12,22.84,21.15,22.88,21.14Z"/><path class="cls-242" d="M23,21.12l.23,0c.14,0,.35,0,.6,0s.55,0,.86,0a8.45,8.45,0,0,1,1,.12,9.26,9.26,0,0,1,1.8.45c.23.09.44.16.57.23l.22.1s0,0,0,0,0,0,0,0a4.23,4.23,0,0,0-.72-.48,6.59,6.59,0,0,0-.83-.37,9.54,9.54,0,0,0-1-.26,6.39,6.39,0,0,0-1.92-.08,3.22,3.22,0,0,0-.64.13l-.23.08a.1.1,0,0,0,0,.12A.08.08,0,0,0,23,21.12Z"/><path class="cls-243" d="M23,21.1l.23,0c.14,0,.34,0,.59,0s.53,0,.84,0a8.39,8.39,0,0,1,1,.12,8.74,8.74,0,0,1,1.75.44l.56.22.22.1s0,0,0,0a0,0,0,0,0,0,0,4.83,4.83,0,0,0-.71-.47,6.82,6.82,0,0,0-.8-.35,7.4,7.4,0,0,0-1-.26,6.44,6.44,0,0,0-1.88-.08,3.24,3.24,0,0,0-.62.12l-.22.08a.09.09,0,0,0-.06.11A.08.08,0,0,0,23,21.1Z"/><path class="cls-244" d="M23.07,21.09l.23,0,.57,0a8.06,8.06,0,0,1,.82,0c.31,0,.63.06.94.11a10.2,10.2,0,0,1,1.72.44c.23.08.42.15.55.21l.21.09s0,0,0,0a0,0,0,0,0,0,0,3.69,3.69,0,0,0-.7-.45,4.79,4.79,0,0,0-.78-.34,7.11,7.11,0,0,0-1-.26,6.18,6.18,0,0,0-1.84-.08,4.11,4.11,0,0,0-.6.11l-.22.08A.08.08,0,0,0,23,21,.09.09,0,0,0,23.07,21.09Z"/><path class="cls-245" d="M23.14,21.07l.21,0a4.24,4.24,0,0,1,.57,0,7.68,7.68,0,0,1,.8,0c.29,0,.61.06.92.11a10,10,0,0,1,1.68.43,3.88,3.88,0,0,1,.53.21l.21.08s0,0,0,0a0,0,0,0,0,0,0,4.32,4.32,0,0,0-.68-.44,6.35,6.35,0,0,0-.77-.33,8.41,8.41,0,0,0-.93-.25,6.65,6.65,0,0,0-1.8-.08,4.63,4.63,0,0,0-.6.1l-.21.08A.08.08,0,0,0,23,21,.1.1,0,0,0,23.14,21.07Z"/><path class="cls-246" d="M23.2,21.05l.21,0L24,21a7.5,7.5,0,0,1,.79,0c.28,0,.59.06.89.11a9.56,9.56,0,0,1,1.64.41c.22.09.41.15.53.21l.2.08s0,0,0,0a0,0,0,0,0,0,0,3.94,3.94,0,0,0-.67-.42,4.83,4.83,0,0,0-.75-.32,8.68,8.68,0,0,0-.91-.25,6.35,6.35,0,0,0-1.76-.08,3.11,3.11,0,0,0-.58.1l-.2.06a.08.08,0,0,0-.05.11A.07.07,0,0,0,23.2,21.05Z"/><path class="cls-247" d="M23.26,21l.21,0L24,21a7,7,0,0,1,.76,0c.28,0,.58.06.87.11a9.22,9.22,0,0,1,1.61.4c.21.08.39.14.51.2l.2.08s0,0,0,0a0,0,0,0,0,0,0,4.59,4.59,0,0,0-.66-.41,5.72,5.72,0,0,0-.73-.31,7.71,7.71,0,0,0-.89-.23,6.5,6.5,0,0,0-1.71-.1,4.06,4.06,0,0,0-.57.1l-.2.06a.08.08,0,0,0,0,.16Z"/><path class="cls-248" d="M23.32,21l.21,0,.52,0c.22,0,.47,0,.75,0s.56.06.85.11a10,10,0,0,1,1.57.39l.5.19.19.08s0,0,0,0,0,0,0,0a4.49,4.49,0,0,0-.64-.4,6.27,6.27,0,0,0-.72-.3,7.37,7.37,0,0,0-.87-.23,6.6,6.6,0,0,0-1.67-.1,3.92,3.92,0,0,0-.55.09l-.2.06a.07.07,0,0,0,0,.1A.09.09,0,0,0,23.32,21Z"/><path class="cls-249" d="M23.39,21l.2,0,.5,0c.22,0,.47,0,.73,0a8.22,8.22,0,0,1,.83.11,8.54,8.54,0,0,1,1.53.38l.49.18.19.08s0,0,0,0,0,0,0,0a3.61,3.61,0,0,0-.63-.39,5.36,5.36,0,0,0-.7-.28,7.57,7.57,0,0,0-.85-.23,6.74,6.74,0,0,0-1.63-.1,3.81,3.81,0,0,0-.53.09l-.19.05a.07.07,0,0,0-.05.09A.09.09,0,0,0,23.39,21Z"/><path class="cls-250" d="M23.45,21l.19,0h.5a6.32,6.32,0,0,1,.71,0c.26,0,.53.06.81.11a8.31,8.31,0,0,1,1.49.37c.19.07.36.12.47.17l.19.08h0a0,0,0,0,0,0,0,3.94,3.94,0,0,0-.61-.37,5.8,5.8,0,0,0-.69-.28c-.26-.08-.54-.15-.83-.22a6.38,6.38,0,0,0-1.58-.1,2.6,2.6,0,0,0-.52.08l-.19.05a.06.06,0,0,0,0,.09A.07.07,0,0,0,23.45,21Z"/><path class="cls-251" d="M23.51,21l.19,0h.48a5.87,5.87,0,0,1,.69,0,7.11,7.11,0,0,1,.79.1,9.58,9.58,0,0,1,1.45.36l.47.18.18.07s0,0,0,0a0,0,0,0,0,0,0,3.56,3.56,0,0,0-.6-.35,4.24,4.24,0,0,0-.67-.27,6.69,6.69,0,0,0-.8-.21,6.2,6.2,0,0,0-1.55-.11,4.2,4.2,0,0,0-.51.07l-.18.05a.07.07,0,0,0,0,.08A.09.09,0,0,0,23.51,21Z"/><path class="cls-252" d="M23.58,21l.18,0h.47a5.67,5.67,0,0,1,.67,0,7.4,7.4,0,0,1,.77.1,11.16,11.16,0,0,1,1.41.35c.19.07.35.12.45.17l.18.07s0,0,0,0v0a4.28,4.28,0,0,0-.59-.34,6.26,6.26,0,0,0-.65-.26c-.24-.08-.51-.14-.78-.2a6.35,6.35,0,0,0-1.51-.11,4.08,4.08,0,0,0-.49.06l-.17,0a.05.05,0,0,0,0,.08A.09.09,0,0,0,23.58,21Z"/><path class="cls-253" d="M23.64,20.93h.63c.19,0,.42,0,.65.05a6.72,6.72,0,0,1,.75.1,9.28,9.28,0,0,1,1.38.34l.44.16.17.06h0s0,0,0,0a3.53,3.53,0,0,0-.56-.32,5,5,0,0,0-.64-.25c-.24-.08-.5-.14-.76-.2a6,6,0,0,0-1.46-.11,3.88,3.88,0,0,0-.48.06l-.17,0a.06.06,0,0,0,0,.07S23.61,20.93,23.64,20.93Z"/><path class="cls-254" d="M23.7,20.91h.62c.18,0,.4,0,.63.05a6.7,6.7,0,0,1,.73.1,8.9,8.9,0,0,1,1.33.33l.43.15.17.06s0,0,0,0,0,0,0,0a3.25,3.25,0,0,0-.55-.31c-.18-.07-.38-.17-.62-.24s-.48-.13-.74-.19a6.72,6.72,0,0,0-1.42-.11,2.47,2.47,0,0,0-.46.05l-.16,0s-.06,0,0,.06A.06.06,0,0,0,23.7,20.91Z"/><path class="cls-255" d="M23.77,20.9h.16a3,3,0,0,1,.43,0c.18,0,.39,0,.62.05a6.2,6.2,0,0,1,.7.1,8.52,8.52,0,0,1,1.3.32l.42.14.15.06s0,0,0,0,0,0,0,0a3.47,3.47,0,0,0-.54-.29,4.46,4.46,0,0,0-.6-.23,6.88,6.88,0,0,0-.72-.18,5.81,5.81,0,0,0-1.37-.12,3.72,3.72,0,0,0-.45,0l-.16,0s-.05,0,0,.06A.1.1,0,0,0,23.77,20.9Z"/><path class="cls-256" d="M23.83,20.88h.57c.18,0,.38,0,.6.05a5.58,5.58,0,0,1,.68.1,9,9,0,0,1,1.26.3l.41.14.15.06h0s0,0,0,0a3.77,3.77,0,0,0-.52-.28,5,5,0,0,0-.59-.21,7.15,7.15,0,0,0-.7-.18,6,6,0,0,0-1.33-.12,4.34,4.34,0,0,0-.44,0l-.15,0s-.05,0,0,.06A.07.07,0,0,0,23.83,20.88Z"/><path class="cls-257" d="M23.89,20.86h.56l.58.06a5.57,5.57,0,0,1,.66.1,9.18,9.18,0,0,1,1.22.29l.39.14.15.05h0s0,0,0,0a4.2,4.2,0,0,0-.51-.26,4.07,4.07,0,0,0-.57-.21l-.67-.17a6.4,6.4,0,0,0-1.3-.12,2.34,2.34,0,0,0-.42,0l-.14,0s-.05,0,0,.06A.08.08,0,0,0,23.89,20.86Z"/><path class="cls-258" d="M24,20.84h.54l.56,0,.64.1a10.41,10.41,0,0,1,1.19.29l.38.13.14,0h0a0,0,0,0,0,0,0,4.55,4.55,0,0,0-.5-.25,5.73,5.73,0,0,0-.55-.19l-.65-.17a7.81,7.81,0,0,0-1.25-.13,3.68,3.68,0,0,0-.41,0l-.14,0s-.05,0,0,0S23.93,20.85,24,20.84Z"/><path class="cls-259" d="M24,20.83h.14l.38,0,.54.05.62.1a9.52,9.52,0,0,1,1.14.28,3.25,3.25,0,0,1,.37.12l.14.05s0,0,0,0,0,0,0,0a3.51,3.51,0,0,0-.48-.23,5.46,5.46,0,0,0-.54-.19c-.19-.06-.41-.11-.63-.16a7.26,7.26,0,0,0-1.21-.13l-.39,0-.14,0s0,0,0,.05A.08.08,0,0,0,24,20.83Z"/><path class="cls-260" d="M24.08,20.81h.14l.36,0,.52.05.6.1a9.54,9.54,0,0,1,1.11.27l.36.11.13.05s0,0,0,0,0,0,0,0a3.16,3.16,0,0,0-.47-.21,4.28,4.28,0,0,0-.51-.18,6.23,6.23,0,0,0-.62-.15,6.83,6.83,0,0,0-1.17-.14h-.37l-.13,0s-.05,0,0,0A.07.07,0,0,0,24.08,20.81Z"/><path class="cls-261" d="M24.14,20.79h.14l.35,0,.5.05.58.1c.39.07.78.17,1.07.25l.34.11.13.05h0s0,0,0,0a4.84,4.84,0,0,0-.45-.2l-.5-.16a5.26,5.26,0,0,0-.6-.15,7.57,7.57,0,0,0-1.12-.14,1.93,1.93,0,0,0-.36,0h-.13s0,0,0,0Z"/><path class="cls-262" d="M24.21,20.78h.13l.33,0,.48.06.56.1c.38.07.75.16,1,.24l.34.1.12.05s0,0,0,0h0s-.17-.08-.44-.18L26.3,21l-.58-.14a7,7,0,0,0-1.08-.14c-.14,0-.26,0-.35,0h-.12s0,0,0,0Z"/><ellipse class="cls-263" cx="10.78" cy="15.45" rx="2.93" ry="3.69"/><ellipse class="cls-207" cx="10.78" cy="16.09" rx="0.95" ry="1.09"/><ellipse class="cls-207" cx="10.78" cy="16.01" rx="0.56" ry="0.77"/><ellipse class="cls-238" cx="10.78" cy="16.01" rx="0.54" ry="0.75"/><ellipse class="cls-240" cx="10.78" cy="16.01" rx="0.53" ry="0.73"/><ellipse class="cls-242" cx="10.78" cy="16.01" rx="0.52" ry="0.71"/><ellipse class="cls-244" cx="10.78" cy="16.01" rx="0.5" ry="0.69"/><ellipse class="cls-246" cx="10.78" cy="16.01" rx="0.49" ry="0.67"/><ellipse class="cls-248" cx="10.78" cy="16.01" rx="0.47" ry="0.65"/><ellipse class="cls-250" cx="10.78" cy="16.01" rx="0.46" ry="0.63"/><ellipse class="cls-252" cx="10.78" cy="16.01" rx="0.44" ry="0.61"/><ellipse class="cls-254" cx="10.78" cy="16.01" rx="0.43" ry="0.59"/><ellipse class="cls-256" cx="10.78" cy="16.01" rx="0.41" ry="0.57"/><ellipse class="cls-258" cx="10.78" cy="16.01" rx="0.4" ry="0.55"/><ellipse class="cls-260" cx="10.78" cy="16.01" rx="0.38" ry="0.53"/><ellipse class="cls-262" cx="10.78" cy="16.01" rx="0.37" ry="0.51"/><ellipse class="cls-264" cx="10.78" cy="15.68" rx="0.37" ry="0.35"/><ellipse class="cls-265" cx="10.78" cy="15.68" rx="0.35" ry="0.33"/><ellipse class="cls-266" cx="10.78" cy="15.68" rx="0.33" ry="0.31"/><ellipse class="cls-267" cx="10.78" cy="15.68" rx="0.31" ry="0.3"/><ellipse class="cls-268" cx="10.78" cy="15.68" rx="0.3" ry="0.28"/><ellipse class="cls-269" cx="10.78" cy="15.68" rx="0.28" ry="0.26"/><ellipse class="cls-270" cx="10.78" cy="15.68" rx="0.26" ry="0.25"/><ellipse class="cls-271" cx="10.78" cy="15.68" rx="0.24" ry="0.23"/><ellipse class="cls-272" cx="21.23" cy="15.45" rx="2.93" ry="3.69"/><ellipse class="cls-207" cx="21.23" cy="16.09" rx="0.95" ry="1.09"/><ellipse class="cls-207" cx="21.23" cy="16.01" rx="0.56" ry="0.77"/><ellipse class="cls-238" cx="21.23" cy="16.01" rx="0.54" ry="0.75"/><ellipse class="cls-240" cx="21.23" cy="16.01" rx="0.53" ry="0.73"/><ellipse class="cls-242" cx="21.23" cy="16.01" rx="0.52" ry="0.71"/><ellipse class="cls-244" cx="21.23" cy="16.01" rx="0.5" ry="0.69"/><ellipse class="cls-246" cx="21.23" cy="16.01" rx="0.49" ry="0.67"/><ellipse class="cls-248" cx="21.23" cy="16.01" rx="0.47" ry="0.65"/><ellipse class="cls-250" cx="21.23" cy="16.01" rx="0.46" ry="0.63"/><ellipse class="cls-252" cx="21.23" cy="16.01" rx="0.44" ry="0.61"/><ellipse class="cls-254" cx="21.23" cy="16.01" rx="0.43" ry="0.59"/><ellipse class="cls-256" cx="21.23" cy="16.01" rx="0.41" ry="0.57"/><ellipse class="cls-258" cx="21.23" cy="16.01" rx="0.4" ry="0.55"/><ellipse class="cls-260" cx="21.23" cy="16.01" rx="0.38" ry="0.53"/><ellipse class="cls-262" cx="21.23" cy="16.01" rx="0.37" ry="0.51"/><ellipse class="cls-264" cx="21.23" cy="15.68" rx="0.37" ry="0.35"/><ellipse class="cls-265" cx="21.23" cy="15.68" rx="0.35" ry="0.33"/><ellipse class="cls-266" cx="21.23" cy="15.68" rx="0.33" ry="0.31"/><ellipse class="cls-267" cx="21.23" cy="15.68" rx="0.31" ry="0.3"/><ellipse class="cls-268" cx="21.23" cy="15.68" rx="0.3" ry="0.28"/><ellipse class="cls-269" cx="21.23" cy="15.68" rx="0.28" ry="0.26"/><ellipse class="cls-270" cx="21.23" cy="15.68" rx="0.26" ry="0.25"/><ellipse class="cls-271" cx="21.23" cy="15.68" rx="0.24" ry="0.23"/><g class="cls-273"><path class="cls-274" d="M8.55,11.79a2.87,2.87,0,0,1,3.79-1.43"/><path class="cls-275" d="M8.55,11.79a2.87,2.87,0,0,1,3.79-1.43"/><path class="cls-276" d="M8.55,11.79a2.87,2.87,0,0,1,3.79-1.43"/><path class="cls-277" d="M8.55,11.79a2.87,2.87,0,0,1,3.79-1.43"/><path class="cls-278" d="M8.55,11.79a2.87,2.87,0,0,1,3.79-1.43"/><path class="cls-279" d="M8.55,11.79a2.87,2.87,0,0,1,3.79-1.43"/><path class="cls-280" d="M8.55,11.79a2.87,2.87,0,0,1,3.79-1.43"/><path class="cls-281" d="M8.55,11.79a2.87,2.87,0,0,1,3.79-1.43"/><path class="cls-282" d="M8.55,11.79a2.87,2.87,0,0,1,3.79-1.43"/><path class="cls-283" d="M8.55,11.79a2.87,2.87,0,0,1,3.79-1.43"/><path class="cls-284" d="M8.55,11.79a2.87,2.87,0,0,1,3.79-1.43"/><path class="cls-285" d="M8.55,11.79a2.87,2.87,0,0,1,3.79-1.43"/><path class="cls-286" d="M8.55,11.79a2.87,2.87,0,0,1,3.79-1.43"/><path class="cls-287" d="M8.55,11.79a2.87,2.87,0,0,1,3.79-1.43"/><path class="cls-288" d="M8.55,11.79a2.87,2.87,0,0,1,3.79-1.43"/><path class="cls-289" d="M8.55,11.79a2.87,2.87,0,0,1,3.79-1.43"/><path class="cls-290" d="M8.55,11.79a2.87,2.87,0,0,1,3.79-1.43"/><path class="cls-291" d="M8.55,11.79a2.87,2.87,0,0,1,3.79-1.43"/><path class="cls-292" d="M8.55,11.79a2.87,2.87,0,0,1,3.79-1.43"/><path class="cls-293" d="M8.55,11.79a2.87,2.87,0,0,1,3.79-1.43"/><path class="cls-294" d="M8.55,11.79a2.87,2.87,0,0,1,3.79-1.43"/><path class="cls-295" d="M8.55,11.79a2.87,2.87,0,0,1,3.79-1.43"/></g><path class="cls-296" d="M8.46,11.56a2.88,2.88,0,0,1,3.8-1.43"/><path class="cls-297" d="M8.46,11.56a2.88,2.88,0,0,1,3.8-1.43"/><path class="cls-298" d="M8.46,11.56a2.88,2.88,0,0,1,3.8-1.43"/><path class="cls-299" d="M8.46,11.56a2.88,2.88,0,0,1,3.8-1.43"/><path class="cls-300" d="M8.46,11.56a2.88,2.88,0,0,1,3.8-1.43"/><path class="cls-301" d="M8.46,11.56a2.88,2.88,0,0,1,3.8-1.43"/><path class="cls-302" d="M8.46,11.56a2.88,2.88,0,0,1,3.8-1.43"/><path class="cls-303" d="M8.46,11.56a2.88,2.88,0,0,1,3.8-1.43"/><path class="cls-304" d="M8.46,11.56a2.88,2.88,0,0,1,3.8-1.43"/><path class="cls-305" d="M8.46,11.56a2.88,2.88,0,0,1,3.8-1.43"/><path class="cls-306" d="M8.46,11.56a2.88,2.88,0,0,1,3.8-1.43"/><path class="cls-307" d="M8.46,11.56a2.88,2.88,0,0,1,3.8-1.43"/><path class="cls-308" d="M8.46,11.56a2.88,2.88,0,0,1,3.8-1.43"/><path class="cls-309" d="M8.46,11.56a2.88,2.88,0,0,1,3.8-1.43"/><path class="cls-310" d="M8.46,11.56a2.88,2.88,0,0,1,3.8-1.43"/><path class="cls-311" d="M8.46,11.56a2.88,2.88,0,0,1,3.8-1.43"/><path class="cls-312" d="M8.46,11.56a2.88,2.88,0,0,1,3.8-1.43"/><path class="cls-313" d="M8.46,11.56a2.88,2.88,0,0,1,3.8-1.43"/><path class="cls-314" d="M8.46,11.56a2.88,2.88,0,0,1,3.8-1.43"/><path class="cls-315" d="M8.46,11.56a2.88,2.88,0,0,1,3.8-1.43"/><path class="cls-316" d="M8.46,11.56a2.88,2.88,0,0,1,3.8-1.43"/><path class="cls-317" d="M8.46,11.56a2.88,2.88,0,0,1,3.8-1.43"/><g class="cls-273"><path class="cls-274" d="M23.31,11.79a2.88,2.88,0,0,0-3.8-1.43"/><path class="cls-275" d="M23.31,11.79a2.88,2.88,0,0,0-3.8-1.43"/><path class="cls-276" d="M23.31,11.79a2.88,2.88,0,0,0-3.8-1.43"/><path class="cls-277" d="M23.31,11.79a2.88,2.88,0,0,0-3.8-1.43"/><path class="cls-278" d="M23.31,11.79a2.88,2.88,0,0,0-3.8-1.43"/><path class="cls-279" d="M23.31,11.79a2.88,2.88,0,0,0-3.8-1.43"/><path class="cls-280" d="M23.31,11.79a2.88,2.88,0,0,0-3.8-1.43"/><path class="cls-281" d="M23.31,11.79a2.88,2.88,0,0,0-3.8-1.43"/><path class="cls-282" d="M23.31,11.79a2.88,2.88,0,0,0-3.8-1.43"/><path class="cls-283" d="M23.31,11.79a2.88,2.88,0,0,0-3.8-1.43"/><path class="cls-284" d="M23.31,11.79a2.88,2.88,0,0,0-3.8-1.43"/><path class="cls-285" d="M23.31,11.79a2.88,2.88,0,0,0-3.8-1.43"/><path class="cls-286" d="M23.31,11.79a2.88,2.88,0,0,0-3.8-1.43"/><path class="cls-287" d="M23.31,11.79a2.88,2.88,0,0,0-3.8-1.43"/><path class="cls-288" d="M23.31,11.79a2.88,2.88,0,0,0-3.8-1.43"/><path class="cls-289" d="M23.31,11.79a2.88,2.88,0,0,0-3.8-1.43"/><path class="cls-290" d="M23.31,11.79a2.88,2.88,0,0,0-3.8-1.43"/><path class="cls-291" d="M23.31,11.79a2.88,2.88,0,0,0-3.8-1.43"/><path class="cls-292" d="M23.31,11.79a2.88,2.88,0,0,0-3.8-1.43"/><path class="cls-293" d="M23.31,11.79a2.88,2.88,0,0,0-3.8-1.43"/><path class="cls-294" d="M23.31,11.79a2.88,2.88,0,0,0-3.8-1.43"/><path class="cls-295" d="M23.31,11.79a2.88,2.88,0,0,0-3.8-1.43"/></g><path class="cls-296" d="M23.39,11.56a2.87,2.87,0,0,0-3.79-1.43"/><path class="cls-297" d="M23.39,11.56a2.87,2.87,0,0,0-3.79-1.43"/><path class="cls-298" d="M23.39,11.56a2.87,2.87,0,0,0-3.79-1.43"/><path class="cls-299" d="M23.39,11.56a2.87,2.87,0,0,0-3.79-1.43"/><path class="cls-300" d="M23.39,11.56a2.87,2.87,0,0,0-3.79-1.43"/><path class="cls-301" d="M23.39,11.56a2.87,2.87,0,0,0-3.79-1.43"/><path class="cls-302" d="M23.39,11.56a2.87,2.87,0,0,0-3.79-1.43"/><path class="cls-303" d="M23.39,11.56a2.87,2.87,0,0,0-3.79-1.43"/><path class="cls-304" d="M23.39,11.56a2.87,2.87,0,0,0-3.79-1.43"/><path class="cls-305" d="M23.39,11.56a2.87,2.87,0,0,0-3.79-1.43"/><path class="cls-306" d="M23.39,11.56a2.87,2.87,0,0,0-3.79-1.43"/><path class="cls-307" d="M23.39,11.56a2.87,2.87,0,0,0-3.79-1.43"/><path class="cls-308" d="M23.39,11.56a2.87,2.87,0,0,0-3.79-1.43"/><path class="cls-309" d="M23.39,11.56a2.87,2.87,0,0,0-3.79-1.43"/><path class="cls-310" d="M23.39,11.56a2.87,2.87,0,0,0-3.79-1.43"/><path class="cls-311" d="M23.39,11.56a2.87,2.87,0,0,0-3.79-1.43"/><path class="cls-312" d="M23.39,11.56a2.87,2.87,0,0,0-3.79-1.43"/><path class="cls-313" d="M23.39,11.56a2.87,2.87,0,0,0-3.79-1.43"/><path class="cls-314" d="M23.39,11.56a2.87,2.87,0,0,0-3.79-1.43"/><path class="cls-315" d="M23.39,11.56a2.87,2.87,0,0,0-3.79-1.43"/><path class="cls-316" d="M23.39,11.56a2.87,2.87,0,0,0-3.79-1.43"/><path class="cls-317" d="M23.39,11.56a2.87,2.87,0,0,0-3.79-1.43"/></svg>
