<svg width="40" height="40" viewBox="0 0 40 40" fill="none" xmlns="http://www.w3.org/2000/svg">
<path d="M26.4338 30C29.513 30 31.6366 28.1569 31.179 25.874C28.2994 13.0436 27.4256 9.85134 27.9454 9.60547C28.3125 9.43183 29.3746 10.7276 30.9162 11.1359C34.6416 12.1126 40.2742 6.40751 34.5655 7.29186C32.3224 7.639 30.1587 6.23836 28.4879 5.15679C25.9072 3.4862 24.5024 2.57684 25.7974 10.0451C26.4349 13.7035 26.9697 16.3231 27.3475 18.1739C27.9957 21.3494 28.1819 22.2616 27.6325 22.2741C27.3321 22.152 27.0327 22.0578 26.6957 21.9724C26.088 21.8225 25.4516 21.7382 24.8053 21.7382C21.7271 21.7382 19.6036 23.5892 20.0621 25.874C20.5107 28.1569 23.3646 30 26.4338 30Z" fill="black"/>
<path d="M9.43861 36.0001C12.5065 36.0001 14.6302 34.148 14.1817 31.8642C11.3032 19.0336 10.4299 15.8416 10.9496 15.5958C11.3166 15.4222 12.3783 16.7177 13.919 17.126C17.6428 18.1136 23.2729 12.3985 17.5667 13.2918C15.3248 13.6386 13.1623 12.2382 11.4922 11.1569C8.91237 9.48636 7.50797 8.57698 8.80251 16.0451C9.44294 19.7286 9.9798 22.3594 10.358 24.2125C10.9912 27.3154 11.1795 28.2384 10.6644 28.2732C9.78432 27.9258 8.81239 27.7293 7.81082 27.7293C4.734 27.7293 2.61134 29.5804 3.05978 31.8642C3.51809 34.148 6.37069 36.0001 9.43861 36.0001Z" fill="black"/>
</svg>
