<svg width="40" height="40" viewBox="0 0 40 40" fill="none" xmlns="http://www.w3.org/2000/svg">
<path d="M16 21.6693V34.2834C16 35.8151 14 36.5359 12.8 35.5448L10.2 33.3824C9.2 32.5715 8 32.2111 6.7 32.2111H6.3C5 32.2111 4 31.3101 4 30.1388V25.9041C4 24.7328 5 23.8318 6.3 23.8318H6.7C8 23.8318 9.2 23.3813 10.1 22.6604L12.8 20.498C14 19.4168 16 20.2277 16 21.6693Z" fill="black"/>
<path d="M24 4C19.5817 4 16 7.58172 16 12C16 15.1147 17.7799 17.8136 20.3781 19.1351C20.2095 20.9087 19.6564 21.6655 19.3042 22.1473C19.1265 22.3904 19 22.5635 19 22.7619C19 23.4286 19.6667 23.4286 19.6667 23.4286C20.6132 23.4286 23.5813 22.2623 25.4097 20H28C32.4183 20 36 16.4183 36 12C36 7.58172 32.4183 4 28 4H24Z" fill="white" stroke="#0B8E69"/>
</svg>
