<svg version="1.1" xmlns="http://www.w3.org/2000/svg" xmlns:xlink="http://www.w3.org/1999/xlink" width="57" height="49" viewBox="0,0,57,49"><g transform="translate(-211.5,-155.5)"><g data-paper-data="{&quot;isPaintingLayer&quot;:true}" fill-rule="nonzero" stroke-width="1" stroke-miterlimit="10" stroke-dasharray="" stroke-dashoffset="0" style="mix-blend-mode: normal"><path d="M216,204c-2.20914,0 -4,-1.79086 -4,-4v-40c0,-2.20914 1.79086,-4 4,-4h48c2.20914,0 4,1.79086 4,4v40c0,2.20914 -1.79086,4 -4,4z" fill="#ff6680" stroke="#ff3355" stroke-linecap="butt" stroke-linejoin="miter"/><path d="M236,196c-8.83656,0 -16,-7.16344 -16,-16v0c0,-8.83656 7.16344,-16 16,-16h8c8.83656,0 16,7.16344 16,16v0c0,8.83656 -7.16344,16 -16,16z" fill="#ff4d6a" stroke="#ff3355" stroke-linecap="round" stroke-linejoin="round"/><text transform="translate(227.72001,186) scale(0.5,0.5)" font-size="40" xml:space="preserve" fill="#fffbfc" fill-rule="nonzero" stroke="none" stroke-width="1" stroke-linecap="butt" stroke-linejoin="miter" stroke-miterlimit="10" stroke-dasharray="" stroke-dashoffset="0" font-family="sans-serif" font-weight="normal" text-anchor="start" style="mix-blend-mode: normal"><tspan x="0" dy="0">Aa</tspan></text></g></g></svg>