<?xml version="1.0" encoding="UTF-8"?>
<svg width="20px" height="20px" viewBox="0 0 20 20" version="1.1" xmlns="http://www.w3.org/2000/svg" xmlns:xlink="http://www.w3.org/1999/xlink">
    <!-- Generator: Sketch 50.2 (55047) - http://www.bohemiancoding.com/sketch -->
    <title>delete</title>
    <desc>Created with Sketch.</desc>
    <defs></defs>
    <g id="delete" stroke="none" stroke-width="1" fill="none" fill-rule="evenodd">
        <g id="Delete-Icon" transform="translate(2.000000, 1.500000)" fill="#4C97FF" fill-rule="nonzero">
            <path d="M2,3.25 L14,3.25 C14.4437164,3.25 14.7904293,3.63311343 14.7462779,4.07462779 L13.6363275,15.1741315 C13.5468672,16.0687347 12.7940775,16.75 11.8950124,16.75 L4.10498756,16.75 C3.20592253,16.75 2.45313279,16.0687347 2.36367248,15.1741315 L1.25372211,4.07462779 C1.20957067,3.63311343 1.55628356,3.25 2,3.25 Z M8.75,12 L8.75,7 C8.75,6.58578644 8.41421356,6.25 8,6.25 C7.58578644,6.25 7.25,6.58578644 7.25,7 L7.25,12 C7.25,12.4142136 7.58578644,12.75 8,12.75 C8.41421356,12.75 8.75,12.4142136 8.75,12 Z M11.25,12 L11.25,7 C11.25,6.58578644 10.9142136,6.25 10.5,6.25 C10.0857864,6.25 9.75,6.58578644 9.75,7 L9.75,12 C9.75,12.4142136 10.0857864,12.75 10.5,12.75 C10.9142136,12.75 11.25,12.4142136 11.25,12 Z M6.25,12 L6.25,7 C6.25,6.58578644 5.91421356,6.25 5.5,6.25 C5.08578644,6.25 4.75,6.58578644 4.75,7 L4.75,12 C4.75,12.4142136 5.08578644,12.75 5.5,12.75 C5.91421356,12.75 6.25,12.4142136 6.25,12 Z M1.5,4 L14.5,4 L1.5,4 Z M1.5,3 L14.5,3 C15.0522847,3 15.5,3.44771525 15.5,4 C15.5,4.55228475 15.0522847,5 14.5,5 L1.5,5 C0.94771525,5 0.5,4.55228475 0.5,4 C0.5,3.44771525 0.94771525,3 1.5,3 Z M9.25,3.25 L9.25,2 C9.25,1.86192881 9.13807119,1.75 9,1.75 L7,1.75 C6.86192881,1.75 6.75,1.86192881 6.75,2 L6.75,3.25 L9.25,3.25 Z M7,0.25 L9,0.25 C9.96649831,0.25 10.75,1.03350169 10.75,2 L10.75,4.75 L5.25,4.75 L5.25,2 C5.25,1.03350169 6.03350169,0.25 7,0.25 Z" id="Combined-Shape"></path>
        </g>
    </g>
</svg>