<?xml version="1.0" encoding="UTF-8"?>
<svg width="40px" height="40px" viewBox="0 0 40 40" version="1.1" xmlns="http://www.w3.org/2000/svg" xmlns:xlink="http://www.w3.org/1999/xlink">
    <!-- Generator: Sketch 52.2 (67145) - http://www.bohemiancoding.com/sketch -->
    <title>Extensions/Software/Video-Sensing-Block</title>
    <desc>Created with Sketch.</desc>
    <g id="Extensions/Software/Video-Sensing-Block" stroke="none" stroke-width="1" fill="none" fill-rule="evenodd" stroke-opacity="0.15">
        <g id="video-motion" transform="translate(0.000000, 10.000000)" fill-rule="nonzero" stroke="#000000">
            <circle id="Oval-Copy" fill="#FFFFFF" opacity="0.25" stroke-linecap="round" stroke-linejoin="round" cx="32" cy="16" r="4.5"></circle>
            <circle id="Oval-Copy" fill="#FFFFFF" opacity="0.5" stroke-linecap="round" stroke-linejoin="round" cx="32" cy="12" r="4.5"></circle>
            <circle id="Oval-Copy" fill="#FFFFFF" opacity="0.75" stroke-linecap="round" stroke-linejoin="round" cx="32" cy="8" r="4.5"></circle>
            <circle id="Oval" fill="#FFFFFF" stroke-linecap="round" stroke-linejoin="round" cx="32" cy="4" r="4.5"></circle>
            <path d="M22.6719477,4.41957649 L16.5,8.41991298 L16.5,6.1 C16.5,4.08976454 14.9371806,2.5 13,2.5 L4.1,2.5 C2.07614237,2.5 0.5,4.07614237 0.5,6.1 L0.5,14 C0.5,15.9273987 2.08449839,17.5118971 4.1,17.6 L13,17.6 C14.9016602,17.6 16.5,15.946545 16.5,14 L16.5,11.7169048 L22.7572479,15.4712535 L22.8535534,15.5464466 C22.8737886,15.5666818 22.951531,15.6 23,15.6 C23.2669865,15.6 23.5,15.3825207 23.5,15.1 L23.5,4.8 C23.5,4.83676538 23.4438058,4.70564563 23.3712535,4.55724788 C23.2259056,4.31500139 22.9415937,4.25813899 22.6719477,4.41957649 Z" id="video_37_" fill="#4D4D4D"></path>
        </g>
    </g>
</svg>