<svg id="when_tilted_any_" data-name="when tilted (any)" xmlns="http://www.w3.org/2000/svg" width="24" height="24" viewBox="0 0 24 24"><defs><style>.cls-1{opacity:0.15;}.cls-2{fill:#fff;}.cls-3{opacity:0.3;}.cls-4{opacity:0.1;}</style></defs><title>SB</title><g id="Block"><g id="Block-2" data-name="Block"><g class="cls-1"><path d="M12.74,17.53a1.15,1.15,0,0,1-1.15-1.16V14.58l-4.78-1.2a1.45,1.45,0,0,1-1-1.75,1.41,1.41,0,0,1,1-1.05l4.78-1.21V7.63a1.15,1.15,0,0,1,2-.82l4.38,4.38a1.12,1.12,0,0,1,0,1.62l-4.38,4.38A1.14,1.14,0,0,1,12.74,17.53Z"/><path d="M12.74,7a.63.63,0,0,1,.45.19l4.39,4.38a.66.66,0,0,1,0,.92l-4.39,4.38a.63.63,0,0,1-.45.19.65.65,0,0,1-.65-.66V14.19l-5.16-1.3a.94.94,0,0,1-.67-1.14.92.92,0,0,1,.67-.69l5.16-1.3V7.63A.65.65,0,0,1,12.74,7m0-1h0a1.65,1.65,0,0,0-1.65,1.66V9l-4.4,1.11a1.95,1.95,0,0,0,0,3.77L11.09,15v1.4A1.65,1.65,0,0,0,12.74,18a1.63,1.63,0,0,0,1.16-.48l4.38-4.39a1.62,1.62,0,0,0,0-2.32L13.9,6.45A1.63,1.63,0,0,0,12.74,6Z"/></g><path class="cls-2" d="M13.19,7.16l4.39,4.38a.66.66,0,0,1,0,.92l-4.39,4.38a.64.64,0,0,1-1.1-.47V14.19l-5.16-1.3a.94.94,0,0,1-.67-1.14.92.92,0,0,1,.67-.69l5.16-1.3V7.63A.64.64,0,0,1,13.19,7.16Z"/></g></g></svg>