<svg id="when_tilted_any_" data-name="when tilted (any)" xmlns="http://www.w3.org/2000/svg" width="24" height="24" viewBox="0 0 24 24"><defs><style>.cls-1{opacity:0.15;}.cls-2{fill:#fff;}.cls-3{opacity:0.3;}.cls-4{opacity:0.1;}</style></defs><title>SB</title><g id="Block"><g id="Block-2" data-name="Block"><g class="cls-1"><path d="M11.26,17.53a1.14,1.14,0,0,1-.81-.34L6.07,12.81a1.12,1.12,0,0,1,0-1.62l4.38-4.38a1.15,1.15,0,0,1,2,.82V9.42l4.78,1.2a1.45,1.45,0,0,1,1,1.75,1.41,1.41,0,0,1-1,1.05l-4.78,1.21v1.74A1.15,1.15,0,0,1,11.26,17.53Z"/><path d="M11.26,7a.65.65,0,0,1,.65.66V9.81l5.16,1.3a.94.94,0,0,1,.67,1.14.92.92,0,0,1-.67.69l-5.16,1.3v2.13a.65.65,0,0,1-.65.66.63.63,0,0,1-.45-.19L6.42,12.46a.66.66,0,0,1,0-.92l4.39-4.38A.63.63,0,0,1,11.26,7m0-1h0a1.63,1.63,0,0,0-1.16.48L5.72,10.84a1.62,1.62,0,0,0,0,2.32l4.38,4.39a1.63,1.63,0,0,0,1.16.48,1.65,1.65,0,0,0,1.65-1.66V15l4.4-1.11a1.95,1.95,0,0,0,0-3.77L12.91,9V7.63A1.65,1.65,0,0,0,11.26,6Z"/></g><path class="cls-2" d="M10.81,16.84,6.42,12.46a.66.66,0,0,1,0-.92l4.39-4.38a.64.64,0,0,1,1.1.47V9.81l5.16,1.3a.94.94,0,0,1,.67,1.14.92.92,0,0,1-.67.69l-5.16,1.3v2.13A.64.64,0,0,1,10.81,16.84Z"/></g></g></svg>