<svg xmlns="http://www.w3.org/2000/svg" xmlns:xlink="http://www.w3.org/1999/xlink" width="40" height="40" viewBox="0 0 40 40"><defs><style>.cls-1{opacity:0.3;}.cls-10,.cls-2{opacity:0.1;}.cls-3{fill:#4cbf56;}.cls-4{fill:none;stroke:#0b8e69;}.cls-4,.cls-6{stroke-miterlimit:10;}.cls-5{fill:#0fbd8c;}.cls-6{fill:#fff;stroke:#e6e6e6;}.cls-7{fill:#ffab19;}.cls-8{fill:url(#linear-gradient);}.cls-9{fill:url(#linear-gradient-2);}.cls-10{fill:#231f20;}.cls-11{fill:#7c87a5;}.cls-12{fill:url(#linear-gradient-3);}.cls-13{fill:url(#linear-gradient-4);}.cls-14{fill:#e6e7e8;}</style><linearGradient id="linear-gradient" x1="20" y1="36" x2="20" y2="4" gradientUnits="userSpaceOnUse"><stop offset="0" stop-color="#231f20"/><stop offset="0.33" stop-color="#231f20" stop-opacity="0.88"/><stop offset="0.68" stop-color="#231f20" stop-opacity="0.51"/><stop offset="1" stop-color="#231f20" stop-opacity="0"/></linearGradient><linearGradient id="linear-gradient-2" y1="13.1" x2="20" y2="26.89" xlink:href="#linear-gradient"/><linearGradient id="linear-gradient-3" x1="3256.63" y1="-732" x2="3263.37" y2="-732" gradientTransform="translate(752 3280) rotate(-90)" gradientUnits="userSpaceOnUse"><stop offset="0" stop-color="#ffab19"/><stop offset="1" stop-color="#ffab19" stop-opacity="0"/></linearGradient><linearGradient id="linear-gradient-4" x1="20" y1="14.1" x2="20" y2="25.89" gradientUnits="userSpaceOnUse"><stop offset="0" stop-color="#231f20"/><stop offset="0.21" stop-color="#231f20" stop-opacity="0.88"/><stop offset="0.43" stop-color="#231f20" stop-opacity="0.51"/><stop offset="0.63" stop-color="#231f20" stop-opacity="0"/></linearGradient></defs><title>SB</title><g id="Bit"><path class="cls-3" d="M25.92,3.81V18.43a.48.48,0,0,1-.48.49H14.56a.48.48,0,0,1-.48-.49V3.81a1.06,1.06,0,0,1,.72-1c.29-.09.58-.18.87-.25a.44.44,0,0,1,.32,0,.46.46,0,0,0,.2.05.42.42,0,0,0,.34-.17.45.45,0,0,1,.28-.16,7.27,7.27,0,0,1,.73-.12.45.45,0,0,1,.32.06.36.36,0,0,0,.23.08.45.45,0,0,0,.31-.14A.48.48,0,0,1,18.7,2l.72,0a.41.41,0,0,1,.31.11.45.45,0,0,0,.54,0A.41.41,0,0,1,20.58,2l.72,0a.48.48,0,0,1,.3.13.39.39,0,0,0,.54.06.47.47,0,0,1,.33-.06l.72.12a.45.45,0,0,1,.28.16.41.41,0,0,0,.34.17.4.4,0,0,0,.3-.13h0c.36.09.72.2,1.08.31A1.06,1.06,0,0,1,25.92,3.81Z"/><path class="cls-4" d="M25.92,3.81V18.43a.48.48,0,0,1-.48.49H14.56a.48.48,0,0,1-.48-.49V3.81a1.06,1.06,0,0,1,.72-1c.29-.09.58-.18.87-.25a.44.44,0,0,1,.32,0,.46.46,0,0,0,.2.05.42.42,0,0,0,.34-.17.45.45,0,0,1,.28-.16,7.27,7.27,0,0,1,.73-.12.45.45,0,0,1,.32.06.36.36,0,0,0,.23.08.45.45,0,0,0,.31-.14A.48.48,0,0,1,18.7,2l.72,0a.41.41,0,0,1,.31.11.45.45,0,0,0,.54,0A.41.41,0,0,1,20.58,2l.72,0a.48.48,0,0,1,.3.13.39.39,0,0,0,.54.06.47.47,0,0,1,.33-.06l.72.12a.45.45,0,0,1,.28.16.41.41,0,0,0,.34.17.4.4,0,0,0,.3-.13h0c.36.09.72.2,1.08.31A1.06,1.06,0,0,1,25.92,3.81Z"/><path class="cls-5" d="M25.92,3.81V18.43a.48.48,0,0,1-.48.49H14.56a.48.48,0,0,1-.48-.49V3.81a1.06,1.06,0,0,1,.72-1c.29-.09.58-.18.87-.25a.44.44,0,0,1,.32,0,.46.46,0,0,0,.2.05.42.42,0,0,0,.34-.17.45.45,0,0,1,.28-.16,7.27,7.27,0,0,1,.73-.12.45.45,0,0,1,.32.06.36.36,0,0,0,.23.08.45.45,0,0,0,.31-.14A.48.48,0,0,1,18.7,2l.72,0a.41.41,0,0,1,.31.11.45.45,0,0,0,.54,0A.41.41,0,0,1,20.58,2l.72,0a.48.48,0,0,1,.3.13.39.39,0,0,0,.54.06.47.47,0,0,1,.33-.06l.72.12a.45.45,0,0,1,.28.16.41.41,0,0,0,.34.17.4.4,0,0,0,.3-.13h0c.36.09.72.2,1.08.31A1.06,1.06,0,0,1,25.92,3.81Z"/><circle class="cls-6" cx="20" cy="20" r="16"/><circle class="cls-7" cx="20" cy="20" r="5.89"/><g class="cls-2"><path class="cls-8" d="M20,5A15,15,0,1,1,5,20,15,15,0,0,1,20,5m0-1A16,16,0,1,0,36,20,16,16,0,0,0,20,4Z"/></g><g class="cls-2"><path class="cls-9" d="M20,14.1A5.9,5.9,0,1,1,14.11,20,5.89,5.89,0,0,1,20,14.1m0-1A6.9,6.9,0,1,0,26.89,20,6.91,6.91,0,0,0,20,13.1Z"/></g><circle class="cls-10" cx="20" cy="20" r="4.21"/><path class="cls-11" d="M19.88,6.6a.16.16,0,0,1,.27,0l.4.69.39.69a.15.15,0,0,1-.13.23H19.22A.15.15,0,0,1,19.09,8l.39-.69Z"/><circle class="cls-12" cx="20" cy="20" r="3.37"/><g class="cls-2"><path class="cls-13" d="M20,15.1A4.9,4.9,0,1,1,15.11,20,4.9,4.9,0,0,1,20,15.1m0-1A5.9,5.9,0,1,0,25.89,20,5.89,5.89,0,0,0,20,14.1Z"/></g><rect class="cls-11" x="6.53" y="19.16" width="1.68" height="0.84" rx="0.42" ry="0.42"/><rect class="cls-11" x="31.79" y="19.16" width="1.68" height="0.84" rx="0.42" ry="0.42"/><rect class="cls-11" x="19.16" y="31.79" width="1.68" height="0.84" rx="0.42" ry="0.42" transform="translate(52.21 12.21) rotate(90)"/><path class="cls-14" d="M26.74,14.06a.4.4,0,0,1-.31-.13l-.18-.18a8.84,8.84,0,0,0-12.5,0l-.18.18a.42.42,0,0,1-.61-.57l.19-.21a9.68,9.68,0,0,1,13.7,0l.19.21A.41.41,0,0,1,27,14,.38.38,0,0,1,26.74,14.06Z"/><g class="cls-2"><path d="M20.58,2l.72,0a.48.48,0,0,1,.3.13.38.38,0,0,0,.31.14.45.45,0,0,0,.23-.07.46.46,0,0,1,.24-.08h.09l.72.12a.45.45,0,0,1,.28.16.41.41,0,0,0,.34.17.4.4,0,0,0,.3-.13h0c.36.09.72.2,1.08.31a1.07,1.07,0,0,1,.72,1V5.14a16,16,0,1,1-11.84,0V3.81a1.07,1.07,0,0,1,.72-1l.87-.25.14,0a.39.39,0,0,1,.18,0,.35.35,0,0,0,.2.05.4.4,0,0,0,.34-.17.45.45,0,0,1,.28-.16l.73-.12h.08a.42.42,0,0,1,.24.07.36.36,0,0,0,.23.08.41.41,0,0,0,.31-.14A.48.48,0,0,1,18.7,2l.72,0a.45.45,0,0,1,.31.11.45.45,0,0,0,.54,0A.45.45,0,0,1,20.58,2m0-1a1.58,1.58,0,0,0-.58.11A1.58,1.58,0,0,0,19.42,1l-.8,0a1.5,1.5,0,0,0-.6.18,1.34,1.34,0,0,0-.4-.06l-.22,0a7.73,7.73,0,0,0-.77.13,1.39,1.39,0,0,0-.59.24.86.86,0,0,0-.23,0,1.83,1.83,0,0,0-.4.05l-.91.26a2.09,2.09,0,0,0-1.42,2v.66A17,17,0,1,0,37,20,16.88,16.88,0,0,0,26.92,4.47V3.81a2.08,2.08,0,0,0-1.39-2c-.42-.12-.79-.24-1.17-.33l-.12,0h-.38a1.61,1.61,0,0,0-.49-.19c-.24-.05-.51-.09-.78-.12l-.21,0a1.39,1.39,0,0,0-.4.06A1.5,1.5,0,0,0,21.39,1l-.76,0h-.05Z"/></g></g></svg>