<?xml version="1.0" encoding="UTF-8" standalone="no"?>
<svg width="20px" height="20px" viewBox="0 0 20 20" version="1.1" xmlns="http://www.w3.org/2000/svg" xmlns:xlink="http://www.w3.org/1999/xlink">
    <!-- Generator: Sketch 48.2 (47327) - http://www.bohemiancoding.com/sketch -->
    <title>trim-confirm</title>
    <desc>Created with Sketch.</desc>
    <defs></defs>
    <g id="Page-1" stroke="none" stroke-width="1" fill="none" fill-rule="evenodd">
        <g id="trim-confirm" fill="#FF661A">
            <g id="trim-icon" transform="translate(2.000000, 2.000000)">
                <path d="M16.0021973,1.82934469 L10.4045559,7.45368895 L8.51073978,5.54865148 L12.2766039,1.76482275 C13.2877276,0.749969266 14.926858,0.749969266 15.9368933,1.76482275 L16.0021973,1.82934469 Z" id="Fill-1"></path>
                <path d="M4.54210671,12.8773591 C4.54210671,13.6756813 3.89668548,14.3230878 3.11194905,14.3230878 C2.31632862,14.3230878 1.6709074,13.6756813 1.6709074,12.8773591 C1.6709074,12.086692 2.31632862,11.440379 3.11194905,11.440379 C3.89668548,11.440379 4.54210671,12.086692 4.54210671,12.8773591 L4.54210671,12.8773591 Z M6.63401159,11.5836396 C6.82992359,11.3878866 6.82992359,11.0685577 6.63401159,10.8706175 L5.10916313,9.33849497 C4.91216272,9.14055479 4.59434991,9.14055479 4.3984379,9.33849497 L3.87709428,9.861232 C3.63546947,9.7912421 3.37425346,9.75952793 3.11194905,9.75952793 C1.39010019,9.75952793 0.000213333333,11.1571387 0.000213333333,12.8872014 C0.000213333333,14.8414505 1.794985,16.3779474 3.83246988,15.9230131 C5.36929074,15.5796252 6.34776238,14.1568618 6.19973997,12.5820892 C6.18450237,12.4213311 6.15620397,12.2638539 6.11266797,12.1074702 L6.63401159,11.5836396 Z" id="Fill-4"></path>
                <path d="M16.0021973,14.1706411 L7.77280455,5.90199109 C7.60301414,5.73139072 7.32764893,5.73139072 7.15785853,5.90199109 L5.87898848,7.18805543 C5.70919807,7.3586558 5.70919807,7.6353346 5.87898848,7.80702856 L12.2766039,14.235163 C13.2877276,15.2500165 14.926858,15.2500165 15.9368933,14.235163 L16.0021973,14.1706411 Z" id="Fill-7"></path>
                <path d="M4.54210671,3.11617453 C4.54210671,3.91559037 3.89668548,4.5629969 3.11194905,4.5629969 C2.31632862,4.5629969 1.6709074,3.91559037 1.6709074,3.11617453 C1.6709074,2.32660102 2.31632862,1.68028808 3.11194905,1.68028808 C3.89668548,1.68028808 4.54210671,2.32660102 4.54210671,3.11617453 M6.63401159,4.41864274 L6.11266797,3.89590571 C6.15620397,3.73842845 6.18450237,3.58313837 6.19973997,3.42128673 C6.34776238,1.84651408 5.36929074,0.423750737 3.83246988,0.0814564041 C1.794985,-0.374571509 0.000213333333,1.16192542 0.000213333333,3.11617453 C0.000213333333,4.84623726 1.39010019,6.2427544 3.11194905,6.2427544 C3.37425346,6.2427544 3.63546947,6.21213382 3.87709428,6.14214392 L4.3984379,6.66488096 C4.59434991,6.86282113 4.91216272,6.86282113 5.10916313,6.66488096 L6.63401159,5.1327584 C6.82992359,4.93591182 6.82992359,4.61548933 6.63401159,4.41864274" id="Fill-10"></path>
                <path d="M8.39297489,8.04477549 C8.39297489,7.81402755 8.20794689,7.62811689 7.97829448,7.62811689 C7.74973047,7.62811689 7.56361406,7.81402755 7.56361406,8.04477549 C7.56361406,8.27442984 7.74973047,8.46143409 7.97829448,8.46143409 C8.20794689,8.46143409 8.39297489,8.27442984 8.39297489,8.04477549" id="Fill-12"></path>
            </g>
        </g>
    </g>
</svg>