<svg width="40" height="40" xmlns="http://www.w3.org/2000/svg"><g transform="translate(8 .5)" fill="none" fill-rule="evenodd"><path d="M12 39a3 3 0 0 1-3-3c0-.6.4-1 1-1 .5 0 1 .4 1 1a1 1 0 1 0 2 0v-.2a1 1 0 0 0-.3-.7l-.8-.8a3 3 0 0 1-1-2.1V30c0-.6.5-1 1-1 .6 0 1 .4 1 1v2.2l.4.7.8.8c.6.6.9 1.3.9 2.1v.2a3 3 0 0 1-3 3z" stroke-opacity=".1" stroke="#000" fill="#E6E7E8"/><path d="M23.7.3A1 1 0 0 0 23 0H1a1 1 0 0 0-.7.3A1 1 0 0 0 0 1v26c0 .3.1.5.3.7.2.2.4.3.7.3h22c.3 0 .5-.1.7-.3.2-.2.3-.4.3-.7V1a1 1 0 0 0-.3-.7zM12 4c2 0 3.3 2 2.6 3.8L13.3 11a1.4 1.4 0 0 1-2.7 0L9.5 7.7l-.2-1C9.2 5.4 10.4 4 12 4z" stroke="#7C87A5" fill="#8592AF" fill-rule="nonzero" stroke-linecap="round" stroke-linejoin="round"/><path d="M2 2v24h20V2H2zm10 2c2 0 3.3 2 2.6 3.8L13.3 11a1.4 1.4 0 0 1-2.7 0L9.5 7.7l-.2-1C9.2 5.4 10.4 4 12 4z" stroke="#7C87A5" fill="#5CB1D6" fill-rule="nonzero" stroke-linecap="round" stroke-linejoin="round"/><path stroke="#7C87A5" fill="#8592AF" stroke-linecap="round" stroke-linejoin="round" d="M22 26H2v-6l20-4z"/><path d="M.3 27.7L2 26M.3.3L2 2M22 2L23.7.3M23.7 27.7L22 26" stroke="#7C87A5" stroke-linecap="round" stroke-linejoin="round"/><circle fill="#FFBF00" cx="12" cy="14.8" r="1.2"/><path stroke="#7C87A5" fill="#E6E7E8" stroke-linecap="round" stroke-linejoin="round" d="M10 28h4v4h-4z"/><path d="M15.5 22h-7a.5.5 0 0 1-.5-.5c0-.3.2-.5.5-.5h7c.3 0 .5.2.5.5s-.2.5-.5.5zM17.5 24h-11a.5.5 0 0 1-.5-.5c0-.3.2-.5.5-.5h11c.3 0 .5.2.5.5s-.2.5-.5.5z" fill="#FFBF00"/></g></svg>