<?xml version="1.0" encoding="UTF-8" standalone="no"?>
<svg width="28px" height="25px" viewBox="0 0 28 25" version="1.1" xmlns="http://www.w3.org/2000/svg" xmlns:xlink="http://www.w3.org/1999/xlink">
    <!-- Generator: Sketch 43.2 (39069) - http://www.bohemiancoding.com/sketch -->
    <title>add-sprite</title>
    <desc>Created with Sketch.</desc>
    <defs></defs>
    <g id="Page-1" stroke="none" stroke-width="1" fill="none" fill-rule="evenodd" stroke-linecap="round" stroke-linejoin="round">
        <g id="Desktop---1280x720" transform="translate(-1144.000000, -669.000000)" stroke="#4C97FF">
            <g id="Sprite-Area" transform="translate(792.000000, 460.000000)">
                <g id="Sprite-List" transform="translate(0.000000, 78.000000)">
                    <g id="add-sprite" transform="translate(345.000000, 132.000000)">
                        <g transform="translate(8.000000, 0.000000)">
                            <path d="M21,16 C21,21 16.9,23.2 11.7,23.2 C6.5,23.2 2.5,21 2.5,16 C2.5,11 5.3,6.7 11.8,6.7 C18.3,6.7 21,11 21,16 Z M11.7,23 C20.1,23 21.6,17 19.5,14.9 C17.1,12.4 14,16 11.7,16 C9.4,16 6.3,12.4 3.9,14.9 C1.8,17 3.4,23 11.7,23 Z" id="Combined-Shape" fill="#4C97FF" fill-rule="nonzero"></path>
                            <path d="M3.7,11.1 L3,5.8 C3,5.4 3.4,5.2 3.7,5.3 L8.3,7.8" id="Shape" fill="#4C97FF" fill-rule="nonzero"></path>
                            <path d="M19.9,11.1 L20.6,5.7 C20.6,5.3 20.2,5.1 19.9,5.2 L15.3,7.7" id="Shape" fill="#4C97FF" fill-rule="nonzero"></path>
                            <path d="M7,17.75 L0,17.75" id="Shape" stroke-width="1.5" fill="#FFFFFF" fill-rule="nonzero"></path>
                            <path d="M2,22 L7,20" id="Shape" stroke-width="1.5" fill="#FFFFFF" fill-rule="nonzero"></path>
                            <path d="M16,17.75 L23,17.75" id="Shape" stroke-width="1.5" fill="#FFFFFF" fill-rule="nonzero"></path>
                            <path d="M22,22 L16,20" id="Shape" stroke-width="1.5" fill="#FFFFFF" fill-rule="nonzero"></path>
                            <g id="+" transform="translate(22.000000, 0.000000)" stroke-width="2">
                                <path d="M2,0 L2,4" id="Shape"></path>
                                <path d="M4,2 L0,2" id="Shape"></path>
                            </g>
                        </g>
                    </g>
                </g>
            </g>
        </g>
    </g>
</svg>