<?xml version="1.0" encoding="UTF-8" standalone="no"?>
<!DOCTYPE svg PUBLIC "-//W3C//DTD SVG 1.1//EN" "http://www.w3.org/Graphics/SVG/1.1/DTD/svg11.dtd">
<svg version="1.1" xmlns="http://www.w3.org/2000/svg" xmlns:xlink="http://www.w3.org/1999/xlink" preserveAspectRatio="xMidYMid meet" viewBox="0 0 20 20" width="20" height="20"><defs><path d="M7.13 11.71C6.66 11.29 6.52 10.6 6.2 10.78C5.86 10.96 5.87 12.08 6.91 12.42C7.27 12.53 7.59 12.53 7.86 12.53C7.92 12.53 8.51 12.47 8.72 12.18C8.92 11.89 8.78 11.81 8.71 11.78C8.63 11.73 8.08 12.06 7.79 12.01C7.58 11.96 7.34 11.9 7.13 11.71Z" id="aJ1LEigy9"></path><path d="M6.08 11.5C6.16 11.8 6.3 11.96 6.41 12.07C6.39 12.01 6.36 11.82 6.5 11.71C6.68 11.56 7 11.64 7 11.64C7 11.64 6.73 11.32 6.6 11.09C6.46 10.89 6.42 10.76 6.25 10.8C6.08 10.85 5.99 11.21 6.08 11.5Z" id="b1VAvn3FL0"></path><path d="M7.78 13.35C7.78 13.35 7.75 13.36 7.75 13.36C7.71 13.37 7.69 13.41 7.71 13.44C7.86 13.65 8.12 14.06 7.65 14.2C7.2 14.35 6.36 13.15 6.72 12.83C6.88 12.71 7.02 12.77 7.1 12.81C7.14 12.82 7.18 12.82 7.23 12.82C7.33 12.78 7.52 12.71 7.66 12.64C8.03 12.45 8.11 12.37 8.28 12.25C8.45 12.12 8.84 11.8 9.16 12.08C9.43 12.3 9.28 12.56 9.13 12.66C8.98 12.76 8.45 13.14 7.78 13.35Z" id="b5pGn1fgX"></path><path d="M11.22 11.39C11.42 11.21 11.7 10.86 12.01 11.14C12.32 11.42 11.74 11.9 11.49 12.02C10.9 12.29 10.43 11.79 10.32 11.65C10.22 11.51 10.04 11.28 10.04 11.06C10.05 10.82 10.34 10.76 10.49 10.89C10.53 10.93 11.05 11.54 11.22 11.39Z" id="a5lv7N9jgL"></path><path d="M10.2 11.85C10.31 11.69 10.43 11.38 10.43 11.38C10.5 11.16 10.55 10.76 10.27 10.76C10.09 10.77 9.92 10.75 9.63 10.71C9.12 10.6 9.02 10.53 8.81 10.88C8.58 11.29 7.99 11.59 8.72 12.3C8.72 12.3 9.13 12.62 9.64 13.11C9.98 13.44 10.51 13.92 10.7 14.08C10.74 14.12 10.79 14.13 10.84 14.14C11.67 14.22 12.28 14.13 12.28 13.77C12.28 13.16 11.07 13.37 11.07 13.37C11.07 13.37 10.67 13.04 10.49 12.87C10.45 12.83 10.24 12.63 9.86 12.25C9.99 12.12 10.11 11.98 10.2 11.85Z" id="f155Jjo1kI"></path><path d="M10.03 11.24C9.64 10.99 9.5 11.27 9.35 11.47C9.18 11.73 9.35 11.86 9.52 12.02C9.65 12.14 9.78 12.25 9.78 12.25C9.78 12.25 10.04 12.07 10.23 11.68C10.19 11.6 10.39 11.47 10.03 11.24Z" id="h8lDpSNvZ"></path><path d="M8.61 12.33C8.1 12.61 7.69 11.76 7.6 11.46C7.52 11.2 7.75 11.03 7.93 10.88C8.3 10.62 8.61 10.38 8.95 10.51C9.37 10.66 9.06 11 8.85 11.16C8.72 11.25 8.6 11.35 8.5 11.41C8.48 11.45 8.47 11.5 8.49 11.55C8.68 11.79 8.97 12.08 8.61 12.33Z" id="auoCbNuDa"></path><path d="M9.81 6.46C9.41 6.48 9.02 6.62 9.02 6.62C8.92 6.55 8.1 6.02 7.99 5.95C7.96 5.93 7.92 5.96 7.92 5.99C7.94 6.14 8.08 7.36 8.1 7.51C8.15 7.45 7.2 8.6 7.8 9.57C8.41 10.54 9.69 10.98 11.3 10.66C12.9 10.35 13.27 9.43 13.17 8.94C13.07 8.46 12.46 8.28 12.46 8.28C12.46 8.28 12.45 7.9 12.18 7.43C12.02 7.15 11.47 6.75 11.47 6.75C11.45 6.66 11.27 5.93 11.25 5.84C11.24 5.8 11.2 5.8 11.18 5.81C11.13 5.86 10.88 6.09 10.44 6.49C10.18 6.46 9.96 6.45 9.81 6.46Z" id="a5vAG6p0j9"></path><path d="M13.13 8.95C13.23 9.44 12.82 10.31 11.24 10.62C9.18 11.05 8.2 9.82 8.77 8.92C9.34 8.01 10.32 8.78 11.03 8.73C11.64 8.69 11.71 8.15 12.44 8.31C12.57 8.44 13.02 8.47 13.13 8.95Z" id="cj8q9l1h0"></path><path d="M9.82 9.17C9.98 9.23 10.44 9.37 10.95 9.4C11.41 9.43 11.69 9.4 11.81 9.38C11.86 9.37 11.89 9.41 11.87 9.45C11.8 9.68 11.47 10.32 10.58 10.27C9.81 10.19 9.73 9.64 9.75 9.22C9.75 9.19 9.79 9.17 9.82 9.17Z" id="e3b7NaLzY"></path><path d="M12.99 8.74C12.99 8.74 13.6 8.73 14 8.41" id="bbSDhyVJf"></path><path d="M13.02 9.24C13.02 9.24 13.36 9.4 13.89 9.36" id="cIrHKfjmt"></path><path d="M11.37 8.59C11.38 8.71 11.25 8.94 11.12 8.95C10.96 8.97 10.61 8.76 10.61 8.62C10.6 8.52 10.83 8.51 11 8.51C11.18 8.51 11.36 8.53 11.37 8.59Z" id="a1c2Je6VZ8"></path><path d="M7.17 8.38C7.17 8.38 7.9 8.62 8.2 8.88" id="a4UcNebbVu"></path><path d="M7.23 9.23C7.23 9.23 7.86 9.33 8.22 9.18" id="ed59dBTGN"></path><path d="M12.02 8.48C11.78 8.64 11.39 8.46 11.13 8.08C10.89 7.69 10.88 7.26 11.12 7.11C11.35 6.94 11.75 7.13 12 7.51C12.25 7.9 12.26 8.33 12.02 8.48Z" id="i4XJoToSV"></path><path d="M11.97 8C11.97 8.09 11.9 8.17 11.81 8.17C11.73 8.17 11.66 8.09 11.66 8C11.66 7.91 11.73 7.83 11.81 7.83C11.9 7.83 11.97 7.91 11.97 8" id="d4HYEIo5sG"></path><path d="M9.9 8.75C9.62 8.91 9.24 8.79 8.99 8.42C8.72 8.04 8.71 7.56 8.97 7.37C9.23 7.17 9.64 7.38 9.89 7.75C10.15 8.13 10.13 8.59 9.9 8.75Z" id="b2Ee0icDcC"></path><path d="M9.84 8.25C9.84 8.34 9.77 8.42 9.69 8.42C9.6 8.42 9.53 8.34 9.53 8.25C9.53 8.15 9.6 8.08 9.69 8.08C9.77 8.08 9.84 8.15 9.84 8.25" id="cpqqBtMLE"></path><path d="M7.31 1.5C7.41 1.5 7.5 1.58 7.5 1.68C7.5 1.95 7.5 2.55 7.5 2.81C7.5 2.91 7.41 3 7.31 3C6.15 3 2.85 3 1.68 3C1.58 3 1.5 2.91 1.5 2.81C1.5 2.55 1.5 1.95 1.5 1.68C1.5 1.58 1.58 1.5 1.68 1.5C2.85 1.5 6.15 1.5 7.31 1.5Z" id="aVj90AMOV"></path><path d="M2.65 1.5C2.84 1.5 3 1.65 3 1.84C3 2.97 3 6.02 3 7.15C3 7.34 2.84 7.5 2.65 7.5C2.42 7.5 2.07 7.5 1.84 7.5C1.65 7.5 1.5 7.34 1.5 7.15C1.5 6.02 1.5 2.97 1.5 1.84C1.5 1.65 1.65 1.5 1.84 1.5C2.07 1.5 2.42 1.5 2.65 1.5Z" id="m14V9NBGcS"></path><path d="M12.69 1.5C12.59 1.5 12.5 1.58 12.5 1.68C12.5 1.95 12.5 2.55 12.5 2.81C12.5 2.91 12.59 3 12.69 3C13.85 3 17.15 3 18.32 3C18.42 3 18.5 2.91 18.5 2.81C18.5 2.55 18.5 1.95 18.5 1.68C18.5 1.58 18.42 1.5 18.32 1.5C17.15 1.5 13.85 1.5 12.69 1.5Z" id="fi8Lc3xDH"></path><path d="M17.35 1.5C17.16 1.5 17 1.65 17 1.84C17 2.97 17 6.02 17 7.15C17 7.34 17.16 7.5 17.35 7.5C17.58 7.5 17.92 7.5 18.16 7.5C18.35 7.5 18.5 7.34 18.5 7.15C18.5 6.02 18.5 2.97 18.5 1.84C18.5 1.65 18.35 1.5 18.16 1.5C17.92 1.5 17.58 1.5 17.35 1.5Z" id="e3J0aXMvVc"></path><path d="M12.68 18.5C12.58 18.5 12.5 18.41 12.5 18.31C12.5 18.05 12.5 17.45 12.5 17.18C12.5 17.08 12.58 17 12.68 17C13.85 17 17.15 17 18.31 17C18.41 17 18.5 17.08 18.5 17.18C18.5 17.45 18.5 18.05 18.5 18.31C18.5 18.41 18.41 18.5 18.31 18.5C17.15 18.5 13.85 18.5 12.68 18.5Z" id="b4r83pdp4Z"></path><path d="M17.34 18.5C17.15 18.5 17 18.34 17 18.15C17 17.02 17 13.97 17 12.84C17 12.65 17.15 12.5 17.34 12.5C17.57 12.5 17.92 12.5 18.15 12.5C18.34 12.5 18.5 12.65 18.5 12.84C18.5 13.97 18.5 17.02 18.5 18.15C18.5 18.34 18.34 18.5 18.15 18.5C17.92 18.5 17.57 18.5 17.34 18.5Z" id="e12DLOHqvx"></path><path d="M7.31 18.5C7.42 18.5 7.5 18.41 7.5 18.31C7.5 18.05 7.5 17.45 7.5 17.18C7.5 17.08 7.42 17 7.31 17C6.15 17 2.85 17 1.69 17C1.58 17 1.5 17.08 1.5 17.18C1.5 17.45 1.5 18.05 1.5 18.31C1.5 18.41 1.58 18.5 1.69 18.5C2.85 18.5 6.15 18.5 7.31 18.5Z" id="ajf7zoavG"></path><path d="M2.65 18.5C2.85 18.5 3 18.34 3 18.15C3 17.02 3 13.97 3 12.84C3 12.65 2.85 12.5 2.65 12.5C2.42 12.5 2.08 12.5 1.85 12.5C1.66 12.5 1.5 12.65 1.5 12.84C1.5 13.97 1.5 17.02 1.5 18.15C1.5 18.34 1.66 18.5 1.85 18.5C2.08 18.5 2.42 18.5 2.65 18.5Z" id="a1KuR9jfn1"></path></defs><g><g><g><g><use xlink:href="#aJ1LEigy9" opacity="1" fill="#ffab19" fill-opacity="1"></use><g><use xlink:href="#aJ1LEigy9" opacity="1" fill-opacity="0" stroke="#001026" stroke-width="0.1" stroke-opacity="1"></use></g></g><g><use xlink:href="#b1VAvn3FL0" opacity="1" fill="#ffffff" fill-opacity="1"></use><g><use xlink:href="#b1VAvn3FL0" opacity="1" fill-opacity="0" stroke="#000000" stroke-width="0.1" stroke-opacity="0"></use></g></g><g><use xlink:href="#b5pGn1fgX" opacity="1" fill="#ffab19" fill-opacity="1"></use><g><use xlink:href="#b5pGn1fgX" opacity="1" fill-opacity="0" stroke="#001026" stroke-width="0.1" stroke-opacity="1"></use></g></g><g><use xlink:href="#a5lv7N9jgL" opacity="1" fill="#ffab19" fill-opacity="1"></use><g><use xlink:href="#a5lv7N9jgL" opacity="1" fill-opacity="0" stroke="#001026" stroke-width="0.1" stroke-opacity="1"></use></g></g><g><use xlink:href="#f155Jjo1kI" opacity="1" fill="#ffab19" fill-opacity="1"></use><g><use xlink:href="#f155Jjo1kI" opacity="1" fill-opacity="0" stroke="#001026" stroke-width="0.1" stroke-opacity="1"></use></g></g><g><use xlink:href="#h8lDpSNvZ" opacity="1" fill="#ffffff" fill-opacity="1"></use><g><use xlink:href="#h8lDpSNvZ" opacity="1" fill-opacity="0" stroke="#000000" stroke-width="0.1" stroke-opacity="0"></use></g></g><g><use xlink:href="#auoCbNuDa" opacity="1" fill="#ffab19" fill-opacity="1"></use><g><use xlink:href="#auoCbNuDa" opacity="1" fill-opacity="0" stroke="#001026" stroke-width="0.1" stroke-opacity="1"></use></g></g><g><use xlink:href="#a5vAG6p0j9" opacity="1" fill="#ffab19" fill-opacity="1"></use><g><use xlink:href="#a5vAG6p0j9" opacity="1" fill-opacity="0" stroke="#001026" stroke-width="0.1" stroke-opacity="1"></use></g></g><g><use xlink:href="#cj8q9l1h0" opacity="1" fill="#ffffff" fill-opacity="1"></use><g><use xlink:href="#cj8q9l1h0" opacity="1" fill-opacity="0" stroke="#000000" stroke-width="0.1" stroke-opacity="0"></use></g></g><g><use xlink:href="#e3b7NaLzY" opacity="1" fill="#ffffff" fill-opacity="1"></use><g><use xlink:href="#e3b7NaLzY" opacity="1" fill-opacity="0" stroke="#001026" stroke-width="0.1" stroke-opacity="1"></use></g></g><g><use xlink:href="#bbSDhyVJf" opacity="1" fill="#000000" fill-opacity="0"></use><g><use xlink:href="#bbSDhyVJf" opacity="1" fill-opacity="0" stroke="#001026" stroke-width="0.1" stroke-opacity="1"></use></g></g><g><use xlink:href="#cIrHKfjmt" opacity="1" fill="#000000" fill-opacity="0"></use><g><use xlink:href="#cIrHKfjmt" opacity="1" fill-opacity="0" stroke="#001026" stroke-width="0.1" stroke-opacity="1"></use></g></g><g><use xlink:href="#a1c2Je6VZ8" opacity="1" fill="#001026" fill-opacity="1"></use><g><use xlink:href="#a1c2Je6VZ8" opacity="1" fill-opacity="0" stroke="#001026" stroke-width="0.1" stroke-opacity="1"></use></g></g><g><use xlink:href="#a4UcNebbVu" opacity="1" fill="#000000" fill-opacity="0"></use><g><use xlink:href="#a4UcNebbVu" opacity="1" fill-opacity="0" stroke="#001026" stroke-width="0.1" stroke-opacity="1"></use></g></g><g><use xlink:href="#ed59dBTGN" opacity="1" fill="#000000" fill-opacity="0"></use><g><use xlink:href="#ed59dBTGN" opacity="1" fill-opacity="0" stroke="#001026" stroke-width="0.1" stroke-opacity="1"></use></g></g><g><use xlink:href="#i4XJoToSV" opacity="1" fill="#ffffff" fill-opacity="1"></use><g><use xlink:href="#i4XJoToSV" opacity="1" fill-opacity="0" stroke="#001026" stroke-width="0.1" stroke-opacity="1"></use></g></g><g><use xlink:href="#d4HYEIo5sG" opacity="1" fill="#001026" fill-opacity="1"></use><g><use xlink:href="#d4HYEIo5sG" opacity="1" fill-opacity="0" stroke="#000000" stroke-width="0.1" stroke-opacity="0"></use></g></g><g><use xlink:href="#b2Ee0icDcC" opacity="1" fill="#ffffff" fill-opacity="1"></use><g><use xlink:href="#b2Ee0icDcC" opacity="1" fill-opacity="0" stroke="#001026" stroke-width="0.1" stroke-opacity="1"></use></g></g><g><use xlink:href="#cpqqBtMLE" opacity="1" fill="#001026" fill-opacity="1"></use><g><use xlink:href="#cpqqBtMLE" opacity="1" fill-opacity="0" stroke="#000000" stroke-width="0.1" stroke-opacity="0"></use></g></g></g><g><g><use xlink:href="#aVj90AMOV" opacity="1" fill="#4c97ff" fill-opacity="1"></use></g><g><use xlink:href="#m14V9NBGcS" opacity="1" fill="#4c97ff" fill-opacity="1"></use></g></g><g><g><use xlink:href="#fi8Lc3xDH" opacity="1" fill="#4c97ff" fill-opacity="1"></use></g><g><use xlink:href="#e3J0aXMvVc" opacity="1" fill="#4c97ff" fill-opacity="1"></use></g></g><g><g><use xlink:href="#b4r83pdp4Z" opacity="1" fill="#4c97ff" fill-opacity="1"></use></g><g><use xlink:href="#e12DLOHqvx" opacity="1" fill="#4c97ff" fill-opacity="1"></use></g></g><g><g><use xlink:href="#ajf7zoavG" opacity="1" fill="#4c97ff" fill-opacity="1"></use></g><g><use xlink:href="#a1KuR9jfn1" opacity="1" fill="#4c97ff" fill-opacity="1"></use></g></g></g></g></svg>