<svg xmlns="http://www.w3.org/2000/svg" viewBox="0 0 119.61 30"><defs><style>.cls-1,.cls-2{fill:#23c9c9;}.cls-2{opacity:0;}.cls-3{fill:#46ce46;}.cls-4{fill:#e86be5;}.cls-5{fill:#f78857;}</style></defs><title>back-icons_1</title><g id="Layer_2" data-name="Layer 2"><g id="Layer_1-2" data-name="Layer 1"><rect class="cls-1" x="4.16" y="12.72" width="24.9" height="4.56"/><polygon class="cls-1" points="15.94 30 0.94 15 15.94 0 19.16 3.23 7.39 15 19.16 26.77 15.94 30"/><rect class="cls-2" width="119.61" height="30"/><rect class="cls-3" x="34.16" y="12.72" width="24.9" height="4.56"/><polygon class="cls-3" points="45.94 30 30.94 15 45.94 0 49.16 3.23 37.39 15 49.16 26.77 45.94 30"/><rect class="cls-4" x="64.16" y="12.72" width="24.9" height="4.56"/><polygon class="cls-4" points="75.94 30 60.94 15 75.94 0 79.16 3.23 67.39 15 79.16 26.77 75.94 30"/><rect class="cls-5" x="94.16" y="12.72" width="24.9" height="4.56"/><polygon class="cls-5" points="105.94 30 90.94 15 105.94 0 109.16 3.23 97.39 15 109.16 26.77 105.94 30"/></g></g></svg>