<svg xmlns="http://www.w3.org/2000/svg" viewBox="0 0 104 26.01"><defs><style>.cls-1{fill:#23c9c9;}.cls-2{fill:#46ce46;}.cls-3{fill:#e86be5;}.cls-4{fill:#f78857;}</style></defs><title>edit-icons</title><g id="Layer_2" data-name="Layer 2"><g id="Layer_1-2" data-name="Layer 1"><path class="cls-1" d="M0,20.58V26H5.42l16-16L16,4.61ZM25.58,5.84a1.44,1.44,0,0,0,0-2L22.2.42a1.44,1.44,0,0,0-2,0L17.52,3.07l5.42,5.42Z"/><path class="cls-2" d="M26,20.59V26h5.42l16-16L42,4.61ZM51.58,5.84a1.44,1.44,0,0,0,0-2L48.2.43a1.44,1.44,0,0,0-2,0L43.52,3.07l5.42,5.42Z"/><path class="cls-3" d="M52,20.59V26h5.42l16-16L68,4.62ZM77.58,5.85a1.44,1.44,0,0,0,0-2L74.2.43a1.44,1.44,0,0,0-2,0L69.52,3.07l5.42,5.42Z"/><path class="cls-4" d="M78,20.6V26h5.42l16-16L94,4.62ZM103.58,5.85a1.44,1.44,0,0,0,0-2L100.2.43a1.44,1.44,0,0,0-2,0L95.52,3.08l5.42,5.42Z"/></g></g></svg>