<svg xmlns="http://www.w3.org/2000/svg" viewBox="0 0 208 100"><defs><style>.cls-1,.cls-2{fill:#23c9c9;}.cls-2{opacity:0;}.cls-3{fill:#46ce46;}.cls-4{fill:#e86be5;}.cls-5{fill:#f78857;}</style></defs><title>speaker-icons_1</title><g id="Layer_2" data-name="Layer 2"><g id="Layer_1-2" data-name="Layer 1"><path id="_Compound_Path_" data-name="&lt;Compound Path&gt;" class="cls-1" d="M0,66.45v17.1H11.56L26,97.81V52.19L11.56,66.45ZM39,75a12.81,12.81,0,0,0-7.22-11.49V86.46A12.74,12.74,0,0,0,39,75ZM31.78,50v5.87a19.89,19.89,0,0,1,0,38.26V100a25.56,25.56,0,0,0,0-50Z"/><path id="_Compound_Path_2" data-name="&lt;Compound Path&gt;" class="cls-2" d="M0,16.45v17.1H11.56L26,47.81V2.19L11.56,16.45ZM39,25a12.81,12.81,0,0,0-7.22-11.49V36.46A12.74,12.74,0,0,0,39,25ZM31.78,0V5.87a19.89,19.89,0,0,1,0,38.26V50A25.72,25.72,0,0,0,52,25,25.72,25.72,0,0,0,31.78,0Z"/><path id="_Compound_Path_3" data-name="&lt;Compound Path&gt;" class="cls-1" d="M0,16.45v17.1H11.56L26,47.81V2.19L11.56,16.45Z"/><path id="_Compound_Path_4" data-name="&lt;Compound Path&gt;" class="cls-3" d="M52,66.45v17.1H63.56L78,97.81V52.19L63.56,66.45ZM91,75a12.81,12.81,0,0,0-7.22-11.49V86.46A12.74,12.74,0,0,0,91,75ZM83.78,50v5.87a19.89,19.89,0,0,1,0,38.26V100a25.56,25.56,0,0,0,0-50Z"/><path id="_Compound_Path_5" data-name="&lt;Compound Path&gt;" class="cls-3" d="M52,16.45v17.1H63.56L78,47.81V2.19L63.56,16.45Z"/><path id="_Compound_Path_6" data-name="&lt;Compound Path&gt;" class="cls-3" d="M52,16.45v17.1H63.56L78,47.81V2.19L63.56,16.45Z"/><path id="_Compound_Path_7" data-name="&lt;Compound Path&gt;" class="cls-4" d="M104,66.45v17.1h11.56L130,97.81V52.19L115.56,66.45ZM143,75a12.81,12.81,0,0,0-7.22-11.49V86.46A12.74,12.74,0,0,0,143,75Zm-7.22-25v5.87a19.89,19.89,0,0,1,0,38.26V100a25.56,25.56,0,0,0,0-50Z"/><path id="_Compound_Path_8" data-name="&lt;Compound Path&gt;" class="cls-4" d="M104,16.45v17.1h11.56L130,47.81V2.19L115.56,16.45Z"/><path id="_Compound_Path_9" data-name="&lt;Compound Path&gt;" class="cls-4" d="M104,16.45v17.1h11.56L130,47.81V2.19L115.56,16.45Z"/><path id="_Compound_Path_10" data-name="&lt;Compound Path&gt;" class="cls-5" d="M156,66.45v17.1h11.56L182,97.81V52.19L167.56,66.45ZM195,75a12.81,12.81,0,0,0-7.22-11.49V86.46A12.74,12.74,0,0,0,195,75Zm-7.22-25v5.87a19.89,19.89,0,0,1,0,38.26V100a25.56,25.56,0,0,0,0-50Z"/><path id="_Compound_Path_11" data-name="&lt;Compound Path&gt;" class="cls-5" d="M156,16.45v17.1h11.56L182,47.81V2.19L167.56,16.45Z"/><path id="_Compound_Path_12" data-name="&lt;Compound Path&gt;" class="cls-5" d="M156,16.45v17.1h11.56L182,47.81V2.19L167.56,16.45Z"/></g></g></svg>