<svg xmlns="http://www.w3.org/2000/svg" viewBox="0 0 74 131"><defs><style>.cls-1{fill:#23c9c9;}.cls-2{opacity:0;}.cls-3{fill:#e86be5;}.cls-4{fill:#46ce46;}.cls-5{fill:#f78857;}</style></defs><title>tts-play-icons</title><g id="Layer_2" data-name="Layer 2"><g id="Layer_1-2" data-name="Layer 1"><ellipse class="cls-1" cx="13.46" cy="11.79" rx="6.73" ry="6.74"/><path class="cls-1" d="M13.46,21.89C9,21.89,0,24.15,0,28.63V32H26.91V28.63C26.91,24.15,17.95,21.89,13.46,21.89ZM26.51,5.66,23.68,8.51a5.59,5.59,0,0,1,0,6.55l2.83,2.85C29.9,14.5,29.9,9.36,26.51,5.66ZM32.07,0,29.33,2.75a13.45,13.45,0,0,1,0,18.09l2.74,2.75A16.57,16.57,0,0,0,32.07,0Z"/><g class="cls-2"><ellipse class="cls-3" cx="50.46" cy="11.79" rx="6.73" ry="6.74"/><path class="cls-3" d="M50.46,21.89C46,21.89,37,24.15,37,28.63V32H63.91V28.63C63.91,24.15,54.95,21.89,50.46,21.89ZM63.51,5.66,60.68,8.51a5.59,5.59,0,0,1,0,6.55l2.83,2.85C66.9,14.5,66.9,9.36,63.51,5.66ZM69.07,0,66.33,2.75a13.45,13.45,0,0,1,0,18.09l2.74,2.75A16.57,16.57,0,0,0,69.07,0Z"/></g><polygon class="cls-1" points="67.53 15.56 43.53 2.06 43.53 29.06 67.53 15.56"/><ellipse class="cls-4" cx="13.46" cy="44.79" rx="6.73" ry="6.74"/><path class="cls-4" d="M13.46,54.89C9,54.89,0,57.15,0,61.63V65H26.91V61.63C26.91,57.15,17.95,54.89,13.46,54.89ZM26.51,38.66l-2.83,2.85a5.59,5.59,0,0,1,0,6.55l2.83,2.85C29.9,47.5,29.9,42.36,26.51,38.66ZM32.07,33l-2.74,2.75a13.45,13.45,0,0,1,0,18.09l2.74,2.75A16.57,16.57,0,0,0,32.07,33Z"/><g class="cls-2"><ellipse class="cls-3" cx="50.46" cy="44.79" rx="6.73" ry="6.74"/><path class="cls-3" d="M50.46,54.89C46,54.89,37,57.15,37,61.63V65H63.91V61.63C63.91,57.15,54.95,54.89,50.46,54.89ZM63.51,38.66l-2.83,2.85a5.59,5.59,0,0,1,0,6.55l2.83,2.85C66.9,47.5,66.9,42.36,63.51,38.66ZM69.07,33l-2.74,2.75a13.45,13.45,0,0,1,0,18.09l2.74,2.75A16.57,16.57,0,0,0,69.07,33Z"/></g><polygon class="cls-4" points="67.53 48.56 43.53 35.06 43.53 62.06 67.53 48.56"/><ellipse class="cls-3" cx="13.46" cy="77.79" rx="6.73" ry="6.74"/><path class="cls-3" d="M13.46,87.89C9,87.89,0,90.15,0,94.63V98H26.91V94.63C26.91,90.15,17.95,87.89,13.46,87.89ZM26.51,71.66l-2.83,2.85a5.59,5.59,0,0,1,0,6.55l2.83,2.85C29.9,80.5,29.9,75.36,26.51,71.66ZM32.07,66l-2.74,2.75a13.45,13.45,0,0,1,0,18.09l2.74,2.75A16.57,16.57,0,0,0,32.07,66Z"/><g class="cls-2"><ellipse class="cls-3" cx="50.46" cy="77.79" rx="6.73" ry="6.74"/><path class="cls-3" d="M50.46,87.89C46,87.89,37,90.15,37,94.63V98H63.91V94.63C63.91,90.15,54.95,87.89,50.46,87.89ZM63.51,71.66l-2.83,2.85a5.59,5.59,0,0,1,0,6.55l2.83,2.85C66.9,80.5,66.9,75.36,63.51,71.66ZM69.07,66l-2.74,2.75a13.45,13.45,0,0,1,0,18.09l2.74,2.75A16.57,16.57,0,0,0,69.07,66Z"/></g><polygon class="cls-3" points="67.53 81.56 43.53 68.06 43.53 95.06 67.53 81.56"/><ellipse class="cls-5" cx="13.46" cy="110.79" rx="6.73" ry="6.74"/><path class="cls-5" d="M13.46,120.89C9,120.89,0,123.15,0,127.63V131H26.91v-3.37C26.91,123.15,17.95,120.89,13.46,120.89Zm13.05-16.24-2.83,2.85a5.59,5.59,0,0,1,0,6.55l2.83,2.85C29.9,113.5,29.9,108.36,26.51,104.66ZM32.07,99l-2.74,2.75a13.45,13.45,0,0,1,0,18.09l2.74,2.75A16.57,16.57,0,0,0,32.07,99Z"/><g class="cls-2"><ellipse class="cls-3" cx="50.46" cy="110.79" rx="6.73" ry="6.74"/><path class="cls-3" d="M50.46,120.89C46,120.89,37,123.15,37,127.63V131H63.91v-3.37C63.91,123.15,54.95,120.89,50.46,120.89Zm13.05-16.24-2.83,2.85a5.59,5.59,0,0,1,0,6.55l2.83,2.85C66.9,113.5,66.9,108.36,63.51,104.66ZM69.07,99l-2.74,2.75a13.45,13.45,0,0,1,0,18.09l2.74,2.75A16.57,16.57,0,0,0,69.07,99Z"/></g><polygon class="cls-5" points="67.53 114.56 43.53 101.06 43.53 128.06 67.53 114.56"/></g></g></svg>