<svg width="35" height="35" viewBox="0 0 32 32" fill="none" xmlns="http://www.w3.org/2000/svg">
<path d="M16 32C24.8366 32 32 24.8366 32 16C32 7.16344 24.8366 0 16 0C7.16344 0 0 7.16344 0 16C0 24.8366 7.16344 32 16 32Z" fill="#48A145"/>
<path d="M18.3334 21.3333H11.6667V12.6667C11.6667 12.3 11.3667 12 11 12C10.6334 12 10.3334 12.3 10.3334 12.6667V21.3333C10.3334 22.0667 10.9334 22.6667 11.6667 22.6667H18.3334C18.7 22.6667 19 22.3667 19 22C19 21.6333 18.7 21.3333 18.3334 21.3333ZM21.6667 18.6667V10.6667C21.6667 9.93333 21.0667 9.33333 20.3334 9.33333H14.3334C13.6 9.33333 13 9.93333 13 10.6667V18.6667C13 19.4 13.6 20 14.3334 20H20.3334C21.0667 20 21.6667 19.4 21.6667 18.6667ZM20.3334 18.6667H14.3334V10.6667H20.3334V18.6667Z" fill="white"/>
</svg>
