<svg width="35" height="35" viewBox="0 0 32 32" fill="none" xmlns="http://www.w3.org/2000/svg">
<path d="M16 32C24.8366 32 32 24.8366 32 16C32 7.16344 24.8366 0 16 0C7.16344 0 0 7.16344 0 16C0 24.8366 7.16344 32 16 32Z" fill="#48A145"/>
<path d="M12 20.6667C12 21.4 12.6 22 13.3334 22H18.6667C19.4 22 20 21.4 20 20.6667V12.6667H12V20.6667ZM14.1134 16.3933C13.8534 16.1333 13.8534 15.7133 14.1134 15.4533C14.3734 15.1933 14.7934 15.1933 15.0534 15.4533L16 16.3933L16.94 15.4533C17.2 15.1933 17.62 15.1933 17.88 15.4533C18.14 15.7133 18.14 16.1333 17.88 16.3933L16.94 17.3333L17.88 18.2733C18.14 18.5333 18.14 18.9533 17.88 19.2133C17.62 19.4733 17.2 19.4733 16.94 19.2133L16 18.2733L15.06 19.2133C14.8 19.4733 14.38 19.4733 14.12 19.2133C13.86 18.9533 13.86 18.5333 14.12 18.2733L15.06 17.3333L14.1134 16.3933ZM20 10.6667H18.3334L17.86 10.1933C17.74 10.0733 17.5667 10 17.3934 10H14.6067C14.4334 10 14.26 10.0733 14.14 10.1933L13.6667 10.6667H12C11.6334 10.6667 11.3334 10.9667 11.3334 11.3333C11.3334 11.7 11.6334 12 12 12H20C20.3667 12 20.6667 11.7 20.6667 11.3333C20.6667 10.9667 20.3667 10.6667 20 10.6667Z" fill="white"/>
</svg>
