<svg width="35" height="35" viewBox="0 0 32 32" fill="none" xmlns="http://www.w3.org/2000/svg">
<path d="M16 32C24.8366 32 32 24.8366 32 16C32 7.16344 24.8366 0 16 0C7.16344 0 0 7.16344 0 16C0 24.8366 7.16344 32 16 32Z" fill="#48A145"/>
<path d="M9.99915 19.6408V21.6675C9.99915 21.8542 10.1458 22.0008 10.3325 22.0008H12.3591C12.4458 22.0008 12.5325 21.9675 12.5925 21.9008L19.8725 14.6275L17.3725 12.1275L10.0991 19.4008C10.0325 19.4675 9.99915 19.5475 9.99915 19.6408ZM21.8058 12.6942C22.0658 12.4342 22.0658 12.0142 21.8058 11.7542L20.2458 10.1942C19.9858 9.93416 19.5658 9.93416 19.3058 10.1942L18.0858 11.4142L20.5858 13.9142L21.8058 12.6942Z" fill="white"/>
</svg>
