<?xml version="1.0" encoding="UTF-8"?>
<svg width="20px" height="20px" viewBox="0 0 20 20" version="1.1" xmlns="http://www.w3.org/2000/svg" xmlns:xlink="http://www.w3.org/1999/xlink">
    <!-- Generator: Sketch 49.3 (51167) - http://www.bohemiancoding.com/sketch -->
    <title>fill</title>
    <desc>Created with Sketch.</desc>
    <defs></defs>
    <g id="fill" stroke="none" stroke-width="1" fill="none" fill-rule="evenodd">
        <path d="M10.7000634,5.80137446 L9.29979614,5.80137446 L9.29979614,8.59994895 L7.89980891,8.59994895 L7.89980891,4.39998724 L6.49982167,4.39998724 L6.49982167,5.80137446 L5.09983443,5.80137446 L5.09983443,3 L9.29979614,3 L9.29979614,4.39998724 L10.7011834,4.39998724 L10.7011834,5.80123446 L12.1000506,5.80123446 L12.1000506,7.2012217 L10.7000634,7.2012217 L10.7000634,5.80137446 Z M5.10011443,8.60120894 L5.10011443,7.2012217 L6.50010167,7.2012217 L6.50010167,8.60120894 L5.10011443,8.60120894 Z M16.3000123,16.9997324 L16.3000123,10.0011962 L17.6999996,10.0011962 L17.6999996,16.9997324 L16.3000123,16.9997324 Z M12.1003306,7.20080171 L13.5003179,7.20080171 L13.5003179,8.60078894 L16.3002923,8.60078894 L16.3002923,10.0007762 L14.9003051,10.0007762 L14.9003051,11.3573638 L13.5003179,11.3573638 L13.5003179,12.758751 L12.1003306,12.758751 L12.1003306,14.1587383 L10.7003434,14.1587383 L10.7003434,15.5587255 L9.29895615,15.5587255 L9.29895615,16.9587128 L7.89896891,16.9587128 L7.89896891,15.5587255 L6.49898168,15.5587255 L6.49898168,14.1587383 L5.10039442,14.1587383 L5.10039442,12.758751 L3.70040719,12.758751 L3.70040719,11.3573638 L6.49898168,11.3573638 L6.49898168,11.3713637 L9.29895615,11.3713637 L9.29895615,10.0007762 L12.1003306,10.0007762 L12.1003306,7.20080171 Z M3.69998719,8.60064895 L5.09997443,8.60064895 L5.09997443,10.0006362 L3.69998719,10.0006362 L3.69998719,11.3572238 L2.29999995,11.3572238 L2.29999995,9.95723658 L3.69998719,9.95723658 L3.69998719,8.60064895 Z" id="Combined-Shape" fill="#575E75"></path>
    </g>
</svg>