<?xml version="1.0" encoding="UTF-8"?>
<svg width="20px" height="20px" viewBox="0 0 20 20" version="1.1" xmlns="http://www.w3.org/2000/svg" xmlns:xlink="http://www.w3.org/1999/xlink">
    <!-- Generator: Sketch 48.2 (47327) - http://www.bohemiancoding.com/sketch -->
    <title>Language</title>
    <desc>Created with Sketch.</desc>
    <defs></defs>
    <g id="Page-1" stroke="none" stroke-width="1" fill="none" fill-rule="evenodd" stroke-linecap="round" stroke-linejoin="round">
        <g id="Language" stroke="#FFFFFF" stroke-width="1.25">
            <g id="language" transform="translate(2.000000, 2.000000)">
                <path d="M15.6352,8.11294118 C15.6352,12.2682353 12.2667294,15.6357647 8.11237647,15.6357647 C3.95708235,15.6357647 0.588611765,12.2682353 0.588611765,8.11294118 C0.588611765,3.95764706 3.95708235,0.589176471 8.11237647,0.589176471 C12.2667294,0.589176471 15.6352,3.95764706 15.6352,8.11294118 Z" id="Stroke-1"></path>
                <path d="M11.9808,8.11661176 C11.9808,9.74955294 11.7153882,11.2601412 11.2542118,12.4921412 C10.5558588,14.3933176 9.40762353,15.6347294 8.11068235,15.6347294 C6.81374118,15.6347294 5.66927059,14.3933176 4.96715294,12.4921412 C4.51068235,11.2601412 4.24432941,9.74955294 4.24432941,8.11661176 C4.24432941,6.48272941 4.51068235,4.97308235 4.96715294,3.74108235 C5.66927059,1.82955294 6.81374118,0.588141176 8.11068235,0.588141176 C9.40762353,0.588141176 10.5558588,1.82955294 11.2542118,3.74108235 C11.7153882,4.97308235 11.9808,6.48272941 11.9808,8.11661176 Z" id="Stroke-3"></path>
                <path d="M0.955011765,10.2811294 L15.2684235,10.2811294" id="Stroke-5"></path>
                <path d="M0.955011765,5.94663529 L15.2684235,5.94663529" id="Stroke-7"></path>
                <path d="M8.11218824,0.590023529 L8.11218824,15.6375529" id="Stroke-9"></path>
            </g>
        </g>
    </g>
</svg>